G04*
G04 #@! TF.GenerationSoftware,Altium Limited,Altium Designer,19.0.9 (268)*
G04*
G04 Layer_Color=8388736*
%FSLAX25Y25*%
%MOIN*%
G70*
G01*
G75*
%ADD11C,0.01000*%
%ADD20C,0.00050*%
%ADD21C,0.00600*%
D11*
X83571Y44425D02*
Y108400D01*
X4831Y44425D02*
Y108400D01*
X57696Y107400D02*
X83571D01*
X4831D02*
X27505D01*
X77571Y109400D02*
X83571Y107400D01*
X77571Y105400D02*
X83571Y107400D01*
X4831D02*
X10830Y105400D01*
X4831Y107400D02*
X10830Y109400D01*
D20*
X83571Y43400D02*
X83558Y44401D01*
X83520Y45402D01*
X83456Y46401D01*
X83367Y47399D01*
X83253Y48393D01*
X83113Y49385D01*
X82948Y50373D01*
X82758Y51356D01*
X82543Y52334D01*
X82304Y53307D01*
X82039Y54273D01*
X81751Y55232D01*
X81437Y56183D01*
X81100Y57126D01*
X80739Y58060D01*
X80354Y58985D01*
X79946Y59899D01*
X79515Y60803D01*
X79061Y61696D01*
X78584Y62576D01*
X78086Y63445D01*
X77565Y64300D01*
X77022Y65142D01*
X76459Y65970D01*
X75874Y66783D01*
X75269Y67581D01*
X74644Y68363D01*
X73999Y69130D01*
X73335Y69879D01*
X72652Y70612D01*
X71951Y71327D01*
X71232Y72023D01*
X70495Y72702D01*
X69741Y73361D01*
X68971Y74001D01*
X68184Y74621D01*
X67382Y75221D01*
X66565Y75800D01*
X65734Y76359D01*
X64889Y76896D01*
X64030Y77411D01*
X63159Y77905D01*
X62275Y78376D01*
X61379Y78824D01*
X60473Y79250D01*
X59556Y79652D01*
X58628Y80031D01*
X57692Y80386D01*
X56747Y80717D01*
X55794Y81024D01*
X54833Y81307D01*
X53865Y81565D01*
X52891Y81798D01*
X51912Y82007D01*
X50928Y82191D01*
X49939Y82349D01*
X48946Y82482D01*
X47951Y82591D01*
X46953Y82673D01*
X45953Y82731D01*
X44952Y82762D01*
X43950Y82769D01*
X42949Y82750D01*
X41949Y82705D01*
X40949Y82635D01*
X39953Y82540D01*
X38958Y82419D01*
X37968Y82273D01*
X36981Y82102D01*
X35999Y81906D01*
X35022Y81685D01*
X34051Y81439D01*
X33087Y81168D01*
X32130Y80874D01*
X31181Y80554D01*
X30240Y80211D01*
X29308Y79844D01*
X28386Y79454D01*
X27474Y79040D01*
X26573Y78603D01*
X25683Y78143D01*
X24805Y77661D01*
X23940Y77156D01*
X23088Y76630D01*
X22250Y76082D01*
X21426Y75513D01*
X20616Y74924D01*
X19822Y74314D01*
X19044Y73684D01*
X18281Y73034D01*
X17536Y72365D01*
X16808Y71677D01*
X16097Y70972D01*
X15405Y70248D01*
X14732Y69507D01*
X14077Y68749D01*
X13442Y67974D01*
X12827Y67184D01*
X12232Y66378D01*
X11658Y65558D01*
X11105Y64723D01*
X10573Y63874D01*
X10063Y63012D01*
X9576Y62138D01*
X9110Y61251D01*
X8668Y60352D01*
X8248Y59443D01*
X7851Y58524D01*
X7479Y57594D01*
X7129Y56656D01*
X6804Y55708D01*
X6503Y54753D01*
X6227Y53791D01*
X5975Y52821D01*
X5747Y51846D01*
X5545Y50865D01*
X5367Y49880D01*
X5215Y48890D01*
X5088Y47896D01*
X4986Y46900D01*
X4910Y45902D01*
X4859Y44901D01*
X4834Y43900D01*
X4834Y42899D01*
X4859Y41898D01*
X4910Y40898D01*
X4986Y39899D01*
X5088Y38903D01*
X5215Y37909D01*
X5367Y36919D01*
X5545Y35934D01*
X5747Y34953D01*
X5974Y33978D01*
X6227Y33008D01*
X6503Y32046D01*
X6804Y31091D01*
X7129Y30143D01*
X7479Y29205D01*
X7851Y28275D01*
X8248Y27356D01*
X8668Y26447D01*
X9110Y25548D01*
X9576Y24661D01*
X10063Y23787D01*
X10573Y22925D01*
X11105Y22076D01*
X11658Y21241D01*
X12232Y20421D01*
X12827Y19615D01*
X13442Y18825D01*
X14077Y18050D01*
X14732Y17292D01*
X15405Y16551D01*
X16097Y15827D01*
X16808Y15122D01*
X17536Y14434D01*
X18281Y13765D01*
X19043Y13115D01*
X19822Y12485D01*
X20616Y11875D01*
X21426Y11286D01*
X22250Y10717D01*
X23088Y10169D01*
X23940Y9643D01*
X24805Y9138D01*
X25683Y8656D01*
X26573Y8196D01*
X27474Y7759D01*
X28386Y7345D01*
X29308Y6955D01*
X30240Y6588D01*
X31181Y6245D01*
X32130Y5926D01*
X33087Y5631D01*
X34051Y5360D01*
X35022Y5114D01*
X35999Y4893D01*
X36981Y4697D01*
X37968Y4526D01*
X38958Y4380D01*
X39952Y4259D01*
X40949Y4164D01*
X41948Y4094D01*
X42949Y4049D01*
X43950Y4030D01*
X44952Y4037D01*
X45953Y4068D01*
X46952Y4126D01*
X47951Y4208D01*
X48946Y4316D01*
X49939Y4450D01*
X50928Y4608D01*
X51912Y4792D01*
X52891Y5001D01*
X53865Y5234D01*
X54833Y5492D01*
X55794Y5775D01*
X56747Y6082D01*
X57692Y6413D01*
X58628Y6768D01*
X59556Y7147D01*
X60473Y7549D01*
X61379Y7975D01*
X62275Y8423D01*
X63158Y8894D01*
X64030Y9388D01*
X64889Y9903D01*
X65734Y10440D01*
X66565Y10999D01*
X67382Y11578D01*
X68184Y12178D01*
X68971Y12798D01*
X69741Y13438D01*
X70495Y14097D01*
X71231Y14775D01*
X71951Y15472D01*
X72652Y16187D01*
X73335Y16919D01*
X73999Y17669D01*
X74644Y18435D01*
X75269Y19218D01*
X75874Y20016D01*
X76459Y20829D01*
X77022Y21657D01*
X77565Y22499D01*
X78086Y23354D01*
X78584Y24222D01*
X79061Y25103D01*
X79515Y25996D01*
X79946Y26900D01*
X80354Y27814D01*
X80739Y28739D01*
X81100Y29673D01*
X81437Y30616D01*
X81751Y31567D01*
X82039Y32526D01*
X82304Y33492D01*
X82543Y34464D01*
X82758Y35443D01*
X82948Y36426D01*
X83113Y37414D01*
X83253Y38405D01*
X83367Y39400D01*
X83456Y40398D01*
X83520Y41397D01*
X83558Y42398D01*
X83571Y43399D01*
D21*
X33104Y103801D02*
X29105D01*
X33104Y107800D01*
Y108799D01*
X32104Y109799D01*
X30105D01*
X29105Y108799D01*
X35103D02*
X36103Y109799D01*
X38102D01*
X39102Y108799D01*
Y104801D01*
X38102Y103801D01*
X36103D01*
X35103Y104801D01*
Y108799D01*
X41101Y103801D02*
Y104801D01*
X42101D01*
Y103801D01*
X41101D01*
X46099Y108799D02*
X47099Y109799D01*
X49099D01*
X50098Y108799D01*
Y104801D01*
X49099Y103801D01*
X47099D01*
X46099Y104801D01*
Y108799D01*
X52097D02*
X53097Y109799D01*
X55097D01*
X56096Y108799D01*
Y104801D01*
X55097Y103801D01*
X53097D01*
X52097Y104801D01*
Y108799D01*
M02*
