G04*
G04 #@! TF.GenerationSoftware,Altium Limited,Altium Designer,19.0.9 (268)*
G04*
G04 Layer_Color=32896*
%FSLAX25Y25*%
%MOIN*%
G70*
G01*
G75*
%ADD11C,0.01000*%
%ADD19C,0.00500*%
G36*
X30874Y68419D02*
X30810Y68392D01*
X30746Y68362D01*
X30630Y68295D01*
X30525Y68216D01*
X30476Y68179D01*
X30435Y68141D01*
X30394Y68104D01*
X30360Y68070D01*
X30330Y68036D01*
X30304Y68010D01*
X30285Y67988D01*
X30270Y67969D01*
X30263Y67958D01*
X30259Y67954D01*
X30210Y67890D01*
X30169Y67830D01*
X30094Y67714D01*
X30030Y67609D01*
X30004Y67560D01*
X29981Y67515D01*
X29963Y67474D01*
X29948Y67440D01*
X29932Y67406D01*
X29921Y67380D01*
X29914Y67361D01*
X29906Y67343D01*
X29902Y67335D01*
Y67331D01*
X29235D01*
X29272Y67432D01*
X29310Y67530D01*
X29355Y67624D01*
X29396Y67710D01*
X29445Y67796D01*
X29490Y67875D01*
X29535Y67946D01*
X29580Y68014D01*
X29621Y68074D01*
X29662Y68126D01*
X29696Y68175D01*
X29730Y68212D01*
X29752Y68243D01*
X29775Y68265D01*
X29786Y68280D01*
X29790Y68284D01*
X27015D01*
Y69019D01*
X30874D01*
Y68419D01*
D02*
G37*
G36*
X30859Y66083D02*
X28012Y65137D01*
X30859Y64166D01*
Y63326D01*
X27015Y64695D01*
Y65531D01*
X30859Y66908D01*
Y66083D01*
D02*
G37*
G36*
Y60757D02*
X29471D01*
X29539Y60694D01*
X29599Y60626D01*
X29651Y60555D01*
X29696Y60488D01*
X29734Y60420D01*
X29768Y60352D01*
X29794Y60285D01*
X29812Y60225D01*
X29827Y60165D01*
X29842Y60113D01*
X29850Y60067D01*
X29854Y60026D01*
X29858Y59992D01*
X29861Y59970D01*
Y59948D01*
X29858Y59854D01*
X29846Y59764D01*
X29827Y59681D01*
X29805Y59602D01*
X29775Y59527D01*
X29745Y59456D01*
X29711Y59392D01*
X29678Y59336D01*
X29640Y59284D01*
X29606Y59235D01*
X29576Y59197D01*
X29550Y59164D01*
X29524Y59137D01*
X29505Y59119D01*
X29494Y59108D01*
X29490Y59104D01*
X29419Y59048D01*
X29340Y58995D01*
X29254Y58950D01*
X29168Y58912D01*
X29078Y58882D01*
X28988Y58856D01*
X28901Y58834D01*
X28815Y58815D01*
X28732Y58800D01*
X28657Y58793D01*
X28590Y58785D01*
X28530Y58777D01*
X28481D01*
X28444Y58774D01*
X28433D01*
X28421D01*
X28418D01*
X28414D01*
X28286Y58777D01*
X28170Y58789D01*
X28058Y58804D01*
X27956Y58826D01*
X27859Y58852D01*
X27769Y58882D01*
X27690Y58912D01*
X27619Y58946D01*
X27551Y58976D01*
X27495Y59006D01*
X27450Y59036D01*
X27409Y59062D01*
X27379Y59085D01*
X27356Y59100D01*
X27341Y59111D01*
X27338Y59115D01*
X27270Y59179D01*
X27210Y59250D01*
X27158Y59317D01*
X27112Y59389D01*
X27079Y59456D01*
X27045Y59524D01*
X27019Y59591D01*
X27000Y59655D01*
X26985Y59711D01*
X26970Y59768D01*
X26963Y59816D01*
X26959Y59857D01*
X26955Y59891D01*
X26951Y59914D01*
Y59936D01*
X26955Y60022D01*
X26970Y60109D01*
X26989Y60188D01*
X27011Y60255D01*
X27030Y60315D01*
X27041Y60341D01*
X27049Y60360D01*
X27056Y60379D01*
X27064Y60390D01*
X27068Y60397D01*
Y60401D01*
X27116Y60484D01*
X27172Y60562D01*
X27233Y60630D01*
X27289Y60690D01*
X27341Y60739D01*
X27386Y60776D01*
X27401Y60787D01*
X27413Y60799D01*
X27420Y60803D01*
X27424Y60806D01*
X27015D01*
Y61493D01*
X30859D01*
Y60757D01*
D02*
G37*
G36*
X29768Y58530D02*
X29801Y58444D01*
X29827Y58361D01*
X29842Y58286D01*
X29854Y58226D01*
X29858Y58196D01*
Y58174D01*
X29861Y58159D01*
Y58132D01*
X29858Y58069D01*
X29846Y58009D01*
X29831Y57952D01*
X29816Y57907D01*
X29801Y57870D01*
X29786Y57840D01*
X29775Y57821D01*
X29771Y57814D01*
X29752Y57788D01*
X29730Y57761D01*
X29678Y57705D01*
X29618Y57656D01*
X29554Y57608D01*
X29498Y57566D01*
X29471Y57547D01*
X29449Y57533D01*
X29430Y57521D01*
X29415Y57510D01*
X29408Y57506D01*
X29404Y57503D01*
X29801D01*
Y56816D01*
X27015D01*
Y57551D01*
X27874D01*
X28001D01*
X28117Y57555D01*
X28223Y57559D01*
X28320Y57563D01*
X28403Y57566D01*
X28481Y57570D01*
X28545Y57578D01*
X28605Y57581D01*
X28654Y57589D01*
X28695Y57592D01*
X28732Y57596D01*
X28759Y57604D01*
X28778Y57608D01*
X28793D01*
X28800Y57611D01*
X28804D01*
X28883Y57638D01*
X28946Y57664D01*
X29002Y57690D01*
X29044Y57720D01*
X29078Y57743D01*
X29100Y57761D01*
X29111Y57776D01*
X29115Y57780D01*
X29145Y57821D01*
X29164Y57866D01*
X29179Y57911D01*
X29190Y57952D01*
X29197Y57990D01*
X29201Y58016D01*
Y58043D01*
X29197Y58103D01*
X29182Y58166D01*
X29164Y58223D01*
X29141Y58279D01*
X29115Y58324D01*
X29096Y58361D01*
X29089Y58372D01*
X29081Y58384D01*
X29078Y58388D01*
Y58391D01*
X29719Y58620D01*
X29768Y58530D01*
D02*
G37*
G36*
X27090Y56250D02*
X27158Y56220D01*
X27221Y56198D01*
X27274Y56179D01*
X27323Y56164D01*
X27356Y56156D01*
X27379Y56149D01*
X27386D01*
X27420Y56141D01*
X27461Y56138D01*
X27544Y56130D01*
X27634Y56122D01*
X27724Y56119D01*
X27803D01*
X27836Y56115D01*
X27866D01*
X27893D01*
X27911D01*
X27922D01*
X27926D01*
X28789Y56126D01*
X28875D01*
X28954Y56122D01*
X29029Y56119D01*
X29092Y56111D01*
X29153Y56104D01*
X29209Y56093D01*
X29254Y56085D01*
X29299Y56077D01*
X29333Y56066D01*
X29362Y56059D01*
X29389Y56047D01*
X29411Y56040D01*
X29426Y56036D01*
X29438Y56029D01*
X29441Y56025D01*
X29445D01*
X29509Y55984D01*
X29569Y55931D01*
X29618Y55875D01*
X29662Y55819D01*
X29696Y55766D01*
X29719Y55725D01*
X29730Y55706D01*
X29737Y55695D01*
X29741Y55687D01*
Y55684D01*
X29764Y55635D01*
X29783Y55582D01*
X29812Y55470D01*
X29831Y55346D01*
X29846Y55230D01*
X29850Y55174D01*
X29854Y55121D01*
X29858Y55072D01*
X29861Y55035D01*
Y54953D01*
X29858Y54855D01*
X29854Y54761D01*
X29842Y54675D01*
X29831Y54596D01*
X29816Y54521D01*
X29801Y54454D01*
X29783Y54394D01*
X29764Y54338D01*
X29745Y54289D01*
X29726Y54247D01*
X29711Y54214D01*
X29696Y54184D01*
X29685Y54161D01*
X29674Y54142D01*
X29670Y54135D01*
X29666Y54131D01*
X29629Y54083D01*
X29584Y54037D01*
X29490Y53955D01*
X29392Y53887D01*
X29295Y53835D01*
X29250Y53812D01*
X29209Y53794D01*
X29168Y53779D01*
X29138Y53768D01*
X29107Y53756D01*
X29089Y53749D01*
X29074Y53745D01*
X29070D01*
X28950Y54413D01*
X29017Y54439D01*
X29074Y54469D01*
X29119Y54499D01*
X29156Y54525D01*
X29186Y54551D01*
X29205Y54570D01*
X29216Y54585D01*
X29220Y54589D01*
X29246Y54634D01*
X29265Y54682D01*
X29280Y54735D01*
X29287Y54784D01*
X29295Y54829D01*
X29299Y54862D01*
Y54949D01*
X29295Y54997D01*
X29291Y55042D01*
X29284Y55084D01*
X29276Y55117D01*
X29269Y55151D01*
X29254Y55204D01*
X29235Y55245D01*
X29220Y55271D01*
X29209Y55290D01*
X29205Y55294D01*
X29168Y55327D01*
X29119Y55354D01*
X29070Y55373D01*
X29021Y55388D01*
X28973Y55395D01*
X28935Y55399D01*
X28920D01*
X28912D01*
X28905D01*
X28901D01*
X28830D01*
X28815Y55357D01*
X28796Y55309D01*
X28781Y55256D01*
X28766Y55200D01*
X28732Y55084D01*
X28706Y54964D01*
X28695Y54908D01*
X28680Y54855D01*
X28673Y54806D01*
X28661Y54765D01*
X28657Y54731D01*
X28650Y54705D01*
X28646Y54690D01*
Y54682D01*
X28631Y54611D01*
X28620Y54548D01*
X28605Y54488D01*
X28590Y54431D01*
X28575Y54379D01*
X28560Y54330D01*
X28545Y54285D01*
X28534Y54247D01*
X28523Y54214D01*
X28511Y54180D01*
X28500Y54158D01*
X28493Y54135D01*
X28485Y54120D01*
X28477Y54109D01*
X28474Y54101D01*
Y54097D01*
X28433Y54026D01*
X28387Y53962D01*
X28343Y53910D01*
X28297Y53865D01*
X28256Y53828D01*
X28223Y53805D01*
X28200Y53786D01*
X28196Y53782D01*
X28192D01*
X28121Y53745D01*
X28050Y53719D01*
X27979Y53696D01*
X27915Y53685D01*
X27859Y53677D01*
X27832Y53674D01*
X27814D01*
X27795Y53670D01*
X27784D01*
X27776D01*
X27773D01*
X27709Y53674D01*
X27645Y53681D01*
X27585Y53693D01*
X27529Y53707D01*
X27480Y53726D01*
X27431Y53749D01*
X27386Y53771D01*
X27345Y53794D01*
X27308Y53816D01*
X27277Y53839D01*
X27248Y53861D01*
X27225Y53880D01*
X27206Y53895D01*
X27195Y53906D01*
X27187Y53914D01*
X27184Y53917D01*
X27143Y53966D01*
X27109Y54019D01*
X27075Y54071D01*
X27049Y54128D01*
X27026Y54184D01*
X27007Y54240D01*
X26981Y54349D01*
X26970Y54397D01*
X26963Y54443D01*
X26959Y54488D01*
X26955Y54521D01*
X26951Y54551D01*
Y54593D01*
X26955Y54682D01*
X26966Y54769D01*
X26981Y54848D01*
X26996Y54915D01*
X27011Y54975D01*
X27019Y54997D01*
X27026Y55016D01*
X27034Y55031D01*
X27038Y55042D01*
X27041Y55050D01*
Y55054D01*
X27079Y55133D01*
X27124Y55208D01*
X27169Y55275D01*
X27214Y55335D01*
X27251Y55388D01*
X27285Y55425D01*
X27296Y55440D01*
X27308Y55451D01*
X27311Y55455D01*
X27315Y55459D01*
X27308Y55462D01*
X27292Y55466D01*
X27266Y55474D01*
X27240Y55481D01*
X27233Y55485D01*
X27229D01*
X27180Y55500D01*
X27135Y55515D01*
X27097Y55526D01*
X27068Y55537D01*
X27045Y55545D01*
X27030Y55553D01*
X27019Y55556D01*
X27015D01*
Y56284D01*
X27090Y56250D01*
D02*
G37*
G36*
X24375Y55824D02*
X24547Y55813D01*
X24709Y55794D01*
X24859Y55768D01*
X24990Y55742D01*
X25114Y55708D01*
X25223Y55674D01*
X25320Y55641D01*
X25406Y55603D01*
X25477Y55569D01*
X25541Y55536D01*
X25590Y55509D01*
X25627Y55483D01*
X25654Y55464D01*
X25673Y55453D01*
X25676Y55449D01*
X25755Y55378D01*
X25826Y55299D01*
X25886Y55221D01*
X25939Y55142D01*
X25984Y55059D01*
X26017Y54981D01*
X26048Y54902D01*
X26074Y54831D01*
X26092Y54759D01*
X26107Y54696D01*
X26115Y54636D01*
X26122Y54587D01*
X26126Y54546D01*
X26130Y54516D01*
Y54489D01*
X26126Y54392D01*
X26115Y54298D01*
X26096Y54208D01*
X26074Y54126D01*
X26048Y54047D01*
X26017Y53976D01*
X25984Y53908D01*
X25950Y53844D01*
X25916Y53792D01*
X25883Y53743D01*
X25853Y53702D01*
X25826Y53668D01*
X25804Y53642D01*
X25785Y53619D01*
X25774Y53608D01*
X25770Y53604D01*
X25703Y53544D01*
X25627Y53492D01*
X25552Y53443D01*
X25474Y53406D01*
X25395Y53372D01*
X25316Y53342D01*
X25238Y53319D01*
X25166Y53304D01*
X25095Y53289D01*
X25031Y53278D01*
X24975Y53271D01*
X24926Y53263D01*
X24885D01*
X24855Y53259D01*
X24836D01*
X24829D01*
X24727Y53263D01*
X24630Y53274D01*
X24536Y53289D01*
X24450Y53312D01*
X24367Y53334D01*
X24293Y53364D01*
X24225Y53391D01*
X24161Y53424D01*
X24105Y53454D01*
X24056Y53484D01*
X24015Y53511D01*
X23981Y53533D01*
X23955Y53556D01*
X23933Y53571D01*
X23921Y53582D01*
X23918Y53586D01*
X23857Y53649D01*
X23801Y53713D01*
X23756Y53781D01*
X23715Y53848D01*
X23681Y53912D01*
X23655Y53979D01*
X23632Y54043D01*
X23614Y54103D01*
X23599Y54156D01*
X23587Y54208D01*
X23580Y54253D01*
X23573Y54294D01*
Y54324D01*
X23569Y54351D01*
Y54369D01*
X23573Y54448D01*
X23584Y54519D01*
X23599Y54591D01*
X23618Y54654D01*
X23644Y54718D01*
X23670Y54774D01*
X23700Y54827D01*
X23730Y54876D01*
X23760Y54921D01*
X23790Y54958D01*
X23816Y54988D01*
X23843Y55018D01*
X23861Y55037D01*
X23876Y55056D01*
X23888Y55063D01*
X23891Y55067D01*
X23771Y55056D01*
X23663Y55044D01*
X23565Y55029D01*
X23475Y55014D01*
X23396Y54999D01*
X23325Y54981D01*
X23261Y54966D01*
X23205Y54947D01*
X23160Y54932D01*
X23119Y54913D01*
X23085Y54898D01*
X23063Y54887D01*
X23040Y54876D01*
X23029Y54868D01*
X23021Y54864D01*
X23018Y54861D01*
X22980Y54831D01*
X22950Y54801D01*
X22924Y54767D01*
X22897Y54733D01*
X22860Y54669D01*
X22838Y54609D01*
X22822Y54557D01*
X22815Y54512D01*
X22811Y54497D01*
Y54474D01*
X22815Y54411D01*
X22826Y54351D01*
X22845Y54302D01*
X22864Y54261D01*
X22879Y54227D01*
X22897Y54201D01*
X22909Y54186D01*
X22912Y54182D01*
X22957Y54144D01*
X23006Y54114D01*
X23063Y54092D01*
X23115Y54073D01*
X23164Y54062D01*
X23201Y54054D01*
X23216Y54051D01*
X23227Y54047D01*
X23235D01*
X23239D01*
X23160Y53334D01*
X23074Y53349D01*
X22991Y53372D01*
X22916Y53394D01*
X22845Y53421D01*
X22781Y53451D01*
X22721Y53481D01*
X22669Y53511D01*
X22620Y53541D01*
X22579Y53567D01*
X22541Y53597D01*
X22511Y53619D01*
X22485Y53642D01*
X22466Y53661D01*
X22451Y53676D01*
X22444Y53683D01*
X22440Y53687D01*
X22399Y53743D01*
X22361Y53799D01*
X22328Y53859D01*
X22301Y53919D01*
X22279Y53979D01*
X22260Y54043D01*
X22230Y54159D01*
X22219Y54212D01*
X22211Y54261D01*
X22208Y54306D01*
X22204Y54343D01*
X22200Y54373D01*
Y54418D01*
X22204Y54534D01*
X22219Y54643D01*
X22241Y54744D01*
X22271Y54842D01*
X22309Y54932D01*
X22346Y55014D01*
X22388Y55093D01*
X22433Y55161D01*
X22478Y55224D01*
X22519Y55277D01*
X22556Y55326D01*
X22594Y55363D01*
X22624Y55393D01*
X22646Y55416D01*
X22661Y55431D01*
X22665Y55434D01*
X22759Y55506D01*
X22864Y55566D01*
X22980Y55618D01*
X23100Y55663D01*
X23227Y55701D01*
X23351Y55731D01*
X23479Y55757D01*
X23603Y55779D01*
X23719Y55794D01*
X23831Y55806D01*
X23929Y55817D01*
X23974Y55821D01*
X24015D01*
X24053Y55824D01*
X24086D01*
X24116Y55828D01*
X24142D01*
X24161D01*
X24176D01*
X24184D01*
X24187D01*
X24375Y55824D01*
D02*
G37*
G36*
X26130Y51617D02*
X26066Y51591D01*
X26002Y51561D01*
X25886Y51493D01*
X25781Y51414D01*
X25732Y51377D01*
X25691Y51339D01*
X25650Y51302D01*
X25616Y51268D01*
X25586Y51234D01*
X25560Y51208D01*
X25541Y51186D01*
X25526Y51167D01*
X25519Y51156D01*
X25515Y51152D01*
X25466Y51088D01*
X25425Y51028D01*
X25350Y50912D01*
X25286Y50807D01*
X25260Y50758D01*
X25238Y50713D01*
X25219Y50672D01*
X25204Y50638D01*
X25189Y50604D01*
X25177Y50578D01*
X25170Y50559D01*
X25163Y50541D01*
X25159Y50533D01*
Y50529D01*
X24491D01*
X24529Y50631D01*
X24566Y50728D01*
X24611Y50822D01*
X24653Y50908D01*
X24701Y50994D01*
X24746Y51073D01*
X24791Y51144D01*
X24836Y51212D01*
X24878Y51272D01*
X24919Y51324D01*
X24952Y51373D01*
X24986Y51411D01*
X25009Y51441D01*
X25031Y51463D01*
X25043Y51478D01*
X25046Y51482D01*
X22271D01*
Y52217D01*
X26130D01*
Y51617D01*
D02*
G37*
G36*
X28530Y53284D02*
X28639Y53269D01*
X28744Y53250D01*
X28841Y53224D01*
X28931Y53194D01*
X29017Y53160D01*
X29096Y53123D01*
X29168Y53085D01*
X29231Y53048D01*
X29287Y53010D01*
X29336Y52976D01*
X29374Y52946D01*
X29408Y52920D01*
X29430Y52901D01*
X29445Y52886D01*
X29449Y52882D01*
X29520Y52804D01*
X29584Y52721D01*
X29640Y52635D01*
X29689Y52549D01*
X29726Y52463D01*
X29760Y52376D01*
X29786Y52294D01*
X29809Y52211D01*
X29827Y52136D01*
X29839Y52065D01*
X29850Y52005D01*
X29854Y51949D01*
X29858Y51904D01*
X29861Y51874D01*
Y51844D01*
X29858Y51769D01*
X29854Y51694D01*
X29831Y51555D01*
X29820Y51491D01*
X29805Y51428D01*
X29786Y51371D01*
X29771Y51319D01*
X29752Y51270D01*
X29737Y51229D01*
X29719Y51191D01*
X29708Y51161D01*
X29696Y51135D01*
X29685Y51116D01*
X29681Y51105D01*
X29678Y51101D01*
X29644Y51041D01*
X29603Y50985D01*
X29520Y50884D01*
X29475Y50835D01*
X29434Y50794D01*
X29389Y50756D01*
X29348Y50722D01*
X29306Y50692D01*
X29272Y50666D01*
X29239Y50644D01*
X29209Y50625D01*
X29186Y50610D01*
X29168Y50599D01*
X29156Y50595D01*
X29153Y50591D01*
X29089Y50561D01*
X29025Y50531D01*
X28898Y50486D01*
X28778Y50456D01*
X28721Y50445D01*
X28669Y50434D01*
X28624Y50426D01*
X28579Y50423D01*
X28541Y50415D01*
X28508D01*
X28481Y50411D01*
X28459D01*
X28447D01*
X28444D01*
X28357Y50415D01*
X28271Y50419D01*
X28189Y50426D01*
X28114Y50441D01*
X28043Y50453D01*
X27975Y50467D01*
X27915Y50486D01*
X27859Y50501D01*
X27806Y50520D01*
X27761Y50535D01*
X27724Y50550D01*
X27690Y50565D01*
X27664Y50576D01*
X27645Y50584D01*
X27634Y50587D01*
X27630Y50591D01*
X27570Y50629D01*
X27514Y50666D01*
X27461Y50708D01*
X27409Y50749D01*
X27364Y50794D01*
X27323Y50839D01*
X27285Y50880D01*
X27251Y50925D01*
X27221Y50963D01*
X27195Y51000D01*
X27172Y51034D01*
X27158Y51064D01*
X27143Y51086D01*
X27131Y51105D01*
X27128Y51116D01*
X27124Y51120D01*
X27094Y51187D01*
X27068Y51251D01*
X27022Y51382D01*
X26992Y51506D01*
X26981Y51562D01*
X26974Y51615D01*
X26966Y51667D01*
X26959Y51713D01*
X26955Y51754D01*
Y51788D01*
X26951Y51814D01*
Y51851D01*
X26955Y51964D01*
X26970Y52073D01*
X26989Y52178D01*
X27015Y52271D01*
X27049Y52365D01*
X27082Y52447D01*
X27120Y52526D01*
X27158Y52597D01*
X27195Y52661D01*
X27233Y52718D01*
X27270Y52766D01*
X27300Y52804D01*
X27326Y52838D01*
X27345Y52860D01*
X27360Y52875D01*
X27364Y52879D01*
X27442Y52950D01*
X27529Y53014D01*
X27615Y53070D01*
X27705Y53115D01*
X27791Y53156D01*
X27878Y53186D01*
X27964Y53216D01*
X28046Y53235D01*
X28121Y53254D01*
X28192Y53265D01*
X28253Y53276D01*
X28309Y53280D01*
X28354Y53284D01*
X28387Y53288D01*
X28406D01*
X28414D01*
X28530Y53284D01*
D02*
G37*
G36*
X24364Y49836D02*
X24547Y49824D01*
X24716Y49806D01*
X24870Y49779D01*
X25012Y49753D01*
X25140Y49719D01*
X25256Y49686D01*
X25357Y49652D01*
X25447Y49618D01*
X25523Y49584D01*
X25586Y49551D01*
X25639Y49524D01*
X25680Y49498D01*
X25706Y49479D01*
X25725Y49468D01*
X25729Y49464D01*
X25800Y49404D01*
X25860Y49337D01*
X25916Y49266D01*
X25961Y49194D01*
X25999Y49123D01*
X26033Y49048D01*
X26059Y48977D01*
X26081Y48909D01*
X26096Y48846D01*
X26107Y48786D01*
X26119Y48729D01*
X26122Y48684D01*
X26126Y48643D01*
X26130Y48617D01*
Y48591D01*
X26126Y48489D01*
X26115Y48392D01*
X26092Y48302D01*
X26070Y48219D01*
X26040Y48141D01*
X26006Y48069D01*
X25969Y48006D01*
X25935Y47946D01*
X25897Y47893D01*
X25860Y47848D01*
X25826Y47811D01*
X25796Y47777D01*
X25774Y47754D01*
X25755Y47736D01*
X25740Y47724D01*
X25736Y47721D01*
X25639Y47653D01*
X25534Y47597D01*
X25414Y47548D01*
X25290Y47503D01*
X25163Y47469D01*
X25031Y47436D01*
X24904Y47413D01*
X24776Y47394D01*
X24656Y47376D01*
X24540Y47364D01*
X24439Y47357D01*
X24394Y47353D01*
X24349D01*
X24311Y47349D01*
X24277D01*
X24248Y47346D01*
X24221D01*
X24199D01*
X24184D01*
X24176D01*
X24172D01*
X24071D01*
X23974Y47349D01*
X23880Y47353D01*
X23790Y47361D01*
X23704Y47368D01*
X23621Y47376D01*
X23468Y47398D01*
X23325Y47424D01*
X23201Y47454D01*
X23089Y47484D01*
X22987Y47518D01*
X22905Y47548D01*
X22830Y47578D01*
X22770Y47608D01*
X22721Y47634D01*
X22684Y47657D01*
X22658Y47672D01*
X22639Y47683D01*
X22635Y47687D01*
X22560Y47754D01*
X22492Y47826D01*
X22436Y47897D01*
X22388Y47976D01*
X22346Y48051D01*
X22312Y48126D01*
X22283Y48197D01*
X22260Y48268D01*
X22245Y48336D01*
X22230Y48396D01*
X22222Y48452D01*
X22215Y48497D01*
X22211Y48538D01*
X22208Y48564D01*
Y48591D01*
X22211Y48692D01*
X22226Y48789D01*
X22245Y48879D01*
X22267Y48962D01*
X22298Y49041D01*
X22331Y49112D01*
X22365Y49176D01*
X22402Y49236D01*
X22440Y49288D01*
X22474Y49333D01*
X22508Y49371D01*
X22537Y49404D01*
X22560Y49427D01*
X22582Y49446D01*
X22594Y49457D01*
X22598Y49461D01*
X22695Y49528D01*
X22800Y49584D01*
X22920Y49637D01*
X23044Y49678D01*
X23171Y49716D01*
X23302Y49746D01*
X23434Y49772D01*
X23561Y49791D01*
X23681Y49809D01*
X23794Y49821D01*
X23899Y49828D01*
X23944Y49832D01*
X23989D01*
X24026Y49836D01*
X24060D01*
X24090Y49839D01*
X24116D01*
X24139D01*
X24154D01*
X24161D01*
X24165D01*
X24364Y49836D01*
D02*
G37*
G36*
X28185Y49927D02*
X28245Y49924D01*
X28357Y49901D01*
X28455Y49871D01*
X28500Y49852D01*
X28537Y49837D01*
X28575Y49819D01*
X28609Y49800D01*
X28635Y49785D01*
X28657Y49770D01*
X28676Y49759D01*
X28691Y49747D01*
X28699Y49744D01*
X28703Y49740D01*
X28747Y49703D01*
X28789Y49665D01*
X28864Y49579D01*
X28924Y49489D01*
X28973Y49402D01*
X29010Y49324D01*
X29025Y49290D01*
X29036Y49260D01*
X29044Y49237D01*
X29051Y49219D01*
X29055Y49207D01*
Y49204D01*
X29104Y49290D01*
X29156Y49369D01*
X29212Y49436D01*
X29265Y49492D01*
X29314Y49538D01*
X29355Y49571D01*
X29370Y49582D01*
X29381Y49590D01*
X29389Y49597D01*
X29392D01*
X29479Y49646D01*
X29565Y49684D01*
X29647Y49710D01*
X29726Y49725D01*
X29790Y49736D01*
X29820Y49740D01*
X29842D01*
X29861Y49744D01*
X29876D01*
X29884D01*
X29888D01*
X29978Y49740D01*
X30064Y49725D01*
X30139Y49706D01*
X30206Y49684D01*
X30263Y49661D01*
X30285Y49650D01*
X30304Y49643D01*
X30319Y49635D01*
X30330Y49628D01*
X30334Y49624D01*
X30338D01*
X30409Y49579D01*
X30472Y49530D01*
X30529Y49477D01*
X30574Y49433D01*
X30611Y49391D01*
X30637Y49358D01*
X30656Y49335D01*
X30660Y49331D01*
Y49327D01*
X30701Y49260D01*
X30735Y49189D01*
X30761Y49125D01*
X30784Y49061D01*
X30799Y49005D01*
X30810Y48964D01*
X30814Y48949D01*
X30817Y48937D01*
Y48926D01*
X30825Y48881D01*
X30832Y48832D01*
X30840Y48728D01*
X30847Y48615D01*
X30855Y48502D01*
Y48405D01*
X30859Y48360D01*
Y46714D01*
X27015D01*
Y48150D01*
X27019Y48274D01*
Y48480D01*
X27022Y48566D01*
Y48641D01*
X27026Y48709D01*
Y48765D01*
X27030Y48814D01*
Y48855D01*
X27034Y48889D01*
Y48915D01*
X27038Y48934D01*
Y48956D01*
X27056Y49069D01*
X27082Y49166D01*
X27112Y49256D01*
X27143Y49331D01*
X27158Y49361D01*
X27172Y49391D01*
X27187Y49417D01*
X27199Y49436D01*
X27206Y49451D01*
X27214Y49463D01*
X27221Y49470D01*
Y49474D01*
X27281Y49549D01*
X27345Y49616D01*
X27409Y49672D01*
X27472Y49721D01*
X27529Y49759D01*
X27555Y49774D01*
X27574Y49785D01*
X27593Y49796D01*
X27604Y49804D01*
X27611Y49808D01*
X27615D01*
X27709Y49849D01*
X27803Y49879D01*
X27889Y49901D01*
X27964Y49916D01*
X28031Y49924D01*
X28058Y49927D01*
X28080Y49931D01*
X28099D01*
X28114D01*
X28121D01*
X28125D01*
X28185Y49927D01*
D02*
G37*
G36*
X25140Y46847D02*
X25223Y46836D01*
X25297Y46821D01*
X25369Y46798D01*
X25436Y46776D01*
X25500Y46749D01*
X25560Y46719D01*
X25613Y46689D01*
X25657Y46656D01*
X25703Y46629D01*
X25736Y46599D01*
X25766Y46577D01*
X25793Y46554D01*
X25807Y46539D01*
X25819Y46528D01*
X25822Y46524D01*
X25875Y46461D01*
X25924Y46393D01*
X25965Y46322D01*
X25999Y46247D01*
X26029Y46172D01*
X26055Y46097D01*
X26074Y46026D01*
X26092Y45954D01*
X26104Y45891D01*
X26115Y45827D01*
X26122Y45774D01*
X26126Y45726D01*
Y45688D01*
X26130Y45658D01*
Y45632D01*
X26126Y45538D01*
X26119Y45444D01*
X26104Y45358D01*
X26089Y45276D01*
X26070Y45201D01*
X26048Y45129D01*
X26021Y45062D01*
X25999Y45002D01*
X25973Y44949D01*
X25946Y44901D01*
X25924Y44863D01*
X25905Y44829D01*
X25890Y44799D01*
X25875Y44781D01*
X25868Y44769D01*
X25864Y44766D01*
X25811Y44706D01*
X25751Y44649D01*
X25684Y44601D01*
X25616Y44556D01*
X25545Y44518D01*
X25470Y44484D01*
X25399Y44454D01*
X25328Y44432D01*
X25260Y44413D01*
X25196Y44394D01*
X25140Y44383D01*
X25087Y44372D01*
X25046Y44364D01*
X25016Y44361D01*
X24997Y44357D01*
X24990D01*
X24919Y45092D01*
X24975Y45096D01*
X25031Y45103D01*
X25080Y45114D01*
X25125Y45126D01*
X25166Y45137D01*
X25204Y45148D01*
X25238Y45163D01*
X25267Y45174D01*
X25316Y45201D01*
X25350Y45223D01*
X25369Y45238D01*
X25376Y45246D01*
X25425Y45302D01*
X25459Y45362D01*
X25485Y45422D01*
X25500Y45482D01*
X25511Y45534D01*
X25515Y45576D01*
X25519Y45591D01*
Y45613D01*
X25511Y45696D01*
X25496Y45767D01*
X25477Y45831D01*
X25451Y45883D01*
X25425Y45924D01*
X25406Y45954D01*
X25391Y45969D01*
X25384Y45977D01*
X25331Y46022D01*
X25267Y46056D01*
X25207Y46078D01*
X25144Y46097D01*
X25091Y46104D01*
X25046Y46108D01*
X25027Y46112D01*
X25016D01*
X25009D01*
X25005D01*
X24923Y46104D01*
X24840Y46089D01*
X24765Y46063D01*
X24698Y46037D01*
X24637Y46007D01*
X24615Y45996D01*
X24592Y45981D01*
X24577Y45973D01*
X24566Y45966D01*
X24559Y45958D01*
X24555D01*
X24521Y45932D01*
X24480Y45898D01*
X24435Y45861D01*
X24386Y45816D01*
X24338Y45767D01*
X24285Y45714D01*
X24180Y45609D01*
X24127Y45561D01*
X24082Y45512D01*
X24037Y45467D01*
X24000Y45426D01*
X23970Y45396D01*
X23944Y45369D01*
X23929Y45354D01*
X23925Y45347D01*
X23820Y45234D01*
X23722Y45133D01*
X23629Y45039D01*
X23539Y44957D01*
X23456Y44882D01*
X23381Y44814D01*
X23310Y44754D01*
X23250Y44702D01*
X23194Y44657D01*
X23145Y44616D01*
X23100Y44586D01*
X23066Y44559D01*
X23040Y44541D01*
X23018Y44529D01*
X23006Y44522D01*
X23002Y44518D01*
X22939Y44481D01*
X22871Y44447D01*
X22744Y44394D01*
X22620Y44349D01*
X22564Y44331D01*
X22508Y44316D01*
X22459Y44304D01*
X22410Y44293D01*
X22373Y44286D01*
X22339Y44282D01*
X22309Y44274D01*
X22290D01*
X22275Y44271D01*
X22271D01*
Y46851D01*
X22957D01*
Y45388D01*
X23029Y45433D01*
X23066Y45459D01*
X23096Y45482D01*
X23122Y45504D01*
X23141Y45519D01*
X23156Y45531D01*
X23160Y45534D01*
X23182Y45553D01*
X23209Y45579D01*
X23239Y45609D01*
X23272Y45643D01*
X23340Y45714D01*
X23411Y45789D01*
X23479Y45861D01*
X23505Y45894D01*
X23531Y45921D01*
X23554Y45943D01*
X23569Y45962D01*
X23580Y45973D01*
X23584Y45977D01*
X23644Y46041D01*
X23696Y46101D01*
X23749Y46153D01*
X23794Y46202D01*
X23839Y46247D01*
X23880Y46284D01*
X23918Y46322D01*
X23947Y46352D01*
X23978Y46378D01*
X24004Y46401D01*
X24026Y46419D01*
X24045Y46434D01*
X24056Y46446D01*
X24068Y46453D01*
X24071Y46461D01*
X24075D01*
X24169Y46532D01*
X24259Y46592D01*
X24341Y46644D01*
X24416Y46686D01*
X24476Y46716D01*
X24502Y46731D01*
X24521Y46738D01*
X24540Y46746D01*
X24551Y46753D01*
X24559Y46757D01*
X24563D01*
X24653Y46787D01*
X24739Y46809D01*
X24821Y46828D01*
X24900Y46839D01*
X24964Y46847D01*
X24990D01*
X25012Y46851D01*
X25031D01*
X25046D01*
X25054D01*
X25058D01*
X25140Y46847D01*
D02*
G37*
G36*
X26182Y43584D02*
X22208Y42636D01*
Y43179D01*
X26182Y44139D01*
Y43584D01*
D02*
G37*
G36*
X27765Y44325D02*
X27847Y44276D01*
X27919Y44227D01*
X27990Y44183D01*
X28050Y44137D01*
X28106Y44100D01*
X28159Y44063D01*
X28204Y44029D01*
X28245Y43999D01*
X28279Y43973D01*
X28309Y43950D01*
X28331Y43927D01*
X28354Y43913D01*
X28369Y43901D01*
X28380Y43890D01*
X28384Y43886D01*
X28387Y43883D01*
X28451Y43819D01*
X28511Y43751D01*
X28567Y43680D01*
X28616Y43616D01*
X28654Y43556D01*
X28673Y43534D01*
X28684Y43511D01*
X28695Y43492D01*
X28703Y43481D01*
X28710Y43474D01*
Y43470D01*
X28725Y43564D01*
X28747Y43650D01*
X28770Y43729D01*
X28796Y43804D01*
X28826Y43871D01*
X28856Y43935D01*
X28886Y43991D01*
X28916Y44040D01*
X28946Y44085D01*
X28973Y44122D01*
X28999Y44156D01*
X29021Y44183D01*
X29040Y44205D01*
X29055Y44220D01*
X29063Y44227D01*
X29066Y44231D01*
X29122Y44276D01*
X29179Y44314D01*
X29235Y44351D01*
X29295Y44377D01*
X29355Y44404D01*
X29415Y44423D01*
X29528Y44456D01*
X29580Y44464D01*
X29629Y44471D01*
X29670Y44479D01*
X29708Y44482D01*
X29737Y44486D01*
X29760D01*
X29775D01*
X29779D01*
X29842D01*
X29902Y44479D01*
X30019Y44460D01*
X30120Y44434D01*
X30165Y44419D01*
X30210Y44404D01*
X30248Y44385D01*
X30281Y44370D01*
X30311Y44355D01*
X30338Y44344D01*
X30356Y44333D01*
X30371Y44325D01*
X30379Y44321D01*
X30382Y44317D01*
X30431Y44284D01*
X30476Y44250D01*
X30551Y44175D01*
X30619Y44100D01*
X30667Y44029D01*
X30705Y43965D01*
X30720Y43939D01*
X30735Y43913D01*
X30742Y43894D01*
X30750Y43879D01*
X30754Y43871D01*
Y43867D01*
X30773Y43811D01*
X30788Y43751D01*
X30803Y43684D01*
X30814Y43613D01*
X30832Y43462D01*
X30847Y43316D01*
X30851Y43249D01*
X30855Y43185D01*
Y43125D01*
X30859Y43076D01*
Y41344D01*
X27015D01*
Y42120D01*
X28620D01*
Y42368D01*
X28613Y42450D01*
X28605Y42518D01*
X28598Y42574D01*
X28590Y42615D01*
X28583Y42645D01*
X28579Y42660D01*
X28575Y42667D01*
X28556Y42713D01*
X28530Y42757D01*
X28504Y42795D01*
X28477Y42829D01*
X28451Y42859D01*
X28433Y42881D01*
X28418Y42896D01*
X28414Y42900D01*
X28387Y42922D01*
X28357Y42949D01*
X28320Y42979D01*
X28279Y43009D01*
X28185Y43076D01*
X28087Y43144D01*
X27997Y43207D01*
X27960Y43238D01*
X27922Y43260D01*
X27893Y43279D01*
X27870Y43297D01*
X27855Y43305D01*
X27851Y43309D01*
X27015Y43867D01*
Y44798D01*
X27765Y44325D01*
D02*
G37*
G36*
X26066Y39887D02*
X25380D01*
Y41556D01*
X25256Y41462D01*
X25129Y41372D01*
X25001Y41286D01*
X24870Y41207D01*
X24746Y41136D01*
X24622Y41064D01*
X24502Y41004D01*
X24390Y40948D01*
X24289Y40896D01*
X24191Y40854D01*
X24109Y40813D01*
X24034Y40783D01*
X24004Y40772D01*
X23978Y40761D01*
X23951Y40749D01*
X23933Y40742D01*
X23918Y40734D01*
X23906Y40731D01*
X23899Y40727D01*
X23895D01*
X23741Y40671D01*
X23587Y40622D01*
X23438Y40581D01*
X23291Y40543D01*
X23153Y40513D01*
X23018Y40487D01*
X22890Y40464D01*
X22774Y40446D01*
X22665Y40434D01*
X22568Y40423D01*
X22481Y40412D01*
X22410Y40408D01*
X22376Y40404D01*
X22350D01*
X22328D01*
X22309Y40401D01*
X22290D01*
X22279D01*
X22275D01*
X22271D01*
Y41109D01*
X22369D01*
X22466Y41117D01*
X22665Y41132D01*
X22856Y41162D01*
X22950Y41177D01*
X23036Y41192D01*
X23119Y41207D01*
X23190Y41222D01*
X23257Y41237D01*
X23314Y41248D01*
X23359Y41259D01*
X23392Y41267D01*
X23415Y41274D01*
X23423D01*
X23663Y41346D01*
X23775Y41383D01*
X23888Y41421D01*
X23992Y41462D01*
X24094Y41503D01*
X24187Y41544D01*
X24277Y41582D01*
X24356Y41619D01*
X24428Y41653D01*
X24491Y41687D01*
X24544Y41713D01*
X24589Y41736D01*
X24619Y41751D01*
X24637Y41762D01*
X24645Y41766D01*
X24750Y41826D01*
X24848Y41886D01*
X24941Y41946D01*
X25027Y42002D01*
X25106Y42058D01*
X25177Y42111D01*
X25245Y42159D01*
X25305Y42204D01*
X25357Y42249D01*
X25403Y42287D01*
X25440Y42321D01*
X25474Y42351D01*
X25496Y42373D01*
X25515Y42388D01*
X25526Y42399D01*
X25530Y42403D01*
X26066D01*
Y39887D01*
D02*
G37*
G36*
X30859Y39825D02*
X27015D01*
Y40601D01*
X30859D01*
Y39825D01*
D02*
G37*
G36*
X25140Y39384D02*
X25223Y39373D01*
X25297Y39358D01*
X25369Y39336D01*
X25436Y39313D01*
X25500Y39287D01*
X25560Y39257D01*
X25613Y39227D01*
X25657Y39193D01*
X25703Y39167D01*
X25736Y39137D01*
X25766Y39114D01*
X25793Y39092D01*
X25807Y39077D01*
X25819Y39066D01*
X25822Y39062D01*
X25875Y38998D01*
X25924Y38931D01*
X25965Y38859D01*
X25999Y38784D01*
X26029Y38709D01*
X26055Y38634D01*
X26074Y38563D01*
X26092Y38492D01*
X26104Y38428D01*
X26115Y38364D01*
X26122Y38312D01*
X26126Y38263D01*
Y38226D01*
X26130Y38196D01*
Y38169D01*
X26126Y38076D01*
X26119Y37982D01*
X26104Y37896D01*
X26089Y37813D01*
X26070Y37738D01*
X26048Y37667D01*
X26021Y37599D01*
X25999Y37539D01*
X25973Y37487D01*
X25946Y37438D01*
X25924Y37401D01*
X25905Y37367D01*
X25890Y37337D01*
X25875Y37318D01*
X25868Y37307D01*
X25864Y37303D01*
X25811Y37243D01*
X25751Y37187D01*
X25684Y37138D01*
X25616Y37093D01*
X25545Y37056D01*
X25470Y37022D01*
X25399Y36992D01*
X25328Y36969D01*
X25260Y36951D01*
X25196Y36932D01*
X25140Y36921D01*
X25087Y36909D01*
X25046Y36902D01*
X25016Y36898D01*
X24997Y36894D01*
X24990D01*
X24919Y37629D01*
X24975Y37633D01*
X25031Y37641D01*
X25080Y37652D01*
X25125Y37663D01*
X25166Y37674D01*
X25204Y37686D01*
X25238Y37701D01*
X25267Y37712D01*
X25316Y37738D01*
X25350Y37761D01*
X25369Y37776D01*
X25376Y37783D01*
X25425Y37839D01*
X25459Y37899D01*
X25485Y37959D01*
X25500Y38019D01*
X25511Y38072D01*
X25515Y38113D01*
X25519Y38128D01*
Y38151D01*
X25511Y38233D01*
X25496Y38304D01*
X25477Y38368D01*
X25451Y38421D01*
X25425Y38462D01*
X25406Y38492D01*
X25391Y38507D01*
X25384Y38514D01*
X25331Y38559D01*
X25267Y38593D01*
X25207Y38616D01*
X25144Y38634D01*
X25091Y38642D01*
X25046Y38646D01*
X25027Y38649D01*
X25016D01*
X25009D01*
X25005D01*
X24923Y38642D01*
X24840Y38627D01*
X24765Y38601D01*
X24698Y38574D01*
X24637Y38544D01*
X24615Y38533D01*
X24592Y38518D01*
X24577Y38511D01*
X24566Y38503D01*
X24559Y38496D01*
X24555D01*
X24521Y38469D01*
X24480Y38436D01*
X24435Y38398D01*
X24386Y38353D01*
X24338Y38304D01*
X24285Y38252D01*
X24180Y38147D01*
X24127Y38098D01*
X24082Y38049D01*
X24037Y38004D01*
X24000Y37963D01*
X23970Y37933D01*
X23944Y37907D01*
X23929Y37892D01*
X23925Y37884D01*
X23820Y37772D01*
X23722Y37671D01*
X23629Y37577D01*
X23539Y37494D01*
X23456Y37419D01*
X23381Y37352D01*
X23310Y37292D01*
X23250Y37239D01*
X23194Y37194D01*
X23145Y37153D01*
X23100Y37123D01*
X23066Y37097D01*
X23040Y37078D01*
X23018Y37067D01*
X23006Y37059D01*
X23002Y37056D01*
X22939Y37018D01*
X22871Y36984D01*
X22744Y36932D01*
X22620Y36887D01*
X22564Y36868D01*
X22508Y36853D01*
X22459Y36842D01*
X22410Y36831D01*
X22373Y36823D01*
X22339Y36819D01*
X22309Y36812D01*
X22290D01*
X22275Y36808D01*
X22271D01*
Y39388D01*
X22957D01*
Y37926D01*
X23029Y37971D01*
X23066Y37997D01*
X23096Y38019D01*
X23122Y38042D01*
X23141Y38057D01*
X23156Y38068D01*
X23160Y38072D01*
X23182Y38091D01*
X23209Y38117D01*
X23239Y38147D01*
X23272Y38181D01*
X23340Y38252D01*
X23411Y38327D01*
X23479Y38398D01*
X23505Y38432D01*
X23531Y38458D01*
X23554Y38481D01*
X23569Y38499D01*
X23580Y38511D01*
X23584Y38514D01*
X23644Y38578D01*
X23696Y38638D01*
X23749Y38691D01*
X23794Y38739D01*
X23839Y38784D01*
X23880Y38822D01*
X23918Y38859D01*
X23947Y38889D01*
X23978Y38916D01*
X24004Y38938D01*
X24026Y38957D01*
X24045Y38972D01*
X24056Y38983D01*
X24068Y38991D01*
X24071Y38998D01*
X24075D01*
X24169Y39069D01*
X24259Y39129D01*
X24341Y39182D01*
X24416Y39223D01*
X24476Y39253D01*
X24502Y39268D01*
X24521Y39276D01*
X24540Y39283D01*
X24551Y39291D01*
X24559Y39294D01*
X24563D01*
X24653Y39324D01*
X24739Y39347D01*
X24821Y39366D01*
X24900Y39377D01*
X24964Y39384D01*
X24990D01*
X25012Y39388D01*
X25031D01*
X25046D01*
X25054D01*
X25058D01*
X25140Y39384D01*
D02*
G37*
G36*
X27630Y37830D02*
X27608Y37762D01*
X27593Y37703D01*
X27577Y37650D01*
X27570Y37609D01*
X27566Y37575D01*
X27562Y37552D01*
Y37534D01*
X27566Y37481D01*
X27581Y37444D01*
X27585Y37429D01*
X27593Y37418D01*
X27596Y37410D01*
Y37406D01*
X27626Y37376D01*
X27656Y37358D01*
X27683Y37346D01*
X27686Y37343D01*
X27690D01*
X27705D01*
X27724Y37339D01*
X27746D01*
X27776Y37335D01*
X27840D01*
X27911Y37331D01*
X27975D01*
X28005D01*
X28035D01*
X28058D01*
X28073D01*
X28084D01*
X28087D01*
X29212D01*
Y37834D01*
X29801D01*
Y37331D01*
X30788D01*
X30356Y36596D01*
X29801D01*
Y36259D01*
X29212D01*
Y36596D01*
X27997D01*
X27926D01*
X27863D01*
X27803Y36600D01*
X27750D01*
X27701D01*
X27660Y36604D01*
X27623D01*
X27589Y36608D01*
X27562Y36611D01*
X27536D01*
X27518Y36615D01*
X27503D01*
X27491D01*
X27484Y36619D01*
X27476D01*
X27413Y36630D01*
X27356Y36645D01*
X27308Y36664D01*
X27266Y36679D01*
X27233Y36694D01*
X27206Y36709D01*
X27191Y36716D01*
X27187Y36720D01*
X27150Y36750D01*
X27116Y36788D01*
X27086Y36825D01*
X27064Y36866D01*
X27041Y36900D01*
X27026Y36926D01*
X27019Y36945D01*
X27015Y36952D01*
X26992Y37016D01*
X26978Y37076D01*
X26966Y37136D01*
X26959Y37192D01*
X26955Y37241D01*
X26951Y37279D01*
Y37312D01*
X26955Y37429D01*
X26970Y37541D01*
X26985Y37639D01*
X26996Y37684D01*
X27007Y37725D01*
X27015Y37762D01*
X27026Y37796D01*
X27034Y37822D01*
X27045Y37849D01*
X27049Y37868D01*
X27056Y37883D01*
X27060Y37890D01*
Y37894D01*
X27630Y37830D01*
D02*
G37*
G36*
X26182Y36122D02*
X22208Y35173D01*
Y35717D01*
X26182Y36677D01*
Y36122D01*
D02*
G37*
G36*
X29801Y35063D02*
X28624D01*
X28519D01*
X28421Y35059D01*
X28335D01*
X28256Y35055D01*
X28185Y35051D01*
X28125Y35044D01*
X28073Y35040D01*
X28024Y35036D01*
X27986Y35029D01*
X27953Y35025D01*
X27926Y35021D01*
X27907Y35014D01*
X27893Y35010D01*
X27881D01*
X27878Y35006D01*
X27874D01*
X27817Y34980D01*
X27769Y34950D01*
X27724Y34916D01*
X27686Y34883D01*
X27656Y34849D01*
X27634Y34826D01*
X27619Y34808D01*
X27615Y34800D01*
X27581Y34744D01*
X27555Y34684D01*
X27540Y34628D01*
X27525Y34575D01*
X27518Y34530D01*
X27514Y34492D01*
Y34462D01*
X27518Y34402D01*
X27525Y34350D01*
X27536Y34305D01*
X27551Y34264D01*
X27566Y34234D01*
X27577Y34207D01*
X27585Y34192D01*
X27589Y34189D01*
X27619Y34151D01*
X27656Y34121D01*
X27690Y34095D01*
X27724Y34073D01*
X27754Y34058D01*
X27776Y34046D01*
X27791Y34043D01*
X27799Y34039D01*
X27829Y34031D01*
X27866Y34027D01*
X27915Y34020D01*
X27968Y34016D01*
X28024Y34012D01*
X28084Y34009D01*
X28207Y34005D01*
X28267D01*
X28328D01*
X28380Y34001D01*
X28425D01*
X28462D01*
X28493D01*
X28511D01*
X28519D01*
X29801D01*
Y33266D01*
X28035D01*
X27964D01*
X27896Y33270D01*
X27832Y33274D01*
X27773Y33281D01*
X27716Y33289D01*
X27667Y33296D01*
X27619Y33307D01*
X27577Y33315D01*
X27540Y33323D01*
X27510Y33334D01*
X27480Y33341D01*
X27457Y33349D01*
X27439Y33356D01*
X27428Y33360D01*
X27420Y33364D01*
X27416D01*
X27338Y33405D01*
X27270Y33457D01*
X27210Y33510D01*
X27161Y33562D01*
X27124Y33611D01*
X27094Y33649D01*
X27082Y33664D01*
X27079Y33675D01*
X27071Y33683D01*
Y33686D01*
X27030Y33773D01*
X27004Y33859D01*
X26981Y33945D01*
X26966Y34024D01*
X26959Y34087D01*
X26955Y34117D01*
Y34144D01*
X26951Y34163D01*
Y34189D01*
X26955Y34290D01*
X26970Y34387D01*
X26992Y34477D01*
X27015Y34556D01*
X27026Y34590D01*
X27038Y34620D01*
X27049Y34646D01*
X27060Y34672D01*
X27068Y34688D01*
X27075Y34703D01*
X27079Y34710D01*
Y34714D01*
X27131Y34804D01*
X27187Y34883D01*
X27248Y34950D01*
X27304Y35006D01*
X27352Y35055D01*
X27394Y35089D01*
X27409Y35100D01*
X27420Y35107D01*
X27428Y35115D01*
X27015D01*
Y35798D01*
X29801D01*
Y35063D01*
D02*
G37*
G36*
X26130Y33707D02*
X26066Y33681D01*
X26002Y33651D01*
X25886Y33583D01*
X25781Y33504D01*
X25732Y33467D01*
X25691Y33429D01*
X25650Y33392D01*
X25616Y33358D01*
X25586Y33324D01*
X25560Y33298D01*
X25541Y33276D01*
X25526Y33257D01*
X25519Y33246D01*
X25515Y33242D01*
X25466Y33178D01*
X25425Y33118D01*
X25350Y33002D01*
X25286Y32897D01*
X25260Y32848D01*
X25238Y32803D01*
X25219Y32762D01*
X25204Y32728D01*
X25189Y32694D01*
X25177Y32668D01*
X25170Y32649D01*
X25163Y32631D01*
X25159Y32623D01*
Y32619D01*
X24491D01*
X24529Y32721D01*
X24566Y32818D01*
X24611Y32912D01*
X24653Y32998D01*
X24701Y33084D01*
X24746Y33163D01*
X24791Y33234D01*
X24836Y33302D01*
X24878Y33362D01*
X24919Y33414D01*
X24952Y33463D01*
X24986Y33501D01*
X25009Y33531D01*
X25031Y33553D01*
X25043Y33568D01*
X25046Y33572D01*
X22271D01*
Y34307D01*
X26130D01*
Y33707D01*
D02*
G37*
G36*
X28958Y32528D02*
X29044Y32524D01*
X29078Y32520D01*
X29111Y32516D01*
X29141Y32513D01*
X29168Y32509D01*
X29190Y32505D01*
X29209Y32501D01*
X29220Y32498D01*
X29231D01*
X29235Y32494D01*
X29239D01*
X29302Y32475D01*
X29359Y32452D01*
X29411Y32430D01*
X29456Y32404D01*
X29494Y32381D01*
X29524Y32366D01*
X29539Y32351D01*
X29546Y32348D01*
X29595Y32302D01*
X29640Y32254D01*
X29678Y32205D01*
X29711Y32156D01*
X29737Y32111D01*
X29756Y32074D01*
X29764Y32059D01*
X29768Y32048D01*
X29771Y32044D01*
Y32040D01*
X29801Y31965D01*
X29824Y31886D01*
X29839Y31811D01*
X29850Y31744D01*
X29858Y31684D01*
Y31661D01*
X29861Y31639D01*
Y31598D01*
X29858Y31496D01*
X29842Y31399D01*
X29816Y31305D01*
X29786Y31219D01*
X29752Y31140D01*
X29711Y31061D01*
X29670Y30994D01*
X29625Y30930D01*
X29580Y30874D01*
X29539Y30825D01*
X29498Y30780D01*
X29464Y30746D01*
X29434Y30716D01*
X29408Y30694D01*
X29392Y30683D01*
X29389Y30679D01*
X29801D01*
Y29992D01*
X27015D01*
Y30727D01*
X28275D01*
X28357D01*
X28436Y30731D01*
X28508D01*
X28571Y30735D01*
X28627Y30742D01*
X28680Y30746D01*
X28729Y30750D01*
X28770Y30757D01*
X28804Y30761D01*
X28834Y30765D01*
X28860Y30773D01*
X28879Y30776D01*
X28894Y30780D01*
X28905D01*
X28909Y30784D01*
X28912D01*
X28976Y30810D01*
X29032Y30840D01*
X29078Y30874D01*
X29119Y30911D01*
X29153Y30941D01*
X29175Y30968D01*
X29190Y30986D01*
X29194Y30994D01*
X29228Y31054D01*
X29254Y31114D01*
X29272Y31170D01*
X29287Y31223D01*
X29295Y31271D01*
X29299Y31305D01*
Y31339D01*
X29295Y31391D01*
X29287Y31444D01*
X29276Y31485D01*
X29261Y31523D01*
X29246Y31552D01*
X29235Y31575D01*
X29228Y31590D01*
X29224Y31594D01*
X29194Y31631D01*
X29160Y31665D01*
X29126Y31691D01*
X29092Y31714D01*
X29063Y31729D01*
X29040Y31744D01*
X29025Y31747D01*
X29017Y31751D01*
X28991Y31759D01*
X28954Y31766D01*
X28916Y31774D01*
X28871Y31781D01*
X28774Y31789D01*
X28676Y31793D01*
X28627Y31796D01*
X28583D01*
X28541Y31800D01*
X28504D01*
X28474D01*
X28451D01*
X28436D01*
X28433D01*
X27015D01*
Y32535D01*
X28744D01*
X28856D01*
X28958Y32528D01*
D02*
G37*
G36*
X26130Y30722D02*
X26066Y30696D01*
X26002Y30666D01*
X25886Y30598D01*
X25781Y30519D01*
X25732Y30482D01*
X25691Y30444D01*
X25650Y30407D01*
X25616Y30373D01*
X25586Y30339D01*
X25560Y30313D01*
X25541Y30291D01*
X25526Y30272D01*
X25519Y30261D01*
X25515Y30257D01*
X25466Y30193D01*
X25425Y30133D01*
X25350Y30017D01*
X25286Y29912D01*
X25260Y29863D01*
X25238Y29818D01*
X25219Y29777D01*
X25204Y29743D01*
X25189Y29709D01*
X25177Y29683D01*
X25170Y29664D01*
X25163Y29646D01*
X25159Y29638D01*
Y29634D01*
X24491D01*
X24529Y29736D01*
X24566Y29833D01*
X24611Y29927D01*
X24653Y30013D01*
X24701Y30099D01*
X24746Y30178D01*
X24791Y30249D01*
X24836Y30317D01*
X24878Y30377D01*
X24919Y30429D01*
X24952Y30478D01*
X24986Y30516D01*
X25009Y30546D01*
X25031Y30568D01*
X25043Y30583D01*
X25046Y30587D01*
X22271D01*
Y31322D01*
X26130D01*
Y30722D01*
D02*
G37*
G36*
X28530Y29419D02*
X28639Y29404D01*
X28744Y29385D01*
X28841Y29359D01*
X28931Y29329D01*
X29017Y29295D01*
X29096Y29258D01*
X29168Y29220D01*
X29231Y29182D01*
X29287Y29145D01*
X29336Y29111D01*
X29374Y29081D01*
X29408Y29055D01*
X29430Y29036D01*
X29445Y29021D01*
X29449Y29017D01*
X29520Y28939D01*
X29584Y28856D01*
X29640Y28770D01*
X29689Y28684D01*
X29726Y28598D01*
X29760Y28511D01*
X29786Y28429D01*
X29809Y28346D01*
X29827Y28271D01*
X29839Y28200D01*
X29850Y28140D01*
X29854Y28084D01*
X29858Y28039D01*
X29861Y28009D01*
Y27979D01*
X29858Y27904D01*
X29854Y27829D01*
X29831Y27690D01*
X29820Y27626D01*
X29805Y27562D01*
X29786Y27506D01*
X29771Y27454D01*
X29752Y27405D01*
X29737Y27364D01*
X29719Y27326D01*
X29708Y27296D01*
X29696Y27270D01*
X29685Y27251D01*
X29681Y27240D01*
X29678Y27236D01*
X29644Y27176D01*
X29603Y27120D01*
X29520Y27019D01*
X29475Y26970D01*
X29434Y26929D01*
X29389Y26891D01*
X29348Y26858D01*
X29306Y26827D01*
X29272Y26801D01*
X29239Y26779D01*
X29209Y26760D01*
X29186Y26745D01*
X29168Y26734D01*
X29156Y26730D01*
X29153Y26726D01*
X29089Y26696D01*
X29025Y26666D01*
X28898Y26621D01*
X28778Y26591D01*
X28721Y26580D01*
X28669Y26569D01*
X28624Y26561D01*
X28579Y26557D01*
X28541Y26550D01*
X28508D01*
X28481Y26546D01*
X28459D01*
X28447D01*
X28444D01*
X28357Y26550D01*
X28271Y26554D01*
X28189Y26561D01*
X28114Y26576D01*
X28043Y26588D01*
X27975Y26603D01*
X27915Y26621D01*
X27859Y26636D01*
X27806Y26655D01*
X27761Y26670D01*
X27724Y26685D01*
X27690Y26700D01*
X27664Y26711D01*
X27645Y26719D01*
X27634Y26722D01*
X27630Y26726D01*
X27570Y26764D01*
X27514Y26801D01*
X27461Y26842D01*
X27409Y26884D01*
X27364Y26929D01*
X27323Y26974D01*
X27285Y27015D01*
X27251Y27060D01*
X27221Y27097D01*
X27195Y27135D01*
X27172Y27169D01*
X27158Y27199D01*
X27143Y27221D01*
X27131Y27240D01*
X27128Y27251D01*
X27124Y27255D01*
X27094Y27323D01*
X27068Y27386D01*
X27022Y27518D01*
X26992Y27641D01*
X26981Y27698D01*
X26974Y27750D01*
X26966Y27803D01*
X26959Y27847D01*
X26955Y27889D01*
Y27922D01*
X26951Y27949D01*
Y27986D01*
X26955Y28099D01*
X26970Y28207D01*
X26989Y28313D01*
X27015Y28406D01*
X27049Y28500D01*
X27082Y28583D01*
X27120Y28661D01*
X27158Y28732D01*
X27195Y28796D01*
X27233Y28852D01*
X27270Y28901D01*
X27300Y28939D01*
X27326Y28973D01*
X27345Y28995D01*
X27360Y29010D01*
X27364Y29014D01*
X27442Y29085D01*
X27529Y29149D01*
X27615Y29205D01*
X27705Y29250D01*
X27791Y29291D01*
X27878Y29321D01*
X27964Y29351D01*
X28046Y29370D01*
X28121Y29389D01*
X28192Y29400D01*
X28253Y29411D01*
X28309Y29415D01*
X28354Y29419D01*
X28387Y29423D01*
X28406D01*
X28414D01*
X28530Y29419D01*
D02*
G37*
G36*
X28080Y25474D02*
X28027Y25462D01*
X27979Y25451D01*
X27934Y25436D01*
X27893Y25421D01*
X27821Y25387D01*
X27765Y25357D01*
X27720Y25328D01*
X27690Y25305D01*
X27675Y25290D01*
X27667Y25282D01*
X27630Y25230D01*
X27600Y25170D01*
X27581Y25114D01*
X27566Y25061D01*
X27559Y25012D01*
X27555Y24971D01*
X27551Y24956D01*
Y24938D01*
X27555Y24885D01*
X27559Y24836D01*
X27581Y24750D01*
X27615Y24671D01*
X27652Y24608D01*
X27690Y24555D01*
X27724Y24518D01*
X27735Y24506D01*
X27746Y24495D01*
X27750Y24491D01*
X27754Y24487D01*
X27795Y24457D01*
X27844Y24435D01*
X27893Y24412D01*
X27949Y24394D01*
X28065Y24364D01*
X28177Y24345D01*
X28234Y24338D01*
X28282Y24330D01*
X28331Y24326D01*
X28372D01*
X28403Y24322D01*
X28429D01*
X28447D01*
X28451D01*
X28534Y24326D01*
X28609Y24330D01*
X28676Y24338D01*
X28740Y24349D01*
X28796Y24360D01*
X28849Y24375D01*
X28898Y24390D01*
X28939Y24405D01*
X28973Y24420D01*
X29006Y24431D01*
X29032Y24446D01*
X29051Y24457D01*
X29070Y24469D01*
X29081Y24476D01*
X29085Y24484D01*
X29089D01*
X29122Y24518D01*
X29153Y24551D01*
X29179Y24585D01*
X29201Y24622D01*
X29235Y24698D01*
X29258Y24769D01*
X29269Y24829D01*
X29272Y24859D01*
X29276Y24881D01*
X29280Y24900D01*
Y24926D01*
X29276Y25001D01*
X29261Y25065D01*
X29246Y25125D01*
X29224Y25174D01*
X29205Y25211D01*
X29186Y25241D01*
X29171Y25256D01*
X29168Y25264D01*
X29122Y25309D01*
X29070Y25346D01*
X29017Y25376D01*
X28965Y25399D01*
X28916Y25414D01*
X28879Y25425D01*
X28864Y25429D01*
X28852Y25433D01*
X28845D01*
X28841D01*
X28973Y26160D01*
X29055Y26134D01*
X29130Y26104D01*
X29201Y26070D01*
X29265Y26036D01*
X29325Y26002D01*
X29381Y25965D01*
X29430Y25927D01*
X29475Y25894D01*
X29513Y25860D01*
X29546Y25830D01*
X29576Y25800D01*
X29599Y25774D01*
X29618Y25755D01*
X29629Y25740D01*
X29636Y25729D01*
X29640Y25725D01*
X29678Y25665D01*
X29715Y25605D01*
X29741Y25537D01*
X29768Y25474D01*
X29790Y25406D01*
X29809Y25339D01*
X29835Y25211D01*
X29842Y25151D01*
X29850Y25095D01*
X29854Y25046D01*
X29858Y25001D01*
X29861Y24968D01*
Y24919D01*
X29858Y24806D01*
X29846Y24698D01*
X29827Y24596D01*
X29801Y24502D01*
X29771Y24412D01*
X29737Y24334D01*
X29704Y24259D01*
X29670Y24191D01*
X29632Y24131D01*
X29599Y24079D01*
X29565Y24037D01*
X29535Y24000D01*
X29513Y23970D01*
X29490Y23951D01*
X29479Y23936D01*
X29475Y23933D01*
X29400Y23869D01*
X29318Y23812D01*
X29235Y23764D01*
X29145Y23722D01*
X29059Y23689D01*
X28969Y23659D01*
X28879Y23632D01*
X28796Y23614D01*
X28714Y23599D01*
X28642Y23587D01*
X28575Y23580D01*
X28515Y23576D01*
X28470Y23573D01*
X28433Y23569D01*
X28410D01*
X28406D01*
X28403D01*
X28279Y23573D01*
X28163Y23584D01*
X28050Y23603D01*
X27949Y23625D01*
X27851Y23651D01*
X27765Y23681D01*
X27686Y23715D01*
X27611Y23749D01*
X27547Y23783D01*
X27491Y23816D01*
X27442Y23846D01*
X27405Y23873D01*
X27375Y23895D01*
X27352Y23914D01*
X27338Y23925D01*
X27334Y23929D01*
X27266Y24000D01*
X27206Y24075D01*
X27158Y24154D01*
X27112Y24236D01*
X27075Y24315D01*
X27045Y24397D01*
X27019Y24476D01*
X27000Y24551D01*
X26985Y24626D01*
X26970Y24690D01*
X26963Y24750D01*
X26959Y24803D01*
X26955Y24844D01*
X26951Y24878D01*
Y24904D01*
X26955Y25001D01*
X26963Y25095D01*
X26974Y25185D01*
X26992Y25267D01*
X27011Y25343D01*
X27030Y25414D01*
X27053Y25477D01*
X27079Y25537D01*
X27101Y25586D01*
X27124Y25635D01*
X27143Y25673D01*
X27165Y25706D01*
X27180Y25729D01*
X27191Y25747D01*
X27199Y25759D01*
X27202Y25763D01*
X27251Y25819D01*
X27308Y25871D01*
X27367Y25920D01*
X27428Y25965D01*
X27491Y26006D01*
X27555Y26040D01*
X27615Y26074D01*
X27675Y26100D01*
X27731Y26122D01*
X27784Y26145D01*
X27832Y26160D01*
X27874Y26175D01*
X27907Y26186D01*
X27934Y26194D01*
X27953Y26197D01*
X27956D01*
X28080Y25474D01*
D02*
G37*
G36*
X28530Y23153D02*
X28639Y23137D01*
X28744Y23119D01*
X28841Y23092D01*
X28931Y23063D01*
X29017Y23029D01*
X29096Y22991D01*
X29168Y22954D01*
X29231Y22916D01*
X29287Y22879D01*
X29336Y22845D01*
X29374Y22815D01*
X29408Y22789D01*
X29430Y22770D01*
X29445Y22755D01*
X29449Y22751D01*
X29520Y22672D01*
X29584Y22590D01*
X29640Y22504D01*
X29689Y22418D01*
X29726Y22331D01*
X29760Y22245D01*
X29786Y22163D01*
X29809Y22080D01*
X29827Y22005D01*
X29839Y21934D01*
X29850Y21874D01*
X29854Y21817D01*
X29858Y21772D01*
X29861Y21743D01*
Y21712D01*
X29858Y21637D01*
X29854Y21563D01*
X29831Y21424D01*
X29820Y21360D01*
X29805Y21296D01*
X29786Y21240D01*
X29771Y21188D01*
X29752Y21139D01*
X29737Y21098D01*
X29719Y21060D01*
X29708Y21030D01*
X29696Y21004D01*
X29685Y20985D01*
X29681Y20974D01*
X29678Y20970D01*
X29644Y20910D01*
X29603Y20854D01*
X29520Y20752D01*
X29475Y20704D01*
X29434Y20662D01*
X29389Y20625D01*
X29348Y20591D01*
X29306Y20561D01*
X29272Y20535D01*
X29239Y20513D01*
X29209Y20494D01*
X29186Y20479D01*
X29168Y20468D01*
X29156Y20464D01*
X29153Y20460D01*
X29089Y20430D01*
X29025Y20400D01*
X28898Y20355D01*
X28778Y20325D01*
X28721Y20314D01*
X28669Y20302D01*
X28624Y20295D01*
X28579Y20291D01*
X28541Y20284D01*
X28508D01*
X28481Y20280D01*
X28459D01*
X28447D01*
X28444D01*
X28357Y20284D01*
X28271Y20288D01*
X28189Y20295D01*
X28114Y20310D01*
X28043Y20321D01*
X27975Y20336D01*
X27915Y20355D01*
X27859Y20370D01*
X27806Y20389D01*
X27761Y20404D01*
X27724Y20419D01*
X27690Y20434D01*
X27664Y20445D01*
X27645Y20452D01*
X27634Y20456D01*
X27630Y20460D01*
X27570Y20497D01*
X27514Y20535D01*
X27461Y20576D01*
X27409Y20617D01*
X27364Y20662D01*
X27323Y20707D01*
X27285Y20749D01*
X27251Y20794D01*
X27221Y20831D01*
X27195Y20869D01*
X27172Y20902D01*
X27158Y20933D01*
X27143Y20955D01*
X27131Y20974D01*
X27128Y20985D01*
X27124Y20989D01*
X27094Y21056D01*
X27068Y21120D01*
X27022Y21251D01*
X26992Y21375D01*
X26981Y21431D01*
X26974Y21484D01*
X26966Y21536D01*
X26959Y21581D01*
X26955Y21622D01*
Y21656D01*
X26951Y21682D01*
Y21720D01*
X26955Y21833D01*
X26970Y21941D01*
X26989Y22046D01*
X27015Y22140D01*
X27049Y22234D01*
X27082Y22316D01*
X27120Y22395D01*
X27158Y22466D01*
X27195Y22530D01*
X27233Y22586D01*
X27270Y22635D01*
X27300Y22672D01*
X27326Y22706D01*
X27345Y22729D01*
X27360Y22744D01*
X27364Y22748D01*
X27442Y22819D01*
X27529Y22883D01*
X27615Y22939D01*
X27705Y22984D01*
X27791Y23025D01*
X27878Y23055D01*
X27964Y23085D01*
X28046Y23104D01*
X28121Y23122D01*
X28192Y23134D01*
X28253Y23145D01*
X28309Y23149D01*
X28354Y23153D01*
X28387Y23156D01*
X28406D01*
X28414D01*
X28530Y23153D01*
D02*
G37*
G36*
X28433Y19039D02*
X28357Y19020D01*
X28282Y18997D01*
X28219Y18971D01*
X28155Y18949D01*
X28099Y18923D01*
X28050Y18892D01*
X28005Y18866D01*
X27964Y18840D01*
X27926Y18817D01*
X27896Y18791D01*
X27870Y18772D01*
X27847Y18754D01*
X27832Y18739D01*
X27821Y18728D01*
X27814Y18720D01*
X27810Y18716D01*
X27776Y18675D01*
X27746Y18630D01*
X27720Y18585D01*
X27698Y18540D01*
X27664Y18450D01*
X27641Y18368D01*
X27630Y18330D01*
X27626Y18293D01*
X27623Y18262D01*
X27619Y18236D01*
X27615Y18214D01*
Y18184D01*
X27619Y18109D01*
X27630Y18034D01*
X27645Y17966D01*
X27664Y17899D01*
X27686Y17839D01*
X27713Y17783D01*
X27739Y17730D01*
X27769Y17685D01*
X27799Y17644D01*
X27825Y17606D01*
X27851Y17576D01*
X27874Y17550D01*
X27893Y17527D01*
X27911Y17513D01*
X27919Y17505D01*
X27922Y17501D01*
X27986Y17456D01*
X28054Y17415D01*
X28133Y17381D01*
X28215Y17351D01*
X28301Y17325D01*
X28387Y17306D01*
X28474Y17288D01*
X28556Y17276D01*
X28639Y17265D01*
X28714Y17257D01*
X28781Y17250D01*
X28841Y17246D01*
X28890Y17243D01*
X28927D01*
X28942D01*
X28954D01*
X28958D01*
X28961D01*
X29085Y17246D01*
X29201Y17254D01*
X29306Y17265D01*
X29408Y17284D01*
X29498Y17302D01*
X29576Y17325D01*
X29651Y17351D01*
X29715Y17374D01*
X29771Y17400D01*
X29820Y17423D01*
X29861Y17445D01*
X29895Y17464D01*
X29921Y17482D01*
X29940Y17494D01*
X29951Y17501D01*
X29955Y17505D01*
X30007Y17558D01*
X30056Y17610D01*
X30097Y17666D01*
X30131Y17726D01*
X30161Y17783D01*
X30187Y17842D01*
X30206Y17899D01*
X30225Y17951D01*
X30236Y18004D01*
X30248Y18049D01*
X30255Y18090D01*
X30259Y18127D01*
Y18158D01*
X30263Y18180D01*
Y18255D01*
X30255Y18311D01*
X30236Y18413D01*
X30206Y18503D01*
X30176Y18577D01*
X30158Y18611D01*
X30143Y18641D01*
X30128Y18664D01*
X30112Y18686D01*
X30101Y18701D01*
X30094Y18712D01*
X30090Y18720D01*
X30086Y18724D01*
X30015Y18799D01*
X29940Y18862D01*
X29861Y18911D01*
X29786Y18949D01*
X29719Y18979D01*
X29693Y18990D01*
X29666Y18997D01*
X29647Y19005D01*
X29632Y19009D01*
X29621Y19013D01*
X29618D01*
X29801Y19781D01*
X29884Y19755D01*
X29963Y19725D01*
X30038Y19695D01*
X30105Y19665D01*
X30169Y19631D01*
X30229Y19598D01*
X30281Y19568D01*
X30326Y19534D01*
X30367Y19504D01*
X30405Y19478D01*
X30435Y19451D01*
X30461Y19433D01*
X30480Y19414D01*
X30495Y19399D01*
X30503Y19391D01*
X30506Y19387D01*
X30581Y19301D01*
X30645Y19211D01*
X30701Y19117D01*
X30750Y19020D01*
X30791Y18926D01*
X30825Y18829D01*
X30851Y18739D01*
X30874Y18649D01*
X30893Y18563D01*
X30904Y18487D01*
X30915Y18416D01*
X30919Y18356D01*
X30922Y18307D01*
X30926Y18270D01*
Y18240D01*
X30919Y18094D01*
X30904Y17951D01*
X30878Y17820D01*
X30844Y17696D01*
X30803Y17580D01*
X30757Y17475D01*
X30709Y17378D01*
X30660Y17288D01*
X30611Y17209D01*
X30562Y17138D01*
X30518Y17077D01*
X30476Y17029D01*
X30443Y16991D01*
X30416Y16961D01*
X30401Y16946D01*
X30394Y16939D01*
X30289Y16852D01*
X30176Y16774D01*
X30060Y16710D01*
X29936Y16654D01*
X29812Y16605D01*
X29689Y16564D01*
X29565Y16534D01*
X29449Y16508D01*
X29336Y16485D01*
X29235Y16470D01*
X29141Y16459D01*
X29059Y16451D01*
X29025Y16447D01*
X28995D01*
X28965D01*
X28942Y16444D01*
X28924D01*
X28912D01*
X28905D01*
X28901D01*
X28736Y16451D01*
X28579Y16466D01*
X28433Y16489D01*
X28294Y16522D01*
X28166Y16556D01*
X28050Y16598D01*
X27945Y16643D01*
X27847Y16691D01*
X27761Y16736D01*
X27686Y16781D01*
X27623Y16823D01*
X27570Y16860D01*
X27525Y16890D01*
X27495Y16913D01*
X27480Y16931D01*
X27472Y16935D01*
X27382Y17029D01*
X27300Y17130D01*
X27233Y17235D01*
X27172Y17340D01*
X27120Y17445D01*
X27079Y17550D01*
X27045Y17651D01*
X27015Y17749D01*
X26996Y17842D01*
X26978Y17925D01*
X26966Y18000D01*
X26959Y18067D01*
X26955Y18120D01*
X26951Y18161D01*
Y18195D01*
X26955Y18307D01*
X26966Y18416D01*
X26981Y18518D01*
X27000Y18615D01*
X27022Y18705D01*
X27049Y18791D01*
X27075Y18866D01*
X27105Y18937D01*
X27131Y19001D01*
X27158Y19054D01*
X27184Y19103D01*
X27206Y19144D01*
X27229Y19174D01*
X27244Y19196D01*
X27251Y19211D01*
X27255Y19215D01*
X27315Y19286D01*
X27382Y19354D01*
X27457Y19418D01*
X27533Y19474D01*
X27608Y19526D01*
X27686Y19575D01*
X27765Y19616D01*
X27840Y19654D01*
X27911Y19688D01*
X27979Y19717D01*
X28039Y19740D01*
X28091Y19759D01*
X28133Y19774D01*
X28166Y19785D01*
X28185Y19789D01*
X28192Y19793D01*
X28433Y19039D01*
D02*
G37*
%LPC*%
G36*
X28440Y60761D02*
X28418D01*
X28399D01*
X28395D01*
X28316Y60757D01*
X28245Y60754D01*
X28174Y60746D01*
X28110Y60735D01*
X28054Y60720D01*
X28001Y60705D01*
X27953Y60690D01*
X27907Y60671D01*
X27870Y60656D01*
X27836Y60637D01*
X27810Y60623D01*
X27788Y60611D01*
X27769Y60596D01*
X27757Y60589D01*
X27750Y60585D01*
X27746Y60581D01*
X27709Y60548D01*
X27675Y60510D01*
X27649Y60476D01*
X27623Y60439D01*
X27604Y60401D01*
X27585Y60364D01*
X27559Y60296D01*
X27544Y60236D01*
X27540Y60210D01*
X27536Y60188D01*
X27533Y60172D01*
Y60146D01*
X27536Y60090D01*
X27544Y60034D01*
X27559Y59981D01*
X27577Y59933D01*
X27623Y59850D01*
X27675Y59779D01*
X27701Y59749D01*
X27727Y59723D01*
X27750Y59700D01*
X27773Y59681D01*
X27791Y59666D01*
X27806Y59655D01*
X27814Y59651D01*
X27817Y59648D01*
X27859Y59625D01*
X27904Y59606D01*
X28005Y59580D01*
X28114Y59557D01*
X28219Y59543D01*
X28267Y59539D01*
X28316Y59535D01*
X28357Y59531D01*
X28395D01*
X28425Y59527D01*
X28447D01*
X28462D01*
X28466D01*
X28541Y59531D01*
X28613Y59535D01*
X28676Y59543D01*
X28736Y59554D01*
X28793Y59569D01*
X28845Y59584D01*
X28890Y59599D01*
X28931Y59618D01*
X28969Y59632D01*
X29002Y59648D01*
X29029Y59662D01*
X29051Y59677D01*
X29066Y59689D01*
X29078Y59696D01*
X29085Y59704D01*
X29089D01*
X29126Y59737D01*
X29160Y59775D01*
X29186Y59809D01*
X29209Y59846D01*
X29246Y59921D01*
X29272Y59989D01*
X29287Y60049D01*
X29291Y60075D01*
X29295Y60097D01*
X29299Y60116D01*
Y60142D01*
X29295Y60191D01*
X29291Y60240D01*
X29280Y60285D01*
X29265Y60326D01*
X29231Y60401D01*
X29194Y60465D01*
X29153Y60518D01*
X29119Y60555D01*
X29104Y60566D01*
X29092Y60577D01*
X29089Y60581D01*
X29085Y60585D01*
X29044Y60615D01*
X28995Y60645D01*
X28942Y60668D01*
X28890Y60686D01*
X28774Y60720D01*
X28661Y60739D01*
X28609Y60746D01*
X28556Y60754D01*
X28511Y60757D01*
X28474D01*
X28440Y60761D01*
D02*
G37*
G36*
X28350Y55399D02*
X28200D01*
X28151D01*
X28110D01*
X28035Y55395D01*
X27971Y55391D01*
X27922Y55384D01*
X27889Y55380D01*
X27863Y55373D01*
X27847Y55369D01*
X27844D01*
X27791Y55350D01*
X27742Y55324D01*
X27701Y55294D01*
X27664Y55264D01*
X27637Y55238D01*
X27615Y55215D01*
X27600Y55200D01*
X27596Y55193D01*
X27555Y55125D01*
X27521Y55058D01*
X27499Y54994D01*
X27484Y54937D01*
X27476Y54885D01*
X27472Y54848D01*
X27469Y54833D01*
Y54814D01*
X27472Y54750D01*
X27487Y54690D01*
X27506Y54641D01*
X27525Y54600D01*
X27547Y54562D01*
X27562Y54540D01*
X27577Y54521D01*
X27581Y54518D01*
X27626Y54480D01*
X27671Y54454D01*
X27716Y54431D01*
X27757Y54420D01*
X27791Y54413D01*
X27821Y54409D01*
X27840Y54405D01*
X27847D01*
X27904Y54413D01*
X27956Y54427D01*
X27997Y54450D01*
X28035Y54476D01*
X28065Y54502D01*
X28087Y54525D01*
X28102Y54540D01*
X28106Y54548D01*
X28117Y54566D01*
X28129Y54593D01*
X28155Y54649D01*
X28174Y54716D01*
X28192Y54784D01*
X28211Y54848D01*
X28219Y54874D01*
X28223Y54900D01*
X28226Y54919D01*
X28230Y54934D01*
X28234Y54945D01*
Y54949D01*
X28245Y55005D01*
X28260Y55058D01*
X28271Y55106D01*
X28279Y55147D01*
X28301Y55226D01*
X28316Y55290D01*
X28331Y55339D01*
X28343Y55373D01*
X28346Y55391D01*
X28350Y55399D01*
D02*
G37*
G36*
X24803Y55003D02*
X24784D01*
X24772D01*
X24769D01*
X24653Y54996D01*
X24604Y54988D01*
X24555Y54981D01*
X24510Y54969D01*
X24469Y54958D01*
X24431Y54943D01*
X24397Y54932D01*
X24371Y54917D01*
X24345Y54902D01*
X24322Y54891D01*
X24304Y54879D01*
X24293Y54872D01*
X24281Y54864D01*
X24277Y54857D01*
X24274D01*
X24244Y54831D01*
X24221Y54801D01*
X24180Y54741D01*
X24150Y54681D01*
X24131Y54621D01*
X24116Y54572D01*
X24113Y54534D01*
X24109Y54519D01*
Y54497D01*
X24113Y54456D01*
X24116Y54418D01*
X24135Y54347D01*
X24165Y54283D01*
X24195Y54231D01*
X24225Y54186D01*
X24255Y54156D01*
X24274Y54137D01*
X24281Y54129D01*
X24315Y54103D01*
X24356Y54081D01*
X24439Y54043D01*
X24529Y54021D01*
X24619Y54002D01*
X24701Y53991D01*
X24735Y53987D01*
X24769D01*
X24791Y53983D01*
X24814D01*
X24825D01*
X24829D01*
X24896D01*
X24956Y53991D01*
X25012Y53994D01*
X25065Y54006D01*
X25114Y54013D01*
X25159Y54024D01*
X25196Y54039D01*
X25230Y54051D01*
X25260Y54062D01*
X25286Y54077D01*
X25309Y54088D01*
X25328Y54096D01*
X25339Y54107D01*
X25350Y54111D01*
X25357Y54118D01*
X25387Y54144D01*
X25410Y54171D01*
X25451Y54227D01*
X25481Y54283D01*
X25500Y54339D01*
X25511Y54384D01*
X25515Y54422D01*
X25519Y54437D01*
Y54456D01*
X25515Y54497D01*
X25511Y54534D01*
X25489Y54606D01*
X25455Y54673D01*
X25421Y54729D01*
X25384Y54774D01*
X25350Y54808D01*
X25328Y54831D01*
X25324Y54838D01*
X25320D01*
X25282Y54868D01*
X25241Y54894D01*
X25151Y54932D01*
X25061Y54962D01*
X24971Y54984D01*
X24930Y54988D01*
X24893Y54996D01*
X24859Y54999D01*
X24829D01*
X24803Y55003D01*
D02*
G37*
G36*
X28447Y52530D02*
X28429D01*
X28414D01*
X28410D01*
X28335Y52526D01*
X28264Y52522D01*
X28196Y52511D01*
X28133Y52500D01*
X28076Y52485D01*
X28024Y52466D01*
X27975Y52447D01*
X27934Y52433D01*
X27893Y52414D01*
X27863Y52395D01*
X27832Y52376D01*
X27810Y52361D01*
X27791Y52350D01*
X27780Y52339D01*
X27773Y52335D01*
X27769Y52331D01*
X27731Y52294D01*
X27698Y52256D01*
X27667Y52215D01*
X27645Y52174D01*
X27623Y52132D01*
X27604Y52091D01*
X27577Y52016D01*
X27562Y51949D01*
X27559Y51919D01*
X27555Y51896D01*
X27551Y51874D01*
Y51847D01*
X27555Y51795D01*
X27562Y51743D01*
X27570Y51694D01*
X27585Y51649D01*
X27619Y51566D01*
X27660Y51495D01*
X27701Y51439D01*
X27720Y51416D01*
X27735Y51398D01*
X27750Y51379D01*
X27761Y51367D01*
X27765Y51364D01*
X27769Y51360D01*
X27814Y51326D01*
X27859Y51296D01*
X27911Y51270D01*
X27960Y51248D01*
X28069Y51214D01*
X28170Y51191D01*
X28219Y51180D01*
X28264Y51176D01*
X28301Y51173D01*
X28339Y51169D01*
X28365Y51165D01*
X28387D01*
X28403D01*
X28406D01*
X28481Y51169D01*
X28552Y51173D01*
X28616Y51184D01*
X28680Y51195D01*
X28736Y51210D01*
X28789Y51225D01*
X28834Y51244D01*
X28879Y51262D01*
X28916Y51281D01*
X28950Y51300D01*
X28976Y51315D01*
X28999Y51330D01*
X29017Y51341D01*
X29029Y51353D01*
X29036Y51356D01*
X29040Y51360D01*
X29078Y51398D01*
X29115Y51439D01*
X29141Y51480D01*
X29168Y51521D01*
X29190Y51562D01*
X29209Y51600D01*
X29235Y51679D01*
X29250Y51746D01*
X29254Y51776D01*
X29258Y51799D01*
X29261Y51821D01*
Y51847D01*
X29258Y51900D01*
X29250Y51952D01*
X29243Y52001D01*
X29228Y52046D01*
X29190Y52129D01*
X29153Y52196D01*
X29111Y52256D01*
X29092Y52279D01*
X29074Y52298D01*
X29059Y52312D01*
X29051Y52324D01*
X29044Y52328D01*
X29040Y52331D01*
X28995Y52365D01*
X28950Y52399D01*
X28901Y52425D01*
X28849Y52447D01*
X28744Y52481D01*
X28642Y52504D01*
X28594Y52515D01*
X28552Y52519D01*
X28511Y52522D01*
X28477Y52526D01*
X28447Y52530D01*
D02*
G37*
G36*
X24274Y49067D02*
X24229D01*
X24195D01*
X24172D01*
X24169D01*
X24165D01*
X24045D01*
X23929Y49063D01*
X23828Y49059D01*
X23730Y49056D01*
X23644Y49048D01*
X23565Y49041D01*
X23497Y49033D01*
X23434Y49029D01*
X23381Y49022D01*
X23333Y49014D01*
X23295Y49007D01*
X23265Y48999D01*
X23239Y48996D01*
X23224Y48992D01*
X23212Y48988D01*
X23209D01*
X23134Y48966D01*
X23066Y48939D01*
X23014Y48913D01*
X22973Y48887D01*
X22939Y48864D01*
X22920Y48846D01*
X22905Y48831D01*
X22901Y48827D01*
X22875Y48786D01*
X22852Y48744D01*
X22838Y48707D01*
X22830Y48669D01*
X22822Y48639D01*
X22819Y48613D01*
Y48591D01*
X22822Y48542D01*
X22830Y48497D01*
X22845Y48459D01*
X22860Y48422D01*
X22875Y48396D01*
X22890Y48373D01*
X22897Y48358D01*
X22901Y48354D01*
X22920Y48336D01*
X22939Y48317D01*
X22987Y48287D01*
X23044Y48257D01*
X23100Y48231D01*
X23153Y48212D01*
X23194Y48197D01*
X23212Y48193D01*
X23224Y48189D01*
X23231Y48186D01*
X23235D01*
X23288Y48174D01*
X23347Y48163D01*
X23415Y48156D01*
X23486Y48148D01*
X23640Y48133D01*
X23798Y48126D01*
X23869D01*
X23936Y48122D01*
X24000D01*
X24056Y48118D01*
X24101D01*
X24135D01*
X24158D01*
X24165D01*
X24289D01*
X24401Y48122D01*
X24502Y48126D01*
X24600Y48129D01*
X24686Y48137D01*
X24765Y48141D01*
X24836Y48148D01*
X24900Y48156D01*
X24952Y48163D01*
X24997Y48171D01*
X25039Y48174D01*
X25069Y48182D01*
X25095Y48186D01*
X25110Y48189D01*
X25121Y48193D01*
X25125D01*
X25200Y48216D01*
X25267Y48242D01*
X25320Y48268D01*
X25361Y48294D01*
X25395Y48317D01*
X25418Y48336D01*
X25429Y48351D01*
X25433Y48354D01*
X25462Y48396D01*
X25481Y48437D01*
X25496Y48474D01*
X25508Y48512D01*
X25515Y48542D01*
X25519Y48568D01*
Y48591D01*
X25515Y48639D01*
X25504Y48681D01*
X25493Y48722D01*
X25477Y48756D01*
X25459Y48786D01*
X25447Y48804D01*
X25436Y48819D01*
X25433Y48823D01*
X25414Y48842D01*
X25395Y48861D01*
X25343Y48894D01*
X25286Y48924D01*
X25230Y48951D01*
X25177Y48969D01*
X25133Y48984D01*
X25114Y48988D01*
X25102Y48992D01*
X25095Y48996D01*
X25091D01*
X25039Y49007D01*
X24979Y49018D01*
X24911Y49029D01*
X24840Y49037D01*
X24686Y49048D01*
X24532Y49059D01*
X24461D01*
X24394Y49063D01*
X24330D01*
X24274Y49067D01*
D02*
G37*
G36*
X29809Y48990D02*
X29786D01*
X29783D01*
X29779D01*
X29711Y48986D01*
X29651Y48971D01*
X29599Y48952D01*
X29557Y48934D01*
X29520Y48911D01*
X29498Y48893D01*
X29479Y48878D01*
X29475Y48874D01*
X29438Y48829D01*
X29408Y48776D01*
X29381Y48728D01*
X29366Y48675D01*
X29355Y48630D01*
X29344Y48596D01*
Y48581D01*
X29340Y48570D01*
Y48536D01*
X29336Y48506D01*
Y48469D01*
X29333Y48428D01*
Y48334D01*
X29329Y48236D01*
Y47490D01*
X30217D01*
Y48199D01*
X30214Y48270D01*
Y48386D01*
X30210Y48431D01*
Y48506D01*
X30206Y48533D01*
Y48570D01*
X30202Y48581D01*
Y48596D01*
X30191Y48664D01*
X30173Y48724D01*
X30150Y48776D01*
X30128Y48818D01*
X30105Y48847D01*
X30086Y48870D01*
X30071Y48885D01*
X30068Y48889D01*
X30022Y48923D01*
X29974Y48949D01*
X29925Y48964D01*
X29880Y48979D01*
X29839Y48986D01*
X29809Y48990D01*
D02*
G37*
G36*
X28192Y49132D02*
X28170D01*
X28166D01*
X28163D01*
X28091Y49129D01*
X28027Y49114D01*
X27971Y49099D01*
X27922Y49076D01*
X27885Y49057D01*
X27859Y49039D01*
X27844Y49024D01*
X27836Y49020D01*
X27795Y48975D01*
X27761Y48930D01*
X27735Y48885D01*
X27716Y48840D01*
X27701Y48799D01*
X27694Y48769D01*
X27686Y48746D01*
Y48739D01*
X27683Y48713D01*
X27679Y48682D01*
X27675Y48649D01*
Y48608D01*
X27667Y48521D01*
Y48431D01*
X27664Y48345D01*
Y47490D01*
X28688D01*
Y48210D01*
X28684Y48296D01*
Y48375D01*
X28680Y48446D01*
X28676Y48510D01*
X28669Y48566D01*
X28665Y48615D01*
X28661Y48656D01*
X28654Y48694D01*
X28650Y48724D01*
X28646Y48750D01*
X28639Y48769D01*
X28635Y48784D01*
Y48795D01*
X28631Y48803D01*
X28609Y48859D01*
X28579Y48908D01*
X28552Y48949D01*
X28523Y48986D01*
X28496Y49013D01*
X28474Y49031D01*
X28459Y49042D01*
X28455Y49046D01*
X28406Y49076D01*
X28357Y49095D01*
X28309Y49110D01*
X28264Y49121D01*
X28223Y49129D01*
X28192Y49132D01*
D02*
G37*
G36*
X29764Y43687D02*
X29749D01*
X29737D01*
X29734D01*
X29730D01*
X29670Y43684D01*
X29614Y43676D01*
X29561Y43661D01*
X29520Y43650D01*
X29486Y43635D01*
X29464Y43620D01*
X29445Y43613D01*
X29441Y43609D01*
X29404Y43575D01*
X29370Y43541D01*
X29340Y43504D01*
X29318Y43470D01*
X29302Y43436D01*
X29291Y43410D01*
X29284Y43395D01*
X29280Y43387D01*
X29272Y43358D01*
X29265Y43316D01*
X29258Y43271D01*
X29254Y43222D01*
X29250Y43166D01*
X29246Y43106D01*
X29243Y42990D01*
X29239Y42930D01*
Y42878D01*
X29235Y42825D01*
Y42120D01*
X30210D01*
Y42952D01*
X30206Y43012D01*
Y43110D01*
X30202Y43151D01*
Y43211D01*
X30199Y43234D01*
Y43268D01*
X30195Y43279D01*
Y43290D01*
X30180Y43358D01*
X30158Y43414D01*
X30135Y43466D01*
X30109Y43508D01*
X30086Y43541D01*
X30064Y43564D01*
X30049Y43579D01*
X30045Y43582D01*
X29996Y43616D01*
X29944Y43643D01*
X29891Y43661D01*
X29842Y43676D01*
X29798Y43684D01*
X29764Y43687D01*
D02*
G37*
G36*
X28447Y28665D02*
X28429D01*
X28414D01*
X28410D01*
X28335Y28661D01*
X28264Y28657D01*
X28196Y28646D01*
X28133Y28635D01*
X28076Y28620D01*
X28024Y28601D01*
X27975Y28583D01*
X27934Y28567D01*
X27893Y28549D01*
X27863Y28530D01*
X27832Y28511D01*
X27810Y28496D01*
X27791Y28485D01*
X27780Y28474D01*
X27773Y28470D01*
X27769Y28466D01*
X27731Y28429D01*
X27698Y28391D01*
X27667Y28350D01*
X27645Y28309D01*
X27623Y28267D01*
X27604Y28226D01*
X27577Y28151D01*
X27562Y28084D01*
X27559Y28054D01*
X27555Y28031D01*
X27551Y28009D01*
Y27983D01*
X27555Y27930D01*
X27562Y27878D01*
X27570Y27829D01*
X27585Y27784D01*
X27619Y27701D01*
X27660Y27630D01*
X27701Y27574D01*
X27720Y27551D01*
X27735Y27533D01*
X27750Y27514D01*
X27761Y27503D01*
X27765Y27499D01*
X27769Y27495D01*
X27814Y27461D01*
X27859Y27431D01*
X27911Y27405D01*
X27960Y27382D01*
X28069Y27349D01*
X28170Y27326D01*
X28219Y27315D01*
X28264Y27311D01*
X28301Y27308D01*
X28339Y27304D01*
X28365Y27300D01*
X28387D01*
X28403D01*
X28406D01*
X28481Y27304D01*
X28552Y27308D01*
X28616Y27319D01*
X28680Y27330D01*
X28736Y27345D01*
X28789Y27360D01*
X28834Y27379D01*
X28879Y27398D01*
X28916Y27416D01*
X28950Y27435D01*
X28976Y27450D01*
X28999Y27465D01*
X29017Y27476D01*
X29029Y27487D01*
X29036Y27491D01*
X29040Y27495D01*
X29078Y27533D01*
X29115Y27574D01*
X29141Y27615D01*
X29168Y27656D01*
X29190Y27698D01*
X29209Y27735D01*
X29235Y27814D01*
X29250Y27881D01*
X29254Y27911D01*
X29258Y27934D01*
X29261Y27956D01*
Y27983D01*
X29258Y28035D01*
X29250Y28087D01*
X29243Y28136D01*
X29228Y28181D01*
X29190Y28264D01*
X29153Y28331D01*
X29111Y28391D01*
X29092Y28414D01*
X29074Y28433D01*
X29059Y28447D01*
X29051Y28459D01*
X29044Y28462D01*
X29040Y28466D01*
X28995Y28500D01*
X28950Y28534D01*
X28901Y28560D01*
X28849Y28583D01*
X28744Y28616D01*
X28642Y28639D01*
X28594Y28650D01*
X28552Y28654D01*
X28511Y28657D01*
X28477Y28661D01*
X28447Y28665D01*
D02*
G37*
G36*
Y22399D02*
X28429D01*
X28414D01*
X28410D01*
X28335Y22395D01*
X28264Y22391D01*
X28196Y22380D01*
X28133Y22369D01*
X28076Y22354D01*
X28024Y22335D01*
X27975Y22316D01*
X27934Y22301D01*
X27893Y22283D01*
X27863Y22264D01*
X27832Y22245D01*
X27810Y22230D01*
X27791Y22219D01*
X27780Y22208D01*
X27773Y22204D01*
X27769Y22200D01*
X27731Y22163D01*
X27698Y22125D01*
X27667Y22084D01*
X27645Y22042D01*
X27623Y22001D01*
X27604Y21960D01*
X27577Y21885D01*
X27562Y21817D01*
X27559Y21788D01*
X27555Y21765D01*
X27551Y21743D01*
Y21716D01*
X27555Y21664D01*
X27562Y21611D01*
X27570Y21563D01*
X27585Y21518D01*
X27619Y21435D01*
X27660Y21364D01*
X27701Y21307D01*
X27720Y21285D01*
X27735Y21266D01*
X27750Y21248D01*
X27761Y21236D01*
X27765Y21233D01*
X27769Y21229D01*
X27814Y21195D01*
X27859Y21165D01*
X27911Y21139D01*
X27960Y21116D01*
X28069Y21082D01*
X28170Y21060D01*
X28219Y21049D01*
X28264Y21045D01*
X28301Y21041D01*
X28339Y21037D01*
X28365Y21034D01*
X28387D01*
X28403D01*
X28406D01*
X28481Y21037D01*
X28552Y21041D01*
X28616Y21053D01*
X28680Y21064D01*
X28736Y21079D01*
X28789Y21094D01*
X28834Y21113D01*
X28879Y21131D01*
X28916Y21150D01*
X28950Y21169D01*
X28976Y21184D01*
X28999Y21199D01*
X29017Y21210D01*
X29029Y21221D01*
X29036Y21225D01*
X29040Y21229D01*
X29078Y21266D01*
X29115Y21307D01*
X29141Y21349D01*
X29168Y21390D01*
X29190Y21431D01*
X29209Y21469D01*
X29235Y21547D01*
X29250Y21615D01*
X29254Y21645D01*
X29258Y21667D01*
X29261Y21690D01*
Y21716D01*
X29258Y21769D01*
X29250Y21821D01*
X29243Y21870D01*
X29228Y21915D01*
X29190Y21997D01*
X29153Y22065D01*
X29111Y22125D01*
X29092Y22148D01*
X29074Y22166D01*
X29059Y22181D01*
X29051Y22193D01*
X29044Y22196D01*
X29040Y22200D01*
X28995Y22234D01*
X28950Y22267D01*
X28901Y22294D01*
X28849Y22316D01*
X28744Y22350D01*
X28642Y22373D01*
X28594Y22384D01*
X28552Y22388D01*
X28511Y22391D01*
X28477Y22395D01*
X28447Y22399D01*
D02*
G37*
%LPD*%
D11*
X48953Y11678D02*
Y15676D01*
X49953Y16676D01*
X51952D01*
X52952Y15676D01*
Y11678D01*
X51952Y10678D01*
X49953D01*
X50953Y12677D02*
X48953Y10678D01*
X49953D02*
X48953Y11678D01*
X42955Y10678D02*
X46954D01*
X42955Y14677D01*
Y15676D01*
X43955Y16676D01*
X45954D01*
X46954Y15676D01*
X55262Y76232D02*
Y70234D01*
X52263D01*
X51263Y71234D01*
Y75233D01*
X52263Y76232D01*
X55262D01*
X49264Y70234D02*
X47265D01*
X48264D01*
Y76232D01*
X49264Y75233D01*
D19*
X48377Y54061D02*
X48540Y53077D01*
X48786Y52111D01*
X49112Y51170D01*
X49516Y50258D01*
X49995Y49385D01*
X50547Y48555D01*
X51166Y47774D01*
X51850Y47048D01*
X52592Y46383D01*
X53387Y45782D01*
X54230Y45251D01*
X55115Y44792D01*
X56036Y44410D01*
X56985Y44107D01*
X57957Y43885D01*
X58944Y43746D01*
X59939Y43690D01*
X60935Y43718D01*
X61926Y43831D01*
X62903Y44026D01*
X63860Y44304D01*
X64791Y44660D01*
X65688Y45094D01*
X66545Y45603D01*
X67357Y46181D01*
X68117Y46826D01*
X68819Y47533D01*
X69460Y48296D01*
X70034Y49111D01*
X70537Y49972D01*
X70966Y50871D01*
X71318Y51804D01*
X71589Y52763D01*
X71779Y53741D01*
X71886Y54732D01*
X71909Y55729D01*
X71847Y56723D01*
X71702Y57709D01*
X71475Y58680D01*
X71166Y59627D01*
X70779Y60546D01*
X70315Y61428D01*
X69779Y62268D01*
X69174Y63060D01*
X68505Y63798D01*
X67775Y64477D01*
X66991Y65093D01*
X66157Y65639D01*
X65281Y66114D01*
X64368Y66513D01*
X63424Y66834D01*
X62457Y67074D01*
X61472Y67231D01*
X60479Y67305D01*
X59482Y67295D01*
X57443Y18892D02*
X58423Y18709D01*
X59414Y18609D01*
X60411Y18593D01*
X61405Y18661D01*
X62391Y18813D01*
X63359Y19048D01*
X64305Y19363D01*
X65220Y19757D01*
X66099Y20226D01*
X66936Y20768D01*
X67724Y21379D01*
X68457Y22054D01*
X69131Y22788D01*
X69740Y23576D01*
X70281Y24414D01*
X70750Y25293D01*
X71143Y26209D01*
X71457Y27155D01*
X71690Y28124D01*
X71840Y29109D01*
X71907Y30104D01*
X71890Y31100D01*
X71789Y32092D01*
X71605Y33072D01*
X71339Y34032D01*
X70992Y34967D01*
X70569Y35869D01*
X70070Y36732D01*
X69501Y37550D01*
X68865Y38317D01*
X68166Y39028D01*
X67410Y39677D01*
X66602Y40260D01*
X65747Y40773D01*
X64853Y41213D01*
X63924Y41575D01*
X62968Y41857D01*
X61992Y42059D01*
X61002Y42176D01*
X60006Y42211D01*
X59011Y42161D01*
X58023Y42027D01*
X57050Y41811D01*
X56099Y41513D01*
X55177Y41136D01*
X54289Y40683D01*
X53443Y40156D01*
X52644Y39560D01*
X51898Y38899D01*
X51211Y38177D01*
X50587Y37400D01*
X50030Y36573D01*
X49546Y35702D01*
X49136Y34793D01*
X48805Y33853D01*
X61650Y59185D02*
X62915Y60693D01*
X64181Y62201D01*
X63158Y57919D02*
X64423Y59427D01*
X65689Y60935D01*
X62915Y60693D02*
X65689Y60935D01*
X62915Y60693D02*
X63158Y57919D01*
X61407Y61958D02*
X62915Y60693D01*
X64423Y59427D02*
X65931Y58162D01*
X57143Y64508D02*
X59482Y67295D01*
X48554Y54272D02*
X50716Y56848D01*
X55624Y22042D02*
X57305Y19131D01*
X48805Y33853D02*
X50624Y30703D01*
X57888Y35806D02*
X59593Y36790D01*
X54479Y33837D02*
X56183Y34822D01*
X58872Y34101D01*
X56183Y34822D02*
X56904Y37510D01*
X57888Y35806D01*
X58872Y34101D01*
X55199Y36526D02*
X56183Y34822D01*
X57168Y33117D01*
M02*
