G04*
G04 #@! TF.GenerationSoftware,Altium Limited,Altium Designer,19.0.9 (268)*
G04*
G04 Layer_Physical_Order=1*
G04 Layer_Color=255*
%FSLAX25Y25*%
%MOIN*%
G70*
G01*
G75*
%ADD13C,0.01000*%
%ADD25R,0.03937X0.05512*%
%ADD26R,0.11811X0.06299*%
%ADD27R,0.21654X0.03937*%
%ADD28R,0.06299X0.11811*%
%ADD29R,0.03937X0.21654*%
%ADD30R,0.02165X0.03543*%
%ADD31R,0.03543X0.02165*%
%ADD32C,0.02000*%
%ADD33C,0.03000*%
%ADD34C,0.05906*%
%ADD35R,0.05906X0.05906*%
%ADD36R,0.07874X0.07874*%
%ADD37C,0.05000*%
G36*
X247780Y230660D02*
Y230650D01*
X267450Y210980D01*
Y87694D01*
X266950Y87569D01*
X261906Y92613D01*
X261079Y93166D01*
X260103Y93360D01*
X259996D01*
Y93779D01*
X236343D01*
Y93360D01*
X232056D01*
X227549Y97867D01*
Y132000D01*
X227355Y132975D01*
X226802Y133802D01*
X216302Y144302D01*
X215476Y144855D01*
X214500Y145049D01*
X209026D01*
X208819Y145319D01*
X208622Y145471D01*
X208791Y145971D01*
X216500D01*
X217085Y146087D01*
X217581Y146419D01*
X224181Y153018D01*
X227728D01*
Y152465D01*
X233272D01*
Y156630D01*
X227728D01*
Y156077D01*
X223547D01*
X222962Y155960D01*
X222466Y155629D01*
X215866Y149029D01*
X208791D01*
X208622Y149529D01*
X208819Y149681D01*
X209453Y150507D01*
X209851Y151468D01*
X209987Y152500D01*
X209851Y153532D01*
X209453Y154493D01*
X208819Y155319D01*
X207993Y155953D01*
X207950Y155971D01*
X208050Y156471D01*
X214500D01*
X215085Y156587D01*
X215581Y156919D01*
X232956Y174293D01*
X233287Y174789D01*
X233403Y175374D01*
Y199343D01*
X234842D01*
Y222996D01*
X228906D01*
Y199343D01*
X230345D01*
Y176007D01*
X213866Y159529D01*
X209333D01*
X209087Y160029D01*
X209453Y160507D01*
X209851Y161468D01*
X209921Y162000D01*
X206000D01*
X202079D01*
X202149Y161468D01*
X202547Y160507D01*
X202913Y160029D01*
X202667Y159529D01*
X180374D01*
X179789Y159413D01*
X179293Y159081D01*
X156466Y136255D01*
X156134Y135758D01*
X156018Y135173D01*
Y85655D01*
X155782Y85557D01*
X155051Y84996D01*
X154529Y84316D01*
X154355Y84321D01*
X154029Y84458D01*
Y128500D01*
X153913Y129085D01*
X153581Y129581D01*
X149884Y133279D01*
X149851Y133532D01*
X149453Y134493D01*
X148819Y135319D01*
X147993Y135953D01*
X147032Y136351D01*
X146000Y136487D01*
X144968Y136351D01*
X144007Y135953D01*
X143181Y135319D01*
X142547Y134493D01*
X142149Y133532D01*
X142013Y132500D01*
X142149Y131468D01*
X142547Y130507D01*
X143181Y129681D01*
X144007Y129047D01*
X144968Y128649D01*
X146000Y128513D01*
X147032Y128649D01*
X147993Y129047D01*
X148819Y129681D01*
X149135Y129702D01*
X150971Y127866D01*
Y54133D01*
X143919Y47081D01*
X143587Y46585D01*
X143471Y46000D01*
Y33488D01*
X141874D01*
Y9835D01*
X147811D01*
Y33488D01*
X146529D01*
Y45366D01*
X153581Y52419D01*
X153913Y52915D01*
X154029Y53500D01*
Y80542D01*
X154355Y80678D01*
X154529Y80684D01*
X155051Y80004D01*
X155782Y79443D01*
X156634Y79090D01*
X157547Y78970D01*
X158461Y79090D01*
X159312Y79443D01*
X160044Y80004D01*
X160605Y80735D01*
X160957Y81586D01*
X161077Y82500D01*
X160957Y83414D01*
X160605Y84265D01*
X160044Y84996D01*
X159312Y85557D01*
X159077Y85655D01*
Y134540D01*
X181008Y156471D01*
X203950D01*
X204050Y155971D01*
X204007Y155953D01*
X203181Y155319D01*
X202547Y154493D01*
X202149Y153532D01*
X202013Y152500D01*
X202149Y151468D01*
X202547Y150507D01*
X203181Y149681D01*
X203378Y149529D01*
X203208Y149029D01*
X200500D01*
X199915Y148913D01*
X199419Y148581D01*
X196919Y146081D01*
X196587Y145585D01*
X196471Y145000D01*
Y136047D01*
X196587Y135462D01*
X196919Y134966D01*
X200466Y131419D01*
X200962Y131087D01*
X201547Y130971D01*
X202355D01*
X202547Y130507D01*
X203181Y129681D01*
X204007Y129047D01*
X204968Y128649D01*
X206000Y128513D01*
X207032Y128649D01*
X207993Y129047D01*
X208819Y129681D01*
X209453Y130507D01*
X209851Y131468D01*
X209987Y132500D01*
X209851Y133532D01*
X209453Y134493D01*
X208819Y135319D01*
X207993Y135953D01*
X207032Y136351D01*
X206000Y136487D01*
X204968Y136351D01*
X204007Y135953D01*
X203181Y135319D01*
X202547Y134493D01*
X202511Y134406D01*
X201921Y134289D01*
X199529Y136681D01*
Y144367D01*
X201133Y145971D01*
X203208D01*
X203378Y145471D01*
X203181Y145319D01*
X202547Y144493D01*
X202149Y143532D01*
X202013Y142500D01*
X202149Y141468D01*
X202547Y140507D01*
X203181Y139681D01*
X204007Y139047D01*
X204968Y138649D01*
X206000Y138513D01*
X207032Y138649D01*
X207993Y139047D01*
X208819Y139681D01*
X209026Y139951D01*
X213444D01*
X222451Y130944D01*
Y96811D01*
X222645Y95836D01*
X223198Y95009D01*
X229198Y89009D01*
X230025Y88456D01*
X231000Y88262D01*
X236343D01*
Y87843D01*
X259467D01*
X262687Y84622D01*
Y53622D01*
X257331D01*
Y49472D01*
Y45323D01*
X262687D01*
Y42292D01*
X256444Y36049D01*
X203056D01*
X188519Y50586D01*
X188410Y51414D01*
X188057Y52265D01*
X187496Y52996D01*
X186765Y53557D01*
X185914Y53910D01*
X185000Y54030D01*
X184086Y53910D01*
X183235Y53557D01*
X182504Y52996D01*
X181943Y52265D01*
X181590Y51414D01*
X181470Y50500D01*
X181590Y49586D01*
X181943Y48735D01*
X182504Y48004D01*
X183235Y47443D01*
X184086Y47090D01*
X184914Y46981D01*
X200198Y31698D01*
X201025Y31145D01*
X202000Y30951D01*
X257500D01*
X258475Y31145D01*
X259302Y31698D01*
X266950Y39345D01*
X267450Y39220D01*
Y22020D01*
X247770Y2340D01*
X100652D01*
X100445Y2840D01*
X104739Y7135D01*
X105292Y7962D01*
X105486Y8937D01*
Y9835D01*
X105905D01*
Y33488D01*
X99968D01*
Y9835D01*
X99968Y9835D01*
X99968D01*
X99795Y9399D01*
X97208Y6813D01*
X89370D01*
Y12500D01*
X85220D01*
X81071D01*
Y6813D01*
X80429D01*
Y12500D01*
X76279D01*
X72130D01*
Y8588D01*
X71668Y8397D01*
X69406Y10659D01*
Y33488D01*
X63468D01*
Y10659D01*
X59622Y6813D01*
X52870D01*
Y12500D01*
X48720D01*
X44571D01*
Y6813D01*
X41792D01*
X38049Y10556D01*
Y55944D01*
X43556Y61451D01*
X103500D01*
X104475Y61645D01*
X105302Y62198D01*
X123302Y80198D01*
X123855Y81024D01*
X124049Y82000D01*
Y102736D01*
X123855Y103712D01*
X123302Y104539D01*
X117539Y110302D01*
X116712Y110855D01*
X115736Y111049D01*
X98000D01*
X97025Y110855D01*
X96198Y110302D01*
X76444Y90549D01*
X37881D01*
X37645Y90990D01*
X37855Y91304D01*
X38049Y92279D01*
Y117728D01*
X49609Y129287D01*
X55878D01*
Y131675D01*
X57815D01*
Y129287D01*
X67689D01*
Y139161D01*
X57815D01*
Y136773D01*
X55878D01*
Y139161D01*
X46004D01*
Y132892D01*
X33698Y120586D01*
X33145Y119759D01*
X32951Y118783D01*
Y93335D01*
X30521Y90905D01*
X7004D01*
Y84969D01*
X30658D01*
Y85451D01*
X77500D01*
X78475Y85645D01*
X79302Y86198D01*
X99056Y105951D01*
X114680D01*
X118951Y101680D01*
Y83056D01*
X102444Y66549D01*
X42500D01*
X41524Y66355D01*
X40698Y65802D01*
X33698Y58802D01*
X33145Y57976D01*
X32951Y57000D01*
Y9500D01*
X33145Y8525D01*
X33698Y7698D01*
X38555Y2840D01*
X38348Y2340D01*
X19430D01*
Y2350D01*
X-240Y22020D01*
Y210990D01*
X19440Y230670D01*
X247780Y230660D01*
D02*
G37*
%LPC*%
G36*
X245866Y226736D02*
X242216D01*
Y220331D01*
X245866D01*
Y226736D01*
D02*
G37*
G36*
X241216D02*
X237567D01*
Y220331D01*
X241216D01*
Y226736D01*
D02*
G37*
G36*
X210433D02*
X206784D01*
Y220331D01*
X210433D01*
Y226736D01*
D02*
G37*
G36*
X205784D02*
X202134D01*
Y220331D01*
X205784D01*
Y226736D01*
D02*
G37*
G36*
X175492D02*
X171843D01*
Y220331D01*
X175492D01*
Y226736D01*
D02*
G37*
G36*
X170843D02*
X167193D01*
Y220331D01*
X170843D01*
Y226736D01*
D02*
G37*
G36*
X140059D02*
X136409D01*
Y220331D01*
X140059D01*
Y226736D01*
D02*
G37*
G36*
X135409D02*
X131760D01*
Y220331D01*
X135409D01*
Y226736D01*
D02*
G37*
G36*
X97429D02*
X93779D01*
Y220331D01*
X97429D01*
Y226736D01*
D02*
G37*
G36*
X92779D02*
X89130D01*
Y220331D01*
X92779D01*
Y226736D01*
D02*
G37*
G36*
X69870D02*
X66220D01*
Y220331D01*
X69870D01*
Y226736D01*
D02*
G37*
G36*
X65220D02*
X61571D01*
Y220331D01*
X65220D01*
Y226736D01*
D02*
G37*
G36*
X245866Y219331D02*
X242216D01*
Y212925D01*
X245866D01*
Y219331D01*
D02*
G37*
G36*
X241216D02*
X237567D01*
Y212925D01*
X241216D01*
Y219331D01*
D02*
G37*
G36*
X210433D02*
X206784D01*
Y212925D01*
X210433D01*
Y219331D01*
D02*
G37*
G36*
X205784D02*
X202134D01*
Y212925D01*
X205784D01*
Y219331D01*
D02*
G37*
G36*
X175492D02*
X171843D01*
Y212925D01*
X175492D01*
Y219331D01*
D02*
G37*
G36*
X170843D02*
X167193D01*
Y212925D01*
X170843D01*
Y219331D01*
D02*
G37*
G36*
X97429D02*
X93779D01*
Y212925D01*
X97429D01*
Y219331D01*
D02*
G37*
G36*
X92779D02*
X89130D01*
Y212925D01*
X92779D01*
Y219331D01*
D02*
G37*
G36*
X69870D02*
X66220D01*
Y212925D01*
X69870D01*
Y219331D01*
D02*
G37*
G36*
X65220D02*
X61571D01*
Y212925D01*
X65220D01*
Y219331D01*
D02*
G37*
G36*
X226969Y222996D02*
X224500D01*
Y211669D01*
X226969D01*
Y222996D01*
D02*
G37*
G36*
X223500D02*
X221031D01*
Y211669D01*
X223500D01*
Y222996D01*
D02*
G37*
G36*
X164469D02*
X162000D01*
Y211669D01*
X164469D01*
Y222996D01*
D02*
G37*
G36*
X161000D02*
X158531D01*
Y211669D01*
X161000D01*
Y222996D01*
D02*
G37*
G36*
X140059Y219331D02*
X131760D01*
Y212925D01*
X135079D01*
X135112Y212425D01*
X134996Y212410D01*
X134144Y212057D01*
X133413Y211496D01*
X132852Y210765D01*
X132500Y209914D01*
X132445Y209500D01*
X139374D01*
X139319Y209914D01*
X138967Y210765D01*
X138406Y211496D01*
X137674Y212057D01*
X136823Y212410D01*
X136707Y212425D01*
X136740Y212925D01*
X140059D01*
Y219331D01*
D02*
G37*
G36*
X219094Y222996D02*
X213158D01*
Y209482D01*
X197272D01*
Y210035D01*
X191728D01*
Y205870D01*
X197272D01*
Y206423D01*
X213158D01*
Y199343D01*
X219094D01*
Y222996D01*
D02*
G37*
G36*
X94000Y210464D02*
Y207500D01*
X96964D01*
X96910Y207914D01*
X96557Y208765D01*
X95996Y209496D01*
X95265Y210057D01*
X94414Y210410D01*
X94000Y210464D01*
D02*
G37*
G36*
X93000D02*
X92586Y210410D01*
X91735Y210057D01*
X91004Y209496D01*
X90443Y208765D01*
X90090Y207914D01*
X90036Y207500D01*
X93000D01*
Y210464D01*
D02*
G37*
G36*
X66220D02*
Y207500D01*
X69185D01*
X69130Y207914D01*
X68778Y208765D01*
X68217Y209496D01*
X67486Y210057D01*
X66634Y210410D01*
X66220Y210464D01*
D02*
G37*
G36*
X65220D02*
X64807Y210410D01*
X63955Y210057D01*
X63224Y209496D01*
X62663Y208765D01*
X62311Y207914D01*
X62256Y207500D01*
X65220D01*
Y210464D01*
D02*
G37*
G36*
X148721Y222996D02*
X142783D01*
Y205306D01*
X137445D01*
X137345Y205806D01*
X137674Y205943D01*
X138406Y206504D01*
X138967Y207235D01*
X139319Y208086D01*
X139374Y208500D01*
X132445D01*
X132500Y208086D01*
X132852Y207235D01*
X133413Y206504D01*
X134144Y205943D01*
X134474Y205806D01*
X134374Y205306D01*
X133757D01*
X132782Y205112D01*
X131955Y204560D01*
X130198Y202802D01*
X129645Y201975D01*
X129451Y201000D01*
Y196428D01*
X128943Y195765D01*
X128590Y194914D01*
X128470Y194000D01*
X128590Y193086D01*
X128943Y192235D01*
X129504Y191504D01*
X130235Y190943D01*
X131086Y190590D01*
X132000Y190470D01*
X132914Y190590D01*
X133765Y190943D01*
X134496Y191504D01*
X134847Y191961D01*
X144465D01*
Y191228D01*
X148630D01*
Y196772D01*
X144465D01*
Y196039D01*
X134847D01*
X134549Y196428D01*
Y199944D01*
X134813Y200208D01*
X142783D01*
Y199343D01*
X148721D01*
Y222996D01*
D02*
G37*
G36*
X96964Y206500D02*
X94000D01*
Y203536D01*
X94414Y203590D01*
X95265Y203943D01*
X95996Y204504D01*
X96557Y205235D01*
X96910Y206086D01*
X96964Y206500D01*
D02*
G37*
G36*
X93000D02*
X90036D01*
X90090Y206086D01*
X90443Y205235D01*
X91004Y204504D01*
X91735Y203943D01*
X92586Y203590D01*
X93000Y203536D01*
Y206500D01*
D02*
G37*
G36*
X69185D02*
X66220D01*
Y203536D01*
X66634Y203590D01*
X67486Y203943D01*
X68217Y204504D01*
X68778Y205235D01*
X69130Y206086D01*
X69185Y206500D01*
D02*
G37*
G36*
X65220D02*
X62256D01*
X62311Y206086D01*
X62663Y205235D01*
X63224Y204504D01*
X63955Y203943D01*
X64807Y203590D01*
X65220Y203536D01*
Y206500D01*
D02*
G37*
G36*
X226969Y210669D02*
X224500D01*
Y199343D01*
X226969D01*
Y210669D01*
D02*
G37*
G36*
X223500D02*
X221031D01*
Y199343D01*
X223500D01*
Y210669D01*
D02*
G37*
G36*
X164469D02*
X162000D01*
Y199343D01*
X164469D01*
Y210669D01*
D02*
G37*
G36*
X161000D02*
X158531D01*
Y199343D01*
X161000D01*
Y210669D01*
D02*
G37*
G36*
X110996Y229713D02*
X101122D01*
Y219839D01*
X103510D01*
Y202764D01*
X98295Y197549D01*
X89056D01*
X86405Y200199D01*
Y222996D01*
X80468D01*
Y199343D01*
X80932D01*
X81082Y198588D01*
X81635Y197761D01*
X86198Y193198D01*
X87024Y192645D01*
X88000Y192451D01*
X99351D01*
X100327Y192645D01*
X101154Y193198D01*
X107861Y199905D01*
X108414Y200732D01*
X108608Y201708D01*
Y219839D01*
X110996D01*
Y229713D01*
D02*
G37*
G36*
X197272Y204130D02*
X191728D01*
Y202127D01*
X184336Y194735D01*
X183914Y194910D01*
X183000Y195030D01*
X182086Y194910D01*
X181235Y194557D01*
X180504Y193996D01*
X179943Y193265D01*
X179590Y192414D01*
X179470Y191500D01*
X179590Y190586D01*
X179943Y189735D01*
X180504Y189004D01*
X181235Y188443D01*
X182086Y188090D01*
X183000Y187970D01*
X183914Y188090D01*
X184765Y188443D01*
X185496Y189004D01*
X186057Y189735D01*
X186410Y190586D01*
X186530Y191500D01*
X186410Y192414D01*
X186390Y192463D01*
X193891Y199965D01*
X197272D01*
Y204130D01*
D02*
G37*
G36*
X55878Y229713D02*
X46004D01*
Y219839D01*
X48392D01*
Y202106D01*
X48586Y201131D01*
X49139Y200304D01*
X56245Y193198D01*
X57072Y192645D01*
X58047Y192451D01*
X71720D01*
X72696Y192645D01*
X73523Y193198D01*
X77365Y197040D01*
X77918Y197867D01*
X78112Y198843D01*
Y199343D01*
X78531D01*
Y222996D01*
X72594D01*
Y199479D01*
X70665Y197549D01*
X59103D01*
X53490Y203162D01*
Y219839D01*
X55878D01*
Y229713D01*
D02*
G37*
G36*
X24500Y185181D02*
Y182217D01*
X27464D01*
X27410Y182630D01*
X27057Y183482D01*
X26496Y184213D01*
X25765Y184774D01*
X24914Y185126D01*
X24500Y185181D01*
D02*
G37*
G36*
X23500D02*
X23086Y185126D01*
X22235Y184774D01*
X21504Y184213D01*
X20943Y183482D01*
X20590Y182630D01*
X20536Y182217D01*
X23500D01*
Y185181D01*
D02*
G37*
G36*
X17194Y185866D02*
X10789D01*
Y182217D01*
X17194D01*
Y185866D01*
D02*
G37*
G36*
X9788D02*
X3383D01*
Y182217D01*
X9788D01*
Y185866D01*
D02*
G37*
G36*
X27464Y181217D02*
X24500D01*
Y178252D01*
X24914Y178307D01*
X25765Y178659D01*
X26496Y179220D01*
X27057Y179951D01*
X27410Y180803D01*
X27464Y181217D01*
D02*
G37*
G36*
X23500D02*
X20536D01*
X20590Y180803D01*
X20943Y179951D01*
X21504Y179220D01*
X22235Y178659D01*
X23086Y178307D01*
X23500Y178252D01*
Y181217D01*
D02*
G37*
G36*
X17194Y181217D02*
X10789D01*
Y177567D01*
X17194D01*
Y181217D01*
D02*
G37*
G36*
X9788D02*
X3383D01*
Y177567D01*
X9788D01*
Y181217D01*
D02*
G37*
G36*
X36500Y175030D02*
X35586Y174910D01*
X34735Y174557D01*
X34004Y173996D01*
X33443Y173265D01*
X33345Y173029D01*
X30777D01*
Y174843D01*
X7123D01*
Y168905D01*
X30777D01*
Y169971D01*
X33345D01*
X33443Y169735D01*
X34004Y169004D01*
X34735Y168443D01*
X35586Y168090D01*
X36500Y167970D01*
X37414Y168090D01*
X38265Y168443D01*
X38996Y169004D01*
X39557Y169735D01*
X39910Y170586D01*
X40030Y171500D01*
X39910Y172414D01*
X39557Y173265D01*
X38996Y173996D01*
X38265Y174557D01*
X37414Y174910D01*
X36500Y175030D01*
D02*
G37*
G36*
X263736Y174240D02*
X257331D01*
Y170591D01*
X263736D01*
Y174240D01*
D02*
G37*
G36*
X256331D02*
X249925D01*
Y170591D01*
X256331D01*
Y174240D01*
D02*
G37*
G36*
X156595Y222996D02*
X150657D01*
Y199343D01*
X150923D01*
Y196772D01*
X150370D01*
Y191228D01*
X150923D01*
Y188586D01*
X144867Y182529D01*
X132500D01*
X131915Y182413D01*
X131419Y182081D01*
X126419Y177081D01*
X126087Y176585D01*
X125971Y176000D01*
Y165587D01*
X124531D01*
Y158075D01*
X129711D01*
Y156925D01*
X128272D01*
Y149413D01*
X128923D01*
Y148272D01*
X128370D01*
Y142728D01*
X128923D01*
Y121547D01*
X129040Y120962D01*
X129371Y120466D01*
X138419Y111419D01*
X138915Y111087D01*
X139500Y110971D01*
X142355D01*
X142547Y110507D01*
X143181Y109681D01*
X144007Y109047D01*
X144968Y108649D01*
X146000Y108513D01*
X147032Y108649D01*
X147993Y109047D01*
X148819Y109681D01*
X149453Y110507D01*
X149851Y111468D01*
X149987Y112500D01*
X149851Y113532D01*
X149453Y114493D01*
X148819Y115319D01*
X147993Y115953D01*
X147032Y116351D01*
X146000Y116487D01*
X144968Y116351D01*
X144007Y115953D01*
X143181Y115319D01*
X142547Y114493D01*
X142355Y114029D01*
X140134D01*
X131982Y122181D01*
Y142728D01*
X132535D01*
Y148272D01*
X131982D01*
Y149413D01*
X134209D01*
Y156925D01*
X132770D01*
Y167554D01*
X133270Y167653D01*
X133443Y167235D01*
X134004Y166504D01*
X134461Y166153D01*
Y161594D01*
X134616Y160814D01*
X135058Y160153D01*
X139200Y156011D01*
X139861Y155569D01*
X140642Y155414D01*
X140642Y155414D01*
X142623D01*
X142870Y154914D01*
X142547Y154493D01*
X142149Y153532D01*
X142013Y152500D01*
X142149Y151468D01*
X142547Y150507D01*
X143181Y149681D01*
X144007Y149047D01*
X144968Y148649D01*
X146000Y148513D01*
X147032Y148649D01*
X147993Y149047D01*
X148819Y149681D01*
X149453Y150507D01*
X149851Y151468D01*
X149987Y152500D01*
X149851Y153532D01*
X149453Y154493D01*
X149130Y154914D01*
X149377Y155414D01*
X158453D01*
X159233Y155569D01*
X159895Y156011D01*
X174345Y170461D01*
X202582D01*
X203181Y169681D01*
X204007Y169047D01*
X204968Y168649D01*
X206000Y168513D01*
X207032Y168649D01*
X207993Y169047D01*
X208819Y169681D01*
X209453Y170507D01*
X209851Y171468D01*
X209987Y172500D01*
X209851Y173532D01*
X209453Y174493D01*
X208819Y175319D01*
X207993Y175953D01*
X207032Y176351D01*
X206000Y176487D01*
X204968Y176351D01*
X204007Y175953D01*
X203181Y175319D01*
X202582Y174539D01*
X173500D01*
X172720Y174384D01*
X172058Y173942D01*
X157608Y159492D01*
X149304D01*
X149058Y159992D01*
X149453Y160507D01*
X149851Y161468D01*
X149987Y162500D01*
X149851Y163532D01*
X149453Y164493D01*
X148819Y165319D01*
X147993Y165953D01*
X147032Y166351D01*
X146000Y166487D01*
X144968Y166351D01*
X144007Y165953D01*
X143181Y165319D01*
X142547Y164493D01*
X142149Y163532D01*
X142013Y162500D01*
X142149Y161468D01*
X142547Y160507D01*
X142942Y159992D01*
X142696Y159492D01*
X141486D01*
X138539Y162439D01*
Y166153D01*
X138996Y166504D01*
X139557Y167235D01*
X139910Y168086D01*
X140030Y169000D01*
X139910Y169914D01*
X139557Y170765D01*
X138996Y171496D01*
X138265Y172057D01*
X137414Y172410D01*
X136500Y172530D01*
X135586Y172410D01*
X134735Y172057D01*
X134004Y171496D01*
X133443Y170765D01*
X133270Y170347D01*
X132770Y170446D01*
Y173366D01*
X135874Y176471D01*
X141555D01*
X142047Y176453D01*
X142047Y175971D01*
Y168547D01*
X149953D01*
X149953Y176453D01*
X150445Y176471D01*
X157547D01*
X158133Y176587D01*
X158629Y176919D01*
X165534Y183824D01*
X165866Y184320D01*
X165982Y184906D01*
Y191228D01*
X166535D01*
Y196772D01*
X162370D01*
Y191228D01*
X162923D01*
Y185539D01*
X156914Y179529D01*
X146877D01*
X146829Y179592D01*
X146692Y180029D01*
X153534Y186871D01*
X153866Y187367D01*
X153982Y187953D01*
Y191228D01*
X154535D01*
Y192471D01*
X156465D01*
Y191228D01*
X160630D01*
Y196772D01*
X156465D01*
Y195529D01*
X154535D01*
Y196772D01*
X153982D01*
Y199343D01*
X156595D01*
Y222996D01*
D02*
G37*
G36*
X263736Y169591D02*
X257331D01*
Y165941D01*
X263736D01*
Y169591D01*
D02*
G37*
G36*
X256331D02*
X249925D01*
Y165941D01*
X256331D01*
Y169591D01*
D02*
G37*
G36*
X30777Y166969D02*
X19450D01*
Y164500D01*
X30777D01*
Y166969D01*
D02*
G37*
G36*
X18450D02*
X7123D01*
Y164500D01*
X18450D01*
Y166969D01*
D02*
G37*
G36*
X206500Y166421D02*
Y163000D01*
X209921D01*
X209851Y163532D01*
X209453Y164493D01*
X208819Y165319D01*
X207993Y165953D01*
X207032Y166351D01*
X206500Y166421D01*
D02*
G37*
G36*
X205500D02*
X204968Y166351D01*
X204007Y165953D01*
X203181Y165319D01*
X202547Y164493D01*
X202149Y163532D01*
X202079Y163000D01*
X205500D01*
Y166421D01*
D02*
G37*
G36*
X36500Y164964D02*
Y162000D01*
X39464D01*
X39410Y162414D01*
X39057Y163265D01*
X38496Y163996D01*
X37765Y164557D01*
X36914Y164910D01*
X36500Y164964D01*
D02*
G37*
G36*
X35500D02*
X35086Y164910D01*
X34235Y164557D01*
X33504Y163996D01*
X32943Y163265D01*
X32590Y162414D01*
X32536Y162000D01*
X35500D01*
Y164964D01*
D02*
G37*
G36*
X259996Y163216D02*
X236343D01*
Y161982D01*
X233272D01*
Y162535D01*
X227728D01*
Y158370D01*
X233272D01*
Y158923D01*
X236343D01*
Y157280D01*
X259996D01*
Y163216D01*
D02*
G37*
G36*
X30777Y163500D02*
X19450D01*
Y161031D01*
X30777D01*
Y163500D01*
D02*
G37*
G36*
X18450D02*
X7123D01*
Y161031D01*
X18450D01*
Y163500D01*
D02*
G37*
G36*
X39464Y161000D02*
X36500D01*
Y158036D01*
X36914Y158090D01*
X37765Y158443D01*
X38496Y159004D01*
X39057Y159735D01*
X39410Y160586D01*
X39464Y161000D01*
D02*
G37*
G36*
X35500D02*
X32536D01*
X32590Y160586D01*
X32943Y159735D01*
X33504Y159004D01*
X34235Y158443D01*
X35086Y158090D01*
X35500Y158036D01*
Y161000D01*
D02*
G37*
G36*
X262126Y155838D02*
X261712Y155784D01*
X260861Y155431D01*
X260496Y155151D01*
X259996Y155342D01*
Y155342D01*
X248669D01*
Y152374D01*
Y149406D01*
X259996D01*
Y149406D01*
X260496Y149597D01*
X260861Y149317D01*
X261712Y148964D01*
X262126Y148910D01*
Y152374D01*
Y155838D01*
D02*
G37*
G36*
X247669Y155342D02*
X236343D01*
Y152874D01*
X247669D01*
Y155342D01*
D02*
G37*
G36*
X263126Y155838D02*
Y152874D01*
X266090D01*
X266036Y153288D01*
X265683Y154139D01*
X265122Y154870D01*
X264391Y155431D01*
X263540Y155784D01*
X263126Y155838D01*
D02*
G37*
G36*
X247669Y151874D02*
X236343D01*
Y149406D01*
X247669D01*
Y151874D01*
D02*
G37*
G36*
X266090Y151874D02*
X263126D01*
Y148910D01*
X263540Y148964D01*
X264391Y149317D01*
X265122Y149878D01*
X265683Y150609D01*
X266036Y151460D01*
X266090Y151874D01*
D02*
G37*
G36*
X9789Y150433D02*
X3383D01*
Y146783D01*
X9789D01*
Y150433D01*
D02*
G37*
G36*
X146500Y146421D02*
Y143000D01*
X149921D01*
X149851Y143532D01*
X149453Y144493D01*
X148819Y145319D01*
X147993Y145953D01*
X147032Y146351D01*
X146500Y146421D01*
D02*
G37*
G36*
X145500D02*
X144968Y146351D01*
X144007Y145953D01*
X143181Y145319D01*
X142547Y144493D01*
X142149Y143532D01*
X142079Y143000D01*
X145500D01*
Y146421D01*
D02*
G37*
G36*
X117000Y162530D02*
X116086Y162410D01*
X115235Y162057D01*
X114504Y161496D01*
X113943Y160765D01*
X113590Y159914D01*
X113470Y159000D01*
X113590Y158086D01*
X113943Y157235D01*
X114504Y156504D01*
X115235Y155943D01*
X115461Y155849D01*
Y155000D01*
X115616Y154220D01*
X116058Y153558D01*
X117889Y151727D01*
X117889Y151727D01*
X118550Y151285D01*
X119331Y151130D01*
X120791D01*
Y149413D01*
X123018D01*
Y148272D01*
X122465D01*
Y142728D01*
X126630D01*
Y148272D01*
X126077D01*
Y149413D01*
X126728D01*
Y156925D01*
X120791D01*
Y155209D01*
X120175D01*
X119539Y155845D01*
Y156560D01*
X120057Y157235D01*
X120410Y158086D01*
X120530Y159000D01*
X120410Y159914D01*
X120057Y160765D01*
X119496Y161496D01*
X118765Y162057D01*
X117914Y162410D01*
X117000Y162530D01*
D02*
G37*
G36*
X9789Y145783D02*
X3383D01*
Y142134D01*
X9789D01*
Y145783D01*
D02*
G37*
G36*
X228000Y148030D02*
X227086Y147910D01*
X226235Y147557D01*
X225504Y146996D01*
X224943Y146265D01*
X224590Y145414D01*
X224470Y144500D01*
X224590Y143586D01*
X224943Y142735D01*
X225504Y142004D01*
X226235Y141443D01*
X227086Y141090D01*
X228000Y140970D01*
X228914Y141090D01*
X229765Y141443D01*
X230496Y142004D01*
X231057Y142735D01*
X231155Y142971D01*
X236343D01*
Y141532D01*
X259996D01*
Y147468D01*
X236343D01*
Y146029D01*
X231155D01*
X231057Y146265D01*
X230496Y146996D01*
X229765Y147557D01*
X228914Y147910D01*
X228000Y148030D01*
D02*
G37*
G36*
X149921Y142000D02*
X146500D01*
Y138579D01*
X147032Y138649D01*
X147993Y139047D01*
X148819Y139681D01*
X149453Y140507D01*
X149851Y141468D01*
X149921Y142000D01*
D02*
G37*
G36*
X145500D02*
X142079D01*
X142149Y141468D01*
X142547Y140507D01*
X143181Y139681D01*
X144007Y139047D01*
X144968Y138649D01*
X145500Y138579D01*
Y142000D01*
D02*
G37*
G36*
X10789Y139464D02*
Y136500D01*
X13753D01*
X13699Y136914D01*
X13346Y137765D01*
X12785Y138496D01*
X12054Y139057D01*
X11202Y139410D01*
X10789Y139464D01*
D02*
G37*
G36*
X9789D02*
X9375Y139410D01*
X8523Y139057D01*
X7792Y138496D01*
X7231Y137765D01*
X6879Y136914D01*
X6824Y136500D01*
X9789D01*
Y139464D01*
D02*
G37*
G36*
X263736Y138807D02*
X257331D01*
Y135157D01*
X263736D01*
Y138807D01*
D02*
G37*
G36*
X256331D02*
X249925D01*
Y135157D01*
X256331D01*
Y138807D01*
D02*
G37*
G36*
X13753Y135500D02*
X10789D01*
Y132536D01*
X11202Y132590D01*
X12054Y132943D01*
X12785Y133504D01*
X13346Y134235D01*
X13699Y135086D01*
X13753Y135500D01*
D02*
G37*
G36*
X9789D02*
X6824D01*
X6879Y135086D01*
X7231Y134235D01*
X7792Y133504D01*
X8523Y132943D01*
X9375Y132590D01*
X9789Y132536D01*
Y135500D01*
D02*
G37*
G36*
X263736Y134157D02*
X257331D01*
Y130508D01*
X263736D01*
Y134157D01*
D02*
G37*
G36*
X256331D02*
X249925D01*
Y130508D01*
X256331D01*
Y134157D01*
D02*
G37*
G36*
X99185Y139161D02*
X89311D01*
Y129287D01*
X99185D01*
Y139161D01*
D02*
G37*
G36*
X34500Y146030D02*
X33586Y145910D01*
X32735Y145557D01*
X32004Y144996D01*
X31443Y144265D01*
X31090Y143414D01*
X30970Y142500D01*
X31090Y141586D01*
X31443Y140735D01*
X32004Y140004D01*
X32735Y139443D01*
X32971Y139345D01*
Y137370D01*
X29873Y134272D01*
X27870D01*
Y128728D01*
X32035D01*
Y132109D01*
X35581Y135655D01*
X35913Y136151D01*
X36029Y136736D01*
Y139345D01*
X36265Y139443D01*
X36996Y140004D01*
X37557Y140735D01*
X37910Y141586D01*
X38030Y142500D01*
X37910Y143414D01*
X37557Y144265D01*
X36996Y144996D01*
X36265Y145557D01*
X35414Y145910D01*
X34500Y146030D01*
D02*
G37*
G36*
X30777Y159095D02*
X7123D01*
Y153157D01*
X17421D01*
Y150839D01*
X17194Y150433D01*
X16921Y150433D01*
X10789D01*
Y146283D01*
Y142134D01*
X16921D01*
X17194Y142134D01*
X17421Y141728D01*
Y137286D01*
X17537Y136701D01*
X17869Y136205D01*
X21965Y132109D01*
Y128728D01*
X26130D01*
Y134272D01*
X24127D01*
X20479Y137920D01*
Y153157D01*
X30777D01*
Y159095D01*
D02*
G37*
G36*
X206000Y126487D02*
X204968Y126351D01*
X204007Y125953D01*
X203181Y125319D01*
X202547Y124493D01*
X202149Y123532D01*
X202013Y122500D01*
X202149Y121468D01*
X202547Y120507D01*
X203181Y119681D01*
X204007Y119047D01*
X204968Y118649D01*
X206000Y118513D01*
X207032Y118649D01*
X207993Y119047D01*
X208819Y119681D01*
X209453Y120507D01*
X209851Y121468D01*
X209987Y122500D01*
X209851Y123532D01*
X209453Y124493D01*
X208819Y125319D01*
X207993Y125953D01*
X207032Y126351D01*
X206000Y126487D01*
D02*
G37*
G36*
X146000D02*
X144968Y126351D01*
X144007Y125953D01*
X143181Y125319D01*
X142547Y124493D01*
X142149Y123532D01*
X142013Y122500D01*
X142149Y121468D01*
X142547Y120507D01*
X143181Y119681D01*
X144007Y119047D01*
X144968Y118649D01*
X146000Y118513D01*
X147032Y118649D01*
X147993Y119047D01*
X148819Y119681D01*
X149453Y120507D01*
X149851Y121468D01*
X149987Y122500D01*
X149851Y123532D01*
X149453Y124493D01*
X148819Y125319D01*
X147993Y125953D01*
X147032Y126351D01*
X146000Y126487D01*
D02*
G37*
G36*
X241500Y116464D02*
Y113500D01*
X244464D01*
X244410Y113914D01*
X244057Y114765D01*
X243496Y115496D01*
X242765Y116057D01*
X241914Y116410D01*
X241500Y116464D01*
D02*
G37*
G36*
X240500D02*
X240086Y116410D01*
X239235Y116057D01*
X238504Y115496D01*
X237943Y114765D01*
X237590Y113914D01*
X237536Y113500D01*
X240500D01*
Y116464D01*
D02*
G37*
G36*
X244464Y112500D02*
X241500D01*
Y109536D01*
X241914Y109590D01*
X242765Y109943D01*
X243496Y110504D01*
X244057Y111235D01*
X244410Y112086D01*
X244464Y112500D01*
D02*
G37*
G36*
X240500D02*
X237536D01*
X237590Y112086D01*
X237943Y111235D01*
X238504Y110504D01*
X239235Y109943D01*
X240086Y109590D01*
X240500Y109536D01*
Y112500D01*
D02*
G37*
G36*
X263736Y112677D02*
X257331D01*
Y109028D01*
X263736D01*
Y112677D01*
D02*
G37*
G36*
X256331D02*
X249925D01*
Y109028D01*
X256331D01*
Y112677D01*
D02*
G37*
G36*
X206000Y116487D02*
X204968Y116351D01*
X204007Y115953D01*
X203181Y115319D01*
X202547Y114493D01*
X202149Y113532D01*
X202013Y112500D01*
X202149Y111468D01*
X202547Y110507D01*
X203181Y109681D01*
X204007Y109047D01*
X204968Y108649D01*
X206000Y108513D01*
X207032Y108649D01*
X207993Y109047D01*
X208819Y109681D01*
X209453Y110507D01*
X209851Y111468D01*
X209987Y112500D01*
X209851Y113532D01*
X209453Y114493D01*
X208819Y115319D01*
X207993Y115953D01*
X207032Y116351D01*
X206000Y116487D01*
D02*
G37*
G36*
X263736Y108028D02*
X257331D01*
Y104378D01*
X263736D01*
Y108028D01*
D02*
G37*
G36*
X256331D02*
X249925D01*
Y104378D01*
X256331D01*
Y108028D01*
D02*
G37*
G36*
X259996Y101654D02*
X248669D01*
Y99185D01*
X259996D01*
Y101654D01*
D02*
G37*
G36*
X247669D02*
X236343D01*
Y99185D01*
X247669D01*
Y101654D01*
D02*
G37*
G36*
X146000Y106487D02*
X144968Y106351D01*
X144007Y105953D01*
X143181Y105319D01*
X142547Y104493D01*
X142149Y103532D01*
X142013Y102500D01*
X142149Y101468D01*
X142547Y100507D01*
X143181Y99681D01*
X144007Y99047D01*
X144968Y98649D01*
X146000Y98513D01*
X147032Y98649D01*
X147993Y99047D01*
X148819Y99681D01*
X149453Y100507D01*
X149851Y101468D01*
X149987Y102500D01*
X149851Y103532D01*
X149453Y104493D01*
X148819Y105319D01*
X147993Y105953D01*
X147032Y106351D01*
X146000Y106487D01*
D02*
G37*
G36*
X9669Y101929D02*
X3264D01*
Y98280D01*
X9669D01*
Y101929D01*
D02*
G37*
G36*
X20500Y101208D02*
Y98244D01*
X23464D01*
X23410Y98658D01*
X23057Y99509D01*
X22496Y100240D01*
X21765Y100801D01*
X20914Y101154D01*
X20500Y101208D01*
D02*
G37*
G36*
X259996Y98185D02*
X248669D01*
Y95717D01*
X259996D01*
Y98185D01*
D02*
G37*
G36*
X247669D02*
X236343D01*
Y95717D01*
X247669D01*
Y98185D01*
D02*
G37*
G36*
X23464Y97244D02*
X20500D01*
Y94280D01*
X20914Y94334D01*
X21765Y94687D01*
X22496Y95248D01*
X23057Y95979D01*
X23410Y96830D01*
X23464Y97244D01*
D02*
G37*
G36*
X17075Y101929D02*
X10669D01*
Y97780D01*
Y93630D01*
X17075D01*
Y95067D01*
X17575Y95193D01*
X18235Y94687D01*
X19086Y94334D01*
X19500Y94280D01*
Y97744D01*
Y101208D01*
X19086Y101154D01*
X18235Y100801D01*
X17575Y100295D01*
X17075Y100421D01*
Y101929D01*
D02*
G37*
G36*
X9669Y97280D02*
X3264D01*
Y93630D01*
X9669D01*
Y97280D01*
D02*
G37*
G36*
X110996Y139161D02*
X101122D01*
Y129287D01*
X102975D01*
X103183Y128787D01*
X89944Y115549D01*
X54500D01*
X53525Y115355D01*
X52698Y114802D01*
X46143Y108247D01*
X45590Y107420D01*
X45396Y106445D01*
Y102681D01*
X43008D01*
Y92807D01*
X52882D01*
Y102681D01*
X50494D01*
Y105389D01*
X55556Y110451D01*
X91000D01*
X91975Y110645D01*
X92802Y111198D01*
X107861Y126257D01*
X108414Y127084D01*
X108608Y128059D01*
Y129287D01*
X110996D01*
Y139161D01*
D02*
G37*
G36*
X146000Y96487D02*
X144968Y96351D01*
X144007Y95953D01*
X143181Y95319D01*
X142547Y94493D01*
X142149Y93532D01*
X142013Y92500D01*
X142149Y91468D01*
X142547Y90507D01*
X143181Y89681D01*
X144007Y89047D01*
X144968Y88649D01*
X146000Y88513D01*
X147032Y88649D01*
X147993Y89047D01*
X148819Y89681D01*
X149453Y90507D01*
X149851Y91468D01*
X149987Y92500D01*
X149851Y93532D01*
X149453Y94493D01*
X148819Y95319D01*
X147993Y95953D01*
X147032Y96351D01*
X146000Y96487D01*
D02*
G37*
G36*
X111937Y102681D02*
X102063D01*
Y92807D01*
X104451D01*
Y89556D01*
X97507Y82612D01*
X30658D01*
Y83031D01*
X7004D01*
Y77095D01*
X30658D01*
Y77514D01*
X98563D01*
X99538Y77708D01*
X100365Y78261D01*
X108802Y86698D01*
X109355Y87524D01*
X109549Y88500D01*
Y92807D01*
X111937D01*
Y102681D01*
D02*
G37*
G36*
X206000Y106487D02*
X204968Y106351D01*
X204007Y105953D01*
X203181Y105319D01*
X202547Y104493D01*
X202355Y104029D01*
X192322D01*
X191737Y103913D01*
X191241Y103581D01*
X159919Y72259D01*
X159587Y71763D01*
X159471Y71178D01*
Y47035D01*
X158228D01*
Y42870D01*
X163772D01*
Y47035D01*
X162529D01*
Y70544D01*
X192956Y100971D01*
X202355D01*
X202547Y100507D01*
X203181Y99681D01*
X204007Y99047D01*
X204164Y98982D01*
X204064Y98482D01*
X202953D01*
X202367Y98366D01*
X201871Y98034D01*
X193419Y89581D01*
X193087Y89085D01*
X192971Y88500D01*
Y69453D01*
X193087Y68867D01*
X193419Y68371D01*
X200371Y61419D01*
X200868Y61087D01*
X201453Y60971D01*
X202355D01*
X202547Y60507D01*
X203181Y59681D01*
X204007Y59047D01*
X204968Y58649D01*
X206000Y58513D01*
X207032Y58649D01*
X207993Y59047D01*
X208819Y59681D01*
X209453Y60507D01*
X209851Y61468D01*
X209987Y62500D01*
X209851Y63532D01*
X209453Y64493D01*
X208819Y65319D01*
X208622Y65471D01*
X208791Y65971D01*
X211929D01*
X219667Y58233D01*
X220163Y57902D01*
X220748Y57786D01*
X236343D01*
Y56346D01*
X259996D01*
Y62283D01*
X236343D01*
Y60844D01*
X221381D01*
X213644Y68581D01*
X213148Y68913D01*
X212563Y69029D01*
X208791D01*
X208622Y69529D01*
X208819Y69681D01*
X209453Y70507D01*
X209645Y70971D01*
X215367D01*
X220230Y66107D01*
X220726Y65776D01*
X221311Y65660D01*
X236343D01*
Y64220D01*
X259996D01*
Y70157D01*
X236343D01*
Y68718D01*
X221944D01*
X217081Y73581D01*
X216585Y73913D01*
X216000Y74029D01*
X209645D01*
X209453Y74493D01*
X208819Y75319D01*
X207993Y75953D01*
X207032Y76351D01*
X206000Y76487D01*
X204968Y76351D01*
X204007Y75953D01*
X203181Y75319D01*
X202547Y74493D01*
X202149Y73532D01*
X202013Y72500D01*
X202149Y71468D01*
X202547Y70507D01*
X203154Y69716D01*
X202777Y69386D01*
X201029Y71134D01*
Y76429D01*
X203803Y79203D01*
X204007Y79047D01*
X204968Y78649D01*
X206000Y78513D01*
X207032Y78649D01*
X207993Y79047D01*
X208819Y79681D01*
X209453Y80507D01*
X209851Y81468D01*
X209987Y82500D01*
X209851Y83532D01*
X209453Y84493D01*
X208819Y85319D01*
X207993Y85953D01*
X207032Y86351D01*
X206000Y86487D01*
X204968Y86351D01*
X204007Y85953D01*
X203181Y85319D01*
X202547Y84493D01*
X202149Y83532D01*
X202013Y82500D01*
X202102Y81827D01*
X198419Y78144D01*
X198087Y77648D01*
X197971Y77063D01*
Y70500D01*
X198087Y69915D01*
X198419Y69419D01*
X201419Y66419D01*
X201915Y66087D01*
X202500Y65971D01*
X203208D01*
X203378Y65471D01*
X203181Y65319D01*
X202547Y64493D01*
X202471Y64309D01*
X201894Y64222D01*
X196029Y70086D01*
Y87866D01*
X201637Y93474D01*
X202111Y93241D01*
X202013Y92500D01*
X202149Y91468D01*
X202547Y90507D01*
X203181Y89681D01*
X204007Y89047D01*
X204968Y88649D01*
X206000Y88513D01*
X207032Y88649D01*
X207496Y88841D01*
X222356Y73982D01*
X222852Y73650D01*
X223437Y73534D01*
X236343D01*
Y72095D01*
X259996D01*
Y78031D01*
X236343D01*
Y76592D01*
X224071D01*
X209659Y91004D01*
X209851Y91468D01*
X209987Y92500D01*
X209851Y93532D01*
X209453Y94493D01*
X209123Y94923D01*
X209369Y95423D01*
X211414D01*
X224982Y81856D01*
X225478Y81524D01*
X226063Y81408D01*
X236343D01*
Y79969D01*
X259996D01*
Y85905D01*
X236343D01*
Y84466D01*
X226696D01*
X213129Y98034D01*
X212632Y98366D01*
X212047Y98482D01*
X207936D01*
X207836Y98982D01*
X207993Y99047D01*
X208819Y99681D01*
X209453Y100507D01*
X209851Y101468D01*
X209987Y102500D01*
X209851Y103532D01*
X209453Y104493D01*
X208819Y105319D01*
X207993Y105953D01*
X207032Y106351D01*
X206000Y106487D01*
D02*
G37*
G36*
X146000Y86487D02*
X144968Y86351D01*
X144007Y85953D01*
X143181Y85319D01*
X142547Y84493D01*
X142149Y83532D01*
X142013Y82500D01*
X142149Y81468D01*
X142547Y80507D01*
X143181Y79681D01*
X144007Y79047D01*
X144968Y78649D01*
X146000Y78513D01*
X147032Y78649D01*
X147993Y79047D01*
X148819Y79681D01*
X149453Y80507D01*
X149851Y81468D01*
X149987Y82500D01*
X149851Y83532D01*
X149453Y84493D01*
X148819Y85319D01*
X147993Y85953D01*
X147032Y86351D01*
X146000Y86487D01*
D02*
G37*
G36*
X9669Y74370D02*
X3264D01*
Y70720D01*
X9669D01*
Y74370D01*
D02*
G37*
G36*
X20500Y73685D02*
Y70720D01*
X23464D01*
X23410Y71134D01*
X23057Y71986D01*
X22496Y72717D01*
X21765Y73278D01*
X20914Y73630D01*
X20500Y73685D01*
D02*
G37*
G36*
X146000Y76487D02*
X144968Y76351D01*
X144007Y75953D01*
X143181Y75319D01*
X142547Y74493D01*
X142149Y73532D01*
X142013Y72500D01*
X142149Y71468D01*
X142547Y70507D01*
X143181Y69681D01*
X144007Y69047D01*
X144968Y68649D01*
X146000Y68513D01*
X147032Y68649D01*
X147993Y69047D01*
X148819Y69681D01*
X149453Y70507D01*
X149851Y71468D01*
X149987Y72500D01*
X149851Y73532D01*
X149453Y74493D01*
X148819Y75319D01*
X147993Y75953D01*
X147032Y76351D01*
X146000Y76487D01*
D02*
G37*
G36*
X23464Y69721D02*
X20500D01*
Y66756D01*
X20914Y66811D01*
X21765Y67163D01*
X22496Y67724D01*
X23057Y68455D01*
X23410Y69307D01*
X23464Y69721D01*
D02*
G37*
G36*
X17075Y74370D02*
X10669D01*
Y70221D01*
Y66071D01*
X17075D01*
Y67543D01*
X17575Y67670D01*
X18235Y67163D01*
X19086Y66811D01*
X19500Y66756D01*
Y70221D01*
Y73685D01*
X19086Y73630D01*
X18235Y73278D01*
X17575Y72771D01*
X17075Y72898D01*
Y74370D01*
D02*
G37*
G36*
X9669Y69721D02*
X3264D01*
Y66071D01*
X9669D01*
Y69721D01*
D02*
G37*
G36*
X146000Y66487D02*
X144968Y66351D01*
X144007Y65953D01*
X143181Y65319D01*
X142547Y64493D01*
X142149Y63532D01*
X142013Y62500D01*
X142149Y61468D01*
X142547Y60507D01*
X143181Y59681D01*
X144007Y59047D01*
X144968Y58649D01*
X146000Y58513D01*
X147032Y58649D01*
X147993Y59047D01*
X148819Y59681D01*
X149453Y60507D01*
X149851Y61468D01*
X149987Y62500D01*
X149851Y63532D01*
X149453Y64493D01*
X148819Y65319D01*
X147993Y65953D01*
X147032Y66351D01*
X146000Y66487D01*
D02*
G37*
G36*
X52882Y55437D02*
X48445D01*
Y51000D01*
X52882D01*
Y55437D01*
D02*
G37*
G36*
X47445D02*
X43008D01*
Y51000D01*
X47445D01*
Y55437D01*
D02*
G37*
G36*
X241500Y53464D02*
Y50500D01*
X244464D01*
X244410Y50914D01*
X244057Y51765D01*
X243496Y52496D01*
X242765Y53057D01*
X241914Y53410D01*
X241500Y53464D01*
D02*
G37*
G36*
X240500D02*
X240086Y53410D01*
X239235Y53057D01*
X238504Y52496D01*
X237943Y51765D01*
X237590Y50914D01*
X237536Y50500D01*
X240500D01*
Y53464D01*
D02*
G37*
G36*
X256331Y53622D02*
X249925D01*
Y49973D01*
X256331D01*
Y53622D01*
D02*
G37*
G36*
X244464Y49500D02*
X241500D01*
Y46536D01*
X241914Y46590D01*
X242765Y46943D01*
X243496Y47504D01*
X244057Y48235D01*
X244410Y49086D01*
X244464Y49500D01*
D02*
G37*
G36*
X240500D02*
X237536D01*
X237590Y49086D01*
X237943Y48235D01*
X238504Y47504D01*
X239235Y46943D01*
X240086Y46590D01*
X240500Y46536D01*
Y49500D01*
D02*
G37*
G36*
X111937Y55437D02*
X102063D01*
Y45563D01*
X111937D01*
Y55437D01*
D02*
G37*
G36*
X52882Y50000D02*
X48445D01*
Y45563D01*
X52882D01*
Y50000D01*
D02*
G37*
G36*
X47445D02*
X43008D01*
Y45563D01*
X47445D01*
Y50000D01*
D02*
G37*
G36*
X256331Y48972D02*
X249925D01*
Y45323D01*
X256331D01*
Y48972D01*
D02*
G37*
G36*
X49220Y31464D02*
Y28500D01*
X52185D01*
X52130Y28914D01*
X51778Y29765D01*
X51217Y30496D01*
X50486Y31057D01*
X49634Y31410D01*
X49220Y31464D01*
D02*
G37*
G36*
X48221D02*
X47807Y31410D01*
X46955Y31057D01*
X46224Y30496D01*
X45663Y29765D01*
X45311Y28914D01*
X45256Y28500D01*
X48221D01*
Y31464D01*
D02*
G37*
G36*
X114500Y29464D02*
Y26500D01*
X117464D01*
X117410Y26914D01*
X117057Y27765D01*
X116496Y28496D01*
X115765Y29057D01*
X114914Y29410D01*
X114500Y29464D01*
D02*
G37*
G36*
X113500D02*
X113086Y29410D01*
X112235Y29057D01*
X111504Y28496D01*
X110943Y27765D01*
X110590Y26914D01*
X110536Y26500D01*
X113500D01*
Y29464D01*
D02*
G37*
G36*
X81500D02*
Y26500D01*
X84464D01*
X84410Y26914D01*
X84057Y27765D01*
X83496Y28496D01*
X82765Y29057D01*
X81914Y29410D01*
X81500Y29464D01*
D02*
G37*
G36*
X80500D02*
X80086Y29410D01*
X79235Y29057D01*
X78504Y28496D01*
X77943Y27765D01*
X77590Y26914D01*
X77536Y26500D01*
X80500D01*
Y29464D01*
D02*
G37*
G36*
X52185Y27500D02*
X49220D01*
Y24536D01*
X49634Y24590D01*
X50486Y24943D01*
X51217Y25504D01*
X51778Y26235D01*
X52130Y27086D01*
X52185Y27500D01*
D02*
G37*
G36*
X48221D02*
X45256D01*
X45311Y27086D01*
X45663Y26235D01*
X46224Y25504D01*
X46955Y24943D01*
X47807Y24590D01*
X48221Y24536D01*
Y27500D01*
D02*
G37*
G36*
X117464Y25500D02*
X114500D01*
Y22536D01*
X114914Y22590D01*
X115765Y22943D01*
X116496Y23504D01*
X117057Y24235D01*
X117410Y25086D01*
X117464Y25500D01*
D02*
G37*
G36*
X113500D02*
X110536D01*
X110590Y25086D01*
X110943Y24235D01*
X111504Y23504D01*
X112235Y22943D01*
X113086Y22590D01*
X113500Y22536D01*
Y25500D01*
D02*
G37*
G36*
X84464D02*
X81500D01*
Y22536D01*
X81914Y22590D01*
X82765Y22943D01*
X83496Y23504D01*
X84057Y24235D01*
X84410Y25086D01*
X84464Y25500D01*
D02*
G37*
G36*
X80500D02*
X77536D01*
X77590Y25086D01*
X77943Y24235D01*
X78504Y23504D01*
X79235Y22943D01*
X80086Y22590D01*
X80500Y22536D01*
Y25500D01*
D02*
G37*
G36*
X155685Y33488D02*
X153217D01*
Y22162D01*
X155685D01*
Y33488D01*
D02*
G37*
G36*
X152216D02*
X149748D01*
Y22162D01*
X152216D01*
Y33488D01*
D02*
G37*
G36*
X89370Y19906D02*
X85720D01*
Y13500D01*
X89370D01*
Y19906D01*
D02*
G37*
G36*
X174583D02*
X170933D01*
Y13500D01*
X174583D01*
Y19906D01*
D02*
G37*
G36*
X139150D02*
X135500D01*
Y13500D01*
X139150D01*
Y19906D01*
D02*
G37*
G36*
X52870D02*
X49220D01*
Y13500D01*
X52870D01*
Y19906D01*
D02*
G37*
G36*
X116929D02*
X113279D01*
Y13500D01*
X116929D01*
Y19906D01*
D02*
G37*
G36*
X80429D02*
X76780D01*
Y13500D01*
X80429D01*
Y19906D01*
D02*
G37*
G36*
X112279D02*
X108630D01*
Y13500D01*
X112279D01*
Y19906D01*
D02*
G37*
G36*
X75779D02*
X72130D01*
Y13500D01*
X75779D01*
Y19906D01*
D02*
G37*
G36*
X169933D02*
X166284D01*
Y13500D01*
X169933D01*
Y19906D01*
D02*
G37*
G36*
X134500D02*
X130850D01*
Y13500D01*
X134500D01*
Y19906D01*
D02*
G37*
G36*
X48221D02*
X44571D01*
Y13500D01*
X48221D01*
Y19906D01*
D02*
G37*
G36*
X84720D02*
X81071D01*
Y13500D01*
X84720D01*
Y19906D01*
D02*
G37*
G36*
X163772Y41130D02*
X158228D01*
Y36965D01*
X159471D01*
Y33488D01*
X157622D01*
Y9835D01*
X163559D01*
Y33488D01*
X162529D01*
Y36965D01*
X163772D01*
Y41130D01*
D02*
G37*
G36*
X155685Y21161D02*
X153217D01*
Y9835D01*
X155685D01*
Y21161D01*
D02*
G37*
G36*
X152216D02*
X149748D01*
Y9835D01*
X152216D01*
Y21161D01*
D02*
G37*
G36*
X81500Y43030D02*
X80586Y42910D01*
X79735Y42557D01*
X79072Y42049D01*
X61500D01*
X60524Y41855D01*
X59698Y41302D01*
X56761Y38365D01*
X56208Y37538D01*
X56014Y36563D01*
Y33488D01*
X55594D01*
Y9835D01*
X61532D01*
Y33488D01*
X61112D01*
Y35507D01*
X62556Y36951D01*
X79072D01*
X79735Y36443D01*
X80586Y36090D01*
X81500Y35970D01*
X82414Y36090D01*
X83265Y36443D01*
X83928Y36951D01*
X89007D01*
X92204Y33754D01*
X92094Y33488D01*
X92094D01*
Y9835D01*
X98032D01*
Y33488D01*
X97612D01*
Y34500D01*
X97418Y35476D01*
X96865Y36302D01*
X91865Y41302D01*
X91038Y41855D01*
X90063Y42049D01*
X83928D01*
X83265Y42557D01*
X82414Y42910D01*
X81500Y43030D01*
D02*
G37*
G36*
X174583Y12500D02*
X170933D01*
Y6095D01*
X174583D01*
Y12500D01*
D02*
G37*
G36*
X169933D02*
X166284D01*
Y6095D01*
X169933D01*
Y12500D01*
D02*
G37*
G36*
X139150D02*
X135500D01*
Y6095D01*
X139150D01*
Y12500D01*
D02*
G37*
G36*
X134500D02*
X130850D01*
Y6095D01*
X134500D01*
Y12500D01*
D02*
G37*
G36*
X116929D02*
X113279D01*
Y6095D01*
X116929D01*
Y12500D01*
D02*
G37*
G36*
X112279D02*
X108630D01*
Y6095D01*
X112279D01*
Y12500D01*
D02*
G37*
%LPD*%
D13*
X135284Y9913D02*
Y12669D01*
X192322Y102500D02*
X206000D01*
X161000Y71178D02*
X192322Y102500D01*
X161000Y44953D02*
Y71178D01*
X198000Y145000D02*
X200500Y147500D01*
X201547Y132500D02*
X206000D01*
X198000Y136047D02*
X201547Y132500D01*
X200500Y147500D02*
X216500D01*
X198000Y136047D02*
Y145000D01*
X183264Y191500D02*
X193811Y202047D01*
X183000Y191500D02*
X183264D01*
X193811Y202047D02*
X194500D01*
X35343Y161500D02*
X36000D01*
X117000Y159000D02*
X117500Y158500D01*
X29953Y132189D02*
X34500Y136736D01*
X29953Y131500D02*
Y132189D01*
X34500Y136736D02*
Y142500D01*
X18950Y137286D02*
Y156126D01*
Y137286D02*
X24047Y132189D01*
Y131500D02*
Y132189D01*
X18950Y171874D02*
X19324Y171500D01*
X36500D01*
X228000Y144500D02*
X248169D01*
X157547Y82500D02*
Y135173D01*
X180374Y158000D01*
X214500D01*
X231874Y175374D01*
Y211169D01*
X194500Y207953D02*
X214657D01*
X216126Y209421D01*
Y211169D01*
X152500Y53500D02*
Y128500D01*
X148500Y132500D02*
X152500Y128500D01*
X146000Y132500D02*
X148500D01*
X145000Y21457D02*
Y46000D01*
Y21457D02*
X145126Y21331D01*
X145000Y46000D02*
X152500Y53500D01*
X223547Y154547D02*
X230500D01*
X216500Y147500D02*
X223547Y154547D01*
X230500Y160453D02*
X247965D01*
X248169Y160248D01*
X160874Y21331D02*
X161000Y21457D01*
Y39047D01*
X204937Y82500D02*
X206000D01*
X199500Y77063D02*
X204937Y82500D01*
X199500Y70500D02*
Y77063D01*
X221311Y67189D02*
X248169D01*
X216000Y72500D02*
X221311Y67189D01*
X206000Y72500D02*
X216000D01*
X226063Y82937D02*
X248169D01*
X212047Y96953D02*
X226063Y82937D01*
X202953Y96953D02*
X212047D01*
X194500Y88500D02*
X202953Y96953D01*
X194500Y69453D02*
Y88500D01*
X201453Y62500D02*
X206000D01*
X194500Y69453D02*
X201453Y62500D01*
X223437Y75063D02*
X248169D01*
X206000Y92500D02*
X223437Y75063D01*
X199500Y70500D02*
X202500Y67500D01*
X212563D01*
X220748Y59315D01*
X248169D01*
X130453Y121547D02*
X139500Y112500D01*
X146000D01*
X130453Y121547D02*
Y145500D01*
X123760Y153169D02*
X124547Y152382D01*
Y145500D02*
Y152382D01*
X130453Y152382D02*
X131240Y153169D01*
X130453Y145500D02*
Y152382D01*
X131240Y153169D02*
Y174000D01*
X135240Y178000D01*
X157547D01*
X164453Y184906D01*
Y194000D01*
X127500Y161831D02*
Y176000D01*
X132500Y181000D01*
X145500D01*
X152453Y187953D01*
Y194000D01*
X158547D01*
X152453D02*
Y209996D01*
X153626Y211169D01*
X145752D02*
X146547Y210374D01*
D25*
X123760Y153169D02*
D03*
X131240D02*
D03*
X127500Y161831D02*
D03*
D26*
X256831Y108528D02*
D03*
Y49472D02*
D03*
X10289Y181717D02*
D03*
Y146283D02*
D03*
X256831Y134658D02*
D03*
Y170091D02*
D03*
X10169Y97780D02*
D03*
Y70221D02*
D03*
D27*
X248169Y98685D02*
D03*
Y90811D02*
D03*
Y82937D02*
D03*
Y59315D02*
D03*
Y67189D02*
D03*
Y75063D02*
D03*
X18950Y171874D02*
D03*
Y164000D02*
D03*
Y156126D02*
D03*
X248169Y144500D02*
D03*
Y152374D02*
D03*
Y160248D02*
D03*
X18831Y80063D02*
D03*
Y87937D02*
D03*
D28*
X170433Y13000D02*
D03*
X135000D02*
D03*
X206283Y219831D02*
D03*
X241717D02*
D03*
X135909D02*
D03*
X171343D02*
D03*
X112779Y13000D02*
D03*
X85220D02*
D03*
X48720D02*
D03*
X76279D02*
D03*
X65720Y219831D02*
D03*
X93279D02*
D03*
D29*
X160591Y21661D02*
D03*
X152717D02*
D03*
X144843D02*
D03*
X216126Y211169D02*
D03*
X224000D02*
D03*
X231874D02*
D03*
X145752D02*
D03*
X153626D02*
D03*
X161500D02*
D03*
X95063Y21661D02*
D03*
X102937D02*
D03*
X66437D02*
D03*
X58563D02*
D03*
X83437Y211169D02*
D03*
X75563D02*
D03*
D30*
X29953Y131500D02*
D03*
X24047D02*
D03*
X146547Y194000D02*
D03*
X152453D02*
D03*
X164453D02*
D03*
X158547D02*
D03*
X124547Y145500D02*
D03*
X130453D02*
D03*
D31*
X230500Y154547D02*
D03*
Y160453D02*
D03*
X194500Y202047D02*
D03*
Y207953D02*
D03*
X161000Y44953D02*
D03*
Y39047D02*
D03*
D32*
X140642Y157453D02*
X158453D01*
X173500Y172500D01*
X136500Y161594D02*
X140642Y157453D01*
X132000Y194000D02*
X146547D01*
X119331Y153169D02*
X123760D01*
X117500Y155000D02*
X119331Y153169D01*
X117500Y155000D02*
Y158500D01*
X136500Y161594D02*
Y169000D01*
X173500Y172500D02*
X206000D01*
D33*
X170717Y5717D02*
Y12669D01*
X135284Y9913D02*
X141197Y4000D01*
X147996D01*
X153000Y9004D01*
Y21331D01*
Y9004D02*
X158004Y4000D01*
X169000D02*
X170717Y5717D01*
X158004Y4000D02*
X169000D01*
X224000Y224000D02*
X228000Y228000D01*
X236303D01*
X241717Y222587D01*
Y219831D02*
Y222587D01*
X169693Y216276D02*
Y219831D01*
X255894Y108528D02*
X256362Y108059D01*
X220000Y228000D02*
X224000Y224000D01*
X211697Y228000D02*
X220000D01*
X206283Y222587D02*
X211697Y228000D01*
X224000Y211169D02*
Y224000D01*
X241000Y50000D02*
X241264Y49736D01*
X256567D01*
X256831Y49472D01*
X241000Y113000D02*
X241541D01*
X246014Y108528D01*
X255894D01*
X135909Y209000D02*
Y219831D01*
X141323Y228000D02*
X165929D01*
X135909Y222587D02*
X141323Y228000D01*
X135909Y219831D02*
Y222587D01*
X165929Y228000D02*
X171343Y222587D01*
Y219831D02*
Y222587D01*
Y219831D02*
X206283D01*
Y222587D01*
X161500Y211169D02*
Y215807D01*
X161969Y216276D01*
X169693D01*
X132000Y201000D02*
X133757Y202757D01*
X145283D01*
X145752Y203226D01*
Y211169D01*
X132000Y194000D02*
Y201000D01*
X93390Y207110D02*
X93500Y207000D01*
X93390Y207110D02*
Y219721D01*
X93279Y219831D02*
X93390Y219721D01*
X65720Y207000D02*
Y219831D01*
X10289Y181717D02*
X24000D01*
X10289Y136000D02*
Y146283D01*
X19982Y97762D02*
X20000Y97744D01*
X10187Y97762D02*
X19982D01*
X10169Y97780D02*
X10187Y97762D01*
X10169Y70221D02*
X20000D01*
X113617Y25617D02*
X114000Y26000D01*
X113617Y14007D02*
Y25617D01*
X112779Y13169D02*
X113617Y14007D01*
X81000Y25459D02*
Y26000D01*
X77929Y22388D02*
X81000Y25459D01*
X77929Y14819D02*
Y22388D01*
X76279Y13169D02*
X77929Y14819D01*
X48720Y13169D02*
Y28000D01*
X260103Y90811D02*
X265236Y85678D01*
Y41236D02*
Y85678D01*
X257500Y33500D02*
X265236Y41236D01*
X259587Y134658D02*
X262626Y137697D01*
Y152374D01*
X259587Y170091D02*
X263009Y166668D01*
Y152757D02*
Y166668D01*
X262626Y152374D02*
X263009Y152757D01*
X256831Y170091D02*
X259587D01*
X256831Y134658D02*
X259587D01*
X256362Y99154D02*
Y108059D01*
X255894Y98685D02*
X256362Y99154D01*
X248169Y98685D02*
X255894D01*
X117414Y41000D02*
X123000Y35414D01*
X99500Y41000D02*
X117414D01*
X90000Y50500D02*
X99500Y41000D01*
X99351Y195000D02*
X106059Y201708D01*
X88000Y195000D02*
X99351D01*
X83437Y199563D02*
X88000Y195000D01*
X83437Y199563D02*
Y211169D01*
X106059Y201708D02*
Y224776D01*
Y128059D02*
Y134224D01*
X91000Y113000D02*
X106059Y128059D01*
X54500Y113000D02*
X91000D01*
X28095Y88000D02*
X31220D01*
X28095D02*
X28157Y87937D01*
X18831D02*
X28157D01*
X77500Y88000D02*
X98000Y108500D01*
X31220Y88000D02*
X77500D01*
X31220D02*
X35500Y92279D01*
X40736Y4264D02*
X60678D01*
X35500Y9500D02*
X40736Y4264D01*
X35500Y9500D02*
Y57000D01*
X102937Y8937D02*
Y21831D01*
X98264Y4264D02*
X102937Y8937D01*
X72196Y4264D02*
X98264D01*
X66437Y10023D02*
X72196Y4264D01*
X76279Y13169D02*
X85220D01*
X123000Y16000D02*
Y35414D01*
Y16000D02*
X126331Y12669D01*
X135284D01*
X35500Y57000D02*
X42500Y64000D01*
X103500D01*
X121500Y82000D01*
Y102736D01*
X115736Y108500D02*
X121500Y102736D01*
X98000Y108500D02*
X115736D01*
X66437Y10023D02*
Y21831D01*
X95063D02*
Y34500D01*
X61500Y39500D02*
X81500D01*
X90063D01*
X95063Y34500D01*
X47945Y50500D02*
X90000D01*
X18950Y164000D02*
X32843D01*
X35343Y161500D01*
X185000Y50500D02*
X202000Y33500D01*
X257500D01*
X248169Y90811D02*
X260103D01*
X60678Y4264D02*
X66437Y10023D01*
X50941Y202106D02*
X58047Y195000D01*
X50941Y202106D02*
Y224776D01*
X58047Y195000D02*
X71720D01*
X75563Y198843D01*
Y211169D01*
X206000Y162500D02*
X210500D01*
X224000Y176000D01*
Y211169D01*
X146000Y142500D02*
X155500D01*
X175500Y162500D01*
X206000D01*
X225000Y96811D02*
X231000Y90811D01*
X248169D01*
X225000Y96811D02*
Y132000D01*
X214500Y142500D02*
X225000Y132000D01*
X206000Y142500D02*
X214500D01*
X98563Y80063D02*
X107000Y88500D01*
Y97744D01*
X18831Y80063D02*
X98563D01*
X47945Y97744D02*
Y106445D01*
X54500Y113000D01*
X248169Y152374D02*
X262626D01*
X58563Y36563D02*
X61500Y39500D01*
X58563Y21831D02*
Y36563D01*
X35500Y92279D02*
Y118783D01*
X50941Y134224D01*
X62752D01*
D34*
X206000Y172500D02*
D03*
Y162500D02*
D03*
Y152500D02*
D03*
Y142500D02*
D03*
Y132500D02*
D03*
Y122500D02*
D03*
Y112500D02*
D03*
Y102500D02*
D03*
Y92500D02*
D03*
Y82500D02*
D03*
Y72500D02*
D03*
Y62500D02*
D03*
X146000D02*
D03*
Y72500D02*
D03*
Y82500D02*
D03*
Y92500D02*
D03*
Y102500D02*
D03*
Y112500D02*
D03*
Y122500D02*
D03*
Y132500D02*
D03*
Y142500D02*
D03*
Y152500D02*
D03*
Y162500D02*
D03*
D35*
Y172500D02*
D03*
D36*
X107000Y97744D02*
D03*
Y50500D02*
D03*
X47945Y97744D02*
D03*
Y50500D02*
D03*
X106059Y134224D02*
D03*
X50941D02*
D03*
X62752D02*
D03*
X94248D02*
D03*
X50941Y224776D02*
D03*
X106059D02*
D03*
D37*
X241000Y50000D02*
D03*
Y113000D02*
D03*
X135909Y209000D02*
D03*
X262626Y152374D02*
D03*
X20000Y70221D02*
D03*
Y97744D02*
D03*
X10289Y136000D02*
D03*
X24000Y181717D02*
D03*
X93500Y207000D02*
D03*
X65720D02*
D03*
X114000Y26000D02*
D03*
X81000D02*
D03*
X48720Y28000D02*
D03*
X81500Y39500D02*
D03*
X132000Y194000D02*
D03*
X183000Y191500D02*
D03*
X36000Y161500D02*
D03*
X117000Y159000D02*
D03*
X136500Y169000D02*
D03*
X185000Y50500D02*
D03*
X34500Y142500D02*
D03*
X36500Y171500D02*
D03*
X228000Y144500D02*
D03*
X157547Y82500D02*
D03*
M02*
