M48
;Layer_Color=9474304
;FILE_FORMAT=2:5
INCH,TZ
;TYPE=PLATED
T1F00S00C0.02800
T2F00S00C0.03937
%
T01
X48720Y28000
X81000Y26000
X81500Y39500
X114000Y26000
X185000Y50500
X241000Y50000
Y113000
X228000Y144500
X262626Y152374
X183000Y191500
X132000Y194000
X135909Y209000
X136500Y169000
X117000Y159000
X93500Y207000
X65720
X157547Y82500
X20000Y70221
Y97744
X10289Y136000
X34500Y142500
X36000Y161500
X36500Y171500
X24000Y181717
T02
X47945Y50500
X107000
X206000Y62500
Y72500
Y82500
Y92500
Y102500
Y112500
Y122500
Y132500
Y142500
Y152500
Y162500
Y172500
X146000
Y162500
Y152500
Y142500
Y132500
Y122500
Y112500
Y102500
Y92500
Y82500
Y72500
Y62500
X107000Y97744
X106059Y134224
X94248
X62752
X50941
X47945Y97744
X50941Y224776
X106059
M30
