G04*
G04 #@! TF.GenerationSoftware,Altium Limited,Altium Designer,19.0.9 (268)*
G04*
G04 Layer_Color=8388736*
%FSLAX25Y25*%
%MOIN*%
G70*
G01*
G75*
%ADD13C,0.01000*%
%ADD14C,0.00600*%
%ADD38C,0.00050*%
D13*
X-69000Y2329D02*
X246755D01*
X-69000Y230675D02*
X246755D01*
X-68000Y2329D02*
Y93808D01*
Y135996D02*
Y230675D01*
Y2329D02*
X-66000Y8329D01*
X-70000D02*
X-68000Y2329D01*
X-70000Y224675D02*
X-68000Y230675D01*
X-66000Y224675D01*
X267465Y212015D02*
Y316000D01*
X-252Y212015D02*
Y316000D01*
X152600Y315000D02*
X267465D01*
X-252D02*
X111413D01*
X261465Y317000D02*
X267465Y315000D01*
X261465Y313000D02*
X267465Y315000D01*
X-252D02*
X5748Y313000D01*
X-252Y315000D02*
X5748Y317000D01*
D14*
X-64401Y99407D02*
Y95408D01*
X-68400Y99407D01*
X-69399D01*
X-70399Y98408D01*
Y96408D01*
X-69399Y95408D01*
X-64401Y105405D02*
Y101407D01*
X-68400Y105405D01*
X-69399D01*
X-70399Y104405D01*
Y102406D01*
X-69399Y101407D01*
Y107404D02*
X-70399Y108404D01*
Y110404D01*
X-69399Y111403D01*
X-68400D01*
X-67400Y110404D01*
X-66400Y111403D01*
X-65401D01*
X-64401Y110404D01*
Y108404D01*
X-65401Y107404D01*
X-66400D01*
X-67400Y108404D01*
X-68400Y107404D01*
X-69399D01*
X-67400Y108404D02*
Y110404D01*
X-69399Y113403D02*
X-70399Y114402D01*
Y116402D01*
X-69399Y117401D01*
X-68400D01*
X-67400Y116402D01*
Y115402D01*
Y116402D01*
X-66400Y117401D01*
X-65401D01*
X-64401Y116402D01*
Y114402D01*
X-65401Y113403D01*
X-64401Y119401D02*
X-65401D01*
Y120400D01*
X-64401D01*
Y119401D01*
Y127398D02*
X-70399D01*
X-67400Y124399D01*
Y128398D01*
X-70399Y130397D02*
Y134396D01*
X-69399D01*
X-65401Y130397D01*
X-64401D01*
X117011Y311401D02*
X113013D01*
X117011Y315400D01*
Y316399D01*
X116012Y317399D01*
X114012D01*
X113013Y316399D01*
X123009Y317399D02*
X121010Y316399D01*
X119011Y314400D01*
Y312401D01*
X120010Y311401D01*
X122010D01*
X123009Y312401D01*
Y313400D01*
X122010Y314400D01*
X119011D01*
X125009Y317399D02*
X129007D01*
Y316399D01*
X125009Y312401D01*
Y311401D01*
X131007Y317399D02*
X135005D01*
Y316399D01*
X131007Y312401D01*
Y311401D01*
X137005D02*
Y312401D01*
X138004D01*
Y311401D01*
X137005D01*
X142003D02*
X144002D01*
X143003D01*
Y317399D01*
X142003Y316399D01*
X147002Y317399D02*
X151000D01*
Y316399D01*
X147002Y312401D01*
Y311401D01*
D38*
X-252Y22014D02*
X19433Y2329D01*
X247780D01*
X267465Y22014D01*
Y210990D01*
X247780Y230675D02*
X267465Y210990D01*
X19433Y230675D02*
X247780D01*
X-252Y210990D02*
X19433Y230675D01*
X-252Y22014D02*
Y210990D01*
M02*
