G04*
G04 #@! TF.GenerationSoftware,Altium Limited,Altium Designer,19.0.9 (268)*
G04*
G04 Layer_Physical_Order=2*
G04 Layer_Color=16711680*
%FSLAX25Y25*%
%MOIN*%
G70*
G01*
G75*
%ADD13C,0.01000*%
%ADD32C,0.02000*%
%ADD33C,0.03000*%
%ADD34C,0.05906*%
%ADD35R,0.05906X0.05906*%
%ADD36R,0.07874X0.07874*%
%ADD37C,0.05000*%
G36*
X247780Y230660D02*
Y230650D01*
X267450Y210980D01*
Y22020D01*
X247770Y2340D01*
X19430D01*
Y2350D01*
X-240Y22020D01*
Y210990D01*
X19440Y230670D01*
X247780Y230660D01*
D02*
G37*
%LPC*%
G36*
X110996Y229713D02*
X101122D01*
Y219839D01*
X110996D01*
Y229713D01*
D02*
G37*
G36*
X55878D02*
X46004D01*
Y219839D01*
X55878D01*
Y229713D01*
D02*
G37*
G36*
X136409Y212464D02*
Y209500D01*
X139374D01*
X139319Y209914D01*
X138967Y210765D01*
X138406Y211496D01*
X137674Y212057D01*
X136823Y212410D01*
X136409Y212464D01*
D02*
G37*
G36*
X135409D02*
X134996Y212410D01*
X134144Y212057D01*
X133413Y211496D01*
X132852Y210765D01*
X132500Y209914D01*
X132445Y209500D01*
X135409D01*
Y212464D01*
D02*
G37*
G36*
X94000Y210464D02*
Y207500D01*
X96964D01*
X96910Y207914D01*
X96557Y208765D01*
X95996Y209496D01*
X95265Y210057D01*
X94414Y210410D01*
X94000Y210464D01*
D02*
G37*
G36*
X93000D02*
X92586Y210410D01*
X91735Y210057D01*
X91004Y209496D01*
X90443Y208765D01*
X90090Y207914D01*
X90036Y207500D01*
X93000D01*
Y210464D01*
D02*
G37*
G36*
X66220D02*
Y207500D01*
X69185D01*
X69130Y207914D01*
X68778Y208765D01*
X68217Y209496D01*
X67486Y210057D01*
X66634Y210410D01*
X66220Y210464D01*
D02*
G37*
G36*
X65220D02*
X64807Y210410D01*
X63955Y210057D01*
X63224Y209496D01*
X62663Y208765D01*
X62311Y207914D01*
X62256Y207500D01*
X65220D01*
Y210464D01*
D02*
G37*
G36*
X139374Y208500D02*
X136409D01*
Y205536D01*
X136823Y205590D01*
X137674Y205943D01*
X138406Y206504D01*
X138967Y207235D01*
X139319Y208086D01*
X139374Y208500D01*
D02*
G37*
G36*
X135409D02*
X132445D01*
X132500Y208086D01*
X132852Y207235D01*
X133413Y206504D01*
X134144Y205943D01*
X134996Y205590D01*
X135409Y205536D01*
Y208500D01*
D02*
G37*
G36*
X96964Y206500D02*
X94000D01*
Y203536D01*
X94414Y203590D01*
X95265Y203943D01*
X95996Y204504D01*
X96557Y205235D01*
X96910Y206086D01*
X96964Y206500D01*
D02*
G37*
G36*
X93000D02*
X90036D01*
X90090Y206086D01*
X90443Y205235D01*
X91004Y204504D01*
X91735Y203943D01*
X92586Y203590D01*
X93000Y203536D01*
Y206500D01*
D02*
G37*
G36*
X69185D02*
X66220D01*
Y203536D01*
X66634Y203590D01*
X67486Y203943D01*
X68217Y204504D01*
X68778Y205235D01*
X69130Y206086D01*
X69185Y206500D01*
D02*
G37*
G36*
X65220D02*
X62256D01*
X62311Y206086D01*
X62663Y205235D01*
X63224Y204504D01*
X63955Y203943D01*
X64807Y203590D01*
X65220Y203536D01*
Y206500D01*
D02*
G37*
G36*
X24500Y185181D02*
Y182217D01*
X27464D01*
X27410Y182630D01*
X27057Y183482D01*
X26496Y184213D01*
X25765Y184774D01*
X24914Y185126D01*
X24500Y185181D01*
D02*
G37*
G36*
X23500D02*
X23086Y185126D01*
X22235Y184774D01*
X21504Y184213D01*
X20943Y183482D01*
X20590Y182630D01*
X20536Y182217D01*
X23500D01*
Y185181D01*
D02*
G37*
G36*
X27464Y181217D02*
X24500D01*
Y178252D01*
X24914Y178307D01*
X25765Y178659D01*
X26496Y179220D01*
X27057Y179951D01*
X27410Y180803D01*
X27464Y181217D01*
D02*
G37*
G36*
X23500D02*
X20536D01*
X20590Y180803D01*
X20943Y179951D01*
X21504Y179220D01*
X22235Y178659D01*
X23086Y178307D01*
X23500Y178252D01*
Y181217D01*
D02*
G37*
G36*
X136500Y172530D02*
X135586Y172410D01*
X134735Y172057D01*
X134004Y171496D01*
X133653Y171039D01*
X127000D01*
X127000Y171039D01*
X126220Y170884D01*
X125558Y170442D01*
X125558Y170442D01*
X117571Y162455D01*
X117000Y162530D01*
X116086Y162410D01*
X115235Y162057D01*
X114504Y161496D01*
X113943Y160765D01*
X113590Y159914D01*
X113470Y159000D01*
X113590Y158086D01*
X113943Y157235D01*
X114504Y156504D01*
X115235Y155943D01*
X116086Y155590D01*
X117000Y155470D01*
X117914Y155590D01*
X118765Y155943D01*
X119496Y156504D01*
X120057Y157235D01*
X120410Y158086D01*
X120530Y159000D01*
X120455Y159571D01*
X127845Y166961D01*
X133653D01*
X134004Y166504D01*
X134735Y165943D01*
X135586Y165590D01*
X136500Y165470D01*
X137414Y165590D01*
X138265Y165943D01*
X138996Y166504D01*
X139557Y167235D01*
X139910Y168086D01*
X140030Y169000D01*
X139910Y169914D01*
X139557Y170765D01*
X138996Y171496D01*
X138265Y172057D01*
X137414Y172410D01*
X136500Y172530D01*
D02*
G37*
G36*
X149953Y176453D02*
X142047D01*
Y168547D01*
X149953D01*
Y176453D01*
D02*
G37*
G36*
X206000Y176487D02*
X204968Y176351D01*
X204007Y175953D01*
X203181Y175319D01*
X202547Y174493D01*
X202149Y173532D01*
X202013Y172500D01*
X202149Y171468D01*
X202547Y170507D01*
X203181Y169681D01*
X204007Y169047D01*
X204968Y168649D01*
X206000Y168513D01*
X207032Y168649D01*
X207993Y169047D01*
X208819Y169681D01*
X209453Y170507D01*
X209851Y171468D01*
X209987Y172500D01*
X209851Y173532D01*
X209453Y174493D01*
X208819Y175319D01*
X207993Y175953D01*
X207032Y176351D01*
X206000Y176487D01*
D02*
G37*
G36*
X206500Y166421D02*
Y163000D01*
X209921D01*
X209851Y163532D01*
X209453Y164493D01*
X208819Y165319D01*
X207993Y165953D01*
X207032Y166351D01*
X206500Y166421D01*
D02*
G37*
G36*
X205500D02*
X204968Y166351D01*
X204007Y165953D01*
X203181Y165319D01*
X202547Y164493D01*
X202149Y163532D01*
X202079Y163000D01*
X205500D01*
Y166421D01*
D02*
G37*
G36*
X36500Y164964D02*
Y162000D01*
X39464D01*
X39410Y162414D01*
X39057Y163265D01*
X38496Y163996D01*
X37765Y164557D01*
X36914Y164910D01*
X36500Y164964D01*
D02*
G37*
G36*
X35500D02*
X35086Y164910D01*
X34235Y164557D01*
X33504Y163996D01*
X32943Y163265D01*
X32590Y162414D01*
X32536Y162000D01*
X35500D01*
Y164964D01*
D02*
G37*
G36*
X209921Y162000D02*
X206500D01*
Y158579D01*
X207032Y158649D01*
X207993Y159047D01*
X208819Y159681D01*
X209453Y160507D01*
X209851Y161468D01*
X209921Y162000D01*
D02*
G37*
G36*
X205500D02*
X202079D01*
X202149Y161468D01*
X202547Y160507D01*
X203181Y159681D01*
X204007Y159047D01*
X204968Y158649D01*
X205500Y158579D01*
Y162000D01*
D02*
G37*
G36*
X146000Y166487D02*
X144968Y166351D01*
X144007Y165953D01*
X143181Y165319D01*
X142547Y164493D01*
X142149Y163532D01*
X142013Y162500D01*
X142149Y161468D01*
X142547Y160507D01*
X143181Y159681D01*
X144007Y159047D01*
X144968Y158649D01*
X146000Y158513D01*
X147032Y158649D01*
X147993Y159047D01*
X148819Y159681D01*
X149453Y160507D01*
X149851Y161468D01*
X149987Y162500D01*
X149851Y163532D01*
X149453Y164493D01*
X148819Y165319D01*
X147993Y165953D01*
X147032Y166351D01*
X146000Y166487D01*
D02*
G37*
G36*
X39464Y161000D02*
X36500D01*
Y158036D01*
X36914Y158090D01*
X37765Y158443D01*
X38496Y159004D01*
X39057Y159735D01*
X39410Y160586D01*
X39464Y161000D01*
D02*
G37*
G36*
X35500D02*
X32536D01*
X32590Y160586D01*
X32943Y159735D01*
X33504Y159004D01*
X34235Y158443D01*
X35086Y158090D01*
X35500Y158036D01*
Y161000D01*
D02*
G37*
G36*
X263126Y155838D02*
Y152874D01*
X266090D01*
X266036Y153288D01*
X265683Y154139D01*
X265122Y154870D01*
X264391Y155431D01*
X263540Y155784D01*
X263126Y155838D01*
D02*
G37*
G36*
X262126D02*
X261712Y155784D01*
X260861Y155431D01*
X260130Y154870D01*
X259569Y154139D01*
X259216Y153288D01*
X259162Y152874D01*
X262126D01*
Y155838D01*
D02*
G37*
G36*
X266090Y151874D02*
X263126D01*
Y148910D01*
X263540Y148964D01*
X264391Y149317D01*
X265122Y149878D01*
X265683Y150609D01*
X266036Y151460D01*
X266090Y151874D01*
D02*
G37*
G36*
X262126D02*
X259162D01*
X259216Y151460D01*
X259569Y150609D01*
X260130Y149878D01*
X260861Y149317D01*
X261712Y148964D01*
X262126Y148910D01*
Y151874D01*
D02*
G37*
G36*
X206000Y156487D02*
X204968Y156351D01*
X204007Y155953D01*
X203181Y155319D01*
X202547Y154493D01*
X202149Y153532D01*
X202013Y152500D01*
X202149Y151468D01*
X202547Y150507D01*
X203181Y149681D01*
X204007Y149047D01*
X204968Y148649D01*
X206000Y148513D01*
X207032Y148649D01*
X207993Y149047D01*
X208819Y149681D01*
X209453Y150507D01*
X209851Y151468D01*
X209987Y152500D01*
X209851Y153532D01*
X209453Y154493D01*
X208819Y155319D01*
X207993Y155953D01*
X207032Y156351D01*
X206000Y156487D01*
D02*
G37*
G36*
X146000D02*
X144968Y156351D01*
X144007Y155953D01*
X143181Y155319D01*
X142547Y154493D01*
X142149Y153532D01*
X142013Y152500D01*
X142149Y151468D01*
X142547Y150507D01*
X143181Y149681D01*
X144007Y149047D01*
X144968Y148649D01*
X146000Y148513D01*
X147032Y148649D01*
X147993Y149047D01*
X148819Y149681D01*
X149453Y150507D01*
X149851Y151468D01*
X149987Y152500D01*
X149851Y153532D01*
X149453Y154493D01*
X148819Y155319D01*
X147993Y155953D01*
X147032Y156351D01*
X146000Y156487D01*
D02*
G37*
G36*
X146500Y146421D02*
Y143000D01*
X149921D01*
X149851Y143532D01*
X149453Y144493D01*
X148819Y145319D01*
X147993Y145953D01*
X147032Y146351D01*
X146500Y146421D01*
D02*
G37*
G36*
X145500D02*
X144968Y146351D01*
X144007Y145953D01*
X143181Y145319D01*
X142547Y144493D01*
X142149Y143532D01*
X142079Y143000D01*
X145500D01*
Y146421D01*
D02*
G37*
G36*
X228000Y148030D02*
X227086Y147910D01*
X226235Y147557D01*
X225504Y146996D01*
X224943Y146265D01*
X224590Y145414D01*
X224470Y144500D01*
X224590Y143586D01*
X224688Y143351D01*
X223419Y142081D01*
X223087Y141585D01*
X222971Y141000D01*
Y62134D01*
X212866Y52029D01*
X204134D01*
X192581Y63581D01*
X192085Y63913D01*
X191500Y64029D01*
X149645D01*
X149453Y64493D01*
X148819Y65319D01*
X147993Y65953D01*
X147032Y66351D01*
X146000Y66487D01*
X144968Y66351D01*
X144007Y65953D01*
X143181Y65319D01*
X142547Y64493D01*
X142149Y63532D01*
X142013Y62500D01*
X142149Y61468D01*
X142547Y60507D01*
X143181Y59681D01*
X144007Y59047D01*
X144968Y58649D01*
X146000Y58513D01*
X147032Y58649D01*
X147993Y59047D01*
X148819Y59681D01*
X149453Y60507D01*
X149645Y60971D01*
X190866D01*
X202419Y49419D01*
X202915Y49087D01*
X203500Y48971D01*
X213500D01*
X214085Y49087D01*
X214581Y49419D01*
X225581Y60419D01*
X225913Y60915D01*
X226029Y61500D01*
Y140366D01*
X226851Y141188D01*
X227086Y141090D01*
X228000Y140970D01*
X228914Y141090D01*
X229765Y141443D01*
X230496Y142004D01*
X231057Y142735D01*
X231410Y143586D01*
X231530Y144500D01*
X231410Y145414D01*
X231057Y146265D01*
X230496Y146996D01*
X229765Y147557D01*
X228914Y147910D01*
X228000Y148030D01*
D02*
G37*
G36*
X149921Y142000D02*
X146500D01*
Y138579D01*
X147032Y138649D01*
X147993Y139047D01*
X148819Y139681D01*
X149453Y140507D01*
X149851Y141468D01*
X149921Y142000D01*
D02*
G37*
G36*
X145500D02*
X142079D01*
X142149Y141468D01*
X142547Y140507D01*
X143181Y139681D01*
X144007Y139047D01*
X144968Y138649D01*
X145500Y138579D01*
Y142000D01*
D02*
G37*
G36*
X186000Y201549D02*
X137000D01*
X136024Y201355D01*
X135198Y200802D01*
X131914Y197519D01*
X131086Y197410D01*
X130235Y197057D01*
X129504Y196496D01*
X128943Y195765D01*
X128590Y194914D01*
X128470Y194000D01*
X128590Y193086D01*
X128943Y192235D01*
X129504Y191504D01*
X130235Y190943D01*
X131086Y190590D01*
X132000Y190470D01*
X132914Y190590D01*
X133765Y190943D01*
X134496Y191504D01*
X135057Y192235D01*
X135410Y193086D01*
X135519Y193914D01*
X138056Y196451D01*
X184944D01*
X188451Y192944D01*
Y149000D01*
X188645Y148024D01*
X189198Y147198D01*
X195698Y140698D01*
X196525Y140145D01*
X197500Y139951D01*
X202974D01*
X203181Y139681D01*
X204007Y139047D01*
X204968Y138649D01*
X206000Y138513D01*
X207032Y138649D01*
X207993Y139047D01*
X208819Y139681D01*
X209453Y140507D01*
X209851Y141468D01*
X209987Y142500D01*
X209851Y143532D01*
X209453Y144493D01*
X208819Y145319D01*
X207993Y145953D01*
X207032Y146351D01*
X206000Y146487D01*
X204968Y146351D01*
X204007Y145953D01*
X203181Y145319D01*
X202974Y145049D01*
X198556D01*
X193549Y150056D01*
Y194000D01*
X193355Y194975D01*
X192802Y195802D01*
X187802Y200802D01*
X186976Y201355D01*
X186000Y201549D01*
D02*
G37*
G36*
X10789Y139464D02*
Y136500D01*
X13753D01*
X13699Y136914D01*
X13346Y137765D01*
X12785Y138496D01*
X12054Y139057D01*
X11202Y139410D01*
X10789Y139464D01*
D02*
G37*
G36*
X9789D02*
X9375Y139410D01*
X8523Y139057D01*
X7792Y138496D01*
X7231Y137765D01*
X6879Y136914D01*
X6824Y136500D01*
X9789D01*
Y139464D01*
D02*
G37*
G36*
X13753Y135500D02*
X10789D01*
Y132536D01*
X11202Y132590D01*
X12054Y132943D01*
X12785Y133504D01*
X13346Y134235D01*
X13699Y135086D01*
X13753Y135500D01*
D02*
G37*
G36*
X9789D02*
X6824D01*
X6879Y135086D01*
X7231Y134235D01*
X7792Y133504D01*
X8523Y132943D01*
X9375Y132590D01*
X9789Y132536D01*
Y135500D01*
D02*
G37*
G36*
X110996Y139161D02*
X101122D01*
Y129287D01*
X110996D01*
Y139161D01*
D02*
G37*
G36*
X67689D02*
X57815D01*
Y129287D01*
X67689D01*
Y139161D01*
D02*
G37*
G36*
X55878D02*
X46004D01*
Y129287D01*
X55878D01*
Y139161D01*
D02*
G37*
G36*
X206000Y136487D02*
X204968Y136351D01*
X204007Y135953D01*
X203181Y135319D01*
X202547Y134493D01*
X202149Y133532D01*
X202013Y132500D01*
X202149Y131468D01*
X202547Y130507D01*
X203181Y129681D01*
X204007Y129047D01*
X204968Y128649D01*
X206000Y128513D01*
X207032Y128649D01*
X207993Y129047D01*
X208819Y129681D01*
X209453Y130507D01*
X209851Y131468D01*
X209987Y132500D01*
X209851Y133532D01*
X209453Y134493D01*
X208819Y135319D01*
X207993Y135953D01*
X207032Y136351D01*
X206000Y136487D01*
D02*
G37*
G36*
X146000D02*
X144968Y136351D01*
X144007Y135953D01*
X143181Y135319D01*
X142547Y134493D01*
X142149Y133532D01*
X142013Y132500D01*
X142149Y131468D01*
X142547Y130507D01*
X143181Y129681D01*
X144007Y129047D01*
X144968Y128649D01*
X146000Y128513D01*
X147032Y128649D01*
X147993Y129047D01*
X148819Y129681D01*
X149453Y130507D01*
X149851Y131468D01*
X149987Y132500D01*
X149851Y133532D01*
X149453Y134493D01*
X148819Y135319D01*
X147993Y135953D01*
X147032Y136351D01*
X146000Y136487D01*
D02*
G37*
G36*
X183000Y195030D02*
X182086Y194910D01*
X181235Y194557D01*
X180504Y193996D01*
X179943Y193265D01*
X179590Y192414D01*
X179470Y191500D01*
X179590Y190586D01*
X179943Y189735D01*
X180504Y189004D01*
X181235Y188443D01*
X181471Y188345D01*
Y137500D01*
X181587Y136915D01*
X181919Y136419D01*
X196919Y121419D01*
X197415Y121087D01*
X198000Y120971D01*
X202355D01*
X202547Y120507D01*
X203181Y119681D01*
X204007Y119047D01*
X204968Y118649D01*
X206000Y118513D01*
X207032Y118649D01*
X207993Y119047D01*
X208819Y119681D01*
X209453Y120507D01*
X209851Y121468D01*
X209987Y122500D01*
X209851Y123532D01*
X209453Y124493D01*
X208819Y125319D01*
X207993Y125953D01*
X207032Y126351D01*
X206000Y126487D01*
X204968Y126351D01*
X204007Y125953D01*
X203181Y125319D01*
X202547Y124493D01*
X202355Y124029D01*
X198634D01*
X184529Y138134D01*
Y188345D01*
X184765Y188443D01*
X185496Y189004D01*
X186057Y189735D01*
X186410Y190586D01*
X186530Y191500D01*
X186410Y192414D01*
X186057Y193265D01*
X185496Y193996D01*
X184765Y194557D01*
X183914Y194910D01*
X183000Y195030D01*
D02*
G37*
G36*
X36500Y175030D02*
X35586Y174910D01*
X34735Y174557D01*
X34004Y173996D01*
X33443Y173265D01*
X33090Y172414D01*
X32970Y171500D01*
X33090Y170586D01*
X33443Y169735D01*
X34004Y169004D01*
X34735Y168443D01*
X35586Y168090D01*
X36500Y167970D01*
X37414Y168090D01*
X38265Y168443D01*
X38996Y169004D01*
X39557Y169735D01*
X39655Y169971D01*
X86866D01*
X135419Y121419D01*
X135915Y121087D01*
X136500Y120971D01*
X142355D01*
X142547Y120507D01*
X143181Y119681D01*
X144007Y119047D01*
X144164Y118982D01*
X144064Y118482D01*
X137181D01*
X97581Y158081D01*
X97085Y158413D01*
X96500Y158529D01*
X49000D01*
X48415Y158413D01*
X47919Y158081D01*
X35649Y145812D01*
X35414Y145910D01*
X34500Y146030D01*
X33586Y145910D01*
X32735Y145557D01*
X32004Y144996D01*
X31443Y144265D01*
X31090Y143414D01*
X30970Y142500D01*
X31090Y141586D01*
X31443Y140735D01*
X32004Y140004D01*
X32735Y139443D01*
X33586Y139090D01*
X34500Y138970D01*
X35414Y139090D01*
X36265Y139443D01*
X36996Y140004D01*
X37557Y140735D01*
X37910Y141586D01*
X38030Y142500D01*
X37910Y143414D01*
X37812Y143649D01*
X49633Y155471D01*
X95867D01*
X135466Y115871D01*
X135962Y115540D01*
X136547Y115423D01*
X142631D01*
X142877Y114923D01*
X142547Y114493D01*
X142149Y113532D01*
X142013Y112500D01*
X142149Y111468D01*
X142547Y110507D01*
X143181Y109681D01*
X144007Y109047D01*
X144968Y108649D01*
X146000Y108513D01*
X147032Y108649D01*
X147993Y109047D01*
X148819Y109681D01*
X149453Y110507D01*
X149851Y111468D01*
X149987Y112500D01*
X149851Y113532D01*
X149453Y114493D01*
X149433Y114519D01*
X149647Y115061D01*
X149757Y115080D01*
X153419Y111419D01*
X153915Y111087D01*
X154500Y110971D01*
X202355D01*
X202547Y110507D01*
X203181Y109681D01*
X204007Y109047D01*
X204968Y108649D01*
X206000Y108513D01*
X207032Y108649D01*
X207993Y109047D01*
X208819Y109681D01*
X209453Y110507D01*
X209851Y111468D01*
X209987Y112500D01*
X209851Y113532D01*
X209453Y114493D01*
X208819Y115319D01*
X207993Y115953D01*
X207032Y116351D01*
X206000Y116487D01*
X204968Y116351D01*
X204007Y115953D01*
X203181Y115319D01*
X202547Y114493D01*
X202355Y114029D01*
X155133D01*
X151129Y118034D01*
X150633Y118366D01*
X150047Y118482D01*
X147936D01*
X147836Y118982D01*
X147993Y119047D01*
X148819Y119681D01*
X149453Y120507D01*
X149851Y121468D01*
X149987Y122500D01*
X149851Y123532D01*
X149453Y124493D01*
X148819Y125319D01*
X147993Y125953D01*
X147032Y126351D01*
X146000Y126487D01*
X144968Y126351D01*
X144007Y125953D01*
X143181Y125319D01*
X142547Y124493D01*
X142355Y124029D01*
X137134D01*
X88581Y172581D01*
X88085Y172913D01*
X87500Y173029D01*
X39655D01*
X39557Y173265D01*
X38996Y173996D01*
X38265Y174557D01*
X37414Y174910D01*
X36500Y175030D01*
D02*
G37*
G36*
X241500Y116464D02*
Y113500D01*
X244464D01*
X244410Y113914D01*
X244057Y114765D01*
X243496Y115496D01*
X242765Y116057D01*
X241914Y116410D01*
X241500Y116464D01*
D02*
G37*
G36*
X240500D02*
X240086Y116410D01*
X239235Y116057D01*
X238504Y115496D01*
X237943Y114765D01*
X237590Y113914D01*
X237536Y113500D01*
X240500D01*
Y116464D01*
D02*
G37*
G36*
X244464Y112500D02*
X241500D01*
Y109536D01*
X241914Y109590D01*
X242765Y109943D01*
X243496Y110504D01*
X244057Y111235D01*
X244410Y112086D01*
X244464Y112500D01*
D02*
G37*
G36*
X240500D02*
X237536D01*
X237590Y112086D01*
X237943Y111235D01*
X238504Y110504D01*
X239235Y109943D01*
X240086Y109590D01*
X240500Y109536D01*
Y112500D01*
D02*
G37*
G36*
X206000Y106487D02*
X204968Y106351D01*
X204007Y105953D01*
X203181Y105319D01*
X202547Y104493D01*
X202149Y103532D01*
X202013Y102500D01*
X202149Y101468D01*
X202547Y100507D01*
X203181Y99681D01*
X204007Y99047D01*
X204968Y98649D01*
X206000Y98513D01*
X207032Y98649D01*
X207993Y99047D01*
X208819Y99681D01*
X209453Y100507D01*
X209851Y101468D01*
X209987Y102500D01*
X209851Y103532D01*
X209453Y104493D01*
X208819Y105319D01*
X207993Y105953D01*
X207032Y106351D01*
X206000Y106487D01*
D02*
G37*
G36*
X146000D02*
X144968Y106351D01*
X144007Y105953D01*
X143181Y105319D01*
X142547Y104493D01*
X142149Y103532D01*
X142013Y102500D01*
X142149Y101468D01*
X142547Y100507D01*
X143181Y99681D01*
X144007Y99047D01*
X144968Y98649D01*
X146000Y98513D01*
X147032Y98649D01*
X147993Y99047D01*
X148819Y99681D01*
X149453Y100507D01*
X149851Y101468D01*
X149987Y102500D01*
X149851Y103532D01*
X149453Y104493D01*
X148819Y105319D01*
X147993Y105953D01*
X147032Y106351D01*
X146000Y106487D01*
D02*
G37*
G36*
X20500Y101208D02*
Y98244D01*
X23464D01*
X23410Y98658D01*
X23057Y99509D01*
X22496Y100240D01*
X21765Y100801D01*
X20914Y101154D01*
X20500Y101208D01*
D02*
G37*
G36*
X19500D02*
X19086Y101154D01*
X18235Y100801D01*
X17504Y100240D01*
X16943Y99509D01*
X16590Y98658D01*
X16536Y98244D01*
X19500D01*
Y101208D01*
D02*
G37*
G36*
X23464Y97244D02*
X20500D01*
Y94280D01*
X20914Y94334D01*
X21765Y94687D01*
X22496Y95248D01*
X23057Y95979D01*
X23410Y96830D01*
X23464Y97244D01*
D02*
G37*
G36*
X19500D02*
X16536D01*
X16590Y96830D01*
X16943Y95979D01*
X17504Y95248D01*
X18235Y94687D01*
X19086Y94334D01*
X19500Y94280D01*
Y97244D01*
D02*
G37*
G36*
X111937Y102681D02*
X102063D01*
Y92807D01*
X111937D01*
Y102681D01*
D02*
G37*
G36*
X52882D02*
X43008D01*
Y92807D01*
X52882D01*
Y102681D01*
D02*
G37*
G36*
X206000Y96487D02*
X204968Y96351D01*
X204007Y95953D01*
X203181Y95319D01*
X202547Y94493D01*
X202149Y93532D01*
X202013Y92500D01*
X202149Y91468D01*
X202547Y90507D01*
X203181Y89681D01*
X204007Y89047D01*
X204968Y88649D01*
X206000Y88513D01*
X207032Y88649D01*
X207993Y89047D01*
X208819Y89681D01*
X209453Y90507D01*
X209851Y91468D01*
X209987Y92500D01*
X209851Y93532D01*
X209453Y94493D01*
X208819Y95319D01*
X207993Y95953D01*
X207032Y96351D01*
X206000Y96487D01*
D02*
G37*
G36*
X146000D02*
X144968Y96351D01*
X144007Y95953D01*
X143181Y95319D01*
X142547Y94493D01*
X142149Y93532D01*
X142013Y92500D01*
X142149Y91468D01*
X142547Y90507D01*
X143181Y89681D01*
X144007Y89047D01*
X144968Y88649D01*
X146000Y88513D01*
X147032Y88649D01*
X147993Y89047D01*
X148819Y89681D01*
X149453Y90507D01*
X149851Y91468D01*
X149987Y92500D01*
X149851Y93532D01*
X149453Y94493D01*
X148819Y95319D01*
X147993Y95953D01*
X147032Y96351D01*
X146000Y96487D01*
D02*
G37*
G36*
X157547Y86030D02*
X156634Y85910D01*
X155782Y85557D01*
X155051Y84996D01*
X154490Y84265D01*
X154137Y83414D01*
X154017Y82500D01*
X154086Y81975D01*
X148033Y75922D01*
X147993Y75953D01*
X147032Y76351D01*
X146000Y76487D01*
X144968Y76351D01*
X144007Y75953D01*
X143181Y75319D01*
X142547Y74493D01*
X142149Y73532D01*
X142013Y72500D01*
X142149Y71468D01*
X142547Y70507D01*
X143181Y69681D01*
X144007Y69047D01*
X144968Y68649D01*
X146000Y68513D01*
X147032Y68649D01*
X147993Y69047D01*
X148819Y69681D01*
X149453Y70507D01*
X149851Y71468D01*
X149987Y72500D01*
X149865Y73428D01*
X155851Y79414D01*
X156634Y79090D01*
X157547Y78970D01*
X158461Y79090D01*
X159312Y79443D01*
X160044Y80004D01*
X160605Y80735D01*
X160957Y81586D01*
X161077Y82500D01*
X160957Y83414D01*
X160605Y84265D01*
X160044Y84996D01*
X159312Y85557D01*
X158461Y85910D01*
X157547Y86030D01*
D02*
G37*
G36*
X206000Y86487D02*
X204968Y86351D01*
X204007Y85953D01*
X203181Y85319D01*
X202547Y84493D01*
X202149Y83532D01*
X202013Y82500D01*
X202149Y81468D01*
X202547Y80507D01*
X203181Y79681D01*
X204007Y79047D01*
X204968Y78649D01*
X206000Y78513D01*
X207032Y78649D01*
X207993Y79047D01*
X208819Y79681D01*
X209453Y80507D01*
X209851Y81468D01*
X209987Y82500D01*
X209851Y83532D01*
X209453Y84493D01*
X208819Y85319D01*
X207993Y85953D01*
X207032Y86351D01*
X206000Y86487D01*
D02*
G37*
G36*
X146000D02*
X144968Y86351D01*
X144007Y85953D01*
X143181Y85319D01*
X142547Y84493D01*
X142149Y83532D01*
X142013Y82500D01*
X142149Y81468D01*
X142547Y80507D01*
X143181Y79681D01*
X144007Y79047D01*
X144968Y78649D01*
X146000Y78513D01*
X147032Y78649D01*
X147993Y79047D01*
X148819Y79681D01*
X149453Y80507D01*
X149851Y81468D01*
X149987Y82500D01*
X149851Y83532D01*
X149453Y84493D01*
X148819Y85319D01*
X147993Y85953D01*
X147032Y86351D01*
X146000Y86487D01*
D02*
G37*
G36*
X20500Y73685D02*
Y70720D01*
X23464D01*
X23410Y71134D01*
X23057Y71986D01*
X22496Y72717D01*
X21765Y73278D01*
X20914Y73630D01*
X20500Y73685D01*
D02*
G37*
G36*
X19500D02*
X19086Y73630D01*
X18235Y73278D01*
X17504Y72717D01*
X16943Y71986D01*
X16590Y71134D01*
X16536Y70720D01*
X19500D01*
Y73685D01*
D02*
G37*
G36*
X206000Y76487D02*
X204968Y76351D01*
X204007Y75953D01*
X203181Y75319D01*
X202547Y74493D01*
X202149Y73532D01*
X202013Y72500D01*
X202149Y71468D01*
X202547Y70507D01*
X203181Y69681D01*
X204007Y69047D01*
X204968Y68649D01*
X206000Y68513D01*
X207032Y68649D01*
X207993Y69047D01*
X208819Y69681D01*
X209453Y70507D01*
X209851Y71468D01*
X209987Y72500D01*
X209851Y73532D01*
X209453Y74493D01*
X208819Y75319D01*
X207993Y75953D01*
X207032Y76351D01*
X206000Y76487D01*
D02*
G37*
G36*
X23464Y69721D02*
X20500D01*
Y66756D01*
X20914Y66811D01*
X21765Y67163D01*
X22496Y67724D01*
X23057Y68455D01*
X23410Y69307D01*
X23464Y69721D01*
D02*
G37*
G36*
X19500D02*
X16536D01*
X16590Y69307D01*
X16943Y68455D01*
X17504Y67724D01*
X18235Y67163D01*
X19086Y66811D01*
X19500Y66756D01*
Y69721D01*
D02*
G37*
G36*
X206000Y66487D02*
X204968Y66351D01*
X204007Y65953D01*
X203181Y65319D01*
X202547Y64493D01*
X202149Y63532D01*
X202013Y62500D01*
X202149Y61468D01*
X202547Y60507D01*
X203181Y59681D01*
X204007Y59047D01*
X204968Y58649D01*
X206000Y58513D01*
X207032Y58649D01*
X207993Y59047D01*
X208819Y59681D01*
X209453Y60507D01*
X209851Y61468D01*
X209987Y62500D01*
X209851Y63532D01*
X209453Y64493D01*
X208819Y65319D01*
X207993Y65953D01*
X207032Y66351D01*
X206000Y66487D01*
D02*
G37*
G36*
X52882Y55437D02*
X48445D01*
Y51000D01*
X52882D01*
Y55437D01*
D02*
G37*
G36*
X47445D02*
X43008D01*
Y51000D01*
X47445D01*
Y55437D01*
D02*
G37*
G36*
X241500Y53464D02*
Y50500D01*
X244464D01*
X244410Y50914D01*
X244057Y51765D01*
X243496Y52496D01*
X242765Y53057D01*
X241914Y53410D01*
X241500Y53464D01*
D02*
G37*
G36*
X240500D02*
X240086Y53410D01*
X239235Y53057D01*
X238504Y52496D01*
X237943Y51765D01*
X237590Y50914D01*
X237536Y50500D01*
X240500D01*
Y53464D01*
D02*
G37*
G36*
X111937Y55437D02*
X102063D01*
Y45563D01*
X111937D01*
Y47951D01*
X182572D01*
X183235Y47443D01*
X184086Y47090D01*
X185000Y46970D01*
X185914Y47090D01*
X186765Y47443D01*
X187496Y48004D01*
X188057Y48735D01*
X188410Y49586D01*
X188530Y50500D01*
X188410Y51414D01*
X188057Y52265D01*
X187496Y52996D01*
X186765Y53557D01*
X185914Y53910D01*
X185000Y54030D01*
X184086Y53910D01*
X183235Y53557D01*
X182572Y53049D01*
X111937D01*
Y55437D01*
D02*
G37*
G36*
X244464Y49500D02*
X241500D01*
Y46536D01*
X241914Y46590D01*
X242765Y46943D01*
X243496Y47504D01*
X244057Y48235D01*
X244410Y49086D01*
X244464Y49500D01*
D02*
G37*
G36*
X240500D02*
X237536D01*
X237590Y49086D01*
X237943Y48235D01*
X238504Y47504D01*
X239235Y46943D01*
X240086Y46590D01*
X240500Y46536D01*
Y49500D01*
D02*
G37*
G36*
X52882Y50000D02*
X48445D01*
Y45563D01*
X52882D01*
Y50000D01*
D02*
G37*
G36*
X47445D02*
X43008D01*
Y45563D01*
X47445D01*
Y50000D01*
D02*
G37*
G36*
X99185Y139161D02*
X89311D01*
Y129287D01*
X91699D01*
Y66304D01*
X79698Y54302D01*
X79145Y53475D01*
X78951Y52500D01*
Y41927D01*
X78443Y41265D01*
X78090Y40414D01*
X77970Y39500D01*
X78090Y38586D01*
X78443Y37735D01*
X79004Y37004D01*
X79735Y36443D01*
X80586Y36090D01*
X81500Y35970D01*
X82414Y36090D01*
X83265Y36443D01*
X83996Y37004D01*
X84557Y37735D01*
X84910Y38586D01*
X85030Y39500D01*
X84910Y40414D01*
X84557Y41265D01*
X84049Y41927D01*
Y51444D01*
X96050Y63446D01*
X96603Y64273D01*
X96797Y65248D01*
Y129287D01*
X99185D01*
Y139161D01*
D02*
G37*
G36*
X49220Y31464D02*
Y28500D01*
X52185D01*
X52130Y28914D01*
X51778Y29765D01*
X51217Y30496D01*
X50486Y31057D01*
X49634Y31410D01*
X49220Y31464D01*
D02*
G37*
G36*
X48221D02*
X47807Y31410D01*
X46955Y31057D01*
X46224Y30496D01*
X45663Y29765D01*
X45311Y28914D01*
X45256Y28500D01*
X48221D01*
Y31464D01*
D02*
G37*
G36*
X114500Y29464D02*
Y26500D01*
X117464D01*
X117410Y26914D01*
X117057Y27765D01*
X116496Y28496D01*
X115765Y29057D01*
X114914Y29410D01*
X114500Y29464D01*
D02*
G37*
G36*
X113500D02*
X113086Y29410D01*
X112235Y29057D01*
X111504Y28496D01*
X110943Y27765D01*
X110590Y26914D01*
X110536Y26500D01*
X113500D01*
Y29464D01*
D02*
G37*
G36*
X81500D02*
Y26500D01*
X84464D01*
X84410Y26914D01*
X84057Y27765D01*
X83496Y28496D01*
X82765Y29057D01*
X81914Y29410D01*
X81500Y29464D01*
D02*
G37*
G36*
X80500D02*
X80086Y29410D01*
X79235Y29057D01*
X78504Y28496D01*
X77943Y27765D01*
X77590Y26914D01*
X77536Y26500D01*
X80500D01*
Y29464D01*
D02*
G37*
G36*
X52185Y27500D02*
X49220D01*
Y24536D01*
X49634Y24590D01*
X50486Y24943D01*
X51217Y25504D01*
X51778Y26235D01*
X52130Y27086D01*
X52185Y27500D01*
D02*
G37*
G36*
X48221D02*
X45256D01*
X45311Y27086D01*
X45663Y26235D01*
X46224Y25504D01*
X46955Y24943D01*
X47807Y24590D01*
X48221Y24536D01*
Y27500D01*
D02*
G37*
G36*
X117464Y25500D02*
X114500D01*
Y22536D01*
X114914Y22590D01*
X115765Y22943D01*
X116496Y23504D01*
X117057Y24235D01*
X117410Y25086D01*
X117464Y25500D01*
D02*
G37*
G36*
X113500D02*
X110536D01*
X110590Y25086D01*
X110943Y24235D01*
X111504Y23504D01*
X112235Y22943D01*
X113086Y22590D01*
X113500Y22536D01*
Y25500D01*
D02*
G37*
G36*
X84464D02*
X81500D01*
Y22536D01*
X81914Y22590D01*
X82765Y22943D01*
X83496Y23504D01*
X84057Y24235D01*
X84410Y25086D01*
X84464Y25500D01*
D02*
G37*
G36*
X80500D02*
X77536D01*
X77590Y25086D01*
X77943Y24235D01*
X78504Y23504D01*
X79235Y22943D01*
X80086Y22590D01*
X80500Y22536D01*
Y25500D01*
D02*
G37*
%LPD*%
D13*
X136500Y122500D02*
X146000D01*
X87500Y171500D02*
X136500Y122500D01*
X36500Y171500D02*
X87500D01*
X136547Y116953D02*
X150047D01*
X96500Y157000D02*
X136547Y116953D01*
X183000Y137500D02*
X198000Y122500D01*
X183000Y137500D02*
Y191500D01*
X198000Y122500D02*
X206000D01*
X34500Y142500D02*
X49000Y157000D01*
X96500D01*
X150047Y116953D02*
X154500Y112500D01*
X206000D01*
X224500Y141000D02*
X228000Y144500D01*
X224500Y61500D02*
Y141000D01*
X213500Y50500D02*
X224500Y61500D01*
X203500Y50500D02*
X213500D01*
X191500Y62500D02*
X203500Y50500D01*
X146000Y62500D02*
X191500D01*
X156774Y82500D02*
X157547D01*
X146774Y72500D02*
X156774Y82500D01*
X146000Y72500D02*
X146774D01*
D32*
X117000Y159000D02*
X127000Y169000D01*
X136500D01*
D33*
X218236Y49472D02*
X241000D01*
Y50000D02*
Y113000D01*
Y49472D02*
Y50000D01*
Y113000D02*
Y130748D01*
X262626Y152374D01*
X114000Y26000D02*
X194764D01*
X218236Y49472D01*
X81000Y26000D02*
X114000D01*
X48338Y28383D02*
X48720Y28000D01*
X48338Y28383D02*
Y50107D01*
X47945Y50500D02*
X48338Y50107D01*
X55721Y28000D02*
X57721Y26000D01*
X81000D01*
X48720Y28000D02*
X55721D01*
X27500Y92000D02*
Y157000D01*
Y62721D02*
Y92000D01*
X25744D02*
X27500D01*
X20000Y97744D02*
X25744Y92000D01*
X27500Y58500D02*
Y62721D01*
X20000Y70221D02*
X27500Y62721D01*
X20000Y97744D02*
Y126289D01*
X10289Y136000D02*
X20000Y126289D01*
X32283Y181717D02*
X33500Y180500D01*
X24000Y181717D02*
X32283D01*
X24000Y190000D02*
X41000Y207000D01*
X24000Y181717D02*
Y190000D01*
X41000Y207000D02*
X65720D01*
X93500D01*
X96041Y209000D02*
X135909D01*
X35500Y50500D02*
X47945D01*
X27500Y58500D02*
X35500Y50500D01*
X27500Y157000D02*
X32000Y161500D01*
X132000Y194000D02*
X137000Y199000D01*
X186000D01*
X32000Y161500D02*
X36000D01*
X27500Y174500D02*
X33500Y180500D01*
X27500Y166000D02*
Y174500D01*
X81500Y52500D02*
X94248Y65248D01*
X81500Y39500D02*
Y52500D01*
X94248Y65248D02*
Y134224D01*
X186000Y199000D02*
X191000Y194000D01*
Y149000D02*
Y194000D01*
Y149000D02*
X197500Y142500D01*
X206000D01*
X27500Y166000D02*
X32000Y161500D01*
X107000Y50500D02*
X185000D01*
D34*
X206000Y172500D02*
D03*
Y162500D02*
D03*
Y152500D02*
D03*
Y142500D02*
D03*
Y132500D02*
D03*
Y122500D02*
D03*
Y112500D02*
D03*
Y102500D02*
D03*
Y92500D02*
D03*
Y82500D02*
D03*
Y72500D02*
D03*
Y62500D02*
D03*
X146000D02*
D03*
Y72500D02*
D03*
Y82500D02*
D03*
Y92500D02*
D03*
Y102500D02*
D03*
Y112500D02*
D03*
Y122500D02*
D03*
Y132500D02*
D03*
Y142500D02*
D03*
Y152500D02*
D03*
Y162500D02*
D03*
D35*
Y172500D02*
D03*
D36*
X107000Y97744D02*
D03*
Y50500D02*
D03*
X47945Y97744D02*
D03*
Y50500D02*
D03*
X106059Y134224D02*
D03*
X50941D02*
D03*
X62752D02*
D03*
X94248D02*
D03*
X50941Y224776D02*
D03*
X106059D02*
D03*
D37*
X241000Y50000D02*
D03*
Y113000D02*
D03*
X135909Y209000D02*
D03*
X262626Y152374D02*
D03*
X20000Y70221D02*
D03*
Y97744D02*
D03*
X10289Y136000D02*
D03*
X24000Y181717D02*
D03*
X93500Y207000D02*
D03*
X65720D02*
D03*
X114000Y26000D02*
D03*
X81000D02*
D03*
X48720Y28000D02*
D03*
X81500Y39500D02*
D03*
X132000Y194000D02*
D03*
X183000Y191500D02*
D03*
X36000Y161500D02*
D03*
X117000Y159000D02*
D03*
X136500Y169000D02*
D03*
X185000Y50500D02*
D03*
X34500Y142500D02*
D03*
X36500Y171500D02*
D03*
X228000Y144500D02*
D03*
X157547Y82500D02*
D03*
M02*
