G04*
G04 #@! TF.GenerationSoftware,Altium Limited,Altium Designer,19.0.9 (268)*
G04*
G04 Layer_Color=8388736*
%FSLAX25Y25*%
%MOIN*%
G70*
G01*
G75*
%ADD15R,0.04737X0.06312*%
%ADD16R,0.12611X0.07099*%
%ADD17R,0.22453X0.04737*%
%ADD18R,0.07099X0.12611*%
%ADD19R,0.04737X0.22453*%
%ADD20R,0.02965X0.04343*%
%ADD21R,0.04343X0.02965*%
%ADD22C,0.06706*%
%ADD23R,0.06706X0.06706*%
%ADD24R,0.08674X0.08674*%
D15*
X123760Y153169D02*
D03*
X131240D02*
D03*
X127500Y161831D02*
D03*
D16*
X256831Y108528D02*
D03*
Y49472D02*
D03*
X10289Y181717D02*
D03*
Y146283D02*
D03*
X256831Y134658D02*
D03*
Y170091D02*
D03*
X10169Y97780D02*
D03*
Y70221D02*
D03*
D17*
X248169Y98685D02*
D03*
Y90811D02*
D03*
Y82937D02*
D03*
Y59315D02*
D03*
Y67189D02*
D03*
Y75063D02*
D03*
X18950Y171874D02*
D03*
Y164000D02*
D03*
Y156126D02*
D03*
X248169Y144500D02*
D03*
Y152374D02*
D03*
Y160248D02*
D03*
X18831Y80063D02*
D03*
Y87937D02*
D03*
D18*
X170433Y13000D02*
D03*
X135000D02*
D03*
X206283Y219831D02*
D03*
X241717D02*
D03*
X135909D02*
D03*
X171343D02*
D03*
X112779Y13000D02*
D03*
X85220D02*
D03*
X48720D02*
D03*
X76279D02*
D03*
X65720Y219831D02*
D03*
X93279D02*
D03*
D19*
X160591Y21661D02*
D03*
X152717D02*
D03*
X144843D02*
D03*
X216126Y211169D02*
D03*
X224000D02*
D03*
X231874D02*
D03*
X145752D02*
D03*
X153626D02*
D03*
X161500D02*
D03*
X95063Y21661D02*
D03*
X102937D02*
D03*
X66437D02*
D03*
X58563D02*
D03*
X83437Y211169D02*
D03*
X75563D02*
D03*
D20*
X29953Y131500D02*
D03*
X24047D02*
D03*
X146547Y194000D02*
D03*
X152453D02*
D03*
X164453D02*
D03*
X158547D02*
D03*
X124547Y145500D02*
D03*
X130453D02*
D03*
D21*
X230500Y154547D02*
D03*
Y160453D02*
D03*
X194500Y202047D02*
D03*
Y207953D02*
D03*
X161000Y44953D02*
D03*
Y39047D02*
D03*
D22*
X206000Y172500D02*
D03*
Y162500D02*
D03*
Y152500D02*
D03*
Y142500D02*
D03*
Y132500D02*
D03*
Y122500D02*
D03*
Y112500D02*
D03*
Y102500D02*
D03*
Y92500D02*
D03*
Y82500D02*
D03*
Y72500D02*
D03*
Y62500D02*
D03*
X146000D02*
D03*
Y72500D02*
D03*
Y82500D02*
D03*
Y92500D02*
D03*
Y102500D02*
D03*
Y112500D02*
D03*
Y122500D02*
D03*
Y132500D02*
D03*
Y142500D02*
D03*
Y152500D02*
D03*
Y162500D02*
D03*
D23*
Y172500D02*
D03*
D24*
X107000Y97744D02*
D03*
Y50500D02*
D03*
X47945Y97744D02*
D03*
Y50500D02*
D03*
X106059Y134224D02*
D03*
X50941D02*
D03*
X62752D02*
D03*
X94248D02*
D03*
X50941Y224776D02*
D03*
X106059D02*
D03*
M02*
