<?xml version="1.0" encoding="UTF-8" standalone="no"?>
<!-- Created with Inkscape (http://www.inkscape.org/) -->

<svg
   xmlns:dc="http://purl.org/dc/elements/1.1/"
   xmlns:cc="http://creativecommons.org/ns#"
   xmlns:rdf="http://www.w3.org/1999/02/22-rdf-syntax-ns#"
   xmlns:svg="http://www.w3.org/2000/svg"
   xmlns="http://www.w3.org/2000/svg"
   xmlns:sodipodi="http://sodipodi.sourceforge.net/DTD/sodipodi-0.dtd"
   xmlns:inkscape="http://www.inkscape.org/namespaces/inkscape"
   width="1600"
   height="900"
   viewBox="0 0 1600 900"
   version="1.1"
   id="svg8"
   sodipodi:docname="transceiver.svg"
   inkscape:version="0.92.4 (5da689c313, 2019-01-14)">
  <defs
     id="defs2" />
  <sodipodi:namedview
     id="base"
     pagecolor="#ffffff"
     bordercolor="#666666"
     borderopacity="1.0"
     inkscape:pageopacity="0.0"
     inkscape:pageshadow="2"
     inkscape:zoom="1.4142136"
     inkscape:cx="761.99001"
     inkscape:cy="460.44124"
     inkscape:document-units="px"
     inkscape:current-layer="layer2"
     showgrid="true"
     units="px"
     inkscape:pagecheckerboard="false"
     inkscape:window-width="3000"
     inkscape:window-height="1966"
     inkscape:window-x="-11"
     inkscape:window-y="-11"
     inkscape:window-maximized="1"
     inkscape:snap-grids="true"
     inkscape:snap-nodes="false"
     inkscape:snap-bbox="true"
     inkscape:bbox-paths="false"
     inkscape:bbox-nodes="true"
     inkscape:snap-global="false">
    <inkscape:grid
       type="xygrid"
       id="grid3721"
       spacingx="2.6458334"
       spacingy="2.6458334"
       empspacing="10" />
  </sodipodi:namedview>
  <metadata
     id="metadata5">
    <rdf:RDF>
      <cc:Work
         rdf:about="">
        <dc:format>image/svg+xml</dc:format>
        <dc:type
           rdf:resource="http://purl.org/dc/dcmitype/StillImage" />
        <dc:title />
      </cc:Work>
    </rdf:RDF>
  </metadata>
  <g
     inkscape:label="Board"
     inkscape:groupmode="layer"
     id="layer1"
     transform="translate(0,-58.874984)"
     style="display:inline"
     sodipodi:insensitive="true">
    <circle
       style="display:inline;fill:#a4d2bd;fill-opacity:1;stroke-width:1.20000005"
       id="path4002"
       cx="450"
       cy="-508.87497"
       r="420"
       transform="scale(1,-1)" />
  </g>
  <g
     inkscape:groupmode="layer"
     id="layer2"
     inkscape:label="Components &amp; Annotations">
    <text
       xml:space="preserve"
       style="font-style:normal;font-weight:normal;font-size:40px;line-height:1.25;font-family:sans-serif;letter-spacing:0px;word-spacing:0px;fill:#000000;fill-opacity:1;stroke:none"
       x="873.125"
       y="479.89581"
       id="text5014"><tspan
         sodipodi:role="line"
         x="873.125"
         y="479.89581"
         id="tspan5016">Connector: GND</tspan><tspan
         sodipodi:role="line"
         x="873.125"
         y="529.89581"
         id="tspan5018">                  Signal IR-LED</tspan><tspan
         sodipodi:role="line"
         x="873.125"
         y="579.89581"
         id="tspan5026">                  VCC Sensor</tspan><tspan
         sodipodi:role="line"
         x="873.125"
         y="629.89581"
         id="tspan5028">                  DOUT Sensor</tspan><tspan
         sodipodi:role="line"
         x="873.125"
         y="679.89581"
         id="tspan5022" /></text>
    <g
       id="g866"
       transform="translate(11.387922,-10.586052)">
      <path
         inkscape:connector-curvature="0"
         id="path852"
         d="m 429.92092,735.95123 c 0.4599,17.31515 -1.50857,34.46072 -2.82842,51.61879 -0.43469,5.65091 -0.70711,11.29718 -0.70711,16.97056 0,0.74536 0.37377,-1.45465 0.70711,-2.12132"
         style="opacity:1;vector-effect:none;fill:none;fill-opacity:1;stroke:#000000;stroke-width:8;stroke-linecap:butt;stroke-linejoin:miter;stroke-miterlimit:4;stroke-dasharray:none;stroke-dashoffset:0;stroke-opacity:1" />
      <path
         inkscape:connector-curvature="0"
         id="path854"
         d="m 458.20519,735.95123 c -1.14484,17.42112 -2.31862,35.00975 -4.24264,52.3259 -0.10261,0.92355 -1.73396,11.31371 0,11.31371 0.23571,0 -0.0745,-0.4835 0,-0.70711 0.33334,-1 0.94281,-1.88562 1.41422,-2.82843"
         style="opacity:1;vector-effect:none;fill:none;fill-opacity:1;stroke:#000000;stroke-width:8;stroke-linecap:butt;stroke-linejoin:miter;stroke-miterlimit:4;stroke-dasharray:none;stroke-dashoffset:0;stroke-opacity:1" />
      <path
         inkscape:connector-curvature="0"
         id="path856"
         d="m 459.61941,767.77103 c 10.56161,1.62496 19.65532,-2.12132 29.69848,-2.12132 1.19112,0 6.97842,-2.82843 4.94975,-2.82843"
         style="opacity:1;vector-effect:none;fill:none;fill-opacity:1;stroke:#000000;stroke-width:8;stroke-linecap:butt;stroke-linejoin:miter;stroke-miterlimit:4;stroke-dasharray:none;stroke-dashoffset:0;stroke-opacity:1" />
      <path
         inkscape:connector-curvature="0"
         id="path858"
         d="m 388.90873,769.89235 c 25.21509,-1.57594 15.07023,-1.41421 30.40559,-1.41421 0.87231,0 2.79446,0.37053 3.53554,0 0.21081,-0.10541 -0.16667,-0.54044 0,-0.70711 0.65404,-0.65404 3.15589,-2.82843 0.7071,-2.82843 -0.33333,0 -0.37377,0.70711 -0.7071,0.70711"
         style="opacity:1;vector-effect:none;fill:none;fill-opacity:1;stroke:#000000;stroke-width:8;stroke-linecap:butt;stroke-linejoin:miter;stroke-miterlimit:4;stroke-dasharray:none;stroke-dashoffset:0;stroke-opacity:1" />
    </g>
    <path
       style="opacity:1;vector-effect:none;fill:none;fill-opacity:1;stroke:#000000;stroke-width:8;stroke-linecap:butt;stroke-linejoin:miter;stroke-miterlimit:4;stroke-dasharray:none;stroke-dashoffset:0;stroke-opacity:1"
       d="m 370.92615,161.99958 c 14.31323,-1.83801 28.90303,-1.9998 42.42641,-7.07107 0.46086,-0.17282 6.40355,-2.78884 7.07107,-2.12132 1.18456,1.18457 -0.64354,5.65686 -2.12132,5.65686 9.39621,-22.40635 5.649,-14.83355 9.89949,-23.33453 0.38006,-0.76011 1.03416,-1.3612 1.41422,-2.12132 0.0649,-0.12974 -0.0519,-2.12132 0,-2.12132 0.0363,0 -0.0453,1.98534 0,2.12132 1.54676,4.64029 -0.14372,-4.11039 2.12132,4.94975 0.69746,2.78984 0,5.41004 0,7.77818 0,1.20185 0.58751,2.33964 0.7071,3.53553 0.54589,5.45885 -0.10242,10.95523 1.41422,16.26346 1.27713,4.46995 1.59172,9.54741 3.53553,13.43502 0.21082,0.42164 -0.21082,0.99258 0,1.41422 0.54453,1.08906 1.41421,1.17554 1.41421,2.12132 0,0.2357 0,0.94281 0,0.70711 0,-3.17492 2.00858,-5.94036 3.53554,-8.48529 1.70271,-2.83785 0.69234,-5.59778 1.41421,-8.48528 0.54804,-2.19216 3.0579,-3.9758 3.53554,-6.36396 0.13867,-0.69337 -0.26262,-1.46479 0,-2.12132 0.24759,-0.61898 1.11607,-0.81793 1.41421,-1.41421 0.39424,-0.78848 1.76052,-8.12448 2.12132,-8.48528 0.16667,-0.16667 0.54044,0.16666 0.70711,0 0.90533,-0.90534 0.68538,-7.04935 1.41421,-7.77818 0.16667,-0.16667 0.54044,0.16667 0.70711,0 0.44524,-0.44524 -0.206,-4.62689 0,-5.65685 0.36785,-1.83926 0.73151,-0.0244 1.41421,-0.70711 0.46288,-0.46288 -0.53972,-0.16739 0.70711,-1.41421 0.0707,-0.0707 -0.32999,-2.45131 0.7071,-1.41422 1.54988,1.54988 -1.8015,13.31761 -2.12132,15.55635 -0.91866,6.43061 0.7917,13.60422 3.53554,19.09189 1.67998,3.35996 -1.85035,10.87758 1.41421,14.14213 1.3983,1.3983 3.88775,-9.89414 4.24264,-11.31371 0.79178,-3.16713 4.12001,-5.87342 4.94975,-9.19239 0.28583,-1.14332 -0.23113,-2.3799 0,-3.53553 0.32832,-1.64161 2.33736,-2.76945 2.82843,-4.24264 1.13214,-3.39643 1.15736,-7.26447 2.82842,-10.6066 1.38365,-2.7673 1.48539,-2.8996 3.53554,-4.94975 0.33333,-0.33333 -0.33334,-1.08088 0,-1.41421 0.35355,-0.35356 1.06066,-0.35356 1.41421,-0.70711 0.4714,-0.4714 -0.4714,-2.35702 0,-2.82843 0.47059,-0.47058 0.94363,0.47059 1.41421,0 0.16667,-0.16666 0,-0.94281 0,-0.7071 0,6.30103 1.03265,13.60311 0,19.79899 -0.59546,3.57276 -1.87765,12.04471 -0.7071,15.55635 0.86213,2.58638 3.15862,3.48881 4.24264,5.65685 0.57011,1.14022 0.8282,2.36352 1.41421,3.53553 0.85606,1.71213 -1.15922,5.91185 -0.70711,6.36396 0.68719,0.68719 0.34618,-1.92611 0.70711,-2.82842 0.66952,-1.6738 2.10353,-2.79286 2.82843,-4.24264 0.37992,-0.75984 -0.27271,-2.01032 0,-2.82843 1.04947,-3.1484 -0.3091,-6.85087 0.70711,-9.8995 0.31367,-0.94101 3.89351,-4.60061 4.24264,-4.94974 0.17241,-0.17242 19.67861,3.53553 22.62741,3.53553 2.76228,0 0.0747,-0.21082 2.82843,0.70711 1.28964,0.42988 2.19028,-0.70711 3.53553,-0.70711 0.74536,0 2.86668,-0.70711 2.12132,-0.70711 -1.45463,0 -2.49687,-0.33155 -3.53553,0.70711"
       id="path860"
       inkscape:connector-curvature="0" />
    <g
       id="g891"
       transform="translate(14.646377,-10.249783)">
      <path
         inkscape:connector-curvature="0"
         id="path870"
         d="m 729.02709,526.64762 c 0,1.42553 0.52258,-5.25679 0.70711,-6.36396 0.98056,-5.88336 -0.22203,-12.5638 -0.70711,-18.38478 -1.00642,-12.07704 -0.0449,-24.73703 0.70711,-36.76955 0.23524,-3.76389 -0.23524,-7.54982 0,-11.31371 0.68861,-11.01746 0.95755,-0.29396 0.70711,-11.31371 -0.19288,-8.48636 -0.47141,-16.97056 -0.70711,-25.45584 7.30677,-0.47141 14.61354,-0.94281 21.92031,-1.41422 1.64991,-0.2357 3.28799,-0.57927 4.94975,-0.7071 6.58989,-0.50692 13.19413,-1.70852 19.79899,-2.12132 9.49433,-0.5934 18.84101,0.7071 28.28427,0.7071 3.6073,0 7.75324,-0.59341 11.31371,0 1.89296,0.3155 3.20124,1.53849 4.94974,2.12132 0.44722,0.14908 1.08088,-0.33333 1.41422,0 0.33333,0.33334 -0.21082,0.99258 0,1.41422 0.2429,0.4858 2.79226,1.41421 0.7071,1.41421"
         style="opacity:1;vector-effect:none;fill:none;fill-opacity:1;stroke:#000000;stroke-width:8;stroke-linecap:butt;stroke-linejoin:miter;stroke-miterlimit:4;stroke-dasharray:none;stroke-dashoffset:0;stroke-opacity:1" />
      <path
         inkscape:connector-curvature="0"
         id="path872"
         d="m 828.02204,423.41003 c -0.2357,8.01388 -0.33461,16.03295 -0.70711,24.04163 -0.46462,9.98952 -2.53553,19.8826 -4.24264,29.69848 -1.3878,7.97986 -2.08495,16.06344 -3.53553,24.04164 -0.88804,4.88422 -2.33494,9.91437 -2.82843,14.84924 -0.35327,3.53276 0.5914,3.60839 -0.7071,7.07107 -0.2984,0.79572 -1.18075,1.30418 -1.41422,2.12132 -0.12886,0.451 0.73828,7.07106 -0.7071,7.07106 -0.45733,0 0.7071,-0.35024 0.7071,-0.7071"
         style="opacity:1;vector-effect:none;fill:none;fill-opacity:1;stroke:#000000;stroke-width:8;stroke-linecap:butt;stroke-linejoin:miter;stroke-miterlimit:4;stroke-dasharray:none;stroke-dashoffset:0;stroke-opacity:1" />
      <path
         inkscape:connector-curvature="0"
         id="path874"
         d="m 729.7342,535.84001 c 8.01388,-0.47141 16.02392,-1.01333 24.04163,-1.41422 5.78758,-0.28937 11.86824,-1.28805 17.67767,-0.7071 8.39977,0.83997 16.37784,2.80936 24.74874,1.41421 1.23993,-0.20666 14.07155,-1.34363 14.14213,-1.41421 0.33333,-0.33334 0,-0.94281 0,-1.41422"
         style="opacity:1;vector-effect:none;fill:none;fill-opacity:1;stroke:#000000;stroke-width:8;stroke-linecap:butt;stroke-linejoin:miter;stroke-miterlimit:4;stroke-dasharray:none;stroke-dashoffset:0;stroke-opacity:1" />
      <path
         inkscape:connector-curvature="0"
         id="path876"
         d="m 772.86771,442.50191 c 0.54411,5.2043 24.47442,-3.17066 31.81981,-2.12132 1.0435,0.14907 1.8058,1.15856 2.82842,1.41422 1.86762,0.4669 3.66717,0.7071 5.65686,0.7071"
         style="opacity:1;vector-effect:none;fill:none;fill-opacity:1;stroke:#000000;stroke-width:8;stroke-linecap:butt;stroke-linejoin:miter;stroke-miterlimit:4;stroke-dasharray:none;stroke-dashoffset:0;stroke-opacity:1" />
      <path
         inkscape:connector-curvature="0"
         id="path878"
         d="m 777.81746,470.07908 c 22.76316,-2.93718 15.79031,-6.9151 24.04163,-1.41422"
         style="opacity:1;vector-effect:none;fill:none;fill-opacity:1;stroke:#000000;stroke-width:8;stroke-linecap:butt;stroke-linejoin:miter;stroke-miterlimit:4;stroke-dasharray:none;stroke-dashoffset:0;stroke-opacity:1" />
      <path
         inkscape:connector-curvature="0"
         id="path880"
         d="m 772.16061,494.82781 c 13.80284,1.80785 19.33267,2.00093 28.99137,-2.82842 0.29815,-0.14907 0.37378,-0.70711 0.70711,-0.70711 0.52705,0 0.33443,1.04154 0.70711,1.41421"
         style="opacity:1;vector-effect:none;fill:none;fill-opacity:1;stroke:#000000;stroke-width:8;stroke-linecap:butt;stroke-linejoin:miter;stroke-miterlimit:4;stroke-dasharray:none;stroke-dashoffset:0;stroke-opacity:1" />
      <path
         inkscape:connector-curvature="0"
         id="path882"
         d="m 772.16061,512.50548 c 15.55904,8.88735 16.67069,1.41422 26.87005,1.41422"
         style="opacity:1;vector-effect:none;fill:none;fill-opacity:1;stroke:#000000;stroke-width:8;stroke-linecap:butt;stroke-linejoin:miter;stroke-miterlimit:4;stroke-dasharray:none;stroke-dashoffset:0;stroke-opacity:1" />
    </g>
    <g
       id="g901"
       transform="translate(12.020815,16.263456)">
      <circle
         transform="scale(1,-1)"
         r="95.943649"
         cy="-327.80634"
         cx="439.90198"
         id="path4048"
         style="display:inline;fill:#000000;stroke-width:1.84507024" />
      <text
         id="text4006"
         y="340.95578"
         x="374.98523"
         style="font-style:normal;font-weight:normal;font-size:40px;line-height:1.25;font-family:sans-serif;letter-spacing:0px;word-spacing:0px;display:inline;fill:#ffffff;fill-opacity:1;stroke:none"
         xml:space="preserve"><tspan
           y="340.95578"
           x="374.98523"
           id="tspan4004"
           sodipodi:role="line">IR-LED</tspan></text>
    </g>
    <g
       id="g896"
       transform="translate(0.70710678,-29.698485)">
      <circle
         transform="scale(1,-1)"
         r="95.943649"
         cy="-575.94366"
         cx="454.05637"
         id="path4048-5"
         style="display:inline;fill:#000000;stroke-width:1.84507024" />
      <text
         id="text4006-6"
         y="589.96783"
         x="381.14053"
         style="font-style:normal;font-weight:normal;font-size:40px;line-height:1.25;font-family:sans-serif;letter-spacing:0px;word-spacing:0px;display:inline;fill:#ffffff;fill-opacity:1;stroke:none"
         xml:space="preserve"><tspan
           y="589.96783"
           x="381.14053"
           id="tspan4004-5"
           sodipodi:role="line">Sensor</tspan></text>
    </g>
    <circle
       style="fill:none;fill-opacity:1;stroke:#7f7f7f;stroke-width:8;stroke-miterlimit:4;stroke-dasharray:none;stroke-opacity:1"
       id="path903"
       cx="449.36636"
       cy="446.39099"
       r="210.36427" />
    <text
       xml:space="preserve"
       style="font-style:normal;font-weight:normal;font-size:40px;line-height:1.25;font-family:sans-serif;letter-spacing:0px;word-spacing:0px;fill:#a4d2bd;fill-opacity:1;stroke:none"
       x="704.98547"
       y="820.80408"
       id="text907"><tspan
         sodipodi:role="line"
         id="tspan905"
         x="704.98547"
         y="820.80408">PCB ⌀ 27.5 mm</tspan></text>
    <text
       xml:space="preserve"
       style="font-style:normal;font-weight:normal;font-size:40px;line-height:1.25;font-family:sans-serif;letter-spacing:0px;word-spacing:0px;fill:#8d9f97;fill-opacity:1;stroke:none"
       x="564.97833"
       y="663.11926"
       id="text911"><tspan
         sodipodi:role="line"
         id="tspan909"
         x="564.97833"
         y="663.11926">Light pipe ⌀ 10 mm</tspan></text>
  </g>
</svg>
