G04 #@! TF.GenerationSoftware,KiCad,Pcbnew,(5.1.0)-1*
G04 #@! TF.CreationDate,2019-03-26T08:32:57+01:00*
G04 #@! TF.ProjectId,node,6e6f6465-2e6b-4696-9361-645f70636258,rev?*
G04 #@! TF.SameCoordinates,Original*
G04 #@! TF.FileFunction,Legend,Bot*
G04 #@! TF.FilePolarity,Positive*
%FSLAX46Y46*%
G04 Gerber Fmt 4.6, Leading zero omitted, Abs format (unit mm)*
G04 Created by KiCad (PCBNEW (5.1.0)-1) date 2019-03-26 08:32:57*
%MOMM*%
%LPD*%
G04 APERTURE LIST*
%ADD10C,0.300000*%
%ADD11C,0.010000*%
%ADD12C,0.203200*%
G04 APERTURE END LIST*
D10*
X152242857Y-81276190D02*
X152166666Y-81200000D01*
X152014285Y-81123809D01*
X151633333Y-81123809D01*
X151480952Y-81200000D01*
X151404761Y-81276190D01*
X151328571Y-81428571D01*
X151328571Y-81580952D01*
X151404761Y-81809523D01*
X152319047Y-82723809D01*
X151328571Y-82723809D01*
X150338095Y-81123809D02*
X150185714Y-81123809D01*
X150033333Y-81200000D01*
X149957142Y-81276190D01*
X149880952Y-81428571D01*
X149804761Y-81733333D01*
X149804761Y-82114285D01*
X149880952Y-82419047D01*
X149957142Y-82571428D01*
X150033333Y-82647619D01*
X150185714Y-82723809D01*
X150338095Y-82723809D01*
X150490476Y-82647619D01*
X150566666Y-82571428D01*
X150642857Y-82419047D01*
X150719047Y-82114285D01*
X150719047Y-81733333D01*
X150642857Y-81428571D01*
X150566666Y-81276190D01*
X150490476Y-81200000D01*
X150338095Y-81123809D01*
X148280952Y-82723809D02*
X149195238Y-82723809D01*
X148738095Y-82723809D02*
X148738095Y-81123809D01*
X148890476Y-81352380D01*
X149042857Y-81504761D01*
X149195238Y-81580952D01*
X147519047Y-82723809D02*
X147214285Y-82723809D01*
X147061904Y-82647619D01*
X146985714Y-82571428D01*
X146833333Y-82342857D01*
X146757142Y-82038095D01*
X146757142Y-81428571D01*
X146833333Y-81276190D01*
X146909523Y-81200000D01*
X147061904Y-81123809D01*
X147366666Y-81123809D01*
X147519047Y-81200000D01*
X147595238Y-81276190D01*
X147671428Y-81428571D01*
X147671428Y-81809523D01*
X147595238Y-81961904D01*
X147519047Y-82038095D01*
X147366666Y-82114285D01*
X147061904Y-82114285D01*
X146909523Y-82038095D01*
X146833333Y-81961904D01*
X146757142Y-81809523D01*
D11*
G36*
X144405229Y-81401294D02*
G01*
X144364039Y-81401327D01*
X144329096Y-81401398D01*
X144299895Y-81401521D01*
X144275932Y-81401708D01*
X144256702Y-81401974D01*
X144241699Y-81402331D01*
X144230420Y-81402793D01*
X144222357Y-81403373D01*
X144217008Y-81404084D01*
X144213867Y-81404941D01*
X144212429Y-81405955D01*
X144212190Y-81407140D01*
X144212307Y-81407636D01*
X144217617Y-81425366D01*
X144224259Y-81448451D01*
X144231772Y-81475212D01*
X144239696Y-81503971D01*
X144247569Y-81533050D01*
X144254931Y-81560772D01*
X144261321Y-81585458D01*
X144263342Y-81593469D01*
X144283330Y-81678173D01*
X144299504Y-81757310D01*
X144311944Y-81831435D01*
X144320732Y-81901102D01*
X144325952Y-81966866D01*
X144327684Y-82029029D01*
X144326034Y-82085383D01*
X144320993Y-82135460D01*
X144312521Y-82179423D01*
X144300573Y-82217434D01*
X144285107Y-82249656D01*
X144266080Y-82276252D01*
X144260935Y-82281861D01*
X144242845Y-82296513D01*
X144219868Y-82309003D01*
X144194245Y-82318524D01*
X144168219Y-82324270D01*
X144144032Y-82325434D01*
X144140590Y-82325152D01*
X144114915Y-82319276D01*
X144091835Y-82307119D01*
X144071288Y-82288582D01*
X144053212Y-82263570D01*
X144037542Y-82231984D01*
X144024218Y-82193728D01*
X144013175Y-82148705D01*
X144007763Y-82119281D01*
X144003711Y-82092771D01*
X144000403Y-82066496D01*
X143997792Y-82039486D01*
X143995834Y-82010774D01*
X143994485Y-81979388D01*
X143993699Y-81944359D01*
X143993431Y-81904719D01*
X143993637Y-81859496D01*
X143994051Y-81823107D01*
X143996035Y-81677057D01*
X143915653Y-81677062D01*
X143893985Y-81677122D01*
X143866376Y-81677291D01*
X143834142Y-81677555D01*
X143798597Y-81677903D01*
X143761058Y-81678320D01*
X143722838Y-81678793D01*
X143685255Y-81679311D01*
X143675614Y-81679453D01*
X143515957Y-81681839D01*
X143517202Y-81841827D01*
X143517460Y-81897727D01*
X143517290Y-81947111D01*
X143516659Y-81990708D01*
X143515536Y-82029246D01*
X143513889Y-82063457D01*
X143511685Y-82094068D01*
X143508894Y-82121810D01*
X143505482Y-82147412D01*
X143503224Y-82161472D01*
X143494599Y-82202648D01*
X143483821Y-82237162D01*
X143470673Y-82265346D01*
X143454939Y-82287530D01*
X143436402Y-82304047D01*
X143414847Y-82315227D01*
X143400106Y-82319573D01*
X143385444Y-82321702D01*
X143367045Y-82322701D01*
X143346799Y-82322656D01*
X143326594Y-82321652D01*
X143308317Y-82319774D01*
X143293857Y-82317106D01*
X143286257Y-82314435D01*
X143265543Y-82299394D01*
X143247250Y-82277932D01*
X143231407Y-82250481D01*
X143218045Y-82217474D01*
X143207194Y-82179342D01*
X143198884Y-82136518D01*
X143193145Y-82089432D01*
X143190007Y-82038516D01*
X143189500Y-81984203D01*
X143191655Y-81926925D01*
X143196502Y-81867113D01*
X143204071Y-81805198D01*
X143214391Y-81741614D01*
X143227493Y-81676791D01*
X143238520Y-81630177D01*
X143247329Y-81597073D01*
X143257632Y-81561627D01*
X143268829Y-81525700D01*
X143280318Y-81491159D01*
X143291498Y-81459866D01*
X143301768Y-81433685D01*
X143302350Y-81432299D01*
X143307841Y-81419169D01*
X143312054Y-81408888D01*
X143314341Y-81403046D01*
X143314571Y-81402303D01*
X143311041Y-81402132D01*
X143300843Y-81401969D01*
X143284565Y-81401819D01*
X143262798Y-81401682D01*
X143236130Y-81401561D01*
X143205150Y-81401459D01*
X143170447Y-81401379D01*
X143132611Y-81401322D01*
X143092230Y-81401291D01*
X143067798Y-81401286D01*
X142821025Y-81401286D01*
X142806225Y-81433036D01*
X142766926Y-81524421D01*
X142734643Y-81615018D01*
X142709243Y-81705285D01*
X142690591Y-81795678D01*
X142681359Y-81860300D01*
X142678386Y-81893287D01*
X142676459Y-81931013D01*
X142675581Y-81971336D01*
X142675754Y-82012113D01*
X142676982Y-82051200D01*
X142679267Y-82086454D01*
X142681015Y-82103768D01*
X142691542Y-82172370D01*
X142706512Y-82238521D01*
X142725659Y-82301761D01*
X142748718Y-82361632D01*
X142775421Y-82417675D01*
X142805503Y-82469434D01*
X142838696Y-82516448D01*
X142874735Y-82558260D01*
X142913353Y-82594412D01*
X142954284Y-82624446D01*
X142997262Y-82647902D01*
X142997283Y-82647911D01*
X143030101Y-82661410D01*
X143067689Y-82674397D01*
X143107565Y-82686082D01*
X143147248Y-82695676D01*
X143147657Y-82695763D01*
X143162584Y-82698841D01*
X143175667Y-82701193D01*
X143188260Y-82702917D01*
X143201721Y-82704114D01*
X143217403Y-82704882D01*
X143236662Y-82705321D01*
X143260855Y-82705530D01*
X143281914Y-82705593D01*
X143314748Y-82705508D01*
X143341824Y-82704992D01*
X143364639Y-82703854D01*
X143384689Y-82701901D01*
X143403471Y-82698944D01*
X143422480Y-82694791D01*
X143443212Y-82689251D01*
X143467164Y-82682132D01*
X143468376Y-82681761D01*
X143524016Y-82661031D01*
X143576992Y-82633939D01*
X143626303Y-82601060D01*
X143663795Y-82569728D01*
X143681159Y-82552170D01*
X143700336Y-82530318D01*
X143719671Y-82506252D01*
X143737506Y-82482053D01*
X143752184Y-82459801D01*
X143754717Y-82455561D01*
X143764876Y-82438163D01*
X143781146Y-82464553D01*
X143816465Y-82515667D01*
X143855954Y-82561382D01*
X143899261Y-82601402D01*
X143946033Y-82635429D01*
X143995921Y-82663168D01*
X144036657Y-82680206D01*
X144060591Y-82688368D01*
X144082469Y-82694583D01*
X144104009Y-82699124D01*
X144126932Y-82702260D01*
X144152958Y-82704264D01*
X144183806Y-82705408D01*
X144198129Y-82705688D01*
X144221228Y-82705971D01*
X144242617Y-82706071D01*
X144260941Y-82705995D01*
X144274846Y-82705749D01*
X144282978Y-82705339D01*
X144283400Y-82705292D01*
X144325811Y-82698678D01*
X144369924Y-82689216D01*
X144414352Y-82677363D01*
X144457708Y-82663578D01*
X144498604Y-82648318D01*
X144535651Y-82632042D01*
X144567464Y-82615206D01*
X144579868Y-82607461D01*
X144604725Y-82588947D01*
X144631279Y-82565630D01*
X144657885Y-82539146D01*
X144682901Y-82511136D01*
X144704683Y-82483238D01*
X144705254Y-82482441D01*
X144715801Y-82466589D01*
X144728100Y-82446368D01*
X144740863Y-82423995D01*
X144752799Y-82401688D01*
X144756845Y-82393700D01*
X144780392Y-82342698D01*
X144799690Y-82292430D01*
X144815402Y-82240795D01*
X144828192Y-82185695D01*
X144835742Y-82144058D01*
X144839029Y-82118230D01*
X144841519Y-82086844D01*
X144843203Y-82051557D01*
X144844071Y-82014024D01*
X144844113Y-81975902D01*
X144843319Y-81938848D01*
X144841680Y-81904517D01*
X144839186Y-81874566D01*
X144837409Y-81860300D01*
X144822932Y-81775692D01*
X144804294Y-81694264D01*
X144780988Y-81614278D01*
X144752506Y-81533996D01*
X144718342Y-81451679D01*
X144718121Y-81451179D01*
X144696002Y-81401286D01*
X144453171Y-81401286D01*
X144405229Y-81401294D01*
X144405229Y-81401294D01*
G37*
X144405229Y-81401294D02*
X144364039Y-81401327D01*
X144329096Y-81401398D01*
X144299895Y-81401521D01*
X144275932Y-81401708D01*
X144256702Y-81401974D01*
X144241699Y-81402331D01*
X144230420Y-81402793D01*
X144222357Y-81403373D01*
X144217008Y-81404084D01*
X144213867Y-81404941D01*
X144212429Y-81405955D01*
X144212190Y-81407140D01*
X144212307Y-81407636D01*
X144217617Y-81425366D01*
X144224259Y-81448451D01*
X144231772Y-81475212D01*
X144239696Y-81503971D01*
X144247569Y-81533050D01*
X144254931Y-81560772D01*
X144261321Y-81585458D01*
X144263342Y-81593469D01*
X144283330Y-81678173D01*
X144299504Y-81757310D01*
X144311944Y-81831435D01*
X144320732Y-81901102D01*
X144325952Y-81966866D01*
X144327684Y-82029029D01*
X144326034Y-82085383D01*
X144320993Y-82135460D01*
X144312521Y-82179423D01*
X144300573Y-82217434D01*
X144285107Y-82249656D01*
X144266080Y-82276252D01*
X144260935Y-82281861D01*
X144242845Y-82296513D01*
X144219868Y-82309003D01*
X144194245Y-82318524D01*
X144168219Y-82324270D01*
X144144032Y-82325434D01*
X144140590Y-82325152D01*
X144114915Y-82319276D01*
X144091835Y-82307119D01*
X144071288Y-82288582D01*
X144053212Y-82263570D01*
X144037542Y-82231984D01*
X144024218Y-82193728D01*
X144013175Y-82148705D01*
X144007763Y-82119281D01*
X144003711Y-82092771D01*
X144000403Y-82066496D01*
X143997792Y-82039486D01*
X143995834Y-82010774D01*
X143994485Y-81979388D01*
X143993699Y-81944359D01*
X143993431Y-81904719D01*
X143993637Y-81859496D01*
X143994051Y-81823107D01*
X143996035Y-81677057D01*
X143915653Y-81677062D01*
X143893985Y-81677122D01*
X143866376Y-81677291D01*
X143834142Y-81677555D01*
X143798597Y-81677903D01*
X143761058Y-81678320D01*
X143722838Y-81678793D01*
X143685255Y-81679311D01*
X143675614Y-81679453D01*
X143515957Y-81681839D01*
X143517202Y-81841827D01*
X143517460Y-81897727D01*
X143517290Y-81947111D01*
X143516659Y-81990708D01*
X143515536Y-82029246D01*
X143513889Y-82063457D01*
X143511685Y-82094068D01*
X143508894Y-82121810D01*
X143505482Y-82147412D01*
X143503224Y-82161472D01*
X143494599Y-82202648D01*
X143483821Y-82237162D01*
X143470673Y-82265346D01*
X143454939Y-82287530D01*
X143436402Y-82304047D01*
X143414847Y-82315227D01*
X143400106Y-82319573D01*
X143385444Y-82321702D01*
X143367045Y-82322701D01*
X143346799Y-82322656D01*
X143326594Y-82321652D01*
X143308317Y-82319774D01*
X143293857Y-82317106D01*
X143286257Y-82314435D01*
X143265543Y-82299394D01*
X143247250Y-82277932D01*
X143231407Y-82250481D01*
X143218045Y-82217474D01*
X143207194Y-82179342D01*
X143198884Y-82136518D01*
X143193145Y-82089432D01*
X143190007Y-82038516D01*
X143189500Y-81984203D01*
X143191655Y-81926925D01*
X143196502Y-81867113D01*
X143204071Y-81805198D01*
X143214391Y-81741614D01*
X143227493Y-81676791D01*
X143238520Y-81630177D01*
X143247329Y-81597073D01*
X143257632Y-81561627D01*
X143268829Y-81525700D01*
X143280318Y-81491159D01*
X143291498Y-81459866D01*
X143301768Y-81433685D01*
X143302350Y-81432299D01*
X143307841Y-81419169D01*
X143312054Y-81408888D01*
X143314341Y-81403046D01*
X143314571Y-81402303D01*
X143311041Y-81402132D01*
X143300843Y-81401969D01*
X143284565Y-81401819D01*
X143262798Y-81401682D01*
X143236130Y-81401561D01*
X143205150Y-81401459D01*
X143170447Y-81401379D01*
X143132611Y-81401322D01*
X143092230Y-81401291D01*
X143067798Y-81401286D01*
X142821025Y-81401286D01*
X142806225Y-81433036D01*
X142766926Y-81524421D01*
X142734643Y-81615018D01*
X142709243Y-81705285D01*
X142690591Y-81795678D01*
X142681359Y-81860300D01*
X142678386Y-81893287D01*
X142676459Y-81931013D01*
X142675581Y-81971336D01*
X142675754Y-82012113D01*
X142676982Y-82051200D01*
X142679267Y-82086454D01*
X142681015Y-82103768D01*
X142691542Y-82172370D01*
X142706512Y-82238521D01*
X142725659Y-82301761D01*
X142748718Y-82361632D01*
X142775421Y-82417675D01*
X142805503Y-82469434D01*
X142838696Y-82516448D01*
X142874735Y-82558260D01*
X142913353Y-82594412D01*
X142954284Y-82624446D01*
X142997262Y-82647902D01*
X142997283Y-82647911D01*
X143030101Y-82661410D01*
X143067689Y-82674397D01*
X143107565Y-82686082D01*
X143147248Y-82695676D01*
X143147657Y-82695763D01*
X143162584Y-82698841D01*
X143175667Y-82701193D01*
X143188260Y-82702917D01*
X143201721Y-82704114D01*
X143217403Y-82704882D01*
X143236662Y-82705321D01*
X143260855Y-82705530D01*
X143281914Y-82705593D01*
X143314748Y-82705508D01*
X143341824Y-82704992D01*
X143364639Y-82703854D01*
X143384689Y-82701901D01*
X143403471Y-82698944D01*
X143422480Y-82694791D01*
X143443212Y-82689251D01*
X143467164Y-82682132D01*
X143468376Y-82681761D01*
X143524016Y-82661031D01*
X143576992Y-82633939D01*
X143626303Y-82601060D01*
X143663795Y-82569728D01*
X143681159Y-82552170D01*
X143700336Y-82530318D01*
X143719671Y-82506252D01*
X143737506Y-82482053D01*
X143752184Y-82459801D01*
X143754717Y-82455561D01*
X143764876Y-82438163D01*
X143781146Y-82464553D01*
X143816465Y-82515667D01*
X143855954Y-82561382D01*
X143899261Y-82601402D01*
X143946033Y-82635429D01*
X143995921Y-82663168D01*
X144036657Y-82680206D01*
X144060591Y-82688368D01*
X144082469Y-82694583D01*
X144104009Y-82699124D01*
X144126932Y-82702260D01*
X144152958Y-82704264D01*
X144183806Y-82705408D01*
X144198129Y-82705688D01*
X144221228Y-82705971D01*
X144242617Y-82706071D01*
X144260941Y-82705995D01*
X144274846Y-82705749D01*
X144282978Y-82705339D01*
X144283400Y-82705292D01*
X144325811Y-82698678D01*
X144369924Y-82689216D01*
X144414352Y-82677363D01*
X144457708Y-82663578D01*
X144498604Y-82648318D01*
X144535651Y-82632042D01*
X144567464Y-82615206D01*
X144579868Y-82607461D01*
X144604725Y-82588947D01*
X144631279Y-82565630D01*
X144657885Y-82539146D01*
X144682901Y-82511136D01*
X144704683Y-82483238D01*
X144705254Y-82482441D01*
X144715801Y-82466589D01*
X144728100Y-82446368D01*
X144740863Y-82423995D01*
X144752799Y-82401688D01*
X144756845Y-82393700D01*
X144780392Y-82342698D01*
X144799690Y-82292430D01*
X144815402Y-82240795D01*
X144828192Y-82185695D01*
X144835742Y-82144058D01*
X144839029Y-82118230D01*
X144841519Y-82086844D01*
X144843203Y-82051557D01*
X144844071Y-82014024D01*
X144844113Y-81975902D01*
X144843319Y-81938848D01*
X144841680Y-81904517D01*
X144839186Y-81874566D01*
X144837409Y-81860300D01*
X144822932Y-81775692D01*
X144804294Y-81694264D01*
X144780988Y-81614278D01*
X144752506Y-81533996D01*
X144718342Y-81451679D01*
X144718121Y-81451179D01*
X144696002Y-81401286D01*
X144453171Y-81401286D01*
X144405229Y-81401294D01*
G36*
X143136972Y-80527365D02*
G01*
X143082406Y-80529691D01*
X143028426Y-80533486D01*
X142976826Y-80538657D01*
X142929401Y-80545111D01*
X142900914Y-80550096D01*
X142797641Y-80573705D01*
X142697626Y-80603741D01*
X142600982Y-80640145D01*
X142507825Y-80682855D01*
X142418269Y-80731813D01*
X142332427Y-80786959D01*
X142250416Y-80848231D01*
X142172348Y-80915570D01*
X142133172Y-80953140D01*
X142061453Y-81029408D01*
X141995932Y-81109425D01*
X141936663Y-81193084D01*
X141883698Y-81280276D01*
X141837089Y-81370893D01*
X141796889Y-81464826D01*
X141763150Y-81561968D01*
X141735924Y-81662210D01*
X141715264Y-81765443D01*
X141704845Y-81838529D01*
X141702088Y-81867839D01*
X141700035Y-81902736D01*
X141698687Y-81941581D01*
X141698044Y-81982739D01*
X141698106Y-82024571D01*
X141698873Y-82065442D01*
X141700344Y-82103713D01*
X141702520Y-82137749D01*
X141704845Y-82161472D01*
X141720939Y-82266563D01*
X141743676Y-82368859D01*
X141772963Y-82468194D01*
X141808708Y-82564403D01*
X141850818Y-82657320D01*
X141899202Y-82746781D01*
X141953767Y-82832621D01*
X142014421Y-82914673D01*
X142081073Y-82992774D01*
X142153629Y-83066757D01*
X142231998Y-83136458D01*
X142262286Y-83160999D01*
X142342200Y-83219585D01*
X142426663Y-83272776D01*
X142515087Y-83320301D01*
X142606882Y-83361889D01*
X142701459Y-83397272D01*
X142798232Y-83426179D01*
X142882771Y-83445656D01*
X142917286Y-83452346D01*
X142947861Y-83457789D01*
X142975884Y-83462106D01*
X143002741Y-83465422D01*
X143029820Y-83467859D01*
X143058507Y-83469541D01*
X143090190Y-83470591D01*
X143126256Y-83471132D01*
X143168091Y-83471287D01*
X143171243Y-83471287D01*
X143206489Y-83471223D01*
X143235646Y-83471020D01*
X143259881Y-83470625D01*
X143280359Y-83469986D01*
X143298250Y-83469051D01*
X143314718Y-83467768D01*
X143330932Y-83466084D01*
X143348059Y-83463947D01*
X143354486Y-83463083D01*
X143440461Y-83449096D01*
X143523727Y-83431054D01*
X143603027Y-83409266D01*
X143677106Y-83384043D01*
X143681767Y-83382271D01*
X143700175Y-83375257D01*
X143717048Y-83368893D01*
X143730787Y-83363778D01*
X143739791Y-83360509D01*
X143741215Y-83360017D01*
X143746298Y-83358841D01*
X143752267Y-83358921D01*
X143760332Y-83360567D01*
X143771705Y-83364089D01*
X143787597Y-83369798D01*
X143804715Y-83376276D01*
X143883262Y-83404194D01*
X143959770Y-83426830D01*
X144036388Y-83444688D01*
X144115265Y-83458272D01*
X144194971Y-83467746D01*
X144224357Y-83469933D01*
X144258990Y-83471485D01*
X144297071Y-83472400D01*
X144336798Y-83472680D01*
X144376369Y-83472325D01*
X144413984Y-83471337D01*
X144447840Y-83469715D01*
X144474306Y-83467646D01*
X144577391Y-83453822D01*
X144678514Y-83433040D01*
X144777469Y-83405384D01*
X144874054Y-83370937D01*
X144968066Y-83329781D01*
X145059300Y-83282000D01*
X145147554Y-83227677D01*
X145232623Y-83166894D01*
X145255857Y-83148718D01*
X145278833Y-83129466D01*
X145305244Y-83105781D01*
X145333919Y-83078838D01*
X145363686Y-83049812D01*
X145393373Y-83019878D01*
X145421808Y-82990210D01*
X145447821Y-82961983D01*
X145470238Y-82936372D01*
X145482348Y-82921657D01*
X145544053Y-82838461D01*
X145599716Y-82751539D01*
X145649128Y-82661297D01*
X145692076Y-82568138D01*
X145728351Y-82472471D01*
X145747992Y-82410029D01*
X145772607Y-82312195D01*
X145790390Y-82212561D01*
X145801339Y-82111717D01*
X145805455Y-82010251D01*
X145805367Y-82006944D01*
X145377760Y-82006944D01*
X145377556Y-82041625D01*
X145376823Y-82074928D01*
X145375559Y-82105445D01*
X145373764Y-82131769D01*
X145371437Y-82152493D01*
X145371006Y-82155254D01*
X145356671Y-82229065D01*
X145338534Y-82298627D01*
X145328367Y-82331017D01*
X145298371Y-82410265D01*
X145262240Y-82485972D01*
X145220313Y-82557874D01*
X145172927Y-82625710D01*
X145120423Y-82689217D01*
X145063139Y-82748134D01*
X145001413Y-82802196D01*
X144935585Y-82851143D01*
X144865993Y-82894712D01*
X144792976Y-82932640D01*
X144716872Y-82964665D01*
X144638021Y-82990524D01*
X144556761Y-83009956D01*
X144473431Y-83022698D01*
X144430332Y-83026530D01*
X144407298Y-83028061D01*
X144389518Y-83029106D01*
X144375008Y-83029670D01*
X144361782Y-83029757D01*
X144347853Y-83029372D01*
X144331238Y-83028520D01*
X144309950Y-83027205D01*
X144303876Y-83026818D01*
X144237114Y-83020894D01*
X144175025Y-83011803D01*
X144115600Y-82999213D01*
X144082014Y-82990307D01*
X144031243Y-82973974D01*
X143977817Y-82953346D01*
X143923975Y-82929444D01*
X143871954Y-82903290D01*
X143823993Y-82875904D01*
X143805312Y-82864093D01*
X143764468Y-82837381D01*
X143727298Y-82862071D01*
X143657561Y-82904117D01*
X143583894Y-82940419D01*
X143507050Y-82970778D01*
X143427785Y-82994992D01*
X143346851Y-83012861D01*
X143265004Y-83024184D01*
X143182997Y-83028760D01*
X143108047Y-83026839D01*
X143020788Y-83017597D01*
X142935967Y-83001568D01*
X142853708Y-82978796D01*
X142774136Y-82949322D01*
X142697377Y-82913189D01*
X142623554Y-82870440D01*
X142592486Y-82849858D01*
X142523239Y-82797851D01*
X142459289Y-82740974D01*
X142400793Y-82679476D01*
X142347906Y-82613608D01*
X142300784Y-82543620D01*
X142259581Y-82469761D01*
X142224454Y-82392283D01*
X142195558Y-82311435D01*
X142173049Y-82227468D01*
X142158832Y-82152400D01*
X142155922Y-82128455D01*
X142153580Y-82099087D01*
X142151851Y-82066112D01*
X142150778Y-82031345D01*
X142150405Y-81996601D01*
X142150776Y-81963696D01*
X142151935Y-81934445D01*
X142153163Y-81917912D01*
X142164769Y-81831857D01*
X142183192Y-81748034D01*
X142208262Y-81666748D01*
X142239809Y-81588302D01*
X142277664Y-81512997D01*
X142321657Y-81441138D01*
X142371618Y-81373026D01*
X142427378Y-81308965D01*
X142488766Y-81249258D01*
X142555613Y-81194208D01*
X142560935Y-81190206D01*
X142631207Y-81142204D01*
X142705089Y-81100462D01*
X142782404Y-81065051D01*
X142862975Y-81036042D01*
X142946625Y-81013503D01*
X143033178Y-80997505D01*
X143055129Y-80994551D01*
X143075973Y-80992627D01*
X143102310Y-80991229D01*
X143132391Y-80990359D01*
X143164470Y-80990020D01*
X143196801Y-80990213D01*
X143227636Y-80990941D01*
X143255229Y-80992206D01*
X143277833Y-80994011D01*
X143280100Y-80994260D01*
X143364991Y-81007594D01*
X143448403Y-81027944D01*
X143529867Y-81055142D01*
X143608914Y-81089017D01*
X143685076Y-81129401D01*
X143729447Y-81156850D01*
X143765137Y-81180186D01*
X143803833Y-81154476D01*
X143824865Y-81141381D01*
X143850953Y-81126502D01*
X143880396Y-81110698D01*
X143911490Y-81094828D01*
X143942532Y-81079749D01*
X143971821Y-81066319D01*
X143997653Y-81055399D01*
X144008935Y-81051076D01*
X144090118Y-81025212D01*
X144172535Y-81006317D01*
X144255743Y-80994340D01*
X144339298Y-80989227D01*
X144422757Y-80990927D01*
X144505676Y-80999387D01*
X144587611Y-81014556D01*
X144668120Y-81036381D01*
X144746759Y-81064810D01*
X144823083Y-81099790D01*
X144896651Y-81141270D01*
X144923840Y-81158758D01*
X144957051Y-81181502D01*
X144986240Y-81203002D01*
X145013326Y-81224835D01*
X145040227Y-81248576D01*
X145068860Y-81275804D01*
X145081906Y-81288700D01*
X145110999Y-81318442D01*
X145135971Y-81345748D01*
X145158455Y-81372606D01*
X145180082Y-81401003D01*
X145202487Y-81432926D01*
X145211728Y-81446670D01*
X145255647Y-81519151D01*
X145293244Y-81595173D01*
X145324492Y-81674657D01*
X145349359Y-81757527D01*
X145367817Y-81843705D01*
X145370860Y-81862115D01*
X145373294Y-81882579D01*
X145375201Y-81908702D01*
X145376582Y-81939075D01*
X145377435Y-81972292D01*
X145377760Y-82006944D01*
X145805367Y-82006944D01*
X145802739Y-81908753D01*
X145793189Y-81807811D01*
X145776807Y-81708015D01*
X145753592Y-81609954D01*
X145747946Y-81589972D01*
X145730807Y-81534365D01*
X145712648Y-81482582D01*
X145692539Y-81432296D01*
X145669548Y-81381178D01*
X145642744Y-81326900D01*
X145642713Y-81326841D01*
X145600119Y-81249056D01*
X145554361Y-81176127D01*
X145504528Y-81106824D01*
X145449706Y-81039918D01*
X145388986Y-80974180D01*
X145358821Y-80943991D01*
X145282101Y-80873870D01*
X145201780Y-80810048D01*
X145117834Y-80752511D01*
X145030242Y-80701246D01*
X144938981Y-80656239D01*
X144844027Y-80617477D01*
X144796843Y-80600990D01*
X144711867Y-80575353D01*
X144628522Y-80555422D01*
X144545164Y-80540937D01*
X144460148Y-80531634D01*
X144371832Y-80527250D01*
X144332061Y-80526813D01*
X144228164Y-80530202D01*
X144126607Y-80540428D01*
X144027195Y-80557527D01*
X143929735Y-80581534D01*
X143834031Y-80612486D01*
X143796597Y-80626662D01*
X143780496Y-80632926D01*
X143766841Y-80638069D01*
X143757050Y-80641569D01*
X143752538Y-80642906D01*
X143752500Y-80642908D01*
X143748313Y-80641696D01*
X143738464Y-80638325D01*
X143724081Y-80633196D01*
X143706293Y-80626711D01*
X143687186Y-80619631D01*
X143592321Y-80587632D01*
X143497062Y-80562437D01*
X143400220Y-80543778D01*
X143300607Y-80531392D01*
X143286236Y-80530132D01*
X143240681Y-80527493D01*
X143190328Y-80526601D01*
X143136972Y-80527365D01*
X143136972Y-80527365D01*
G37*
X143136972Y-80527365D02*
X143082406Y-80529691D01*
X143028426Y-80533486D01*
X142976826Y-80538657D01*
X142929401Y-80545111D01*
X142900914Y-80550096D01*
X142797641Y-80573705D01*
X142697626Y-80603741D01*
X142600982Y-80640145D01*
X142507825Y-80682855D01*
X142418269Y-80731813D01*
X142332427Y-80786959D01*
X142250416Y-80848231D01*
X142172348Y-80915570D01*
X142133172Y-80953140D01*
X142061453Y-81029408D01*
X141995932Y-81109425D01*
X141936663Y-81193084D01*
X141883698Y-81280276D01*
X141837089Y-81370893D01*
X141796889Y-81464826D01*
X141763150Y-81561968D01*
X141735924Y-81662210D01*
X141715264Y-81765443D01*
X141704845Y-81838529D01*
X141702088Y-81867839D01*
X141700035Y-81902736D01*
X141698687Y-81941581D01*
X141698044Y-81982739D01*
X141698106Y-82024571D01*
X141698873Y-82065442D01*
X141700344Y-82103713D01*
X141702520Y-82137749D01*
X141704845Y-82161472D01*
X141720939Y-82266563D01*
X141743676Y-82368859D01*
X141772963Y-82468194D01*
X141808708Y-82564403D01*
X141850818Y-82657320D01*
X141899202Y-82746781D01*
X141953767Y-82832621D01*
X142014421Y-82914673D01*
X142081073Y-82992774D01*
X142153629Y-83066757D01*
X142231998Y-83136458D01*
X142262286Y-83160999D01*
X142342200Y-83219585D01*
X142426663Y-83272776D01*
X142515087Y-83320301D01*
X142606882Y-83361889D01*
X142701459Y-83397272D01*
X142798232Y-83426179D01*
X142882771Y-83445656D01*
X142917286Y-83452346D01*
X142947861Y-83457789D01*
X142975884Y-83462106D01*
X143002741Y-83465422D01*
X143029820Y-83467859D01*
X143058507Y-83469541D01*
X143090190Y-83470591D01*
X143126256Y-83471132D01*
X143168091Y-83471287D01*
X143171243Y-83471287D01*
X143206489Y-83471223D01*
X143235646Y-83471020D01*
X143259881Y-83470625D01*
X143280359Y-83469986D01*
X143298250Y-83469051D01*
X143314718Y-83467768D01*
X143330932Y-83466084D01*
X143348059Y-83463947D01*
X143354486Y-83463083D01*
X143440461Y-83449096D01*
X143523727Y-83431054D01*
X143603027Y-83409266D01*
X143677106Y-83384043D01*
X143681767Y-83382271D01*
X143700175Y-83375257D01*
X143717048Y-83368893D01*
X143730787Y-83363778D01*
X143739791Y-83360509D01*
X143741215Y-83360017D01*
X143746298Y-83358841D01*
X143752267Y-83358921D01*
X143760332Y-83360567D01*
X143771705Y-83364089D01*
X143787597Y-83369798D01*
X143804715Y-83376276D01*
X143883262Y-83404194D01*
X143959770Y-83426830D01*
X144036388Y-83444688D01*
X144115265Y-83458272D01*
X144194971Y-83467746D01*
X144224357Y-83469933D01*
X144258990Y-83471485D01*
X144297071Y-83472400D01*
X144336798Y-83472680D01*
X144376369Y-83472325D01*
X144413984Y-83471337D01*
X144447840Y-83469715D01*
X144474306Y-83467646D01*
X144577391Y-83453822D01*
X144678514Y-83433040D01*
X144777469Y-83405384D01*
X144874054Y-83370937D01*
X144968066Y-83329781D01*
X145059300Y-83282000D01*
X145147554Y-83227677D01*
X145232623Y-83166894D01*
X145255857Y-83148718D01*
X145278833Y-83129466D01*
X145305244Y-83105781D01*
X145333919Y-83078838D01*
X145363686Y-83049812D01*
X145393373Y-83019878D01*
X145421808Y-82990210D01*
X145447821Y-82961983D01*
X145470238Y-82936372D01*
X145482348Y-82921657D01*
X145544053Y-82838461D01*
X145599716Y-82751539D01*
X145649128Y-82661297D01*
X145692076Y-82568138D01*
X145728351Y-82472471D01*
X145747992Y-82410029D01*
X145772607Y-82312195D01*
X145790390Y-82212561D01*
X145801339Y-82111717D01*
X145805455Y-82010251D01*
X145805367Y-82006944D01*
X145377760Y-82006944D01*
X145377556Y-82041625D01*
X145376823Y-82074928D01*
X145375559Y-82105445D01*
X145373764Y-82131769D01*
X145371437Y-82152493D01*
X145371006Y-82155254D01*
X145356671Y-82229065D01*
X145338534Y-82298627D01*
X145328367Y-82331017D01*
X145298371Y-82410265D01*
X145262240Y-82485972D01*
X145220313Y-82557874D01*
X145172927Y-82625710D01*
X145120423Y-82689217D01*
X145063139Y-82748134D01*
X145001413Y-82802196D01*
X144935585Y-82851143D01*
X144865993Y-82894712D01*
X144792976Y-82932640D01*
X144716872Y-82964665D01*
X144638021Y-82990524D01*
X144556761Y-83009956D01*
X144473431Y-83022698D01*
X144430332Y-83026530D01*
X144407298Y-83028061D01*
X144389518Y-83029106D01*
X144375008Y-83029670D01*
X144361782Y-83029757D01*
X144347853Y-83029372D01*
X144331238Y-83028520D01*
X144309950Y-83027205D01*
X144303876Y-83026818D01*
X144237114Y-83020894D01*
X144175025Y-83011803D01*
X144115600Y-82999213D01*
X144082014Y-82990307D01*
X144031243Y-82973974D01*
X143977817Y-82953346D01*
X143923975Y-82929444D01*
X143871954Y-82903290D01*
X143823993Y-82875904D01*
X143805312Y-82864093D01*
X143764468Y-82837381D01*
X143727298Y-82862071D01*
X143657561Y-82904117D01*
X143583894Y-82940419D01*
X143507050Y-82970778D01*
X143427785Y-82994992D01*
X143346851Y-83012861D01*
X143265004Y-83024184D01*
X143182997Y-83028760D01*
X143108047Y-83026839D01*
X143020788Y-83017597D01*
X142935967Y-83001568D01*
X142853708Y-82978796D01*
X142774136Y-82949322D01*
X142697377Y-82913189D01*
X142623554Y-82870440D01*
X142592486Y-82849858D01*
X142523239Y-82797851D01*
X142459289Y-82740974D01*
X142400793Y-82679476D01*
X142347906Y-82613608D01*
X142300784Y-82543620D01*
X142259581Y-82469761D01*
X142224454Y-82392283D01*
X142195558Y-82311435D01*
X142173049Y-82227468D01*
X142158832Y-82152400D01*
X142155922Y-82128455D01*
X142153580Y-82099087D01*
X142151851Y-82066112D01*
X142150778Y-82031345D01*
X142150405Y-81996601D01*
X142150776Y-81963696D01*
X142151935Y-81934445D01*
X142153163Y-81917912D01*
X142164769Y-81831857D01*
X142183192Y-81748034D01*
X142208262Y-81666748D01*
X142239809Y-81588302D01*
X142277664Y-81512997D01*
X142321657Y-81441138D01*
X142371618Y-81373026D01*
X142427378Y-81308965D01*
X142488766Y-81249258D01*
X142555613Y-81194208D01*
X142560935Y-81190206D01*
X142631207Y-81142204D01*
X142705089Y-81100462D01*
X142782404Y-81065051D01*
X142862975Y-81036042D01*
X142946625Y-81013503D01*
X143033178Y-80997505D01*
X143055129Y-80994551D01*
X143075973Y-80992627D01*
X143102310Y-80991229D01*
X143132391Y-80990359D01*
X143164470Y-80990020D01*
X143196801Y-80990213D01*
X143227636Y-80990941D01*
X143255229Y-80992206D01*
X143277833Y-80994011D01*
X143280100Y-80994260D01*
X143364991Y-81007594D01*
X143448403Y-81027944D01*
X143529867Y-81055142D01*
X143608914Y-81089017D01*
X143685076Y-81129401D01*
X143729447Y-81156850D01*
X143765137Y-81180186D01*
X143803833Y-81154476D01*
X143824865Y-81141381D01*
X143850953Y-81126502D01*
X143880396Y-81110698D01*
X143911490Y-81094828D01*
X143942532Y-81079749D01*
X143971821Y-81066319D01*
X143997653Y-81055399D01*
X144008935Y-81051076D01*
X144090118Y-81025212D01*
X144172535Y-81006317D01*
X144255743Y-80994340D01*
X144339298Y-80989227D01*
X144422757Y-80990927D01*
X144505676Y-80999387D01*
X144587611Y-81014556D01*
X144668120Y-81036381D01*
X144746759Y-81064810D01*
X144823083Y-81099790D01*
X144896651Y-81141270D01*
X144923840Y-81158758D01*
X144957051Y-81181502D01*
X144986240Y-81203002D01*
X145013326Y-81224835D01*
X145040227Y-81248576D01*
X145068860Y-81275804D01*
X145081906Y-81288700D01*
X145110999Y-81318442D01*
X145135971Y-81345748D01*
X145158455Y-81372606D01*
X145180082Y-81401003D01*
X145202487Y-81432926D01*
X145211728Y-81446670D01*
X145255647Y-81519151D01*
X145293244Y-81595173D01*
X145324492Y-81674657D01*
X145349359Y-81757527D01*
X145367817Y-81843705D01*
X145370860Y-81862115D01*
X145373294Y-81882579D01*
X145375201Y-81908702D01*
X145376582Y-81939075D01*
X145377435Y-81972292D01*
X145377760Y-82006944D01*
X145805367Y-82006944D01*
X145802739Y-81908753D01*
X145793189Y-81807811D01*
X145776807Y-81708015D01*
X145753592Y-81609954D01*
X145747946Y-81589972D01*
X145730807Y-81534365D01*
X145712648Y-81482582D01*
X145692539Y-81432296D01*
X145669548Y-81381178D01*
X145642744Y-81326900D01*
X145642713Y-81326841D01*
X145600119Y-81249056D01*
X145554361Y-81176127D01*
X145504528Y-81106824D01*
X145449706Y-81039918D01*
X145388986Y-80974180D01*
X145358821Y-80943991D01*
X145282101Y-80873870D01*
X145201780Y-80810048D01*
X145117834Y-80752511D01*
X145030242Y-80701246D01*
X144938981Y-80656239D01*
X144844027Y-80617477D01*
X144796843Y-80600990D01*
X144711867Y-80575353D01*
X144628522Y-80555422D01*
X144545164Y-80540937D01*
X144460148Y-80531634D01*
X144371832Y-80527250D01*
X144332061Y-80526813D01*
X144228164Y-80530202D01*
X144126607Y-80540428D01*
X144027195Y-80557527D01*
X143929735Y-80581534D01*
X143834031Y-80612486D01*
X143796597Y-80626662D01*
X143780496Y-80632926D01*
X143766841Y-80638069D01*
X143757050Y-80641569D01*
X143752538Y-80642906D01*
X143752500Y-80642908D01*
X143748313Y-80641696D01*
X143738464Y-80638325D01*
X143724081Y-80633196D01*
X143706293Y-80626711D01*
X143687186Y-80619631D01*
X143592321Y-80587632D01*
X143497062Y-80562437D01*
X143400220Y-80543778D01*
X143300607Y-80531392D01*
X143286236Y-80530132D01*
X143240681Y-80527493D01*
X143190328Y-80526601D01*
X143136972Y-80527365D01*
D12*
X139446040Y-73965980D02*
X136395500Y-71174520D01*
X139446040Y-73965980D02*
X154426960Y-73965980D01*
X157477500Y-71174520D02*
X154426960Y-73965980D01*
X157477500Y-71174520D02*
X157477500Y-62025440D01*
X136395500Y-71174520D02*
X136395500Y-62025440D01*
X141345960Y-58725980D02*
X136395500Y-62025440D01*
X152527040Y-58725980D02*
X157477500Y-62025440D01*
X151805680Y-59145080D02*
X152527040Y-58725980D01*
X150716020Y-59594660D02*
X151805680Y-59145080D01*
X149715260Y-59914700D02*
X150716020Y-59594660D01*
X148485900Y-60156000D02*
X149715260Y-59914700D01*
X146936500Y-60244900D02*
X148485900Y-60156000D01*
X145486160Y-60166160D02*
X146936500Y-60244900D01*
X143855480Y-59846120D02*
X145486160Y-60166160D01*
X142925840Y-59515920D02*
X143855480Y-59846120D01*
X142077480Y-59145080D02*
X142925840Y-59515920D01*
X141345960Y-58725980D02*
X142077480Y-59145080D01*
X154350760Y-91104120D02*
X157401300Y-93895580D01*
X154350760Y-91104120D02*
X139369840Y-91104120D01*
X136319300Y-93895580D02*
X139369840Y-91104120D01*
X136319300Y-93895580D02*
X136319300Y-103044660D01*
X157401300Y-93895580D02*
X157401300Y-103044660D01*
X152450840Y-106344120D02*
X157401300Y-103044660D01*
X141269760Y-106344120D02*
X136319300Y-103044660D01*
X141991120Y-105925020D02*
X141269760Y-106344120D01*
X143080780Y-105475440D02*
X141991120Y-105925020D01*
X144081540Y-105155400D02*
X143080780Y-105475440D01*
X145310900Y-104914100D02*
X144081540Y-105155400D01*
X146860300Y-104825200D02*
X145310900Y-104914100D01*
X148310640Y-104903940D02*
X146860300Y-104825200D01*
X149941320Y-105223980D02*
X148310640Y-104903940D01*
X150870960Y-105554180D02*
X149941320Y-105223980D01*
X151719320Y-105925020D02*
X150870960Y-105554180D01*
X152450840Y-106344120D02*
X151719320Y-105925020D01*
M02*
