G04 #@! TF.GenerationSoftware,KiCad,Pcbnew,(5.1.0)-1*
G04 #@! TF.CreationDate,2019-03-26T08:32:57+01:00*
G04 #@! TF.ProjectId,node,6e6f6465-2e6b-4696-9361-645f70636258,rev?*
G04 #@! TF.SameCoordinates,Original*
G04 #@! TF.FileFunction,Soldermask,Top*
G04 #@! TF.FilePolarity,Negative*
%FSLAX46Y46*%
G04 Gerber Fmt 4.6, Leading zero omitted, Abs format (unit mm)*
G04 Created by KiCad (PCBNEW (5.1.0)-1) date 2019-03-26 08:32:57*
%MOMM*%
%LPD*%
G04 APERTURE LIST*
%ADD10C,0.100000*%
G04 APERTURE END LIST*
D10*
G36*
X144326000Y-99976000D02*
G01*
X141424000Y-99976000D01*
X141424000Y-98574000D01*
X144326000Y-98574000D01*
X144326000Y-99976000D01*
X144326000Y-99976000D01*
G37*
G36*
X146976000Y-97176000D02*
G01*
X145074000Y-97176000D01*
X145074000Y-94874000D01*
X146976000Y-94874000D01*
X146976000Y-97176000D01*
X146976000Y-97176000D01*
G37*
G36*
X140676000Y-97176000D02*
G01*
X138774000Y-97176000D01*
X138774000Y-94874000D01*
X140676000Y-94874000D01*
X140676000Y-97176000D01*
X140676000Y-97176000D01*
G37*
G36*
X159469683Y-91852725D02*
G01*
X159500143Y-91861966D01*
X159528223Y-91876974D01*
X159552831Y-91897169D01*
X159573026Y-91921777D01*
X159588034Y-91949857D01*
X159597275Y-91980317D01*
X159601000Y-92018140D01*
X159601000Y-92581860D01*
X159597275Y-92619683D01*
X159588034Y-92650143D01*
X159573026Y-92678223D01*
X159552831Y-92702831D01*
X159528223Y-92723026D01*
X159500143Y-92738034D01*
X159469683Y-92747275D01*
X159431860Y-92751000D01*
X158368140Y-92751000D01*
X158330317Y-92747275D01*
X158299857Y-92738034D01*
X158271777Y-92723026D01*
X158247169Y-92702831D01*
X158226974Y-92678223D01*
X158211966Y-92650143D01*
X158202725Y-92619683D01*
X158199000Y-92581860D01*
X158199000Y-92018140D01*
X158202725Y-91980317D01*
X158211966Y-91949857D01*
X158226974Y-91921777D01*
X158247169Y-91897169D01*
X158271777Y-91876974D01*
X158299857Y-91861966D01*
X158330317Y-91852725D01*
X158368140Y-91849000D01*
X159431860Y-91849000D01*
X159469683Y-91852725D01*
X159469683Y-91852725D01*
G37*
G36*
X135438410Y-91805525D02*
G01*
X135523426Y-91831314D01*
X135601775Y-91873193D01*
X135670449Y-91929551D01*
X135726807Y-91998225D01*
X135768686Y-92076574D01*
X135794475Y-92161590D01*
X135803182Y-92250000D01*
X135794475Y-92338410D01*
X135768686Y-92423426D01*
X135726807Y-92501775D01*
X135670449Y-92570449D01*
X135601775Y-92626807D01*
X135523426Y-92668686D01*
X135438410Y-92694475D01*
X135372158Y-92701000D01*
X134827842Y-92701000D01*
X134761590Y-92694475D01*
X134676574Y-92668686D01*
X134598225Y-92626807D01*
X134529551Y-92570449D01*
X134473193Y-92501775D01*
X134431314Y-92423426D01*
X134405525Y-92338410D01*
X134396818Y-92250000D01*
X134405525Y-92161590D01*
X134431314Y-92076574D01*
X134473193Y-91998225D01*
X134529551Y-91929551D01*
X134598225Y-91873193D01*
X134676574Y-91831314D01*
X134761590Y-91805525D01*
X134827842Y-91799000D01*
X135372158Y-91799000D01*
X135438410Y-91805525D01*
X135438410Y-91805525D01*
G37*
G36*
X159238410Y-90605525D02*
G01*
X159323426Y-90631314D01*
X159401775Y-90673193D01*
X159470449Y-90729551D01*
X159526807Y-90798225D01*
X159568686Y-90876574D01*
X159594475Y-90961590D01*
X159603182Y-91050000D01*
X159594475Y-91138410D01*
X159568686Y-91223426D01*
X159526807Y-91301775D01*
X159470449Y-91370449D01*
X159401775Y-91426807D01*
X159323426Y-91468686D01*
X159238410Y-91494475D01*
X159172158Y-91501000D01*
X158627842Y-91501000D01*
X158561590Y-91494475D01*
X158476574Y-91468686D01*
X158398225Y-91426807D01*
X158329551Y-91370449D01*
X158273193Y-91301775D01*
X158231314Y-91223426D01*
X158205525Y-91138410D01*
X158196818Y-91050000D01*
X158205525Y-90961590D01*
X158231314Y-90876574D01*
X158273193Y-90798225D01*
X158329551Y-90729551D01*
X158398225Y-90673193D01*
X158476574Y-90631314D01*
X158561590Y-90605525D01*
X158627842Y-90599000D01*
X159172158Y-90599000D01*
X159238410Y-90605525D01*
X159238410Y-90605525D01*
G37*
G36*
X135669683Y-90552725D02*
G01*
X135700143Y-90561966D01*
X135728223Y-90576974D01*
X135752831Y-90597169D01*
X135773026Y-90621777D01*
X135788034Y-90649857D01*
X135797275Y-90680317D01*
X135801000Y-90718140D01*
X135801000Y-91281860D01*
X135797275Y-91319683D01*
X135788034Y-91350143D01*
X135773026Y-91378223D01*
X135752831Y-91402831D01*
X135728223Y-91423026D01*
X135700143Y-91438034D01*
X135669683Y-91447275D01*
X135631860Y-91451000D01*
X134568140Y-91451000D01*
X134530317Y-91447275D01*
X134499857Y-91438034D01*
X134471777Y-91423026D01*
X134447169Y-91402831D01*
X134426974Y-91378223D01*
X134411966Y-91350143D01*
X134402725Y-91319683D01*
X134399000Y-91281860D01*
X134399000Y-90718140D01*
X134402725Y-90680317D01*
X134411966Y-90649857D01*
X134426974Y-90621777D01*
X134447169Y-90597169D01*
X134471777Y-90576974D01*
X134499857Y-90561966D01*
X134530317Y-90552725D01*
X134568140Y-90549000D01*
X135631860Y-90549000D01*
X135669683Y-90552725D01*
X135669683Y-90552725D01*
G37*
G36*
X134901000Y-86901000D02*
G01*
X133099000Y-86901000D01*
X133099000Y-85099000D01*
X134901000Y-85099000D01*
X134901000Y-86901000D01*
X134901000Y-86901000D01*
G37*
G36*
X160901000Y-86901000D02*
G01*
X159099000Y-86901000D01*
X159099000Y-85099000D01*
X160901000Y-85099000D01*
X160901000Y-86901000D01*
X160901000Y-86901000D01*
G37*
G36*
X131570443Y-85105519D02*
G01*
X131636627Y-85112037D01*
X131806466Y-85163557D01*
X131962991Y-85247222D01*
X131998729Y-85276552D01*
X132100186Y-85359814D01*
X132183448Y-85461271D01*
X132212778Y-85497009D01*
X132296443Y-85653534D01*
X132347963Y-85823373D01*
X132365359Y-86000000D01*
X132347963Y-86176627D01*
X132296443Y-86346466D01*
X132212778Y-86502991D01*
X132190902Y-86529647D01*
X132100186Y-86640186D01*
X131998729Y-86723448D01*
X131962991Y-86752778D01*
X131806466Y-86836443D01*
X131636627Y-86887963D01*
X131570442Y-86894482D01*
X131504260Y-86901000D01*
X131415740Y-86901000D01*
X131349558Y-86894482D01*
X131283373Y-86887963D01*
X131113534Y-86836443D01*
X130957009Y-86752778D01*
X130921271Y-86723448D01*
X130819814Y-86640186D01*
X130729098Y-86529647D01*
X130707222Y-86502991D01*
X130623557Y-86346466D01*
X130572037Y-86176627D01*
X130554641Y-86000000D01*
X130572037Y-85823373D01*
X130623557Y-85653534D01*
X130707222Y-85497009D01*
X130736552Y-85461271D01*
X130819814Y-85359814D01*
X130921271Y-85276552D01*
X130957009Y-85247222D01*
X131113534Y-85163557D01*
X131283373Y-85112037D01*
X131349557Y-85105519D01*
X131415740Y-85099000D01*
X131504260Y-85099000D01*
X131570443Y-85105519D01*
X131570443Y-85105519D01*
G37*
G36*
X129030443Y-85105519D02*
G01*
X129096627Y-85112037D01*
X129266466Y-85163557D01*
X129422991Y-85247222D01*
X129458729Y-85276552D01*
X129560186Y-85359814D01*
X129643448Y-85461271D01*
X129672778Y-85497009D01*
X129756443Y-85653534D01*
X129807963Y-85823373D01*
X129825359Y-86000000D01*
X129807963Y-86176627D01*
X129756443Y-86346466D01*
X129672778Y-86502991D01*
X129650902Y-86529647D01*
X129560186Y-86640186D01*
X129458729Y-86723448D01*
X129422991Y-86752778D01*
X129266466Y-86836443D01*
X129096627Y-86887963D01*
X129030442Y-86894482D01*
X128964260Y-86901000D01*
X128875740Y-86901000D01*
X128809558Y-86894482D01*
X128743373Y-86887963D01*
X128573534Y-86836443D01*
X128417009Y-86752778D01*
X128381271Y-86723448D01*
X128279814Y-86640186D01*
X128189098Y-86529647D01*
X128167222Y-86502991D01*
X128083557Y-86346466D01*
X128032037Y-86176627D01*
X128014641Y-86000000D01*
X128032037Y-85823373D01*
X128083557Y-85653534D01*
X128167222Y-85497009D01*
X128196552Y-85461271D01*
X128279814Y-85359814D01*
X128381271Y-85276552D01*
X128417009Y-85247222D01*
X128573534Y-85163557D01*
X128743373Y-85112037D01*
X128809557Y-85105519D01*
X128875740Y-85099000D01*
X128964260Y-85099000D01*
X129030443Y-85105519D01*
X129030443Y-85105519D01*
G37*
G36*
X126490443Y-85105519D02*
G01*
X126556627Y-85112037D01*
X126726466Y-85163557D01*
X126882991Y-85247222D01*
X126918729Y-85276552D01*
X127020186Y-85359814D01*
X127103448Y-85461271D01*
X127132778Y-85497009D01*
X127216443Y-85653534D01*
X127267963Y-85823373D01*
X127285359Y-86000000D01*
X127267963Y-86176627D01*
X127216443Y-86346466D01*
X127132778Y-86502991D01*
X127110902Y-86529647D01*
X127020186Y-86640186D01*
X126918729Y-86723448D01*
X126882991Y-86752778D01*
X126726466Y-86836443D01*
X126556627Y-86887963D01*
X126490442Y-86894482D01*
X126424260Y-86901000D01*
X126335740Y-86901000D01*
X126269558Y-86894482D01*
X126203373Y-86887963D01*
X126033534Y-86836443D01*
X125877009Y-86752778D01*
X125841271Y-86723448D01*
X125739814Y-86640186D01*
X125649098Y-86529647D01*
X125627222Y-86502991D01*
X125543557Y-86346466D01*
X125492037Y-86176627D01*
X125474641Y-86000000D01*
X125492037Y-85823373D01*
X125543557Y-85653534D01*
X125627222Y-85497009D01*
X125656552Y-85461271D01*
X125739814Y-85359814D01*
X125841271Y-85276552D01*
X125877009Y-85247222D01*
X126033534Y-85163557D01*
X126203373Y-85112037D01*
X126269557Y-85105519D01*
X126335740Y-85099000D01*
X126424260Y-85099000D01*
X126490443Y-85105519D01*
X126490443Y-85105519D01*
G37*
G36*
X165190443Y-85105519D02*
G01*
X165256627Y-85112037D01*
X165426466Y-85163557D01*
X165582991Y-85247222D01*
X165618729Y-85276552D01*
X165720186Y-85359814D01*
X165803448Y-85461271D01*
X165832778Y-85497009D01*
X165916443Y-85653534D01*
X165967963Y-85823373D01*
X165985359Y-86000000D01*
X165967963Y-86176627D01*
X165916443Y-86346466D01*
X165832778Y-86502991D01*
X165810902Y-86529647D01*
X165720186Y-86640186D01*
X165618729Y-86723448D01*
X165582991Y-86752778D01*
X165426466Y-86836443D01*
X165256627Y-86887963D01*
X165190442Y-86894482D01*
X165124260Y-86901000D01*
X165035740Y-86901000D01*
X164969558Y-86894482D01*
X164903373Y-86887963D01*
X164733534Y-86836443D01*
X164577009Y-86752778D01*
X164541271Y-86723448D01*
X164439814Y-86640186D01*
X164349098Y-86529647D01*
X164327222Y-86502991D01*
X164243557Y-86346466D01*
X164192037Y-86176627D01*
X164174641Y-86000000D01*
X164192037Y-85823373D01*
X164243557Y-85653534D01*
X164327222Y-85497009D01*
X164356552Y-85461271D01*
X164439814Y-85359814D01*
X164541271Y-85276552D01*
X164577009Y-85247222D01*
X164733534Y-85163557D01*
X164903373Y-85112037D01*
X164969557Y-85105519D01*
X165035740Y-85099000D01*
X165124260Y-85099000D01*
X165190443Y-85105519D01*
X165190443Y-85105519D01*
G37*
G36*
X162650443Y-85105519D02*
G01*
X162716627Y-85112037D01*
X162886466Y-85163557D01*
X163042991Y-85247222D01*
X163078729Y-85276552D01*
X163180186Y-85359814D01*
X163263448Y-85461271D01*
X163292778Y-85497009D01*
X163376443Y-85653534D01*
X163427963Y-85823373D01*
X163445359Y-86000000D01*
X163427963Y-86176627D01*
X163376443Y-86346466D01*
X163292778Y-86502991D01*
X163270902Y-86529647D01*
X163180186Y-86640186D01*
X163078729Y-86723448D01*
X163042991Y-86752778D01*
X162886466Y-86836443D01*
X162716627Y-86887963D01*
X162650442Y-86894482D01*
X162584260Y-86901000D01*
X162495740Y-86901000D01*
X162429558Y-86894482D01*
X162363373Y-86887963D01*
X162193534Y-86836443D01*
X162037009Y-86752778D01*
X162001271Y-86723448D01*
X161899814Y-86640186D01*
X161809098Y-86529647D01*
X161787222Y-86502991D01*
X161703557Y-86346466D01*
X161652037Y-86176627D01*
X161634641Y-86000000D01*
X161652037Y-85823373D01*
X161703557Y-85653534D01*
X161787222Y-85497009D01*
X161816552Y-85461271D01*
X161899814Y-85359814D01*
X162001271Y-85276552D01*
X162037009Y-85247222D01*
X162193534Y-85163557D01*
X162363373Y-85112037D01*
X162429557Y-85105519D01*
X162495740Y-85099000D01*
X162584260Y-85099000D01*
X162650443Y-85105519D01*
X162650443Y-85105519D01*
G37*
G36*
X167730443Y-85105519D02*
G01*
X167796627Y-85112037D01*
X167966466Y-85163557D01*
X168122991Y-85247222D01*
X168158729Y-85276552D01*
X168260186Y-85359814D01*
X168343448Y-85461271D01*
X168372778Y-85497009D01*
X168456443Y-85653534D01*
X168507963Y-85823373D01*
X168525359Y-86000000D01*
X168507963Y-86176627D01*
X168456443Y-86346466D01*
X168372778Y-86502991D01*
X168350902Y-86529647D01*
X168260186Y-86640186D01*
X168158729Y-86723448D01*
X168122991Y-86752778D01*
X167966466Y-86836443D01*
X167796627Y-86887963D01*
X167730442Y-86894482D01*
X167664260Y-86901000D01*
X167575740Y-86901000D01*
X167509558Y-86894482D01*
X167443373Y-86887963D01*
X167273534Y-86836443D01*
X167117009Y-86752778D01*
X167081271Y-86723448D01*
X166979814Y-86640186D01*
X166889098Y-86529647D01*
X166867222Y-86502991D01*
X166783557Y-86346466D01*
X166732037Y-86176627D01*
X166714641Y-86000000D01*
X166732037Y-85823373D01*
X166783557Y-85653534D01*
X166867222Y-85497009D01*
X166896552Y-85461271D01*
X166979814Y-85359814D01*
X167081271Y-85276552D01*
X167117009Y-85247222D01*
X167273534Y-85163557D01*
X167443373Y-85112037D01*
X167509557Y-85105519D01*
X167575740Y-85099000D01*
X167664260Y-85099000D01*
X167730443Y-85105519D01*
X167730443Y-85105519D01*
G37*
G36*
X153587797Y-86210567D02*
G01*
X153642575Y-86233257D01*
X153642577Y-86233258D01*
X153691876Y-86266198D01*
X153733802Y-86308124D01*
X153759421Y-86346466D01*
X153771067Y-86363896D01*
X153786612Y-86382838D01*
X153805554Y-86398383D01*
X153827165Y-86409934D01*
X153850614Y-86417047D01*
X153875000Y-86419449D01*
X153899386Y-86417047D01*
X153922835Y-86409934D01*
X153944446Y-86398383D01*
X153963388Y-86382838D01*
X153978933Y-86363896D01*
X153990579Y-86346466D01*
X154016198Y-86308124D01*
X154058124Y-86266198D01*
X154107423Y-86233258D01*
X154107425Y-86233257D01*
X154162203Y-86210567D01*
X154220353Y-86199000D01*
X154279647Y-86199000D01*
X154337797Y-86210567D01*
X154392575Y-86233257D01*
X154392577Y-86233258D01*
X154441876Y-86266198D01*
X154483802Y-86308124D01*
X154509421Y-86346466D01*
X154521067Y-86363896D01*
X154536612Y-86382838D01*
X154555554Y-86398383D01*
X154577165Y-86409934D01*
X154600614Y-86417047D01*
X154625000Y-86419449D01*
X154649386Y-86417047D01*
X154672835Y-86409934D01*
X154694446Y-86398383D01*
X154713388Y-86382838D01*
X154728933Y-86363896D01*
X154740579Y-86346466D01*
X154766198Y-86308124D01*
X154808124Y-86266198D01*
X154857423Y-86233258D01*
X154857425Y-86233257D01*
X154912203Y-86210567D01*
X154970353Y-86199000D01*
X155029647Y-86199000D01*
X155087797Y-86210567D01*
X155142575Y-86233257D01*
X155142577Y-86233258D01*
X155191876Y-86266198D01*
X155233802Y-86308124D01*
X155259422Y-86346468D01*
X155266743Y-86357425D01*
X155289433Y-86412203D01*
X155301000Y-86470353D01*
X155301000Y-86529647D01*
X155289433Y-86587797D01*
X155266743Y-86642575D01*
X155266742Y-86642577D01*
X155233802Y-86691876D01*
X155191876Y-86733802D01*
X155142577Y-86766742D01*
X155142576Y-86766743D01*
X155142575Y-86766743D01*
X155087797Y-86789433D01*
X155029647Y-86801000D01*
X154970353Y-86801000D01*
X154912203Y-86789433D01*
X154857425Y-86766743D01*
X154857424Y-86766743D01*
X154857423Y-86766742D01*
X154808124Y-86733802D01*
X154766198Y-86691876D01*
X154733258Y-86642577D01*
X154733257Y-86642575D01*
X154728933Y-86636104D01*
X154713388Y-86617162D01*
X154694446Y-86601617D01*
X154672835Y-86590066D01*
X154649386Y-86582953D01*
X154625000Y-86580551D01*
X154600614Y-86582953D01*
X154577165Y-86590066D01*
X154555554Y-86601617D01*
X154536612Y-86617162D01*
X154521067Y-86636104D01*
X154516743Y-86642575D01*
X154516742Y-86642577D01*
X154483802Y-86691876D01*
X154441876Y-86733802D01*
X154392577Y-86766742D01*
X154392576Y-86766743D01*
X154392575Y-86766743D01*
X154337797Y-86789433D01*
X154279647Y-86801000D01*
X154220353Y-86801000D01*
X154162203Y-86789433D01*
X154107425Y-86766743D01*
X154107424Y-86766743D01*
X154107423Y-86766742D01*
X154058124Y-86733802D01*
X154016198Y-86691876D01*
X153983258Y-86642577D01*
X153983257Y-86642575D01*
X153978933Y-86636104D01*
X153963388Y-86617162D01*
X153944446Y-86601617D01*
X153922835Y-86590066D01*
X153899386Y-86582953D01*
X153875000Y-86580551D01*
X153850614Y-86582953D01*
X153827165Y-86590066D01*
X153805554Y-86601617D01*
X153786612Y-86617162D01*
X153771067Y-86636104D01*
X153766743Y-86642575D01*
X153766742Y-86642577D01*
X153733802Y-86691876D01*
X153691876Y-86733802D01*
X153642577Y-86766742D01*
X153642576Y-86766743D01*
X153642575Y-86766743D01*
X153587797Y-86789433D01*
X153529647Y-86801000D01*
X153470353Y-86801000D01*
X153412203Y-86789433D01*
X153357425Y-86766743D01*
X153357424Y-86766743D01*
X153357423Y-86766742D01*
X153308124Y-86733802D01*
X153266198Y-86691876D01*
X153233258Y-86642577D01*
X153233257Y-86642575D01*
X153210567Y-86587797D01*
X153199000Y-86529647D01*
X153199000Y-86470353D01*
X153210567Y-86412203D01*
X153233257Y-86357425D01*
X153240578Y-86346468D01*
X153266198Y-86308124D01*
X153308124Y-86266198D01*
X153357423Y-86233258D01*
X153357425Y-86233257D01*
X153412203Y-86210567D01*
X153470353Y-86199000D01*
X153529647Y-86199000D01*
X153587797Y-86210567D01*
X153587797Y-86210567D01*
G37*
G36*
X139087797Y-86210567D02*
G01*
X139142575Y-86233257D01*
X139142577Y-86233258D01*
X139191876Y-86266198D01*
X139233802Y-86308124D01*
X139259421Y-86346466D01*
X139271067Y-86363896D01*
X139286612Y-86382838D01*
X139305554Y-86398383D01*
X139327165Y-86409934D01*
X139350614Y-86417047D01*
X139375000Y-86419449D01*
X139399386Y-86417047D01*
X139422835Y-86409934D01*
X139444446Y-86398383D01*
X139463388Y-86382838D01*
X139478933Y-86363896D01*
X139490579Y-86346466D01*
X139516198Y-86308124D01*
X139558124Y-86266198D01*
X139607423Y-86233258D01*
X139607425Y-86233257D01*
X139662203Y-86210567D01*
X139720353Y-86199000D01*
X139779647Y-86199000D01*
X139837797Y-86210567D01*
X139892575Y-86233257D01*
X139892577Y-86233258D01*
X139941876Y-86266198D01*
X139983802Y-86308124D01*
X140009421Y-86346466D01*
X140021067Y-86363896D01*
X140036612Y-86382838D01*
X140055554Y-86398383D01*
X140077165Y-86409934D01*
X140100614Y-86417047D01*
X140125000Y-86419449D01*
X140149386Y-86417047D01*
X140172835Y-86409934D01*
X140194446Y-86398383D01*
X140213388Y-86382838D01*
X140228933Y-86363896D01*
X140240579Y-86346466D01*
X140266198Y-86308124D01*
X140308124Y-86266198D01*
X140357423Y-86233258D01*
X140357425Y-86233257D01*
X140412203Y-86210567D01*
X140470353Y-86199000D01*
X140529647Y-86199000D01*
X140587797Y-86210567D01*
X140642575Y-86233257D01*
X140642577Y-86233258D01*
X140691876Y-86266198D01*
X140733802Y-86308124D01*
X140759422Y-86346468D01*
X140766743Y-86357425D01*
X140789433Y-86412203D01*
X140801000Y-86470353D01*
X140801000Y-86529647D01*
X140789433Y-86587797D01*
X140766743Y-86642575D01*
X140766742Y-86642577D01*
X140733802Y-86691876D01*
X140691876Y-86733802D01*
X140642577Y-86766742D01*
X140642576Y-86766743D01*
X140642575Y-86766743D01*
X140587797Y-86789433D01*
X140529647Y-86801000D01*
X140470353Y-86801000D01*
X140412203Y-86789433D01*
X140357425Y-86766743D01*
X140357424Y-86766743D01*
X140357423Y-86766742D01*
X140308124Y-86733802D01*
X140266198Y-86691876D01*
X140233258Y-86642577D01*
X140233257Y-86642575D01*
X140228933Y-86636104D01*
X140213388Y-86617162D01*
X140194446Y-86601617D01*
X140172835Y-86590066D01*
X140149386Y-86582953D01*
X140125000Y-86580551D01*
X140100614Y-86582953D01*
X140077165Y-86590066D01*
X140055554Y-86601617D01*
X140036612Y-86617162D01*
X140021067Y-86636104D01*
X140016743Y-86642575D01*
X140016742Y-86642577D01*
X139983802Y-86691876D01*
X139941876Y-86733802D01*
X139892577Y-86766742D01*
X139892576Y-86766743D01*
X139892575Y-86766743D01*
X139837797Y-86789433D01*
X139779647Y-86801000D01*
X139720353Y-86801000D01*
X139662203Y-86789433D01*
X139607425Y-86766743D01*
X139607424Y-86766743D01*
X139607423Y-86766742D01*
X139558124Y-86733802D01*
X139516198Y-86691876D01*
X139483258Y-86642577D01*
X139483257Y-86642575D01*
X139478933Y-86636104D01*
X139463388Y-86617162D01*
X139444446Y-86601617D01*
X139422835Y-86590066D01*
X139399386Y-86582953D01*
X139375000Y-86580551D01*
X139350614Y-86582953D01*
X139327165Y-86590066D01*
X139305554Y-86601617D01*
X139286612Y-86617162D01*
X139271067Y-86636104D01*
X139266743Y-86642575D01*
X139266742Y-86642577D01*
X139233802Y-86691876D01*
X139191876Y-86733802D01*
X139142577Y-86766742D01*
X139142576Y-86766743D01*
X139142575Y-86766743D01*
X139087797Y-86789433D01*
X139029647Y-86801000D01*
X138970353Y-86801000D01*
X138912203Y-86789433D01*
X138857425Y-86766743D01*
X138857424Y-86766743D01*
X138857423Y-86766742D01*
X138808124Y-86733802D01*
X138766198Y-86691876D01*
X138733258Y-86642577D01*
X138733257Y-86642575D01*
X138710567Y-86587797D01*
X138699000Y-86529647D01*
X138699000Y-86470353D01*
X138710567Y-86412203D01*
X138733257Y-86357425D01*
X138740578Y-86346468D01*
X138766198Y-86308124D01*
X138808124Y-86266198D01*
X138857423Y-86233258D01*
X138857425Y-86233257D01*
X138912203Y-86210567D01*
X138970353Y-86199000D01*
X139029647Y-86199000D01*
X139087797Y-86210567D01*
X139087797Y-86210567D01*
G37*
G36*
X144505578Y-83919197D02*
G01*
X144558350Y-83929694D01*
X144657770Y-83970875D01*
X144747246Y-84030661D01*
X144823339Y-84106754D01*
X144883125Y-84196230D01*
X144924306Y-84295650D01*
X144945300Y-84401194D01*
X144945300Y-84508806D01*
X144924306Y-84614350D01*
X144883125Y-84713770D01*
X144823339Y-84803246D01*
X144747246Y-84879339D01*
X144657770Y-84939125D01*
X144558350Y-84980306D01*
X144505578Y-84990803D01*
X144452807Y-85001300D01*
X144345193Y-85001300D01*
X144292422Y-84990803D01*
X144239650Y-84980306D01*
X144140230Y-84939125D01*
X144050754Y-84879339D01*
X143974661Y-84803246D01*
X143914875Y-84713770D01*
X143873694Y-84614350D01*
X143852700Y-84508806D01*
X143852700Y-84401194D01*
X143873694Y-84295650D01*
X143914875Y-84196230D01*
X143974661Y-84106754D01*
X144050754Y-84030661D01*
X144140230Y-83970875D01*
X144239650Y-83929694D01*
X144292422Y-83919197D01*
X144345193Y-83908700D01*
X144452807Y-83908700D01*
X144505578Y-83919197D01*
X144505578Y-83919197D01*
G37*
G36*
X141988714Y-83646389D02*
G01*
X142069064Y-83679671D01*
X142069645Y-83679912D01*
X142142480Y-83728579D01*
X142204421Y-83790520D01*
X142253088Y-83863355D01*
X142286611Y-83944286D01*
X142303700Y-84030201D01*
X142303700Y-84117799D01*
X142286611Y-84203714D01*
X142253088Y-84284645D01*
X142204421Y-84357480D01*
X142142480Y-84419421D01*
X142069645Y-84468088D01*
X142069644Y-84468089D01*
X142069643Y-84468089D01*
X141988714Y-84501611D01*
X141902801Y-84518700D01*
X141815199Y-84518700D01*
X141729286Y-84501611D01*
X141648357Y-84468089D01*
X141648356Y-84468089D01*
X141648355Y-84468088D01*
X141575520Y-84419421D01*
X141513579Y-84357480D01*
X141464912Y-84284645D01*
X141431389Y-84203714D01*
X141414300Y-84117799D01*
X141414300Y-84030201D01*
X141431389Y-83944286D01*
X141464912Y-83863355D01*
X141513579Y-83790520D01*
X141575520Y-83728579D01*
X141648355Y-83679912D01*
X141648937Y-83679671D01*
X141729286Y-83646389D01*
X141815199Y-83629300D01*
X141902801Y-83629300D01*
X141988714Y-83646389D01*
X141988714Y-83646389D01*
G37*
G36*
X143258714Y-83646389D02*
G01*
X143339064Y-83679671D01*
X143339645Y-83679912D01*
X143412480Y-83728579D01*
X143474421Y-83790520D01*
X143523088Y-83863355D01*
X143556611Y-83944286D01*
X143573700Y-84030201D01*
X143573700Y-84117799D01*
X143556611Y-84203714D01*
X143523088Y-84284645D01*
X143474421Y-84357480D01*
X143412480Y-84419421D01*
X143339645Y-84468088D01*
X143339644Y-84468089D01*
X143339643Y-84468089D01*
X143258714Y-84501611D01*
X143172801Y-84518700D01*
X143085199Y-84518700D01*
X142999286Y-84501611D01*
X142918357Y-84468089D01*
X142918356Y-84468089D01*
X142918355Y-84468088D01*
X142845520Y-84419421D01*
X142783579Y-84357480D01*
X142734912Y-84284645D01*
X142701389Y-84203714D01*
X142684300Y-84117799D01*
X142684300Y-84030201D01*
X142701389Y-83944286D01*
X142734912Y-83863355D01*
X142783579Y-83790520D01*
X142845520Y-83728579D01*
X142918355Y-83679912D01*
X142918937Y-83679671D01*
X142999286Y-83646389D01*
X143085199Y-83629300D01*
X143172801Y-83629300D01*
X143258714Y-83646389D01*
X143258714Y-83646389D01*
G37*
G36*
X140718714Y-83646389D02*
G01*
X140799064Y-83679671D01*
X140799645Y-83679912D01*
X140872480Y-83728579D01*
X140934421Y-83790520D01*
X140983088Y-83863355D01*
X141016611Y-83944286D01*
X141033700Y-84030201D01*
X141033700Y-84117799D01*
X141016611Y-84203714D01*
X140983088Y-84284645D01*
X140934421Y-84357480D01*
X140872480Y-84419421D01*
X140799645Y-84468088D01*
X140799644Y-84468089D01*
X140799643Y-84468089D01*
X140718714Y-84501611D01*
X140632801Y-84518700D01*
X140545199Y-84518700D01*
X140459286Y-84501611D01*
X140378357Y-84468089D01*
X140378356Y-84468089D01*
X140378355Y-84468088D01*
X140305520Y-84419421D01*
X140243579Y-84357480D01*
X140194912Y-84284645D01*
X140161389Y-84203714D01*
X140144300Y-84117799D01*
X140144300Y-84030201D01*
X140161389Y-83944286D01*
X140194912Y-83863355D01*
X140243579Y-83790520D01*
X140305520Y-83728579D01*
X140378355Y-83679912D01*
X140378937Y-83679671D01*
X140459286Y-83646389D01*
X140545199Y-83629300D01*
X140632801Y-83629300D01*
X140718714Y-83646389D01*
X140718714Y-83646389D01*
G37*
G36*
X130756938Y-83631716D02*
G01*
X130777557Y-83637971D01*
X130796553Y-83648124D01*
X130813208Y-83661792D01*
X130826876Y-83678447D01*
X130837029Y-83697443D01*
X130843284Y-83718062D01*
X130846000Y-83745640D01*
X130846000Y-84254360D01*
X130843284Y-84281938D01*
X130837029Y-84302557D01*
X130826876Y-84321553D01*
X130813208Y-84338208D01*
X130796553Y-84351876D01*
X130777557Y-84362029D01*
X130756938Y-84368284D01*
X130729360Y-84371000D01*
X130270640Y-84371000D01*
X130243062Y-84368284D01*
X130222443Y-84362029D01*
X130203447Y-84351876D01*
X130186792Y-84338208D01*
X130173124Y-84321553D01*
X130162971Y-84302557D01*
X130156716Y-84281938D01*
X130154000Y-84254360D01*
X130154000Y-83745640D01*
X130156716Y-83718062D01*
X130162971Y-83697443D01*
X130173124Y-83678447D01*
X130186792Y-83661792D01*
X130203447Y-83648124D01*
X130222443Y-83637971D01*
X130243062Y-83631716D01*
X130270640Y-83629000D01*
X130729360Y-83629000D01*
X130756938Y-83631716D01*
X130756938Y-83631716D01*
G37*
G36*
X129786938Y-83631716D02*
G01*
X129807557Y-83637971D01*
X129826553Y-83648124D01*
X129843208Y-83661792D01*
X129856876Y-83678447D01*
X129867029Y-83697443D01*
X129873284Y-83718062D01*
X129876000Y-83745640D01*
X129876000Y-84254360D01*
X129873284Y-84281938D01*
X129867029Y-84302557D01*
X129856876Y-84321553D01*
X129843208Y-84338208D01*
X129826553Y-84351876D01*
X129807557Y-84362029D01*
X129786938Y-84368284D01*
X129759360Y-84371000D01*
X129300640Y-84371000D01*
X129273062Y-84368284D01*
X129252443Y-84362029D01*
X129233447Y-84351876D01*
X129216792Y-84338208D01*
X129203124Y-84321553D01*
X129192971Y-84302557D01*
X129186716Y-84281938D01*
X129184000Y-84254360D01*
X129184000Y-83745640D01*
X129186716Y-83718062D01*
X129192971Y-83697443D01*
X129203124Y-83678447D01*
X129216792Y-83661792D01*
X129233447Y-83648124D01*
X129252443Y-83637971D01*
X129273062Y-83631716D01*
X129300640Y-83629000D01*
X129759360Y-83629000D01*
X129786938Y-83631716D01*
X129786938Y-83631716D01*
G37*
G36*
X163771938Y-83631716D02*
G01*
X163792557Y-83637971D01*
X163811553Y-83648124D01*
X163828208Y-83661792D01*
X163841876Y-83678447D01*
X163852029Y-83697443D01*
X163858284Y-83718062D01*
X163861000Y-83745640D01*
X163861000Y-84254360D01*
X163858284Y-84281938D01*
X163852029Y-84302557D01*
X163841876Y-84321553D01*
X163828208Y-84338208D01*
X163811553Y-84351876D01*
X163792557Y-84362029D01*
X163771938Y-84368284D01*
X163744360Y-84371000D01*
X163285640Y-84371000D01*
X163258062Y-84368284D01*
X163237443Y-84362029D01*
X163218447Y-84351876D01*
X163201792Y-84338208D01*
X163188124Y-84321553D01*
X163177971Y-84302557D01*
X163171716Y-84281938D01*
X163169000Y-84254360D01*
X163169000Y-83745640D01*
X163171716Y-83718062D01*
X163177971Y-83697443D01*
X163188124Y-83678447D01*
X163201792Y-83661792D01*
X163218447Y-83648124D01*
X163237443Y-83637971D01*
X163258062Y-83631716D01*
X163285640Y-83629000D01*
X163744360Y-83629000D01*
X163771938Y-83631716D01*
X163771938Y-83631716D01*
G37*
G36*
X164741938Y-83631716D02*
G01*
X164762557Y-83637971D01*
X164781553Y-83648124D01*
X164798208Y-83661792D01*
X164811876Y-83678447D01*
X164822029Y-83697443D01*
X164828284Y-83718062D01*
X164831000Y-83745640D01*
X164831000Y-84254360D01*
X164828284Y-84281938D01*
X164822029Y-84302557D01*
X164811876Y-84321553D01*
X164798208Y-84338208D01*
X164781553Y-84351876D01*
X164762557Y-84362029D01*
X164741938Y-84368284D01*
X164714360Y-84371000D01*
X164255640Y-84371000D01*
X164228062Y-84368284D01*
X164207443Y-84362029D01*
X164188447Y-84351876D01*
X164171792Y-84338208D01*
X164158124Y-84321553D01*
X164147971Y-84302557D01*
X164141716Y-84281938D01*
X164139000Y-84254360D01*
X164139000Y-83745640D01*
X164141716Y-83718062D01*
X164147971Y-83697443D01*
X164158124Y-83678447D01*
X164171792Y-83661792D01*
X164188447Y-83648124D01*
X164207443Y-83637971D01*
X164228062Y-83631716D01*
X164255640Y-83629000D01*
X164714360Y-83629000D01*
X164741938Y-83631716D01*
X164741938Y-83631716D01*
G37*
G36*
X139425578Y-82903197D02*
G01*
X139478350Y-82913694D01*
X139577770Y-82954875D01*
X139667246Y-83014661D01*
X139743339Y-83090754D01*
X139803125Y-83180230D01*
X139844306Y-83279650D01*
X139865300Y-83385194D01*
X139865300Y-83492806D01*
X139844306Y-83598350D01*
X139803125Y-83697770D01*
X139743339Y-83787246D01*
X139667246Y-83863339D01*
X139577770Y-83923125D01*
X139478350Y-83964306D01*
X139445325Y-83970875D01*
X139372807Y-83985300D01*
X139265193Y-83985300D01*
X139192675Y-83970875D01*
X139159650Y-83964306D01*
X139060230Y-83923125D01*
X138970754Y-83863339D01*
X138894661Y-83787246D01*
X138834875Y-83697770D01*
X138793694Y-83598350D01*
X138772700Y-83492806D01*
X138772700Y-83385194D01*
X138793694Y-83279650D01*
X138834875Y-83180230D01*
X138894661Y-83090754D01*
X138970754Y-83014661D01*
X139060230Y-82954875D01*
X139159650Y-82913694D01*
X139212422Y-82903197D01*
X139265193Y-82892700D01*
X139372807Y-82892700D01*
X139425578Y-82903197D01*
X139425578Y-82903197D01*
G37*
G36*
X149151000Y-83551000D02*
G01*
X147249000Y-83551000D01*
X147249000Y-81249000D01*
X149151000Y-81249000D01*
X149151000Y-83551000D01*
X149151000Y-83551000D01*
G37*
G36*
X155451000Y-83551000D02*
G01*
X153549000Y-83551000D01*
X153549000Y-81249000D01*
X155451000Y-81249000D01*
X155451000Y-83551000D01*
X155451000Y-83551000D01*
G37*
G36*
X140718714Y-82376389D02*
G01*
X140799645Y-82409912D01*
X140872480Y-82458579D01*
X140934421Y-82520520D01*
X140983088Y-82593355D01*
X141016611Y-82674286D01*
X141033700Y-82760201D01*
X141033700Y-82847799D01*
X141016611Y-82933714D01*
X140983088Y-83014645D01*
X140934421Y-83087480D01*
X140872480Y-83149421D01*
X140799645Y-83198088D01*
X140799644Y-83198089D01*
X140799643Y-83198089D01*
X140718714Y-83231611D01*
X140632801Y-83248700D01*
X140545199Y-83248700D01*
X140459286Y-83231611D01*
X140378357Y-83198089D01*
X140378356Y-83198089D01*
X140378355Y-83198088D01*
X140305520Y-83149421D01*
X140243579Y-83087480D01*
X140194912Y-83014645D01*
X140161389Y-82933714D01*
X140144300Y-82847799D01*
X140144300Y-82760201D01*
X140161389Y-82674286D01*
X140194912Y-82593355D01*
X140243579Y-82520520D01*
X140305520Y-82458579D01*
X140378355Y-82409912D01*
X140459286Y-82376389D01*
X140545199Y-82359300D01*
X140632801Y-82359300D01*
X140718714Y-82376389D01*
X140718714Y-82376389D01*
G37*
G36*
X141988714Y-82376389D02*
G01*
X142069645Y-82409912D01*
X142142480Y-82458579D01*
X142204421Y-82520520D01*
X142253088Y-82593355D01*
X142286611Y-82674286D01*
X142303700Y-82760201D01*
X142303700Y-82847799D01*
X142286611Y-82933714D01*
X142253088Y-83014645D01*
X142204421Y-83087480D01*
X142142480Y-83149421D01*
X142069645Y-83198088D01*
X142069644Y-83198089D01*
X142069643Y-83198089D01*
X141988714Y-83231611D01*
X141902801Y-83248700D01*
X141815199Y-83248700D01*
X141729286Y-83231611D01*
X141648357Y-83198089D01*
X141648356Y-83198089D01*
X141648355Y-83198088D01*
X141575520Y-83149421D01*
X141513579Y-83087480D01*
X141464912Y-83014645D01*
X141431389Y-82933714D01*
X141414300Y-82847799D01*
X141414300Y-82760201D01*
X141431389Y-82674286D01*
X141464912Y-82593355D01*
X141513579Y-82520520D01*
X141575520Y-82458579D01*
X141648355Y-82409912D01*
X141729286Y-82376389D01*
X141815199Y-82359300D01*
X141902801Y-82359300D01*
X141988714Y-82376389D01*
X141988714Y-82376389D01*
G37*
G36*
X143258714Y-82376389D02*
G01*
X143339645Y-82409912D01*
X143412480Y-82458579D01*
X143474421Y-82520520D01*
X143523088Y-82593355D01*
X143556611Y-82674286D01*
X143573700Y-82760201D01*
X143573700Y-82847799D01*
X143556611Y-82933714D01*
X143523088Y-83014645D01*
X143474421Y-83087480D01*
X143412480Y-83149421D01*
X143339645Y-83198088D01*
X143339644Y-83198089D01*
X143339643Y-83198089D01*
X143258714Y-83231611D01*
X143172801Y-83248700D01*
X143085199Y-83248700D01*
X142999286Y-83231611D01*
X142918357Y-83198089D01*
X142918356Y-83198089D01*
X142918355Y-83198088D01*
X142845520Y-83149421D01*
X142783579Y-83087480D01*
X142734912Y-83014645D01*
X142701389Y-82933714D01*
X142684300Y-82847799D01*
X142684300Y-82760201D01*
X142701389Y-82674286D01*
X142734912Y-82593355D01*
X142783579Y-82520520D01*
X142845520Y-82458579D01*
X142918355Y-82409912D01*
X142999286Y-82376389D01*
X143085199Y-82359300D01*
X143172801Y-82359300D01*
X143258714Y-82376389D01*
X143258714Y-82376389D01*
G37*
G36*
X144505578Y-81887197D02*
G01*
X144558350Y-81897694D01*
X144657770Y-81938875D01*
X144747246Y-81998661D01*
X144823339Y-82074754D01*
X144883125Y-82164230D01*
X144924306Y-82263650D01*
X144945300Y-82369194D01*
X144945300Y-82476806D01*
X144924306Y-82582350D01*
X144883125Y-82681770D01*
X144823339Y-82771246D01*
X144747246Y-82847339D01*
X144657770Y-82907125D01*
X144558350Y-82948306D01*
X144525325Y-82954875D01*
X144452807Y-82969300D01*
X144345193Y-82969300D01*
X144272675Y-82954875D01*
X144239650Y-82948306D01*
X144140230Y-82907125D01*
X144050754Y-82847339D01*
X143974661Y-82771246D01*
X143914875Y-82681770D01*
X143873694Y-82582350D01*
X143852700Y-82476806D01*
X143852700Y-82369194D01*
X143873694Y-82263650D01*
X143914875Y-82164230D01*
X143974661Y-82074754D01*
X144050754Y-81998661D01*
X144140230Y-81938875D01*
X144239650Y-81897694D01*
X144292422Y-81887197D01*
X144345193Y-81876700D01*
X144452807Y-81876700D01*
X144505578Y-81887197D01*
X144505578Y-81887197D01*
G37*
G36*
X130741938Y-80631716D02*
G01*
X130762557Y-80637971D01*
X130781553Y-80648124D01*
X130798208Y-80661792D01*
X130811876Y-80678447D01*
X130822029Y-80697443D01*
X130828284Y-80718062D01*
X130831000Y-80745640D01*
X130831000Y-81254360D01*
X130828284Y-81281938D01*
X130822029Y-81302557D01*
X130811876Y-81321553D01*
X130798208Y-81338208D01*
X130781553Y-81351876D01*
X130762557Y-81362029D01*
X130741938Y-81368284D01*
X130714360Y-81371000D01*
X130255640Y-81371000D01*
X130228062Y-81368284D01*
X130207443Y-81362029D01*
X130188447Y-81351876D01*
X130171792Y-81338208D01*
X130158124Y-81321553D01*
X130147971Y-81302557D01*
X130141716Y-81281938D01*
X130139000Y-81254360D01*
X130139000Y-80745640D01*
X130141716Y-80718062D01*
X130147971Y-80697443D01*
X130158124Y-80678447D01*
X130171792Y-80661792D01*
X130188447Y-80648124D01*
X130207443Y-80637971D01*
X130228062Y-80631716D01*
X130255640Y-80629000D01*
X130714360Y-80629000D01*
X130741938Y-80631716D01*
X130741938Y-80631716D01*
G37*
G36*
X129771938Y-80631716D02*
G01*
X129792557Y-80637971D01*
X129811553Y-80648124D01*
X129828208Y-80661792D01*
X129841876Y-80678447D01*
X129852029Y-80697443D01*
X129858284Y-80718062D01*
X129861000Y-80745640D01*
X129861000Y-81254360D01*
X129858284Y-81281938D01*
X129852029Y-81302557D01*
X129841876Y-81321553D01*
X129828208Y-81338208D01*
X129811553Y-81351876D01*
X129792557Y-81362029D01*
X129771938Y-81368284D01*
X129744360Y-81371000D01*
X129285640Y-81371000D01*
X129258062Y-81368284D01*
X129237443Y-81362029D01*
X129218447Y-81351876D01*
X129201792Y-81338208D01*
X129188124Y-81321553D01*
X129177971Y-81302557D01*
X129171716Y-81281938D01*
X129169000Y-81254360D01*
X129169000Y-80745640D01*
X129171716Y-80718062D01*
X129177971Y-80697443D01*
X129188124Y-80678447D01*
X129201792Y-80661792D01*
X129218447Y-80648124D01*
X129237443Y-80637971D01*
X129258062Y-80631716D01*
X129285640Y-80629000D01*
X129744360Y-80629000D01*
X129771938Y-80631716D01*
X129771938Y-80631716D01*
G37*
G36*
X163771938Y-80631716D02*
G01*
X163792557Y-80637971D01*
X163811553Y-80648124D01*
X163828208Y-80661792D01*
X163841876Y-80678447D01*
X163852029Y-80697443D01*
X163858284Y-80718062D01*
X163861000Y-80745640D01*
X163861000Y-81254360D01*
X163858284Y-81281938D01*
X163852029Y-81302557D01*
X163841876Y-81321553D01*
X163828208Y-81338208D01*
X163811553Y-81351876D01*
X163792557Y-81362029D01*
X163771938Y-81368284D01*
X163744360Y-81371000D01*
X163285640Y-81371000D01*
X163258062Y-81368284D01*
X163237443Y-81362029D01*
X163218447Y-81351876D01*
X163201792Y-81338208D01*
X163188124Y-81321553D01*
X163177971Y-81302557D01*
X163171716Y-81281938D01*
X163169000Y-81254360D01*
X163169000Y-80745640D01*
X163171716Y-80718062D01*
X163177971Y-80697443D01*
X163188124Y-80678447D01*
X163201792Y-80661792D01*
X163218447Y-80648124D01*
X163237443Y-80637971D01*
X163258062Y-80631716D01*
X163285640Y-80629000D01*
X163744360Y-80629000D01*
X163771938Y-80631716D01*
X163771938Y-80631716D01*
G37*
G36*
X164741938Y-80631716D02*
G01*
X164762557Y-80637971D01*
X164781553Y-80648124D01*
X164798208Y-80661792D01*
X164811876Y-80678447D01*
X164822029Y-80697443D01*
X164828284Y-80718062D01*
X164831000Y-80745640D01*
X164831000Y-81254360D01*
X164828284Y-81281938D01*
X164822029Y-81302557D01*
X164811876Y-81321553D01*
X164798208Y-81338208D01*
X164781553Y-81351876D01*
X164762557Y-81362029D01*
X164741938Y-81368284D01*
X164714360Y-81371000D01*
X164255640Y-81371000D01*
X164228062Y-81368284D01*
X164207443Y-81362029D01*
X164188447Y-81351876D01*
X164171792Y-81338208D01*
X164158124Y-81321553D01*
X164147971Y-81302557D01*
X164141716Y-81281938D01*
X164139000Y-81254360D01*
X164139000Y-80745640D01*
X164141716Y-80718062D01*
X164147971Y-80697443D01*
X164158124Y-80678447D01*
X164171792Y-80661792D01*
X164188447Y-80648124D01*
X164207443Y-80637971D01*
X164228062Y-80631716D01*
X164255640Y-80629000D01*
X164714360Y-80629000D01*
X164741938Y-80631716D01*
X164741938Y-80631716D01*
G37*
G36*
X138001000Y-81151000D02*
G01*
X135999000Y-81151000D01*
X135999000Y-80649000D01*
X138001000Y-80649000D01*
X138001000Y-81151000D01*
X138001000Y-81151000D01*
G37*
G36*
X138001000Y-79951000D02*
G01*
X135999000Y-79951000D01*
X135999000Y-79449000D01*
X138001000Y-79449000D01*
X138001000Y-79951000D01*
X138001000Y-79951000D01*
G37*
G36*
X165190442Y-78105518D02*
G01*
X165256627Y-78112037D01*
X165426466Y-78163557D01*
X165426468Y-78163558D01*
X165473750Y-78188831D01*
X165582991Y-78247222D01*
X165600998Y-78262000D01*
X165720186Y-78359814D01*
X165792875Y-78448387D01*
X165832778Y-78497009D01*
X165916443Y-78653534D01*
X165967963Y-78823373D01*
X165985359Y-79000000D01*
X165967963Y-79176627D01*
X165916443Y-79346466D01*
X165832778Y-79502991D01*
X165813895Y-79526000D01*
X165720186Y-79640186D01*
X165618729Y-79723448D01*
X165582991Y-79752778D01*
X165426466Y-79836443D01*
X165256627Y-79887963D01*
X165190442Y-79894482D01*
X165124260Y-79901000D01*
X165035740Y-79901000D01*
X164969558Y-79894482D01*
X164903373Y-79887963D01*
X164733534Y-79836443D01*
X164577009Y-79752778D01*
X164541271Y-79723448D01*
X164439814Y-79640186D01*
X164346105Y-79526000D01*
X164327222Y-79502991D01*
X164243557Y-79346466D01*
X164192037Y-79176627D01*
X164174641Y-79000000D01*
X164192037Y-78823373D01*
X164243557Y-78653534D01*
X164327222Y-78497009D01*
X164367125Y-78448387D01*
X164439814Y-78359814D01*
X164559002Y-78262000D01*
X164577009Y-78247222D01*
X164686250Y-78188831D01*
X164733532Y-78163558D01*
X164733534Y-78163557D01*
X164903373Y-78112037D01*
X164969558Y-78105518D01*
X165035740Y-78099000D01*
X165124260Y-78099000D01*
X165190442Y-78105518D01*
X165190442Y-78105518D01*
G37*
G36*
X167730442Y-78105518D02*
G01*
X167796627Y-78112037D01*
X167966466Y-78163557D01*
X167966468Y-78163558D01*
X168013750Y-78188831D01*
X168122991Y-78247222D01*
X168140998Y-78262000D01*
X168260186Y-78359814D01*
X168332875Y-78448387D01*
X168372778Y-78497009D01*
X168456443Y-78653534D01*
X168507963Y-78823373D01*
X168525359Y-79000000D01*
X168507963Y-79176627D01*
X168456443Y-79346466D01*
X168372778Y-79502991D01*
X168353895Y-79526000D01*
X168260186Y-79640186D01*
X168158729Y-79723448D01*
X168122991Y-79752778D01*
X167966466Y-79836443D01*
X167796627Y-79887963D01*
X167730442Y-79894482D01*
X167664260Y-79901000D01*
X167575740Y-79901000D01*
X167509558Y-79894482D01*
X167443373Y-79887963D01*
X167273534Y-79836443D01*
X167117009Y-79752778D01*
X167081271Y-79723448D01*
X166979814Y-79640186D01*
X166886105Y-79526000D01*
X166867222Y-79502991D01*
X166783557Y-79346466D01*
X166732037Y-79176627D01*
X166714641Y-79000000D01*
X166732037Y-78823373D01*
X166783557Y-78653534D01*
X166867222Y-78497009D01*
X166907125Y-78448387D01*
X166979814Y-78359814D01*
X167099002Y-78262000D01*
X167117009Y-78247222D01*
X167226250Y-78188831D01*
X167273532Y-78163558D01*
X167273534Y-78163557D01*
X167443373Y-78112037D01*
X167509558Y-78105518D01*
X167575740Y-78099000D01*
X167664260Y-78099000D01*
X167730442Y-78105518D01*
X167730442Y-78105518D01*
G37*
G36*
X134901000Y-79901000D02*
G01*
X133099000Y-79901000D01*
X133099000Y-78099000D01*
X134901000Y-78099000D01*
X134901000Y-79901000D01*
X134901000Y-79901000D01*
G37*
G36*
X131570442Y-78105518D02*
G01*
X131636627Y-78112037D01*
X131806466Y-78163557D01*
X131806468Y-78163558D01*
X131853750Y-78188831D01*
X131962991Y-78247222D01*
X131980998Y-78262000D01*
X132100186Y-78359814D01*
X132172875Y-78448387D01*
X132212778Y-78497009D01*
X132296443Y-78653534D01*
X132347963Y-78823373D01*
X132365359Y-79000000D01*
X132347963Y-79176627D01*
X132296443Y-79346466D01*
X132212778Y-79502991D01*
X132193895Y-79526000D01*
X132100186Y-79640186D01*
X131998729Y-79723448D01*
X131962991Y-79752778D01*
X131806466Y-79836443D01*
X131636627Y-79887963D01*
X131570442Y-79894482D01*
X131504260Y-79901000D01*
X131415740Y-79901000D01*
X131349558Y-79894482D01*
X131283373Y-79887963D01*
X131113534Y-79836443D01*
X130957009Y-79752778D01*
X130921271Y-79723448D01*
X130819814Y-79640186D01*
X130726105Y-79526000D01*
X130707222Y-79502991D01*
X130623557Y-79346466D01*
X130572037Y-79176627D01*
X130554641Y-79000000D01*
X130572037Y-78823373D01*
X130623557Y-78653534D01*
X130707222Y-78497009D01*
X130747125Y-78448387D01*
X130819814Y-78359814D01*
X130939002Y-78262000D01*
X130957009Y-78247222D01*
X131066250Y-78188831D01*
X131113532Y-78163558D01*
X131113534Y-78163557D01*
X131283373Y-78112037D01*
X131349558Y-78105518D01*
X131415740Y-78099000D01*
X131504260Y-78099000D01*
X131570442Y-78105518D01*
X131570442Y-78105518D01*
G37*
G36*
X162650442Y-78105518D02*
G01*
X162716627Y-78112037D01*
X162886466Y-78163557D01*
X162886468Y-78163558D01*
X162933750Y-78188831D01*
X163042991Y-78247222D01*
X163060998Y-78262000D01*
X163180186Y-78359814D01*
X163252875Y-78448387D01*
X163292778Y-78497009D01*
X163376443Y-78653534D01*
X163427963Y-78823373D01*
X163445359Y-79000000D01*
X163427963Y-79176627D01*
X163376443Y-79346466D01*
X163292778Y-79502991D01*
X163273895Y-79526000D01*
X163180186Y-79640186D01*
X163078729Y-79723448D01*
X163042991Y-79752778D01*
X162886466Y-79836443D01*
X162716627Y-79887963D01*
X162650442Y-79894482D01*
X162584260Y-79901000D01*
X162495740Y-79901000D01*
X162429558Y-79894482D01*
X162363373Y-79887963D01*
X162193534Y-79836443D01*
X162037009Y-79752778D01*
X162001271Y-79723448D01*
X161899814Y-79640186D01*
X161806105Y-79526000D01*
X161787222Y-79502991D01*
X161703557Y-79346466D01*
X161652037Y-79176627D01*
X161634641Y-79000000D01*
X161652037Y-78823373D01*
X161703557Y-78653534D01*
X161787222Y-78497009D01*
X161827125Y-78448387D01*
X161899814Y-78359814D01*
X162019002Y-78262000D01*
X162037009Y-78247222D01*
X162146250Y-78188831D01*
X162193532Y-78163558D01*
X162193534Y-78163557D01*
X162363373Y-78112037D01*
X162429558Y-78105518D01*
X162495740Y-78099000D01*
X162584260Y-78099000D01*
X162650442Y-78105518D01*
X162650442Y-78105518D01*
G37*
G36*
X129030442Y-78105518D02*
G01*
X129096627Y-78112037D01*
X129266466Y-78163557D01*
X129266468Y-78163558D01*
X129313750Y-78188831D01*
X129422991Y-78247222D01*
X129440998Y-78262000D01*
X129560186Y-78359814D01*
X129632875Y-78448387D01*
X129672778Y-78497009D01*
X129756443Y-78653534D01*
X129807963Y-78823373D01*
X129825359Y-79000000D01*
X129807963Y-79176627D01*
X129756443Y-79346466D01*
X129672778Y-79502991D01*
X129653895Y-79526000D01*
X129560186Y-79640186D01*
X129458729Y-79723448D01*
X129422991Y-79752778D01*
X129266466Y-79836443D01*
X129096627Y-79887963D01*
X129030442Y-79894482D01*
X128964260Y-79901000D01*
X128875740Y-79901000D01*
X128809558Y-79894482D01*
X128743373Y-79887963D01*
X128573534Y-79836443D01*
X128417009Y-79752778D01*
X128381271Y-79723448D01*
X128279814Y-79640186D01*
X128186105Y-79526000D01*
X128167222Y-79502991D01*
X128083557Y-79346466D01*
X128032037Y-79176627D01*
X128014641Y-79000000D01*
X128032037Y-78823373D01*
X128083557Y-78653534D01*
X128167222Y-78497009D01*
X128207125Y-78448387D01*
X128279814Y-78359814D01*
X128399002Y-78262000D01*
X128417009Y-78247222D01*
X128526250Y-78188831D01*
X128573532Y-78163558D01*
X128573534Y-78163557D01*
X128743373Y-78112037D01*
X128809558Y-78105518D01*
X128875740Y-78099000D01*
X128964260Y-78099000D01*
X129030442Y-78105518D01*
X129030442Y-78105518D01*
G37*
G36*
X126490442Y-78105518D02*
G01*
X126556627Y-78112037D01*
X126726466Y-78163557D01*
X126726468Y-78163558D01*
X126773750Y-78188831D01*
X126882991Y-78247222D01*
X126900998Y-78262000D01*
X127020186Y-78359814D01*
X127092875Y-78448387D01*
X127132778Y-78497009D01*
X127216443Y-78653534D01*
X127267963Y-78823373D01*
X127285359Y-79000000D01*
X127267963Y-79176627D01*
X127216443Y-79346466D01*
X127132778Y-79502991D01*
X127113895Y-79526000D01*
X127020186Y-79640186D01*
X126918729Y-79723448D01*
X126882991Y-79752778D01*
X126726466Y-79836443D01*
X126556627Y-79887963D01*
X126490442Y-79894482D01*
X126424260Y-79901000D01*
X126335740Y-79901000D01*
X126269558Y-79894482D01*
X126203373Y-79887963D01*
X126033534Y-79836443D01*
X125877009Y-79752778D01*
X125841271Y-79723448D01*
X125739814Y-79640186D01*
X125646105Y-79526000D01*
X125627222Y-79502991D01*
X125543557Y-79346466D01*
X125492037Y-79176627D01*
X125474641Y-79000000D01*
X125492037Y-78823373D01*
X125543557Y-78653534D01*
X125627222Y-78497009D01*
X125667125Y-78448387D01*
X125739814Y-78359814D01*
X125859002Y-78262000D01*
X125877009Y-78247222D01*
X125986250Y-78188831D01*
X126033532Y-78163558D01*
X126033534Y-78163557D01*
X126203373Y-78112037D01*
X126269558Y-78105518D01*
X126335740Y-78099000D01*
X126424260Y-78099000D01*
X126490442Y-78105518D01*
X126490442Y-78105518D01*
G37*
G36*
X152801000Y-79851000D02*
G01*
X149899000Y-79851000D01*
X149899000Y-78449000D01*
X152801000Y-78449000D01*
X152801000Y-79851000D01*
X152801000Y-79851000D01*
G37*
G36*
X161001000Y-79801000D02*
G01*
X159199000Y-79801000D01*
X159199000Y-77999000D01*
X161001000Y-77999000D01*
X161001000Y-79801000D01*
X161001000Y-79801000D01*
G37*
G36*
X140325355Y-73675083D02*
G01*
X140330029Y-73676501D01*
X140334330Y-73678800D01*
X140340702Y-73684029D01*
X140361076Y-73697643D01*
X140383715Y-73707020D01*
X140407749Y-73711800D01*
X140432253Y-73711800D01*
X140456286Y-73707019D01*
X140478925Y-73697642D01*
X140499298Y-73684029D01*
X140505670Y-73678800D01*
X140509971Y-73676501D01*
X140514645Y-73675083D01*
X140525641Y-73674000D01*
X140814359Y-73674000D01*
X140825355Y-73675083D01*
X140830029Y-73676501D01*
X140834330Y-73678800D01*
X140840702Y-73684029D01*
X140861076Y-73697643D01*
X140883715Y-73707020D01*
X140907749Y-73711800D01*
X140932253Y-73711800D01*
X140956286Y-73707019D01*
X140978925Y-73697642D01*
X140999298Y-73684029D01*
X141005670Y-73678800D01*
X141009971Y-73676501D01*
X141014645Y-73675083D01*
X141025641Y-73674000D01*
X141314359Y-73674000D01*
X141325355Y-73675083D01*
X141330029Y-73676501D01*
X141334330Y-73678800D01*
X141340702Y-73684029D01*
X141361076Y-73697643D01*
X141383715Y-73707020D01*
X141407749Y-73711800D01*
X141432253Y-73711800D01*
X141456286Y-73707019D01*
X141478925Y-73697642D01*
X141499298Y-73684029D01*
X141505670Y-73678800D01*
X141509971Y-73676501D01*
X141514645Y-73675083D01*
X141525641Y-73674000D01*
X141814359Y-73674000D01*
X141825355Y-73675083D01*
X141830029Y-73676501D01*
X141834330Y-73678800D01*
X141840702Y-73684029D01*
X141861076Y-73697643D01*
X141883715Y-73707020D01*
X141907749Y-73711800D01*
X141932253Y-73711800D01*
X141956286Y-73707019D01*
X141978925Y-73697642D01*
X141999298Y-73684029D01*
X142005670Y-73678800D01*
X142009971Y-73676501D01*
X142014645Y-73675083D01*
X142025641Y-73674000D01*
X142314359Y-73674000D01*
X142325355Y-73675083D01*
X142330029Y-73676501D01*
X142334330Y-73678800D01*
X142340702Y-73684029D01*
X142361076Y-73697643D01*
X142383715Y-73707020D01*
X142407749Y-73711800D01*
X142432253Y-73711800D01*
X142456286Y-73707019D01*
X142478925Y-73697642D01*
X142499298Y-73684029D01*
X142505670Y-73678800D01*
X142509971Y-73676501D01*
X142514645Y-73675083D01*
X142525641Y-73674000D01*
X142814359Y-73674000D01*
X142825355Y-73675083D01*
X142830029Y-73676501D01*
X142834330Y-73678800D01*
X142840702Y-73684029D01*
X142861076Y-73697643D01*
X142883715Y-73707020D01*
X142907749Y-73711800D01*
X142932253Y-73711800D01*
X142956286Y-73707019D01*
X142978925Y-73697642D01*
X142999298Y-73684029D01*
X143005670Y-73678800D01*
X143009971Y-73676501D01*
X143014645Y-73675083D01*
X143025641Y-73674000D01*
X143314359Y-73674000D01*
X143325355Y-73675083D01*
X143330029Y-73676501D01*
X143334330Y-73678800D01*
X143340702Y-73684029D01*
X143361076Y-73697643D01*
X143383715Y-73707020D01*
X143407749Y-73711800D01*
X143432253Y-73711800D01*
X143456286Y-73707019D01*
X143478925Y-73697642D01*
X143499298Y-73684029D01*
X143505670Y-73678800D01*
X143509971Y-73676501D01*
X143514645Y-73675083D01*
X143525641Y-73674000D01*
X143814359Y-73674000D01*
X143825355Y-73675083D01*
X143830029Y-73676501D01*
X143834331Y-73678800D01*
X143838104Y-73681896D01*
X143841200Y-73685669D01*
X143843499Y-73689971D01*
X143844917Y-73694645D01*
X143846000Y-73705641D01*
X143846000Y-74549001D01*
X143848402Y-74573387D01*
X143855515Y-74596836D01*
X143867066Y-74618447D01*
X143882611Y-74637389D01*
X143901553Y-74652934D01*
X143923164Y-74664485D01*
X143946613Y-74671598D01*
X143970999Y-74674000D01*
X144814359Y-74674000D01*
X144825355Y-74675083D01*
X144830029Y-74676501D01*
X144834331Y-74678800D01*
X144838104Y-74681896D01*
X144841200Y-74685669D01*
X144843499Y-74689971D01*
X144844917Y-74694645D01*
X144846000Y-74705641D01*
X144846000Y-74994359D01*
X144844917Y-75005355D01*
X144843499Y-75010029D01*
X144841200Y-75014330D01*
X144835971Y-75020702D01*
X144822357Y-75041076D01*
X144812980Y-75063715D01*
X144808200Y-75087749D01*
X144808200Y-75112253D01*
X144812981Y-75136286D01*
X144822358Y-75158925D01*
X144835971Y-75179298D01*
X144841200Y-75185670D01*
X144843499Y-75189971D01*
X144844917Y-75194645D01*
X144846000Y-75205641D01*
X144846000Y-75494359D01*
X144844917Y-75505355D01*
X144843499Y-75510029D01*
X144841200Y-75514330D01*
X144835971Y-75520702D01*
X144822357Y-75541076D01*
X144812980Y-75563715D01*
X144808200Y-75587749D01*
X144808200Y-75612253D01*
X144812981Y-75636286D01*
X144822358Y-75658925D01*
X144835971Y-75679298D01*
X144841200Y-75685670D01*
X144843499Y-75689971D01*
X144844917Y-75694645D01*
X144846000Y-75705641D01*
X144846000Y-75994359D01*
X144844917Y-76005355D01*
X144843499Y-76010029D01*
X144841200Y-76014330D01*
X144835971Y-76020702D01*
X144822357Y-76041076D01*
X144812980Y-76063715D01*
X144808200Y-76087749D01*
X144808200Y-76112253D01*
X144812981Y-76136286D01*
X144822358Y-76158925D01*
X144835971Y-76179298D01*
X144841200Y-76185670D01*
X144843499Y-76189971D01*
X144844917Y-76194645D01*
X144846000Y-76205641D01*
X144846000Y-76494359D01*
X144844917Y-76505355D01*
X144843499Y-76510029D01*
X144841200Y-76514330D01*
X144835971Y-76520702D01*
X144822357Y-76541076D01*
X144812980Y-76563715D01*
X144808200Y-76587749D01*
X144808200Y-76612253D01*
X144812981Y-76636286D01*
X144822358Y-76658925D01*
X144835971Y-76679298D01*
X144841200Y-76685670D01*
X144843499Y-76689971D01*
X144844917Y-76694645D01*
X144846000Y-76705641D01*
X144846000Y-76994359D01*
X144844917Y-77005355D01*
X144843499Y-77010029D01*
X144841200Y-77014330D01*
X144835971Y-77020702D01*
X144822357Y-77041076D01*
X144812980Y-77063715D01*
X144808200Y-77087749D01*
X144808200Y-77112253D01*
X144812981Y-77136286D01*
X144822358Y-77158925D01*
X144835971Y-77179298D01*
X144841200Y-77185670D01*
X144843499Y-77189971D01*
X144844917Y-77194645D01*
X144846000Y-77205641D01*
X144846000Y-77494359D01*
X144844917Y-77505355D01*
X144843499Y-77510029D01*
X144841200Y-77514330D01*
X144835971Y-77520702D01*
X144822357Y-77541076D01*
X144812980Y-77563715D01*
X144808200Y-77587749D01*
X144808200Y-77612253D01*
X144812981Y-77636286D01*
X144822358Y-77658925D01*
X144835971Y-77679298D01*
X144841200Y-77685670D01*
X144843499Y-77689971D01*
X144844917Y-77694645D01*
X144846000Y-77705641D01*
X144846000Y-77994359D01*
X144844917Y-78005355D01*
X144843499Y-78010029D01*
X144841200Y-78014330D01*
X144835971Y-78020702D01*
X144822357Y-78041076D01*
X144812980Y-78063715D01*
X144808200Y-78087749D01*
X144808200Y-78112253D01*
X144812981Y-78136286D01*
X144822358Y-78158925D01*
X144835971Y-78179298D01*
X144841200Y-78185670D01*
X144843499Y-78189971D01*
X144844917Y-78194645D01*
X144846000Y-78205641D01*
X144846000Y-78494359D01*
X144844917Y-78505355D01*
X144843499Y-78510029D01*
X144841200Y-78514331D01*
X144838104Y-78518104D01*
X144834331Y-78521200D01*
X144830029Y-78523499D01*
X144825355Y-78524917D01*
X144814359Y-78526000D01*
X143970999Y-78526000D01*
X143946613Y-78528402D01*
X143923164Y-78535515D01*
X143901553Y-78547066D01*
X143882611Y-78562611D01*
X143867066Y-78581553D01*
X143855515Y-78603164D01*
X143848402Y-78626613D01*
X143846000Y-78650999D01*
X143846000Y-79494359D01*
X143844917Y-79505355D01*
X143843499Y-79510029D01*
X143841200Y-79514331D01*
X143838104Y-79518104D01*
X143834331Y-79521200D01*
X143830029Y-79523499D01*
X143825355Y-79524917D01*
X143814359Y-79526000D01*
X143525641Y-79526000D01*
X143514645Y-79524917D01*
X143509971Y-79523499D01*
X143505670Y-79521200D01*
X143499298Y-79515971D01*
X143478924Y-79502357D01*
X143456285Y-79492980D01*
X143432251Y-79488200D01*
X143407747Y-79488200D01*
X143383714Y-79492981D01*
X143361075Y-79502358D01*
X143340702Y-79515971D01*
X143334330Y-79521200D01*
X143330029Y-79523499D01*
X143325355Y-79524917D01*
X143314359Y-79526000D01*
X143025641Y-79526000D01*
X143014645Y-79524917D01*
X143009971Y-79523499D01*
X143005670Y-79521200D01*
X142999298Y-79515971D01*
X142978924Y-79502357D01*
X142956285Y-79492980D01*
X142932251Y-79488200D01*
X142907747Y-79488200D01*
X142883714Y-79492981D01*
X142861075Y-79502358D01*
X142840702Y-79515971D01*
X142834330Y-79521200D01*
X142830029Y-79523499D01*
X142825355Y-79524917D01*
X142814359Y-79526000D01*
X142525641Y-79526000D01*
X142514645Y-79524917D01*
X142509971Y-79523499D01*
X142505670Y-79521200D01*
X142499298Y-79515971D01*
X142478924Y-79502357D01*
X142456285Y-79492980D01*
X142432251Y-79488200D01*
X142407747Y-79488200D01*
X142383714Y-79492981D01*
X142361075Y-79502358D01*
X142340702Y-79515971D01*
X142334330Y-79521200D01*
X142330029Y-79523499D01*
X142325355Y-79524917D01*
X142314359Y-79526000D01*
X142025641Y-79526000D01*
X142014645Y-79524917D01*
X142009971Y-79523499D01*
X142005670Y-79521200D01*
X141999298Y-79515971D01*
X141978924Y-79502357D01*
X141956285Y-79492980D01*
X141932251Y-79488200D01*
X141907747Y-79488200D01*
X141883714Y-79492981D01*
X141861075Y-79502358D01*
X141840702Y-79515971D01*
X141834330Y-79521200D01*
X141830029Y-79523499D01*
X141825355Y-79524917D01*
X141814359Y-79526000D01*
X141525641Y-79526000D01*
X141514645Y-79524917D01*
X141509971Y-79523499D01*
X141505670Y-79521200D01*
X141499298Y-79515971D01*
X141478924Y-79502357D01*
X141456285Y-79492980D01*
X141432251Y-79488200D01*
X141407747Y-79488200D01*
X141383714Y-79492981D01*
X141361075Y-79502358D01*
X141340702Y-79515971D01*
X141334330Y-79521200D01*
X141330029Y-79523499D01*
X141325355Y-79524917D01*
X141314359Y-79526000D01*
X141025641Y-79526000D01*
X141014645Y-79524917D01*
X141009971Y-79523499D01*
X141005670Y-79521200D01*
X140999298Y-79515971D01*
X140978924Y-79502357D01*
X140956285Y-79492980D01*
X140932251Y-79488200D01*
X140907747Y-79488200D01*
X140883714Y-79492981D01*
X140861075Y-79502358D01*
X140840702Y-79515971D01*
X140834330Y-79521200D01*
X140830029Y-79523499D01*
X140825355Y-79524917D01*
X140814359Y-79526000D01*
X140525641Y-79526000D01*
X140514645Y-79524917D01*
X140509971Y-79523499D01*
X140505670Y-79521200D01*
X140499298Y-79515971D01*
X140478924Y-79502357D01*
X140456285Y-79492980D01*
X140432251Y-79488200D01*
X140407747Y-79488200D01*
X140383714Y-79492981D01*
X140361075Y-79502358D01*
X140340702Y-79515971D01*
X140334330Y-79521200D01*
X140330029Y-79523499D01*
X140325355Y-79524917D01*
X140314359Y-79526000D01*
X140025641Y-79526000D01*
X140014645Y-79524917D01*
X140009971Y-79523499D01*
X140005669Y-79521200D01*
X140001896Y-79518104D01*
X139998800Y-79514331D01*
X139996501Y-79510029D01*
X139995083Y-79505355D01*
X139994000Y-79494359D01*
X139994000Y-78650999D01*
X139991598Y-78626613D01*
X139984485Y-78603164D01*
X139972934Y-78581553D01*
X139957389Y-78562611D01*
X139938447Y-78547066D01*
X139916836Y-78535515D01*
X139893387Y-78528402D01*
X139869001Y-78526000D01*
X139025641Y-78526000D01*
X139014645Y-78524917D01*
X139009971Y-78523499D01*
X139005669Y-78521200D01*
X139001896Y-78518104D01*
X138998800Y-78514331D01*
X138996501Y-78510029D01*
X138995083Y-78505355D01*
X138994000Y-78494359D01*
X138994000Y-78205641D01*
X138995083Y-78194645D01*
X138996501Y-78189971D01*
X138998800Y-78185670D01*
X139004029Y-78179298D01*
X139017643Y-78158924D01*
X139027020Y-78136285D01*
X139031800Y-78112251D01*
X139031800Y-78087747D01*
X139027019Y-78063714D01*
X139017642Y-78041075D01*
X139004029Y-78020702D01*
X138998800Y-78014330D01*
X138996501Y-78010029D01*
X138995083Y-78005355D01*
X138994000Y-77994359D01*
X138994000Y-77705641D01*
X138995083Y-77694645D01*
X138996501Y-77689971D01*
X138998800Y-77685670D01*
X139004029Y-77679298D01*
X139017643Y-77658924D01*
X139027020Y-77636285D01*
X139031800Y-77612251D01*
X139031800Y-77587747D01*
X139027019Y-77563714D01*
X139017642Y-77541075D01*
X139004029Y-77520702D01*
X138998800Y-77514330D01*
X138996501Y-77510029D01*
X138995083Y-77505355D01*
X138994000Y-77494359D01*
X138994000Y-77205641D01*
X138995083Y-77194645D01*
X138996501Y-77189971D01*
X138998800Y-77185670D01*
X139004029Y-77179298D01*
X139017643Y-77158924D01*
X139027020Y-77136285D01*
X139031800Y-77112251D01*
X139031800Y-77087747D01*
X139027019Y-77063714D01*
X139017642Y-77041075D01*
X139004029Y-77020702D01*
X138998800Y-77014330D01*
X138996501Y-77010029D01*
X138995083Y-77005355D01*
X138994000Y-76994359D01*
X138994000Y-76705641D01*
X138995083Y-76694645D01*
X138996501Y-76689971D01*
X138998800Y-76685670D01*
X139004029Y-76679298D01*
X139017643Y-76658924D01*
X139027020Y-76636285D01*
X139031800Y-76612251D01*
X139031800Y-76587747D01*
X139027019Y-76563714D01*
X139017642Y-76541075D01*
X139004029Y-76520702D01*
X138998800Y-76514330D01*
X138996501Y-76510029D01*
X138995083Y-76505355D01*
X138994000Y-76494359D01*
X138994000Y-76205641D01*
X138995083Y-76194645D01*
X138996501Y-76189971D01*
X138998800Y-76185670D01*
X139004029Y-76179298D01*
X139017643Y-76158924D01*
X139027020Y-76136285D01*
X139031800Y-76112251D01*
X139031800Y-76087747D01*
X139027019Y-76063714D01*
X139017642Y-76041075D01*
X139004029Y-76020702D01*
X138998800Y-76014330D01*
X138996501Y-76010029D01*
X138995083Y-76005355D01*
X138994000Y-75994359D01*
X138994000Y-75705641D01*
X138995083Y-75694645D01*
X138996501Y-75689971D01*
X138998800Y-75685670D01*
X139004029Y-75679298D01*
X139017643Y-75658924D01*
X139027020Y-75636285D01*
X139031800Y-75612251D01*
X139031800Y-75587747D01*
X139027019Y-75563714D01*
X139017642Y-75541075D01*
X139004029Y-75520702D01*
X138998800Y-75514330D01*
X138996501Y-75510029D01*
X138995083Y-75505355D01*
X138994000Y-75494359D01*
X138994000Y-75205641D01*
X138995083Y-75194645D01*
X138996501Y-75189971D01*
X138998800Y-75185670D01*
X139004029Y-75179298D01*
X139017643Y-75158924D01*
X139027020Y-75136285D01*
X139031800Y-75112251D01*
X139031800Y-75087749D01*
X139933200Y-75087749D01*
X139933200Y-75112253D01*
X139937981Y-75136286D01*
X139947358Y-75158925D01*
X139960971Y-75179298D01*
X139966200Y-75185670D01*
X139968499Y-75189971D01*
X139969917Y-75194645D01*
X139971000Y-75205641D01*
X139971000Y-75494359D01*
X139969917Y-75505355D01*
X139968499Y-75510029D01*
X139966200Y-75514330D01*
X139960971Y-75520702D01*
X139947357Y-75541076D01*
X139937980Y-75563715D01*
X139933200Y-75587749D01*
X139933200Y-75612253D01*
X139937981Y-75636286D01*
X139947358Y-75658925D01*
X139960971Y-75679298D01*
X139966200Y-75685670D01*
X139968499Y-75689971D01*
X139969917Y-75694645D01*
X139971000Y-75705641D01*
X139971000Y-75994359D01*
X139969917Y-76005355D01*
X139968499Y-76010029D01*
X139966200Y-76014330D01*
X139960971Y-76020702D01*
X139947357Y-76041076D01*
X139937980Y-76063715D01*
X139933200Y-76087749D01*
X139933200Y-76112253D01*
X139937981Y-76136286D01*
X139947358Y-76158925D01*
X139960971Y-76179298D01*
X139966200Y-76185670D01*
X139968499Y-76189971D01*
X139969917Y-76194645D01*
X139971000Y-76205641D01*
X139971000Y-76494359D01*
X139969917Y-76505355D01*
X139968499Y-76510029D01*
X139966200Y-76514330D01*
X139960971Y-76520702D01*
X139947357Y-76541076D01*
X139937980Y-76563715D01*
X139933200Y-76587749D01*
X139933200Y-76612253D01*
X139937981Y-76636286D01*
X139947358Y-76658925D01*
X139960971Y-76679298D01*
X139966200Y-76685670D01*
X139968499Y-76689971D01*
X139969917Y-76694645D01*
X139971000Y-76705641D01*
X139971000Y-76994359D01*
X139969917Y-77005355D01*
X139968499Y-77010029D01*
X139966200Y-77014330D01*
X139960971Y-77020702D01*
X139947357Y-77041076D01*
X139937980Y-77063715D01*
X139933200Y-77087749D01*
X139933200Y-77112253D01*
X139937981Y-77136286D01*
X139947358Y-77158925D01*
X139960971Y-77179298D01*
X139966200Y-77185670D01*
X139968499Y-77189971D01*
X139969917Y-77194645D01*
X139971000Y-77205641D01*
X139971000Y-77494359D01*
X139969917Y-77505355D01*
X139968499Y-77510029D01*
X139966200Y-77514330D01*
X139960971Y-77520702D01*
X139947357Y-77541076D01*
X139937980Y-77563715D01*
X139933200Y-77587749D01*
X139933200Y-77612253D01*
X139937981Y-77636286D01*
X139947358Y-77658925D01*
X139960971Y-77679298D01*
X139966200Y-77685670D01*
X139968499Y-77689971D01*
X139969917Y-77694645D01*
X139971000Y-77705641D01*
X139971000Y-77994359D01*
X139969917Y-78005355D01*
X139968499Y-78010029D01*
X139966200Y-78014330D01*
X139960971Y-78020702D01*
X139947357Y-78041076D01*
X139937980Y-78063715D01*
X139933200Y-78087749D01*
X139933200Y-78112253D01*
X139937981Y-78136286D01*
X139947358Y-78158925D01*
X139960971Y-78179298D01*
X139966200Y-78185670D01*
X139968499Y-78189971D01*
X139969917Y-78194645D01*
X139971000Y-78205641D01*
X139971000Y-78424001D01*
X139973402Y-78448387D01*
X139980515Y-78471836D01*
X139992066Y-78493447D01*
X140007611Y-78512389D01*
X140026553Y-78527934D01*
X140048164Y-78539485D01*
X140071613Y-78546598D01*
X140095999Y-78549000D01*
X140314359Y-78549000D01*
X140325355Y-78550083D01*
X140330029Y-78551501D01*
X140334330Y-78553800D01*
X140340702Y-78559029D01*
X140361076Y-78572643D01*
X140383715Y-78582020D01*
X140407749Y-78586800D01*
X140432253Y-78586800D01*
X140456286Y-78582019D01*
X140478925Y-78572642D01*
X140499298Y-78559029D01*
X140505670Y-78553800D01*
X140509971Y-78551501D01*
X140514645Y-78550083D01*
X140525641Y-78549000D01*
X140814359Y-78549000D01*
X140825355Y-78550083D01*
X140830029Y-78551501D01*
X140834330Y-78553800D01*
X140840702Y-78559029D01*
X140861076Y-78572643D01*
X140883715Y-78582020D01*
X140907749Y-78586800D01*
X140932253Y-78586800D01*
X140956286Y-78582019D01*
X140978925Y-78572642D01*
X140999298Y-78559029D01*
X141005670Y-78553800D01*
X141009971Y-78551501D01*
X141014645Y-78550083D01*
X141025641Y-78549000D01*
X141314359Y-78549000D01*
X141325355Y-78550083D01*
X141330029Y-78551501D01*
X141334330Y-78553800D01*
X141340702Y-78559029D01*
X141361076Y-78572643D01*
X141383715Y-78582020D01*
X141407749Y-78586800D01*
X141432253Y-78586800D01*
X141456286Y-78582019D01*
X141478925Y-78572642D01*
X141499298Y-78559029D01*
X141505670Y-78553800D01*
X141509971Y-78551501D01*
X141514645Y-78550083D01*
X141525641Y-78549000D01*
X141814359Y-78549000D01*
X141825355Y-78550083D01*
X141830029Y-78551501D01*
X141834330Y-78553800D01*
X141840702Y-78559029D01*
X141861076Y-78572643D01*
X141883715Y-78582020D01*
X141907749Y-78586800D01*
X141932253Y-78586800D01*
X141956286Y-78582019D01*
X141978925Y-78572642D01*
X141999298Y-78559029D01*
X142005670Y-78553800D01*
X142009971Y-78551501D01*
X142014645Y-78550083D01*
X142025641Y-78549000D01*
X142314359Y-78549000D01*
X142325355Y-78550083D01*
X142330029Y-78551501D01*
X142334330Y-78553800D01*
X142340702Y-78559029D01*
X142361076Y-78572643D01*
X142383715Y-78582020D01*
X142407749Y-78586800D01*
X142432253Y-78586800D01*
X142456286Y-78582019D01*
X142478925Y-78572642D01*
X142499298Y-78559029D01*
X142505670Y-78553800D01*
X142509971Y-78551501D01*
X142514645Y-78550083D01*
X142525641Y-78549000D01*
X142814359Y-78549000D01*
X142825355Y-78550083D01*
X142830029Y-78551501D01*
X142834330Y-78553800D01*
X142840702Y-78559029D01*
X142861076Y-78572643D01*
X142883715Y-78582020D01*
X142907749Y-78586800D01*
X142932253Y-78586800D01*
X142956286Y-78582019D01*
X142978925Y-78572642D01*
X142999298Y-78559029D01*
X143005670Y-78553800D01*
X143009971Y-78551501D01*
X143014645Y-78550083D01*
X143025641Y-78549000D01*
X143314359Y-78549000D01*
X143325355Y-78550083D01*
X143330029Y-78551501D01*
X143334330Y-78553800D01*
X143340702Y-78559029D01*
X143361076Y-78572643D01*
X143383715Y-78582020D01*
X143407749Y-78586800D01*
X143432253Y-78586800D01*
X143456286Y-78582019D01*
X143478925Y-78572642D01*
X143499298Y-78559029D01*
X143505670Y-78553800D01*
X143509971Y-78551501D01*
X143514645Y-78550083D01*
X143525641Y-78549000D01*
X143744001Y-78549000D01*
X143768387Y-78546598D01*
X143791836Y-78539485D01*
X143813447Y-78527934D01*
X143832389Y-78512389D01*
X143847934Y-78493447D01*
X143859485Y-78471836D01*
X143866598Y-78448387D01*
X143869000Y-78424001D01*
X143869000Y-78205641D01*
X143870083Y-78194645D01*
X143871501Y-78189971D01*
X143873800Y-78185670D01*
X143879029Y-78179298D01*
X143892643Y-78158924D01*
X143902020Y-78136285D01*
X143906800Y-78112251D01*
X143906800Y-78087747D01*
X143902019Y-78063714D01*
X143892642Y-78041075D01*
X143879029Y-78020702D01*
X143873800Y-78014330D01*
X143871501Y-78010029D01*
X143870083Y-78005355D01*
X143869000Y-77994359D01*
X143869000Y-77705641D01*
X143870083Y-77694645D01*
X143871501Y-77689971D01*
X143873800Y-77685670D01*
X143879029Y-77679298D01*
X143892643Y-77658924D01*
X143902020Y-77636285D01*
X143906800Y-77612251D01*
X143906800Y-77587747D01*
X143902019Y-77563714D01*
X143892642Y-77541075D01*
X143879029Y-77520702D01*
X143873800Y-77514330D01*
X143871501Y-77510029D01*
X143870083Y-77505355D01*
X143869000Y-77494359D01*
X143869000Y-77205641D01*
X143870083Y-77194645D01*
X143871501Y-77189971D01*
X143873800Y-77185670D01*
X143879029Y-77179298D01*
X143892643Y-77158924D01*
X143902020Y-77136285D01*
X143906800Y-77112251D01*
X143906800Y-77087747D01*
X143902019Y-77063714D01*
X143892642Y-77041075D01*
X143879029Y-77020702D01*
X143873800Y-77014330D01*
X143871501Y-77010029D01*
X143870083Y-77005355D01*
X143869000Y-76994359D01*
X143869000Y-76705641D01*
X143870083Y-76694645D01*
X143871501Y-76689971D01*
X143873800Y-76685670D01*
X143879029Y-76679298D01*
X143892643Y-76658924D01*
X143902020Y-76636285D01*
X143906800Y-76612251D01*
X143906800Y-76587747D01*
X143902019Y-76563714D01*
X143892642Y-76541075D01*
X143879029Y-76520702D01*
X143873800Y-76514330D01*
X143871501Y-76510029D01*
X143870083Y-76505355D01*
X143869000Y-76494359D01*
X143869000Y-76205641D01*
X143870083Y-76194645D01*
X143871501Y-76189971D01*
X143873800Y-76185670D01*
X143879029Y-76179298D01*
X143892643Y-76158924D01*
X143902020Y-76136285D01*
X143906800Y-76112251D01*
X143906800Y-76087747D01*
X143902019Y-76063714D01*
X143892642Y-76041075D01*
X143879029Y-76020702D01*
X143873800Y-76014330D01*
X143871501Y-76010029D01*
X143870083Y-76005355D01*
X143869000Y-75994359D01*
X143869000Y-75705641D01*
X143870083Y-75694645D01*
X143871501Y-75689971D01*
X143873800Y-75685670D01*
X143879029Y-75679298D01*
X143892643Y-75658924D01*
X143902020Y-75636285D01*
X143906800Y-75612251D01*
X143906800Y-75587747D01*
X143902019Y-75563714D01*
X143892642Y-75541075D01*
X143879029Y-75520702D01*
X143873800Y-75514330D01*
X143871501Y-75510029D01*
X143870083Y-75505355D01*
X143869000Y-75494359D01*
X143869000Y-75205641D01*
X143870083Y-75194645D01*
X143871501Y-75189971D01*
X143873800Y-75185670D01*
X143879029Y-75179298D01*
X143892643Y-75158924D01*
X143902020Y-75136285D01*
X143906800Y-75112251D01*
X143906800Y-75087747D01*
X143902019Y-75063714D01*
X143892642Y-75041075D01*
X143879029Y-75020702D01*
X143873800Y-75014330D01*
X143871501Y-75010029D01*
X143870083Y-75005355D01*
X143869000Y-74994359D01*
X143869000Y-74775999D01*
X143866598Y-74751613D01*
X143859485Y-74728164D01*
X143847934Y-74706553D01*
X143832389Y-74687611D01*
X143813447Y-74672066D01*
X143791836Y-74660515D01*
X143768387Y-74653402D01*
X143744001Y-74651000D01*
X143525641Y-74651000D01*
X143514645Y-74649917D01*
X143509971Y-74648499D01*
X143505670Y-74646200D01*
X143499298Y-74640971D01*
X143478924Y-74627357D01*
X143456285Y-74617980D01*
X143432251Y-74613200D01*
X143407747Y-74613200D01*
X143383714Y-74617981D01*
X143361075Y-74627358D01*
X143340702Y-74640971D01*
X143334330Y-74646200D01*
X143330029Y-74648499D01*
X143325355Y-74649917D01*
X143314359Y-74651000D01*
X143025641Y-74651000D01*
X143014645Y-74649917D01*
X143009971Y-74648499D01*
X143005670Y-74646200D01*
X142999298Y-74640971D01*
X142978924Y-74627357D01*
X142956285Y-74617980D01*
X142932251Y-74613200D01*
X142907747Y-74613200D01*
X142883714Y-74617981D01*
X142861075Y-74627358D01*
X142840702Y-74640971D01*
X142834330Y-74646200D01*
X142830029Y-74648499D01*
X142825355Y-74649917D01*
X142814359Y-74651000D01*
X142525641Y-74651000D01*
X142514645Y-74649917D01*
X142509971Y-74648499D01*
X142505670Y-74646200D01*
X142499298Y-74640971D01*
X142478924Y-74627357D01*
X142456285Y-74617980D01*
X142432251Y-74613200D01*
X142407747Y-74613200D01*
X142383714Y-74617981D01*
X142361075Y-74627358D01*
X142340702Y-74640971D01*
X142334330Y-74646200D01*
X142330029Y-74648499D01*
X142325355Y-74649917D01*
X142314359Y-74651000D01*
X142025641Y-74651000D01*
X142014645Y-74649917D01*
X142009971Y-74648499D01*
X142005670Y-74646200D01*
X141999298Y-74640971D01*
X141978924Y-74627357D01*
X141956285Y-74617980D01*
X141932251Y-74613200D01*
X141907747Y-74613200D01*
X141883714Y-74617981D01*
X141861075Y-74627358D01*
X141840702Y-74640971D01*
X141834330Y-74646200D01*
X141830029Y-74648499D01*
X141825355Y-74649917D01*
X141814359Y-74651000D01*
X141525641Y-74651000D01*
X141514645Y-74649917D01*
X141509971Y-74648499D01*
X141505670Y-74646200D01*
X141499298Y-74640971D01*
X141478924Y-74627357D01*
X141456285Y-74617980D01*
X141432251Y-74613200D01*
X141407747Y-74613200D01*
X141383714Y-74617981D01*
X141361075Y-74627358D01*
X141340702Y-74640971D01*
X141334330Y-74646200D01*
X141330029Y-74648499D01*
X141325355Y-74649917D01*
X141314359Y-74651000D01*
X141025641Y-74651000D01*
X141014645Y-74649917D01*
X141009971Y-74648499D01*
X141005670Y-74646200D01*
X140999298Y-74640971D01*
X140978924Y-74627357D01*
X140956285Y-74617980D01*
X140932251Y-74613200D01*
X140907747Y-74613200D01*
X140883714Y-74617981D01*
X140861075Y-74627358D01*
X140840702Y-74640971D01*
X140834330Y-74646200D01*
X140830029Y-74648499D01*
X140825355Y-74649917D01*
X140814359Y-74651000D01*
X140525641Y-74651000D01*
X140514645Y-74649917D01*
X140509971Y-74648499D01*
X140505670Y-74646200D01*
X140499298Y-74640971D01*
X140478924Y-74627357D01*
X140456285Y-74617980D01*
X140432251Y-74613200D01*
X140407747Y-74613200D01*
X140383714Y-74617981D01*
X140361075Y-74627358D01*
X140340702Y-74640971D01*
X140334330Y-74646200D01*
X140330029Y-74648499D01*
X140325355Y-74649917D01*
X140314359Y-74651000D01*
X140095999Y-74651000D01*
X140071613Y-74653402D01*
X140048164Y-74660515D01*
X140026553Y-74672066D01*
X140007611Y-74687611D01*
X139992066Y-74706553D01*
X139980515Y-74728164D01*
X139973402Y-74751613D01*
X139971000Y-74775999D01*
X139971000Y-74994359D01*
X139969917Y-75005355D01*
X139968499Y-75010029D01*
X139966200Y-75014330D01*
X139960971Y-75020702D01*
X139947357Y-75041076D01*
X139937980Y-75063715D01*
X139933200Y-75087749D01*
X139031800Y-75087749D01*
X139031800Y-75087747D01*
X139027019Y-75063714D01*
X139017642Y-75041075D01*
X139004029Y-75020702D01*
X138998800Y-75014330D01*
X138996501Y-75010029D01*
X138995083Y-75005355D01*
X138994000Y-74994359D01*
X138994000Y-74705641D01*
X138995083Y-74694645D01*
X138996501Y-74689971D01*
X138998800Y-74685669D01*
X139001896Y-74681896D01*
X139005669Y-74678800D01*
X139009971Y-74676501D01*
X139014645Y-74675083D01*
X139025641Y-74674000D01*
X139869001Y-74674000D01*
X139893387Y-74671598D01*
X139916836Y-74664485D01*
X139938447Y-74652934D01*
X139957389Y-74637389D01*
X139972934Y-74618447D01*
X139984485Y-74596836D01*
X139991598Y-74573387D01*
X139994000Y-74549001D01*
X139994000Y-73705641D01*
X139995083Y-73694645D01*
X139996501Y-73689971D01*
X139998800Y-73685669D01*
X140001896Y-73681896D01*
X140005669Y-73678800D01*
X140009971Y-73676501D01*
X140014645Y-73675083D01*
X140025641Y-73674000D01*
X140314359Y-73674000D01*
X140325355Y-73675083D01*
X140325355Y-73675083D01*
G37*
G36*
X143397417Y-75002540D02*
G01*
X143426081Y-75011235D01*
X143452495Y-75025354D01*
X143475646Y-75044354D01*
X143494646Y-75067505D01*
X143508765Y-75093919D01*
X143517460Y-75122583D01*
X143521000Y-75158527D01*
X143521000Y-78041473D01*
X143517460Y-78077417D01*
X143508765Y-78106081D01*
X143494646Y-78132495D01*
X143475646Y-78155646D01*
X143452495Y-78174646D01*
X143426081Y-78188765D01*
X143397417Y-78197460D01*
X143361473Y-78201000D01*
X140478527Y-78201000D01*
X140442583Y-78197460D01*
X140413919Y-78188765D01*
X140387505Y-78174646D01*
X140364354Y-78155646D01*
X140345354Y-78132495D01*
X140331235Y-78106081D01*
X140322540Y-78077417D01*
X140319000Y-78041473D01*
X140319000Y-75158527D01*
X140322540Y-75122583D01*
X140331235Y-75093919D01*
X140345354Y-75067505D01*
X140364354Y-75044354D01*
X140387505Y-75025354D01*
X140413919Y-75011235D01*
X140442583Y-75002540D01*
X140478527Y-74999000D01*
X143361473Y-74999000D01*
X143397417Y-75002540D01*
X143397417Y-75002540D01*
G37*
G36*
X138001000Y-78751000D02*
G01*
X135999000Y-78751000D01*
X135999000Y-78249000D01*
X138001000Y-78249000D01*
X138001000Y-78751000D01*
X138001000Y-78751000D01*
G37*
G36*
X146181938Y-77741716D02*
G01*
X146202557Y-77747971D01*
X146221553Y-77758124D01*
X146238208Y-77771792D01*
X146251876Y-77788447D01*
X146262029Y-77807443D01*
X146268284Y-77828062D01*
X146271000Y-77855640D01*
X146271000Y-78314360D01*
X146268284Y-78341938D01*
X146262029Y-78362557D01*
X146251876Y-78381553D01*
X146238208Y-78398208D01*
X146221553Y-78411876D01*
X146202557Y-78422029D01*
X146181938Y-78428284D01*
X146154360Y-78431000D01*
X145645640Y-78431000D01*
X145618062Y-78428284D01*
X145597443Y-78422029D01*
X145578447Y-78411876D01*
X145561792Y-78398208D01*
X145548124Y-78381553D01*
X145537971Y-78362557D01*
X145531716Y-78341938D01*
X145529000Y-78314360D01*
X145529000Y-77855640D01*
X145531716Y-77828062D01*
X145537971Y-77807443D01*
X145548124Y-77788447D01*
X145561792Y-77771792D01*
X145578447Y-77758124D01*
X145597443Y-77747971D01*
X145618062Y-77741716D01*
X145645640Y-77739000D01*
X146154360Y-77739000D01*
X146181938Y-77741716D01*
X146181938Y-77741716D01*
G37*
G36*
X138431938Y-76806716D02*
G01*
X138452557Y-76812971D01*
X138471553Y-76823124D01*
X138488208Y-76836792D01*
X138501876Y-76853447D01*
X138512029Y-76872443D01*
X138518284Y-76893062D01*
X138521000Y-76920640D01*
X138521000Y-77379360D01*
X138518284Y-77406938D01*
X138512029Y-77427557D01*
X138501876Y-77446553D01*
X138488208Y-77463208D01*
X138471553Y-77476876D01*
X138452557Y-77487029D01*
X138431938Y-77493284D01*
X138404360Y-77496000D01*
X137895640Y-77496000D01*
X137868062Y-77493284D01*
X137847443Y-77487029D01*
X137828447Y-77476876D01*
X137811792Y-77463208D01*
X137798124Y-77446553D01*
X137787971Y-77427557D01*
X137781716Y-77406938D01*
X137779000Y-77379360D01*
X137779000Y-76920640D01*
X137781716Y-76893062D01*
X137787971Y-76872443D01*
X137798124Y-76853447D01*
X137811792Y-76836792D01*
X137828447Y-76823124D01*
X137847443Y-76812971D01*
X137868062Y-76806716D01*
X137895640Y-76804000D01*
X138404360Y-76804000D01*
X138431938Y-76806716D01*
X138431938Y-76806716D01*
G37*
G36*
X146181938Y-76771716D02*
G01*
X146202557Y-76777971D01*
X146221553Y-76788124D01*
X146238208Y-76801792D01*
X146251876Y-76818447D01*
X146262029Y-76837443D01*
X146268284Y-76858062D01*
X146271000Y-76885640D01*
X146271000Y-77344360D01*
X146268284Y-77371938D01*
X146262029Y-77392557D01*
X146251876Y-77411553D01*
X146238208Y-77428208D01*
X146221553Y-77441876D01*
X146202557Y-77452029D01*
X146181938Y-77458284D01*
X146154360Y-77461000D01*
X145645640Y-77461000D01*
X145618062Y-77458284D01*
X145597443Y-77452029D01*
X145578447Y-77441876D01*
X145561792Y-77428208D01*
X145548124Y-77411553D01*
X145537971Y-77392557D01*
X145531716Y-77371938D01*
X145529000Y-77344360D01*
X145529000Y-76885640D01*
X145531716Y-76858062D01*
X145537971Y-76837443D01*
X145548124Y-76818447D01*
X145561792Y-76801792D01*
X145578447Y-76788124D01*
X145597443Y-76777971D01*
X145618062Y-76771716D01*
X145645640Y-76769000D01*
X146154360Y-76769000D01*
X146181938Y-76771716D01*
X146181938Y-76771716D01*
G37*
G36*
X128941938Y-76631716D02*
G01*
X128962557Y-76637971D01*
X128981553Y-76648124D01*
X128998208Y-76661792D01*
X129011876Y-76678447D01*
X129022029Y-76697443D01*
X129028284Y-76718062D01*
X129031000Y-76745640D01*
X129031000Y-77254360D01*
X129028284Y-77281938D01*
X129022029Y-77302557D01*
X129011876Y-77321553D01*
X128998208Y-77338208D01*
X128981553Y-77351876D01*
X128962557Y-77362029D01*
X128941938Y-77368284D01*
X128914360Y-77371000D01*
X128455640Y-77371000D01*
X128428062Y-77368284D01*
X128407443Y-77362029D01*
X128388447Y-77351876D01*
X128371792Y-77338208D01*
X128358124Y-77321553D01*
X128347971Y-77302557D01*
X128341716Y-77281938D01*
X128339000Y-77254360D01*
X128339000Y-76745640D01*
X128341716Y-76718062D01*
X128347971Y-76697443D01*
X128358124Y-76678447D01*
X128371792Y-76661792D01*
X128388447Y-76648124D01*
X128407443Y-76637971D01*
X128428062Y-76631716D01*
X128455640Y-76629000D01*
X128914360Y-76629000D01*
X128941938Y-76631716D01*
X128941938Y-76631716D01*
G37*
G36*
X127971938Y-76631716D02*
G01*
X127992557Y-76637971D01*
X128011553Y-76648124D01*
X128028208Y-76661792D01*
X128041876Y-76678447D01*
X128052029Y-76697443D01*
X128058284Y-76718062D01*
X128061000Y-76745640D01*
X128061000Y-77254360D01*
X128058284Y-77281938D01*
X128052029Y-77302557D01*
X128041876Y-77321553D01*
X128028208Y-77338208D01*
X128011553Y-77351876D01*
X127992557Y-77362029D01*
X127971938Y-77368284D01*
X127944360Y-77371000D01*
X127485640Y-77371000D01*
X127458062Y-77368284D01*
X127437443Y-77362029D01*
X127418447Y-77351876D01*
X127401792Y-77338208D01*
X127388124Y-77321553D01*
X127377971Y-77302557D01*
X127371716Y-77281938D01*
X127369000Y-77254360D01*
X127369000Y-76745640D01*
X127371716Y-76718062D01*
X127377971Y-76697443D01*
X127388124Y-76678447D01*
X127401792Y-76661792D01*
X127418447Y-76648124D01*
X127437443Y-76637971D01*
X127458062Y-76631716D01*
X127485640Y-76629000D01*
X127944360Y-76629000D01*
X127971938Y-76631716D01*
X127971938Y-76631716D01*
G37*
G36*
X155641938Y-76531716D02*
G01*
X155662557Y-76537971D01*
X155681553Y-76548124D01*
X155698208Y-76561792D01*
X155711876Y-76578447D01*
X155722029Y-76597443D01*
X155728284Y-76618062D01*
X155731000Y-76645640D01*
X155731000Y-77154360D01*
X155728284Y-77181938D01*
X155722029Y-77202557D01*
X155711876Y-77221553D01*
X155698208Y-77238208D01*
X155681553Y-77251876D01*
X155662557Y-77262029D01*
X155641938Y-77268284D01*
X155614360Y-77271000D01*
X155155640Y-77271000D01*
X155128062Y-77268284D01*
X155107443Y-77262029D01*
X155088447Y-77251876D01*
X155071792Y-77238208D01*
X155058124Y-77221553D01*
X155047971Y-77202557D01*
X155041716Y-77181938D01*
X155039000Y-77154360D01*
X155039000Y-76645640D01*
X155041716Y-76618062D01*
X155047971Y-76597443D01*
X155058124Y-76578447D01*
X155071792Y-76561792D01*
X155088447Y-76548124D01*
X155107443Y-76537971D01*
X155128062Y-76531716D01*
X155155640Y-76529000D01*
X155614360Y-76529000D01*
X155641938Y-76531716D01*
X155641938Y-76531716D01*
G37*
G36*
X153656938Y-76531716D02*
G01*
X153677557Y-76537971D01*
X153696553Y-76548124D01*
X153713208Y-76561792D01*
X153726876Y-76578447D01*
X153737029Y-76597443D01*
X153743284Y-76618062D01*
X153746000Y-76645640D01*
X153746000Y-77154360D01*
X153743284Y-77181938D01*
X153737029Y-77202557D01*
X153726876Y-77221553D01*
X153713208Y-77238208D01*
X153696553Y-77251876D01*
X153677557Y-77262029D01*
X153656938Y-77268284D01*
X153629360Y-77271000D01*
X153170640Y-77271000D01*
X153143062Y-77268284D01*
X153122443Y-77262029D01*
X153103447Y-77251876D01*
X153086792Y-77238208D01*
X153073124Y-77221553D01*
X153062971Y-77202557D01*
X153056716Y-77181938D01*
X153054000Y-77154360D01*
X153054000Y-76645640D01*
X153056716Y-76618062D01*
X153062971Y-76597443D01*
X153073124Y-76578447D01*
X153086792Y-76561792D01*
X153103447Y-76548124D01*
X153122443Y-76537971D01*
X153143062Y-76531716D01*
X153170640Y-76529000D01*
X153629360Y-76529000D01*
X153656938Y-76531716D01*
X153656938Y-76531716D01*
G37*
G36*
X152686938Y-76531716D02*
G01*
X152707557Y-76537971D01*
X152726553Y-76548124D01*
X152743208Y-76561792D01*
X152756876Y-76578447D01*
X152767029Y-76597443D01*
X152773284Y-76618062D01*
X152776000Y-76645640D01*
X152776000Y-77154360D01*
X152773284Y-77181938D01*
X152767029Y-77202557D01*
X152756876Y-77221553D01*
X152743208Y-77238208D01*
X152726553Y-77251876D01*
X152707557Y-77262029D01*
X152686938Y-77268284D01*
X152659360Y-77271000D01*
X152200640Y-77271000D01*
X152173062Y-77268284D01*
X152152443Y-77262029D01*
X152133447Y-77251876D01*
X152116792Y-77238208D01*
X152103124Y-77221553D01*
X152092971Y-77202557D01*
X152086716Y-77181938D01*
X152084000Y-77154360D01*
X152084000Y-76645640D01*
X152086716Y-76618062D01*
X152092971Y-76597443D01*
X152103124Y-76578447D01*
X152116792Y-76561792D01*
X152133447Y-76548124D01*
X152152443Y-76537971D01*
X152173062Y-76531716D01*
X152200640Y-76529000D01*
X152659360Y-76529000D01*
X152686938Y-76531716D01*
X152686938Y-76531716D01*
G37*
G36*
X154671938Y-76531716D02*
G01*
X154692557Y-76537971D01*
X154711553Y-76548124D01*
X154728208Y-76561792D01*
X154741876Y-76578447D01*
X154752029Y-76597443D01*
X154758284Y-76618062D01*
X154761000Y-76645640D01*
X154761000Y-77154360D01*
X154758284Y-77181938D01*
X154752029Y-77202557D01*
X154741876Y-77221553D01*
X154728208Y-77238208D01*
X154711553Y-77251876D01*
X154692557Y-77262029D01*
X154671938Y-77268284D01*
X154644360Y-77271000D01*
X154185640Y-77271000D01*
X154158062Y-77268284D01*
X154137443Y-77262029D01*
X154118447Y-77251876D01*
X154101792Y-77238208D01*
X154088124Y-77221553D01*
X154077971Y-77202557D01*
X154071716Y-77181938D01*
X154069000Y-77154360D01*
X154069000Y-76645640D01*
X154071716Y-76618062D01*
X154077971Y-76597443D01*
X154088124Y-76578447D01*
X154101792Y-76561792D01*
X154118447Y-76548124D01*
X154137443Y-76537971D01*
X154158062Y-76531716D01*
X154185640Y-76529000D01*
X154644360Y-76529000D01*
X154671938Y-76531716D01*
X154671938Y-76531716D01*
G37*
G36*
X138431938Y-75836716D02*
G01*
X138452557Y-75842971D01*
X138471553Y-75853124D01*
X138488208Y-75866792D01*
X138501876Y-75883447D01*
X138512029Y-75902443D01*
X138518284Y-75923062D01*
X138521000Y-75950640D01*
X138521000Y-76409360D01*
X138518284Y-76436938D01*
X138512029Y-76457557D01*
X138501876Y-76476553D01*
X138488208Y-76493208D01*
X138471553Y-76506876D01*
X138452557Y-76517029D01*
X138431938Y-76523284D01*
X138404360Y-76526000D01*
X137895640Y-76526000D01*
X137868062Y-76523284D01*
X137847443Y-76517029D01*
X137828447Y-76506876D01*
X137811792Y-76493208D01*
X137798124Y-76476553D01*
X137787971Y-76457557D01*
X137781716Y-76436938D01*
X137779000Y-76409360D01*
X137779000Y-75950640D01*
X137781716Y-75923062D01*
X137787971Y-75902443D01*
X137798124Y-75883447D01*
X137811792Y-75866792D01*
X137828447Y-75853124D01*
X137847443Y-75842971D01*
X137868062Y-75836716D01*
X137895640Y-75834000D01*
X138404360Y-75834000D01*
X138431938Y-75836716D01*
X138431938Y-75836716D01*
G37*
G36*
X152705355Y-72300083D02*
G01*
X152710029Y-72301501D01*
X152714330Y-72303800D01*
X152720702Y-72309029D01*
X152741076Y-72322643D01*
X152763715Y-72332020D01*
X152787749Y-72336800D01*
X152812253Y-72336800D01*
X152836286Y-72332019D01*
X152858925Y-72322642D01*
X152879298Y-72309029D01*
X152885670Y-72303800D01*
X152889971Y-72301501D01*
X152894645Y-72300083D01*
X152905641Y-72299000D01*
X153194359Y-72299000D01*
X153205355Y-72300083D01*
X153210029Y-72301501D01*
X153214330Y-72303800D01*
X153220702Y-72309029D01*
X153241076Y-72322643D01*
X153263715Y-72332020D01*
X153287749Y-72336800D01*
X153312253Y-72336800D01*
X153336286Y-72332019D01*
X153358925Y-72322642D01*
X153379298Y-72309029D01*
X153385670Y-72303800D01*
X153389971Y-72301501D01*
X153394645Y-72300083D01*
X153405641Y-72299000D01*
X153694359Y-72299000D01*
X153705355Y-72300083D01*
X153710029Y-72301501D01*
X153714330Y-72303800D01*
X153720702Y-72309029D01*
X153741076Y-72322643D01*
X153763715Y-72332020D01*
X153787749Y-72336800D01*
X153812253Y-72336800D01*
X153836286Y-72332019D01*
X153858925Y-72322642D01*
X153879298Y-72309029D01*
X153885670Y-72303800D01*
X153889971Y-72301501D01*
X153894645Y-72300083D01*
X153905641Y-72299000D01*
X154194359Y-72299000D01*
X154205355Y-72300083D01*
X154210029Y-72301501D01*
X154214331Y-72303800D01*
X154218104Y-72306896D01*
X154221200Y-72310669D01*
X154223499Y-72314971D01*
X154224917Y-72319645D01*
X154226000Y-72330641D01*
X154226000Y-73149001D01*
X154228402Y-73173387D01*
X154235515Y-73196836D01*
X154247066Y-73218447D01*
X154262611Y-73237389D01*
X154281553Y-73252934D01*
X154303164Y-73264485D01*
X154326613Y-73271598D01*
X154350999Y-73274000D01*
X155169359Y-73274000D01*
X155180355Y-73275083D01*
X155185029Y-73276501D01*
X155189331Y-73278800D01*
X155193104Y-73281896D01*
X155196200Y-73285669D01*
X155198499Y-73289971D01*
X155199917Y-73294645D01*
X155201000Y-73305641D01*
X155201000Y-73594359D01*
X155199917Y-73605355D01*
X155198499Y-73610029D01*
X155196200Y-73614330D01*
X155190971Y-73620702D01*
X155177357Y-73641076D01*
X155167980Y-73663715D01*
X155163200Y-73687749D01*
X155163200Y-73712253D01*
X155167981Y-73736286D01*
X155177358Y-73758925D01*
X155190971Y-73779298D01*
X155196200Y-73785670D01*
X155198499Y-73789971D01*
X155199917Y-73794645D01*
X155201000Y-73805641D01*
X155201000Y-74094359D01*
X155199917Y-74105355D01*
X155198499Y-74110029D01*
X155196200Y-74114330D01*
X155190971Y-74120702D01*
X155177357Y-74141076D01*
X155167980Y-74163715D01*
X155163200Y-74187749D01*
X155163200Y-74212253D01*
X155167981Y-74236286D01*
X155177358Y-74258925D01*
X155190971Y-74279298D01*
X155196200Y-74285670D01*
X155198499Y-74289971D01*
X155199917Y-74294645D01*
X155201000Y-74305641D01*
X155201000Y-74594359D01*
X155199917Y-74605355D01*
X155198499Y-74610029D01*
X155196200Y-74614330D01*
X155190971Y-74620702D01*
X155177357Y-74641076D01*
X155167980Y-74663715D01*
X155163200Y-74687749D01*
X155163200Y-74712253D01*
X155167981Y-74736286D01*
X155177358Y-74758925D01*
X155190971Y-74779298D01*
X155196200Y-74785670D01*
X155198499Y-74789971D01*
X155199917Y-74794645D01*
X155201000Y-74805641D01*
X155201000Y-75094359D01*
X155199917Y-75105355D01*
X155198499Y-75110029D01*
X155196200Y-75114331D01*
X155193104Y-75118104D01*
X155189331Y-75121200D01*
X155185029Y-75123499D01*
X155180355Y-75124917D01*
X155169359Y-75126000D01*
X154350999Y-75126000D01*
X154326613Y-75128402D01*
X154303164Y-75135515D01*
X154281553Y-75147066D01*
X154262611Y-75162611D01*
X154247066Y-75181553D01*
X154235515Y-75203164D01*
X154228402Y-75226613D01*
X154226000Y-75250999D01*
X154226000Y-76069359D01*
X154224917Y-76080355D01*
X154223499Y-76085029D01*
X154221200Y-76089331D01*
X154218104Y-76093104D01*
X154214331Y-76096200D01*
X154210029Y-76098499D01*
X154205355Y-76099917D01*
X154194359Y-76101000D01*
X153905641Y-76101000D01*
X153894645Y-76099917D01*
X153889971Y-76098499D01*
X153885670Y-76096200D01*
X153879298Y-76090971D01*
X153858924Y-76077357D01*
X153836285Y-76067980D01*
X153812251Y-76063200D01*
X153787747Y-76063200D01*
X153763714Y-76067981D01*
X153741075Y-76077358D01*
X153720702Y-76090971D01*
X153714330Y-76096200D01*
X153710029Y-76098499D01*
X153705355Y-76099917D01*
X153694359Y-76101000D01*
X153405641Y-76101000D01*
X153394645Y-76099917D01*
X153389971Y-76098499D01*
X153385670Y-76096200D01*
X153379298Y-76090971D01*
X153358924Y-76077357D01*
X153336285Y-76067980D01*
X153312251Y-76063200D01*
X153287747Y-76063200D01*
X153263714Y-76067981D01*
X153241075Y-76077358D01*
X153220702Y-76090971D01*
X153214330Y-76096200D01*
X153210029Y-76098499D01*
X153205355Y-76099917D01*
X153194359Y-76101000D01*
X152905641Y-76101000D01*
X152894645Y-76099917D01*
X152889971Y-76098499D01*
X152885670Y-76096200D01*
X152879298Y-76090971D01*
X152858924Y-76077357D01*
X152836285Y-76067980D01*
X152812251Y-76063200D01*
X152787747Y-76063200D01*
X152763714Y-76067981D01*
X152741075Y-76077358D01*
X152720702Y-76090971D01*
X152714330Y-76096200D01*
X152710029Y-76098499D01*
X152705355Y-76099917D01*
X152694359Y-76101000D01*
X152405641Y-76101000D01*
X152394645Y-76099917D01*
X152389971Y-76098499D01*
X152385669Y-76096200D01*
X152381896Y-76093104D01*
X152378800Y-76089331D01*
X152376501Y-76085029D01*
X152375083Y-76080355D01*
X152374000Y-76069359D01*
X152374000Y-75250999D01*
X152371598Y-75226613D01*
X152364485Y-75203164D01*
X152352934Y-75181553D01*
X152337389Y-75162611D01*
X152318447Y-75147066D01*
X152296836Y-75135515D01*
X152273387Y-75128402D01*
X152249001Y-75126000D01*
X151430641Y-75126000D01*
X151419645Y-75124917D01*
X151414971Y-75123499D01*
X151410669Y-75121200D01*
X151406896Y-75118104D01*
X151403800Y-75114331D01*
X151401501Y-75110029D01*
X151400083Y-75105355D01*
X151399000Y-75094359D01*
X151399000Y-74805641D01*
X151400083Y-74794645D01*
X151401501Y-74789971D01*
X151403800Y-74785670D01*
X151409029Y-74779298D01*
X151422643Y-74758924D01*
X151432020Y-74736285D01*
X151436800Y-74712251D01*
X151436800Y-74687747D01*
X151432019Y-74663714D01*
X151422642Y-74641075D01*
X151409029Y-74620702D01*
X151403800Y-74614330D01*
X151401501Y-74610029D01*
X151400083Y-74605355D01*
X151399000Y-74594359D01*
X151399000Y-74305641D01*
X151400083Y-74294645D01*
X151401501Y-74289971D01*
X151403800Y-74285670D01*
X151409029Y-74279298D01*
X151422643Y-74258924D01*
X151432020Y-74236285D01*
X151436800Y-74212251D01*
X151436800Y-74187747D01*
X151432019Y-74163714D01*
X151422642Y-74141075D01*
X151409029Y-74120702D01*
X151403800Y-74114330D01*
X151401501Y-74110029D01*
X151400083Y-74105355D01*
X151399000Y-74094359D01*
X151399000Y-73805641D01*
X151400083Y-73794645D01*
X151401501Y-73789971D01*
X151403800Y-73785670D01*
X151409029Y-73779298D01*
X151422643Y-73758924D01*
X151432020Y-73736285D01*
X151436800Y-73712251D01*
X151436800Y-73687747D01*
X151432019Y-73663714D01*
X151422642Y-73641075D01*
X151409029Y-73620702D01*
X151403800Y-73614330D01*
X151401501Y-73610029D01*
X151400083Y-73605355D01*
X151399000Y-73594359D01*
X151399000Y-73305641D01*
X151400083Y-73294645D01*
X151401501Y-73289971D01*
X151403800Y-73285669D01*
X151406896Y-73281896D01*
X151410669Y-73278800D01*
X151414971Y-73276501D01*
X151419645Y-73275083D01*
X151430641Y-73274000D01*
X152249001Y-73274000D01*
X152273387Y-73271598D01*
X152296836Y-73264485D01*
X152318447Y-73252934D01*
X152337389Y-73237389D01*
X152352934Y-73218447D01*
X152364485Y-73196836D01*
X152371598Y-73173387D01*
X152374000Y-73149001D01*
X152374000Y-72330641D01*
X152375083Y-72319645D01*
X152376501Y-72314971D01*
X152378800Y-72310669D01*
X152381896Y-72306896D01*
X152385669Y-72303800D01*
X152389971Y-72301501D01*
X152394645Y-72300083D01*
X152405641Y-72299000D01*
X152694359Y-72299000D01*
X152705355Y-72300083D01*
X152705355Y-72300083D01*
G37*
G36*
X148297938Y-74013716D02*
G01*
X148318557Y-74019971D01*
X148337553Y-74030124D01*
X148354208Y-74043792D01*
X148367876Y-74060447D01*
X148378029Y-74079443D01*
X148384284Y-74100062D01*
X148387000Y-74127640D01*
X148387000Y-74586360D01*
X148384284Y-74613938D01*
X148378029Y-74634557D01*
X148367876Y-74653553D01*
X148354208Y-74670208D01*
X148337553Y-74683876D01*
X148318557Y-74694029D01*
X148297938Y-74700284D01*
X148270360Y-74703000D01*
X147761640Y-74703000D01*
X147734062Y-74700284D01*
X147713443Y-74694029D01*
X147694447Y-74683876D01*
X147677792Y-74670208D01*
X147664124Y-74653553D01*
X147653971Y-74634557D01*
X147647716Y-74613938D01*
X147645000Y-74586360D01*
X147645000Y-74127640D01*
X147647716Y-74100062D01*
X147653971Y-74079443D01*
X147664124Y-74060447D01*
X147677792Y-74043792D01*
X147694447Y-74030124D01*
X147713443Y-74019971D01*
X147734062Y-74013716D01*
X147761640Y-74011000D01*
X148270360Y-74011000D01*
X148297938Y-74013716D01*
X148297938Y-74013716D01*
G37*
G36*
X147281938Y-74013716D02*
G01*
X147302557Y-74019971D01*
X147321553Y-74030124D01*
X147338208Y-74043792D01*
X147351876Y-74060447D01*
X147362029Y-74079443D01*
X147368284Y-74100062D01*
X147371000Y-74127640D01*
X147371000Y-74586360D01*
X147368284Y-74613938D01*
X147362029Y-74634557D01*
X147351876Y-74653553D01*
X147338208Y-74670208D01*
X147321553Y-74683876D01*
X147302557Y-74694029D01*
X147281938Y-74700284D01*
X147254360Y-74703000D01*
X146745640Y-74703000D01*
X146718062Y-74700284D01*
X146697443Y-74694029D01*
X146678447Y-74683876D01*
X146661792Y-74670208D01*
X146648124Y-74653553D01*
X146637971Y-74634557D01*
X146631716Y-74613938D01*
X146629000Y-74586360D01*
X146629000Y-74127640D01*
X146631716Y-74100062D01*
X146637971Y-74079443D01*
X146648124Y-74060447D01*
X146661792Y-74043792D01*
X146678447Y-74030124D01*
X146697443Y-74019971D01*
X146718062Y-74013716D01*
X146745640Y-74011000D01*
X147254360Y-74011000D01*
X147281938Y-74013716D01*
X147281938Y-74013716D01*
G37*
G36*
X159569683Y-73552725D02*
G01*
X159600143Y-73561966D01*
X159628223Y-73576974D01*
X159652831Y-73597169D01*
X159673026Y-73621777D01*
X159688034Y-73649857D01*
X159697275Y-73680317D01*
X159701000Y-73718140D01*
X159701000Y-74281860D01*
X159697275Y-74319683D01*
X159688034Y-74350143D01*
X159673026Y-74378223D01*
X159652831Y-74402831D01*
X159628223Y-74423026D01*
X159600143Y-74438034D01*
X159569683Y-74447275D01*
X159531860Y-74451000D01*
X158468140Y-74451000D01*
X158430317Y-74447275D01*
X158399857Y-74438034D01*
X158371777Y-74423026D01*
X158347169Y-74402831D01*
X158326974Y-74378223D01*
X158311966Y-74350143D01*
X158302725Y-74319683D01*
X158299000Y-74281860D01*
X158299000Y-73718140D01*
X158302725Y-73680317D01*
X158311966Y-73649857D01*
X158326974Y-73621777D01*
X158347169Y-73597169D01*
X158371777Y-73576974D01*
X158399857Y-73561966D01*
X158430317Y-73552725D01*
X158468140Y-73549000D01*
X159531860Y-73549000D01*
X159569683Y-73552725D01*
X159569683Y-73552725D01*
G37*
G36*
X135338410Y-73505525D02*
G01*
X135423426Y-73531314D01*
X135501775Y-73573193D01*
X135570449Y-73629551D01*
X135626807Y-73698225D01*
X135668686Y-73776574D01*
X135694475Y-73861590D01*
X135703182Y-73950000D01*
X135694475Y-74038410D01*
X135668686Y-74123426D01*
X135626807Y-74201775D01*
X135570449Y-74270449D01*
X135501775Y-74326807D01*
X135423426Y-74368686D01*
X135338410Y-74394475D01*
X135272158Y-74401000D01*
X134727842Y-74401000D01*
X134661590Y-74394475D01*
X134576574Y-74368686D01*
X134498225Y-74326807D01*
X134429551Y-74270449D01*
X134373193Y-74201775D01*
X134331314Y-74123426D01*
X134305525Y-74038410D01*
X134296818Y-73950000D01*
X134305525Y-73861590D01*
X134331314Y-73776574D01*
X134373193Y-73698225D01*
X134429551Y-73629551D01*
X134498225Y-73573193D01*
X134576574Y-73531314D01*
X134661590Y-73505525D01*
X134727842Y-73499000D01*
X135272158Y-73499000D01*
X135338410Y-73505525D01*
X135338410Y-73505525D01*
G37*
G36*
X148297938Y-73043716D02*
G01*
X148318557Y-73049971D01*
X148337553Y-73060124D01*
X148354208Y-73073792D01*
X148367876Y-73090447D01*
X148378029Y-73109443D01*
X148384284Y-73130062D01*
X148387000Y-73157640D01*
X148387000Y-73616360D01*
X148384284Y-73643938D01*
X148378029Y-73664557D01*
X148367876Y-73683553D01*
X148354208Y-73700208D01*
X148337553Y-73713876D01*
X148318557Y-73724029D01*
X148297938Y-73730284D01*
X148270360Y-73733000D01*
X147761640Y-73733000D01*
X147734062Y-73730284D01*
X147713443Y-73724029D01*
X147694447Y-73713876D01*
X147677792Y-73700208D01*
X147664124Y-73683553D01*
X147653971Y-73664557D01*
X147647716Y-73643938D01*
X147645000Y-73616360D01*
X147645000Y-73157640D01*
X147647716Y-73130062D01*
X147653971Y-73109443D01*
X147664124Y-73090447D01*
X147677792Y-73073792D01*
X147694447Y-73060124D01*
X147713443Y-73049971D01*
X147734062Y-73043716D01*
X147761640Y-73041000D01*
X148270360Y-73041000D01*
X148297938Y-73043716D01*
X148297938Y-73043716D01*
G37*
G36*
X147281938Y-73043716D02*
G01*
X147302557Y-73049971D01*
X147321553Y-73060124D01*
X147338208Y-73073792D01*
X147351876Y-73090447D01*
X147362029Y-73109443D01*
X147368284Y-73130062D01*
X147371000Y-73157640D01*
X147371000Y-73616360D01*
X147368284Y-73643938D01*
X147362029Y-73664557D01*
X147351876Y-73683553D01*
X147338208Y-73700208D01*
X147321553Y-73713876D01*
X147302557Y-73724029D01*
X147281938Y-73730284D01*
X147254360Y-73733000D01*
X146745640Y-73733000D01*
X146718062Y-73730284D01*
X146697443Y-73724029D01*
X146678447Y-73713876D01*
X146661792Y-73700208D01*
X146648124Y-73683553D01*
X146637971Y-73664557D01*
X146631716Y-73643938D01*
X146629000Y-73616360D01*
X146629000Y-73157640D01*
X146631716Y-73130062D01*
X146637971Y-73109443D01*
X146648124Y-73090447D01*
X146661792Y-73073792D01*
X146678447Y-73060124D01*
X146697443Y-73049971D01*
X146718062Y-73043716D01*
X146745640Y-73041000D01*
X147254360Y-73041000D01*
X147281938Y-73043716D01*
X147281938Y-73043716D01*
G37*
G36*
X159338410Y-72305525D02*
G01*
X159423426Y-72331314D01*
X159501775Y-72373193D01*
X159570449Y-72429551D01*
X159626807Y-72498225D01*
X159668686Y-72576574D01*
X159694475Y-72661590D01*
X159703182Y-72750000D01*
X159694475Y-72838410D01*
X159668686Y-72923426D01*
X159626807Y-73001775D01*
X159570449Y-73070449D01*
X159501775Y-73126807D01*
X159423426Y-73168686D01*
X159338410Y-73194475D01*
X159272158Y-73201000D01*
X158727842Y-73201000D01*
X158661590Y-73194475D01*
X158576574Y-73168686D01*
X158498225Y-73126807D01*
X158429551Y-73070449D01*
X158373193Y-73001775D01*
X158331314Y-72923426D01*
X158305525Y-72838410D01*
X158296818Y-72750000D01*
X158305525Y-72661590D01*
X158331314Y-72576574D01*
X158373193Y-72498225D01*
X158429551Y-72429551D01*
X158498225Y-72373193D01*
X158576574Y-72331314D01*
X158661590Y-72305525D01*
X158727842Y-72299000D01*
X159272158Y-72299000D01*
X159338410Y-72305525D01*
X159338410Y-72305525D01*
G37*
G36*
X135569683Y-72252725D02*
G01*
X135600143Y-72261966D01*
X135628223Y-72276974D01*
X135652831Y-72297169D01*
X135673026Y-72321777D01*
X135688034Y-72349857D01*
X135697275Y-72380317D01*
X135701000Y-72418140D01*
X135701000Y-72981860D01*
X135697275Y-73019683D01*
X135688034Y-73050143D01*
X135673026Y-73078223D01*
X135652831Y-73102831D01*
X135628223Y-73123026D01*
X135600143Y-73138034D01*
X135569683Y-73147275D01*
X135531860Y-73151000D01*
X134468140Y-73151000D01*
X134430317Y-73147275D01*
X134399857Y-73138034D01*
X134371777Y-73123026D01*
X134347169Y-73102831D01*
X134326974Y-73078223D01*
X134311966Y-73050143D01*
X134302725Y-73019683D01*
X134299000Y-72981860D01*
X134299000Y-72418140D01*
X134302725Y-72380317D01*
X134311966Y-72349857D01*
X134326974Y-72321777D01*
X134347169Y-72297169D01*
X134371777Y-72276974D01*
X134399857Y-72261966D01*
X134430317Y-72252725D01*
X134468140Y-72249000D01*
X135531860Y-72249000D01*
X135569683Y-72252725D01*
X135569683Y-72252725D01*
G37*
G36*
X140429591Y-71578085D02*
G01*
X140463569Y-71588393D01*
X140494890Y-71605134D01*
X140522339Y-71627661D01*
X140544866Y-71655110D01*
X140561607Y-71686431D01*
X140571915Y-71720409D01*
X140576000Y-71761890D01*
X140576000Y-72438110D01*
X140571915Y-72479591D01*
X140561607Y-72513569D01*
X140544866Y-72544890D01*
X140522339Y-72572339D01*
X140494890Y-72594866D01*
X140463569Y-72611607D01*
X140429591Y-72621915D01*
X140388110Y-72626000D01*
X139786890Y-72626000D01*
X139745409Y-72621915D01*
X139711431Y-72611607D01*
X139680110Y-72594866D01*
X139652661Y-72572339D01*
X139630134Y-72544890D01*
X139613393Y-72513569D01*
X139603085Y-72479591D01*
X139599000Y-72438110D01*
X139599000Y-71761890D01*
X139603085Y-71720409D01*
X139613393Y-71686431D01*
X139630134Y-71655110D01*
X139652661Y-71627661D01*
X139680110Y-71605134D01*
X139711431Y-71588393D01*
X139745409Y-71578085D01*
X139786890Y-71574000D01*
X140388110Y-71574000D01*
X140429591Y-71578085D01*
X140429591Y-71578085D01*
G37*
G36*
X138854591Y-71578085D02*
G01*
X138888569Y-71588393D01*
X138919890Y-71605134D01*
X138947339Y-71627661D01*
X138969866Y-71655110D01*
X138986607Y-71686431D01*
X138996915Y-71720409D01*
X139001000Y-71761890D01*
X139001000Y-72438110D01*
X138996915Y-72479591D01*
X138986607Y-72513569D01*
X138969866Y-72544890D01*
X138947339Y-72572339D01*
X138919890Y-72594866D01*
X138888569Y-72611607D01*
X138854591Y-72621915D01*
X138813110Y-72626000D01*
X138211890Y-72626000D01*
X138170409Y-72621915D01*
X138136431Y-72611607D01*
X138105110Y-72594866D01*
X138077661Y-72572339D01*
X138055134Y-72544890D01*
X138038393Y-72513569D01*
X138028085Y-72479591D01*
X138024000Y-72438110D01*
X138024000Y-71761890D01*
X138028085Y-71720409D01*
X138038393Y-71686431D01*
X138055134Y-71655110D01*
X138077661Y-71627661D01*
X138105110Y-71605134D01*
X138136431Y-71588393D01*
X138170409Y-71578085D01*
X138211890Y-71574000D01*
X138813110Y-71574000D01*
X138854591Y-71578085D01*
X138854591Y-71578085D01*
G37*
G36*
X148774000Y-71781000D02*
G01*
X144972000Y-71781000D01*
X144972000Y-69679000D01*
X148774000Y-69679000D01*
X148774000Y-71781000D01*
X148774000Y-71781000D01*
G37*
G36*
X152374000Y-71631000D02*
G01*
X150272000Y-71631000D01*
X150272000Y-69629000D01*
X152374000Y-69629000D01*
X152374000Y-71631000D01*
X152374000Y-71631000D01*
G37*
G36*
X143474000Y-71631000D02*
G01*
X141372000Y-71631000D01*
X141372000Y-69629000D01*
X143474000Y-69629000D01*
X143474000Y-71631000D01*
X143474000Y-71631000D01*
G37*
G36*
X138854591Y-69978085D02*
G01*
X138888569Y-69988393D01*
X138919890Y-70005134D01*
X138947339Y-70027661D01*
X138969866Y-70055110D01*
X138986607Y-70086431D01*
X138996915Y-70120409D01*
X139001000Y-70161890D01*
X139001000Y-70838110D01*
X138996915Y-70879591D01*
X138986607Y-70913569D01*
X138969866Y-70944890D01*
X138947339Y-70972339D01*
X138919890Y-70994866D01*
X138888569Y-71011607D01*
X138854591Y-71021915D01*
X138813110Y-71026000D01*
X138211890Y-71026000D01*
X138170409Y-71021915D01*
X138136431Y-71011607D01*
X138105110Y-70994866D01*
X138077661Y-70972339D01*
X138055134Y-70944890D01*
X138038393Y-70913569D01*
X138028085Y-70879591D01*
X138024000Y-70838110D01*
X138024000Y-70161890D01*
X138028085Y-70120409D01*
X138038393Y-70086431D01*
X138055134Y-70055110D01*
X138077661Y-70027661D01*
X138105110Y-70005134D01*
X138136431Y-69988393D01*
X138170409Y-69978085D01*
X138211890Y-69974000D01*
X138813110Y-69974000D01*
X138854591Y-69978085D01*
X138854591Y-69978085D01*
G37*
G36*
X140429591Y-69978085D02*
G01*
X140463569Y-69988393D01*
X140494890Y-70005134D01*
X140522339Y-70027661D01*
X140544866Y-70055110D01*
X140561607Y-70086431D01*
X140571915Y-70120409D01*
X140576000Y-70161890D01*
X140576000Y-70838110D01*
X140571915Y-70879591D01*
X140561607Y-70913569D01*
X140544866Y-70944890D01*
X140522339Y-70972339D01*
X140494890Y-70994866D01*
X140463569Y-71011607D01*
X140429591Y-71021915D01*
X140388110Y-71026000D01*
X139786890Y-71026000D01*
X139745409Y-71021915D01*
X139711431Y-71011607D01*
X139680110Y-70994866D01*
X139652661Y-70972339D01*
X139630134Y-70944890D01*
X139613393Y-70913569D01*
X139603085Y-70879591D01*
X139599000Y-70838110D01*
X139599000Y-70161890D01*
X139603085Y-70120409D01*
X139613393Y-70086431D01*
X139630134Y-70055110D01*
X139652661Y-70027661D01*
X139680110Y-70005134D01*
X139711431Y-69988393D01*
X139745409Y-69978085D01*
X139786890Y-69974000D01*
X140388110Y-69974000D01*
X140429591Y-69978085D01*
X140429591Y-69978085D01*
G37*
G36*
X154226000Y-70181000D02*
G01*
X153474000Y-70181000D01*
X153474000Y-69019000D01*
X154226000Y-69019000D01*
X154226000Y-70181000D01*
X154226000Y-70181000D01*
G37*
G36*
X156126000Y-70181000D02*
G01*
X155374000Y-70181000D01*
X155374000Y-69019000D01*
X156126000Y-69019000D01*
X156126000Y-70181000D01*
X156126000Y-70181000D01*
G37*
G36*
X157779591Y-69203085D02*
G01*
X157813569Y-69213393D01*
X157844890Y-69230134D01*
X157872339Y-69252661D01*
X157894866Y-69280110D01*
X157911607Y-69311431D01*
X157921915Y-69345409D01*
X157926000Y-69386890D01*
X157926000Y-69988110D01*
X157921915Y-70029591D01*
X157911607Y-70063569D01*
X157894866Y-70094890D01*
X157872339Y-70122339D01*
X157844890Y-70144866D01*
X157813569Y-70161607D01*
X157779591Y-70171915D01*
X157738110Y-70176000D01*
X157061890Y-70176000D01*
X157020409Y-70171915D01*
X156986431Y-70161607D01*
X156955110Y-70144866D01*
X156927661Y-70122339D01*
X156905134Y-70094890D01*
X156888393Y-70063569D01*
X156878085Y-70029591D01*
X156874000Y-69988110D01*
X156874000Y-69386890D01*
X156878085Y-69345409D01*
X156888393Y-69311431D01*
X156905134Y-69280110D01*
X156927661Y-69252661D01*
X156955110Y-69230134D01*
X156986431Y-69213393D01*
X157020409Y-69203085D01*
X157061890Y-69199000D01*
X157738110Y-69199000D01*
X157779591Y-69203085D01*
X157779591Y-69203085D01*
G37*
G36*
X159126000Y-70001000D02*
G01*
X158574000Y-70001000D01*
X158574000Y-69199000D01*
X159126000Y-69199000D01*
X159126000Y-70001000D01*
X159126000Y-70001000D01*
G37*
G36*
X160426000Y-70001000D02*
G01*
X159874000Y-70001000D01*
X159874000Y-69199000D01*
X160426000Y-69199000D01*
X160426000Y-70001000D01*
X160426000Y-70001000D01*
G37*
G36*
X138376000Y-69381000D02*
G01*
X137624000Y-69381000D01*
X137624000Y-68219000D01*
X138376000Y-68219000D01*
X138376000Y-69381000D01*
X138376000Y-69381000D01*
G37*
G36*
X140276000Y-69381000D02*
G01*
X139524000Y-69381000D01*
X139524000Y-68219000D01*
X140276000Y-68219000D01*
X140276000Y-69381000D01*
X140276000Y-69381000D01*
G37*
G36*
X157779591Y-67628085D02*
G01*
X157813569Y-67638393D01*
X157844890Y-67655134D01*
X157872339Y-67677661D01*
X157894866Y-67705110D01*
X157911607Y-67736431D01*
X157921915Y-67770409D01*
X157926000Y-67811890D01*
X157926000Y-68413110D01*
X157921915Y-68454591D01*
X157911607Y-68488569D01*
X157894866Y-68519890D01*
X157872339Y-68547339D01*
X157844890Y-68569866D01*
X157813569Y-68586607D01*
X157779591Y-68596915D01*
X157738110Y-68601000D01*
X157061890Y-68601000D01*
X157020409Y-68596915D01*
X156986431Y-68586607D01*
X156955110Y-68569866D01*
X156927661Y-68547339D01*
X156905134Y-68519890D01*
X156888393Y-68488569D01*
X156878085Y-68454591D01*
X156874000Y-68413110D01*
X156874000Y-67811890D01*
X156878085Y-67770409D01*
X156888393Y-67736431D01*
X156905134Y-67705110D01*
X156927661Y-67677661D01*
X156955110Y-67655134D01*
X156986431Y-67638393D01*
X157020409Y-67628085D01*
X157061890Y-67624000D01*
X157738110Y-67624000D01*
X157779591Y-67628085D01*
X157779591Y-67628085D01*
G37*
G36*
X149233721Y-67500174D02*
G01*
X149333995Y-67541709D01*
X149333996Y-67541710D01*
X149424242Y-67602010D01*
X149500990Y-67678758D01*
X149518598Y-67705110D01*
X149561291Y-67769005D01*
X149602826Y-67869279D01*
X149624000Y-67975730D01*
X149624000Y-68084270D01*
X149602826Y-68190721D01*
X149561291Y-68290995D01*
X149561290Y-68290996D01*
X149500990Y-68381242D01*
X149424242Y-68457990D01*
X149378812Y-68488345D01*
X149333995Y-68518291D01*
X149233721Y-68559826D01*
X149127270Y-68581000D01*
X149018730Y-68581000D01*
X148912279Y-68559826D01*
X148812005Y-68518291D01*
X148767188Y-68488345D01*
X148721758Y-68457990D01*
X148645010Y-68381242D01*
X148584710Y-68290996D01*
X148584709Y-68290995D01*
X148543174Y-68190721D01*
X148522000Y-68084270D01*
X148522000Y-67975730D01*
X148543174Y-67869279D01*
X148584709Y-67769005D01*
X148627402Y-67705110D01*
X148645010Y-67678758D01*
X148721758Y-67602010D01*
X148812004Y-67541710D01*
X148812005Y-67541709D01*
X148912279Y-67500174D01*
X149018730Y-67479000D01*
X149127270Y-67479000D01*
X149233721Y-67500174D01*
X149233721Y-67500174D01*
G37*
G36*
X144833721Y-67500174D02*
G01*
X144933995Y-67541709D01*
X144933996Y-67541710D01*
X145024242Y-67602010D01*
X145100990Y-67678758D01*
X145118598Y-67705110D01*
X145161291Y-67769005D01*
X145202826Y-67869279D01*
X145224000Y-67975730D01*
X145224000Y-68084270D01*
X145202826Y-68190721D01*
X145161291Y-68290995D01*
X145161290Y-68290996D01*
X145100990Y-68381242D01*
X145024242Y-68457990D01*
X144978812Y-68488345D01*
X144933995Y-68518291D01*
X144833721Y-68559826D01*
X144727270Y-68581000D01*
X144618730Y-68581000D01*
X144512279Y-68559826D01*
X144412005Y-68518291D01*
X144367188Y-68488345D01*
X144321758Y-68457990D01*
X144245010Y-68381242D01*
X144184710Y-68290996D01*
X144184709Y-68290995D01*
X144143174Y-68190721D01*
X144122000Y-68084270D01*
X144122000Y-67975730D01*
X144143174Y-67869279D01*
X144184709Y-67769005D01*
X144227402Y-67705110D01*
X144245010Y-67678758D01*
X144321758Y-67602010D01*
X144412004Y-67541710D01*
X144412005Y-67541709D01*
X144512279Y-67500174D01*
X144618730Y-67479000D01*
X144727270Y-67479000D01*
X144833721Y-67500174D01*
X144833721Y-67500174D01*
G37*
G36*
X159776000Y-68001000D02*
G01*
X159224000Y-68001000D01*
X159224000Y-67199000D01*
X159776000Y-67199000D01*
X159776000Y-68001000D01*
X159776000Y-68001000D01*
G37*
G36*
X156126000Y-67981000D02*
G01*
X153474000Y-67981000D01*
X153474000Y-66819000D01*
X156126000Y-66819000D01*
X156126000Y-67981000D01*
X156126000Y-67981000D01*
G37*
G36*
X140276000Y-67181000D02*
G01*
X137624000Y-67181000D01*
X137624000Y-66019000D01*
X140276000Y-66019000D01*
X140276000Y-67181000D01*
X140276000Y-67181000D01*
G37*
G36*
X152374000Y-66181000D02*
G01*
X150272000Y-66181000D01*
X150272000Y-64179000D01*
X152374000Y-64179000D01*
X152374000Y-66181000D01*
X152374000Y-66181000D01*
G37*
G36*
X143474000Y-66181000D02*
G01*
X141372000Y-66181000D01*
X141372000Y-64179000D01*
X143474000Y-64179000D01*
X143474000Y-66181000D01*
X143474000Y-66181000D01*
G37*
G36*
X155829591Y-65078085D02*
G01*
X155863569Y-65088393D01*
X155894890Y-65105134D01*
X155922339Y-65127661D01*
X155944866Y-65155110D01*
X155961607Y-65186431D01*
X155971915Y-65220409D01*
X155976000Y-65261890D01*
X155976000Y-65938110D01*
X155971915Y-65979591D01*
X155961607Y-66013569D01*
X155944866Y-66044890D01*
X155922339Y-66072339D01*
X155894890Y-66094866D01*
X155863569Y-66111607D01*
X155829591Y-66121915D01*
X155788110Y-66126000D01*
X155186890Y-66126000D01*
X155145409Y-66121915D01*
X155111431Y-66111607D01*
X155080110Y-66094866D01*
X155052661Y-66072339D01*
X155030134Y-66044890D01*
X155013393Y-66013569D01*
X155003085Y-65979591D01*
X154999000Y-65938110D01*
X154999000Y-65261890D01*
X155003085Y-65220409D01*
X155013393Y-65186431D01*
X155030134Y-65155110D01*
X155052661Y-65127661D01*
X155080110Y-65105134D01*
X155111431Y-65088393D01*
X155145409Y-65078085D01*
X155186890Y-65074000D01*
X155788110Y-65074000D01*
X155829591Y-65078085D01*
X155829591Y-65078085D01*
G37*
G36*
X154254591Y-65078085D02*
G01*
X154288569Y-65088393D01*
X154319890Y-65105134D01*
X154347339Y-65127661D01*
X154369866Y-65155110D01*
X154386607Y-65186431D01*
X154396915Y-65220409D01*
X154401000Y-65261890D01*
X154401000Y-65938110D01*
X154396915Y-65979591D01*
X154386607Y-66013569D01*
X154369866Y-66044890D01*
X154347339Y-66072339D01*
X154319890Y-66094866D01*
X154288569Y-66111607D01*
X154254591Y-66121915D01*
X154213110Y-66126000D01*
X153611890Y-66126000D01*
X153570409Y-66121915D01*
X153536431Y-66111607D01*
X153505110Y-66094866D01*
X153477661Y-66072339D01*
X153455134Y-66044890D01*
X153438393Y-66013569D01*
X153428085Y-65979591D01*
X153424000Y-65938110D01*
X153424000Y-65261890D01*
X153428085Y-65220409D01*
X153438393Y-65186431D01*
X153455134Y-65155110D01*
X153477661Y-65127661D01*
X153505110Y-65105134D01*
X153536431Y-65088393D01*
X153570409Y-65078085D01*
X153611890Y-65074000D01*
X154213110Y-65074000D01*
X154254591Y-65078085D01*
X154254591Y-65078085D01*
G37*
G36*
X140429591Y-64378085D02*
G01*
X140463569Y-64388393D01*
X140494890Y-64405134D01*
X140522339Y-64427661D01*
X140544866Y-64455110D01*
X140561607Y-64486431D01*
X140571915Y-64520409D01*
X140576000Y-64561890D01*
X140576000Y-65238110D01*
X140571915Y-65279591D01*
X140561607Y-65313569D01*
X140544866Y-65344890D01*
X140522339Y-65372339D01*
X140494890Y-65394866D01*
X140463569Y-65411607D01*
X140429591Y-65421915D01*
X140388110Y-65426000D01*
X139786890Y-65426000D01*
X139745409Y-65421915D01*
X139711431Y-65411607D01*
X139680110Y-65394866D01*
X139652661Y-65372339D01*
X139630134Y-65344890D01*
X139613393Y-65313569D01*
X139603085Y-65279591D01*
X139599000Y-65238110D01*
X139599000Y-64561890D01*
X139603085Y-64520409D01*
X139613393Y-64486431D01*
X139630134Y-64455110D01*
X139652661Y-64427661D01*
X139680110Y-64405134D01*
X139711431Y-64388393D01*
X139745409Y-64378085D01*
X139786890Y-64374000D01*
X140388110Y-64374000D01*
X140429591Y-64378085D01*
X140429591Y-64378085D01*
G37*
G36*
X138854591Y-64378085D02*
G01*
X138888569Y-64388393D01*
X138919890Y-64405134D01*
X138947339Y-64427661D01*
X138969866Y-64455110D01*
X138986607Y-64486431D01*
X138996915Y-64520409D01*
X139001000Y-64561890D01*
X139001000Y-65238110D01*
X138996915Y-65279591D01*
X138986607Y-65313569D01*
X138969866Y-65344890D01*
X138947339Y-65372339D01*
X138919890Y-65394866D01*
X138888569Y-65411607D01*
X138854591Y-65421915D01*
X138813110Y-65426000D01*
X138211890Y-65426000D01*
X138170409Y-65421915D01*
X138136431Y-65411607D01*
X138105110Y-65394866D01*
X138077661Y-65372339D01*
X138055134Y-65344890D01*
X138038393Y-65313569D01*
X138028085Y-65279591D01*
X138024000Y-65238110D01*
X138024000Y-64561890D01*
X138028085Y-64520409D01*
X138038393Y-64486431D01*
X138055134Y-64455110D01*
X138077661Y-64427661D01*
X138105110Y-64405134D01*
X138136431Y-64388393D01*
X138170409Y-64378085D01*
X138211890Y-64374000D01*
X138813110Y-64374000D01*
X138854591Y-64378085D01*
X138854591Y-64378085D01*
G37*
M02*
