G04 #@! TF.GenerationSoftware,KiCad,Pcbnew,(5.1.0)-1*
G04 #@! TF.CreationDate,2019-03-26T08:32:57+01:00*
G04 #@! TF.ProjectId,node,6e6f6465-2e6b-4696-9361-645f70636258,rev?*
G04 #@! TF.SameCoordinates,Original*
G04 #@! TF.FileFunction,Copper,L2,Bot*
G04 #@! TF.FilePolarity,Positive*
%FSLAX46Y46*%
G04 Gerber Fmt 4.6, Leading zero omitted, Abs format (unit mm)*
G04 Created by KiCad (PCBNEW (5.1.0)-1) date 2019-03-26 08:32:57*
%MOMM*%
%LPD*%
G04 APERTURE LIST*
%ADD10O,1.700000X1.700000*%
%ADD11R,1.700000X1.700000*%
%ADD12R,2.540000X5.080000*%
%ADD13C,17.780000*%
%ADD14O,1.300000X0.800000*%
%ADD15C,0.100000*%
%ADD16C,0.800000*%
%ADD17C,0.500000*%
%ADD18C,0.152400*%
%ADD19C,0.254000*%
G04 APERTURE END LIST*
D10*
X167620000Y-86000000D03*
X165080000Y-86000000D03*
X162540000Y-86000000D03*
D11*
X160000000Y-86000000D03*
D12*
X158366500Y-66594900D03*
X135506500Y-66594900D03*
D13*
X146936500Y-66594900D03*
D12*
X135430300Y-98475200D03*
X158290300Y-98475200D03*
D13*
X146860300Y-98475200D03*
D11*
X134000000Y-79000000D03*
D10*
X131460000Y-79000000D03*
X128920000Y-79000000D03*
X126380000Y-79000000D03*
D11*
X160100000Y-78900000D03*
D10*
X162540000Y-79000000D03*
X165080000Y-79000000D03*
X167620000Y-79000000D03*
X126380000Y-86000000D03*
X128920000Y-86000000D03*
X131460000Y-86000000D03*
D11*
X134000000Y-86000000D03*
D14*
X135000000Y-73950000D03*
D15*
G36*
X135469603Y-72300963D02*
G01*
X135489018Y-72303843D01*
X135508057Y-72308612D01*
X135526537Y-72315224D01*
X135544279Y-72323616D01*
X135561114Y-72333706D01*
X135576879Y-72345398D01*
X135591421Y-72358579D01*
X135604602Y-72373121D01*
X135616294Y-72388886D01*
X135626384Y-72405721D01*
X135634776Y-72423463D01*
X135641388Y-72441943D01*
X135646157Y-72460982D01*
X135649037Y-72480397D01*
X135650000Y-72500000D01*
X135650000Y-72900000D01*
X135649037Y-72919603D01*
X135646157Y-72939018D01*
X135641388Y-72958057D01*
X135634776Y-72976537D01*
X135626384Y-72994279D01*
X135616294Y-73011114D01*
X135604602Y-73026879D01*
X135591421Y-73041421D01*
X135576879Y-73054602D01*
X135561114Y-73066294D01*
X135544279Y-73076384D01*
X135526537Y-73084776D01*
X135508057Y-73091388D01*
X135489018Y-73096157D01*
X135469603Y-73099037D01*
X135450000Y-73100000D01*
X134550000Y-73100000D01*
X134530397Y-73099037D01*
X134510982Y-73096157D01*
X134491943Y-73091388D01*
X134473463Y-73084776D01*
X134455721Y-73076384D01*
X134438886Y-73066294D01*
X134423121Y-73054602D01*
X134408579Y-73041421D01*
X134395398Y-73026879D01*
X134383706Y-73011114D01*
X134373616Y-72994279D01*
X134365224Y-72976537D01*
X134358612Y-72958057D01*
X134353843Y-72939018D01*
X134350963Y-72919603D01*
X134350000Y-72900000D01*
X134350000Y-72500000D01*
X134350963Y-72480397D01*
X134353843Y-72460982D01*
X134358612Y-72441943D01*
X134365224Y-72423463D01*
X134373616Y-72405721D01*
X134383706Y-72388886D01*
X134395398Y-72373121D01*
X134408579Y-72358579D01*
X134423121Y-72345398D01*
X134438886Y-72333706D01*
X134455721Y-72323616D01*
X134473463Y-72315224D01*
X134491943Y-72308612D01*
X134510982Y-72303843D01*
X134530397Y-72300963D01*
X134550000Y-72300000D01*
X135450000Y-72300000D01*
X135469603Y-72300963D01*
X135469603Y-72300963D01*
G37*
D16*
X135000000Y-72700000D03*
D15*
G36*
X159469603Y-73600963D02*
G01*
X159489018Y-73603843D01*
X159508057Y-73608612D01*
X159526537Y-73615224D01*
X159544279Y-73623616D01*
X159561114Y-73633706D01*
X159576879Y-73645398D01*
X159591421Y-73658579D01*
X159604602Y-73673121D01*
X159616294Y-73688886D01*
X159626384Y-73705721D01*
X159634776Y-73723463D01*
X159641388Y-73741943D01*
X159646157Y-73760982D01*
X159649037Y-73780397D01*
X159650000Y-73800000D01*
X159650000Y-74200000D01*
X159649037Y-74219603D01*
X159646157Y-74239018D01*
X159641388Y-74258057D01*
X159634776Y-74276537D01*
X159626384Y-74294279D01*
X159616294Y-74311114D01*
X159604602Y-74326879D01*
X159591421Y-74341421D01*
X159576879Y-74354602D01*
X159561114Y-74366294D01*
X159544279Y-74376384D01*
X159526537Y-74384776D01*
X159508057Y-74391388D01*
X159489018Y-74396157D01*
X159469603Y-74399037D01*
X159450000Y-74400000D01*
X158550000Y-74400000D01*
X158530397Y-74399037D01*
X158510982Y-74396157D01*
X158491943Y-74391388D01*
X158473463Y-74384776D01*
X158455721Y-74376384D01*
X158438886Y-74366294D01*
X158423121Y-74354602D01*
X158408579Y-74341421D01*
X158395398Y-74326879D01*
X158383706Y-74311114D01*
X158373616Y-74294279D01*
X158365224Y-74276537D01*
X158358612Y-74258057D01*
X158353843Y-74239018D01*
X158350963Y-74219603D01*
X158350000Y-74200000D01*
X158350000Y-73800000D01*
X158350963Y-73780397D01*
X158353843Y-73760982D01*
X158358612Y-73741943D01*
X158365224Y-73723463D01*
X158373616Y-73705721D01*
X158383706Y-73688886D01*
X158395398Y-73673121D01*
X158408579Y-73658579D01*
X158423121Y-73645398D01*
X158438886Y-73633706D01*
X158455721Y-73623616D01*
X158473463Y-73615224D01*
X158491943Y-73608612D01*
X158510982Y-73603843D01*
X158530397Y-73600963D01*
X158550000Y-73600000D01*
X159450000Y-73600000D01*
X159469603Y-73600963D01*
X159469603Y-73600963D01*
G37*
D16*
X159000000Y-74000000D03*
D14*
X159000000Y-72750000D03*
D15*
G36*
X135569603Y-90600963D02*
G01*
X135589018Y-90603843D01*
X135608057Y-90608612D01*
X135626537Y-90615224D01*
X135644279Y-90623616D01*
X135661114Y-90633706D01*
X135676879Y-90645398D01*
X135691421Y-90658579D01*
X135704602Y-90673121D01*
X135716294Y-90688886D01*
X135726384Y-90705721D01*
X135734776Y-90723463D01*
X135741388Y-90741943D01*
X135746157Y-90760982D01*
X135749037Y-90780397D01*
X135750000Y-90800000D01*
X135750000Y-91200000D01*
X135749037Y-91219603D01*
X135746157Y-91239018D01*
X135741388Y-91258057D01*
X135734776Y-91276537D01*
X135726384Y-91294279D01*
X135716294Y-91311114D01*
X135704602Y-91326879D01*
X135691421Y-91341421D01*
X135676879Y-91354602D01*
X135661114Y-91366294D01*
X135644279Y-91376384D01*
X135626537Y-91384776D01*
X135608057Y-91391388D01*
X135589018Y-91396157D01*
X135569603Y-91399037D01*
X135550000Y-91400000D01*
X134650000Y-91400000D01*
X134630397Y-91399037D01*
X134610982Y-91396157D01*
X134591943Y-91391388D01*
X134573463Y-91384776D01*
X134555721Y-91376384D01*
X134538886Y-91366294D01*
X134523121Y-91354602D01*
X134508579Y-91341421D01*
X134495398Y-91326879D01*
X134483706Y-91311114D01*
X134473616Y-91294279D01*
X134465224Y-91276537D01*
X134458612Y-91258057D01*
X134453843Y-91239018D01*
X134450963Y-91219603D01*
X134450000Y-91200000D01*
X134450000Y-90800000D01*
X134450963Y-90780397D01*
X134453843Y-90760982D01*
X134458612Y-90741943D01*
X134465224Y-90723463D01*
X134473616Y-90705721D01*
X134483706Y-90688886D01*
X134495398Y-90673121D01*
X134508579Y-90658579D01*
X134523121Y-90645398D01*
X134538886Y-90633706D01*
X134555721Y-90623616D01*
X134573463Y-90615224D01*
X134591943Y-90608612D01*
X134610982Y-90603843D01*
X134630397Y-90600963D01*
X134650000Y-90600000D01*
X135550000Y-90600000D01*
X135569603Y-90600963D01*
X135569603Y-90600963D01*
G37*
D16*
X135100000Y-91000000D03*
D14*
X135100000Y-92250000D03*
X158900000Y-91050000D03*
D15*
G36*
X159369603Y-91900963D02*
G01*
X159389018Y-91903843D01*
X159408057Y-91908612D01*
X159426537Y-91915224D01*
X159444279Y-91923616D01*
X159461114Y-91933706D01*
X159476879Y-91945398D01*
X159491421Y-91958579D01*
X159504602Y-91973121D01*
X159516294Y-91988886D01*
X159526384Y-92005721D01*
X159534776Y-92023463D01*
X159541388Y-92041943D01*
X159546157Y-92060982D01*
X159549037Y-92080397D01*
X159550000Y-92100000D01*
X159550000Y-92500000D01*
X159549037Y-92519603D01*
X159546157Y-92539018D01*
X159541388Y-92558057D01*
X159534776Y-92576537D01*
X159526384Y-92594279D01*
X159516294Y-92611114D01*
X159504602Y-92626879D01*
X159491421Y-92641421D01*
X159476879Y-92654602D01*
X159461114Y-92666294D01*
X159444279Y-92676384D01*
X159426537Y-92684776D01*
X159408057Y-92691388D01*
X159389018Y-92696157D01*
X159369603Y-92699037D01*
X159350000Y-92700000D01*
X158450000Y-92700000D01*
X158430397Y-92699037D01*
X158410982Y-92696157D01*
X158391943Y-92691388D01*
X158373463Y-92684776D01*
X158355721Y-92676384D01*
X158338886Y-92666294D01*
X158323121Y-92654602D01*
X158308579Y-92641421D01*
X158295398Y-92626879D01*
X158283706Y-92611114D01*
X158273616Y-92594279D01*
X158265224Y-92576537D01*
X158258612Y-92558057D01*
X158253843Y-92539018D01*
X158250963Y-92519603D01*
X158250000Y-92500000D01*
X158250000Y-92100000D01*
X158250963Y-92080397D01*
X158253843Y-92060982D01*
X158258612Y-92041943D01*
X158265224Y-92023463D01*
X158273616Y-92005721D01*
X158283706Y-91988886D01*
X158295398Y-91973121D01*
X158308579Y-91958579D01*
X158323121Y-91945398D01*
X158338886Y-91933706D01*
X158355721Y-91923616D01*
X158373463Y-91915224D01*
X158391943Y-91908612D01*
X158410982Y-91903843D01*
X158430397Y-91900963D01*
X158450000Y-91900000D01*
X159350000Y-91900000D01*
X159369603Y-91900963D01*
X159369603Y-91900963D01*
G37*
D16*
X158900000Y-92300000D03*
D17*
X135500000Y-98500000D03*
X158300000Y-98500000D03*
X137000000Y-79700000D03*
X135500000Y-66600000D03*
X158400000Y-66246447D03*
X150600000Y-78100000D03*
X144900000Y-99300000D03*
X141900000Y-76700000D03*
X148900000Y-79700000D03*
X137528600Y-76250000D03*
X151221390Y-75691390D03*
X137800000Y-74500000D03*
X150100000Y-75400000D03*
X139400000Y-82100000D03*
X133200000Y-80600000D03*
X145900000Y-83300000D03*
X140142885Y-84657416D03*
X148000000Y-78600000D03*
X147600000Y-76000000D03*
X138172500Y-77122500D03*
X147100000Y-76700000D03*
X146557413Y-77542587D03*
X146600000Y-76200000D03*
X141059019Y-80010393D03*
X147900000Y-79400000D03*
X149000000Y-76000000D03*
X141545257Y-80485834D03*
X151418923Y-80706307D03*
X141691400Y-79850012D03*
X150800000Y-80500000D03*
X138500000Y-73600000D03*
X139600000Y-80500000D03*
X139600000Y-74300000D03*
X142300000Y-89800000D03*
X138078600Y-75400000D03*
X136500000Y-75400000D03*
X143600000Y-89000000D03*
D18*
X147308055Y-66484579D02*
X146954502Y-66484579D01*
X153074579Y-66484579D02*
X147308055Y-66484579D01*
X146936500Y-73228170D02*
X146936500Y-66594900D01*
X150600000Y-76891670D02*
X146936500Y-73228170D01*
X150600000Y-78100000D02*
X150600000Y-76891670D01*
X148000000Y-78600000D02*
X147600000Y-78200000D01*
X147421399Y-78378601D02*
X147600000Y-78200000D01*
X147421399Y-79629729D02*
X147421399Y-78378601D01*
X147970271Y-80178601D02*
X147421399Y-79629729D01*
X149821399Y-80178601D02*
X147970271Y-80178601D01*
X150021399Y-79978601D02*
X149821399Y-80178601D01*
X161561399Y-79978601D02*
X150021399Y-79978601D01*
X162540000Y-79000000D02*
X161561399Y-79978601D01*
X147600000Y-78200000D02*
X147600000Y-76400000D01*
X147600000Y-76400000D02*
X147600000Y-76000000D01*
X138557201Y-76737799D02*
X138422499Y-76872501D01*
X138557201Y-74634469D02*
X138557201Y-76737799D01*
X139370271Y-73821399D02*
X138557201Y-74634469D01*
X139829729Y-73821399D02*
X139370271Y-73821399D01*
X138422499Y-76872501D02*
X138172500Y-77122500D01*
X141729729Y-75721399D02*
X139829729Y-73821399D01*
X147321399Y-75721399D02*
X141729729Y-75721399D01*
X147600000Y-76000000D02*
X147321399Y-75721399D01*
X147100000Y-76700000D02*
X146915000Y-76700000D01*
X146557413Y-77242587D02*
X147100000Y-76700000D01*
X146557413Y-77542587D02*
X146557413Y-77242587D01*
X145000000Y-76200000D02*
X144900000Y-76200000D01*
X146600000Y-76200000D02*
X145000000Y-76200000D01*
X144080944Y-76200000D02*
X145000000Y-76200000D01*
X144080944Y-76752138D02*
X144080944Y-76200000D01*
X141059019Y-79774063D02*
X144080944Y-76752138D01*
X141059019Y-80010393D02*
X141059019Y-79774063D01*
X147900000Y-79400000D02*
X149000000Y-78300000D01*
X149000000Y-78300000D02*
X149000000Y-76000000D01*
X135002400Y-79000000D02*
X134000000Y-79000000D01*
X137285811Y-81283411D02*
X135002400Y-79000000D01*
X165336589Y-81283411D02*
X137285811Y-81283411D01*
X167620000Y-79000000D02*
X165336589Y-81283411D01*
X166770001Y-86849999D02*
X167620000Y-86000000D01*
X166378690Y-87241310D02*
X166770001Y-86849999D01*
X136243710Y-87241310D02*
X166378690Y-87241310D01*
X135002400Y-86000000D02*
X136243710Y-87241310D01*
X134000000Y-86000000D02*
X135002400Y-86000000D01*
X151146629Y-80978601D02*
X151418923Y-80706307D01*
X141545257Y-80485834D02*
X142038024Y-80978601D01*
X142038024Y-80978601D02*
X151146629Y-80978601D01*
X141691400Y-79850012D02*
X142341388Y-80500000D01*
X142341388Y-80500000D02*
X150800000Y-80500000D01*
X137600000Y-72700000D02*
X135000000Y-72700000D01*
X138500000Y-73600000D02*
X137600000Y-72700000D01*
X139600000Y-80500000D02*
X139600000Y-74300000D01*
X141100000Y-91000000D02*
X135100000Y-91000000D01*
X142300000Y-89800000D02*
X141100000Y-91000000D01*
X136500000Y-75400000D02*
X138078600Y-75400000D01*
X127229999Y-86849999D02*
X126380000Y-86000000D01*
X129130001Y-88750001D02*
X127229999Y-86849999D01*
X143350001Y-88750001D02*
X129130001Y-88750001D01*
X143600000Y-89000000D02*
X143350001Y-88750001D01*
D19*
G36*
X136657100Y-86834910D02*
G01*
X136412046Y-86834910D01*
X135303882Y-85726746D01*
X135291158Y-85711242D01*
X135229276Y-85660456D01*
X135181797Y-85635078D01*
X135181797Y-85150000D01*
X135175422Y-85085270D01*
X135156540Y-85023027D01*
X135125879Y-84965663D01*
X135084616Y-84915384D01*
X135034337Y-84874121D01*
X134976973Y-84843460D01*
X134914730Y-84824578D01*
X134850000Y-84818203D01*
X133150000Y-84818203D01*
X133085270Y-84824578D01*
X133023027Y-84843460D01*
X132965663Y-84874121D01*
X132915384Y-84915384D01*
X132874121Y-84965663D01*
X132843460Y-85023027D01*
X132824578Y-85085270D01*
X132818203Y-85150000D01*
X132818203Y-86850000D01*
X132824578Y-86914730D01*
X132843460Y-86976973D01*
X132874121Y-87034337D01*
X132915384Y-87084616D01*
X132965663Y-87125879D01*
X133023027Y-87156540D01*
X133085270Y-87175422D01*
X133150000Y-87181797D01*
X134850000Y-87181797D01*
X134914730Y-87175422D01*
X134976973Y-87156540D01*
X135034337Y-87125879D01*
X135084616Y-87084616D01*
X135125879Y-87034337D01*
X135156540Y-86976973D01*
X135175422Y-86914730D01*
X135181797Y-86850000D01*
X135181797Y-86754133D01*
X135942228Y-87514564D01*
X135954952Y-87530068D01*
X136016834Y-87580854D01*
X136087435Y-87618591D01*
X136140803Y-87634780D01*
X136164041Y-87641829D01*
X136172045Y-87642617D01*
X136223750Y-87647710D01*
X136223756Y-87647710D01*
X136243709Y-87649675D01*
X136263662Y-87647710D01*
X166358737Y-87647710D01*
X166378690Y-87649675D01*
X166398643Y-87647710D01*
X166398650Y-87647710D01*
X166458358Y-87641829D01*
X166534965Y-87618591D01*
X166605566Y-87580854D01*
X166667448Y-87530068D01*
X166680172Y-87514564D01*
X167122462Y-87072274D01*
X167166172Y-87095638D01*
X167388640Y-87163123D01*
X167562025Y-87180200D01*
X167677975Y-87180200D01*
X167851360Y-87163123D01*
X168073828Y-87095638D01*
X168278856Y-86986048D01*
X168458565Y-86838565D01*
X168606048Y-86658856D01*
X168715638Y-86453828D01*
X168783123Y-86231360D01*
X168805910Y-86000000D01*
X168783123Y-85768640D01*
X168715638Y-85546172D01*
X168606048Y-85341144D01*
X168458565Y-85161435D01*
X168278856Y-85013952D01*
X168073828Y-84904362D01*
X167851360Y-84836877D01*
X167677975Y-84819800D01*
X167562025Y-84819800D01*
X167388640Y-84836877D01*
X167166172Y-84904362D01*
X166961144Y-85013952D01*
X166781435Y-85161435D01*
X166633952Y-85341144D01*
X166524362Y-85546172D01*
X166507183Y-85602803D01*
X166424157Y-85368748D01*
X166275178Y-85118645D01*
X166080269Y-84902412D01*
X165846920Y-84728359D01*
X165584099Y-84603175D01*
X165436890Y-84558524D01*
X165207000Y-84679845D01*
X165207000Y-85873000D01*
X165227000Y-85873000D01*
X165227000Y-86127000D01*
X165207000Y-86127000D01*
X165207000Y-86147000D01*
X164953000Y-86147000D01*
X164953000Y-86127000D01*
X164933000Y-86127000D01*
X164933000Y-85873000D01*
X164953000Y-85873000D01*
X164953000Y-84679845D01*
X164723110Y-84558524D01*
X164575901Y-84603175D01*
X164313080Y-84728359D01*
X164079731Y-84902412D01*
X163884822Y-85118645D01*
X163735843Y-85368748D01*
X163652817Y-85602803D01*
X163635638Y-85546172D01*
X163526048Y-85341144D01*
X163378565Y-85161435D01*
X163198856Y-85013952D01*
X162993828Y-84904362D01*
X162771360Y-84836877D01*
X162597975Y-84819800D01*
X162482025Y-84819800D01*
X162308640Y-84836877D01*
X162086172Y-84904362D01*
X161881144Y-85013952D01*
X161701435Y-85161435D01*
X161553952Y-85341144D01*
X161444362Y-85546172D01*
X161376877Y-85768640D01*
X161354090Y-86000000D01*
X161376877Y-86231360D01*
X161444362Y-86453828D01*
X161553952Y-86658856D01*
X161698435Y-86834910D01*
X161181797Y-86834910D01*
X161181797Y-85150000D01*
X161175422Y-85085270D01*
X161156540Y-85023027D01*
X161125879Y-84965663D01*
X161084616Y-84915384D01*
X161034337Y-84874121D01*
X160976973Y-84843460D01*
X160914730Y-84824578D01*
X160850000Y-84818203D01*
X159150000Y-84818203D01*
X159085270Y-84824578D01*
X159023027Y-84843460D01*
X158965663Y-84874121D01*
X158915384Y-84915384D01*
X158874121Y-84965663D01*
X158843460Y-85023027D01*
X158824578Y-85085270D01*
X158818203Y-85150000D01*
X158818203Y-86834910D01*
X157342900Y-86834910D01*
X157342900Y-83342900D01*
X169595220Y-83342900D01*
X168709521Y-88657100D01*
X161016843Y-88657100D01*
X161000000Y-88655441D01*
X160983157Y-88657100D01*
X160932780Y-88662062D01*
X160868143Y-88681669D01*
X160808573Y-88713510D01*
X160756360Y-88756360D01*
X160713510Y-88808573D01*
X160681669Y-88868143D01*
X160662062Y-88932780D01*
X160655441Y-89000000D01*
X160657101Y-89016853D01*
X160657100Y-101157100D01*
X159858862Y-101157100D01*
X159866840Y-101142173D01*
X159885722Y-101079930D01*
X159892097Y-101015200D01*
X159892097Y-95935200D01*
X159885722Y-95870470D01*
X159866840Y-95808227D01*
X159836179Y-95750863D01*
X159794916Y-95700584D01*
X159744637Y-95659321D01*
X159687273Y-95628660D01*
X159625030Y-95609778D01*
X159560300Y-95603403D01*
X157020300Y-95603403D01*
X156955570Y-95609778D01*
X156893327Y-95628660D01*
X156835963Y-95659321D01*
X156785684Y-95700584D01*
X156744421Y-95750863D01*
X156713760Y-95808227D01*
X156694878Y-95870470D01*
X156688503Y-95935200D01*
X156688503Y-101015200D01*
X156694878Y-101079930D01*
X156713760Y-101142173D01*
X156721738Y-101157100D01*
X156006122Y-101157100D01*
X156195765Y-100585838D01*
X156428152Y-98724024D01*
X156292851Y-96852647D01*
X155795063Y-95043624D01*
X154953916Y-93366475D01*
X154677438Y-92952697D01*
X153605024Y-91910081D01*
X147039905Y-98475200D01*
X149721805Y-101157100D01*
X149362595Y-101157100D01*
X146860300Y-98654805D01*
X144358005Y-101157100D01*
X143998795Y-101157100D01*
X146680695Y-98475200D01*
X140115576Y-91910081D01*
X139043162Y-92952697D01*
X138115979Y-94583858D01*
X137524835Y-96364562D01*
X137292448Y-98226376D01*
X137427749Y-100097753D01*
X137719249Y-101157100D01*
X136998862Y-101157100D01*
X137006840Y-101142173D01*
X137025722Y-101079930D01*
X137032097Y-101015200D01*
X137032097Y-95935200D01*
X137025722Y-95870470D01*
X137006840Y-95808227D01*
X136976179Y-95750863D01*
X136934916Y-95700584D01*
X136884637Y-95659321D01*
X136827273Y-95628660D01*
X136765030Y-95609778D01*
X136700300Y-95603403D01*
X134160300Y-95603403D01*
X134095570Y-95609778D01*
X134033327Y-95628660D01*
X133975963Y-95659321D01*
X133925684Y-95700584D01*
X133884421Y-95750863D01*
X133853760Y-95808227D01*
X133834878Y-95870470D01*
X133828503Y-95935200D01*
X133828503Y-101015200D01*
X133834878Y-101079930D01*
X133853760Y-101142173D01*
X133861738Y-101157100D01*
X133342900Y-101157100D01*
X133342900Y-92536123D01*
X133855334Y-92536123D01*
X133865006Y-92612972D01*
X133954745Y-92798160D01*
X134078888Y-92962283D01*
X134232664Y-93099033D01*
X134410164Y-93203155D01*
X134604567Y-93270648D01*
X134808401Y-93298918D01*
X134973000Y-93133762D01*
X134973000Y-92377000D01*
X135227000Y-92377000D01*
X135227000Y-93133762D01*
X135391599Y-93298918D01*
X135595433Y-93270648D01*
X135789836Y-93203155D01*
X135967336Y-93099033D01*
X136121112Y-92962283D01*
X136245255Y-92798160D01*
X136334994Y-92612972D01*
X136344666Y-92536123D01*
X136216998Y-92377000D01*
X135227000Y-92377000D01*
X134973000Y-92377000D01*
X133983002Y-92377000D01*
X133855334Y-92536123D01*
X133342900Y-92536123D01*
X133342900Y-89156401D01*
X143039544Y-89156401D01*
X143042097Y-89169238D01*
X143085834Y-89274828D01*
X143149329Y-89369856D01*
X143230144Y-89450671D01*
X143325172Y-89514166D01*
X143410573Y-89549540D01*
X142880200Y-89815540D01*
X142880200Y-89742855D01*
X142857903Y-89630762D01*
X142814166Y-89525172D01*
X142750671Y-89430144D01*
X142669856Y-89349329D01*
X142574828Y-89285834D01*
X142469238Y-89242097D01*
X142357145Y-89219800D01*
X142242855Y-89219800D01*
X142130762Y-89242097D01*
X142025172Y-89285834D01*
X141930144Y-89349329D01*
X141849329Y-89430144D01*
X141785834Y-89525172D01*
X141742097Y-89630762D01*
X141719800Y-89742855D01*
X141719800Y-89805464D01*
X140931664Y-90593600D01*
X136039771Y-90593600D01*
X135992173Y-90504549D01*
X135926037Y-90423963D01*
X135845451Y-90357827D01*
X135753510Y-90308684D01*
X135653748Y-90278421D01*
X135550000Y-90268203D01*
X134650000Y-90268203D01*
X134546252Y-90278421D01*
X134446490Y-90308684D01*
X134354549Y-90357827D01*
X134273963Y-90423963D01*
X134207827Y-90504549D01*
X134158684Y-90596490D01*
X134128421Y-90696252D01*
X134118203Y-90800000D01*
X134118203Y-91200000D01*
X134128421Y-91303748D01*
X134158684Y-91403510D01*
X134181598Y-91446379D01*
X134078888Y-91537717D01*
X133954745Y-91701840D01*
X133865006Y-91887028D01*
X133855334Y-91963877D01*
X133983002Y-92123000D01*
X134973000Y-92123000D01*
X134973000Y-92103000D01*
X135227000Y-92103000D01*
X135227000Y-92123000D01*
X136216998Y-92123000D01*
X136344666Y-91963877D01*
X136334994Y-91887028D01*
X136245255Y-91701840D01*
X136121112Y-91537717D01*
X136018402Y-91446379D01*
X136039771Y-91406400D01*
X140610252Y-91406400D01*
X140295181Y-91730476D01*
X146860300Y-98295595D01*
X153425419Y-91730476D01*
X153042024Y-91336123D01*
X157655334Y-91336123D01*
X157665006Y-91412972D01*
X157754745Y-91598160D01*
X157878888Y-91762283D01*
X157981598Y-91853621D01*
X157958684Y-91896490D01*
X157928421Y-91996252D01*
X157918203Y-92100000D01*
X157918203Y-92500000D01*
X157928421Y-92603748D01*
X157958684Y-92703510D01*
X158007827Y-92795451D01*
X158073963Y-92876037D01*
X158154549Y-92942173D01*
X158246490Y-92991316D01*
X158346252Y-93021579D01*
X158450000Y-93031797D01*
X159350000Y-93031797D01*
X159453748Y-93021579D01*
X159553510Y-92991316D01*
X159645451Y-92942173D01*
X159726037Y-92876037D01*
X159792173Y-92795451D01*
X159841316Y-92703510D01*
X159871579Y-92603748D01*
X159881797Y-92500000D01*
X159881797Y-92100000D01*
X159871579Y-91996252D01*
X159841316Y-91896490D01*
X159818402Y-91853621D01*
X159921112Y-91762283D01*
X160045255Y-91598160D01*
X160134994Y-91412972D01*
X160144666Y-91336123D01*
X160016998Y-91177000D01*
X159027000Y-91177000D01*
X159027000Y-91197000D01*
X158773000Y-91197000D01*
X158773000Y-91177000D01*
X157783002Y-91177000D01*
X157655334Y-91336123D01*
X153042024Y-91336123D01*
X152485678Y-90763877D01*
X157655334Y-90763877D01*
X157783002Y-90923000D01*
X158773000Y-90923000D01*
X158773000Y-90166238D01*
X159027000Y-90166238D01*
X159027000Y-90923000D01*
X160016998Y-90923000D01*
X160144666Y-90763877D01*
X160134994Y-90687028D01*
X160045255Y-90501840D01*
X159921112Y-90337717D01*
X159767336Y-90200967D01*
X159589836Y-90096845D01*
X159395433Y-90029352D01*
X159191599Y-90001082D01*
X159027000Y-90166238D01*
X158773000Y-90166238D01*
X158608401Y-90001082D01*
X158404567Y-90029352D01*
X158210164Y-90096845D01*
X158032664Y-90200967D01*
X157878888Y-90337717D01*
X157754745Y-90501840D01*
X157665006Y-90687028D01*
X157655334Y-90763877D01*
X152485678Y-90763877D01*
X152382803Y-90658062D01*
X150751642Y-89730879D01*
X148970938Y-89139735D01*
X147109124Y-88907348D01*
X145237747Y-89042649D01*
X144051129Y-89369170D01*
X144114166Y-89274828D01*
X144157903Y-89169238D01*
X144180200Y-89057145D01*
X144180200Y-88942855D01*
X144157903Y-88830762D01*
X144114166Y-88725172D01*
X144050671Y-88630144D01*
X143969856Y-88549329D01*
X143874828Y-88485834D01*
X143769238Y-88442097D01*
X143657145Y-88419800D01*
X143588261Y-88419800D01*
X143576877Y-88410457D01*
X143506276Y-88372720D01*
X143429669Y-88349482D01*
X143369961Y-88343601D01*
X143369954Y-88343601D01*
X143350001Y-88341636D01*
X143330048Y-88343601D01*
X129298338Y-88343601D01*
X128293043Y-87338307D01*
X128415901Y-87396825D01*
X128563110Y-87441476D01*
X128793000Y-87320155D01*
X128793000Y-86127000D01*
X128773000Y-86127000D01*
X128773000Y-85873000D01*
X128793000Y-85873000D01*
X128793000Y-84679845D01*
X129047000Y-84679845D01*
X129047000Y-85873000D01*
X129067000Y-85873000D01*
X129067000Y-86127000D01*
X129047000Y-86127000D01*
X129047000Y-87320155D01*
X129276890Y-87441476D01*
X129424099Y-87396825D01*
X129686920Y-87271641D01*
X129920269Y-87097588D01*
X130115178Y-86881355D01*
X130264157Y-86631252D01*
X130347183Y-86397197D01*
X130364362Y-86453828D01*
X130473952Y-86658856D01*
X130621435Y-86838565D01*
X130801144Y-86986048D01*
X131006172Y-87095638D01*
X131228640Y-87163123D01*
X131402025Y-87180200D01*
X131517975Y-87180200D01*
X131691360Y-87163123D01*
X131913828Y-87095638D01*
X132118856Y-86986048D01*
X132298565Y-86838565D01*
X132446048Y-86658856D01*
X132555638Y-86453828D01*
X132623123Y-86231360D01*
X132645910Y-86000000D01*
X132623123Y-85768640D01*
X132555638Y-85546172D01*
X132446048Y-85341144D01*
X132298565Y-85161435D01*
X132118856Y-85013952D01*
X131913828Y-84904362D01*
X131691360Y-84836877D01*
X131517975Y-84819800D01*
X131402025Y-84819800D01*
X131228640Y-84836877D01*
X131006172Y-84904362D01*
X130801144Y-85013952D01*
X130621435Y-85161435D01*
X130473952Y-85341144D01*
X130364362Y-85546172D01*
X130347183Y-85602803D01*
X130264157Y-85368748D01*
X130115178Y-85118645D01*
X129920269Y-84902412D01*
X129686920Y-84728359D01*
X129424099Y-84603175D01*
X129276890Y-84558524D01*
X129047000Y-84679845D01*
X128793000Y-84679845D01*
X128563110Y-84558524D01*
X128415901Y-84603175D01*
X128153080Y-84728359D01*
X127919731Y-84902412D01*
X127724822Y-85118645D01*
X127575843Y-85368748D01*
X127492817Y-85602803D01*
X127475638Y-85546172D01*
X127366048Y-85341144D01*
X127218565Y-85161435D01*
X127038856Y-85013952D01*
X126833828Y-84904362D01*
X126611360Y-84836877D01*
X126437975Y-84819800D01*
X126322025Y-84819800D01*
X126148640Y-84836877D01*
X125926172Y-84904362D01*
X125721144Y-85013952D01*
X125541435Y-85161435D01*
X125393952Y-85341144D01*
X125284362Y-85546172D01*
X125216877Y-85768640D01*
X125194090Y-86000000D01*
X125216877Y-86231360D01*
X125284362Y-86453828D01*
X125393952Y-86658856D01*
X125541435Y-86838565D01*
X125721144Y-86986048D01*
X125926172Y-87095638D01*
X126148640Y-87163123D01*
X126322025Y-87180200D01*
X126437975Y-87180200D01*
X126611360Y-87163123D01*
X126833828Y-87095638D01*
X126877538Y-87072274D01*
X126928517Y-87123253D01*
X128462363Y-88657100D01*
X125290479Y-88657100D01*
X124404779Y-83342900D01*
X136657101Y-83342900D01*
X136657100Y-86834910D01*
X136657100Y-86834910D01*
G37*
X136657100Y-86834910D02*
X136412046Y-86834910D01*
X135303882Y-85726746D01*
X135291158Y-85711242D01*
X135229276Y-85660456D01*
X135181797Y-85635078D01*
X135181797Y-85150000D01*
X135175422Y-85085270D01*
X135156540Y-85023027D01*
X135125879Y-84965663D01*
X135084616Y-84915384D01*
X135034337Y-84874121D01*
X134976973Y-84843460D01*
X134914730Y-84824578D01*
X134850000Y-84818203D01*
X133150000Y-84818203D01*
X133085270Y-84824578D01*
X133023027Y-84843460D01*
X132965663Y-84874121D01*
X132915384Y-84915384D01*
X132874121Y-84965663D01*
X132843460Y-85023027D01*
X132824578Y-85085270D01*
X132818203Y-85150000D01*
X132818203Y-86850000D01*
X132824578Y-86914730D01*
X132843460Y-86976973D01*
X132874121Y-87034337D01*
X132915384Y-87084616D01*
X132965663Y-87125879D01*
X133023027Y-87156540D01*
X133085270Y-87175422D01*
X133150000Y-87181797D01*
X134850000Y-87181797D01*
X134914730Y-87175422D01*
X134976973Y-87156540D01*
X135034337Y-87125879D01*
X135084616Y-87084616D01*
X135125879Y-87034337D01*
X135156540Y-86976973D01*
X135175422Y-86914730D01*
X135181797Y-86850000D01*
X135181797Y-86754133D01*
X135942228Y-87514564D01*
X135954952Y-87530068D01*
X136016834Y-87580854D01*
X136087435Y-87618591D01*
X136140803Y-87634780D01*
X136164041Y-87641829D01*
X136172045Y-87642617D01*
X136223750Y-87647710D01*
X136223756Y-87647710D01*
X136243709Y-87649675D01*
X136263662Y-87647710D01*
X166358737Y-87647710D01*
X166378690Y-87649675D01*
X166398643Y-87647710D01*
X166398650Y-87647710D01*
X166458358Y-87641829D01*
X166534965Y-87618591D01*
X166605566Y-87580854D01*
X166667448Y-87530068D01*
X166680172Y-87514564D01*
X167122462Y-87072274D01*
X167166172Y-87095638D01*
X167388640Y-87163123D01*
X167562025Y-87180200D01*
X167677975Y-87180200D01*
X167851360Y-87163123D01*
X168073828Y-87095638D01*
X168278856Y-86986048D01*
X168458565Y-86838565D01*
X168606048Y-86658856D01*
X168715638Y-86453828D01*
X168783123Y-86231360D01*
X168805910Y-86000000D01*
X168783123Y-85768640D01*
X168715638Y-85546172D01*
X168606048Y-85341144D01*
X168458565Y-85161435D01*
X168278856Y-85013952D01*
X168073828Y-84904362D01*
X167851360Y-84836877D01*
X167677975Y-84819800D01*
X167562025Y-84819800D01*
X167388640Y-84836877D01*
X167166172Y-84904362D01*
X166961144Y-85013952D01*
X166781435Y-85161435D01*
X166633952Y-85341144D01*
X166524362Y-85546172D01*
X166507183Y-85602803D01*
X166424157Y-85368748D01*
X166275178Y-85118645D01*
X166080269Y-84902412D01*
X165846920Y-84728359D01*
X165584099Y-84603175D01*
X165436890Y-84558524D01*
X165207000Y-84679845D01*
X165207000Y-85873000D01*
X165227000Y-85873000D01*
X165227000Y-86127000D01*
X165207000Y-86127000D01*
X165207000Y-86147000D01*
X164953000Y-86147000D01*
X164953000Y-86127000D01*
X164933000Y-86127000D01*
X164933000Y-85873000D01*
X164953000Y-85873000D01*
X164953000Y-84679845D01*
X164723110Y-84558524D01*
X164575901Y-84603175D01*
X164313080Y-84728359D01*
X164079731Y-84902412D01*
X163884822Y-85118645D01*
X163735843Y-85368748D01*
X163652817Y-85602803D01*
X163635638Y-85546172D01*
X163526048Y-85341144D01*
X163378565Y-85161435D01*
X163198856Y-85013952D01*
X162993828Y-84904362D01*
X162771360Y-84836877D01*
X162597975Y-84819800D01*
X162482025Y-84819800D01*
X162308640Y-84836877D01*
X162086172Y-84904362D01*
X161881144Y-85013952D01*
X161701435Y-85161435D01*
X161553952Y-85341144D01*
X161444362Y-85546172D01*
X161376877Y-85768640D01*
X161354090Y-86000000D01*
X161376877Y-86231360D01*
X161444362Y-86453828D01*
X161553952Y-86658856D01*
X161698435Y-86834910D01*
X161181797Y-86834910D01*
X161181797Y-85150000D01*
X161175422Y-85085270D01*
X161156540Y-85023027D01*
X161125879Y-84965663D01*
X161084616Y-84915384D01*
X161034337Y-84874121D01*
X160976973Y-84843460D01*
X160914730Y-84824578D01*
X160850000Y-84818203D01*
X159150000Y-84818203D01*
X159085270Y-84824578D01*
X159023027Y-84843460D01*
X158965663Y-84874121D01*
X158915384Y-84915384D01*
X158874121Y-84965663D01*
X158843460Y-85023027D01*
X158824578Y-85085270D01*
X158818203Y-85150000D01*
X158818203Y-86834910D01*
X157342900Y-86834910D01*
X157342900Y-83342900D01*
X169595220Y-83342900D01*
X168709521Y-88657100D01*
X161016843Y-88657100D01*
X161000000Y-88655441D01*
X160983157Y-88657100D01*
X160932780Y-88662062D01*
X160868143Y-88681669D01*
X160808573Y-88713510D01*
X160756360Y-88756360D01*
X160713510Y-88808573D01*
X160681669Y-88868143D01*
X160662062Y-88932780D01*
X160655441Y-89000000D01*
X160657101Y-89016853D01*
X160657100Y-101157100D01*
X159858862Y-101157100D01*
X159866840Y-101142173D01*
X159885722Y-101079930D01*
X159892097Y-101015200D01*
X159892097Y-95935200D01*
X159885722Y-95870470D01*
X159866840Y-95808227D01*
X159836179Y-95750863D01*
X159794916Y-95700584D01*
X159744637Y-95659321D01*
X159687273Y-95628660D01*
X159625030Y-95609778D01*
X159560300Y-95603403D01*
X157020300Y-95603403D01*
X156955570Y-95609778D01*
X156893327Y-95628660D01*
X156835963Y-95659321D01*
X156785684Y-95700584D01*
X156744421Y-95750863D01*
X156713760Y-95808227D01*
X156694878Y-95870470D01*
X156688503Y-95935200D01*
X156688503Y-101015200D01*
X156694878Y-101079930D01*
X156713760Y-101142173D01*
X156721738Y-101157100D01*
X156006122Y-101157100D01*
X156195765Y-100585838D01*
X156428152Y-98724024D01*
X156292851Y-96852647D01*
X155795063Y-95043624D01*
X154953916Y-93366475D01*
X154677438Y-92952697D01*
X153605024Y-91910081D01*
X147039905Y-98475200D01*
X149721805Y-101157100D01*
X149362595Y-101157100D01*
X146860300Y-98654805D01*
X144358005Y-101157100D01*
X143998795Y-101157100D01*
X146680695Y-98475200D01*
X140115576Y-91910081D01*
X139043162Y-92952697D01*
X138115979Y-94583858D01*
X137524835Y-96364562D01*
X137292448Y-98226376D01*
X137427749Y-100097753D01*
X137719249Y-101157100D01*
X136998862Y-101157100D01*
X137006840Y-101142173D01*
X137025722Y-101079930D01*
X137032097Y-101015200D01*
X137032097Y-95935200D01*
X137025722Y-95870470D01*
X137006840Y-95808227D01*
X136976179Y-95750863D01*
X136934916Y-95700584D01*
X136884637Y-95659321D01*
X136827273Y-95628660D01*
X136765030Y-95609778D01*
X136700300Y-95603403D01*
X134160300Y-95603403D01*
X134095570Y-95609778D01*
X134033327Y-95628660D01*
X133975963Y-95659321D01*
X133925684Y-95700584D01*
X133884421Y-95750863D01*
X133853760Y-95808227D01*
X133834878Y-95870470D01*
X133828503Y-95935200D01*
X133828503Y-101015200D01*
X133834878Y-101079930D01*
X133853760Y-101142173D01*
X133861738Y-101157100D01*
X133342900Y-101157100D01*
X133342900Y-92536123D01*
X133855334Y-92536123D01*
X133865006Y-92612972D01*
X133954745Y-92798160D01*
X134078888Y-92962283D01*
X134232664Y-93099033D01*
X134410164Y-93203155D01*
X134604567Y-93270648D01*
X134808401Y-93298918D01*
X134973000Y-93133762D01*
X134973000Y-92377000D01*
X135227000Y-92377000D01*
X135227000Y-93133762D01*
X135391599Y-93298918D01*
X135595433Y-93270648D01*
X135789836Y-93203155D01*
X135967336Y-93099033D01*
X136121112Y-92962283D01*
X136245255Y-92798160D01*
X136334994Y-92612972D01*
X136344666Y-92536123D01*
X136216998Y-92377000D01*
X135227000Y-92377000D01*
X134973000Y-92377000D01*
X133983002Y-92377000D01*
X133855334Y-92536123D01*
X133342900Y-92536123D01*
X133342900Y-89156401D01*
X143039544Y-89156401D01*
X143042097Y-89169238D01*
X143085834Y-89274828D01*
X143149329Y-89369856D01*
X143230144Y-89450671D01*
X143325172Y-89514166D01*
X143410573Y-89549540D01*
X142880200Y-89815540D01*
X142880200Y-89742855D01*
X142857903Y-89630762D01*
X142814166Y-89525172D01*
X142750671Y-89430144D01*
X142669856Y-89349329D01*
X142574828Y-89285834D01*
X142469238Y-89242097D01*
X142357145Y-89219800D01*
X142242855Y-89219800D01*
X142130762Y-89242097D01*
X142025172Y-89285834D01*
X141930144Y-89349329D01*
X141849329Y-89430144D01*
X141785834Y-89525172D01*
X141742097Y-89630762D01*
X141719800Y-89742855D01*
X141719800Y-89805464D01*
X140931664Y-90593600D01*
X136039771Y-90593600D01*
X135992173Y-90504549D01*
X135926037Y-90423963D01*
X135845451Y-90357827D01*
X135753510Y-90308684D01*
X135653748Y-90278421D01*
X135550000Y-90268203D01*
X134650000Y-90268203D01*
X134546252Y-90278421D01*
X134446490Y-90308684D01*
X134354549Y-90357827D01*
X134273963Y-90423963D01*
X134207827Y-90504549D01*
X134158684Y-90596490D01*
X134128421Y-90696252D01*
X134118203Y-90800000D01*
X134118203Y-91200000D01*
X134128421Y-91303748D01*
X134158684Y-91403510D01*
X134181598Y-91446379D01*
X134078888Y-91537717D01*
X133954745Y-91701840D01*
X133865006Y-91887028D01*
X133855334Y-91963877D01*
X133983002Y-92123000D01*
X134973000Y-92123000D01*
X134973000Y-92103000D01*
X135227000Y-92103000D01*
X135227000Y-92123000D01*
X136216998Y-92123000D01*
X136344666Y-91963877D01*
X136334994Y-91887028D01*
X136245255Y-91701840D01*
X136121112Y-91537717D01*
X136018402Y-91446379D01*
X136039771Y-91406400D01*
X140610252Y-91406400D01*
X140295181Y-91730476D01*
X146860300Y-98295595D01*
X153425419Y-91730476D01*
X153042024Y-91336123D01*
X157655334Y-91336123D01*
X157665006Y-91412972D01*
X157754745Y-91598160D01*
X157878888Y-91762283D01*
X157981598Y-91853621D01*
X157958684Y-91896490D01*
X157928421Y-91996252D01*
X157918203Y-92100000D01*
X157918203Y-92500000D01*
X157928421Y-92603748D01*
X157958684Y-92703510D01*
X158007827Y-92795451D01*
X158073963Y-92876037D01*
X158154549Y-92942173D01*
X158246490Y-92991316D01*
X158346252Y-93021579D01*
X158450000Y-93031797D01*
X159350000Y-93031797D01*
X159453748Y-93021579D01*
X159553510Y-92991316D01*
X159645451Y-92942173D01*
X159726037Y-92876037D01*
X159792173Y-92795451D01*
X159841316Y-92703510D01*
X159871579Y-92603748D01*
X159881797Y-92500000D01*
X159881797Y-92100000D01*
X159871579Y-91996252D01*
X159841316Y-91896490D01*
X159818402Y-91853621D01*
X159921112Y-91762283D01*
X160045255Y-91598160D01*
X160134994Y-91412972D01*
X160144666Y-91336123D01*
X160016998Y-91177000D01*
X159027000Y-91177000D01*
X159027000Y-91197000D01*
X158773000Y-91197000D01*
X158773000Y-91177000D01*
X157783002Y-91177000D01*
X157655334Y-91336123D01*
X153042024Y-91336123D01*
X152485678Y-90763877D01*
X157655334Y-90763877D01*
X157783002Y-90923000D01*
X158773000Y-90923000D01*
X158773000Y-90166238D01*
X159027000Y-90166238D01*
X159027000Y-90923000D01*
X160016998Y-90923000D01*
X160144666Y-90763877D01*
X160134994Y-90687028D01*
X160045255Y-90501840D01*
X159921112Y-90337717D01*
X159767336Y-90200967D01*
X159589836Y-90096845D01*
X159395433Y-90029352D01*
X159191599Y-90001082D01*
X159027000Y-90166238D01*
X158773000Y-90166238D01*
X158608401Y-90001082D01*
X158404567Y-90029352D01*
X158210164Y-90096845D01*
X158032664Y-90200967D01*
X157878888Y-90337717D01*
X157754745Y-90501840D01*
X157665006Y-90687028D01*
X157655334Y-90763877D01*
X152485678Y-90763877D01*
X152382803Y-90658062D01*
X150751642Y-89730879D01*
X148970938Y-89139735D01*
X147109124Y-88907348D01*
X145237747Y-89042649D01*
X144051129Y-89369170D01*
X144114166Y-89274828D01*
X144157903Y-89169238D01*
X144180200Y-89057145D01*
X144180200Y-88942855D01*
X144157903Y-88830762D01*
X144114166Y-88725172D01*
X144050671Y-88630144D01*
X143969856Y-88549329D01*
X143874828Y-88485834D01*
X143769238Y-88442097D01*
X143657145Y-88419800D01*
X143588261Y-88419800D01*
X143576877Y-88410457D01*
X143506276Y-88372720D01*
X143429669Y-88349482D01*
X143369961Y-88343601D01*
X143369954Y-88343601D01*
X143350001Y-88341636D01*
X143330048Y-88343601D01*
X129298338Y-88343601D01*
X128293043Y-87338307D01*
X128415901Y-87396825D01*
X128563110Y-87441476D01*
X128793000Y-87320155D01*
X128793000Y-86127000D01*
X128773000Y-86127000D01*
X128773000Y-85873000D01*
X128793000Y-85873000D01*
X128793000Y-84679845D01*
X129047000Y-84679845D01*
X129047000Y-85873000D01*
X129067000Y-85873000D01*
X129067000Y-86127000D01*
X129047000Y-86127000D01*
X129047000Y-87320155D01*
X129276890Y-87441476D01*
X129424099Y-87396825D01*
X129686920Y-87271641D01*
X129920269Y-87097588D01*
X130115178Y-86881355D01*
X130264157Y-86631252D01*
X130347183Y-86397197D01*
X130364362Y-86453828D01*
X130473952Y-86658856D01*
X130621435Y-86838565D01*
X130801144Y-86986048D01*
X131006172Y-87095638D01*
X131228640Y-87163123D01*
X131402025Y-87180200D01*
X131517975Y-87180200D01*
X131691360Y-87163123D01*
X131913828Y-87095638D01*
X132118856Y-86986048D01*
X132298565Y-86838565D01*
X132446048Y-86658856D01*
X132555638Y-86453828D01*
X132623123Y-86231360D01*
X132645910Y-86000000D01*
X132623123Y-85768640D01*
X132555638Y-85546172D01*
X132446048Y-85341144D01*
X132298565Y-85161435D01*
X132118856Y-85013952D01*
X131913828Y-84904362D01*
X131691360Y-84836877D01*
X131517975Y-84819800D01*
X131402025Y-84819800D01*
X131228640Y-84836877D01*
X131006172Y-84904362D01*
X130801144Y-85013952D01*
X130621435Y-85161435D01*
X130473952Y-85341144D01*
X130364362Y-85546172D01*
X130347183Y-85602803D01*
X130264157Y-85368748D01*
X130115178Y-85118645D01*
X129920269Y-84902412D01*
X129686920Y-84728359D01*
X129424099Y-84603175D01*
X129276890Y-84558524D01*
X129047000Y-84679845D01*
X128793000Y-84679845D01*
X128563110Y-84558524D01*
X128415901Y-84603175D01*
X128153080Y-84728359D01*
X127919731Y-84902412D01*
X127724822Y-85118645D01*
X127575843Y-85368748D01*
X127492817Y-85602803D01*
X127475638Y-85546172D01*
X127366048Y-85341144D01*
X127218565Y-85161435D01*
X127038856Y-85013952D01*
X126833828Y-84904362D01*
X126611360Y-84836877D01*
X126437975Y-84819800D01*
X126322025Y-84819800D01*
X126148640Y-84836877D01*
X125926172Y-84904362D01*
X125721144Y-85013952D01*
X125541435Y-85161435D01*
X125393952Y-85341144D01*
X125284362Y-85546172D01*
X125216877Y-85768640D01*
X125194090Y-86000000D01*
X125216877Y-86231360D01*
X125284362Y-86453828D01*
X125393952Y-86658856D01*
X125541435Y-86838565D01*
X125721144Y-86986048D01*
X125926172Y-87095638D01*
X126148640Y-87163123D01*
X126322025Y-87180200D01*
X126437975Y-87180200D01*
X126611360Y-87163123D01*
X126833828Y-87095638D01*
X126877538Y-87072274D01*
X126928517Y-87123253D01*
X128462363Y-88657100D01*
X125290479Y-88657100D01*
X124404779Y-83342900D01*
X136657101Y-83342900D01*
X136657100Y-86834910D01*
G36*
X144007979Y-81691452D02*
G01*
X143872775Y-81781792D01*
X143757792Y-81896775D01*
X143667452Y-82031979D01*
X143605224Y-82182211D01*
X143573500Y-82341695D01*
X143573500Y-82504305D01*
X143605224Y-82663789D01*
X143667452Y-82814021D01*
X143757792Y-82949225D01*
X143872775Y-83064208D01*
X144007979Y-83154548D01*
X144158211Y-83216776D01*
X144317695Y-83248500D01*
X144480305Y-83248500D01*
X144639789Y-83216776D01*
X144790021Y-83154548D01*
X144925225Y-83064208D01*
X145040208Y-82949225D01*
X145130548Y-82814021D01*
X145192776Y-82663789D01*
X145224500Y-82504305D01*
X145224500Y-82341695D01*
X145192776Y-82182211D01*
X145130548Y-82031979D01*
X145040208Y-81896775D01*
X144925225Y-81781792D01*
X144790021Y-81691452D01*
X144786059Y-81689811D01*
X155852910Y-81689811D01*
X155808573Y-81713510D01*
X155756360Y-81756360D01*
X155713510Y-81808573D01*
X155681669Y-81868143D01*
X155662062Y-81932780D01*
X155655441Y-82000000D01*
X155657101Y-82016853D01*
X155657100Y-85731464D01*
X155642047Y-85737668D01*
X155637836Y-85739945D01*
X155552323Y-85786956D01*
X155526673Y-85804519D01*
X155500792Y-85821714D01*
X155497112Y-85824759D01*
X155497104Y-85824765D01*
X155497098Y-85824772D01*
X155422351Y-85887491D01*
X155400625Y-85909678D01*
X155378555Y-85931593D01*
X155375529Y-85935304D01*
X155314383Y-86011354D01*
X155313969Y-86011987D01*
X155274828Y-85985834D01*
X155169238Y-85942097D01*
X155057145Y-85919800D01*
X154942855Y-85919800D01*
X154830762Y-85942097D01*
X154725172Y-85985834D01*
X154630144Y-86049329D01*
X154625000Y-86054473D01*
X154619856Y-86049329D01*
X154524828Y-85985834D01*
X154419238Y-85942097D01*
X154307145Y-85919800D01*
X154192855Y-85919800D01*
X154080762Y-85942097D01*
X153975172Y-85985834D01*
X153880144Y-86049329D01*
X153875000Y-86054473D01*
X153869856Y-86049329D01*
X153774828Y-85985834D01*
X153669238Y-85942097D01*
X153557145Y-85919800D01*
X153442855Y-85919800D01*
X153330762Y-85942097D01*
X153225172Y-85985834D01*
X153185990Y-86012014D01*
X153181754Y-86005540D01*
X153178729Y-86001832D01*
X153178727Y-86001829D01*
X153178722Y-86001824D01*
X153116526Y-85926641D01*
X153094460Y-85904728D01*
X153072731Y-85882539D01*
X153069042Y-85879487D01*
X152993421Y-85817811D01*
X152967517Y-85800600D01*
X152941888Y-85783051D01*
X152937687Y-85780780D01*
X152937681Y-85780776D01*
X152937675Y-85780774D01*
X152851515Y-85734962D01*
X152822792Y-85723123D01*
X152794220Y-85710877D01*
X152789652Y-85709464D01*
X152789642Y-85709460D01*
X152789631Y-85709458D01*
X152696227Y-85681257D01*
X152665791Y-85675230D01*
X152635339Y-85668757D01*
X152630583Y-85668258D01*
X152630580Y-85668257D01*
X152630577Y-85668257D01*
X152533460Y-85658735D01*
X152533432Y-85658735D01*
X152516843Y-85657101D01*
X141483158Y-85657099D01*
X141466050Y-85658784D01*
X141459560Y-85658784D01*
X141454798Y-85659285D01*
X141357823Y-85670162D01*
X141327468Y-85676614D01*
X141296936Y-85682659D01*
X141292370Y-85684073D01*
X141292363Y-85684075D01*
X141292357Y-85684078D01*
X141199347Y-85713582D01*
X141170800Y-85725817D01*
X141142047Y-85737668D01*
X141137836Y-85739945D01*
X141052323Y-85786956D01*
X141026673Y-85804519D01*
X141000792Y-85821714D01*
X140997112Y-85824759D01*
X140997104Y-85824765D01*
X140997098Y-85824772D01*
X140922351Y-85887491D01*
X140900625Y-85909678D01*
X140878555Y-85931593D01*
X140875529Y-85935304D01*
X140814383Y-86011354D01*
X140813969Y-86011987D01*
X140774828Y-85985834D01*
X140669238Y-85942097D01*
X140557145Y-85919800D01*
X140442855Y-85919800D01*
X140330762Y-85942097D01*
X140225172Y-85985834D01*
X140130144Y-86049329D01*
X140125000Y-86054473D01*
X140119856Y-86049329D01*
X140024828Y-85985834D01*
X139919238Y-85942097D01*
X139807145Y-85919800D01*
X139692855Y-85919800D01*
X139580762Y-85942097D01*
X139475172Y-85985834D01*
X139380144Y-86049329D01*
X139375000Y-86054473D01*
X139369856Y-86049329D01*
X139274828Y-85985834D01*
X139169238Y-85942097D01*
X139057145Y-85919800D01*
X138942855Y-85919800D01*
X138830762Y-85942097D01*
X138725172Y-85985834D01*
X138685990Y-86012014D01*
X138681754Y-86005540D01*
X138678729Y-86001832D01*
X138678727Y-86001829D01*
X138678722Y-86001824D01*
X138616526Y-85926641D01*
X138594460Y-85904728D01*
X138572731Y-85882539D01*
X138569042Y-85879487D01*
X138493421Y-85817811D01*
X138467517Y-85800600D01*
X138441888Y-85783051D01*
X138437687Y-85780780D01*
X138437681Y-85780776D01*
X138437675Y-85780774D01*
X138351515Y-85734962D01*
X138342900Y-85731411D01*
X138342900Y-84373695D01*
X143573500Y-84373695D01*
X143573500Y-84536305D01*
X143605224Y-84695789D01*
X143667452Y-84846021D01*
X143757792Y-84981225D01*
X143872775Y-85096208D01*
X144007979Y-85186548D01*
X144158211Y-85248776D01*
X144317695Y-85280500D01*
X144480305Y-85280500D01*
X144639789Y-85248776D01*
X144790021Y-85186548D01*
X144925225Y-85096208D01*
X145040208Y-84981225D01*
X145130548Y-84846021D01*
X145192776Y-84695789D01*
X145224500Y-84536305D01*
X145224500Y-84373695D01*
X145192776Y-84214211D01*
X145130548Y-84063979D01*
X145040208Y-83928775D01*
X144925225Y-83813792D01*
X144790021Y-83723452D01*
X144639789Y-83661224D01*
X144480305Y-83629500D01*
X144317695Y-83629500D01*
X144158211Y-83661224D01*
X144007979Y-83723452D01*
X143872775Y-83813792D01*
X143757792Y-83928775D01*
X143667452Y-84063979D01*
X143605224Y-84214211D01*
X143573500Y-84373695D01*
X138342900Y-84373695D01*
X138342900Y-83357695D01*
X138493500Y-83357695D01*
X138493500Y-83520305D01*
X138525224Y-83679789D01*
X138587452Y-83830021D01*
X138677792Y-83965225D01*
X138792775Y-84080208D01*
X138927979Y-84170548D01*
X139078211Y-84232776D01*
X139237695Y-84264500D01*
X139400305Y-84264500D01*
X139559789Y-84232776D01*
X139710021Y-84170548D01*
X139845225Y-84080208D01*
X139960208Y-83965225D01*
X140050548Y-83830021D01*
X140112776Y-83679789D01*
X140144500Y-83520305D01*
X140144500Y-83357695D01*
X140112776Y-83198211D01*
X140050548Y-83047979D01*
X139960208Y-82912775D01*
X139845225Y-82797792D01*
X139710021Y-82707452D01*
X139559789Y-82645224D01*
X139400305Y-82613500D01*
X139237695Y-82613500D01*
X139078211Y-82645224D01*
X138927979Y-82707452D01*
X138792775Y-82797792D01*
X138677792Y-82912775D01*
X138587452Y-83047979D01*
X138525224Y-83198211D01*
X138493500Y-83357695D01*
X138342900Y-83357695D01*
X138342900Y-82016843D01*
X138344559Y-82000000D01*
X138337938Y-81932780D01*
X138318331Y-81868143D01*
X138286490Y-81808573D01*
X138243640Y-81756360D01*
X138191427Y-81713510D01*
X138147090Y-81689811D01*
X144011941Y-81689811D01*
X144007979Y-81691452D01*
X144007979Y-81691452D01*
G37*
X144007979Y-81691452D02*
X143872775Y-81781792D01*
X143757792Y-81896775D01*
X143667452Y-82031979D01*
X143605224Y-82182211D01*
X143573500Y-82341695D01*
X143573500Y-82504305D01*
X143605224Y-82663789D01*
X143667452Y-82814021D01*
X143757792Y-82949225D01*
X143872775Y-83064208D01*
X144007979Y-83154548D01*
X144158211Y-83216776D01*
X144317695Y-83248500D01*
X144480305Y-83248500D01*
X144639789Y-83216776D01*
X144790021Y-83154548D01*
X144925225Y-83064208D01*
X145040208Y-82949225D01*
X145130548Y-82814021D01*
X145192776Y-82663789D01*
X145224500Y-82504305D01*
X145224500Y-82341695D01*
X145192776Y-82182211D01*
X145130548Y-82031979D01*
X145040208Y-81896775D01*
X144925225Y-81781792D01*
X144790021Y-81691452D01*
X144786059Y-81689811D01*
X155852910Y-81689811D01*
X155808573Y-81713510D01*
X155756360Y-81756360D01*
X155713510Y-81808573D01*
X155681669Y-81868143D01*
X155662062Y-81932780D01*
X155655441Y-82000000D01*
X155657101Y-82016853D01*
X155657100Y-85731464D01*
X155642047Y-85737668D01*
X155637836Y-85739945D01*
X155552323Y-85786956D01*
X155526673Y-85804519D01*
X155500792Y-85821714D01*
X155497112Y-85824759D01*
X155497104Y-85824765D01*
X155497098Y-85824772D01*
X155422351Y-85887491D01*
X155400625Y-85909678D01*
X155378555Y-85931593D01*
X155375529Y-85935304D01*
X155314383Y-86011354D01*
X155313969Y-86011987D01*
X155274828Y-85985834D01*
X155169238Y-85942097D01*
X155057145Y-85919800D01*
X154942855Y-85919800D01*
X154830762Y-85942097D01*
X154725172Y-85985834D01*
X154630144Y-86049329D01*
X154625000Y-86054473D01*
X154619856Y-86049329D01*
X154524828Y-85985834D01*
X154419238Y-85942097D01*
X154307145Y-85919800D01*
X154192855Y-85919800D01*
X154080762Y-85942097D01*
X153975172Y-85985834D01*
X153880144Y-86049329D01*
X153875000Y-86054473D01*
X153869856Y-86049329D01*
X153774828Y-85985834D01*
X153669238Y-85942097D01*
X153557145Y-85919800D01*
X153442855Y-85919800D01*
X153330762Y-85942097D01*
X153225172Y-85985834D01*
X153185990Y-86012014D01*
X153181754Y-86005540D01*
X153178729Y-86001832D01*
X153178727Y-86001829D01*
X153178722Y-86001824D01*
X153116526Y-85926641D01*
X153094460Y-85904728D01*
X153072731Y-85882539D01*
X153069042Y-85879487D01*
X152993421Y-85817811D01*
X152967517Y-85800600D01*
X152941888Y-85783051D01*
X152937687Y-85780780D01*
X152937681Y-85780776D01*
X152937675Y-85780774D01*
X152851515Y-85734962D01*
X152822792Y-85723123D01*
X152794220Y-85710877D01*
X152789652Y-85709464D01*
X152789642Y-85709460D01*
X152789631Y-85709458D01*
X152696227Y-85681257D01*
X152665791Y-85675230D01*
X152635339Y-85668757D01*
X152630583Y-85668258D01*
X152630580Y-85668257D01*
X152630577Y-85668257D01*
X152533460Y-85658735D01*
X152533432Y-85658735D01*
X152516843Y-85657101D01*
X141483158Y-85657099D01*
X141466050Y-85658784D01*
X141459560Y-85658784D01*
X141454798Y-85659285D01*
X141357823Y-85670162D01*
X141327468Y-85676614D01*
X141296936Y-85682659D01*
X141292370Y-85684073D01*
X141292363Y-85684075D01*
X141292357Y-85684078D01*
X141199347Y-85713582D01*
X141170800Y-85725817D01*
X141142047Y-85737668D01*
X141137836Y-85739945D01*
X141052323Y-85786956D01*
X141026673Y-85804519D01*
X141000792Y-85821714D01*
X140997112Y-85824759D01*
X140997104Y-85824765D01*
X140997098Y-85824772D01*
X140922351Y-85887491D01*
X140900625Y-85909678D01*
X140878555Y-85931593D01*
X140875529Y-85935304D01*
X140814383Y-86011354D01*
X140813969Y-86011987D01*
X140774828Y-85985834D01*
X140669238Y-85942097D01*
X140557145Y-85919800D01*
X140442855Y-85919800D01*
X140330762Y-85942097D01*
X140225172Y-85985834D01*
X140130144Y-86049329D01*
X140125000Y-86054473D01*
X140119856Y-86049329D01*
X140024828Y-85985834D01*
X139919238Y-85942097D01*
X139807145Y-85919800D01*
X139692855Y-85919800D01*
X139580762Y-85942097D01*
X139475172Y-85985834D01*
X139380144Y-86049329D01*
X139375000Y-86054473D01*
X139369856Y-86049329D01*
X139274828Y-85985834D01*
X139169238Y-85942097D01*
X139057145Y-85919800D01*
X138942855Y-85919800D01*
X138830762Y-85942097D01*
X138725172Y-85985834D01*
X138685990Y-86012014D01*
X138681754Y-86005540D01*
X138678729Y-86001832D01*
X138678727Y-86001829D01*
X138678722Y-86001824D01*
X138616526Y-85926641D01*
X138594460Y-85904728D01*
X138572731Y-85882539D01*
X138569042Y-85879487D01*
X138493421Y-85817811D01*
X138467517Y-85800600D01*
X138441888Y-85783051D01*
X138437687Y-85780780D01*
X138437681Y-85780776D01*
X138437675Y-85780774D01*
X138351515Y-85734962D01*
X138342900Y-85731411D01*
X138342900Y-84373695D01*
X143573500Y-84373695D01*
X143573500Y-84536305D01*
X143605224Y-84695789D01*
X143667452Y-84846021D01*
X143757792Y-84981225D01*
X143872775Y-85096208D01*
X144007979Y-85186548D01*
X144158211Y-85248776D01*
X144317695Y-85280500D01*
X144480305Y-85280500D01*
X144639789Y-85248776D01*
X144790021Y-85186548D01*
X144925225Y-85096208D01*
X145040208Y-84981225D01*
X145130548Y-84846021D01*
X145192776Y-84695789D01*
X145224500Y-84536305D01*
X145224500Y-84373695D01*
X145192776Y-84214211D01*
X145130548Y-84063979D01*
X145040208Y-83928775D01*
X144925225Y-83813792D01*
X144790021Y-83723452D01*
X144639789Y-83661224D01*
X144480305Y-83629500D01*
X144317695Y-83629500D01*
X144158211Y-83661224D01*
X144007979Y-83723452D01*
X143872775Y-83813792D01*
X143757792Y-83928775D01*
X143667452Y-84063979D01*
X143605224Y-84214211D01*
X143573500Y-84373695D01*
X138342900Y-84373695D01*
X138342900Y-83357695D01*
X138493500Y-83357695D01*
X138493500Y-83520305D01*
X138525224Y-83679789D01*
X138587452Y-83830021D01*
X138677792Y-83965225D01*
X138792775Y-84080208D01*
X138927979Y-84170548D01*
X139078211Y-84232776D01*
X139237695Y-84264500D01*
X139400305Y-84264500D01*
X139559789Y-84232776D01*
X139710021Y-84170548D01*
X139845225Y-84080208D01*
X139960208Y-83965225D01*
X140050548Y-83830021D01*
X140112776Y-83679789D01*
X140144500Y-83520305D01*
X140144500Y-83357695D01*
X140112776Y-83198211D01*
X140050548Y-83047979D01*
X139960208Y-82912775D01*
X139845225Y-82797792D01*
X139710021Y-82707452D01*
X139559789Y-82645224D01*
X139400305Y-82613500D01*
X139237695Y-82613500D01*
X139078211Y-82645224D01*
X138927979Y-82707452D01*
X138792775Y-82797792D01*
X138677792Y-82912775D01*
X138587452Y-83047979D01*
X138525224Y-83198211D01*
X138493500Y-83357695D01*
X138342900Y-83357695D01*
X138342900Y-82016843D01*
X138344559Y-82000000D01*
X138337938Y-81932780D01*
X138318331Y-81868143D01*
X138286490Y-81808573D01*
X138243640Y-81756360D01*
X138191427Y-81713510D01*
X138147090Y-81689811D01*
X144011941Y-81689811D01*
X144007979Y-81691452D01*
G36*
X133960621Y-63870563D02*
G01*
X133929960Y-63927927D01*
X133911078Y-63990170D01*
X133904703Y-64054900D01*
X133904703Y-69134900D01*
X133911078Y-69199630D01*
X133929960Y-69261873D01*
X133960621Y-69319237D01*
X134001884Y-69369516D01*
X134052163Y-69410779D01*
X134109527Y-69441440D01*
X134171770Y-69460322D01*
X134236500Y-69466697D01*
X136776500Y-69466697D01*
X136841230Y-69460322D01*
X136903473Y-69441440D01*
X136960837Y-69410779D01*
X137011116Y-69369516D01*
X137052379Y-69319237D01*
X137083040Y-69261873D01*
X137101922Y-69199630D01*
X137108297Y-69134900D01*
X137108297Y-64054900D01*
X137101922Y-63990170D01*
X137083040Y-63927927D01*
X137052379Y-63870563D01*
X137029677Y-63842900D01*
X138096543Y-63842900D01*
X138070627Y-63905467D01*
X137716300Y-65686790D01*
X137716300Y-67503010D01*
X138070627Y-69284333D01*
X138765664Y-70962303D01*
X139774703Y-72472435D01*
X141058965Y-73756697D01*
X142569097Y-74765736D01*
X143895137Y-75314999D01*
X141898066Y-75314999D01*
X140131211Y-73548145D01*
X140118487Y-73532641D01*
X140056605Y-73481855D01*
X139986004Y-73444118D01*
X139909397Y-73420880D01*
X139849689Y-73414999D01*
X139849682Y-73414999D01*
X139829729Y-73413034D01*
X139809776Y-73414999D01*
X139390224Y-73414999D01*
X139370271Y-73413034D01*
X139350318Y-73414999D01*
X139350311Y-73414999D01*
X139297875Y-73420164D01*
X139290602Y-73420880D01*
X139215292Y-73443725D01*
X139213996Y-73444118D01*
X139143395Y-73481855D01*
X139118017Y-73502682D01*
X139097016Y-73519917D01*
X139097011Y-73519922D01*
X139081513Y-73532641D01*
X139078821Y-73535921D01*
X139057903Y-73430762D01*
X139014166Y-73325172D01*
X138950671Y-73230144D01*
X138869856Y-73149329D01*
X138774828Y-73085834D01*
X138669238Y-73042097D01*
X138557145Y-73019800D01*
X138494536Y-73019800D01*
X137901482Y-72426746D01*
X137888758Y-72411242D01*
X137826876Y-72360456D01*
X137756275Y-72322719D01*
X137679668Y-72299481D01*
X137619960Y-72293600D01*
X137619953Y-72293600D01*
X137600000Y-72291635D01*
X137580047Y-72293600D01*
X135939771Y-72293600D01*
X135892173Y-72204549D01*
X135826037Y-72123963D01*
X135745451Y-72057827D01*
X135653510Y-72008684D01*
X135553748Y-71978421D01*
X135450000Y-71968203D01*
X134550000Y-71968203D01*
X134446252Y-71978421D01*
X134346490Y-72008684D01*
X134254549Y-72057827D01*
X134173963Y-72123963D01*
X134107827Y-72204549D01*
X134058684Y-72296490D01*
X134028421Y-72396252D01*
X134018203Y-72500000D01*
X134018203Y-72900000D01*
X134028421Y-73003748D01*
X134058684Y-73103510D01*
X134081598Y-73146379D01*
X133978888Y-73237717D01*
X133854745Y-73401840D01*
X133765006Y-73587028D01*
X133755334Y-73663877D01*
X133883002Y-73823000D01*
X134873000Y-73823000D01*
X134873000Y-73803000D01*
X135127000Y-73803000D01*
X135127000Y-73823000D01*
X136116998Y-73823000D01*
X136244666Y-73663877D01*
X136234994Y-73587028D01*
X136145255Y-73401840D01*
X136021112Y-73237717D01*
X135918402Y-73146379D01*
X135939771Y-73106400D01*
X137431664Y-73106400D01*
X137919800Y-73594536D01*
X137919800Y-73657145D01*
X137942097Y-73769238D01*
X137985834Y-73874828D01*
X138049329Y-73969856D01*
X138130144Y-74050671D01*
X138225172Y-74114166D01*
X138330762Y-74157903D01*
X138437749Y-74179184D01*
X138283947Y-74332987D01*
X138268443Y-74345711D01*
X138217657Y-74407594D01*
X138184708Y-74469238D01*
X138179920Y-74478195D01*
X138174686Y-74495451D01*
X138156682Y-74554802D01*
X138150801Y-74614510D01*
X138150801Y-74614516D01*
X138148836Y-74634469D01*
X138150801Y-74654422D01*
X138150801Y-74822795D01*
X138135745Y-74819800D01*
X138021455Y-74819800D01*
X137909362Y-74842097D01*
X137803772Y-74885834D01*
X137708744Y-74949329D01*
X137664473Y-74993600D01*
X136914127Y-74993600D01*
X136869856Y-74949329D01*
X136774828Y-74885834D01*
X136669238Y-74842097D01*
X136557145Y-74819800D01*
X136442855Y-74819800D01*
X136330762Y-74842097D01*
X136225172Y-74885834D01*
X136130144Y-74949329D01*
X136049329Y-75030144D01*
X135985834Y-75125172D01*
X135942097Y-75230762D01*
X135919800Y-75342855D01*
X135919800Y-75457145D01*
X135942097Y-75569238D01*
X135985834Y-75674828D01*
X136049329Y-75769856D01*
X136130144Y-75850671D01*
X136225172Y-75914166D01*
X136330762Y-75957903D01*
X136442855Y-75980200D01*
X136557145Y-75980200D01*
X136669238Y-75957903D01*
X136774828Y-75914166D01*
X136869856Y-75850671D01*
X136914127Y-75806400D01*
X137664473Y-75806400D01*
X137708744Y-75850671D01*
X137803772Y-75914166D01*
X137909362Y-75957903D01*
X138021455Y-75980200D01*
X138135745Y-75980200D01*
X138150802Y-75977205D01*
X138150802Y-76542300D01*
X138115355Y-76542300D01*
X138003262Y-76564597D01*
X137897672Y-76608334D01*
X137802644Y-76671829D01*
X137721829Y-76752644D01*
X137658334Y-76847672D01*
X137614597Y-76953262D01*
X137592300Y-77065355D01*
X137592300Y-77179645D01*
X137614597Y-77291738D01*
X137658334Y-77397328D01*
X137721829Y-77492356D01*
X137802644Y-77573171D01*
X137897672Y-77636666D01*
X138003262Y-77680403D01*
X138115355Y-77702700D01*
X138229645Y-77702700D01*
X138341738Y-77680403D01*
X138447328Y-77636666D01*
X138542356Y-77573171D01*
X138623171Y-77492356D01*
X138686666Y-77397328D01*
X138730403Y-77291738D01*
X138752700Y-77179645D01*
X138752700Y-77117036D01*
X138830450Y-77039285D01*
X138845959Y-77026557D01*
X138896745Y-76964675D01*
X138934482Y-76894074D01*
X138957720Y-76817467D01*
X138963601Y-76757759D01*
X138963601Y-76757753D01*
X138965566Y-76737800D01*
X138963601Y-76717847D01*
X138963601Y-74802805D01*
X139128189Y-74638217D01*
X139149329Y-74669856D01*
X139193601Y-74714128D01*
X139193600Y-80085873D01*
X139149329Y-80130144D01*
X139085834Y-80225172D01*
X139042097Y-80330762D01*
X139019800Y-80442855D01*
X139019800Y-80557145D01*
X139042097Y-80669238D01*
X139085834Y-80774828D01*
X139149329Y-80869856D01*
X139156484Y-80877011D01*
X137454148Y-80877011D01*
X135303882Y-78726746D01*
X135291158Y-78711242D01*
X135229276Y-78660456D01*
X135181797Y-78635078D01*
X135181797Y-78150000D01*
X135175422Y-78085270D01*
X135156540Y-78023027D01*
X135125879Y-77965663D01*
X135084616Y-77915384D01*
X135034337Y-77874121D01*
X134976973Y-77843460D01*
X134914730Y-77824578D01*
X134850000Y-77818203D01*
X133150000Y-77818203D01*
X133085270Y-77824578D01*
X133023027Y-77843460D01*
X132965663Y-77874121D01*
X132915384Y-77915384D01*
X132874121Y-77965663D01*
X132843460Y-78023027D01*
X132824578Y-78085270D01*
X132818203Y-78150000D01*
X132818203Y-79850000D01*
X132824578Y-79914730D01*
X132843460Y-79976973D01*
X132874121Y-80034337D01*
X132915384Y-80084616D01*
X132965663Y-80125879D01*
X133023027Y-80156540D01*
X133085270Y-80175422D01*
X133150000Y-80181797D01*
X134850000Y-80181797D01*
X134914730Y-80175422D01*
X134976973Y-80156540D01*
X135034337Y-80125879D01*
X135084616Y-80084616D01*
X135125879Y-80034337D01*
X135156540Y-79976973D01*
X135175422Y-79914730D01*
X135181797Y-79850000D01*
X135181797Y-79754133D01*
X136984334Y-81556671D01*
X136997053Y-81572169D01*
X137012551Y-81584888D01*
X137012556Y-81584893D01*
X137027918Y-81597500D01*
X137058935Y-81622955D01*
X137119712Y-81655441D01*
X137122816Y-81657100D01*
X124404779Y-81657100D01*
X124847629Y-79000000D01*
X125194090Y-79000000D01*
X125216877Y-79231360D01*
X125284362Y-79453828D01*
X125393952Y-79658856D01*
X125541435Y-79838565D01*
X125721144Y-79986048D01*
X125926172Y-80095638D01*
X126148640Y-80163123D01*
X126322025Y-80180200D01*
X126437975Y-80180200D01*
X126611360Y-80163123D01*
X126833828Y-80095638D01*
X127038856Y-79986048D01*
X127218565Y-79838565D01*
X127366048Y-79658856D01*
X127475638Y-79453828D01*
X127492817Y-79397197D01*
X127575843Y-79631252D01*
X127724822Y-79881355D01*
X127919731Y-80097588D01*
X128153080Y-80271641D01*
X128415901Y-80396825D01*
X128563110Y-80441476D01*
X128793000Y-80320155D01*
X128793000Y-79127000D01*
X128773000Y-79127000D01*
X128773000Y-78873000D01*
X128793000Y-78873000D01*
X128793000Y-77679845D01*
X129047000Y-77679845D01*
X129047000Y-78873000D01*
X129067000Y-78873000D01*
X129067000Y-79127000D01*
X129047000Y-79127000D01*
X129047000Y-80320155D01*
X129276890Y-80441476D01*
X129424099Y-80396825D01*
X129686920Y-80271641D01*
X129920269Y-80097588D01*
X130115178Y-79881355D01*
X130264157Y-79631252D01*
X130347183Y-79397197D01*
X130364362Y-79453828D01*
X130473952Y-79658856D01*
X130621435Y-79838565D01*
X130801144Y-79986048D01*
X131006172Y-80095638D01*
X131228640Y-80163123D01*
X131402025Y-80180200D01*
X131517975Y-80180200D01*
X131691360Y-80163123D01*
X131913828Y-80095638D01*
X132118856Y-79986048D01*
X132298565Y-79838565D01*
X132446048Y-79658856D01*
X132555638Y-79453828D01*
X132623123Y-79231360D01*
X132645910Y-79000000D01*
X132623123Y-78768640D01*
X132555638Y-78546172D01*
X132446048Y-78341144D01*
X132298565Y-78161435D01*
X132118856Y-78013952D01*
X131913828Y-77904362D01*
X131691360Y-77836877D01*
X131517975Y-77819800D01*
X131402025Y-77819800D01*
X131228640Y-77836877D01*
X131006172Y-77904362D01*
X130801144Y-78013952D01*
X130621435Y-78161435D01*
X130473952Y-78341144D01*
X130364362Y-78546172D01*
X130347183Y-78602803D01*
X130264157Y-78368748D01*
X130115178Y-78118645D01*
X129920269Y-77902412D01*
X129686920Y-77728359D01*
X129424099Y-77603175D01*
X129276890Y-77558524D01*
X129047000Y-77679845D01*
X128793000Y-77679845D01*
X128563110Y-77558524D01*
X128415901Y-77603175D01*
X128153080Y-77728359D01*
X127919731Y-77902412D01*
X127724822Y-78118645D01*
X127575843Y-78368748D01*
X127492817Y-78602803D01*
X127475638Y-78546172D01*
X127366048Y-78341144D01*
X127218565Y-78161435D01*
X127038856Y-78013952D01*
X126833828Y-77904362D01*
X126611360Y-77836877D01*
X126437975Y-77819800D01*
X126322025Y-77819800D01*
X126148640Y-77836877D01*
X125926172Y-77904362D01*
X125721144Y-78013952D01*
X125541435Y-78161435D01*
X125393952Y-78341144D01*
X125284362Y-78546172D01*
X125216877Y-78768640D01*
X125194090Y-79000000D01*
X124847629Y-79000000D01*
X125290479Y-76342900D01*
X132983157Y-76342900D01*
X133000000Y-76344559D01*
X133016843Y-76342900D01*
X133067220Y-76337938D01*
X133131857Y-76318331D01*
X133191427Y-76286490D01*
X133243640Y-76243640D01*
X133286490Y-76191427D01*
X133318331Y-76131857D01*
X133337938Y-76067220D01*
X133344559Y-76000000D01*
X133342900Y-75983157D01*
X133342900Y-74236123D01*
X133755334Y-74236123D01*
X133765006Y-74312972D01*
X133854745Y-74498160D01*
X133978888Y-74662283D01*
X134132664Y-74799033D01*
X134310164Y-74903155D01*
X134504567Y-74970648D01*
X134708401Y-74998918D01*
X134873000Y-74833762D01*
X134873000Y-74077000D01*
X135127000Y-74077000D01*
X135127000Y-74833762D01*
X135291599Y-74998918D01*
X135495433Y-74970648D01*
X135689836Y-74903155D01*
X135867336Y-74799033D01*
X136021112Y-74662283D01*
X136145255Y-74498160D01*
X136234994Y-74312972D01*
X136244666Y-74236123D01*
X136116998Y-74077000D01*
X135127000Y-74077000D01*
X134873000Y-74077000D01*
X133883002Y-74077000D01*
X133755334Y-74236123D01*
X133342900Y-74236123D01*
X133342900Y-63842900D01*
X133983323Y-63842900D01*
X133960621Y-63870563D01*
X133960621Y-63870563D01*
G37*
X133960621Y-63870563D02*
X133929960Y-63927927D01*
X133911078Y-63990170D01*
X133904703Y-64054900D01*
X133904703Y-69134900D01*
X133911078Y-69199630D01*
X133929960Y-69261873D01*
X133960621Y-69319237D01*
X134001884Y-69369516D01*
X134052163Y-69410779D01*
X134109527Y-69441440D01*
X134171770Y-69460322D01*
X134236500Y-69466697D01*
X136776500Y-69466697D01*
X136841230Y-69460322D01*
X136903473Y-69441440D01*
X136960837Y-69410779D01*
X137011116Y-69369516D01*
X137052379Y-69319237D01*
X137083040Y-69261873D01*
X137101922Y-69199630D01*
X137108297Y-69134900D01*
X137108297Y-64054900D01*
X137101922Y-63990170D01*
X137083040Y-63927927D01*
X137052379Y-63870563D01*
X137029677Y-63842900D01*
X138096543Y-63842900D01*
X138070627Y-63905467D01*
X137716300Y-65686790D01*
X137716300Y-67503010D01*
X138070627Y-69284333D01*
X138765664Y-70962303D01*
X139774703Y-72472435D01*
X141058965Y-73756697D01*
X142569097Y-74765736D01*
X143895137Y-75314999D01*
X141898066Y-75314999D01*
X140131211Y-73548145D01*
X140118487Y-73532641D01*
X140056605Y-73481855D01*
X139986004Y-73444118D01*
X139909397Y-73420880D01*
X139849689Y-73414999D01*
X139849682Y-73414999D01*
X139829729Y-73413034D01*
X139809776Y-73414999D01*
X139390224Y-73414999D01*
X139370271Y-73413034D01*
X139350318Y-73414999D01*
X139350311Y-73414999D01*
X139297875Y-73420164D01*
X139290602Y-73420880D01*
X139215292Y-73443725D01*
X139213996Y-73444118D01*
X139143395Y-73481855D01*
X139118017Y-73502682D01*
X139097016Y-73519917D01*
X139097011Y-73519922D01*
X139081513Y-73532641D01*
X139078821Y-73535921D01*
X139057903Y-73430762D01*
X139014166Y-73325172D01*
X138950671Y-73230144D01*
X138869856Y-73149329D01*
X138774828Y-73085834D01*
X138669238Y-73042097D01*
X138557145Y-73019800D01*
X138494536Y-73019800D01*
X137901482Y-72426746D01*
X137888758Y-72411242D01*
X137826876Y-72360456D01*
X137756275Y-72322719D01*
X137679668Y-72299481D01*
X137619960Y-72293600D01*
X137619953Y-72293600D01*
X137600000Y-72291635D01*
X137580047Y-72293600D01*
X135939771Y-72293600D01*
X135892173Y-72204549D01*
X135826037Y-72123963D01*
X135745451Y-72057827D01*
X135653510Y-72008684D01*
X135553748Y-71978421D01*
X135450000Y-71968203D01*
X134550000Y-71968203D01*
X134446252Y-71978421D01*
X134346490Y-72008684D01*
X134254549Y-72057827D01*
X134173963Y-72123963D01*
X134107827Y-72204549D01*
X134058684Y-72296490D01*
X134028421Y-72396252D01*
X134018203Y-72500000D01*
X134018203Y-72900000D01*
X134028421Y-73003748D01*
X134058684Y-73103510D01*
X134081598Y-73146379D01*
X133978888Y-73237717D01*
X133854745Y-73401840D01*
X133765006Y-73587028D01*
X133755334Y-73663877D01*
X133883002Y-73823000D01*
X134873000Y-73823000D01*
X134873000Y-73803000D01*
X135127000Y-73803000D01*
X135127000Y-73823000D01*
X136116998Y-73823000D01*
X136244666Y-73663877D01*
X136234994Y-73587028D01*
X136145255Y-73401840D01*
X136021112Y-73237717D01*
X135918402Y-73146379D01*
X135939771Y-73106400D01*
X137431664Y-73106400D01*
X137919800Y-73594536D01*
X137919800Y-73657145D01*
X137942097Y-73769238D01*
X137985834Y-73874828D01*
X138049329Y-73969856D01*
X138130144Y-74050671D01*
X138225172Y-74114166D01*
X138330762Y-74157903D01*
X138437749Y-74179184D01*
X138283947Y-74332987D01*
X138268443Y-74345711D01*
X138217657Y-74407594D01*
X138184708Y-74469238D01*
X138179920Y-74478195D01*
X138174686Y-74495451D01*
X138156682Y-74554802D01*
X138150801Y-74614510D01*
X138150801Y-74614516D01*
X138148836Y-74634469D01*
X138150801Y-74654422D01*
X138150801Y-74822795D01*
X138135745Y-74819800D01*
X138021455Y-74819800D01*
X137909362Y-74842097D01*
X137803772Y-74885834D01*
X137708744Y-74949329D01*
X137664473Y-74993600D01*
X136914127Y-74993600D01*
X136869856Y-74949329D01*
X136774828Y-74885834D01*
X136669238Y-74842097D01*
X136557145Y-74819800D01*
X136442855Y-74819800D01*
X136330762Y-74842097D01*
X136225172Y-74885834D01*
X136130144Y-74949329D01*
X136049329Y-75030144D01*
X135985834Y-75125172D01*
X135942097Y-75230762D01*
X135919800Y-75342855D01*
X135919800Y-75457145D01*
X135942097Y-75569238D01*
X135985834Y-75674828D01*
X136049329Y-75769856D01*
X136130144Y-75850671D01*
X136225172Y-75914166D01*
X136330762Y-75957903D01*
X136442855Y-75980200D01*
X136557145Y-75980200D01*
X136669238Y-75957903D01*
X136774828Y-75914166D01*
X136869856Y-75850671D01*
X136914127Y-75806400D01*
X137664473Y-75806400D01*
X137708744Y-75850671D01*
X137803772Y-75914166D01*
X137909362Y-75957903D01*
X138021455Y-75980200D01*
X138135745Y-75980200D01*
X138150802Y-75977205D01*
X138150802Y-76542300D01*
X138115355Y-76542300D01*
X138003262Y-76564597D01*
X137897672Y-76608334D01*
X137802644Y-76671829D01*
X137721829Y-76752644D01*
X137658334Y-76847672D01*
X137614597Y-76953262D01*
X137592300Y-77065355D01*
X137592300Y-77179645D01*
X137614597Y-77291738D01*
X137658334Y-77397328D01*
X137721829Y-77492356D01*
X137802644Y-77573171D01*
X137897672Y-77636666D01*
X138003262Y-77680403D01*
X138115355Y-77702700D01*
X138229645Y-77702700D01*
X138341738Y-77680403D01*
X138447328Y-77636666D01*
X138542356Y-77573171D01*
X138623171Y-77492356D01*
X138686666Y-77397328D01*
X138730403Y-77291738D01*
X138752700Y-77179645D01*
X138752700Y-77117036D01*
X138830450Y-77039285D01*
X138845959Y-77026557D01*
X138896745Y-76964675D01*
X138934482Y-76894074D01*
X138957720Y-76817467D01*
X138963601Y-76757759D01*
X138963601Y-76757753D01*
X138965566Y-76737800D01*
X138963601Y-76717847D01*
X138963601Y-74802805D01*
X139128189Y-74638217D01*
X139149329Y-74669856D01*
X139193601Y-74714128D01*
X139193600Y-80085873D01*
X139149329Y-80130144D01*
X139085834Y-80225172D01*
X139042097Y-80330762D01*
X139019800Y-80442855D01*
X139019800Y-80557145D01*
X139042097Y-80669238D01*
X139085834Y-80774828D01*
X139149329Y-80869856D01*
X139156484Y-80877011D01*
X137454148Y-80877011D01*
X135303882Y-78726746D01*
X135291158Y-78711242D01*
X135229276Y-78660456D01*
X135181797Y-78635078D01*
X135181797Y-78150000D01*
X135175422Y-78085270D01*
X135156540Y-78023027D01*
X135125879Y-77965663D01*
X135084616Y-77915384D01*
X135034337Y-77874121D01*
X134976973Y-77843460D01*
X134914730Y-77824578D01*
X134850000Y-77818203D01*
X133150000Y-77818203D01*
X133085270Y-77824578D01*
X133023027Y-77843460D01*
X132965663Y-77874121D01*
X132915384Y-77915384D01*
X132874121Y-77965663D01*
X132843460Y-78023027D01*
X132824578Y-78085270D01*
X132818203Y-78150000D01*
X132818203Y-79850000D01*
X132824578Y-79914730D01*
X132843460Y-79976973D01*
X132874121Y-80034337D01*
X132915384Y-80084616D01*
X132965663Y-80125879D01*
X133023027Y-80156540D01*
X133085270Y-80175422D01*
X133150000Y-80181797D01*
X134850000Y-80181797D01*
X134914730Y-80175422D01*
X134976973Y-80156540D01*
X135034337Y-80125879D01*
X135084616Y-80084616D01*
X135125879Y-80034337D01*
X135156540Y-79976973D01*
X135175422Y-79914730D01*
X135181797Y-79850000D01*
X135181797Y-79754133D01*
X136984334Y-81556671D01*
X136997053Y-81572169D01*
X137012551Y-81584888D01*
X137012556Y-81584893D01*
X137027918Y-81597500D01*
X137058935Y-81622955D01*
X137119712Y-81655441D01*
X137122816Y-81657100D01*
X124404779Y-81657100D01*
X124847629Y-79000000D01*
X125194090Y-79000000D01*
X125216877Y-79231360D01*
X125284362Y-79453828D01*
X125393952Y-79658856D01*
X125541435Y-79838565D01*
X125721144Y-79986048D01*
X125926172Y-80095638D01*
X126148640Y-80163123D01*
X126322025Y-80180200D01*
X126437975Y-80180200D01*
X126611360Y-80163123D01*
X126833828Y-80095638D01*
X127038856Y-79986048D01*
X127218565Y-79838565D01*
X127366048Y-79658856D01*
X127475638Y-79453828D01*
X127492817Y-79397197D01*
X127575843Y-79631252D01*
X127724822Y-79881355D01*
X127919731Y-80097588D01*
X128153080Y-80271641D01*
X128415901Y-80396825D01*
X128563110Y-80441476D01*
X128793000Y-80320155D01*
X128793000Y-79127000D01*
X128773000Y-79127000D01*
X128773000Y-78873000D01*
X128793000Y-78873000D01*
X128793000Y-77679845D01*
X129047000Y-77679845D01*
X129047000Y-78873000D01*
X129067000Y-78873000D01*
X129067000Y-79127000D01*
X129047000Y-79127000D01*
X129047000Y-80320155D01*
X129276890Y-80441476D01*
X129424099Y-80396825D01*
X129686920Y-80271641D01*
X129920269Y-80097588D01*
X130115178Y-79881355D01*
X130264157Y-79631252D01*
X130347183Y-79397197D01*
X130364362Y-79453828D01*
X130473952Y-79658856D01*
X130621435Y-79838565D01*
X130801144Y-79986048D01*
X131006172Y-80095638D01*
X131228640Y-80163123D01*
X131402025Y-80180200D01*
X131517975Y-80180200D01*
X131691360Y-80163123D01*
X131913828Y-80095638D01*
X132118856Y-79986048D01*
X132298565Y-79838565D01*
X132446048Y-79658856D01*
X132555638Y-79453828D01*
X132623123Y-79231360D01*
X132645910Y-79000000D01*
X132623123Y-78768640D01*
X132555638Y-78546172D01*
X132446048Y-78341144D01*
X132298565Y-78161435D01*
X132118856Y-78013952D01*
X131913828Y-77904362D01*
X131691360Y-77836877D01*
X131517975Y-77819800D01*
X131402025Y-77819800D01*
X131228640Y-77836877D01*
X131006172Y-77904362D01*
X130801144Y-78013952D01*
X130621435Y-78161435D01*
X130473952Y-78341144D01*
X130364362Y-78546172D01*
X130347183Y-78602803D01*
X130264157Y-78368748D01*
X130115178Y-78118645D01*
X129920269Y-77902412D01*
X129686920Y-77728359D01*
X129424099Y-77603175D01*
X129276890Y-77558524D01*
X129047000Y-77679845D01*
X128793000Y-77679845D01*
X128563110Y-77558524D01*
X128415901Y-77603175D01*
X128153080Y-77728359D01*
X127919731Y-77902412D01*
X127724822Y-78118645D01*
X127575843Y-78368748D01*
X127492817Y-78602803D01*
X127475638Y-78546172D01*
X127366048Y-78341144D01*
X127218565Y-78161435D01*
X127038856Y-78013952D01*
X126833828Y-77904362D01*
X126611360Y-77836877D01*
X126437975Y-77819800D01*
X126322025Y-77819800D01*
X126148640Y-77836877D01*
X125926172Y-77904362D01*
X125721144Y-78013952D01*
X125541435Y-78161435D01*
X125393952Y-78341144D01*
X125284362Y-78546172D01*
X125216877Y-78768640D01*
X125194090Y-79000000D01*
X124847629Y-79000000D01*
X125290479Y-76342900D01*
X132983157Y-76342900D01*
X133000000Y-76344559D01*
X133016843Y-76342900D01*
X133067220Y-76337938D01*
X133131857Y-76318331D01*
X133191427Y-76286490D01*
X133243640Y-76243640D01*
X133286490Y-76191427D01*
X133318331Y-76131857D01*
X133337938Y-76067220D01*
X133344559Y-76000000D01*
X133342900Y-75983157D01*
X133342900Y-74236123D01*
X133755334Y-74236123D01*
X133765006Y-74312972D01*
X133854745Y-74498160D01*
X133978888Y-74662283D01*
X134132664Y-74799033D01*
X134310164Y-74903155D01*
X134504567Y-74970648D01*
X134708401Y-74998918D01*
X134873000Y-74833762D01*
X134873000Y-74077000D01*
X135127000Y-74077000D01*
X135127000Y-74833762D01*
X135291599Y-74998918D01*
X135495433Y-74970648D01*
X135689836Y-74903155D01*
X135867336Y-74799033D01*
X136021112Y-74662283D01*
X136145255Y-74498160D01*
X136234994Y-74312972D01*
X136244666Y-74236123D01*
X136116998Y-74077000D01*
X135127000Y-74077000D01*
X134873000Y-74077000D01*
X133883002Y-74077000D01*
X133755334Y-74236123D01*
X133342900Y-74236123D01*
X133342900Y-63842900D01*
X133983323Y-63842900D01*
X133960621Y-63870563D01*
G36*
X156820621Y-63870563D02*
G01*
X156789960Y-63927927D01*
X156771078Y-63990170D01*
X156764703Y-64054900D01*
X156764703Y-69134900D01*
X156771078Y-69199630D01*
X156789960Y-69261873D01*
X156820621Y-69319237D01*
X156861884Y-69369516D01*
X156912163Y-69410779D01*
X156969527Y-69441440D01*
X157031770Y-69460322D01*
X157096500Y-69466697D01*
X159636500Y-69466697D01*
X159701230Y-69460322D01*
X159763473Y-69441440D01*
X159820837Y-69410779D01*
X159871116Y-69369516D01*
X159912379Y-69319237D01*
X159943040Y-69261873D01*
X159961922Y-69199630D01*
X159968297Y-69134900D01*
X159968297Y-64054900D01*
X159961922Y-63990170D01*
X159943040Y-63927927D01*
X159912379Y-63870563D01*
X159889677Y-63842900D01*
X160657101Y-63842900D01*
X160657100Y-75983157D01*
X160655441Y-76000000D01*
X160662062Y-76067220D01*
X160681669Y-76131857D01*
X160713510Y-76191427D01*
X160756360Y-76243640D01*
X160808573Y-76286490D01*
X160868143Y-76318331D01*
X160932780Y-76337938D01*
X161000000Y-76344559D01*
X161016843Y-76342900D01*
X168709521Y-76342900D01*
X169595220Y-81657100D01*
X165499584Y-81657100D01*
X165563465Y-81622955D01*
X165625347Y-81572169D01*
X165638071Y-81556665D01*
X167122462Y-80072275D01*
X167166172Y-80095638D01*
X167388640Y-80163123D01*
X167562025Y-80180200D01*
X167677975Y-80180200D01*
X167851360Y-80163123D01*
X168073828Y-80095638D01*
X168278856Y-79986048D01*
X168458565Y-79838565D01*
X168606048Y-79658856D01*
X168715638Y-79453828D01*
X168783123Y-79231360D01*
X168805910Y-79000000D01*
X168783123Y-78768640D01*
X168715638Y-78546172D01*
X168606048Y-78341144D01*
X168458565Y-78161435D01*
X168278856Y-78013952D01*
X168073828Y-77904362D01*
X167851360Y-77836877D01*
X167677975Y-77819800D01*
X167562025Y-77819800D01*
X167388640Y-77836877D01*
X167166172Y-77904362D01*
X166961144Y-78013952D01*
X166781435Y-78161435D01*
X166633952Y-78341144D01*
X166524362Y-78546172D01*
X166507183Y-78602803D01*
X166424157Y-78368748D01*
X166275178Y-78118645D01*
X166080269Y-77902412D01*
X165846920Y-77728359D01*
X165584099Y-77603175D01*
X165436890Y-77558524D01*
X165207000Y-77679845D01*
X165207000Y-78873000D01*
X165227000Y-78873000D01*
X165227000Y-79127000D01*
X165207000Y-79127000D01*
X165207000Y-80320155D01*
X165436890Y-80441476D01*
X165584099Y-80396825D01*
X165706957Y-80338307D01*
X165168253Y-80877011D01*
X151976219Y-80877011D01*
X151976826Y-80875545D01*
X151999123Y-80763452D01*
X151999123Y-80649162D01*
X151976826Y-80537069D01*
X151933089Y-80431479D01*
X151902034Y-80385001D01*
X161541446Y-80385001D01*
X161561399Y-80386966D01*
X161581352Y-80385001D01*
X161581359Y-80385001D01*
X161641067Y-80379120D01*
X161717674Y-80355882D01*
X161788275Y-80318145D01*
X161850157Y-80267359D01*
X161862881Y-80251855D01*
X162042462Y-80072274D01*
X162086172Y-80095638D01*
X162308640Y-80163123D01*
X162482025Y-80180200D01*
X162597975Y-80180200D01*
X162771360Y-80163123D01*
X162993828Y-80095638D01*
X163198856Y-79986048D01*
X163378565Y-79838565D01*
X163526048Y-79658856D01*
X163635638Y-79453828D01*
X163652817Y-79397197D01*
X163735843Y-79631252D01*
X163884822Y-79881355D01*
X164079731Y-80097588D01*
X164313080Y-80271641D01*
X164575901Y-80396825D01*
X164723110Y-80441476D01*
X164953000Y-80320155D01*
X164953000Y-79127000D01*
X164933000Y-79127000D01*
X164933000Y-78873000D01*
X164953000Y-78873000D01*
X164953000Y-77679845D01*
X164723110Y-77558524D01*
X164575901Y-77603175D01*
X164313080Y-77728359D01*
X164079731Y-77902412D01*
X163884822Y-78118645D01*
X163735843Y-78368748D01*
X163652817Y-78602803D01*
X163635638Y-78546172D01*
X163526048Y-78341144D01*
X163378565Y-78161435D01*
X163198856Y-78013952D01*
X162993828Y-77904362D01*
X162771360Y-77836877D01*
X162597975Y-77819800D01*
X162482025Y-77819800D01*
X162308640Y-77836877D01*
X162086172Y-77904362D01*
X161881144Y-78013952D01*
X161701435Y-78161435D01*
X161553952Y-78341144D01*
X161444362Y-78546172D01*
X161376877Y-78768640D01*
X161354090Y-79000000D01*
X161376877Y-79231360D01*
X161444362Y-79453828D01*
X161467726Y-79497538D01*
X161393063Y-79572201D01*
X161281797Y-79572201D01*
X161281797Y-78050000D01*
X161275422Y-77985270D01*
X161256540Y-77923027D01*
X161225879Y-77865663D01*
X161184616Y-77815384D01*
X161134337Y-77774121D01*
X161076973Y-77743460D01*
X161014730Y-77724578D01*
X160950000Y-77718203D01*
X159250000Y-77718203D01*
X159185270Y-77724578D01*
X159123027Y-77743460D01*
X159065663Y-77774121D01*
X159015384Y-77815384D01*
X158974121Y-77865663D01*
X158943460Y-77923027D01*
X158924578Y-77985270D01*
X158918203Y-78050000D01*
X158918203Y-79572201D01*
X150041352Y-79572201D01*
X150021399Y-79570236D01*
X150001446Y-79572201D01*
X150001439Y-79572201D01*
X149949003Y-79577366D01*
X149941730Y-79578082D01*
X149865124Y-79601320D01*
X149794523Y-79639057D01*
X149732641Y-79689843D01*
X149719917Y-79705347D01*
X149653063Y-79772201D01*
X148348326Y-79772201D01*
X148350671Y-79769856D01*
X148414166Y-79674828D01*
X148457903Y-79569238D01*
X148480200Y-79457145D01*
X148480200Y-79394536D01*
X149273261Y-78601476D01*
X149288758Y-78588758D01*
X149301477Y-78573260D01*
X149301482Y-78573255D01*
X149332979Y-78534875D01*
X149339544Y-78526876D01*
X149377281Y-78456275D01*
X149400519Y-78379668D01*
X149406400Y-78319960D01*
X149406400Y-78319953D01*
X149408365Y-78300000D01*
X149406400Y-78280047D01*
X149406400Y-76414127D01*
X149450671Y-76369856D01*
X149471811Y-76338217D01*
X150193601Y-77060007D01*
X150193600Y-77685873D01*
X150149329Y-77730144D01*
X150085834Y-77825172D01*
X150042097Y-77930762D01*
X150019800Y-78042855D01*
X150019800Y-78157145D01*
X150042097Y-78269238D01*
X150085834Y-78374828D01*
X150149329Y-78469856D01*
X150230144Y-78550671D01*
X150325172Y-78614166D01*
X150430762Y-78657903D01*
X150542855Y-78680200D01*
X150657145Y-78680200D01*
X150769238Y-78657903D01*
X150874828Y-78614166D01*
X150969856Y-78550671D01*
X151050671Y-78469856D01*
X151114166Y-78374828D01*
X151157903Y-78269238D01*
X151180200Y-78157145D01*
X151180200Y-78042855D01*
X151157903Y-77930762D01*
X151114166Y-77825172D01*
X151050671Y-77730144D01*
X151006400Y-77685873D01*
X151006400Y-76911622D01*
X151008365Y-76891669D01*
X151006400Y-76871716D01*
X151006400Y-76871710D01*
X151000519Y-76812002D01*
X150977281Y-76735395D01*
X150939544Y-76664794D01*
X150888758Y-76602912D01*
X150873254Y-76590188D01*
X149709305Y-75426239D01*
X151303903Y-74765736D01*
X152814035Y-73756697D01*
X153534609Y-73036123D01*
X157755334Y-73036123D01*
X157765006Y-73112972D01*
X157854745Y-73298160D01*
X157978888Y-73462283D01*
X158081598Y-73553621D01*
X158058684Y-73596490D01*
X158028421Y-73696252D01*
X158018203Y-73800000D01*
X158018203Y-74200000D01*
X158028421Y-74303748D01*
X158058684Y-74403510D01*
X158107827Y-74495451D01*
X158173963Y-74576037D01*
X158254549Y-74642173D01*
X158346490Y-74691316D01*
X158446252Y-74721579D01*
X158550000Y-74731797D01*
X159450000Y-74731797D01*
X159553748Y-74721579D01*
X159653510Y-74691316D01*
X159745451Y-74642173D01*
X159826037Y-74576037D01*
X159892173Y-74495451D01*
X159941316Y-74403510D01*
X159971579Y-74303748D01*
X159981797Y-74200000D01*
X159981797Y-73800000D01*
X159971579Y-73696252D01*
X159941316Y-73596490D01*
X159918402Y-73553621D01*
X160021112Y-73462283D01*
X160145255Y-73298160D01*
X160234994Y-73112972D01*
X160244666Y-73036123D01*
X160116998Y-72877000D01*
X159127000Y-72877000D01*
X159127000Y-72897000D01*
X158873000Y-72897000D01*
X158873000Y-72877000D01*
X157883002Y-72877000D01*
X157755334Y-73036123D01*
X153534609Y-73036123D01*
X154098297Y-72472435D01*
X154104015Y-72463877D01*
X157755334Y-72463877D01*
X157883002Y-72623000D01*
X158873000Y-72623000D01*
X158873000Y-71866238D01*
X159127000Y-71866238D01*
X159127000Y-72623000D01*
X160116998Y-72623000D01*
X160244666Y-72463877D01*
X160234994Y-72387028D01*
X160145255Y-72201840D01*
X160021112Y-72037717D01*
X159867336Y-71900967D01*
X159689836Y-71796845D01*
X159495433Y-71729352D01*
X159291599Y-71701082D01*
X159127000Y-71866238D01*
X158873000Y-71866238D01*
X158708401Y-71701082D01*
X158504567Y-71729352D01*
X158310164Y-71796845D01*
X158132664Y-71900967D01*
X157978888Y-72037717D01*
X157854745Y-72201840D01*
X157765006Y-72387028D01*
X157755334Y-72463877D01*
X154104015Y-72463877D01*
X155107336Y-70962303D01*
X155802373Y-69284333D01*
X156156700Y-67503010D01*
X156156700Y-65686790D01*
X155802373Y-63905467D01*
X155776457Y-63842900D01*
X156843323Y-63842900D01*
X156820621Y-63870563D01*
X156820621Y-63870563D01*
G37*
X156820621Y-63870563D02*
X156789960Y-63927927D01*
X156771078Y-63990170D01*
X156764703Y-64054900D01*
X156764703Y-69134900D01*
X156771078Y-69199630D01*
X156789960Y-69261873D01*
X156820621Y-69319237D01*
X156861884Y-69369516D01*
X156912163Y-69410779D01*
X156969527Y-69441440D01*
X157031770Y-69460322D01*
X157096500Y-69466697D01*
X159636500Y-69466697D01*
X159701230Y-69460322D01*
X159763473Y-69441440D01*
X159820837Y-69410779D01*
X159871116Y-69369516D01*
X159912379Y-69319237D01*
X159943040Y-69261873D01*
X159961922Y-69199630D01*
X159968297Y-69134900D01*
X159968297Y-64054900D01*
X159961922Y-63990170D01*
X159943040Y-63927927D01*
X159912379Y-63870563D01*
X159889677Y-63842900D01*
X160657101Y-63842900D01*
X160657100Y-75983157D01*
X160655441Y-76000000D01*
X160662062Y-76067220D01*
X160681669Y-76131857D01*
X160713510Y-76191427D01*
X160756360Y-76243640D01*
X160808573Y-76286490D01*
X160868143Y-76318331D01*
X160932780Y-76337938D01*
X161000000Y-76344559D01*
X161016843Y-76342900D01*
X168709521Y-76342900D01*
X169595220Y-81657100D01*
X165499584Y-81657100D01*
X165563465Y-81622955D01*
X165625347Y-81572169D01*
X165638071Y-81556665D01*
X167122462Y-80072275D01*
X167166172Y-80095638D01*
X167388640Y-80163123D01*
X167562025Y-80180200D01*
X167677975Y-80180200D01*
X167851360Y-80163123D01*
X168073828Y-80095638D01*
X168278856Y-79986048D01*
X168458565Y-79838565D01*
X168606048Y-79658856D01*
X168715638Y-79453828D01*
X168783123Y-79231360D01*
X168805910Y-79000000D01*
X168783123Y-78768640D01*
X168715638Y-78546172D01*
X168606048Y-78341144D01*
X168458565Y-78161435D01*
X168278856Y-78013952D01*
X168073828Y-77904362D01*
X167851360Y-77836877D01*
X167677975Y-77819800D01*
X167562025Y-77819800D01*
X167388640Y-77836877D01*
X167166172Y-77904362D01*
X166961144Y-78013952D01*
X166781435Y-78161435D01*
X166633952Y-78341144D01*
X166524362Y-78546172D01*
X166507183Y-78602803D01*
X166424157Y-78368748D01*
X166275178Y-78118645D01*
X166080269Y-77902412D01*
X165846920Y-77728359D01*
X165584099Y-77603175D01*
X165436890Y-77558524D01*
X165207000Y-77679845D01*
X165207000Y-78873000D01*
X165227000Y-78873000D01*
X165227000Y-79127000D01*
X165207000Y-79127000D01*
X165207000Y-80320155D01*
X165436890Y-80441476D01*
X165584099Y-80396825D01*
X165706957Y-80338307D01*
X165168253Y-80877011D01*
X151976219Y-80877011D01*
X151976826Y-80875545D01*
X151999123Y-80763452D01*
X151999123Y-80649162D01*
X151976826Y-80537069D01*
X151933089Y-80431479D01*
X151902034Y-80385001D01*
X161541446Y-80385001D01*
X161561399Y-80386966D01*
X161581352Y-80385001D01*
X161581359Y-80385001D01*
X161641067Y-80379120D01*
X161717674Y-80355882D01*
X161788275Y-80318145D01*
X161850157Y-80267359D01*
X161862881Y-80251855D01*
X162042462Y-80072274D01*
X162086172Y-80095638D01*
X162308640Y-80163123D01*
X162482025Y-80180200D01*
X162597975Y-80180200D01*
X162771360Y-80163123D01*
X162993828Y-80095638D01*
X163198856Y-79986048D01*
X163378565Y-79838565D01*
X163526048Y-79658856D01*
X163635638Y-79453828D01*
X163652817Y-79397197D01*
X163735843Y-79631252D01*
X163884822Y-79881355D01*
X164079731Y-80097588D01*
X164313080Y-80271641D01*
X164575901Y-80396825D01*
X164723110Y-80441476D01*
X164953000Y-80320155D01*
X164953000Y-79127000D01*
X164933000Y-79127000D01*
X164933000Y-78873000D01*
X164953000Y-78873000D01*
X164953000Y-77679845D01*
X164723110Y-77558524D01*
X164575901Y-77603175D01*
X164313080Y-77728359D01*
X164079731Y-77902412D01*
X163884822Y-78118645D01*
X163735843Y-78368748D01*
X163652817Y-78602803D01*
X163635638Y-78546172D01*
X163526048Y-78341144D01*
X163378565Y-78161435D01*
X163198856Y-78013952D01*
X162993828Y-77904362D01*
X162771360Y-77836877D01*
X162597975Y-77819800D01*
X162482025Y-77819800D01*
X162308640Y-77836877D01*
X162086172Y-77904362D01*
X161881144Y-78013952D01*
X161701435Y-78161435D01*
X161553952Y-78341144D01*
X161444362Y-78546172D01*
X161376877Y-78768640D01*
X161354090Y-79000000D01*
X161376877Y-79231360D01*
X161444362Y-79453828D01*
X161467726Y-79497538D01*
X161393063Y-79572201D01*
X161281797Y-79572201D01*
X161281797Y-78050000D01*
X161275422Y-77985270D01*
X161256540Y-77923027D01*
X161225879Y-77865663D01*
X161184616Y-77815384D01*
X161134337Y-77774121D01*
X161076973Y-77743460D01*
X161014730Y-77724578D01*
X160950000Y-77718203D01*
X159250000Y-77718203D01*
X159185270Y-77724578D01*
X159123027Y-77743460D01*
X159065663Y-77774121D01*
X159015384Y-77815384D01*
X158974121Y-77865663D01*
X158943460Y-77923027D01*
X158924578Y-77985270D01*
X158918203Y-78050000D01*
X158918203Y-79572201D01*
X150041352Y-79572201D01*
X150021399Y-79570236D01*
X150001446Y-79572201D01*
X150001439Y-79572201D01*
X149949003Y-79577366D01*
X149941730Y-79578082D01*
X149865124Y-79601320D01*
X149794523Y-79639057D01*
X149732641Y-79689843D01*
X149719917Y-79705347D01*
X149653063Y-79772201D01*
X148348326Y-79772201D01*
X148350671Y-79769856D01*
X148414166Y-79674828D01*
X148457903Y-79569238D01*
X148480200Y-79457145D01*
X148480200Y-79394536D01*
X149273261Y-78601476D01*
X149288758Y-78588758D01*
X149301477Y-78573260D01*
X149301482Y-78573255D01*
X149332979Y-78534875D01*
X149339544Y-78526876D01*
X149377281Y-78456275D01*
X149400519Y-78379668D01*
X149406400Y-78319960D01*
X149406400Y-78319953D01*
X149408365Y-78300000D01*
X149406400Y-78280047D01*
X149406400Y-76414127D01*
X149450671Y-76369856D01*
X149471811Y-76338217D01*
X150193601Y-77060007D01*
X150193600Y-77685873D01*
X150149329Y-77730144D01*
X150085834Y-77825172D01*
X150042097Y-77930762D01*
X150019800Y-78042855D01*
X150019800Y-78157145D01*
X150042097Y-78269238D01*
X150085834Y-78374828D01*
X150149329Y-78469856D01*
X150230144Y-78550671D01*
X150325172Y-78614166D01*
X150430762Y-78657903D01*
X150542855Y-78680200D01*
X150657145Y-78680200D01*
X150769238Y-78657903D01*
X150874828Y-78614166D01*
X150969856Y-78550671D01*
X151050671Y-78469856D01*
X151114166Y-78374828D01*
X151157903Y-78269238D01*
X151180200Y-78157145D01*
X151180200Y-78042855D01*
X151157903Y-77930762D01*
X151114166Y-77825172D01*
X151050671Y-77730144D01*
X151006400Y-77685873D01*
X151006400Y-76911622D01*
X151008365Y-76891669D01*
X151006400Y-76871716D01*
X151006400Y-76871710D01*
X151000519Y-76812002D01*
X150977281Y-76735395D01*
X150939544Y-76664794D01*
X150888758Y-76602912D01*
X150873254Y-76590188D01*
X149709305Y-75426239D01*
X151303903Y-74765736D01*
X152814035Y-73756697D01*
X153534609Y-73036123D01*
X157755334Y-73036123D01*
X157765006Y-73112972D01*
X157854745Y-73298160D01*
X157978888Y-73462283D01*
X158081598Y-73553621D01*
X158058684Y-73596490D01*
X158028421Y-73696252D01*
X158018203Y-73800000D01*
X158018203Y-74200000D01*
X158028421Y-74303748D01*
X158058684Y-74403510D01*
X158107827Y-74495451D01*
X158173963Y-74576037D01*
X158254549Y-74642173D01*
X158346490Y-74691316D01*
X158446252Y-74721579D01*
X158550000Y-74731797D01*
X159450000Y-74731797D01*
X159553748Y-74721579D01*
X159653510Y-74691316D01*
X159745451Y-74642173D01*
X159826037Y-74576037D01*
X159892173Y-74495451D01*
X159941316Y-74403510D01*
X159971579Y-74303748D01*
X159981797Y-74200000D01*
X159981797Y-73800000D01*
X159971579Y-73696252D01*
X159941316Y-73596490D01*
X159918402Y-73553621D01*
X160021112Y-73462283D01*
X160145255Y-73298160D01*
X160234994Y-73112972D01*
X160244666Y-73036123D01*
X160116998Y-72877000D01*
X159127000Y-72877000D01*
X159127000Y-72897000D01*
X158873000Y-72897000D01*
X158873000Y-72877000D01*
X157883002Y-72877000D01*
X157755334Y-73036123D01*
X153534609Y-73036123D01*
X154098297Y-72472435D01*
X154104015Y-72463877D01*
X157755334Y-72463877D01*
X157883002Y-72623000D01*
X158873000Y-72623000D01*
X158873000Y-71866238D01*
X159127000Y-71866238D01*
X159127000Y-72623000D01*
X160116998Y-72623000D01*
X160244666Y-72463877D01*
X160234994Y-72387028D01*
X160145255Y-72201840D01*
X160021112Y-72037717D01*
X159867336Y-71900967D01*
X159689836Y-71796845D01*
X159495433Y-71729352D01*
X159291599Y-71701082D01*
X159127000Y-71866238D01*
X158873000Y-71866238D01*
X158708401Y-71701082D01*
X158504567Y-71729352D01*
X158310164Y-71796845D01*
X158132664Y-71900967D01*
X157978888Y-72037717D01*
X157854745Y-72201840D01*
X157765006Y-72387028D01*
X157755334Y-72463877D01*
X154104015Y-72463877D01*
X155107336Y-70962303D01*
X155802373Y-69284333D01*
X156156700Y-67503010D01*
X156156700Y-65686790D01*
X155802373Y-63905467D01*
X155776457Y-63842900D01*
X156843323Y-63842900D01*
X156820621Y-63870563D01*
G36*
X141428252Y-75994659D02*
G01*
X141440971Y-76010157D01*
X141456469Y-76022876D01*
X141456474Y-76022881D01*
X141477039Y-76039758D01*
X141502853Y-76060943D01*
X141573454Y-76098680D01*
X141650060Y-76121918D01*
X141657333Y-76122634D01*
X141709769Y-76127799D01*
X141709776Y-76127799D01*
X141729729Y-76129764D01*
X141749682Y-76127799D01*
X143679690Y-76127799D01*
X143672578Y-76200000D01*
X143674545Y-76219970D01*
X143674544Y-76583802D01*
X140785760Y-79472586D01*
X140770262Y-79485305D01*
X140757541Y-79500805D01*
X140757537Y-79500809D01*
X140749610Y-79510469D01*
X140733501Y-79530096D01*
X140689163Y-79559722D01*
X140608348Y-79640537D01*
X140544853Y-79735565D01*
X140501116Y-79841155D01*
X140478819Y-79953248D01*
X140478819Y-80067538D01*
X140501116Y-80179631D01*
X140544853Y-80285221D01*
X140608348Y-80380249D01*
X140689163Y-80461064D01*
X140784191Y-80524559D01*
X140889781Y-80568296D01*
X140973402Y-80584929D01*
X140987354Y-80655072D01*
X141031091Y-80760662D01*
X141094586Y-80855690D01*
X141115907Y-80877011D01*
X140043516Y-80877011D01*
X140050671Y-80869856D01*
X140114166Y-80774828D01*
X140157903Y-80669238D01*
X140180200Y-80557145D01*
X140180200Y-80442855D01*
X140157903Y-80330762D01*
X140114166Y-80225172D01*
X140050671Y-80130144D01*
X140006400Y-80085873D01*
X140006400Y-74714127D01*
X140050671Y-74669856D01*
X140071811Y-74638217D01*
X141428252Y-75994659D01*
X141428252Y-75994659D01*
G37*
X141428252Y-75994659D02*
X141440971Y-76010157D01*
X141456469Y-76022876D01*
X141456474Y-76022881D01*
X141477039Y-76039758D01*
X141502853Y-76060943D01*
X141573454Y-76098680D01*
X141650060Y-76121918D01*
X141657333Y-76122634D01*
X141709769Y-76127799D01*
X141709776Y-76127799D01*
X141729729Y-76129764D01*
X141749682Y-76127799D01*
X143679690Y-76127799D01*
X143672578Y-76200000D01*
X143674545Y-76219970D01*
X143674544Y-76583802D01*
X140785760Y-79472586D01*
X140770262Y-79485305D01*
X140757541Y-79500805D01*
X140757537Y-79500809D01*
X140749610Y-79510469D01*
X140733501Y-79530096D01*
X140689163Y-79559722D01*
X140608348Y-79640537D01*
X140544853Y-79735565D01*
X140501116Y-79841155D01*
X140478819Y-79953248D01*
X140478819Y-80067538D01*
X140501116Y-80179631D01*
X140544853Y-80285221D01*
X140608348Y-80380249D01*
X140689163Y-80461064D01*
X140784191Y-80524559D01*
X140889781Y-80568296D01*
X140973402Y-80584929D01*
X140987354Y-80655072D01*
X141031091Y-80760662D01*
X141094586Y-80855690D01*
X141115907Y-80877011D01*
X140043516Y-80877011D01*
X140050671Y-80869856D01*
X140114166Y-80774828D01*
X140157903Y-80669238D01*
X140180200Y-80557145D01*
X140180200Y-80442855D01*
X140157903Y-80330762D01*
X140114166Y-80225172D01*
X140050671Y-80130144D01*
X140006400Y-80085873D01*
X140006400Y-74714127D01*
X140050671Y-74669856D01*
X140071811Y-74638217D01*
X141428252Y-75994659D01*
M02*
