M48
; DRILL file {KiCad (5.1.0)-1} date 3/26/2019 8:33:04 AM
; FORMAT={3:3/ absolute / metric / suppress leading zeros}
; #@! TF.CreationDate,2019-03-26T08:33:04+01:00
; #@! TF.GenerationSoftware,Kicad,Pcbnew,(5.1.0)-1
FMAT,2
METRIC,TZ
T1C0.300
T2C0.500
T3C1.000
T4C0.500
T5C0.991
T6C1.000
%
G90
G05
T1
X133200Y-80600
X135500Y-66600
X135500Y-98500
X136500Y-75400
X137000Y-79700
X137529Y-76250
X137800Y-74500
X138079Y-75400
X138173Y-77123
X138500Y-73600
X139400Y-82100
X139600Y-74300
X139600Y-80500
X140143Y-84657
X141059Y-80010
X141545Y-80486
X141691Y-79850
X141900Y-76700
X142300Y-89800
X143600Y-89000
X144900Y-99300
X145900Y-83300
X146557Y-77543
X146600Y-76200
X147100Y-76700
X147600Y-76000
X147900Y-79400
X148000Y-78600
X148900Y-79700
X149000Y-76000
X150100Y-75400
X150600Y-78100
X150800Y-80500
X151221Y-75691
X151419Y-80706
X158300Y-98500
X158400Y-66246
T2
X135000Y-72700
X135000Y-73950
X158900Y-91050
X158900Y-92300
X159000Y-72750
X159000Y-74000
X135100Y-91000
X135100Y-92250
T3
X126380Y-86000
X128920Y-86000
X131460Y-86000
X134000Y-86000
X160100Y-78900
X162540Y-79000
X165080Y-79000
X167620Y-79000
X160000Y-86000
X162540Y-86000
X165080Y-86000
X167620Y-86000
X126380Y-79000
X128920Y-79000
X131460Y-79000
X134000Y-79000
T4
X153500Y-86500
X154250Y-86500
X155000Y-86500
X139000Y-86500
X139750Y-86500
X140500Y-86500
T5
X139319Y-83439
X144399Y-82423
X144399Y-84455
T6
X144673Y-68030
X149073Y-68030
T0
M30
