M48
; DRILL file {KiCad (5.1.0)-1} date 21/03/2019 10:28:03 PM
; FORMAT={3:3/ absolute / metric / suppress leading zeros}
; #@! TF.CreationDate,2019-03-21T22:28:03+11:00
; #@! TF.GenerationSoftware,Kicad,Pcbnew,(5.1.0)-1
FMAT,2
METRIC,TZ
T1C0.300
T2C0.650
T3C0.500
T4C0.991
T5C1.000
%
G90
G05
T1
X119634Y-81534
X120650Y-80056
X121602Y-72225
X121920Y-96774
X122174Y-84328
X122796Y-81759
X122913Y-80518
X123952Y-92456
X123952Y-97790
X124206Y-81280
X124206Y-82296
X124297Y-79990
X124478Y-80617
X125362Y-79539
X127254Y-82550
X128749Y-85676
X129032Y-102362
X129032Y-105664
X131572Y-83566
X131572Y-84328
X131645Y-82127
X132704Y-82327
X133096Y-84097
X133096Y-85067
X133616Y-82127
X133858Y-86374
X135172Y-84214
X137784Y-83595
X137922Y-102616
X137922Y-105664
X138938Y-85979
X139700Y-83312
X140155Y-79047
X140208Y-86868
X140716Y-81303
X140970Y-79502
X141732Y-78740
X142011Y-77216
X142621Y-78352
X143256Y-76200
X143975Y-78515
X144463Y-72225
X145288Y-81280
X146558Y-73914
X146601Y-80489
X146812Y-97536
X149606Y-82550
X150368Y-82550
X151130Y-82550
X153416Y-95758
T2
X144272Y-84582
X144272Y-85852
X146304Y-101092
X147202Y-100194
X148100Y-99296
X148998Y-98398
X143510Y-91948
X143510Y-93218
X145542Y-76454
X146270Y-77494
X146999Y-78535
X147727Y-79575
X116078Y-83566
X116078Y-84836
X116078Y-92583
X116078Y-93853
X117602Y-79502
X118500Y-78604
X119398Y-77706
X120296Y-76808
X117415Y-98503
X118144Y-99544
X118872Y-100584
X119600Y-101624
T3
X124345Y-87896
X124345Y-89396
X125095Y-87896
X125095Y-89396
X125845Y-87896
X125845Y-89396
X140359Y-87896
X140359Y-89396
X141109Y-87896
X141109Y-89396
X141859Y-87896
X141859Y-89396
T4
X136398Y-85344
X141478Y-84328
X141478Y-86360
T5
X130769Y-73660
X135169Y-73660
T0
M30
