G04 #@! TF.GenerationSoftware,KiCad,Pcbnew,(5.1.0)-1*
G04 #@! TF.CreationDate,2019-03-21T22:27:28+11:00*
G04 #@! TF.ProjectId,top-hemi,746f702d-6865-46d6-992e-6b696361645f,rev?*
G04 #@! TF.SameCoordinates,Original*
G04 #@! TF.FileFunction,Soldermask,Top*
G04 #@! TF.FilePolarity,Negative*
%FSLAX46Y46*%
G04 Gerber Fmt 4.6, Leading zero omitted, Abs format (unit mm)*
G04 Created by KiCad (PCBNEW (5.1.0)-1) date 2019-03-21 22:27:28*
%MOMM*%
%LPD*%
G04 APERTURE LIST*
%ADD10C,0.100000*%
G04 APERTURE END LIST*
D10*
G36*
X118182510Y-98638666D02*
G01*
X117995626Y-98769524D01*
X117977027Y-98785479D01*
X117961899Y-98804755D01*
X117950822Y-98826613D01*
X117944222Y-98850211D01*
X117942353Y-98874644D01*
X117945286Y-98898972D01*
X117952909Y-98922260D01*
X117964929Y-98943613D01*
X117980884Y-98962212D01*
X118000160Y-98977340D01*
X118022018Y-98988417D01*
X118045616Y-98995017D01*
X118079568Y-98996314D01*
X118116491Y-98992677D01*
X118170625Y-98992677D01*
X118251573Y-99000650D01*
X118355437Y-99032156D01*
X118382613Y-99046682D01*
X118451158Y-99083320D01*
X118535059Y-99152176D01*
X118603915Y-99236077D01*
X118640553Y-99304622D01*
X118655079Y-99331798D01*
X118686585Y-99435662D01*
X118697224Y-99543677D01*
X118686585Y-99651692D01*
X118655079Y-99755556D01*
X118654678Y-99756306D01*
X118603121Y-99852762D01*
X118591370Y-99870350D01*
X118581993Y-99892989D01*
X118577214Y-99917023D01*
X118577214Y-99941527D01*
X118581996Y-99965560D01*
X118591374Y-99988198D01*
X118604988Y-100008572D01*
X118622315Y-100025899D01*
X118642690Y-100039512D01*
X118665329Y-100048889D01*
X118689363Y-100053668D01*
X118713867Y-100053668D01*
X118737892Y-100048888D01*
X118754043Y-100043989D01*
X118763984Y-100040973D01*
X118778818Y-100039512D01*
X118844933Y-100033000D01*
X118899067Y-100033000D01*
X118980015Y-100040973D01*
X119083879Y-100072479D01*
X119110492Y-100086704D01*
X119179600Y-100123643D01*
X119263501Y-100192499D01*
X119332357Y-100276400D01*
X119368995Y-100344945D01*
X119383521Y-100372121D01*
X119415027Y-100475985D01*
X119425666Y-100584000D01*
X119415027Y-100692015D01*
X119383521Y-100795879D01*
X119383519Y-100795882D01*
X119331563Y-100893085D01*
X119319812Y-100910673D01*
X119310435Y-100933312D01*
X119305656Y-100957346D01*
X119305656Y-100981850D01*
X119310438Y-101005883D01*
X119319816Y-101028521D01*
X119333430Y-101048895D01*
X119350757Y-101066222D01*
X119371132Y-101079835D01*
X119393771Y-101089212D01*
X119417805Y-101093991D01*
X119442309Y-101093991D01*
X119466334Y-101089211D01*
X119482485Y-101084312D01*
X119492426Y-101081296D01*
X119507260Y-101079835D01*
X119573375Y-101073323D01*
X119627509Y-101073323D01*
X119708457Y-101081296D01*
X119812321Y-101112802D01*
X119838934Y-101127027D01*
X119908042Y-101163966D01*
X119991943Y-101232822D01*
X120060799Y-101316723D01*
X120097437Y-101385268D01*
X120111963Y-101412444D01*
X120143469Y-101516308D01*
X120154108Y-101624323D01*
X120143469Y-101732338D01*
X120111963Y-101836202D01*
X120111961Y-101836205D01*
X120060799Y-101931923D01*
X119991943Y-102015824D01*
X119908042Y-102084680D01*
X119839497Y-102121318D01*
X119812321Y-102135844D01*
X119708457Y-102167350D01*
X119627509Y-102175323D01*
X119573375Y-102175323D01*
X119492427Y-102167350D01*
X119388563Y-102135844D01*
X119361387Y-102121318D01*
X119292842Y-102084680D01*
X119208941Y-102015824D01*
X119140085Y-101931923D01*
X119088923Y-101836205D01*
X119088921Y-101836202D01*
X119057415Y-101732338D01*
X119046776Y-101624323D01*
X119057415Y-101516308D01*
X119088921Y-101412444D01*
X119106650Y-101379276D01*
X119140879Y-101315238D01*
X119152630Y-101297650D01*
X119162007Y-101275011D01*
X119166786Y-101250977D01*
X119166786Y-101226473D01*
X119162004Y-101202440D01*
X119152626Y-101179802D01*
X119139012Y-101159428D01*
X119121685Y-101142101D01*
X119101310Y-101128488D01*
X119078671Y-101119111D01*
X119054637Y-101114332D01*
X119030133Y-101114332D01*
X119006108Y-101119112D01*
X118989957Y-101124011D01*
X118980016Y-101127027D01*
X118968451Y-101128166D01*
X118899067Y-101135000D01*
X118844933Y-101135000D01*
X118763985Y-101127027D01*
X118660121Y-101095521D01*
X118618592Y-101073323D01*
X118564400Y-101044357D01*
X118480499Y-100975501D01*
X118411643Y-100891600D01*
X118360481Y-100795882D01*
X118360479Y-100795879D01*
X118328973Y-100692015D01*
X118318334Y-100584000D01*
X118328973Y-100475985D01*
X118360479Y-100372121D01*
X118397967Y-100301987D01*
X118412437Y-100274915D01*
X118424188Y-100257327D01*
X118433565Y-100234688D01*
X118438344Y-100210654D01*
X118438344Y-100186150D01*
X118433562Y-100162117D01*
X118424184Y-100139479D01*
X118410570Y-100119105D01*
X118393243Y-100101778D01*
X118372868Y-100088165D01*
X118350229Y-100078788D01*
X118326195Y-100074009D01*
X118301691Y-100074009D01*
X118277666Y-100078789D01*
X118261515Y-100083688D01*
X118251574Y-100086704D01*
X118240009Y-100087843D01*
X118170625Y-100094677D01*
X118116491Y-100094677D01*
X118035543Y-100086704D01*
X117931679Y-100055198D01*
X117890150Y-100033000D01*
X117835958Y-100004034D01*
X117752057Y-99935178D01*
X117683201Y-99851277D01*
X117632438Y-99756306D01*
X117632037Y-99755556D01*
X117600531Y-99651692D01*
X117589892Y-99543677D01*
X117600531Y-99435662D01*
X117632037Y-99331798D01*
X117648251Y-99301465D01*
X117657627Y-99278830D01*
X117662407Y-99254797D01*
X117662407Y-99230293D01*
X117657627Y-99206260D01*
X117648249Y-99183621D01*
X117634636Y-99163247D01*
X117617309Y-99145920D01*
X117596934Y-99132306D01*
X117574295Y-99122928D01*
X117550262Y-99118148D01*
X117525758Y-99118148D01*
X117501725Y-99122928D01*
X117479086Y-99132306D01*
X117466314Y-99140152D01*
X117279804Y-99270748D01*
X116647722Y-98368042D01*
X117550428Y-97735960D01*
X118182510Y-98638666D01*
X118182510Y-98638666D01*
G37*
G36*
X149106092Y-97854896D02*
G01*
X149209956Y-97886402D01*
X149237132Y-97900928D01*
X149305677Y-97937566D01*
X149389578Y-98006422D01*
X149458434Y-98090323D01*
X149495072Y-98158868D01*
X149509598Y-98186044D01*
X149541104Y-98289908D01*
X149551743Y-98397923D01*
X149541104Y-98505938D01*
X149509598Y-98609802D01*
X149509597Y-98609803D01*
X149509596Y-98609805D01*
X149458434Y-98705523D01*
X149389578Y-98789424D01*
X149305677Y-98858280D01*
X149239238Y-98893792D01*
X149209956Y-98909444D01*
X149106092Y-98940950D01*
X149025144Y-98948923D01*
X148971010Y-98948923D01*
X148890062Y-98940950D01*
X148786198Y-98909444D01*
X148774454Y-98903166D01*
X148751821Y-98893792D01*
X148727788Y-98889012D01*
X148703284Y-98889012D01*
X148679251Y-98893793D01*
X148656612Y-98903170D01*
X148636238Y-98916784D01*
X148618911Y-98934111D01*
X148605297Y-98954486D01*
X148595920Y-98977125D01*
X148591140Y-99001158D01*
X148591140Y-99025662D01*
X148595921Y-99049695D01*
X148605294Y-99072326D01*
X148611572Y-99084070D01*
X148643078Y-99187934D01*
X148653717Y-99295949D01*
X148643078Y-99403964D01*
X148611572Y-99507828D01*
X148611571Y-99507829D01*
X148611570Y-99507831D01*
X148560408Y-99603549D01*
X148491552Y-99687450D01*
X148407651Y-99756306D01*
X148339106Y-99792944D01*
X148311930Y-99807470D01*
X148208066Y-99838976D01*
X148127118Y-99846949D01*
X148072984Y-99846949D01*
X147992036Y-99838976D01*
X147888172Y-99807470D01*
X147876429Y-99801193D01*
X147853797Y-99791819D01*
X147829764Y-99787039D01*
X147805260Y-99787039D01*
X147781227Y-99791820D01*
X147758588Y-99801197D01*
X147738214Y-99814811D01*
X147720887Y-99832138D01*
X147707273Y-99852513D01*
X147697896Y-99875152D01*
X147693116Y-99899185D01*
X147693116Y-99923689D01*
X147697897Y-99947722D01*
X147707270Y-99970352D01*
X147713547Y-99982095D01*
X147745053Y-100085959D01*
X147755692Y-100193974D01*
X147745053Y-100301989D01*
X147713547Y-100405853D01*
X147699021Y-100433029D01*
X147662383Y-100501574D01*
X147593527Y-100585475D01*
X147509626Y-100654331D01*
X147441081Y-100690969D01*
X147413905Y-100705495D01*
X147310041Y-100737001D01*
X147229093Y-100744974D01*
X147174959Y-100744974D01*
X147094011Y-100737001D01*
X147046488Y-100722585D01*
X147022463Y-100717807D01*
X146997958Y-100717807D01*
X146973925Y-100722588D01*
X146951286Y-100731965D01*
X146930912Y-100745579D01*
X146913585Y-100762906D01*
X146899972Y-100783280D01*
X146890594Y-100805919D01*
X146885814Y-100829952D01*
X146885814Y-100854457D01*
X146890595Y-100878490D01*
X146899972Y-100901129D01*
X146921820Y-100930588D01*
X147083232Y-101092000D01*
X146304000Y-101871232D01*
X145524768Y-101092000D01*
X146304000Y-100312768D01*
X146465414Y-100474182D01*
X146484350Y-100489722D01*
X146505961Y-100501273D01*
X146529410Y-100508386D01*
X146553796Y-100510788D01*
X146578182Y-100508386D01*
X146601631Y-100501273D01*
X146623242Y-100489722D01*
X146642184Y-100474177D01*
X146657729Y-100455235D01*
X146669280Y-100433624D01*
X146676393Y-100410175D01*
X146678795Y-100385789D01*
X146673414Y-100349509D01*
X146658999Y-100301989D01*
X146648360Y-100193974D01*
X146658999Y-100085959D01*
X146690505Y-99982095D01*
X146725287Y-99917023D01*
X146741669Y-99886374D01*
X146810525Y-99802473D01*
X146894426Y-99733617D01*
X146962971Y-99696979D01*
X146990147Y-99682453D01*
X147094011Y-99650947D01*
X147174959Y-99642974D01*
X147229093Y-99642974D01*
X147310041Y-99650947D01*
X147413905Y-99682453D01*
X147425648Y-99688730D01*
X147448280Y-99698104D01*
X147472313Y-99702884D01*
X147496817Y-99702884D01*
X147520850Y-99698103D01*
X147543489Y-99688726D01*
X147563863Y-99675112D01*
X147581190Y-99657785D01*
X147594804Y-99637410D01*
X147604181Y-99614771D01*
X147608961Y-99590738D01*
X147608961Y-99566234D01*
X147604180Y-99542201D01*
X147594807Y-99519571D01*
X147588530Y-99507828D01*
X147557024Y-99403964D01*
X147546385Y-99295949D01*
X147557024Y-99187934D01*
X147588530Y-99084070D01*
X147619750Y-99025662D01*
X147639694Y-98988349D01*
X147708550Y-98904448D01*
X147792451Y-98835592D01*
X147876433Y-98790703D01*
X147888172Y-98784428D01*
X147992036Y-98752922D01*
X148072984Y-98744949D01*
X148127118Y-98744949D01*
X148208066Y-98752922D01*
X148311930Y-98784428D01*
X148323674Y-98790706D01*
X148346307Y-98800080D01*
X148370340Y-98804860D01*
X148394844Y-98804860D01*
X148418877Y-98800079D01*
X148441516Y-98790702D01*
X148461890Y-98777088D01*
X148479217Y-98759761D01*
X148492831Y-98739386D01*
X148502208Y-98716747D01*
X148506988Y-98692714D01*
X148506988Y-98668210D01*
X148502207Y-98644177D01*
X148492834Y-98621546D01*
X148486556Y-98609802D01*
X148455050Y-98505938D01*
X148444411Y-98397923D01*
X148455050Y-98289908D01*
X148486556Y-98186044D01*
X148501082Y-98158868D01*
X148537720Y-98090323D01*
X148606576Y-98006422D01*
X148690477Y-97937566D01*
X148759022Y-97900928D01*
X148786198Y-97886402D01*
X148890062Y-97854896D01*
X148971010Y-97846923D01*
X149025144Y-97846923D01*
X149106092Y-97854896D01*
X149106092Y-97854896D01*
G37*
G36*
X121691938Y-98183716D02*
G01*
X121712557Y-98189971D01*
X121731553Y-98200124D01*
X121748208Y-98213792D01*
X121761876Y-98230447D01*
X121772029Y-98249443D01*
X121778284Y-98270062D01*
X121781000Y-98297640D01*
X121781000Y-98806360D01*
X121778284Y-98833938D01*
X121772029Y-98854557D01*
X121761876Y-98873553D01*
X121748208Y-98890208D01*
X121731553Y-98903876D01*
X121712557Y-98914029D01*
X121691938Y-98920284D01*
X121664360Y-98923000D01*
X121205640Y-98923000D01*
X121178062Y-98920284D01*
X121157443Y-98914029D01*
X121138447Y-98903876D01*
X121121792Y-98890208D01*
X121108124Y-98873553D01*
X121097971Y-98854557D01*
X121091716Y-98833938D01*
X121089000Y-98806360D01*
X121089000Y-98297640D01*
X121091716Y-98270062D01*
X121097971Y-98249443D01*
X121108124Y-98230447D01*
X121121792Y-98213792D01*
X121138447Y-98200124D01*
X121157443Y-98189971D01*
X121178062Y-98183716D01*
X121205640Y-98181000D01*
X121664360Y-98181000D01*
X121691938Y-98183716D01*
X121691938Y-98183716D01*
G37*
G36*
X122661938Y-98183716D02*
G01*
X122682557Y-98189971D01*
X122701553Y-98200124D01*
X122718208Y-98213792D01*
X122731876Y-98230447D01*
X122742029Y-98249443D01*
X122748284Y-98270062D01*
X122751000Y-98297640D01*
X122751000Y-98806360D01*
X122748284Y-98833938D01*
X122742029Y-98854557D01*
X122731876Y-98873553D01*
X122718208Y-98890208D01*
X122701553Y-98903876D01*
X122682557Y-98914029D01*
X122661938Y-98920284D01*
X122634360Y-98923000D01*
X122175640Y-98923000D01*
X122148062Y-98920284D01*
X122127443Y-98914029D01*
X122108447Y-98903876D01*
X122091792Y-98890208D01*
X122078124Y-98873553D01*
X122067971Y-98854557D01*
X122061716Y-98833938D01*
X122059000Y-98806360D01*
X122059000Y-98297640D01*
X122061716Y-98270062D01*
X122067971Y-98249443D01*
X122078124Y-98230447D01*
X122091792Y-98213792D01*
X122108447Y-98200124D01*
X122127443Y-98189971D01*
X122148062Y-98183716D01*
X122175640Y-98181000D01*
X122634360Y-98181000D01*
X122661938Y-98183716D01*
X122661938Y-98183716D01*
G37*
G36*
X146029938Y-97675716D02*
G01*
X146050557Y-97681971D01*
X146069553Y-97692124D01*
X146086208Y-97705792D01*
X146099876Y-97722447D01*
X146110029Y-97741443D01*
X146116284Y-97762062D01*
X146119000Y-97789640D01*
X146119000Y-98298360D01*
X146116284Y-98325938D01*
X146110029Y-98346557D01*
X146099876Y-98365553D01*
X146086208Y-98382208D01*
X146069553Y-98395876D01*
X146050557Y-98406029D01*
X146029938Y-98412284D01*
X146002360Y-98415000D01*
X145543640Y-98415000D01*
X145516062Y-98412284D01*
X145495443Y-98406029D01*
X145476447Y-98395876D01*
X145459792Y-98382208D01*
X145446124Y-98365553D01*
X145435971Y-98346557D01*
X145429716Y-98325938D01*
X145427000Y-98298360D01*
X145427000Y-97789640D01*
X145429716Y-97762062D01*
X145435971Y-97741443D01*
X145446124Y-97722447D01*
X145459792Y-97705792D01*
X145476447Y-97692124D01*
X145495443Y-97681971D01*
X145516062Y-97675716D01*
X145543640Y-97673000D01*
X146002360Y-97673000D01*
X146029938Y-97675716D01*
X146029938Y-97675716D01*
G37*
G36*
X145059938Y-97675716D02*
G01*
X145080557Y-97681971D01*
X145099553Y-97692124D01*
X145116208Y-97705792D01*
X145129876Y-97722447D01*
X145140029Y-97741443D01*
X145146284Y-97762062D01*
X145149000Y-97789640D01*
X145149000Y-98298360D01*
X145146284Y-98325938D01*
X145140029Y-98346557D01*
X145129876Y-98365553D01*
X145116208Y-98382208D01*
X145099553Y-98395876D01*
X145080557Y-98406029D01*
X145059938Y-98412284D01*
X145032360Y-98415000D01*
X144573640Y-98415000D01*
X144546062Y-98412284D01*
X144525443Y-98406029D01*
X144506447Y-98395876D01*
X144489792Y-98382208D01*
X144476124Y-98365553D01*
X144465971Y-98346557D01*
X144459716Y-98325938D01*
X144457000Y-98298360D01*
X144457000Y-97789640D01*
X144459716Y-97762062D01*
X144465971Y-97741443D01*
X144476124Y-97722447D01*
X144489792Y-97705792D01*
X144506447Y-97692124D01*
X144525443Y-97681971D01*
X144546062Y-97675716D01*
X144573640Y-97673000D01*
X145032360Y-97673000D01*
X145059938Y-97675716D01*
X145059938Y-97675716D01*
G37*
G36*
X152327000Y-96531000D02*
G01*
X149425000Y-96531000D01*
X149425000Y-95129000D01*
X152327000Y-95129000D01*
X152327000Y-96531000D01*
X152327000Y-96531000D01*
G37*
G36*
X116629000Y-93134000D02*
G01*
X116400735Y-93134000D01*
X116376349Y-93136402D01*
X116352900Y-93143515D01*
X116331289Y-93155066D01*
X116312347Y-93170611D01*
X116296802Y-93189553D01*
X116285251Y-93211164D01*
X116278138Y-93234613D01*
X116275736Y-93258999D01*
X116278138Y-93283385D01*
X116285251Y-93306834D01*
X116296802Y-93328445D01*
X116312347Y-93347387D01*
X116331289Y-93362932D01*
X116341802Y-93369233D01*
X116385600Y-93392644D01*
X116385602Y-93392645D01*
X116385601Y-93392645D01*
X116469501Y-93461499D01*
X116538357Y-93545400D01*
X116572619Y-93609501D01*
X116589521Y-93641121D01*
X116621027Y-93744985D01*
X116631666Y-93853000D01*
X116621027Y-93961015D01*
X116589521Y-94064879D01*
X116589519Y-94064882D01*
X116538357Y-94160600D01*
X116469501Y-94244501D01*
X116385600Y-94313357D01*
X116317055Y-94349995D01*
X116289879Y-94364521D01*
X116186015Y-94396027D01*
X116105067Y-94404000D01*
X116050933Y-94404000D01*
X115969985Y-94396027D01*
X115866121Y-94364521D01*
X115838945Y-94349995D01*
X115770400Y-94313357D01*
X115686499Y-94244501D01*
X115617643Y-94160600D01*
X115566481Y-94064882D01*
X115566479Y-94064879D01*
X115534973Y-93961015D01*
X115524334Y-93853000D01*
X115534973Y-93744985D01*
X115566479Y-93641121D01*
X115583381Y-93609501D01*
X115617643Y-93545400D01*
X115686499Y-93461499D01*
X115770399Y-93392645D01*
X115770398Y-93392645D01*
X115770400Y-93392644D01*
X115814193Y-93369236D01*
X115834563Y-93355625D01*
X115851890Y-93338298D01*
X115865504Y-93317924D01*
X115874881Y-93295285D01*
X115879662Y-93271252D01*
X115879662Y-93246748D01*
X115874882Y-93222714D01*
X115865505Y-93200076D01*
X115851891Y-93179701D01*
X115834564Y-93162374D01*
X115814190Y-93148760D01*
X115791551Y-93139383D01*
X115767518Y-93134602D01*
X115755265Y-93134000D01*
X115527000Y-93134000D01*
X115527000Y-92032000D01*
X116629000Y-92032000D01*
X116629000Y-93134000D01*
X116629000Y-93134000D01*
G37*
G36*
X144061000Y-92499000D02*
G01*
X143832735Y-92499000D01*
X143808349Y-92501402D01*
X143784900Y-92508515D01*
X143763289Y-92520066D01*
X143744347Y-92535611D01*
X143728802Y-92554553D01*
X143717251Y-92576164D01*
X143710138Y-92599613D01*
X143707736Y-92623999D01*
X143710138Y-92648385D01*
X143717251Y-92671834D01*
X143728802Y-92693445D01*
X143744347Y-92712387D01*
X143763289Y-92727932D01*
X143773802Y-92734233D01*
X143817600Y-92757644D01*
X143817602Y-92757645D01*
X143817601Y-92757645D01*
X143901501Y-92826499D01*
X143970357Y-92910400D01*
X144006995Y-92978945D01*
X144021521Y-93006121D01*
X144053027Y-93109985D01*
X144063666Y-93218000D01*
X144053027Y-93326015D01*
X144021521Y-93429879D01*
X144021519Y-93429882D01*
X143970357Y-93525600D01*
X143901501Y-93609501D01*
X143817600Y-93678357D01*
X143749055Y-93714995D01*
X143721879Y-93729521D01*
X143618015Y-93761027D01*
X143537067Y-93769000D01*
X143482933Y-93769000D01*
X143401985Y-93761027D01*
X143298121Y-93729521D01*
X143270945Y-93714995D01*
X143202400Y-93678357D01*
X143118499Y-93609501D01*
X143049643Y-93525600D01*
X142998481Y-93429882D01*
X142998479Y-93429879D01*
X142966973Y-93326015D01*
X142956334Y-93218000D01*
X142966973Y-93109985D01*
X142998479Y-93006121D01*
X143013005Y-92978945D01*
X143049643Y-92910400D01*
X143118499Y-92826499D01*
X143202399Y-92757645D01*
X143202398Y-92757645D01*
X143202400Y-92757644D01*
X143246193Y-92734236D01*
X143266563Y-92720625D01*
X143283890Y-92703298D01*
X143297504Y-92682924D01*
X143306881Y-92660285D01*
X143311662Y-92636252D01*
X143311662Y-92611748D01*
X143306882Y-92587714D01*
X143297505Y-92565076D01*
X143283891Y-92544701D01*
X143266564Y-92527374D01*
X143246190Y-92513760D01*
X143223551Y-92504383D01*
X143199518Y-92499602D01*
X143187265Y-92499000D01*
X142959000Y-92499000D01*
X142959000Y-91397000D01*
X144061000Y-91397000D01*
X144061000Y-92499000D01*
X144061000Y-92499000D01*
G37*
G36*
X154977000Y-93731000D02*
G01*
X153075000Y-93731000D01*
X153075000Y-91429000D01*
X154977000Y-91429000D01*
X154977000Y-93731000D01*
X154977000Y-93731000D01*
G37*
G36*
X148677000Y-93731000D02*
G01*
X146775000Y-93731000D01*
X146775000Y-91429000D01*
X148677000Y-91429000D01*
X148677000Y-93731000D01*
X148677000Y-93731000D01*
G37*
G36*
X124432797Y-89106567D02*
G01*
X124487575Y-89129257D01*
X124487577Y-89129258D01*
X124536876Y-89162198D01*
X124578802Y-89204124D01*
X124611742Y-89253423D01*
X124616067Y-89259896D01*
X124631612Y-89278838D01*
X124650554Y-89294383D01*
X124672165Y-89305934D01*
X124695614Y-89313047D01*
X124720000Y-89315449D01*
X124744386Y-89313047D01*
X124767835Y-89305934D01*
X124789446Y-89294383D01*
X124808388Y-89278838D01*
X124823933Y-89259896D01*
X124828258Y-89253423D01*
X124861198Y-89204124D01*
X124903124Y-89162198D01*
X124952423Y-89129258D01*
X124952425Y-89129257D01*
X125007203Y-89106567D01*
X125065353Y-89095000D01*
X125124647Y-89095000D01*
X125182797Y-89106567D01*
X125237575Y-89129257D01*
X125237577Y-89129258D01*
X125286876Y-89162198D01*
X125328802Y-89204124D01*
X125361742Y-89253423D01*
X125366067Y-89259896D01*
X125381612Y-89278838D01*
X125400554Y-89294383D01*
X125422165Y-89305934D01*
X125445614Y-89313047D01*
X125470000Y-89315449D01*
X125494386Y-89313047D01*
X125517835Y-89305934D01*
X125539446Y-89294383D01*
X125558388Y-89278838D01*
X125573933Y-89259896D01*
X125578258Y-89253423D01*
X125611198Y-89204124D01*
X125653124Y-89162198D01*
X125702423Y-89129258D01*
X125702425Y-89129257D01*
X125757203Y-89106567D01*
X125815353Y-89095000D01*
X125874647Y-89095000D01*
X125932797Y-89106567D01*
X125987575Y-89129257D01*
X125987577Y-89129258D01*
X126036876Y-89162198D01*
X126078802Y-89204124D01*
X126111742Y-89253423D01*
X126111743Y-89253425D01*
X126134433Y-89308203D01*
X126146000Y-89366353D01*
X126146000Y-89425647D01*
X126134433Y-89483797D01*
X126114423Y-89532104D01*
X126111742Y-89538577D01*
X126078802Y-89587876D01*
X126036876Y-89629802D01*
X125987577Y-89662742D01*
X125987576Y-89662743D01*
X125987575Y-89662743D01*
X125932797Y-89685433D01*
X125874647Y-89697000D01*
X125815353Y-89697000D01*
X125757203Y-89685433D01*
X125702425Y-89662743D01*
X125702424Y-89662743D01*
X125702423Y-89662742D01*
X125653124Y-89629802D01*
X125611198Y-89587876D01*
X125578258Y-89538577D01*
X125578257Y-89538575D01*
X125573933Y-89532104D01*
X125558388Y-89513162D01*
X125539446Y-89497617D01*
X125517835Y-89486066D01*
X125494386Y-89478953D01*
X125470000Y-89476551D01*
X125445614Y-89478953D01*
X125422165Y-89486066D01*
X125400554Y-89497617D01*
X125381612Y-89513162D01*
X125366067Y-89532104D01*
X125361743Y-89538575D01*
X125361742Y-89538577D01*
X125328802Y-89587876D01*
X125286876Y-89629802D01*
X125237577Y-89662742D01*
X125237576Y-89662743D01*
X125237575Y-89662743D01*
X125182797Y-89685433D01*
X125124647Y-89697000D01*
X125065353Y-89697000D01*
X125007203Y-89685433D01*
X124952425Y-89662743D01*
X124952424Y-89662743D01*
X124952423Y-89662742D01*
X124903124Y-89629802D01*
X124861198Y-89587876D01*
X124828258Y-89538577D01*
X124828257Y-89538575D01*
X124823933Y-89532104D01*
X124808388Y-89513162D01*
X124789446Y-89497617D01*
X124767835Y-89486066D01*
X124744386Y-89478953D01*
X124720000Y-89476551D01*
X124695614Y-89478953D01*
X124672165Y-89486066D01*
X124650554Y-89497617D01*
X124631612Y-89513162D01*
X124616067Y-89532104D01*
X124611743Y-89538575D01*
X124611742Y-89538577D01*
X124578802Y-89587876D01*
X124536876Y-89629802D01*
X124487577Y-89662742D01*
X124487576Y-89662743D01*
X124487575Y-89662743D01*
X124432797Y-89685433D01*
X124374647Y-89697000D01*
X124315353Y-89697000D01*
X124257203Y-89685433D01*
X124202425Y-89662743D01*
X124202424Y-89662743D01*
X124202423Y-89662742D01*
X124153124Y-89629802D01*
X124111198Y-89587876D01*
X124078258Y-89538577D01*
X124075577Y-89532104D01*
X124055567Y-89483797D01*
X124044000Y-89425647D01*
X124044000Y-89366353D01*
X124055567Y-89308203D01*
X124078257Y-89253425D01*
X124078258Y-89253423D01*
X124111198Y-89204124D01*
X124153124Y-89162198D01*
X124202423Y-89129258D01*
X124202425Y-89129257D01*
X124257203Y-89106567D01*
X124315353Y-89095000D01*
X124374647Y-89095000D01*
X124432797Y-89106567D01*
X124432797Y-89106567D01*
G37*
G36*
X140446797Y-89106567D02*
G01*
X140501575Y-89129257D01*
X140501577Y-89129258D01*
X140550876Y-89162198D01*
X140592802Y-89204124D01*
X140625742Y-89253423D01*
X140630067Y-89259896D01*
X140645612Y-89278838D01*
X140664554Y-89294383D01*
X140686165Y-89305934D01*
X140709614Y-89313047D01*
X140734000Y-89315449D01*
X140758386Y-89313047D01*
X140781835Y-89305934D01*
X140803446Y-89294383D01*
X140822388Y-89278838D01*
X140837933Y-89259896D01*
X140842258Y-89253423D01*
X140875198Y-89204124D01*
X140917124Y-89162198D01*
X140966423Y-89129258D01*
X140966425Y-89129257D01*
X141021203Y-89106567D01*
X141079353Y-89095000D01*
X141138647Y-89095000D01*
X141196797Y-89106567D01*
X141251575Y-89129257D01*
X141251577Y-89129258D01*
X141300876Y-89162198D01*
X141342802Y-89204124D01*
X141375742Y-89253423D01*
X141380067Y-89259896D01*
X141395612Y-89278838D01*
X141414554Y-89294383D01*
X141436165Y-89305934D01*
X141459614Y-89313047D01*
X141484000Y-89315449D01*
X141508386Y-89313047D01*
X141531835Y-89305934D01*
X141553446Y-89294383D01*
X141572388Y-89278838D01*
X141587933Y-89259896D01*
X141592258Y-89253423D01*
X141625198Y-89204124D01*
X141667124Y-89162198D01*
X141716423Y-89129258D01*
X141716425Y-89129257D01*
X141771203Y-89106567D01*
X141829353Y-89095000D01*
X141888647Y-89095000D01*
X141946797Y-89106567D01*
X142001575Y-89129257D01*
X142001577Y-89129258D01*
X142050876Y-89162198D01*
X142092802Y-89204124D01*
X142125742Y-89253423D01*
X142125743Y-89253425D01*
X142148433Y-89308203D01*
X142160000Y-89366353D01*
X142160000Y-89425647D01*
X142148433Y-89483797D01*
X142128423Y-89532104D01*
X142125742Y-89538577D01*
X142092802Y-89587876D01*
X142050876Y-89629802D01*
X142001577Y-89662742D01*
X142001576Y-89662743D01*
X142001575Y-89662743D01*
X141946797Y-89685433D01*
X141888647Y-89697000D01*
X141829353Y-89697000D01*
X141771203Y-89685433D01*
X141716425Y-89662743D01*
X141716424Y-89662743D01*
X141716423Y-89662742D01*
X141667124Y-89629802D01*
X141625198Y-89587876D01*
X141592258Y-89538577D01*
X141592257Y-89538575D01*
X141587933Y-89532104D01*
X141572388Y-89513162D01*
X141553446Y-89497617D01*
X141531835Y-89486066D01*
X141508386Y-89478953D01*
X141484000Y-89476551D01*
X141459614Y-89478953D01*
X141436165Y-89486066D01*
X141414554Y-89497617D01*
X141395612Y-89513162D01*
X141380067Y-89532104D01*
X141375743Y-89538575D01*
X141375742Y-89538577D01*
X141342802Y-89587876D01*
X141300876Y-89629802D01*
X141251577Y-89662742D01*
X141251576Y-89662743D01*
X141251575Y-89662743D01*
X141196797Y-89685433D01*
X141138647Y-89697000D01*
X141079353Y-89697000D01*
X141021203Y-89685433D01*
X140966425Y-89662743D01*
X140966424Y-89662743D01*
X140966423Y-89662742D01*
X140917124Y-89629802D01*
X140875198Y-89587876D01*
X140842258Y-89538577D01*
X140842257Y-89538575D01*
X140837933Y-89532104D01*
X140822388Y-89513162D01*
X140803446Y-89497617D01*
X140781835Y-89486066D01*
X140758386Y-89478953D01*
X140734000Y-89476551D01*
X140709614Y-89478953D01*
X140686165Y-89486066D01*
X140664554Y-89497617D01*
X140645612Y-89513162D01*
X140630067Y-89532104D01*
X140625743Y-89538575D01*
X140625742Y-89538577D01*
X140592802Y-89587876D01*
X140550876Y-89629802D01*
X140501577Y-89662742D01*
X140501576Y-89662743D01*
X140501575Y-89662743D01*
X140446797Y-89685433D01*
X140388647Y-89697000D01*
X140329353Y-89697000D01*
X140271203Y-89685433D01*
X140216425Y-89662743D01*
X140216424Y-89662743D01*
X140216423Y-89662742D01*
X140167124Y-89629802D01*
X140125198Y-89587876D01*
X140092258Y-89538577D01*
X140089577Y-89532104D01*
X140069567Y-89483797D01*
X140058000Y-89425647D01*
X140058000Y-89366353D01*
X140069567Y-89308203D01*
X140092257Y-89253425D01*
X140092258Y-89253423D01*
X140125198Y-89204124D01*
X140167124Y-89162198D01*
X140216423Y-89129258D01*
X140216425Y-89129257D01*
X140271203Y-89106567D01*
X140329353Y-89095000D01*
X140388647Y-89095000D01*
X140446797Y-89106567D01*
X140446797Y-89106567D01*
G37*
G36*
X124432797Y-87606567D02*
G01*
X124487575Y-87629257D01*
X124487577Y-87629258D01*
X124536876Y-87662198D01*
X124578802Y-87704124D01*
X124611742Y-87753423D01*
X124616067Y-87759896D01*
X124631612Y-87778838D01*
X124650554Y-87794383D01*
X124672165Y-87805934D01*
X124695614Y-87813047D01*
X124720000Y-87815449D01*
X124744386Y-87813047D01*
X124767835Y-87805934D01*
X124789446Y-87794383D01*
X124808388Y-87778838D01*
X124823933Y-87759896D01*
X124828258Y-87753423D01*
X124861198Y-87704124D01*
X124903124Y-87662198D01*
X124952423Y-87629258D01*
X124952425Y-87629257D01*
X125007203Y-87606567D01*
X125065353Y-87595000D01*
X125124647Y-87595000D01*
X125182797Y-87606567D01*
X125237575Y-87629257D01*
X125237577Y-87629258D01*
X125286876Y-87662198D01*
X125328802Y-87704124D01*
X125361742Y-87753423D01*
X125366067Y-87759896D01*
X125381612Y-87778838D01*
X125400554Y-87794383D01*
X125422165Y-87805934D01*
X125445614Y-87813047D01*
X125470000Y-87815449D01*
X125494386Y-87813047D01*
X125517835Y-87805934D01*
X125539446Y-87794383D01*
X125558388Y-87778838D01*
X125573933Y-87759896D01*
X125578258Y-87753423D01*
X125611198Y-87704124D01*
X125653124Y-87662198D01*
X125702423Y-87629258D01*
X125702425Y-87629257D01*
X125757203Y-87606567D01*
X125815353Y-87595000D01*
X125874647Y-87595000D01*
X125932797Y-87606567D01*
X125987575Y-87629257D01*
X125987577Y-87629258D01*
X126036876Y-87662198D01*
X126078802Y-87704124D01*
X126111742Y-87753423D01*
X126111743Y-87753425D01*
X126134433Y-87808203D01*
X126146000Y-87866353D01*
X126146000Y-87925647D01*
X126134433Y-87983797D01*
X126114423Y-88032104D01*
X126111742Y-88038577D01*
X126078802Y-88087876D01*
X126036876Y-88129802D01*
X125987577Y-88162742D01*
X125987576Y-88162743D01*
X125987575Y-88162743D01*
X125932797Y-88185433D01*
X125874647Y-88197000D01*
X125815353Y-88197000D01*
X125757203Y-88185433D01*
X125702425Y-88162743D01*
X125702424Y-88162743D01*
X125702423Y-88162742D01*
X125653124Y-88129802D01*
X125611198Y-88087876D01*
X125578258Y-88038577D01*
X125578257Y-88038575D01*
X125573933Y-88032104D01*
X125558388Y-88013162D01*
X125539446Y-87997617D01*
X125517835Y-87986066D01*
X125494386Y-87978953D01*
X125470000Y-87976551D01*
X125445614Y-87978953D01*
X125422165Y-87986066D01*
X125400554Y-87997617D01*
X125381612Y-88013162D01*
X125366067Y-88032104D01*
X125361743Y-88038575D01*
X125361742Y-88038577D01*
X125328802Y-88087876D01*
X125286876Y-88129802D01*
X125237577Y-88162742D01*
X125237576Y-88162743D01*
X125237575Y-88162743D01*
X125182797Y-88185433D01*
X125124647Y-88197000D01*
X125065353Y-88197000D01*
X125007203Y-88185433D01*
X124952425Y-88162743D01*
X124952424Y-88162743D01*
X124952423Y-88162742D01*
X124903124Y-88129802D01*
X124861198Y-88087876D01*
X124828258Y-88038577D01*
X124828257Y-88038575D01*
X124823933Y-88032104D01*
X124808388Y-88013162D01*
X124789446Y-87997617D01*
X124767835Y-87986066D01*
X124744386Y-87978953D01*
X124720000Y-87976551D01*
X124695614Y-87978953D01*
X124672165Y-87986066D01*
X124650554Y-87997617D01*
X124631612Y-88013162D01*
X124616067Y-88032104D01*
X124611743Y-88038575D01*
X124611742Y-88038577D01*
X124578802Y-88087876D01*
X124536876Y-88129802D01*
X124487577Y-88162742D01*
X124487576Y-88162743D01*
X124487575Y-88162743D01*
X124432797Y-88185433D01*
X124374647Y-88197000D01*
X124315353Y-88197000D01*
X124257203Y-88185433D01*
X124202425Y-88162743D01*
X124202424Y-88162743D01*
X124202423Y-88162742D01*
X124153124Y-88129802D01*
X124111198Y-88087876D01*
X124078258Y-88038577D01*
X124075577Y-88032104D01*
X124055567Y-87983797D01*
X124044000Y-87925647D01*
X124044000Y-87866353D01*
X124055567Y-87808203D01*
X124078257Y-87753425D01*
X124078258Y-87753423D01*
X124111198Y-87704124D01*
X124153124Y-87662198D01*
X124202423Y-87629258D01*
X124202425Y-87629257D01*
X124257203Y-87606567D01*
X124315353Y-87595000D01*
X124374647Y-87595000D01*
X124432797Y-87606567D01*
X124432797Y-87606567D01*
G37*
G36*
X140446797Y-87606567D02*
G01*
X140501575Y-87629257D01*
X140501577Y-87629258D01*
X140550876Y-87662198D01*
X140592802Y-87704124D01*
X140625742Y-87753423D01*
X140630067Y-87759896D01*
X140645612Y-87778838D01*
X140664554Y-87794383D01*
X140686165Y-87805934D01*
X140709614Y-87813047D01*
X140734000Y-87815449D01*
X140758386Y-87813047D01*
X140781835Y-87805934D01*
X140803446Y-87794383D01*
X140822388Y-87778838D01*
X140837933Y-87759896D01*
X140842258Y-87753423D01*
X140875198Y-87704124D01*
X140917124Y-87662198D01*
X140966423Y-87629258D01*
X140966425Y-87629257D01*
X141021203Y-87606567D01*
X141079353Y-87595000D01*
X141138647Y-87595000D01*
X141196797Y-87606567D01*
X141251575Y-87629257D01*
X141251577Y-87629258D01*
X141300876Y-87662198D01*
X141342802Y-87704124D01*
X141375742Y-87753423D01*
X141380067Y-87759896D01*
X141395612Y-87778838D01*
X141414554Y-87794383D01*
X141436165Y-87805934D01*
X141459614Y-87813047D01*
X141484000Y-87815449D01*
X141508386Y-87813047D01*
X141531835Y-87805934D01*
X141553446Y-87794383D01*
X141572388Y-87778838D01*
X141587933Y-87759896D01*
X141592258Y-87753423D01*
X141625198Y-87704124D01*
X141667124Y-87662198D01*
X141716423Y-87629258D01*
X141716425Y-87629257D01*
X141771203Y-87606567D01*
X141829353Y-87595000D01*
X141888647Y-87595000D01*
X141946797Y-87606567D01*
X142001575Y-87629257D01*
X142001577Y-87629258D01*
X142050876Y-87662198D01*
X142092802Y-87704124D01*
X142125742Y-87753423D01*
X142125743Y-87753425D01*
X142148433Y-87808203D01*
X142160000Y-87866353D01*
X142160000Y-87925647D01*
X142148433Y-87983797D01*
X142128423Y-88032104D01*
X142125742Y-88038577D01*
X142092802Y-88087876D01*
X142050876Y-88129802D01*
X142001577Y-88162742D01*
X142001576Y-88162743D01*
X142001575Y-88162743D01*
X141946797Y-88185433D01*
X141888647Y-88197000D01*
X141829353Y-88197000D01*
X141771203Y-88185433D01*
X141716425Y-88162743D01*
X141716424Y-88162743D01*
X141716423Y-88162742D01*
X141667124Y-88129802D01*
X141625198Y-88087876D01*
X141592258Y-88038577D01*
X141592257Y-88038575D01*
X141587933Y-88032104D01*
X141572388Y-88013162D01*
X141553446Y-87997617D01*
X141531835Y-87986066D01*
X141508386Y-87978953D01*
X141484000Y-87976551D01*
X141459614Y-87978953D01*
X141436165Y-87986066D01*
X141414554Y-87997617D01*
X141395612Y-88013162D01*
X141380067Y-88032104D01*
X141375743Y-88038575D01*
X141375742Y-88038577D01*
X141342802Y-88087876D01*
X141300876Y-88129802D01*
X141251577Y-88162742D01*
X141251576Y-88162743D01*
X141251575Y-88162743D01*
X141196797Y-88185433D01*
X141138647Y-88197000D01*
X141079353Y-88197000D01*
X141021203Y-88185433D01*
X140966425Y-88162743D01*
X140966424Y-88162743D01*
X140966423Y-88162742D01*
X140917124Y-88129802D01*
X140875198Y-88087876D01*
X140842258Y-88038577D01*
X140842257Y-88038575D01*
X140837933Y-88032104D01*
X140822388Y-88013162D01*
X140803446Y-87997617D01*
X140781835Y-87986066D01*
X140758386Y-87978953D01*
X140734000Y-87976551D01*
X140709614Y-87978953D01*
X140686165Y-87986066D01*
X140664554Y-87997617D01*
X140645612Y-88013162D01*
X140630067Y-88032104D01*
X140625743Y-88038575D01*
X140625742Y-88038577D01*
X140592802Y-88087876D01*
X140550876Y-88129802D01*
X140501577Y-88162742D01*
X140501576Y-88162743D01*
X140501575Y-88162743D01*
X140446797Y-88185433D01*
X140388647Y-88197000D01*
X140329353Y-88197000D01*
X140271203Y-88185433D01*
X140216425Y-88162743D01*
X140216424Y-88162743D01*
X140216423Y-88162742D01*
X140167124Y-88129802D01*
X140125198Y-88087876D01*
X140092258Y-88038577D01*
X140089577Y-88032104D01*
X140069567Y-87983797D01*
X140058000Y-87925647D01*
X140058000Y-87866353D01*
X140069567Y-87808203D01*
X140092257Y-87753425D01*
X140092258Y-87753423D01*
X140125198Y-87704124D01*
X140167124Y-87662198D01*
X140216423Y-87629258D01*
X140216425Y-87629257D01*
X140271203Y-87606567D01*
X140329353Y-87595000D01*
X140388647Y-87595000D01*
X140446797Y-87606567D01*
X140446797Y-87606567D01*
G37*
G36*
X141584578Y-85824197D02*
G01*
X141637350Y-85834694D01*
X141736770Y-85875875D01*
X141826246Y-85935661D01*
X141902339Y-86011754D01*
X141962125Y-86101230D01*
X142003306Y-86200650D01*
X142024300Y-86306194D01*
X142024300Y-86413806D01*
X142003306Y-86519350D01*
X141962125Y-86618770D01*
X141902339Y-86708246D01*
X141826246Y-86784339D01*
X141736770Y-86844125D01*
X141637350Y-86885306D01*
X141584578Y-86895803D01*
X141531807Y-86906300D01*
X141424193Y-86906300D01*
X141371422Y-86895803D01*
X141318650Y-86885306D01*
X141219230Y-86844125D01*
X141129754Y-86784339D01*
X141053661Y-86708246D01*
X140993875Y-86618770D01*
X140952694Y-86519350D01*
X140931700Y-86413806D01*
X140931700Y-86306194D01*
X140952694Y-86200650D01*
X140993875Y-86101230D01*
X141053661Y-86011754D01*
X141129754Y-85935661D01*
X141219230Y-85875875D01*
X141318650Y-85834694D01*
X141371422Y-85824197D01*
X141424193Y-85813700D01*
X141531807Y-85813700D01*
X141584578Y-85824197D01*
X141584578Y-85824197D01*
G37*
G36*
X140337714Y-85551389D02*
G01*
X140418645Y-85584912D01*
X140491480Y-85633579D01*
X140553421Y-85695520D01*
X140602088Y-85768355D01*
X140602089Y-85768357D01*
X140635611Y-85849286D01*
X140652700Y-85935199D01*
X140652700Y-86022801D01*
X140637100Y-86101229D01*
X140635611Y-86108714D01*
X140602088Y-86189645D01*
X140553421Y-86262480D01*
X140491480Y-86324421D01*
X140418645Y-86373088D01*
X140418644Y-86373089D01*
X140418643Y-86373089D01*
X140337714Y-86406611D01*
X140251801Y-86423700D01*
X140164199Y-86423700D01*
X140078286Y-86406611D01*
X139997357Y-86373089D01*
X139997356Y-86373089D01*
X139997355Y-86373088D01*
X139924520Y-86324421D01*
X139862579Y-86262480D01*
X139813912Y-86189645D01*
X139780389Y-86108714D01*
X139778900Y-86101229D01*
X139763300Y-86022801D01*
X139763300Y-85935199D01*
X139780389Y-85849286D01*
X139813911Y-85768357D01*
X139813912Y-85768355D01*
X139862579Y-85695520D01*
X139924520Y-85633579D01*
X139997355Y-85584912D01*
X140078286Y-85551389D01*
X140164199Y-85534300D01*
X140251801Y-85534300D01*
X140337714Y-85551389D01*
X140337714Y-85551389D01*
G37*
G36*
X139067714Y-85551389D02*
G01*
X139148645Y-85584912D01*
X139221480Y-85633579D01*
X139283421Y-85695520D01*
X139332088Y-85768355D01*
X139332089Y-85768357D01*
X139365611Y-85849286D01*
X139382700Y-85935199D01*
X139382700Y-86022801D01*
X139367100Y-86101229D01*
X139365611Y-86108714D01*
X139332088Y-86189645D01*
X139283421Y-86262480D01*
X139221480Y-86324421D01*
X139148645Y-86373088D01*
X139148644Y-86373089D01*
X139148643Y-86373089D01*
X139067714Y-86406611D01*
X138981801Y-86423700D01*
X138894199Y-86423700D01*
X138808286Y-86406611D01*
X138727357Y-86373089D01*
X138727356Y-86373089D01*
X138727355Y-86373088D01*
X138654520Y-86324421D01*
X138592579Y-86262480D01*
X138543912Y-86189645D01*
X138510389Y-86108714D01*
X138508900Y-86101229D01*
X138493300Y-86022801D01*
X138493300Y-85935199D01*
X138510389Y-85849286D01*
X138543911Y-85768357D01*
X138543912Y-85768355D01*
X138592579Y-85695520D01*
X138654520Y-85633579D01*
X138727355Y-85584912D01*
X138808286Y-85551389D01*
X138894199Y-85534300D01*
X138981801Y-85534300D01*
X139067714Y-85551389D01*
X139067714Y-85551389D01*
G37*
G36*
X137797714Y-85551389D02*
G01*
X137878645Y-85584912D01*
X137951480Y-85633579D01*
X138013421Y-85695520D01*
X138062088Y-85768355D01*
X138062089Y-85768357D01*
X138095611Y-85849286D01*
X138112700Y-85935199D01*
X138112700Y-86022801D01*
X138097100Y-86101229D01*
X138095611Y-86108714D01*
X138062088Y-86189645D01*
X138013421Y-86262480D01*
X137951480Y-86324421D01*
X137878645Y-86373088D01*
X137878644Y-86373089D01*
X137878643Y-86373089D01*
X137797714Y-86406611D01*
X137711801Y-86423700D01*
X137624199Y-86423700D01*
X137538286Y-86406611D01*
X137457357Y-86373089D01*
X137457356Y-86373089D01*
X137457355Y-86373088D01*
X137384520Y-86324421D01*
X137322579Y-86262480D01*
X137273912Y-86189645D01*
X137240389Y-86108714D01*
X137238900Y-86101229D01*
X137223300Y-86022801D01*
X137223300Y-85935199D01*
X137240389Y-85849286D01*
X137273911Y-85768357D01*
X137273912Y-85768355D01*
X137322579Y-85695520D01*
X137384520Y-85633579D01*
X137457355Y-85584912D01*
X137538286Y-85551389D01*
X137624199Y-85534300D01*
X137711801Y-85534300D01*
X137797714Y-85551389D01*
X137797714Y-85551389D01*
G37*
G36*
X144823000Y-85133000D02*
G01*
X144594735Y-85133000D01*
X144570349Y-85135402D01*
X144546900Y-85142515D01*
X144525289Y-85154066D01*
X144506347Y-85169611D01*
X144490802Y-85188553D01*
X144479251Y-85210164D01*
X144472138Y-85233613D01*
X144469736Y-85257999D01*
X144472138Y-85282385D01*
X144479251Y-85305834D01*
X144490802Y-85327445D01*
X144506347Y-85346387D01*
X144525289Y-85361932D01*
X144535802Y-85368233D01*
X144579600Y-85391644D01*
X144587110Y-85397807D01*
X144663501Y-85460499D01*
X144732357Y-85544400D01*
X144754010Y-85584911D01*
X144783521Y-85640121D01*
X144815027Y-85743985D01*
X144825666Y-85852000D01*
X144815027Y-85960015D01*
X144783521Y-86063879D01*
X144783519Y-86063882D01*
X144732357Y-86159600D01*
X144663501Y-86243501D01*
X144579600Y-86312357D01*
X144511055Y-86348995D01*
X144483879Y-86363521D01*
X144380015Y-86395027D01*
X144299067Y-86403000D01*
X144244933Y-86403000D01*
X144163985Y-86395027D01*
X144060121Y-86363521D01*
X144032945Y-86348995D01*
X143964400Y-86312357D01*
X143880499Y-86243501D01*
X143811643Y-86159600D01*
X143760481Y-86063882D01*
X143760479Y-86063879D01*
X143728973Y-85960015D01*
X143718334Y-85852000D01*
X143728973Y-85743985D01*
X143760479Y-85640121D01*
X143789990Y-85584911D01*
X143811643Y-85544400D01*
X143880499Y-85460499D01*
X143956890Y-85397807D01*
X143964400Y-85391644D01*
X144008193Y-85368236D01*
X144028563Y-85354625D01*
X144045890Y-85337298D01*
X144059504Y-85316924D01*
X144068881Y-85294285D01*
X144073662Y-85270252D01*
X144073662Y-85245748D01*
X144068882Y-85221714D01*
X144059505Y-85199076D01*
X144045891Y-85178701D01*
X144028564Y-85161374D01*
X144008190Y-85147760D01*
X143985551Y-85138383D01*
X143961518Y-85133602D01*
X143949265Y-85133000D01*
X143721000Y-85133000D01*
X143721000Y-84031000D01*
X144823000Y-84031000D01*
X144823000Y-85133000D01*
X144823000Y-85133000D01*
G37*
G36*
X136504578Y-84808197D02*
G01*
X136557350Y-84818694D01*
X136656770Y-84859875D01*
X136746246Y-84919661D01*
X136822339Y-84995754D01*
X136882125Y-85085230D01*
X136923306Y-85184650D01*
X136944300Y-85290194D01*
X136944300Y-85397806D01*
X136923306Y-85503350D01*
X136882125Y-85602770D01*
X136822339Y-85692246D01*
X136746246Y-85768339D01*
X136656770Y-85828125D01*
X136557350Y-85869306D01*
X136524325Y-85875875D01*
X136451807Y-85890300D01*
X136344193Y-85890300D01*
X136271675Y-85875875D01*
X136238650Y-85869306D01*
X136139230Y-85828125D01*
X136049754Y-85768339D01*
X135973661Y-85692246D01*
X135913875Y-85602770D01*
X135872694Y-85503350D01*
X135851700Y-85397806D01*
X135851700Y-85290194D01*
X135872694Y-85184650D01*
X135913875Y-85085230D01*
X135973661Y-84995754D01*
X136049754Y-84919661D01*
X136139230Y-84859875D01*
X136238650Y-84818694D01*
X136291422Y-84808197D01*
X136344193Y-84797700D01*
X136451807Y-84797700D01*
X136504578Y-84808197D01*
X136504578Y-84808197D01*
G37*
G36*
X123175000Y-85779000D02*
G01*
X121173000Y-85779000D01*
X121173000Y-85277000D01*
X123175000Y-85277000D01*
X123175000Y-85779000D01*
X123175000Y-85779000D01*
G37*
G36*
X154977000Y-85609000D02*
G01*
X153075000Y-85609000D01*
X153075000Y-83307000D01*
X154977000Y-83307000D01*
X154977000Y-85609000D01*
X154977000Y-85609000D01*
G37*
G36*
X148677000Y-85609000D02*
G01*
X146775000Y-85609000D01*
X146775000Y-83307000D01*
X148677000Y-83307000D01*
X148677000Y-85609000D01*
X148677000Y-85609000D01*
G37*
G36*
X133377938Y-84723716D02*
G01*
X133398557Y-84729971D01*
X133417553Y-84740124D01*
X133434208Y-84753792D01*
X133447876Y-84770447D01*
X133458029Y-84789443D01*
X133464284Y-84810062D01*
X133467000Y-84837640D01*
X133467000Y-85296360D01*
X133464284Y-85323938D01*
X133458029Y-85344557D01*
X133447876Y-85363553D01*
X133434208Y-85380208D01*
X133417553Y-85393876D01*
X133398557Y-85404029D01*
X133377938Y-85410284D01*
X133350360Y-85413000D01*
X132841640Y-85413000D01*
X132814062Y-85410284D01*
X132793443Y-85404029D01*
X132774447Y-85393876D01*
X132757792Y-85380208D01*
X132744124Y-85363553D01*
X132733971Y-85344557D01*
X132727716Y-85323938D01*
X132725000Y-85296360D01*
X132725000Y-84837640D01*
X132727716Y-84810062D01*
X132733971Y-84789443D01*
X132744124Y-84770447D01*
X132757792Y-84753792D01*
X132774447Y-84740124D01*
X132793443Y-84729971D01*
X132814062Y-84723716D01*
X132841640Y-84721000D01*
X133350360Y-84721000D01*
X133377938Y-84723716D01*
X133377938Y-84723716D01*
G37*
G36*
X134393938Y-84723716D02*
G01*
X134414557Y-84729971D01*
X134433553Y-84740124D01*
X134450208Y-84753792D01*
X134463876Y-84770447D01*
X134474029Y-84789443D01*
X134480284Y-84810062D01*
X134483000Y-84837640D01*
X134483000Y-85296360D01*
X134480284Y-85323938D01*
X134474029Y-85344557D01*
X134463876Y-85363553D01*
X134450208Y-85380208D01*
X134433553Y-85393876D01*
X134414557Y-85404029D01*
X134393938Y-85410284D01*
X134366360Y-85413000D01*
X133857640Y-85413000D01*
X133830062Y-85410284D01*
X133809443Y-85404029D01*
X133790447Y-85393876D01*
X133773792Y-85380208D01*
X133760124Y-85363553D01*
X133749971Y-85344557D01*
X133743716Y-85323938D01*
X133741000Y-85296360D01*
X133741000Y-84837640D01*
X133743716Y-84810062D01*
X133749971Y-84789443D01*
X133760124Y-84770447D01*
X133773792Y-84753792D01*
X133790447Y-84740124D01*
X133809443Y-84729971D01*
X133830062Y-84723716D01*
X133857640Y-84721000D01*
X134366360Y-84721000D01*
X134393938Y-84723716D01*
X134393938Y-84723716D01*
G37*
G36*
X116629000Y-84117000D02*
G01*
X116400735Y-84117000D01*
X116376349Y-84119402D01*
X116352900Y-84126515D01*
X116331289Y-84138066D01*
X116312347Y-84153611D01*
X116296802Y-84172553D01*
X116285251Y-84194164D01*
X116278138Y-84217613D01*
X116275736Y-84241999D01*
X116278138Y-84266385D01*
X116285251Y-84289834D01*
X116296802Y-84311445D01*
X116312347Y-84330387D01*
X116331289Y-84345932D01*
X116341802Y-84352233D01*
X116385600Y-84375644D01*
X116446375Y-84425520D01*
X116469501Y-84444499D01*
X116538357Y-84528400D01*
X116565403Y-84579000D01*
X116589521Y-84624121D01*
X116621027Y-84727985D01*
X116631666Y-84836000D01*
X116621027Y-84944015D01*
X116589521Y-85047879D01*
X116574995Y-85075055D01*
X116538357Y-85143600D01*
X116469501Y-85227501D01*
X116385600Y-85296357D01*
X116333999Y-85323938D01*
X116289879Y-85347521D01*
X116186015Y-85379027D01*
X116105067Y-85387000D01*
X116050933Y-85387000D01*
X115969985Y-85379027D01*
X115866121Y-85347521D01*
X115822001Y-85323938D01*
X115770400Y-85296357D01*
X115686499Y-85227501D01*
X115617643Y-85143600D01*
X115581005Y-85075055D01*
X115566479Y-85047879D01*
X115534973Y-84944015D01*
X115524334Y-84836000D01*
X115534973Y-84727985D01*
X115566479Y-84624121D01*
X115590597Y-84579000D01*
X115617643Y-84528400D01*
X115686499Y-84444499D01*
X115709625Y-84425520D01*
X115770400Y-84375644D01*
X115814193Y-84352236D01*
X115834563Y-84338625D01*
X115851890Y-84321298D01*
X115865504Y-84300924D01*
X115874881Y-84278285D01*
X115879662Y-84254252D01*
X115879662Y-84229748D01*
X115874882Y-84205714D01*
X115865505Y-84183076D01*
X115851891Y-84162701D01*
X115834564Y-84145374D01*
X115814190Y-84131760D01*
X115791551Y-84122383D01*
X115767518Y-84117602D01*
X115755265Y-84117000D01*
X115527000Y-84117000D01*
X115527000Y-83015000D01*
X116629000Y-83015000D01*
X116629000Y-84117000D01*
X116629000Y-84117000D01*
G37*
G36*
X139067714Y-84281389D02*
G01*
X139114876Y-84300924D01*
X139148645Y-84314912D01*
X139221480Y-84363579D01*
X139283421Y-84425520D01*
X139332088Y-84498355D01*
X139332089Y-84498357D01*
X139365611Y-84579286D01*
X139382700Y-84665199D01*
X139382700Y-84752801D01*
X139365611Y-84838714D01*
X139334561Y-84913676D01*
X139332088Y-84919645D01*
X139283421Y-84992480D01*
X139221480Y-85054421D01*
X139148645Y-85103088D01*
X139148644Y-85103089D01*
X139148643Y-85103089D01*
X139067714Y-85136611D01*
X138981801Y-85153700D01*
X138894199Y-85153700D01*
X138808286Y-85136611D01*
X138727357Y-85103089D01*
X138727356Y-85103089D01*
X138727355Y-85103088D01*
X138654520Y-85054421D01*
X138592579Y-84992480D01*
X138543912Y-84919645D01*
X138541440Y-84913676D01*
X138510389Y-84838714D01*
X138493300Y-84752801D01*
X138493300Y-84665199D01*
X138510389Y-84579286D01*
X138543911Y-84498357D01*
X138543912Y-84498355D01*
X138592579Y-84425520D01*
X138654520Y-84363579D01*
X138727355Y-84314912D01*
X138761125Y-84300924D01*
X138808286Y-84281389D01*
X138894199Y-84264300D01*
X138981801Y-84264300D01*
X139067714Y-84281389D01*
X139067714Y-84281389D01*
G37*
G36*
X137797714Y-84281389D02*
G01*
X137844876Y-84300924D01*
X137878645Y-84314912D01*
X137951480Y-84363579D01*
X138013421Y-84425520D01*
X138062088Y-84498355D01*
X138062089Y-84498357D01*
X138095611Y-84579286D01*
X138112700Y-84665199D01*
X138112700Y-84752801D01*
X138095611Y-84838714D01*
X138064561Y-84913676D01*
X138062088Y-84919645D01*
X138013421Y-84992480D01*
X137951480Y-85054421D01*
X137878645Y-85103088D01*
X137878644Y-85103089D01*
X137878643Y-85103089D01*
X137797714Y-85136611D01*
X137711801Y-85153700D01*
X137624199Y-85153700D01*
X137538286Y-85136611D01*
X137457357Y-85103089D01*
X137457356Y-85103089D01*
X137457355Y-85103088D01*
X137384520Y-85054421D01*
X137322579Y-84992480D01*
X137273912Y-84919645D01*
X137271440Y-84913676D01*
X137240389Y-84838714D01*
X137223300Y-84752801D01*
X137223300Y-84665199D01*
X137240389Y-84579286D01*
X137273911Y-84498357D01*
X137273912Y-84498355D01*
X137322579Y-84425520D01*
X137384520Y-84363579D01*
X137457355Y-84314912D01*
X137491125Y-84300924D01*
X137538286Y-84281389D01*
X137624199Y-84264300D01*
X137711801Y-84264300D01*
X137797714Y-84281389D01*
X137797714Y-84281389D01*
G37*
G36*
X140337714Y-84281389D02*
G01*
X140384876Y-84300924D01*
X140418645Y-84314912D01*
X140491480Y-84363579D01*
X140553421Y-84425520D01*
X140602088Y-84498355D01*
X140602089Y-84498357D01*
X140635611Y-84579286D01*
X140652700Y-84665199D01*
X140652700Y-84752801D01*
X140635611Y-84838714D01*
X140604561Y-84913676D01*
X140602088Y-84919645D01*
X140553421Y-84992480D01*
X140491480Y-85054421D01*
X140418645Y-85103088D01*
X140418644Y-85103089D01*
X140418643Y-85103089D01*
X140337714Y-85136611D01*
X140251801Y-85153700D01*
X140164199Y-85153700D01*
X140078286Y-85136611D01*
X139997357Y-85103089D01*
X139997356Y-85103089D01*
X139997355Y-85103088D01*
X139924520Y-85054421D01*
X139862579Y-84992480D01*
X139813912Y-84919645D01*
X139811440Y-84913676D01*
X139780389Y-84838714D01*
X139763300Y-84752801D01*
X139763300Y-84665199D01*
X139780389Y-84579286D01*
X139813911Y-84498357D01*
X139813912Y-84498355D01*
X139862579Y-84425520D01*
X139924520Y-84363579D01*
X139997355Y-84314912D01*
X140031125Y-84300924D01*
X140078286Y-84281389D01*
X140164199Y-84264300D01*
X140251801Y-84264300D01*
X140337714Y-84281389D01*
X140337714Y-84281389D01*
G37*
G36*
X126421355Y-79117083D02*
G01*
X126426029Y-79118501D01*
X126430330Y-79120800D01*
X126436702Y-79126029D01*
X126457076Y-79139643D01*
X126479715Y-79149020D01*
X126503749Y-79153800D01*
X126528253Y-79153800D01*
X126552286Y-79149019D01*
X126574925Y-79139642D01*
X126595298Y-79126029D01*
X126601670Y-79120800D01*
X126605971Y-79118501D01*
X126610645Y-79117083D01*
X126621641Y-79116000D01*
X126910359Y-79116000D01*
X126921355Y-79117083D01*
X126926029Y-79118501D01*
X126930330Y-79120800D01*
X126936702Y-79126029D01*
X126957076Y-79139643D01*
X126979715Y-79149020D01*
X127003749Y-79153800D01*
X127028253Y-79153800D01*
X127052286Y-79149019D01*
X127074925Y-79139642D01*
X127095298Y-79126029D01*
X127101670Y-79120800D01*
X127105971Y-79118501D01*
X127110645Y-79117083D01*
X127121641Y-79116000D01*
X127410359Y-79116000D01*
X127421355Y-79117083D01*
X127426029Y-79118501D01*
X127430330Y-79120800D01*
X127436702Y-79126029D01*
X127457076Y-79139643D01*
X127479715Y-79149020D01*
X127503749Y-79153800D01*
X127528253Y-79153800D01*
X127552286Y-79149019D01*
X127574925Y-79139642D01*
X127595298Y-79126029D01*
X127601670Y-79120800D01*
X127605971Y-79118501D01*
X127610645Y-79117083D01*
X127621641Y-79116000D01*
X127910359Y-79116000D01*
X127921355Y-79117083D01*
X127926029Y-79118501D01*
X127930330Y-79120800D01*
X127936702Y-79126029D01*
X127957076Y-79139643D01*
X127979715Y-79149020D01*
X128003749Y-79153800D01*
X128028253Y-79153800D01*
X128052286Y-79149019D01*
X128074925Y-79139642D01*
X128095298Y-79126029D01*
X128101670Y-79120800D01*
X128105971Y-79118501D01*
X128110645Y-79117083D01*
X128121641Y-79116000D01*
X128410359Y-79116000D01*
X128421355Y-79117083D01*
X128426029Y-79118501D01*
X128430330Y-79120800D01*
X128436702Y-79126029D01*
X128457076Y-79139643D01*
X128479715Y-79149020D01*
X128503749Y-79153800D01*
X128528253Y-79153800D01*
X128552286Y-79149019D01*
X128574925Y-79139642D01*
X128595298Y-79126029D01*
X128601670Y-79120800D01*
X128605971Y-79118501D01*
X128610645Y-79117083D01*
X128621641Y-79116000D01*
X128910359Y-79116000D01*
X128921355Y-79117083D01*
X128926029Y-79118501D01*
X128930330Y-79120800D01*
X128936702Y-79126029D01*
X128957076Y-79139643D01*
X128979715Y-79149020D01*
X129003749Y-79153800D01*
X129028253Y-79153800D01*
X129052286Y-79149019D01*
X129074925Y-79139642D01*
X129095298Y-79126029D01*
X129101670Y-79120800D01*
X129105971Y-79118501D01*
X129110645Y-79117083D01*
X129121641Y-79116000D01*
X129410359Y-79116000D01*
X129421355Y-79117083D01*
X129426029Y-79118501D01*
X129430330Y-79120800D01*
X129436702Y-79126029D01*
X129457076Y-79139643D01*
X129479715Y-79149020D01*
X129503749Y-79153800D01*
X129528253Y-79153800D01*
X129552286Y-79149019D01*
X129574925Y-79139642D01*
X129595298Y-79126029D01*
X129601670Y-79120800D01*
X129605971Y-79118501D01*
X129610645Y-79117083D01*
X129621641Y-79116000D01*
X129910359Y-79116000D01*
X129921355Y-79117083D01*
X129926029Y-79118501D01*
X129930331Y-79120800D01*
X129934104Y-79123896D01*
X129937200Y-79127669D01*
X129939499Y-79131971D01*
X129940917Y-79136645D01*
X129942000Y-79147641D01*
X129942000Y-79991001D01*
X129944402Y-80015387D01*
X129951515Y-80038836D01*
X129963066Y-80060447D01*
X129978611Y-80079389D01*
X129997553Y-80094934D01*
X130019164Y-80106485D01*
X130042613Y-80113598D01*
X130066999Y-80116000D01*
X130910359Y-80116000D01*
X130921355Y-80117083D01*
X130926029Y-80118501D01*
X130930331Y-80120800D01*
X130934104Y-80123896D01*
X130937200Y-80127669D01*
X130939499Y-80131971D01*
X130940917Y-80136645D01*
X130942000Y-80147641D01*
X130942000Y-80436359D01*
X130940917Y-80447355D01*
X130939499Y-80452029D01*
X130937200Y-80456330D01*
X130931971Y-80462702D01*
X130918357Y-80483076D01*
X130908980Y-80505715D01*
X130904200Y-80529749D01*
X130904200Y-80554253D01*
X130908981Y-80578286D01*
X130918358Y-80600925D01*
X130931971Y-80621298D01*
X130937200Y-80627670D01*
X130939499Y-80631971D01*
X130940917Y-80636645D01*
X130942000Y-80647641D01*
X130942000Y-80936359D01*
X130940917Y-80947355D01*
X130939499Y-80952029D01*
X130937200Y-80956330D01*
X130931971Y-80962702D01*
X130918357Y-80983076D01*
X130908980Y-81005715D01*
X130904200Y-81029749D01*
X130904200Y-81054253D01*
X130908981Y-81078286D01*
X130918358Y-81100925D01*
X130931971Y-81121298D01*
X130937200Y-81127670D01*
X130939499Y-81131971D01*
X130940917Y-81136645D01*
X130942000Y-81147641D01*
X130942000Y-81436359D01*
X130940917Y-81447355D01*
X130939499Y-81452029D01*
X130937200Y-81456330D01*
X130931971Y-81462702D01*
X130918357Y-81483076D01*
X130908980Y-81505715D01*
X130904200Y-81529749D01*
X130904200Y-81554253D01*
X130908981Y-81578286D01*
X130918358Y-81600925D01*
X130931971Y-81621298D01*
X130937200Y-81627670D01*
X130939499Y-81631971D01*
X130940917Y-81636645D01*
X130942000Y-81647641D01*
X130942000Y-81936359D01*
X130940917Y-81947355D01*
X130939499Y-81952029D01*
X130937200Y-81956330D01*
X130931971Y-81962702D01*
X130918357Y-81983076D01*
X130908980Y-82005715D01*
X130904200Y-82029749D01*
X130904200Y-82054253D01*
X130908981Y-82078286D01*
X130918358Y-82100925D01*
X130931971Y-82121298D01*
X130937200Y-82127670D01*
X130939499Y-82131971D01*
X130940917Y-82136645D01*
X130942000Y-82147641D01*
X130942000Y-82436359D01*
X130940917Y-82447355D01*
X130939499Y-82452029D01*
X130937200Y-82456330D01*
X130931971Y-82462702D01*
X130918357Y-82483076D01*
X130908980Y-82505715D01*
X130904200Y-82529749D01*
X130904200Y-82554253D01*
X130908981Y-82578286D01*
X130918358Y-82600925D01*
X130931971Y-82621298D01*
X130937200Y-82627670D01*
X130939499Y-82631971D01*
X130940917Y-82636645D01*
X130942000Y-82647641D01*
X130942000Y-82936359D01*
X130940917Y-82947355D01*
X130939499Y-82952029D01*
X130937200Y-82956330D01*
X130931971Y-82962702D01*
X130918357Y-82983076D01*
X130908980Y-83005715D01*
X130904200Y-83029749D01*
X130904200Y-83054253D01*
X130908981Y-83078286D01*
X130918358Y-83100925D01*
X130931971Y-83121298D01*
X130937200Y-83127670D01*
X130939499Y-83131971D01*
X130940917Y-83136645D01*
X130942000Y-83147641D01*
X130942000Y-83436359D01*
X130940917Y-83447355D01*
X130939499Y-83452029D01*
X130937200Y-83456330D01*
X130931971Y-83462702D01*
X130918357Y-83483076D01*
X130908980Y-83505715D01*
X130904200Y-83529749D01*
X130904200Y-83554253D01*
X130908981Y-83578286D01*
X130918358Y-83600925D01*
X130931971Y-83621298D01*
X130937200Y-83627670D01*
X130939499Y-83631971D01*
X130940917Y-83636645D01*
X130942000Y-83647641D01*
X130942000Y-83936359D01*
X130940917Y-83947355D01*
X130939499Y-83952029D01*
X130937200Y-83956331D01*
X130934104Y-83960104D01*
X130930331Y-83963200D01*
X130926029Y-83965499D01*
X130921355Y-83966917D01*
X130910359Y-83968000D01*
X130066999Y-83968000D01*
X130042613Y-83970402D01*
X130019164Y-83977515D01*
X129997553Y-83989066D01*
X129978611Y-84004611D01*
X129963066Y-84023553D01*
X129951515Y-84045164D01*
X129944402Y-84068613D01*
X129942000Y-84092999D01*
X129942000Y-84936359D01*
X129940917Y-84947355D01*
X129939499Y-84952029D01*
X129937200Y-84956331D01*
X129934104Y-84960104D01*
X129930331Y-84963200D01*
X129926029Y-84965499D01*
X129921355Y-84966917D01*
X129910359Y-84968000D01*
X129621641Y-84968000D01*
X129610645Y-84966917D01*
X129605971Y-84965499D01*
X129601670Y-84963200D01*
X129595298Y-84957971D01*
X129574924Y-84944357D01*
X129552285Y-84934980D01*
X129528251Y-84930200D01*
X129503747Y-84930200D01*
X129479714Y-84934981D01*
X129457075Y-84944358D01*
X129436702Y-84957971D01*
X129430330Y-84963200D01*
X129426029Y-84965499D01*
X129421355Y-84966917D01*
X129410359Y-84968000D01*
X129121641Y-84968000D01*
X129110645Y-84966917D01*
X129105971Y-84965499D01*
X129101670Y-84963200D01*
X129095298Y-84957971D01*
X129074924Y-84944357D01*
X129052285Y-84934980D01*
X129028251Y-84930200D01*
X129003747Y-84930200D01*
X128979714Y-84934981D01*
X128957075Y-84944358D01*
X128936702Y-84957971D01*
X128930330Y-84963200D01*
X128926029Y-84965499D01*
X128921355Y-84966917D01*
X128910359Y-84968000D01*
X128621641Y-84968000D01*
X128610645Y-84966917D01*
X128605971Y-84965499D01*
X128601670Y-84963200D01*
X128595298Y-84957971D01*
X128574924Y-84944357D01*
X128552285Y-84934980D01*
X128528251Y-84930200D01*
X128503747Y-84930200D01*
X128479714Y-84934981D01*
X128457075Y-84944358D01*
X128436702Y-84957971D01*
X128430330Y-84963200D01*
X128426029Y-84965499D01*
X128421355Y-84966917D01*
X128410359Y-84968000D01*
X128121641Y-84968000D01*
X128110645Y-84966917D01*
X128105971Y-84965499D01*
X128101670Y-84963200D01*
X128095298Y-84957971D01*
X128074924Y-84944357D01*
X128052285Y-84934980D01*
X128028251Y-84930200D01*
X128003747Y-84930200D01*
X127979714Y-84934981D01*
X127957075Y-84944358D01*
X127936702Y-84957971D01*
X127930330Y-84963200D01*
X127926029Y-84965499D01*
X127921355Y-84966917D01*
X127910359Y-84968000D01*
X127621641Y-84968000D01*
X127610645Y-84966917D01*
X127605971Y-84965499D01*
X127601670Y-84963200D01*
X127595298Y-84957971D01*
X127574924Y-84944357D01*
X127552285Y-84934980D01*
X127528251Y-84930200D01*
X127503747Y-84930200D01*
X127479714Y-84934981D01*
X127457075Y-84944358D01*
X127436702Y-84957971D01*
X127430330Y-84963200D01*
X127426029Y-84965499D01*
X127421355Y-84966917D01*
X127410359Y-84968000D01*
X127121641Y-84968000D01*
X127110645Y-84966917D01*
X127105971Y-84965499D01*
X127101670Y-84963200D01*
X127095298Y-84957971D01*
X127074924Y-84944357D01*
X127052285Y-84934980D01*
X127028251Y-84930200D01*
X127003747Y-84930200D01*
X126979714Y-84934981D01*
X126957075Y-84944358D01*
X126936702Y-84957971D01*
X126930330Y-84963200D01*
X126926029Y-84965499D01*
X126921355Y-84966917D01*
X126910359Y-84968000D01*
X126621641Y-84968000D01*
X126610645Y-84966917D01*
X126605971Y-84965499D01*
X126601670Y-84963200D01*
X126595298Y-84957971D01*
X126574924Y-84944357D01*
X126552285Y-84934980D01*
X126528251Y-84930200D01*
X126503747Y-84930200D01*
X126479714Y-84934981D01*
X126457075Y-84944358D01*
X126436702Y-84957971D01*
X126430330Y-84963200D01*
X126426029Y-84965499D01*
X126421355Y-84966917D01*
X126410359Y-84968000D01*
X126121641Y-84968000D01*
X126110645Y-84966917D01*
X126105971Y-84965499D01*
X126101669Y-84963200D01*
X126097896Y-84960104D01*
X126094800Y-84956331D01*
X126092501Y-84952029D01*
X126091083Y-84947355D01*
X126090000Y-84936359D01*
X126090000Y-84092999D01*
X126087598Y-84068613D01*
X126080485Y-84045164D01*
X126068934Y-84023553D01*
X126053389Y-84004611D01*
X126034447Y-83989066D01*
X126012836Y-83977515D01*
X125989387Y-83970402D01*
X125965001Y-83968000D01*
X125121641Y-83968000D01*
X125110645Y-83966917D01*
X125105971Y-83965499D01*
X125101669Y-83963200D01*
X125097896Y-83960104D01*
X125094800Y-83956331D01*
X125092501Y-83952029D01*
X125091083Y-83947355D01*
X125090000Y-83936359D01*
X125090000Y-83647641D01*
X125091083Y-83636645D01*
X125092501Y-83631971D01*
X125094800Y-83627670D01*
X125100029Y-83621298D01*
X125113643Y-83600924D01*
X125123020Y-83578285D01*
X125127800Y-83554251D01*
X125127800Y-83529747D01*
X125123019Y-83505714D01*
X125113642Y-83483075D01*
X125100029Y-83462702D01*
X125094800Y-83456330D01*
X125092501Y-83452029D01*
X125091083Y-83447355D01*
X125090000Y-83436359D01*
X125090000Y-83147641D01*
X125091083Y-83136645D01*
X125092501Y-83131971D01*
X125094800Y-83127670D01*
X125100029Y-83121298D01*
X125113643Y-83100924D01*
X125123020Y-83078285D01*
X125127800Y-83054251D01*
X125127800Y-83029747D01*
X125123019Y-83005714D01*
X125113642Y-82983075D01*
X125100029Y-82962702D01*
X125094800Y-82956330D01*
X125092501Y-82952029D01*
X125091083Y-82947355D01*
X125090000Y-82936359D01*
X125090000Y-82647641D01*
X125091083Y-82636645D01*
X125092501Y-82631971D01*
X125094800Y-82627670D01*
X125100029Y-82621298D01*
X125113643Y-82600924D01*
X125123020Y-82578285D01*
X125127800Y-82554251D01*
X125127800Y-82529747D01*
X125123019Y-82505714D01*
X125113642Y-82483075D01*
X125100029Y-82462702D01*
X125094800Y-82456330D01*
X125092501Y-82452029D01*
X125091083Y-82447355D01*
X125090000Y-82436359D01*
X125090000Y-82147641D01*
X125091083Y-82136645D01*
X125092501Y-82131971D01*
X125094800Y-82127670D01*
X125100029Y-82121298D01*
X125113643Y-82100924D01*
X125123020Y-82078285D01*
X125127800Y-82054251D01*
X125127800Y-82029747D01*
X125123019Y-82005714D01*
X125113642Y-81983075D01*
X125100029Y-81962702D01*
X125094800Y-81956330D01*
X125092501Y-81952029D01*
X125091083Y-81947355D01*
X125090000Y-81936359D01*
X125090000Y-81647641D01*
X125091083Y-81636645D01*
X125092501Y-81631971D01*
X125094800Y-81627670D01*
X125100029Y-81621298D01*
X125113643Y-81600924D01*
X125123020Y-81578285D01*
X125127800Y-81554251D01*
X125127800Y-81529747D01*
X125123019Y-81505714D01*
X125113642Y-81483075D01*
X125100029Y-81462702D01*
X125094800Y-81456330D01*
X125092501Y-81452029D01*
X125091083Y-81447355D01*
X125090000Y-81436359D01*
X125090000Y-81147641D01*
X125091083Y-81136645D01*
X125092501Y-81131971D01*
X125094800Y-81127670D01*
X125100029Y-81121298D01*
X125113643Y-81100924D01*
X125123020Y-81078285D01*
X125127800Y-81054251D01*
X125127800Y-81029747D01*
X125123019Y-81005714D01*
X125113642Y-80983075D01*
X125100029Y-80962702D01*
X125094800Y-80956330D01*
X125092501Y-80952029D01*
X125091083Y-80947355D01*
X125090000Y-80936359D01*
X125090000Y-80647641D01*
X125091083Y-80636645D01*
X125092501Y-80631971D01*
X125094800Y-80627670D01*
X125100029Y-80621298D01*
X125113643Y-80600924D01*
X125123020Y-80578285D01*
X125127800Y-80554251D01*
X125127800Y-80529749D01*
X126029200Y-80529749D01*
X126029200Y-80554253D01*
X126033981Y-80578286D01*
X126043358Y-80600925D01*
X126056971Y-80621298D01*
X126062200Y-80627670D01*
X126064499Y-80631971D01*
X126065917Y-80636645D01*
X126067000Y-80647641D01*
X126067000Y-80936359D01*
X126065917Y-80947355D01*
X126064499Y-80952029D01*
X126062200Y-80956330D01*
X126056971Y-80962702D01*
X126043357Y-80983076D01*
X126033980Y-81005715D01*
X126029200Y-81029749D01*
X126029200Y-81054253D01*
X126033981Y-81078286D01*
X126043358Y-81100925D01*
X126056971Y-81121298D01*
X126062200Y-81127670D01*
X126064499Y-81131971D01*
X126065917Y-81136645D01*
X126067000Y-81147641D01*
X126067000Y-81436359D01*
X126065917Y-81447355D01*
X126064499Y-81452029D01*
X126062200Y-81456330D01*
X126056971Y-81462702D01*
X126043357Y-81483076D01*
X126033980Y-81505715D01*
X126029200Y-81529749D01*
X126029200Y-81554253D01*
X126033981Y-81578286D01*
X126043358Y-81600925D01*
X126056971Y-81621298D01*
X126062200Y-81627670D01*
X126064499Y-81631971D01*
X126065917Y-81636645D01*
X126067000Y-81647641D01*
X126067000Y-81936359D01*
X126065917Y-81947355D01*
X126064499Y-81952029D01*
X126062200Y-81956330D01*
X126056971Y-81962702D01*
X126043357Y-81983076D01*
X126033980Y-82005715D01*
X126029200Y-82029749D01*
X126029200Y-82054253D01*
X126033981Y-82078286D01*
X126043358Y-82100925D01*
X126056971Y-82121298D01*
X126062200Y-82127670D01*
X126064499Y-82131971D01*
X126065917Y-82136645D01*
X126067000Y-82147641D01*
X126067000Y-82436359D01*
X126065917Y-82447355D01*
X126064499Y-82452029D01*
X126062200Y-82456330D01*
X126056971Y-82462702D01*
X126043357Y-82483076D01*
X126033980Y-82505715D01*
X126029200Y-82529749D01*
X126029200Y-82554253D01*
X126033981Y-82578286D01*
X126043358Y-82600925D01*
X126056971Y-82621298D01*
X126062200Y-82627670D01*
X126064499Y-82631971D01*
X126065917Y-82636645D01*
X126067000Y-82647641D01*
X126067000Y-82936359D01*
X126065917Y-82947355D01*
X126064499Y-82952029D01*
X126062200Y-82956330D01*
X126056971Y-82962702D01*
X126043357Y-82983076D01*
X126033980Y-83005715D01*
X126029200Y-83029749D01*
X126029200Y-83054253D01*
X126033981Y-83078286D01*
X126043358Y-83100925D01*
X126056971Y-83121298D01*
X126062200Y-83127670D01*
X126064499Y-83131971D01*
X126065917Y-83136645D01*
X126067000Y-83147641D01*
X126067000Y-83436359D01*
X126065917Y-83447355D01*
X126064499Y-83452029D01*
X126062200Y-83456330D01*
X126056971Y-83462702D01*
X126043357Y-83483076D01*
X126033980Y-83505715D01*
X126029200Y-83529749D01*
X126029200Y-83554253D01*
X126033981Y-83578286D01*
X126043358Y-83600925D01*
X126056971Y-83621298D01*
X126062200Y-83627670D01*
X126064499Y-83631971D01*
X126065917Y-83636645D01*
X126067000Y-83647641D01*
X126067000Y-83866001D01*
X126069402Y-83890387D01*
X126076515Y-83913836D01*
X126088066Y-83935447D01*
X126103611Y-83954389D01*
X126122553Y-83969934D01*
X126144164Y-83981485D01*
X126167613Y-83988598D01*
X126191999Y-83991000D01*
X126410359Y-83991000D01*
X126421355Y-83992083D01*
X126426029Y-83993501D01*
X126430330Y-83995800D01*
X126436702Y-84001029D01*
X126457076Y-84014643D01*
X126479715Y-84024020D01*
X126503749Y-84028800D01*
X126528253Y-84028800D01*
X126552286Y-84024019D01*
X126574925Y-84014642D01*
X126595298Y-84001029D01*
X126601670Y-83995800D01*
X126605971Y-83993501D01*
X126610645Y-83992083D01*
X126621641Y-83991000D01*
X126910359Y-83991000D01*
X126921355Y-83992083D01*
X126926029Y-83993501D01*
X126930330Y-83995800D01*
X126936702Y-84001029D01*
X126957076Y-84014643D01*
X126979715Y-84024020D01*
X127003749Y-84028800D01*
X127028253Y-84028800D01*
X127052286Y-84024019D01*
X127074925Y-84014642D01*
X127095298Y-84001029D01*
X127101670Y-83995800D01*
X127105971Y-83993501D01*
X127110645Y-83992083D01*
X127121641Y-83991000D01*
X127410359Y-83991000D01*
X127421355Y-83992083D01*
X127426029Y-83993501D01*
X127430330Y-83995800D01*
X127436702Y-84001029D01*
X127457076Y-84014643D01*
X127479715Y-84024020D01*
X127503749Y-84028800D01*
X127528253Y-84028800D01*
X127552286Y-84024019D01*
X127574925Y-84014642D01*
X127595298Y-84001029D01*
X127601670Y-83995800D01*
X127605971Y-83993501D01*
X127610645Y-83992083D01*
X127621641Y-83991000D01*
X127910359Y-83991000D01*
X127921355Y-83992083D01*
X127926029Y-83993501D01*
X127930330Y-83995800D01*
X127936702Y-84001029D01*
X127957076Y-84014643D01*
X127979715Y-84024020D01*
X128003749Y-84028800D01*
X128028253Y-84028800D01*
X128052286Y-84024019D01*
X128074925Y-84014642D01*
X128095298Y-84001029D01*
X128101670Y-83995800D01*
X128105971Y-83993501D01*
X128110645Y-83992083D01*
X128121641Y-83991000D01*
X128410359Y-83991000D01*
X128421355Y-83992083D01*
X128426029Y-83993501D01*
X128430330Y-83995800D01*
X128436702Y-84001029D01*
X128457076Y-84014643D01*
X128479715Y-84024020D01*
X128503749Y-84028800D01*
X128528253Y-84028800D01*
X128552286Y-84024019D01*
X128574925Y-84014642D01*
X128595298Y-84001029D01*
X128601670Y-83995800D01*
X128605971Y-83993501D01*
X128610645Y-83992083D01*
X128621641Y-83991000D01*
X128910359Y-83991000D01*
X128921355Y-83992083D01*
X128926029Y-83993501D01*
X128930330Y-83995800D01*
X128936702Y-84001029D01*
X128957076Y-84014643D01*
X128979715Y-84024020D01*
X129003749Y-84028800D01*
X129028253Y-84028800D01*
X129052286Y-84024019D01*
X129074925Y-84014642D01*
X129095298Y-84001029D01*
X129101670Y-83995800D01*
X129105971Y-83993501D01*
X129110645Y-83992083D01*
X129121641Y-83991000D01*
X129410359Y-83991000D01*
X129421355Y-83992083D01*
X129426029Y-83993501D01*
X129430330Y-83995800D01*
X129436702Y-84001029D01*
X129457076Y-84014643D01*
X129479715Y-84024020D01*
X129503749Y-84028800D01*
X129528253Y-84028800D01*
X129552286Y-84024019D01*
X129574925Y-84014642D01*
X129595298Y-84001029D01*
X129601670Y-83995800D01*
X129605971Y-83993501D01*
X129610645Y-83992083D01*
X129621641Y-83991000D01*
X129840001Y-83991000D01*
X129864387Y-83988598D01*
X129887836Y-83981485D01*
X129909447Y-83969934D01*
X129928389Y-83954389D01*
X129943934Y-83935447D01*
X129955485Y-83913836D01*
X129962598Y-83890387D01*
X129965000Y-83866001D01*
X129965000Y-83647641D01*
X129966083Y-83636645D01*
X129967501Y-83631971D01*
X129969800Y-83627670D01*
X129975029Y-83621298D01*
X129988643Y-83600924D01*
X129998020Y-83578285D01*
X130002800Y-83554251D01*
X130002800Y-83529747D01*
X129998019Y-83505714D01*
X129988642Y-83483075D01*
X129975029Y-83462702D01*
X129969800Y-83456330D01*
X129967501Y-83452029D01*
X129966083Y-83447355D01*
X129965000Y-83436359D01*
X129965000Y-83147641D01*
X129966083Y-83136645D01*
X129967501Y-83131971D01*
X129969800Y-83127670D01*
X129975029Y-83121298D01*
X129988643Y-83100924D01*
X129998020Y-83078285D01*
X130002800Y-83054251D01*
X130002800Y-83029747D01*
X129998019Y-83005714D01*
X129988642Y-82983075D01*
X129975029Y-82962702D01*
X129969800Y-82956330D01*
X129967501Y-82952029D01*
X129966083Y-82947355D01*
X129965000Y-82936359D01*
X129965000Y-82647641D01*
X129966083Y-82636645D01*
X129967501Y-82631971D01*
X129969800Y-82627670D01*
X129975029Y-82621298D01*
X129988643Y-82600924D01*
X129998020Y-82578285D01*
X130002800Y-82554251D01*
X130002800Y-82529747D01*
X129998019Y-82505714D01*
X129988642Y-82483075D01*
X129975029Y-82462702D01*
X129969800Y-82456330D01*
X129967501Y-82452029D01*
X129966083Y-82447355D01*
X129965000Y-82436359D01*
X129965000Y-82147641D01*
X129966083Y-82136645D01*
X129967501Y-82131971D01*
X129969800Y-82127670D01*
X129975029Y-82121298D01*
X129988643Y-82100924D01*
X129998020Y-82078285D01*
X130002800Y-82054251D01*
X130002800Y-82029747D01*
X129998019Y-82005714D01*
X129988642Y-81983075D01*
X129975029Y-81962702D01*
X129969800Y-81956330D01*
X129967501Y-81952029D01*
X129966083Y-81947355D01*
X129965000Y-81936359D01*
X129965000Y-81647641D01*
X129966083Y-81636645D01*
X129967501Y-81631971D01*
X129969800Y-81627670D01*
X129975029Y-81621298D01*
X129988643Y-81600924D01*
X129998020Y-81578285D01*
X130002800Y-81554251D01*
X130002800Y-81529747D01*
X129998019Y-81505714D01*
X129988642Y-81483075D01*
X129975029Y-81462702D01*
X129969800Y-81456330D01*
X129967501Y-81452029D01*
X129966083Y-81447355D01*
X129965000Y-81436359D01*
X129965000Y-81147641D01*
X129966083Y-81136645D01*
X129967501Y-81131971D01*
X129969800Y-81127670D01*
X129975029Y-81121298D01*
X129988643Y-81100924D01*
X129998020Y-81078285D01*
X130002800Y-81054251D01*
X130002800Y-81029747D01*
X129998019Y-81005714D01*
X129988642Y-80983075D01*
X129975029Y-80962702D01*
X129969800Y-80956330D01*
X129967501Y-80952029D01*
X129966083Y-80947355D01*
X129965000Y-80936359D01*
X129965000Y-80647641D01*
X129966083Y-80636645D01*
X129967501Y-80631971D01*
X129969800Y-80627670D01*
X129975029Y-80621298D01*
X129988643Y-80600924D01*
X129998020Y-80578285D01*
X130002800Y-80554251D01*
X130002800Y-80529747D01*
X129998019Y-80505714D01*
X129988642Y-80483075D01*
X129975029Y-80462702D01*
X129969800Y-80456330D01*
X129967501Y-80452029D01*
X129966083Y-80447355D01*
X129965000Y-80436359D01*
X129965000Y-80217999D01*
X129962598Y-80193613D01*
X129955485Y-80170164D01*
X129943934Y-80148553D01*
X129928389Y-80129611D01*
X129909447Y-80114066D01*
X129887836Y-80102515D01*
X129864387Y-80095402D01*
X129840001Y-80093000D01*
X129621641Y-80093000D01*
X129610645Y-80091917D01*
X129605971Y-80090499D01*
X129601670Y-80088200D01*
X129595298Y-80082971D01*
X129574924Y-80069357D01*
X129552285Y-80059980D01*
X129528251Y-80055200D01*
X129503747Y-80055200D01*
X129479714Y-80059981D01*
X129457075Y-80069358D01*
X129436702Y-80082971D01*
X129430330Y-80088200D01*
X129426029Y-80090499D01*
X129421355Y-80091917D01*
X129410359Y-80093000D01*
X129121641Y-80093000D01*
X129110645Y-80091917D01*
X129105971Y-80090499D01*
X129101670Y-80088200D01*
X129095298Y-80082971D01*
X129074924Y-80069357D01*
X129052285Y-80059980D01*
X129028251Y-80055200D01*
X129003747Y-80055200D01*
X128979714Y-80059981D01*
X128957075Y-80069358D01*
X128936702Y-80082971D01*
X128930330Y-80088200D01*
X128926029Y-80090499D01*
X128921355Y-80091917D01*
X128910359Y-80093000D01*
X128621641Y-80093000D01*
X128610645Y-80091917D01*
X128605971Y-80090499D01*
X128601670Y-80088200D01*
X128595298Y-80082971D01*
X128574924Y-80069357D01*
X128552285Y-80059980D01*
X128528251Y-80055200D01*
X128503747Y-80055200D01*
X128479714Y-80059981D01*
X128457075Y-80069358D01*
X128436702Y-80082971D01*
X128430330Y-80088200D01*
X128426029Y-80090499D01*
X128421355Y-80091917D01*
X128410359Y-80093000D01*
X128121641Y-80093000D01*
X128110645Y-80091917D01*
X128105971Y-80090499D01*
X128101670Y-80088200D01*
X128095298Y-80082971D01*
X128074924Y-80069357D01*
X128052285Y-80059980D01*
X128028251Y-80055200D01*
X128003747Y-80055200D01*
X127979714Y-80059981D01*
X127957075Y-80069358D01*
X127936702Y-80082971D01*
X127930330Y-80088200D01*
X127926029Y-80090499D01*
X127921355Y-80091917D01*
X127910359Y-80093000D01*
X127621641Y-80093000D01*
X127610645Y-80091917D01*
X127605971Y-80090499D01*
X127601670Y-80088200D01*
X127595298Y-80082971D01*
X127574924Y-80069357D01*
X127552285Y-80059980D01*
X127528251Y-80055200D01*
X127503747Y-80055200D01*
X127479714Y-80059981D01*
X127457075Y-80069358D01*
X127436702Y-80082971D01*
X127430330Y-80088200D01*
X127426029Y-80090499D01*
X127421355Y-80091917D01*
X127410359Y-80093000D01*
X127121641Y-80093000D01*
X127110645Y-80091917D01*
X127105971Y-80090499D01*
X127101670Y-80088200D01*
X127095298Y-80082971D01*
X127074924Y-80069357D01*
X127052285Y-80059980D01*
X127028251Y-80055200D01*
X127003747Y-80055200D01*
X126979714Y-80059981D01*
X126957075Y-80069358D01*
X126936702Y-80082971D01*
X126930330Y-80088200D01*
X126926029Y-80090499D01*
X126921355Y-80091917D01*
X126910359Y-80093000D01*
X126621641Y-80093000D01*
X126610645Y-80091917D01*
X126605971Y-80090499D01*
X126601670Y-80088200D01*
X126595298Y-80082971D01*
X126574924Y-80069357D01*
X126552285Y-80059980D01*
X126528251Y-80055200D01*
X126503747Y-80055200D01*
X126479714Y-80059981D01*
X126457075Y-80069358D01*
X126436702Y-80082971D01*
X126430330Y-80088200D01*
X126426029Y-80090499D01*
X126421355Y-80091917D01*
X126410359Y-80093000D01*
X126191999Y-80093000D01*
X126167613Y-80095402D01*
X126144164Y-80102515D01*
X126122553Y-80114066D01*
X126103611Y-80129611D01*
X126088066Y-80148553D01*
X126076515Y-80170164D01*
X126069402Y-80193613D01*
X126067000Y-80217999D01*
X126067000Y-80436359D01*
X126065917Y-80447355D01*
X126064499Y-80452029D01*
X126062200Y-80456330D01*
X126056971Y-80462702D01*
X126043357Y-80483076D01*
X126033980Y-80505715D01*
X126029200Y-80529749D01*
X125127800Y-80529749D01*
X125127800Y-80529747D01*
X125123019Y-80505714D01*
X125113642Y-80483075D01*
X125100029Y-80462702D01*
X125094800Y-80456330D01*
X125092501Y-80452029D01*
X125091083Y-80447355D01*
X125090000Y-80436359D01*
X125090000Y-80147641D01*
X125091083Y-80136645D01*
X125092501Y-80131971D01*
X125094800Y-80127669D01*
X125097896Y-80123896D01*
X125101669Y-80120800D01*
X125105971Y-80118501D01*
X125110645Y-80117083D01*
X125121641Y-80116000D01*
X125965001Y-80116000D01*
X125989387Y-80113598D01*
X126012836Y-80106485D01*
X126034447Y-80094934D01*
X126053389Y-80079389D01*
X126068934Y-80060447D01*
X126080485Y-80038836D01*
X126087598Y-80015387D01*
X126090000Y-79991001D01*
X126090000Y-79147641D01*
X126091083Y-79136645D01*
X126092501Y-79131971D01*
X126094800Y-79127669D01*
X126097896Y-79123896D01*
X126101669Y-79120800D01*
X126105971Y-79118501D01*
X126110645Y-79117083D01*
X126121641Y-79116000D01*
X126410359Y-79116000D01*
X126421355Y-79117083D01*
X126421355Y-79117083D01*
G37*
G36*
X129493417Y-80444540D02*
G01*
X129522081Y-80453235D01*
X129548495Y-80467354D01*
X129571646Y-80486354D01*
X129590646Y-80509505D01*
X129604765Y-80535919D01*
X129613460Y-80564583D01*
X129617000Y-80600527D01*
X129617000Y-83483473D01*
X129613460Y-83519417D01*
X129604765Y-83548081D01*
X129590646Y-83574495D01*
X129571646Y-83597646D01*
X129548495Y-83616646D01*
X129522081Y-83630765D01*
X129493417Y-83639460D01*
X129457473Y-83643000D01*
X126574527Y-83643000D01*
X126538583Y-83639460D01*
X126509919Y-83630765D01*
X126483505Y-83616646D01*
X126460354Y-83597646D01*
X126441354Y-83574495D01*
X126427235Y-83548081D01*
X126418540Y-83519417D01*
X126415000Y-83483473D01*
X126415000Y-80600527D01*
X126418540Y-80564583D01*
X126427235Y-80535919D01*
X126441354Y-80509505D01*
X126460354Y-80486354D01*
X126483505Y-80467354D01*
X126509919Y-80453235D01*
X126538583Y-80444540D01*
X126574527Y-80441000D01*
X129457473Y-80441000D01*
X129493417Y-80444540D01*
X129493417Y-80444540D01*
G37*
G36*
X141584578Y-83792197D02*
G01*
X141637350Y-83802694D01*
X141736770Y-83843875D01*
X141826246Y-83903661D01*
X141902339Y-83979754D01*
X141962125Y-84069230D01*
X142003306Y-84168650D01*
X142008381Y-84194164D01*
X142024300Y-84274193D01*
X142024300Y-84381807D01*
X142017927Y-84413844D01*
X142003306Y-84487350D01*
X141962125Y-84586770D01*
X141902339Y-84676246D01*
X141826246Y-84752339D01*
X141736770Y-84812125D01*
X141637350Y-84853306D01*
X141604325Y-84859875D01*
X141531807Y-84874300D01*
X141424193Y-84874300D01*
X141351675Y-84859875D01*
X141318650Y-84853306D01*
X141219230Y-84812125D01*
X141129754Y-84752339D01*
X141053661Y-84676246D01*
X140993875Y-84586770D01*
X140952694Y-84487350D01*
X140938073Y-84413844D01*
X140931700Y-84381807D01*
X140931700Y-84274193D01*
X140947619Y-84194164D01*
X140952694Y-84168650D01*
X140993875Y-84069230D01*
X141053661Y-83979754D01*
X141129754Y-83903661D01*
X141219230Y-83843875D01*
X141318650Y-83802694D01*
X141371422Y-83792197D01*
X141424193Y-83781700D01*
X141531807Y-83781700D01*
X141584578Y-83792197D01*
X141584578Y-83792197D01*
G37*
G36*
X123175000Y-84579000D02*
G01*
X121173000Y-84579000D01*
X121173000Y-84077000D01*
X123175000Y-84077000D01*
X123175000Y-84579000D01*
X123175000Y-84579000D01*
G37*
G36*
X134393938Y-83753716D02*
G01*
X134414557Y-83759971D01*
X134433553Y-83770124D01*
X134450208Y-83783792D01*
X134463876Y-83800447D01*
X134474029Y-83819443D01*
X134480284Y-83840062D01*
X134483000Y-83867640D01*
X134483000Y-84326360D01*
X134480284Y-84353938D01*
X134474029Y-84374557D01*
X134463876Y-84393553D01*
X134450208Y-84410208D01*
X134433553Y-84423876D01*
X134414557Y-84434029D01*
X134393938Y-84440284D01*
X134366360Y-84443000D01*
X133857640Y-84443000D01*
X133830062Y-84440284D01*
X133809443Y-84434029D01*
X133790447Y-84423876D01*
X133773792Y-84410208D01*
X133760124Y-84393553D01*
X133749971Y-84374557D01*
X133743716Y-84353938D01*
X133741000Y-84326360D01*
X133741000Y-83867640D01*
X133743716Y-83840062D01*
X133749971Y-83819443D01*
X133760124Y-83800447D01*
X133773792Y-83783792D01*
X133790447Y-83770124D01*
X133809443Y-83759971D01*
X133830062Y-83753716D01*
X133857640Y-83751000D01*
X134366360Y-83751000D01*
X134393938Y-83753716D01*
X134393938Y-83753716D01*
G37*
G36*
X133377938Y-83753716D02*
G01*
X133398557Y-83759971D01*
X133417553Y-83770124D01*
X133434208Y-83783792D01*
X133447876Y-83800447D01*
X133458029Y-83819443D01*
X133464284Y-83840062D01*
X133467000Y-83867640D01*
X133467000Y-84326360D01*
X133464284Y-84353938D01*
X133458029Y-84374557D01*
X133447876Y-84393553D01*
X133434208Y-84410208D01*
X133417553Y-84423876D01*
X133398557Y-84434029D01*
X133377938Y-84440284D01*
X133350360Y-84443000D01*
X132841640Y-84443000D01*
X132814062Y-84440284D01*
X132793443Y-84434029D01*
X132774447Y-84423876D01*
X132757792Y-84410208D01*
X132744124Y-84393553D01*
X132733971Y-84374557D01*
X132727716Y-84353938D01*
X132725000Y-84326360D01*
X132725000Y-83867640D01*
X132727716Y-83840062D01*
X132733971Y-83819443D01*
X132744124Y-83800447D01*
X132757792Y-83783792D01*
X132774447Y-83770124D01*
X132793443Y-83759971D01*
X132814062Y-83753716D01*
X132841640Y-83751000D01*
X133350360Y-83751000D01*
X133377938Y-83753716D01*
X133377938Y-83753716D01*
G37*
G36*
X123175000Y-83379000D02*
G01*
X121173000Y-83379000D01*
X121173000Y-82877000D01*
X123175000Y-82877000D01*
X123175000Y-83379000D01*
X123175000Y-83379000D01*
G37*
G36*
X142755000Y-82681000D02*
G01*
X142203000Y-82681000D01*
X142203000Y-81879000D01*
X142755000Y-81879000D01*
X142755000Y-82681000D01*
X142755000Y-82681000D01*
G37*
G36*
X144055000Y-82681000D02*
G01*
X143503000Y-82681000D01*
X143503000Y-81879000D01*
X144055000Y-81879000D01*
X144055000Y-82681000D01*
X144055000Y-82681000D01*
G37*
G36*
X145569938Y-81929716D02*
G01*
X145590557Y-81935971D01*
X145609553Y-81946124D01*
X145626208Y-81959792D01*
X145639876Y-81976447D01*
X145650029Y-81995443D01*
X145656284Y-82016062D01*
X145659000Y-82043640D01*
X145659000Y-82502360D01*
X145656284Y-82529938D01*
X145650029Y-82550557D01*
X145639876Y-82569553D01*
X145626208Y-82586208D01*
X145609553Y-82599876D01*
X145590557Y-82610029D01*
X145569938Y-82616284D01*
X145542360Y-82619000D01*
X145033640Y-82619000D01*
X145006062Y-82616284D01*
X144985443Y-82610029D01*
X144966447Y-82599876D01*
X144949792Y-82586208D01*
X144936124Y-82569553D01*
X144925971Y-82550557D01*
X144919716Y-82529938D01*
X144917000Y-82502360D01*
X144917000Y-82043640D01*
X144919716Y-82016062D01*
X144925971Y-81995443D01*
X144936124Y-81976447D01*
X144949792Y-81959792D01*
X144966447Y-81946124D01*
X144985443Y-81935971D01*
X145006062Y-81929716D01*
X145033640Y-81927000D01*
X145542360Y-81927000D01*
X145569938Y-81929716D01*
X145569938Y-81929716D01*
G37*
G36*
X140997938Y-81929716D02*
G01*
X141018557Y-81935971D01*
X141037553Y-81946124D01*
X141054208Y-81959792D01*
X141067876Y-81976447D01*
X141078029Y-81995443D01*
X141084284Y-82016062D01*
X141087000Y-82043640D01*
X141087000Y-82502360D01*
X141084284Y-82529938D01*
X141078029Y-82550557D01*
X141067876Y-82569553D01*
X141054208Y-82586208D01*
X141037553Y-82599876D01*
X141018557Y-82610029D01*
X140997938Y-82616284D01*
X140970360Y-82619000D01*
X140461640Y-82619000D01*
X140434062Y-82616284D01*
X140413443Y-82610029D01*
X140394447Y-82599876D01*
X140377792Y-82586208D01*
X140364124Y-82569553D01*
X140353971Y-82550557D01*
X140347716Y-82529938D01*
X140345000Y-82502360D01*
X140345000Y-82043640D01*
X140347716Y-82016062D01*
X140353971Y-81995443D01*
X140364124Y-81976447D01*
X140377792Y-81959792D01*
X140394447Y-81946124D01*
X140413443Y-81935971D01*
X140434062Y-81929716D01*
X140461640Y-81927000D01*
X140970360Y-81927000D01*
X140997938Y-81929716D01*
X140997938Y-81929716D01*
G37*
G36*
X136565355Y-78364083D02*
G01*
X136570029Y-78365501D01*
X136574330Y-78367800D01*
X136580702Y-78373029D01*
X136601076Y-78386643D01*
X136623715Y-78396020D01*
X136647749Y-78400800D01*
X136672253Y-78400800D01*
X136696286Y-78396019D01*
X136718925Y-78386642D01*
X136739298Y-78373029D01*
X136745670Y-78367800D01*
X136749971Y-78365501D01*
X136754645Y-78364083D01*
X136765641Y-78363000D01*
X137054359Y-78363000D01*
X137065355Y-78364083D01*
X137070029Y-78365501D01*
X137074330Y-78367800D01*
X137080702Y-78373029D01*
X137101076Y-78386643D01*
X137123715Y-78396020D01*
X137147749Y-78400800D01*
X137172253Y-78400800D01*
X137196286Y-78396019D01*
X137218925Y-78386642D01*
X137239298Y-78373029D01*
X137245670Y-78367800D01*
X137249971Y-78365501D01*
X137254645Y-78364083D01*
X137265641Y-78363000D01*
X137554359Y-78363000D01*
X137565355Y-78364083D01*
X137570029Y-78365501D01*
X137574330Y-78367800D01*
X137580702Y-78373029D01*
X137601076Y-78386643D01*
X137623715Y-78396020D01*
X137647749Y-78400800D01*
X137672253Y-78400800D01*
X137696286Y-78396019D01*
X137718925Y-78386642D01*
X137739298Y-78373029D01*
X137745670Y-78367800D01*
X137749971Y-78365501D01*
X137754645Y-78364083D01*
X137765641Y-78363000D01*
X138054359Y-78363000D01*
X138065355Y-78364083D01*
X138070029Y-78365501D01*
X138074331Y-78367800D01*
X138078104Y-78370896D01*
X138081200Y-78374669D01*
X138083499Y-78378971D01*
X138084917Y-78383645D01*
X138086000Y-78394641D01*
X138086000Y-79213001D01*
X138088402Y-79237387D01*
X138095515Y-79260836D01*
X138107066Y-79282447D01*
X138122611Y-79301389D01*
X138141553Y-79316934D01*
X138163164Y-79328485D01*
X138186613Y-79335598D01*
X138210999Y-79338000D01*
X139029359Y-79338000D01*
X139040355Y-79339083D01*
X139045029Y-79340501D01*
X139049331Y-79342800D01*
X139053104Y-79345896D01*
X139056200Y-79349669D01*
X139058499Y-79353971D01*
X139059917Y-79358645D01*
X139061000Y-79369641D01*
X139061000Y-79658359D01*
X139059917Y-79669355D01*
X139058499Y-79674029D01*
X139056200Y-79678330D01*
X139050971Y-79684702D01*
X139037357Y-79705076D01*
X139027980Y-79727715D01*
X139023200Y-79751749D01*
X139023200Y-79776253D01*
X139027981Y-79800286D01*
X139037358Y-79822925D01*
X139050971Y-79843298D01*
X139056200Y-79849670D01*
X139058499Y-79853971D01*
X139059917Y-79858645D01*
X139061000Y-79869641D01*
X139061000Y-80158359D01*
X139059917Y-80169355D01*
X139058499Y-80174029D01*
X139056200Y-80178330D01*
X139050971Y-80184702D01*
X139037357Y-80205076D01*
X139027980Y-80227715D01*
X139023200Y-80251749D01*
X139023200Y-80276253D01*
X139027981Y-80300286D01*
X139037358Y-80322925D01*
X139050971Y-80343298D01*
X139056200Y-80349670D01*
X139058499Y-80353971D01*
X139059917Y-80358645D01*
X139061000Y-80369641D01*
X139061000Y-80658359D01*
X139059917Y-80669355D01*
X139058499Y-80674029D01*
X139056200Y-80678330D01*
X139050971Y-80684702D01*
X139037357Y-80705076D01*
X139027980Y-80727715D01*
X139023200Y-80751749D01*
X139023200Y-80776253D01*
X139027981Y-80800286D01*
X139037358Y-80822925D01*
X139050971Y-80843298D01*
X139056200Y-80849670D01*
X139058499Y-80853971D01*
X139059917Y-80858645D01*
X139061000Y-80869641D01*
X139061000Y-81158359D01*
X139059917Y-81169355D01*
X139058499Y-81174029D01*
X139056200Y-81178331D01*
X139053104Y-81182104D01*
X139049331Y-81185200D01*
X139045029Y-81187499D01*
X139040355Y-81188917D01*
X139029359Y-81190000D01*
X138210999Y-81190000D01*
X138186613Y-81192402D01*
X138163164Y-81199515D01*
X138141553Y-81211066D01*
X138122611Y-81226611D01*
X138107066Y-81245553D01*
X138095515Y-81267164D01*
X138088402Y-81290613D01*
X138086000Y-81314999D01*
X138086000Y-82133359D01*
X138084917Y-82144355D01*
X138083499Y-82149029D01*
X138081200Y-82153331D01*
X138078104Y-82157104D01*
X138074331Y-82160200D01*
X138070029Y-82162499D01*
X138065355Y-82163917D01*
X138054359Y-82165000D01*
X137765641Y-82165000D01*
X137754645Y-82163917D01*
X137749971Y-82162499D01*
X137745670Y-82160200D01*
X137739298Y-82154971D01*
X137718924Y-82141357D01*
X137696285Y-82131980D01*
X137672251Y-82127200D01*
X137647747Y-82127200D01*
X137623714Y-82131981D01*
X137601075Y-82141358D01*
X137580702Y-82154971D01*
X137574330Y-82160200D01*
X137570029Y-82162499D01*
X137565355Y-82163917D01*
X137554359Y-82165000D01*
X137265641Y-82165000D01*
X137254645Y-82163917D01*
X137249971Y-82162499D01*
X137245670Y-82160200D01*
X137239298Y-82154971D01*
X137218924Y-82141357D01*
X137196285Y-82131980D01*
X137172251Y-82127200D01*
X137147747Y-82127200D01*
X137123714Y-82131981D01*
X137101075Y-82141358D01*
X137080702Y-82154971D01*
X137074330Y-82160200D01*
X137070029Y-82162499D01*
X137065355Y-82163917D01*
X137054359Y-82165000D01*
X136765641Y-82165000D01*
X136754645Y-82163917D01*
X136749971Y-82162499D01*
X136745670Y-82160200D01*
X136739298Y-82154971D01*
X136718924Y-82141357D01*
X136696285Y-82131980D01*
X136672251Y-82127200D01*
X136647747Y-82127200D01*
X136623714Y-82131981D01*
X136601075Y-82141358D01*
X136580702Y-82154971D01*
X136574330Y-82160200D01*
X136570029Y-82162499D01*
X136565355Y-82163917D01*
X136554359Y-82165000D01*
X136265641Y-82165000D01*
X136254645Y-82163917D01*
X136249971Y-82162499D01*
X136245669Y-82160200D01*
X136241896Y-82157104D01*
X136238800Y-82153331D01*
X136236501Y-82149029D01*
X136235083Y-82144355D01*
X136234000Y-82133359D01*
X136234000Y-81314999D01*
X136231598Y-81290613D01*
X136224485Y-81267164D01*
X136212934Y-81245553D01*
X136197389Y-81226611D01*
X136178447Y-81211066D01*
X136156836Y-81199515D01*
X136133387Y-81192402D01*
X136109001Y-81190000D01*
X135290641Y-81190000D01*
X135279645Y-81188917D01*
X135274971Y-81187499D01*
X135270669Y-81185200D01*
X135266896Y-81182104D01*
X135263800Y-81178331D01*
X135261501Y-81174029D01*
X135260083Y-81169355D01*
X135259000Y-81158359D01*
X135259000Y-80869641D01*
X135260083Y-80858645D01*
X135261501Y-80853971D01*
X135263800Y-80849670D01*
X135269029Y-80843298D01*
X135282643Y-80822924D01*
X135292020Y-80800285D01*
X135296800Y-80776251D01*
X135296800Y-80751747D01*
X135292019Y-80727714D01*
X135282642Y-80705075D01*
X135269029Y-80684702D01*
X135263800Y-80678330D01*
X135261501Y-80674029D01*
X135260083Y-80669355D01*
X135259000Y-80658359D01*
X135259000Y-80369641D01*
X135260083Y-80358645D01*
X135261501Y-80353971D01*
X135263800Y-80349670D01*
X135269029Y-80343298D01*
X135282643Y-80322924D01*
X135292020Y-80300285D01*
X135296800Y-80276251D01*
X135296800Y-80251747D01*
X135292019Y-80227714D01*
X135282642Y-80205075D01*
X135269029Y-80184702D01*
X135263800Y-80178330D01*
X135261501Y-80174029D01*
X135260083Y-80169355D01*
X135259000Y-80158359D01*
X135259000Y-79869641D01*
X135260083Y-79858645D01*
X135261501Y-79853971D01*
X135263800Y-79849670D01*
X135269029Y-79843298D01*
X135282643Y-79822924D01*
X135292020Y-79800285D01*
X135296800Y-79776251D01*
X135296800Y-79751747D01*
X135292019Y-79727714D01*
X135282642Y-79705075D01*
X135269029Y-79684702D01*
X135263800Y-79678330D01*
X135261501Y-79674029D01*
X135260083Y-79669355D01*
X135259000Y-79658359D01*
X135259000Y-79369641D01*
X135260083Y-79358645D01*
X135261501Y-79353971D01*
X135263800Y-79349669D01*
X135266896Y-79345896D01*
X135270669Y-79342800D01*
X135274971Y-79340501D01*
X135279645Y-79339083D01*
X135290641Y-79338000D01*
X136109001Y-79338000D01*
X136133387Y-79335598D01*
X136156836Y-79328485D01*
X136178447Y-79316934D01*
X136197389Y-79301389D01*
X136212934Y-79282447D01*
X136224485Y-79260836D01*
X136231598Y-79237387D01*
X136234000Y-79213001D01*
X136234000Y-78394641D01*
X136235083Y-78383645D01*
X136236501Y-78378971D01*
X136238800Y-78374669D01*
X136241896Y-78370896D01*
X136245669Y-78367800D01*
X136249971Y-78365501D01*
X136254645Y-78364083D01*
X136265641Y-78363000D01*
X136554359Y-78363000D01*
X136565355Y-78364083D01*
X136565355Y-78364083D01*
G37*
G36*
X152327000Y-81909000D02*
G01*
X149425000Y-81909000D01*
X149425000Y-80507000D01*
X152327000Y-80507000D01*
X152327000Y-81909000D01*
X152327000Y-81909000D01*
G37*
G36*
X123169938Y-81165716D02*
G01*
X123190557Y-81171971D01*
X123209553Y-81182124D01*
X123226208Y-81195792D01*
X123239876Y-81212447D01*
X123250029Y-81231443D01*
X123256284Y-81252062D01*
X123259000Y-81279640D01*
X123259000Y-81788360D01*
X123256284Y-81815938D01*
X123250029Y-81836557D01*
X123239876Y-81855553D01*
X123226208Y-81872208D01*
X123209553Y-81885876D01*
X123190557Y-81896029D01*
X123169938Y-81902284D01*
X123142360Y-81905000D01*
X122683640Y-81905000D01*
X122656062Y-81902284D01*
X122635443Y-81896029D01*
X122616447Y-81885876D01*
X122599792Y-81872208D01*
X122586124Y-81855553D01*
X122575971Y-81836557D01*
X122569716Y-81815938D01*
X122567000Y-81788360D01*
X122567000Y-81279640D01*
X122569716Y-81252062D01*
X122575971Y-81231443D01*
X122586124Y-81212447D01*
X122599792Y-81195792D01*
X122616447Y-81182124D01*
X122635443Y-81171971D01*
X122656062Y-81165716D01*
X122683640Y-81163000D01*
X123142360Y-81163000D01*
X123169938Y-81165716D01*
X123169938Y-81165716D01*
G37*
G36*
X122199938Y-81165716D02*
G01*
X122220557Y-81171971D01*
X122239553Y-81182124D01*
X122256208Y-81195792D01*
X122269876Y-81212447D01*
X122280029Y-81231443D01*
X122286284Y-81252062D01*
X122289000Y-81279640D01*
X122289000Y-81788360D01*
X122286284Y-81815938D01*
X122280029Y-81836557D01*
X122269876Y-81855553D01*
X122256208Y-81872208D01*
X122239553Y-81885876D01*
X122220557Y-81896029D01*
X122199938Y-81902284D01*
X122172360Y-81905000D01*
X121713640Y-81905000D01*
X121686062Y-81902284D01*
X121665443Y-81896029D01*
X121646447Y-81885876D01*
X121629792Y-81872208D01*
X121616124Y-81855553D01*
X121605971Y-81836557D01*
X121599716Y-81815938D01*
X121597000Y-81788360D01*
X121597000Y-81279640D01*
X121599716Y-81252062D01*
X121605971Y-81231443D01*
X121616124Y-81212447D01*
X121629792Y-81195792D01*
X121646447Y-81182124D01*
X121665443Y-81171971D01*
X121686062Y-81165716D01*
X121713640Y-81163000D01*
X122172360Y-81163000D01*
X122199938Y-81165716D01*
X122199938Y-81165716D01*
G37*
G36*
X145569938Y-80959716D02*
G01*
X145590557Y-80965971D01*
X145609553Y-80976124D01*
X145626208Y-80989792D01*
X145639876Y-81006447D01*
X145650029Y-81025443D01*
X145656284Y-81046062D01*
X145659000Y-81073640D01*
X145659000Y-81532360D01*
X145656284Y-81559938D01*
X145650029Y-81580557D01*
X145639876Y-81599553D01*
X145626208Y-81616208D01*
X145609553Y-81629876D01*
X145590557Y-81640029D01*
X145569938Y-81646284D01*
X145542360Y-81649000D01*
X145033640Y-81649000D01*
X145006062Y-81646284D01*
X144985443Y-81640029D01*
X144966447Y-81629876D01*
X144949792Y-81616208D01*
X144936124Y-81599553D01*
X144925971Y-81580557D01*
X144919716Y-81559938D01*
X144917000Y-81532360D01*
X144917000Y-81073640D01*
X144919716Y-81046062D01*
X144925971Y-81025443D01*
X144936124Y-81006447D01*
X144949792Y-80989792D01*
X144966447Y-80976124D01*
X144985443Y-80965971D01*
X145006062Y-80959716D01*
X145033640Y-80957000D01*
X145542360Y-80957000D01*
X145569938Y-80959716D01*
X145569938Y-80959716D01*
G37*
G36*
X140997938Y-80959716D02*
G01*
X141018557Y-80965971D01*
X141037553Y-80976124D01*
X141054208Y-80989792D01*
X141067876Y-81006447D01*
X141078029Y-81025443D01*
X141084284Y-81046062D01*
X141087000Y-81073640D01*
X141087000Y-81532360D01*
X141084284Y-81559938D01*
X141078029Y-81580557D01*
X141067876Y-81599553D01*
X141054208Y-81616208D01*
X141037553Y-81629876D01*
X141018557Y-81640029D01*
X140997938Y-81646284D01*
X140970360Y-81649000D01*
X140461640Y-81649000D01*
X140434062Y-81646284D01*
X140413443Y-81640029D01*
X140394447Y-81629876D01*
X140377792Y-81616208D01*
X140364124Y-81599553D01*
X140353971Y-81580557D01*
X140347716Y-81559938D01*
X140345000Y-81532360D01*
X140345000Y-81073640D01*
X140347716Y-81046062D01*
X140353971Y-81025443D01*
X140364124Y-81006447D01*
X140377792Y-80989792D01*
X140394447Y-80976124D01*
X140413443Y-80965971D01*
X140434062Y-80959716D01*
X140461640Y-80957000D01*
X140970360Y-80957000D01*
X140997938Y-80959716D01*
X140997938Y-80959716D01*
G37*
G36*
X120931938Y-80682716D02*
G01*
X120952557Y-80688971D01*
X120971553Y-80699124D01*
X120988208Y-80712792D01*
X121001876Y-80729447D01*
X121012029Y-80748443D01*
X121018284Y-80769062D01*
X121021000Y-80796640D01*
X121021000Y-81255360D01*
X121018284Y-81282938D01*
X121012029Y-81303557D01*
X121001876Y-81322553D01*
X120988208Y-81339208D01*
X120971553Y-81352876D01*
X120952557Y-81363029D01*
X120931938Y-81369284D01*
X120904360Y-81372000D01*
X120395640Y-81372000D01*
X120368062Y-81369284D01*
X120347443Y-81363029D01*
X120328447Y-81352876D01*
X120311792Y-81339208D01*
X120298124Y-81322553D01*
X120287971Y-81303557D01*
X120281716Y-81282938D01*
X120279000Y-81255360D01*
X120279000Y-80796640D01*
X120281716Y-80769062D01*
X120287971Y-80748443D01*
X120298124Y-80729447D01*
X120311792Y-80712792D01*
X120328447Y-80699124D01*
X120347443Y-80688971D01*
X120368062Y-80682716D01*
X120395640Y-80680000D01*
X120904360Y-80680000D01*
X120931938Y-80682716D01*
X120931938Y-80682716D01*
G37*
G36*
X133377938Y-80405716D02*
G01*
X133398557Y-80411971D01*
X133417553Y-80422124D01*
X133434208Y-80435792D01*
X133447876Y-80452447D01*
X133458029Y-80471443D01*
X133464284Y-80492062D01*
X133467000Y-80519640D01*
X133467000Y-80978360D01*
X133464284Y-81005938D01*
X133458029Y-81026557D01*
X133447876Y-81045553D01*
X133434208Y-81062208D01*
X133417553Y-81075876D01*
X133398557Y-81086029D01*
X133377938Y-81092284D01*
X133350360Y-81095000D01*
X132841640Y-81095000D01*
X132814062Y-81092284D01*
X132793443Y-81086029D01*
X132774447Y-81075876D01*
X132757792Y-81062208D01*
X132744124Y-81045553D01*
X132733971Y-81026557D01*
X132727716Y-81005938D01*
X132725000Y-80978360D01*
X132725000Y-80519640D01*
X132727716Y-80492062D01*
X132733971Y-80471443D01*
X132744124Y-80452447D01*
X132757792Y-80435792D01*
X132774447Y-80422124D01*
X132793443Y-80411971D01*
X132814062Y-80405716D01*
X132841640Y-80403000D01*
X133350360Y-80403000D01*
X133377938Y-80405716D01*
X133377938Y-80405716D01*
G37*
G36*
X123169938Y-80149716D02*
G01*
X123190557Y-80155971D01*
X123209553Y-80166124D01*
X123226208Y-80179792D01*
X123239876Y-80196447D01*
X123250029Y-80215443D01*
X123256284Y-80236062D01*
X123259000Y-80263640D01*
X123259000Y-80772360D01*
X123256284Y-80799938D01*
X123250029Y-80820557D01*
X123239876Y-80839553D01*
X123226208Y-80856208D01*
X123209553Y-80869876D01*
X123190557Y-80880029D01*
X123169938Y-80886284D01*
X123142360Y-80889000D01*
X122683640Y-80889000D01*
X122656062Y-80886284D01*
X122635443Y-80880029D01*
X122616447Y-80869876D01*
X122599792Y-80856208D01*
X122586124Y-80839553D01*
X122575971Y-80820557D01*
X122569716Y-80799938D01*
X122567000Y-80772360D01*
X122567000Y-80263640D01*
X122569716Y-80236062D01*
X122575971Y-80215443D01*
X122586124Y-80196447D01*
X122599792Y-80179792D01*
X122616447Y-80166124D01*
X122635443Y-80155971D01*
X122656062Y-80149716D01*
X122683640Y-80147000D01*
X123142360Y-80147000D01*
X123169938Y-80149716D01*
X123169938Y-80149716D01*
G37*
G36*
X122199938Y-80149716D02*
G01*
X122220557Y-80155971D01*
X122239553Y-80166124D01*
X122256208Y-80179792D01*
X122269876Y-80196447D01*
X122280029Y-80215443D01*
X122286284Y-80236062D01*
X122289000Y-80263640D01*
X122289000Y-80772360D01*
X122286284Y-80799938D01*
X122280029Y-80820557D01*
X122269876Y-80839553D01*
X122256208Y-80856208D01*
X122239553Y-80869876D01*
X122220557Y-80880029D01*
X122199938Y-80886284D01*
X122172360Y-80889000D01*
X121713640Y-80889000D01*
X121686062Y-80886284D01*
X121665443Y-80880029D01*
X121646447Y-80869876D01*
X121629792Y-80856208D01*
X121616124Y-80839553D01*
X121605971Y-80820557D01*
X121599716Y-80799938D01*
X121597000Y-80772360D01*
X121597000Y-80263640D01*
X121599716Y-80236062D01*
X121605971Y-80215443D01*
X121616124Y-80196447D01*
X121629792Y-80179792D01*
X121646447Y-80166124D01*
X121665443Y-80155971D01*
X121686062Y-80149716D01*
X121713640Y-80147000D01*
X122172360Y-80147000D01*
X122199938Y-80149716D01*
X122199938Y-80149716D01*
G37*
G36*
X143405000Y-80681000D02*
G01*
X142853000Y-80681000D01*
X142853000Y-79879000D01*
X143405000Y-79879000D01*
X143405000Y-80681000D01*
X143405000Y-80681000D01*
G37*
G36*
X120931938Y-79712716D02*
G01*
X120952557Y-79718971D01*
X120971553Y-79729124D01*
X120988208Y-79742792D01*
X121001876Y-79759447D01*
X121012029Y-79778443D01*
X121018284Y-79799062D01*
X121021000Y-79826640D01*
X121021000Y-80285360D01*
X121018284Y-80312938D01*
X121012029Y-80333557D01*
X121001876Y-80352553D01*
X120988208Y-80369208D01*
X120971553Y-80382876D01*
X120952557Y-80393029D01*
X120931938Y-80399284D01*
X120904360Y-80402000D01*
X120395640Y-80402000D01*
X120368062Y-80399284D01*
X120347443Y-80393029D01*
X120328447Y-80382876D01*
X120311792Y-80369208D01*
X120298124Y-80352553D01*
X120287971Y-80333557D01*
X120281716Y-80312938D01*
X120279000Y-80285360D01*
X120279000Y-79826640D01*
X120281716Y-79799062D01*
X120287971Y-79778443D01*
X120298124Y-79759447D01*
X120311792Y-79742792D01*
X120328447Y-79729124D01*
X120347443Y-79718971D01*
X120368062Y-79712716D01*
X120395640Y-79710000D01*
X120904360Y-79710000D01*
X120931938Y-79712716D01*
X120931938Y-79712716D01*
G37*
G36*
X134393938Y-79643716D02*
G01*
X134414557Y-79649971D01*
X134433553Y-79660124D01*
X134450208Y-79673792D01*
X134463876Y-79690447D01*
X134474029Y-79709443D01*
X134480284Y-79730062D01*
X134483000Y-79757640D01*
X134483000Y-80216360D01*
X134480284Y-80243938D01*
X134474029Y-80264557D01*
X134463876Y-80283553D01*
X134450208Y-80300208D01*
X134433553Y-80313876D01*
X134414557Y-80324029D01*
X134393938Y-80330284D01*
X134366360Y-80333000D01*
X133857640Y-80333000D01*
X133830062Y-80330284D01*
X133809443Y-80324029D01*
X133790447Y-80313876D01*
X133773792Y-80300208D01*
X133760124Y-80283553D01*
X133749971Y-80264557D01*
X133743716Y-80243938D01*
X133741000Y-80216360D01*
X133741000Y-79757640D01*
X133743716Y-79730062D01*
X133749971Y-79709443D01*
X133760124Y-79690447D01*
X133773792Y-79673792D01*
X133790447Y-79660124D01*
X133809443Y-79649971D01*
X133830062Y-79643716D01*
X133857640Y-79641000D01*
X134366360Y-79641000D01*
X134393938Y-79643716D01*
X134393938Y-79643716D01*
G37*
G36*
X120404092Y-76264896D02*
G01*
X120507956Y-76296402D01*
X120535132Y-76310928D01*
X120603677Y-76347566D01*
X120687578Y-76416422D01*
X120756434Y-76500323D01*
X120793072Y-76568868D01*
X120807598Y-76596044D01*
X120839104Y-76699908D01*
X120849743Y-76807923D01*
X120839104Y-76915938D01*
X120807598Y-77019802D01*
X120807597Y-77019803D01*
X120807596Y-77019805D01*
X120756434Y-77115523D01*
X120687578Y-77199424D01*
X120603677Y-77268280D01*
X120546181Y-77299012D01*
X120507956Y-77319444D01*
X120404092Y-77350950D01*
X120323144Y-77358923D01*
X120269010Y-77358923D01*
X120188062Y-77350950D01*
X120084198Y-77319444D01*
X120072454Y-77313166D01*
X120049821Y-77303792D01*
X120025788Y-77299012D01*
X120001284Y-77299012D01*
X119977251Y-77303793D01*
X119954612Y-77313170D01*
X119934238Y-77326784D01*
X119916911Y-77344111D01*
X119903297Y-77364486D01*
X119893920Y-77387125D01*
X119889140Y-77411158D01*
X119889140Y-77435662D01*
X119893921Y-77459695D01*
X119903294Y-77482326D01*
X119909572Y-77494070D01*
X119941078Y-77597934D01*
X119951717Y-77705949D01*
X119941078Y-77813964D01*
X119909572Y-77917828D01*
X119909571Y-77917829D01*
X119909570Y-77917831D01*
X119858408Y-78013549D01*
X119789552Y-78097450D01*
X119705651Y-78166306D01*
X119637106Y-78202944D01*
X119609930Y-78217470D01*
X119506066Y-78248976D01*
X119425118Y-78256949D01*
X119370984Y-78256949D01*
X119290036Y-78248976D01*
X119186172Y-78217470D01*
X119174429Y-78211193D01*
X119151797Y-78201819D01*
X119127764Y-78197039D01*
X119103260Y-78197039D01*
X119079227Y-78201820D01*
X119056588Y-78211197D01*
X119036214Y-78224811D01*
X119018887Y-78242138D01*
X119005273Y-78262513D01*
X118995896Y-78285152D01*
X118991116Y-78309185D01*
X118991116Y-78333689D01*
X118995897Y-78357722D01*
X119005270Y-78380352D01*
X119011547Y-78392095D01*
X119043053Y-78495959D01*
X119053692Y-78603974D01*
X119043053Y-78711989D01*
X119011547Y-78815853D01*
X118997439Y-78842246D01*
X118960383Y-78911574D01*
X118891527Y-78995475D01*
X118807626Y-79064331D01*
X118754463Y-79092747D01*
X118711905Y-79115495D01*
X118608041Y-79147001D01*
X118527093Y-79154974D01*
X118472959Y-79154974D01*
X118392011Y-79147001D01*
X118344488Y-79132585D01*
X118320463Y-79127807D01*
X118295958Y-79127807D01*
X118271925Y-79132588D01*
X118249286Y-79141965D01*
X118228912Y-79155579D01*
X118211585Y-79172906D01*
X118197972Y-79193280D01*
X118188594Y-79215919D01*
X118183814Y-79239952D01*
X118183814Y-79264457D01*
X118188595Y-79288490D01*
X118197972Y-79311129D01*
X118219820Y-79340588D01*
X118381232Y-79502000D01*
X117602000Y-80281232D01*
X116822768Y-79502000D01*
X117602000Y-78722768D01*
X117763414Y-78884182D01*
X117782350Y-78899722D01*
X117803961Y-78911273D01*
X117827410Y-78918386D01*
X117851796Y-78920788D01*
X117876182Y-78918386D01*
X117899631Y-78911273D01*
X117921242Y-78899722D01*
X117940184Y-78884177D01*
X117955729Y-78865235D01*
X117967280Y-78843624D01*
X117974393Y-78820175D01*
X117976795Y-78795789D01*
X117971414Y-78759509D01*
X117956999Y-78711989D01*
X117946360Y-78603974D01*
X117956999Y-78495959D01*
X117988505Y-78392095D01*
X118025562Y-78322767D01*
X118039669Y-78296374D01*
X118108525Y-78212473D01*
X118192426Y-78143617D01*
X118260971Y-78106979D01*
X118288147Y-78092453D01*
X118392011Y-78060947D01*
X118472959Y-78052974D01*
X118527093Y-78052974D01*
X118608041Y-78060947D01*
X118711905Y-78092453D01*
X118723648Y-78098730D01*
X118746280Y-78108104D01*
X118770313Y-78112884D01*
X118794817Y-78112884D01*
X118818850Y-78108103D01*
X118841489Y-78098726D01*
X118861863Y-78085112D01*
X118879190Y-78067785D01*
X118892804Y-78047410D01*
X118902181Y-78024771D01*
X118906961Y-78000738D01*
X118906961Y-77976234D01*
X118902180Y-77952201D01*
X118892807Y-77929571D01*
X118886530Y-77917828D01*
X118855024Y-77813964D01*
X118844385Y-77705949D01*
X118855024Y-77597934D01*
X118886530Y-77494070D01*
X118917750Y-77435662D01*
X118937694Y-77398349D01*
X119006550Y-77314448D01*
X119090451Y-77245592D01*
X119174433Y-77200703D01*
X119186172Y-77194428D01*
X119290036Y-77162922D01*
X119370984Y-77154949D01*
X119425118Y-77154949D01*
X119506066Y-77162922D01*
X119609930Y-77194428D01*
X119621674Y-77200706D01*
X119644307Y-77210080D01*
X119668340Y-77214860D01*
X119692844Y-77214860D01*
X119716877Y-77210079D01*
X119739516Y-77200702D01*
X119759890Y-77187088D01*
X119777217Y-77169761D01*
X119790831Y-77149386D01*
X119800208Y-77126747D01*
X119804988Y-77102714D01*
X119804988Y-77078210D01*
X119800207Y-77054177D01*
X119790834Y-77031546D01*
X119784556Y-77019802D01*
X119753050Y-76915938D01*
X119742411Y-76807923D01*
X119753050Y-76699908D01*
X119784556Y-76596044D01*
X119799082Y-76568868D01*
X119835720Y-76500323D01*
X119904576Y-76416422D01*
X119988477Y-76347566D01*
X120057022Y-76310928D01*
X120084198Y-76296402D01*
X120188062Y-76264896D01*
X120269010Y-76256923D01*
X120323144Y-76256923D01*
X120404092Y-76264896D01*
X120404092Y-76264896D01*
G37*
G36*
X146309394Y-76589312D02*
G01*
X146122510Y-76720170D01*
X146103911Y-76736125D01*
X146088783Y-76755401D01*
X146077706Y-76777259D01*
X146071106Y-76800857D01*
X146069237Y-76825290D01*
X146072170Y-76849618D01*
X146079793Y-76872906D01*
X146091813Y-76894259D01*
X146107768Y-76912858D01*
X146127044Y-76927986D01*
X146148902Y-76939063D01*
X146172500Y-76945663D01*
X146206452Y-76946960D01*
X146243375Y-76943323D01*
X146297509Y-76943323D01*
X146378457Y-76951296D01*
X146482321Y-76982802D01*
X146509497Y-76997328D01*
X146578042Y-77033966D01*
X146661943Y-77102822D01*
X146730799Y-77186723D01*
X146767437Y-77255268D01*
X146781963Y-77282444D01*
X146813469Y-77386308D01*
X146824108Y-77494323D01*
X146813469Y-77602338D01*
X146781963Y-77706202D01*
X146765337Y-77737307D01*
X146730005Y-77803408D01*
X146718254Y-77820996D01*
X146708877Y-77843635D01*
X146704098Y-77867669D01*
X146704098Y-77892173D01*
X146708880Y-77916206D01*
X146718258Y-77938844D01*
X146731872Y-77959218D01*
X146749199Y-77976545D01*
X146769574Y-77990158D01*
X146792213Y-77999535D01*
X146816247Y-78004314D01*
X146840751Y-78004314D01*
X146864776Y-77999534D01*
X146880927Y-77994635D01*
X146890868Y-77991619D01*
X146905702Y-77990158D01*
X146971817Y-77983646D01*
X147025951Y-77983646D01*
X147106899Y-77991619D01*
X147210763Y-78023125D01*
X147237376Y-78037350D01*
X147306484Y-78074289D01*
X147390385Y-78143145D01*
X147459241Y-78227046D01*
X147475224Y-78256949D01*
X147510405Y-78322767D01*
X147541911Y-78426631D01*
X147552550Y-78534646D01*
X147541911Y-78642661D01*
X147510405Y-78746525D01*
X147503467Y-78759504D01*
X147458447Y-78843731D01*
X147446696Y-78861319D01*
X147437319Y-78883958D01*
X147432540Y-78907992D01*
X147432540Y-78932496D01*
X147437322Y-78956529D01*
X147446700Y-78979167D01*
X147460314Y-78999541D01*
X147477641Y-79016868D01*
X147498016Y-79030481D01*
X147520655Y-79039858D01*
X147544689Y-79044637D01*
X147569193Y-79044637D01*
X147593218Y-79039857D01*
X147609369Y-79034958D01*
X147619310Y-79031942D01*
X147634144Y-79030481D01*
X147700259Y-79023969D01*
X147754393Y-79023969D01*
X147835341Y-79031942D01*
X147939205Y-79063448D01*
X147965818Y-79077673D01*
X148034926Y-79114612D01*
X148118827Y-79183468D01*
X148187683Y-79267369D01*
X148214176Y-79316934D01*
X148238847Y-79363090D01*
X148270353Y-79466954D01*
X148280992Y-79574969D01*
X148270353Y-79682984D01*
X148238847Y-79786848D01*
X148231664Y-79800286D01*
X148187683Y-79882569D01*
X148118827Y-79966470D01*
X148034926Y-80035326D01*
X147975247Y-80067225D01*
X147939205Y-80086490D01*
X147835341Y-80117996D01*
X147754393Y-80125969D01*
X147700259Y-80125969D01*
X147619311Y-80117996D01*
X147515447Y-80086490D01*
X147479405Y-80067225D01*
X147419726Y-80035326D01*
X147335825Y-79966470D01*
X147266969Y-79882569D01*
X147222988Y-79800286D01*
X147215805Y-79786848D01*
X147184299Y-79682984D01*
X147173660Y-79574969D01*
X147184299Y-79466954D01*
X147215805Y-79363090D01*
X147240476Y-79316934D01*
X147267763Y-79265884D01*
X147279514Y-79248296D01*
X147288891Y-79225657D01*
X147293670Y-79201623D01*
X147293670Y-79177119D01*
X147288888Y-79153086D01*
X147279510Y-79130448D01*
X147265896Y-79110074D01*
X147248569Y-79092747D01*
X147228194Y-79079134D01*
X147205555Y-79069757D01*
X147181521Y-79064978D01*
X147157017Y-79064978D01*
X147132992Y-79069758D01*
X147116841Y-79074657D01*
X147106900Y-79077673D01*
X147095335Y-79078812D01*
X147025951Y-79085646D01*
X146971817Y-79085646D01*
X146890869Y-79077673D01*
X146787005Y-79046167D01*
X146745476Y-79023969D01*
X146691284Y-78995003D01*
X146607383Y-78926147D01*
X146538527Y-78842246D01*
X146494301Y-78759504D01*
X146487363Y-78746525D01*
X146455857Y-78642661D01*
X146445218Y-78534646D01*
X146455857Y-78426631D01*
X146487363Y-78322767D01*
X146522544Y-78256949D01*
X146539321Y-78225561D01*
X146551072Y-78207973D01*
X146560449Y-78185334D01*
X146565228Y-78161300D01*
X146565228Y-78136796D01*
X146560446Y-78112763D01*
X146551068Y-78090125D01*
X146537454Y-78069751D01*
X146520127Y-78052424D01*
X146499752Y-78038811D01*
X146477113Y-78029434D01*
X146453079Y-78024655D01*
X146428575Y-78024655D01*
X146404550Y-78029435D01*
X146388399Y-78034334D01*
X146378458Y-78037350D01*
X146366893Y-78038489D01*
X146297509Y-78045323D01*
X146243375Y-78045323D01*
X146162427Y-78037350D01*
X146058563Y-78005844D01*
X146017034Y-77983646D01*
X145962842Y-77954680D01*
X145878941Y-77885824D01*
X145810085Y-77801923D01*
X145773447Y-77733378D01*
X145758921Y-77706202D01*
X145727415Y-77602338D01*
X145716776Y-77494323D01*
X145727415Y-77386308D01*
X145758921Y-77282444D01*
X145775135Y-77252111D01*
X145784511Y-77229476D01*
X145789291Y-77205443D01*
X145789291Y-77180939D01*
X145784511Y-77156906D01*
X145775133Y-77134267D01*
X145761520Y-77113893D01*
X145744193Y-77096566D01*
X145723818Y-77082952D01*
X145701179Y-77073574D01*
X145677146Y-77068794D01*
X145652642Y-77068794D01*
X145628609Y-77073574D01*
X145605970Y-77082952D01*
X145593198Y-77090798D01*
X145406688Y-77221394D01*
X144774606Y-76318688D01*
X145677312Y-75686606D01*
X146309394Y-76589312D01*
X146309394Y-76589312D01*
G37*
G36*
X133377938Y-79435716D02*
G01*
X133398557Y-79441971D01*
X133417553Y-79452124D01*
X133434208Y-79465792D01*
X133447876Y-79482447D01*
X133458029Y-79501443D01*
X133464284Y-79522062D01*
X133467000Y-79549640D01*
X133467000Y-80008360D01*
X133464284Y-80035938D01*
X133458029Y-80056557D01*
X133447876Y-80075553D01*
X133434208Y-80092208D01*
X133417553Y-80105876D01*
X133398557Y-80116029D01*
X133377938Y-80122284D01*
X133350360Y-80125000D01*
X132841640Y-80125000D01*
X132814062Y-80122284D01*
X132793443Y-80116029D01*
X132774447Y-80105876D01*
X132757792Y-80092208D01*
X132744124Y-80075553D01*
X132733971Y-80056557D01*
X132727716Y-80035938D01*
X132725000Y-80008360D01*
X132725000Y-79549640D01*
X132727716Y-79522062D01*
X132733971Y-79501443D01*
X132744124Y-79482447D01*
X132757792Y-79465792D01*
X132774447Y-79452124D01*
X132793443Y-79441971D01*
X132814062Y-79435716D01*
X132841640Y-79433000D01*
X133350360Y-79433000D01*
X133377938Y-79435716D01*
X133377938Y-79435716D01*
G37*
G36*
X134393938Y-78673716D02*
G01*
X134414557Y-78679971D01*
X134433553Y-78690124D01*
X134450208Y-78703792D01*
X134463876Y-78720447D01*
X134474029Y-78739443D01*
X134480284Y-78760062D01*
X134483000Y-78787640D01*
X134483000Y-79246360D01*
X134480284Y-79273938D01*
X134474029Y-79294557D01*
X134463876Y-79313553D01*
X134450208Y-79330208D01*
X134433553Y-79343876D01*
X134414557Y-79354029D01*
X134393938Y-79360284D01*
X134366360Y-79363000D01*
X133857640Y-79363000D01*
X133830062Y-79360284D01*
X133809443Y-79354029D01*
X133790447Y-79343876D01*
X133773792Y-79330208D01*
X133760124Y-79313553D01*
X133749971Y-79294557D01*
X133743716Y-79273938D01*
X133741000Y-79246360D01*
X133741000Y-78787640D01*
X133743716Y-78760062D01*
X133749971Y-78739443D01*
X133760124Y-78720447D01*
X133773792Y-78703792D01*
X133790447Y-78690124D01*
X133809443Y-78679971D01*
X133830062Y-78673716D01*
X133857640Y-78671000D01*
X134366360Y-78671000D01*
X134393938Y-78673716D01*
X134393938Y-78673716D01*
G37*
G36*
X124522591Y-76694085D02*
G01*
X124556569Y-76704393D01*
X124587890Y-76721134D01*
X124615339Y-76743661D01*
X124637866Y-76771110D01*
X124654607Y-76802431D01*
X124664915Y-76836409D01*
X124669000Y-76877890D01*
X124669000Y-77554110D01*
X124664915Y-77595591D01*
X124654607Y-77629569D01*
X124637866Y-77660890D01*
X124615339Y-77688339D01*
X124587890Y-77710866D01*
X124556569Y-77727607D01*
X124522591Y-77737915D01*
X124481110Y-77742000D01*
X123879890Y-77742000D01*
X123838409Y-77737915D01*
X123804431Y-77727607D01*
X123773110Y-77710866D01*
X123745661Y-77688339D01*
X123723134Y-77660890D01*
X123706393Y-77629569D01*
X123696085Y-77595591D01*
X123692000Y-77554110D01*
X123692000Y-76877890D01*
X123696085Y-76836409D01*
X123706393Y-76802431D01*
X123723134Y-76771110D01*
X123745661Y-76743661D01*
X123773110Y-76721134D01*
X123804431Y-76704393D01*
X123838409Y-76694085D01*
X123879890Y-76690000D01*
X124481110Y-76690000D01*
X124522591Y-76694085D01*
X124522591Y-76694085D01*
G37*
G36*
X126097591Y-76694085D02*
G01*
X126131569Y-76704393D01*
X126162890Y-76721134D01*
X126190339Y-76743661D01*
X126212866Y-76771110D01*
X126229607Y-76802431D01*
X126239915Y-76836409D01*
X126244000Y-76877890D01*
X126244000Y-77554110D01*
X126239915Y-77595591D01*
X126229607Y-77629569D01*
X126212866Y-77660890D01*
X126190339Y-77688339D01*
X126162890Y-77710866D01*
X126131569Y-77727607D01*
X126097591Y-77737915D01*
X126056110Y-77742000D01*
X125454890Y-77742000D01*
X125413409Y-77737915D01*
X125379431Y-77727607D01*
X125348110Y-77710866D01*
X125320661Y-77688339D01*
X125298134Y-77660890D01*
X125281393Y-77629569D01*
X125271085Y-77595591D01*
X125267000Y-77554110D01*
X125267000Y-76877890D01*
X125271085Y-76836409D01*
X125281393Y-76802431D01*
X125298134Y-76771110D01*
X125320661Y-76743661D01*
X125348110Y-76721134D01*
X125379431Y-76704393D01*
X125413409Y-76694085D01*
X125454890Y-76690000D01*
X126056110Y-76690000D01*
X126097591Y-76694085D01*
X126097591Y-76694085D01*
G37*
G36*
X142353591Y-76694085D02*
G01*
X142387569Y-76704393D01*
X142418890Y-76721134D01*
X142446339Y-76743661D01*
X142468866Y-76771110D01*
X142485607Y-76802431D01*
X142495915Y-76836409D01*
X142500000Y-76877890D01*
X142500000Y-77554110D01*
X142495915Y-77595591D01*
X142485607Y-77629569D01*
X142468866Y-77660890D01*
X142446339Y-77688339D01*
X142418890Y-77710866D01*
X142387569Y-77727607D01*
X142353591Y-77737915D01*
X142312110Y-77742000D01*
X141710890Y-77742000D01*
X141669409Y-77737915D01*
X141635431Y-77727607D01*
X141604110Y-77710866D01*
X141576661Y-77688339D01*
X141554134Y-77660890D01*
X141537393Y-77629569D01*
X141527085Y-77595591D01*
X141523000Y-77554110D01*
X141523000Y-76877890D01*
X141527085Y-76836409D01*
X141537393Y-76802431D01*
X141554134Y-76771110D01*
X141576661Y-76743661D01*
X141604110Y-76721134D01*
X141635431Y-76704393D01*
X141669409Y-76694085D01*
X141710890Y-76690000D01*
X142312110Y-76690000D01*
X142353591Y-76694085D01*
X142353591Y-76694085D01*
G37*
G36*
X140778591Y-76694085D02*
G01*
X140812569Y-76704393D01*
X140843890Y-76721134D01*
X140871339Y-76743661D01*
X140893866Y-76771110D01*
X140910607Y-76802431D01*
X140920915Y-76836409D01*
X140925000Y-76877890D01*
X140925000Y-77554110D01*
X140920915Y-77595591D01*
X140910607Y-77629569D01*
X140893866Y-77660890D01*
X140871339Y-77688339D01*
X140843890Y-77710866D01*
X140812569Y-77727607D01*
X140778591Y-77737915D01*
X140737110Y-77742000D01*
X140135890Y-77742000D01*
X140094409Y-77737915D01*
X140060431Y-77727607D01*
X140029110Y-77710866D01*
X140001661Y-77688339D01*
X139979134Y-77660890D01*
X139962393Y-77629569D01*
X139952085Y-77595591D01*
X139948000Y-77554110D01*
X139948000Y-76877890D01*
X139952085Y-76836409D01*
X139962393Y-76802431D01*
X139979134Y-76771110D01*
X140001661Y-76743661D01*
X140029110Y-76721134D01*
X140060431Y-76704393D01*
X140094409Y-76694085D01*
X140135890Y-76690000D01*
X140737110Y-76690000D01*
X140778591Y-76694085D01*
X140778591Y-76694085D01*
G37*
G36*
X134870000Y-77411000D02*
G01*
X131068000Y-77411000D01*
X131068000Y-75309000D01*
X134870000Y-75309000D01*
X134870000Y-77411000D01*
X134870000Y-77411000D01*
G37*
G36*
X129570000Y-77161000D02*
G01*
X127468000Y-77161000D01*
X127468000Y-75359000D01*
X129570000Y-75359000D01*
X129570000Y-77161000D01*
X129570000Y-77161000D01*
G37*
G36*
X138470000Y-77161000D02*
G01*
X136368000Y-77161000D01*
X136368000Y-75359000D01*
X138470000Y-75359000D01*
X138470000Y-77161000D01*
X138470000Y-77161000D01*
G37*
G36*
X124394000Y-75849000D02*
G01*
X123642000Y-75849000D01*
X123642000Y-74687000D01*
X124394000Y-74687000D01*
X124394000Y-75849000D01*
X124394000Y-75849000D01*
G37*
G36*
X126294000Y-75849000D02*
G01*
X125542000Y-75849000D01*
X125542000Y-74687000D01*
X126294000Y-74687000D01*
X126294000Y-75849000D01*
X126294000Y-75849000D01*
G37*
G36*
X140650000Y-75849000D02*
G01*
X139898000Y-75849000D01*
X139898000Y-74687000D01*
X140650000Y-74687000D01*
X140650000Y-75849000D01*
X140650000Y-75849000D01*
G37*
G36*
X142550000Y-75849000D02*
G01*
X141798000Y-75849000D01*
X141798000Y-74687000D01*
X142550000Y-74687000D01*
X142550000Y-75849000D01*
X142550000Y-75849000D01*
G37*
G36*
X135329721Y-73130174D02*
G01*
X135429995Y-73171709D01*
X135429996Y-73171710D01*
X135520242Y-73232010D01*
X135596990Y-73308758D01*
X135596991Y-73308760D01*
X135657291Y-73399005D01*
X135698826Y-73499279D01*
X135720000Y-73605730D01*
X135720000Y-73714270D01*
X135698826Y-73820721D01*
X135657291Y-73920995D01*
X135657290Y-73920996D01*
X135596990Y-74011242D01*
X135520242Y-74087990D01*
X135474812Y-74118345D01*
X135429995Y-74148291D01*
X135329721Y-74189826D01*
X135223270Y-74211000D01*
X135114730Y-74211000D01*
X135008279Y-74189826D01*
X134908005Y-74148291D01*
X134863188Y-74118345D01*
X134817758Y-74087990D01*
X134741010Y-74011242D01*
X134680710Y-73920996D01*
X134680709Y-73920995D01*
X134639174Y-73820721D01*
X134618000Y-73714270D01*
X134618000Y-73605730D01*
X134639174Y-73499279D01*
X134680709Y-73399005D01*
X134741009Y-73308760D01*
X134741010Y-73308758D01*
X134817758Y-73232010D01*
X134908004Y-73171710D01*
X134908005Y-73171709D01*
X135008279Y-73130174D01*
X135114730Y-73109000D01*
X135223270Y-73109000D01*
X135329721Y-73130174D01*
X135329721Y-73130174D01*
G37*
G36*
X130929721Y-73130174D02*
G01*
X131029995Y-73171709D01*
X131029996Y-73171710D01*
X131120242Y-73232010D01*
X131196990Y-73308758D01*
X131196991Y-73308760D01*
X131257291Y-73399005D01*
X131298826Y-73499279D01*
X131320000Y-73605730D01*
X131320000Y-73714270D01*
X131298826Y-73820721D01*
X131257291Y-73920995D01*
X131257290Y-73920996D01*
X131196990Y-74011242D01*
X131120242Y-74087990D01*
X131074812Y-74118345D01*
X131029995Y-74148291D01*
X130929721Y-74189826D01*
X130823270Y-74211000D01*
X130714730Y-74211000D01*
X130608279Y-74189826D01*
X130508005Y-74148291D01*
X130463188Y-74118345D01*
X130417758Y-74087990D01*
X130341010Y-74011242D01*
X130280710Y-73920996D01*
X130280709Y-73920995D01*
X130239174Y-73820721D01*
X130218000Y-73714270D01*
X130218000Y-73605730D01*
X130239174Y-73499279D01*
X130280709Y-73399005D01*
X130341009Y-73308760D01*
X130341010Y-73308758D01*
X130417758Y-73232010D01*
X130508004Y-73171710D01*
X130508005Y-73171709D01*
X130608279Y-73130174D01*
X130714730Y-73109000D01*
X130823270Y-73109000D01*
X130929721Y-73130174D01*
X130929721Y-73130174D01*
G37*
G36*
X126294000Y-73649000D02*
G01*
X123642000Y-73649000D01*
X123642000Y-72487000D01*
X126294000Y-72487000D01*
X126294000Y-73649000D01*
X126294000Y-73649000D01*
G37*
G36*
X142550000Y-73649000D02*
G01*
X139898000Y-73649000D01*
X139898000Y-72487000D01*
X142550000Y-72487000D01*
X142550000Y-73649000D01*
X142550000Y-73649000D01*
G37*
G36*
X129570000Y-71711000D02*
G01*
X127468000Y-71711000D01*
X127468000Y-69909000D01*
X129570000Y-69909000D01*
X129570000Y-71711000D01*
X129570000Y-71711000D01*
G37*
G36*
X138470000Y-71711000D02*
G01*
X136368000Y-71711000D01*
X136368000Y-69909000D01*
X138470000Y-69909000D01*
X138470000Y-71711000D01*
X138470000Y-71711000D01*
G37*
G36*
X140778591Y-70598085D02*
G01*
X140812569Y-70608393D01*
X140843890Y-70625134D01*
X140871339Y-70647661D01*
X140893866Y-70675110D01*
X140910607Y-70706431D01*
X140920915Y-70740409D01*
X140925000Y-70781890D01*
X140925000Y-71458110D01*
X140920915Y-71499591D01*
X140910607Y-71533569D01*
X140893866Y-71564890D01*
X140871339Y-71592339D01*
X140843890Y-71614866D01*
X140812569Y-71631607D01*
X140778591Y-71641915D01*
X140737110Y-71646000D01*
X140135890Y-71646000D01*
X140094409Y-71641915D01*
X140060431Y-71631607D01*
X140029110Y-71614866D01*
X140001661Y-71592339D01*
X139979134Y-71564890D01*
X139962393Y-71533569D01*
X139952085Y-71499591D01*
X139948000Y-71458110D01*
X139948000Y-70781890D01*
X139952085Y-70740409D01*
X139962393Y-70706431D01*
X139979134Y-70675110D01*
X140001661Y-70647661D01*
X140029110Y-70625134D01*
X140060431Y-70608393D01*
X140094409Y-70598085D01*
X140135890Y-70594000D01*
X140737110Y-70594000D01*
X140778591Y-70598085D01*
X140778591Y-70598085D01*
G37*
G36*
X142353591Y-70598085D02*
G01*
X142387569Y-70608393D01*
X142418890Y-70625134D01*
X142446339Y-70647661D01*
X142468866Y-70675110D01*
X142485607Y-70706431D01*
X142495915Y-70740409D01*
X142500000Y-70781890D01*
X142500000Y-71458110D01*
X142495915Y-71499591D01*
X142485607Y-71533569D01*
X142468866Y-71564890D01*
X142446339Y-71592339D01*
X142418890Y-71614866D01*
X142387569Y-71631607D01*
X142353591Y-71641915D01*
X142312110Y-71646000D01*
X141710890Y-71646000D01*
X141669409Y-71641915D01*
X141635431Y-71631607D01*
X141604110Y-71614866D01*
X141576661Y-71592339D01*
X141554134Y-71564890D01*
X141537393Y-71533569D01*
X141527085Y-71499591D01*
X141523000Y-71458110D01*
X141523000Y-70781890D01*
X141527085Y-70740409D01*
X141537393Y-70706431D01*
X141554134Y-70675110D01*
X141576661Y-70647661D01*
X141604110Y-70625134D01*
X141635431Y-70608393D01*
X141669409Y-70598085D01*
X141710890Y-70594000D01*
X142312110Y-70594000D01*
X142353591Y-70598085D01*
X142353591Y-70598085D01*
G37*
G36*
X126097591Y-70598085D02*
G01*
X126131569Y-70608393D01*
X126162890Y-70625134D01*
X126190339Y-70647661D01*
X126212866Y-70675110D01*
X126229607Y-70706431D01*
X126239915Y-70740409D01*
X126244000Y-70781890D01*
X126244000Y-71458110D01*
X126239915Y-71499591D01*
X126229607Y-71533569D01*
X126212866Y-71564890D01*
X126190339Y-71592339D01*
X126162890Y-71614866D01*
X126131569Y-71631607D01*
X126097591Y-71641915D01*
X126056110Y-71646000D01*
X125454890Y-71646000D01*
X125413409Y-71641915D01*
X125379431Y-71631607D01*
X125348110Y-71614866D01*
X125320661Y-71592339D01*
X125298134Y-71564890D01*
X125281393Y-71533569D01*
X125271085Y-71499591D01*
X125267000Y-71458110D01*
X125267000Y-70781890D01*
X125271085Y-70740409D01*
X125281393Y-70706431D01*
X125298134Y-70675110D01*
X125320661Y-70647661D01*
X125348110Y-70625134D01*
X125379431Y-70608393D01*
X125413409Y-70598085D01*
X125454890Y-70594000D01*
X126056110Y-70594000D01*
X126097591Y-70598085D01*
X126097591Y-70598085D01*
G37*
G36*
X124522591Y-70598085D02*
G01*
X124556569Y-70608393D01*
X124587890Y-70625134D01*
X124615339Y-70647661D01*
X124637866Y-70675110D01*
X124654607Y-70706431D01*
X124664915Y-70740409D01*
X124669000Y-70781890D01*
X124669000Y-71458110D01*
X124664915Y-71499591D01*
X124654607Y-71533569D01*
X124637866Y-71564890D01*
X124615339Y-71592339D01*
X124587890Y-71614866D01*
X124556569Y-71631607D01*
X124522591Y-71641915D01*
X124481110Y-71646000D01*
X123879890Y-71646000D01*
X123838409Y-71641915D01*
X123804431Y-71631607D01*
X123773110Y-71614866D01*
X123745661Y-71592339D01*
X123723134Y-71564890D01*
X123706393Y-71533569D01*
X123696085Y-71499591D01*
X123692000Y-71458110D01*
X123692000Y-70781890D01*
X123696085Y-70740409D01*
X123706393Y-70706431D01*
X123723134Y-70675110D01*
X123745661Y-70647661D01*
X123773110Y-70625134D01*
X123804431Y-70608393D01*
X123838409Y-70598085D01*
X123879890Y-70594000D01*
X124481110Y-70594000D01*
X124522591Y-70598085D01*
X124522591Y-70598085D01*
G37*
M02*
