G04 #@! TF.GenerationSoftware,KiCad,Pcbnew,(5.1.0)-1*
G04 #@! TF.CreationDate,2019-03-21T22:27:28+11:00*
G04 #@! TF.ProjectId,top-hemi,746f702d-6865-46d6-992e-6b696361645f,rev?*
G04 #@! TF.SameCoordinates,Original*
G04 #@! TF.FileFunction,Soldermask,Bot*
G04 #@! TF.FilePolarity,Negative*
%FSLAX46Y46*%
G04 Gerber Fmt 4.6, Leading zero omitted, Abs format (unit mm)*
G04 Created by KiCad (PCBNEW (5.1.0)-1) date 2019-03-21 22:27:28*
%MOMM*%
%LPD*%
G04 APERTURE LIST*
%ADD10C,0.100000*%
G04 APERTURE END LIST*
D10*
G36*
X134052100Y-96207003D02*
G01*
X135564294Y-96507797D01*
X137191452Y-97181788D01*
X138655855Y-98160272D01*
X139901228Y-99405645D01*
X140879712Y-100870048D01*
X141553703Y-102497206D01*
X141897300Y-104224588D01*
X141897300Y-105985812D01*
X141553703Y-107713194D01*
X140879712Y-109340352D01*
X139901228Y-110804755D01*
X138655855Y-112050128D01*
X137191452Y-113028612D01*
X135564294Y-113702603D01*
X134052100Y-114003397D01*
X133836913Y-114046200D01*
X132075687Y-114046200D01*
X131860500Y-114003397D01*
X130348306Y-113702603D01*
X128721148Y-113028612D01*
X127256745Y-112050128D01*
X126011372Y-110804755D01*
X125032888Y-109340352D01*
X124358897Y-107713194D01*
X124015300Y-105985812D01*
X124015300Y-104224588D01*
X124358897Y-102497206D01*
X125032888Y-100870048D01*
X126011372Y-99405645D01*
X127256745Y-98160272D01*
X128721148Y-97181788D01*
X130348306Y-96507797D01*
X131860500Y-96207003D01*
X132075687Y-96164200D01*
X133836913Y-96164200D01*
X134052100Y-96207003D01*
X134052100Y-96207003D01*
G37*
G36*
X145707300Y-107696200D02*
G01*
X143065300Y-107696200D01*
X143065300Y-102514200D01*
X145707300Y-102514200D01*
X145707300Y-107696200D01*
X145707300Y-107696200D01*
G37*
G36*
X122847300Y-107696200D02*
G01*
X120205300Y-107696200D01*
X120205300Y-102514200D01*
X122847300Y-102514200D01*
X122847300Y-107696200D01*
X122847300Y-107696200D01*
G37*
G36*
X118182510Y-98638666D02*
G01*
X117995626Y-98769524D01*
X117977027Y-98785479D01*
X117961899Y-98804755D01*
X117950822Y-98826613D01*
X117944222Y-98850211D01*
X117942353Y-98874644D01*
X117945286Y-98898972D01*
X117952909Y-98922260D01*
X117964929Y-98943613D01*
X117980884Y-98962212D01*
X118000160Y-98977340D01*
X118022018Y-98988417D01*
X118045616Y-98995017D01*
X118079568Y-98996314D01*
X118116491Y-98992677D01*
X118170625Y-98992677D01*
X118251573Y-99000650D01*
X118355437Y-99032156D01*
X118382613Y-99046682D01*
X118451158Y-99083320D01*
X118535059Y-99152176D01*
X118603915Y-99236077D01*
X118640553Y-99304622D01*
X118655079Y-99331798D01*
X118686585Y-99435662D01*
X118697224Y-99543677D01*
X118686585Y-99651692D01*
X118655079Y-99755556D01*
X118654678Y-99756306D01*
X118603121Y-99852762D01*
X118591370Y-99870350D01*
X118581993Y-99892989D01*
X118577214Y-99917023D01*
X118577214Y-99941527D01*
X118581996Y-99965560D01*
X118591374Y-99988198D01*
X118604988Y-100008572D01*
X118622315Y-100025899D01*
X118642690Y-100039512D01*
X118665329Y-100048889D01*
X118689363Y-100053668D01*
X118713867Y-100053668D01*
X118737892Y-100048888D01*
X118754043Y-100043989D01*
X118763984Y-100040973D01*
X118778818Y-100039512D01*
X118844933Y-100033000D01*
X118899067Y-100033000D01*
X118980015Y-100040973D01*
X119083879Y-100072479D01*
X119110492Y-100086704D01*
X119179600Y-100123643D01*
X119263501Y-100192499D01*
X119332357Y-100276400D01*
X119368995Y-100344945D01*
X119383521Y-100372121D01*
X119415027Y-100475985D01*
X119425666Y-100584000D01*
X119415027Y-100692015D01*
X119383521Y-100795879D01*
X119383519Y-100795882D01*
X119331563Y-100893085D01*
X119319812Y-100910673D01*
X119310435Y-100933312D01*
X119305656Y-100957346D01*
X119305656Y-100981850D01*
X119310438Y-101005883D01*
X119319816Y-101028521D01*
X119333430Y-101048895D01*
X119350757Y-101066222D01*
X119371132Y-101079835D01*
X119393771Y-101089212D01*
X119417805Y-101093991D01*
X119442309Y-101093991D01*
X119466334Y-101089211D01*
X119482485Y-101084312D01*
X119492426Y-101081296D01*
X119507260Y-101079835D01*
X119573375Y-101073323D01*
X119627509Y-101073323D01*
X119708457Y-101081296D01*
X119812321Y-101112802D01*
X119838934Y-101127027D01*
X119908042Y-101163966D01*
X119991943Y-101232822D01*
X120060799Y-101316723D01*
X120097437Y-101385268D01*
X120111963Y-101412444D01*
X120143469Y-101516308D01*
X120154108Y-101624323D01*
X120143469Y-101732338D01*
X120111963Y-101836202D01*
X120111961Y-101836205D01*
X120060799Y-101931923D01*
X119991943Y-102015824D01*
X119908042Y-102084680D01*
X119839497Y-102121318D01*
X119812321Y-102135844D01*
X119708457Y-102167350D01*
X119627509Y-102175323D01*
X119573375Y-102175323D01*
X119492427Y-102167350D01*
X119388563Y-102135844D01*
X119361387Y-102121318D01*
X119292842Y-102084680D01*
X119208941Y-102015824D01*
X119140085Y-101931923D01*
X119088923Y-101836205D01*
X119088921Y-101836202D01*
X119057415Y-101732338D01*
X119046776Y-101624323D01*
X119057415Y-101516308D01*
X119088921Y-101412444D01*
X119106650Y-101379276D01*
X119140879Y-101315238D01*
X119152630Y-101297650D01*
X119162007Y-101275011D01*
X119166786Y-101250977D01*
X119166786Y-101226473D01*
X119162004Y-101202440D01*
X119152626Y-101179802D01*
X119139012Y-101159428D01*
X119121685Y-101142101D01*
X119101310Y-101128488D01*
X119078671Y-101119111D01*
X119054637Y-101114332D01*
X119030133Y-101114332D01*
X119006108Y-101119112D01*
X118989957Y-101124011D01*
X118980016Y-101127027D01*
X118968451Y-101128166D01*
X118899067Y-101135000D01*
X118844933Y-101135000D01*
X118763985Y-101127027D01*
X118660121Y-101095521D01*
X118618592Y-101073323D01*
X118564400Y-101044357D01*
X118480499Y-100975501D01*
X118411643Y-100891600D01*
X118360481Y-100795882D01*
X118360479Y-100795879D01*
X118328973Y-100692015D01*
X118318334Y-100584000D01*
X118328973Y-100475985D01*
X118360479Y-100372121D01*
X118397967Y-100301987D01*
X118412437Y-100274915D01*
X118424188Y-100257327D01*
X118433565Y-100234688D01*
X118438344Y-100210654D01*
X118438344Y-100186150D01*
X118433562Y-100162117D01*
X118424184Y-100139479D01*
X118410570Y-100119105D01*
X118393243Y-100101778D01*
X118372868Y-100088165D01*
X118350229Y-100078788D01*
X118326195Y-100074009D01*
X118301691Y-100074009D01*
X118277666Y-100078789D01*
X118261515Y-100083688D01*
X118251574Y-100086704D01*
X118240009Y-100087843D01*
X118170625Y-100094677D01*
X118116491Y-100094677D01*
X118035543Y-100086704D01*
X117931679Y-100055198D01*
X117890150Y-100033000D01*
X117835958Y-100004034D01*
X117752057Y-99935178D01*
X117683201Y-99851277D01*
X117632438Y-99756306D01*
X117632037Y-99755556D01*
X117600531Y-99651692D01*
X117589892Y-99543677D01*
X117600531Y-99435662D01*
X117632037Y-99331798D01*
X117648251Y-99301465D01*
X117657627Y-99278830D01*
X117662407Y-99254797D01*
X117662407Y-99230293D01*
X117657627Y-99206260D01*
X117648249Y-99183621D01*
X117634636Y-99163247D01*
X117617309Y-99145920D01*
X117596934Y-99132306D01*
X117574295Y-99122928D01*
X117550262Y-99118148D01*
X117525758Y-99118148D01*
X117501725Y-99122928D01*
X117479086Y-99132306D01*
X117466314Y-99140152D01*
X117279804Y-99270748D01*
X116647722Y-98368042D01*
X117550428Y-97735960D01*
X118182510Y-98638666D01*
X118182510Y-98638666D01*
G37*
G36*
X149106092Y-97854896D02*
G01*
X149209956Y-97886402D01*
X149237132Y-97900928D01*
X149305677Y-97937566D01*
X149389578Y-98006422D01*
X149458434Y-98090323D01*
X149495072Y-98158868D01*
X149509598Y-98186044D01*
X149541104Y-98289908D01*
X149551743Y-98397923D01*
X149541104Y-98505938D01*
X149509598Y-98609802D01*
X149509597Y-98609803D01*
X149509596Y-98609805D01*
X149458434Y-98705523D01*
X149389578Y-98789424D01*
X149305677Y-98858280D01*
X149248181Y-98889012D01*
X149209956Y-98909444D01*
X149106092Y-98940950D01*
X149025144Y-98948923D01*
X148971010Y-98948923D01*
X148890062Y-98940950D01*
X148786198Y-98909444D01*
X148774454Y-98903166D01*
X148751821Y-98893792D01*
X148727788Y-98889012D01*
X148703284Y-98889012D01*
X148679251Y-98893793D01*
X148656612Y-98903170D01*
X148636238Y-98916784D01*
X148618911Y-98934111D01*
X148605297Y-98954486D01*
X148595920Y-98977125D01*
X148591140Y-99001158D01*
X148591140Y-99025662D01*
X148595921Y-99049695D01*
X148605294Y-99072326D01*
X148611572Y-99084070D01*
X148643078Y-99187934D01*
X148653717Y-99295949D01*
X148643078Y-99403964D01*
X148611572Y-99507828D01*
X148611571Y-99507829D01*
X148611570Y-99507831D01*
X148560408Y-99603549D01*
X148491552Y-99687450D01*
X148407651Y-99756306D01*
X148339106Y-99792944D01*
X148311930Y-99807470D01*
X148208066Y-99838976D01*
X148127118Y-99846949D01*
X148072984Y-99846949D01*
X147992036Y-99838976D01*
X147888172Y-99807470D01*
X147876429Y-99801193D01*
X147853797Y-99791819D01*
X147829764Y-99787039D01*
X147805260Y-99787039D01*
X147781227Y-99791820D01*
X147758588Y-99801197D01*
X147738214Y-99814811D01*
X147720887Y-99832138D01*
X147707273Y-99852513D01*
X147697896Y-99875152D01*
X147693116Y-99899185D01*
X147693116Y-99923689D01*
X147697897Y-99947722D01*
X147707270Y-99970352D01*
X147713547Y-99982095D01*
X147745053Y-100085959D01*
X147755692Y-100193974D01*
X147745053Y-100301989D01*
X147713547Y-100405853D01*
X147699021Y-100433029D01*
X147662383Y-100501574D01*
X147593527Y-100585475D01*
X147509626Y-100654331D01*
X147441081Y-100690969D01*
X147413905Y-100705495D01*
X147310041Y-100737001D01*
X147229093Y-100744974D01*
X147174959Y-100744974D01*
X147094011Y-100737001D01*
X147046488Y-100722585D01*
X147022463Y-100717807D01*
X146997958Y-100717807D01*
X146973925Y-100722588D01*
X146951286Y-100731965D01*
X146930912Y-100745579D01*
X146913585Y-100762906D01*
X146899972Y-100783280D01*
X146890594Y-100805919D01*
X146885814Y-100829952D01*
X146885814Y-100854457D01*
X146890595Y-100878490D01*
X146899972Y-100901129D01*
X146921820Y-100930588D01*
X147083232Y-101092000D01*
X146304000Y-101871232D01*
X145524768Y-101092000D01*
X146304000Y-100312768D01*
X146465414Y-100474182D01*
X146484350Y-100489722D01*
X146505961Y-100501273D01*
X146529410Y-100508386D01*
X146553796Y-100510788D01*
X146578182Y-100508386D01*
X146601631Y-100501273D01*
X146623242Y-100489722D01*
X146642184Y-100474177D01*
X146657729Y-100455235D01*
X146669280Y-100433624D01*
X146676393Y-100410175D01*
X146678795Y-100385789D01*
X146673414Y-100349509D01*
X146658999Y-100301989D01*
X146648360Y-100193974D01*
X146658999Y-100085959D01*
X146690505Y-99982095D01*
X146725287Y-99917023D01*
X146741669Y-99886374D01*
X146810525Y-99802473D01*
X146894426Y-99733617D01*
X146962971Y-99696979D01*
X146990147Y-99682453D01*
X147094011Y-99650947D01*
X147174959Y-99642974D01*
X147229093Y-99642974D01*
X147310041Y-99650947D01*
X147413905Y-99682453D01*
X147425648Y-99688730D01*
X147448280Y-99698104D01*
X147472313Y-99702884D01*
X147496817Y-99702884D01*
X147520850Y-99698103D01*
X147543489Y-99688726D01*
X147563863Y-99675112D01*
X147581190Y-99657785D01*
X147594804Y-99637410D01*
X147604181Y-99614771D01*
X147608961Y-99590738D01*
X147608961Y-99566234D01*
X147604180Y-99542201D01*
X147594807Y-99519571D01*
X147588530Y-99507828D01*
X147557024Y-99403964D01*
X147546385Y-99295949D01*
X147557024Y-99187934D01*
X147588530Y-99084070D01*
X147619750Y-99025662D01*
X147639694Y-98988349D01*
X147708550Y-98904448D01*
X147792451Y-98835592D01*
X147876433Y-98790703D01*
X147888172Y-98784428D01*
X147992036Y-98752922D01*
X148072984Y-98744949D01*
X148127118Y-98744949D01*
X148208066Y-98752922D01*
X148311930Y-98784428D01*
X148323674Y-98790706D01*
X148346307Y-98800080D01*
X148370340Y-98804860D01*
X148394844Y-98804860D01*
X148418877Y-98800079D01*
X148441516Y-98790702D01*
X148461890Y-98777088D01*
X148479217Y-98759761D01*
X148492831Y-98739386D01*
X148502208Y-98716747D01*
X148506988Y-98692714D01*
X148506988Y-98668210D01*
X148502207Y-98644177D01*
X148492834Y-98621546D01*
X148486556Y-98609802D01*
X148455050Y-98505938D01*
X148444411Y-98397923D01*
X148455050Y-98289908D01*
X148486556Y-98186044D01*
X148501082Y-98158868D01*
X148537720Y-98090323D01*
X148606576Y-98006422D01*
X148690477Y-97937566D01*
X148759022Y-97900928D01*
X148786198Y-97886402D01*
X148890062Y-97854896D01*
X148971010Y-97846923D01*
X149025144Y-97846923D01*
X149106092Y-97854896D01*
X149106092Y-97854896D01*
G37*
G36*
X116629000Y-93134000D02*
G01*
X116400735Y-93134000D01*
X116376349Y-93136402D01*
X116352900Y-93143515D01*
X116331289Y-93155066D01*
X116312347Y-93170611D01*
X116296802Y-93189553D01*
X116285251Y-93211164D01*
X116278138Y-93234613D01*
X116275736Y-93258999D01*
X116278138Y-93283385D01*
X116285251Y-93306834D01*
X116296802Y-93328445D01*
X116312347Y-93347387D01*
X116331289Y-93362932D01*
X116341802Y-93369233D01*
X116385600Y-93392644D01*
X116385602Y-93392645D01*
X116385601Y-93392645D01*
X116469501Y-93461499D01*
X116538357Y-93545400D01*
X116572619Y-93609501D01*
X116589521Y-93641121D01*
X116621027Y-93744985D01*
X116631666Y-93853000D01*
X116621027Y-93961015D01*
X116589521Y-94064879D01*
X116589519Y-94064882D01*
X116538357Y-94160600D01*
X116469501Y-94244501D01*
X116385600Y-94313357D01*
X116317055Y-94349995D01*
X116289879Y-94364521D01*
X116186015Y-94396027D01*
X116105067Y-94404000D01*
X116050933Y-94404000D01*
X115969985Y-94396027D01*
X115866121Y-94364521D01*
X115838945Y-94349995D01*
X115770400Y-94313357D01*
X115686499Y-94244501D01*
X115617643Y-94160600D01*
X115566481Y-94064882D01*
X115566479Y-94064879D01*
X115534973Y-93961015D01*
X115524334Y-93853000D01*
X115534973Y-93744985D01*
X115566479Y-93641121D01*
X115583381Y-93609501D01*
X115617643Y-93545400D01*
X115686499Y-93461499D01*
X115770399Y-93392645D01*
X115770398Y-93392645D01*
X115770400Y-93392644D01*
X115814193Y-93369236D01*
X115834563Y-93355625D01*
X115851890Y-93338298D01*
X115865504Y-93317924D01*
X115874881Y-93295285D01*
X115879662Y-93271252D01*
X115879662Y-93246748D01*
X115874882Y-93222714D01*
X115865505Y-93200076D01*
X115851891Y-93179701D01*
X115834564Y-93162374D01*
X115814190Y-93148760D01*
X115791551Y-93139383D01*
X115767518Y-93134602D01*
X115755265Y-93134000D01*
X115527000Y-93134000D01*
X115527000Y-92032000D01*
X116629000Y-92032000D01*
X116629000Y-93134000D01*
X116629000Y-93134000D01*
G37*
G36*
X144061000Y-92499000D02*
G01*
X143832735Y-92499000D01*
X143808349Y-92501402D01*
X143784900Y-92508515D01*
X143763289Y-92520066D01*
X143744347Y-92535611D01*
X143728802Y-92554553D01*
X143717251Y-92576164D01*
X143710138Y-92599613D01*
X143707736Y-92623999D01*
X143710138Y-92648385D01*
X143717251Y-92671834D01*
X143728802Y-92693445D01*
X143744347Y-92712387D01*
X143763289Y-92727932D01*
X143773802Y-92734233D01*
X143817600Y-92757644D01*
X143817602Y-92757645D01*
X143817601Y-92757645D01*
X143901501Y-92826499D01*
X143970357Y-92910400D01*
X144006995Y-92978945D01*
X144021521Y-93006121D01*
X144053027Y-93109985D01*
X144063666Y-93218000D01*
X144053027Y-93326015D01*
X144021521Y-93429879D01*
X144021519Y-93429882D01*
X143970357Y-93525600D01*
X143901501Y-93609501D01*
X143817600Y-93678357D01*
X143749055Y-93714995D01*
X143721879Y-93729521D01*
X143618015Y-93761027D01*
X143537067Y-93769000D01*
X143482933Y-93769000D01*
X143401985Y-93761027D01*
X143298121Y-93729521D01*
X143270945Y-93714995D01*
X143202400Y-93678357D01*
X143118499Y-93609501D01*
X143049643Y-93525600D01*
X142998481Y-93429882D01*
X142998479Y-93429879D01*
X142966973Y-93326015D01*
X142956334Y-93218000D01*
X142966973Y-93109985D01*
X142998479Y-93006121D01*
X143013005Y-92978945D01*
X143049643Y-92910400D01*
X143118499Y-92826499D01*
X143202399Y-92757645D01*
X143202398Y-92757645D01*
X143202400Y-92757644D01*
X143246193Y-92734236D01*
X143266563Y-92720625D01*
X143283890Y-92703298D01*
X143297504Y-92682924D01*
X143306881Y-92660285D01*
X143311662Y-92636252D01*
X143311662Y-92611748D01*
X143306882Y-92587714D01*
X143297505Y-92565076D01*
X143283891Y-92544701D01*
X143266564Y-92527374D01*
X143246190Y-92513760D01*
X143223551Y-92504383D01*
X143199518Y-92499602D01*
X143187265Y-92499000D01*
X142959000Y-92499000D01*
X142959000Y-91397000D01*
X144061000Y-91397000D01*
X144061000Y-92499000D01*
X144061000Y-92499000D01*
G37*
G36*
X140446797Y-89106567D02*
G01*
X140501575Y-89129257D01*
X140501577Y-89129258D01*
X140550876Y-89162198D01*
X140592802Y-89204124D01*
X140625742Y-89253423D01*
X140630067Y-89259896D01*
X140645612Y-89278838D01*
X140664554Y-89294383D01*
X140686165Y-89305934D01*
X140709614Y-89313047D01*
X140734000Y-89315449D01*
X140758386Y-89313047D01*
X140781835Y-89305934D01*
X140803446Y-89294383D01*
X140822388Y-89278838D01*
X140837933Y-89259896D01*
X140842258Y-89253423D01*
X140875198Y-89204124D01*
X140917124Y-89162198D01*
X140966423Y-89129258D01*
X140966425Y-89129257D01*
X141021203Y-89106567D01*
X141079353Y-89095000D01*
X141138647Y-89095000D01*
X141196797Y-89106567D01*
X141251575Y-89129257D01*
X141251577Y-89129258D01*
X141300876Y-89162198D01*
X141342802Y-89204124D01*
X141375742Y-89253423D01*
X141380067Y-89259896D01*
X141395612Y-89278838D01*
X141414554Y-89294383D01*
X141436165Y-89305934D01*
X141459614Y-89313047D01*
X141484000Y-89315449D01*
X141508386Y-89313047D01*
X141531835Y-89305934D01*
X141553446Y-89294383D01*
X141572388Y-89278838D01*
X141587933Y-89259896D01*
X141592258Y-89253423D01*
X141625198Y-89204124D01*
X141667124Y-89162198D01*
X141716423Y-89129258D01*
X141716425Y-89129257D01*
X141771203Y-89106567D01*
X141829353Y-89095000D01*
X141888647Y-89095000D01*
X141946797Y-89106567D01*
X142001575Y-89129257D01*
X142001577Y-89129258D01*
X142050876Y-89162198D01*
X142092802Y-89204124D01*
X142125742Y-89253423D01*
X142125743Y-89253425D01*
X142148433Y-89308203D01*
X142160000Y-89366353D01*
X142160000Y-89425647D01*
X142148433Y-89483797D01*
X142128423Y-89532104D01*
X142125742Y-89538577D01*
X142092802Y-89587876D01*
X142050876Y-89629802D01*
X142001577Y-89662742D01*
X142001576Y-89662743D01*
X142001575Y-89662743D01*
X141946797Y-89685433D01*
X141888647Y-89697000D01*
X141829353Y-89697000D01*
X141771203Y-89685433D01*
X141716425Y-89662743D01*
X141716424Y-89662743D01*
X141716423Y-89662742D01*
X141667124Y-89629802D01*
X141625198Y-89587876D01*
X141592258Y-89538577D01*
X141592257Y-89538575D01*
X141587933Y-89532104D01*
X141572388Y-89513162D01*
X141553446Y-89497617D01*
X141531835Y-89486066D01*
X141508386Y-89478953D01*
X141484000Y-89476551D01*
X141459614Y-89478953D01*
X141436165Y-89486066D01*
X141414554Y-89497617D01*
X141395612Y-89513162D01*
X141380067Y-89532104D01*
X141375743Y-89538575D01*
X141375742Y-89538577D01*
X141342802Y-89587876D01*
X141300876Y-89629802D01*
X141251577Y-89662742D01*
X141251576Y-89662743D01*
X141251575Y-89662743D01*
X141196797Y-89685433D01*
X141138647Y-89697000D01*
X141079353Y-89697000D01*
X141021203Y-89685433D01*
X140966425Y-89662743D01*
X140966424Y-89662743D01*
X140966423Y-89662742D01*
X140917124Y-89629802D01*
X140875198Y-89587876D01*
X140842258Y-89538577D01*
X140842257Y-89538575D01*
X140837933Y-89532104D01*
X140822388Y-89513162D01*
X140803446Y-89497617D01*
X140781835Y-89486066D01*
X140758386Y-89478953D01*
X140734000Y-89476551D01*
X140709614Y-89478953D01*
X140686165Y-89486066D01*
X140664554Y-89497617D01*
X140645612Y-89513162D01*
X140630067Y-89532104D01*
X140625743Y-89538575D01*
X140625742Y-89538577D01*
X140592802Y-89587876D01*
X140550876Y-89629802D01*
X140501577Y-89662742D01*
X140501576Y-89662743D01*
X140501575Y-89662743D01*
X140446797Y-89685433D01*
X140388647Y-89697000D01*
X140329353Y-89697000D01*
X140271203Y-89685433D01*
X140216425Y-89662743D01*
X140216424Y-89662743D01*
X140216423Y-89662742D01*
X140167124Y-89629802D01*
X140125198Y-89587876D01*
X140092258Y-89538577D01*
X140089577Y-89532104D01*
X140069567Y-89483797D01*
X140058000Y-89425647D01*
X140058000Y-89366353D01*
X140069567Y-89308203D01*
X140092257Y-89253425D01*
X140092258Y-89253423D01*
X140125198Y-89204124D01*
X140167124Y-89162198D01*
X140216423Y-89129258D01*
X140216425Y-89129257D01*
X140271203Y-89106567D01*
X140329353Y-89095000D01*
X140388647Y-89095000D01*
X140446797Y-89106567D01*
X140446797Y-89106567D01*
G37*
G36*
X124432797Y-89106567D02*
G01*
X124487575Y-89129257D01*
X124487577Y-89129258D01*
X124536876Y-89162198D01*
X124578802Y-89204124D01*
X124611742Y-89253423D01*
X124616067Y-89259896D01*
X124631612Y-89278838D01*
X124650554Y-89294383D01*
X124672165Y-89305934D01*
X124695614Y-89313047D01*
X124720000Y-89315449D01*
X124744386Y-89313047D01*
X124767835Y-89305934D01*
X124789446Y-89294383D01*
X124808388Y-89278838D01*
X124823933Y-89259896D01*
X124828258Y-89253423D01*
X124861198Y-89204124D01*
X124903124Y-89162198D01*
X124952423Y-89129258D01*
X124952425Y-89129257D01*
X125007203Y-89106567D01*
X125065353Y-89095000D01*
X125124647Y-89095000D01*
X125182797Y-89106567D01*
X125237575Y-89129257D01*
X125237577Y-89129258D01*
X125286876Y-89162198D01*
X125328802Y-89204124D01*
X125361742Y-89253423D01*
X125366067Y-89259896D01*
X125381612Y-89278838D01*
X125400554Y-89294383D01*
X125422165Y-89305934D01*
X125445614Y-89313047D01*
X125470000Y-89315449D01*
X125494386Y-89313047D01*
X125517835Y-89305934D01*
X125539446Y-89294383D01*
X125558388Y-89278838D01*
X125573933Y-89259896D01*
X125578258Y-89253423D01*
X125611198Y-89204124D01*
X125653124Y-89162198D01*
X125702423Y-89129258D01*
X125702425Y-89129257D01*
X125757203Y-89106567D01*
X125815353Y-89095000D01*
X125874647Y-89095000D01*
X125932797Y-89106567D01*
X125987575Y-89129257D01*
X125987577Y-89129258D01*
X126036876Y-89162198D01*
X126078802Y-89204124D01*
X126111742Y-89253423D01*
X126111743Y-89253425D01*
X126134433Y-89308203D01*
X126146000Y-89366353D01*
X126146000Y-89425647D01*
X126134433Y-89483797D01*
X126114423Y-89532104D01*
X126111742Y-89538577D01*
X126078802Y-89587876D01*
X126036876Y-89629802D01*
X125987577Y-89662742D01*
X125987576Y-89662743D01*
X125987575Y-89662743D01*
X125932797Y-89685433D01*
X125874647Y-89697000D01*
X125815353Y-89697000D01*
X125757203Y-89685433D01*
X125702425Y-89662743D01*
X125702424Y-89662743D01*
X125702423Y-89662742D01*
X125653124Y-89629802D01*
X125611198Y-89587876D01*
X125578258Y-89538577D01*
X125578257Y-89538575D01*
X125573933Y-89532104D01*
X125558388Y-89513162D01*
X125539446Y-89497617D01*
X125517835Y-89486066D01*
X125494386Y-89478953D01*
X125470000Y-89476551D01*
X125445614Y-89478953D01*
X125422165Y-89486066D01*
X125400554Y-89497617D01*
X125381612Y-89513162D01*
X125366067Y-89532104D01*
X125361743Y-89538575D01*
X125361742Y-89538577D01*
X125328802Y-89587876D01*
X125286876Y-89629802D01*
X125237577Y-89662742D01*
X125237576Y-89662743D01*
X125237575Y-89662743D01*
X125182797Y-89685433D01*
X125124647Y-89697000D01*
X125065353Y-89697000D01*
X125007203Y-89685433D01*
X124952425Y-89662743D01*
X124952424Y-89662743D01*
X124952423Y-89662742D01*
X124903124Y-89629802D01*
X124861198Y-89587876D01*
X124828258Y-89538577D01*
X124828257Y-89538575D01*
X124823933Y-89532104D01*
X124808388Y-89513162D01*
X124789446Y-89497617D01*
X124767835Y-89486066D01*
X124744386Y-89478953D01*
X124720000Y-89476551D01*
X124695614Y-89478953D01*
X124672165Y-89486066D01*
X124650554Y-89497617D01*
X124631612Y-89513162D01*
X124616067Y-89532104D01*
X124611743Y-89538575D01*
X124611742Y-89538577D01*
X124578802Y-89587876D01*
X124536876Y-89629802D01*
X124487577Y-89662742D01*
X124487576Y-89662743D01*
X124487575Y-89662743D01*
X124432797Y-89685433D01*
X124374647Y-89697000D01*
X124315353Y-89697000D01*
X124257203Y-89685433D01*
X124202425Y-89662743D01*
X124202424Y-89662743D01*
X124202423Y-89662742D01*
X124153124Y-89629802D01*
X124111198Y-89587876D01*
X124078258Y-89538577D01*
X124075577Y-89532104D01*
X124055567Y-89483797D01*
X124044000Y-89425647D01*
X124044000Y-89366353D01*
X124055567Y-89308203D01*
X124078257Y-89253425D01*
X124078258Y-89253423D01*
X124111198Y-89204124D01*
X124153124Y-89162198D01*
X124202423Y-89129258D01*
X124202425Y-89129257D01*
X124257203Y-89106567D01*
X124315353Y-89095000D01*
X124374647Y-89095000D01*
X124432797Y-89106567D01*
X124432797Y-89106567D01*
G37*
G36*
X124432797Y-87606567D02*
G01*
X124487575Y-87629257D01*
X124487577Y-87629258D01*
X124536876Y-87662198D01*
X124578802Y-87704124D01*
X124611742Y-87753423D01*
X124616067Y-87759896D01*
X124631612Y-87778838D01*
X124650554Y-87794383D01*
X124672165Y-87805934D01*
X124695614Y-87813047D01*
X124720000Y-87815449D01*
X124744386Y-87813047D01*
X124767835Y-87805934D01*
X124789446Y-87794383D01*
X124808388Y-87778838D01*
X124823933Y-87759896D01*
X124828258Y-87753423D01*
X124861198Y-87704124D01*
X124903124Y-87662198D01*
X124952423Y-87629258D01*
X124952425Y-87629257D01*
X125007203Y-87606567D01*
X125065353Y-87595000D01*
X125124647Y-87595000D01*
X125182797Y-87606567D01*
X125237575Y-87629257D01*
X125237577Y-87629258D01*
X125286876Y-87662198D01*
X125328802Y-87704124D01*
X125361742Y-87753423D01*
X125366067Y-87759896D01*
X125381612Y-87778838D01*
X125400554Y-87794383D01*
X125422165Y-87805934D01*
X125445614Y-87813047D01*
X125470000Y-87815449D01*
X125494386Y-87813047D01*
X125517835Y-87805934D01*
X125539446Y-87794383D01*
X125558388Y-87778838D01*
X125573933Y-87759896D01*
X125578258Y-87753423D01*
X125611198Y-87704124D01*
X125653124Y-87662198D01*
X125702423Y-87629258D01*
X125702425Y-87629257D01*
X125757203Y-87606567D01*
X125815353Y-87595000D01*
X125874647Y-87595000D01*
X125932797Y-87606567D01*
X125987575Y-87629257D01*
X125987577Y-87629258D01*
X126036876Y-87662198D01*
X126078802Y-87704124D01*
X126111742Y-87753423D01*
X126111743Y-87753425D01*
X126134433Y-87808203D01*
X126146000Y-87866353D01*
X126146000Y-87925647D01*
X126134433Y-87983797D01*
X126114423Y-88032104D01*
X126111742Y-88038577D01*
X126078802Y-88087876D01*
X126036876Y-88129802D01*
X125987577Y-88162742D01*
X125987576Y-88162743D01*
X125987575Y-88162743D01*
X125932797Y-88185433D01*
X125874647Y-88197000D01*
X125815353Y-88197000D01*
X125757203Y-88185433D01*
X125702425Y-88162743D01*
X125702424Y-88162743D01*
X125702423Y-88162742D01*
X125653124Y-88129802D01*
X125611198Y-88087876D01*
X125578258Y-88038577D01*
X125578257Y-88038575D01*
X125573933Y-88032104D01*
X125558388Y-88013162D01*
X125539446Y-87997617D01*
X125517835Y-87986066D01*
X125494386Y-87978953D01*
X125470000Y-87976551D01*
X125445614Y-87978953D01*
X125422165Y-87986066D01*
X125400554Y-87997617D01*
X125381612Y-88013162D01*
X125366067Y-88032104D01*
X125361743Y-88038575D01*
X125361742Y-88038577D01*
X125328802Y-88087876D01*
X125286876Y-88129802D01*
X125237577Y-88162742D01*
X125237576Y-88162743D01*
X125237575Y-88162743D01*
X125182797Y-88185433D01*
X125124647Y-88197000D01*
X125065353Y-88197000D01*
X125007203Y-88185433D01*
X124952425Y-88162743D01*
X124952424Y-88162743D01*
X124952423Y-88162742D01*
X124903124Y-88129802D01*
X124861198Y-88087876D01*
X124828258Y-88038577D01*
X124828257Y-88038575D01*
X124823933Y-88032104D01*
X124808388Y-88013162D01*
X124789446Y-87997617D01*
X124767835Y-87986066D01*
X124744386Y-87978953D01*
X124720000Y-87976551D01*
X124695614Y-87978953D01*
X124672165Y-87986066D01*
X124650554Y-87997617D01*
X124631612Y-88013162D01*
X124616067Y-88032104D01*
X124611743Y-88038575D01*
X124611742Y-88038577D01*
X124578802Y-88087876D01*
X124536876Y-88129802D01*
X124487577Y-88162742D01*
X124487576Y-88162743D01*
X124487575Y-88162743D01*
X124432797Y-88185433D01*
X124374647Y-88197000D01*
X124315353Y-88197000D01*
X124257203Y-88185433D01*
X124202425Y-88162743D01*
X124202424Y-88162743D01*
X124202423Y-88162742D01*
X124153124Y-88129802D01*
X124111198Y-88087876D01*
X124078258Y-88038577D01*
X124075577Y-88032104D01*
X124055567Y-87983797D01*
X124044000Y-87925647D01*
X124044000Y-87866353D01*
X124055567Y-87808203D01*
X124078257Y-87753425D01*
X124078258Y-87753423D01*
X124111198Y-87704124D01*
X124153124Y-87662198D01*
X124202423Y-87629258D01*
X124202425Y-87629257D01*
X124257203Y-87606567D01*
X124315353Y-87595000D01*
X124374647Y-87595000D01*
X124432797Y-87606567D01*
X124432797Y-87606567D01*
G37*
G36*
X140446797Y-87606567D02*
G01*
X140501575Y-87629257D01*
X140501577Y-87629258D01*
X140550876Y-87662198D01*
X140592802Y-87704124D01*
X140625742Y-87753423D01*
X140630067Y-87759896D01*
X140645612Y-87778838D01*
X140664554Y-87794383D01*
X140686165Y-87805934D01*
X140709614Y-87813047D01*
X140734000Y-87815449D01*
X140758386Y-87813047D01*
X140781835Y-87805934D01*
X140803446Y-87794383D01*
X140822388Y-87778838D01*
X140837933Y-87759896D01*
X140842258Y-87753423D01*
X140875198Y-87704124D01*
X140917124Y-87662198D01*
X140966423Y-87629258D01*
X140966425Y-87629257D01*
X141021203Y-87606567D01*
X141079353Y-87595000D01*
X141138647Y-87595000D01*
X141196797Y-87606567D01*
X141251575Y-87629257D01*
X141251577Y-87629258D01*
X141300876Y-87662198D01*
X141342802Y-87704124D01*
X141375742Y-87753423D01*
X141380067Y-87759896D01*
X141395612Y-87778838D01*
X141414554Y-87794383D01*
X141436165Y-87805934D01*
X141459614Y-87813047D01*
X141484000Y-87815449D01*
X141508386Y-87813047D01*
X141531835Y-87805934D01*
X141553446Y-87794383D01*
X141572388Y-87778838D01*
X141587933Y-87759896D01*
X141592258Y-87753423D01*
X141625198Y-87704124D01*
X141667124Y-87662198D01*
X141716423Y-87629258D01*
X141716425Y-87629257D01*
X141771203Y-87606567D01*
X141829353Y-87595000D01*
X141888647Y-87595000D01*
X141946797Y-87606567D01*
X142001575Y-87629257D01*
X142001577Y-87629258D01*
X142050876Y-87662198D01*
X142092802Y-87704124D01*
X142125742Y-87753423D01*
X142125743Y-87753425D01*
X142148433Y-87808203D01*
X142160000Y-87866353D01*
X142160000Y-87925647D01*
X142148433Y-87983797D01*
X142128423Y-88032104D01*
X142125742Y-88038577D01*
X142092802Y-88087876D01*
X142050876Y-88129802D01*
X142001577Y-88162742D01*
X142001576Y-88162743D01*
X142001575Y-88162743D01*
X141946797Y-88185433D01*
X141888647Y-88197000D01*
X141829353Y-88197000D01*
X141771203Y-88185433D01*
X141716425Y-88162743D01*
X141716424Y-88162743D01*
X141716423Y-88162742D01*
X141667124Y-88129802D01*
X141625198Y-88087876D01*
X141592258Y-88038577D01*
X141592257Y-88038575D01*
X141587933Y-88032104D01*
X141572388Y-88013162D01*
X141553446Y-87997617D01*
X141531835Y-87986066D01*
X141508386Y-87978953D01*
X141484000Y-87976551D01*
X141459614Y-87978953D01*
X141436165Y-87986066D01*
X141414554Y-87997617D01*
X141395612Y-88013162D01*
X141380067Y-88032104D01*
X141375743Y-88038575D01*
X141375742Y-88038577D01*
X141342802Y-88087876D01*
X141300876Y-88129802D01*
X141251577Y-88162742D01*
X141251576Y-88162743D01*
X141251575Y-88162743D01*
X141196797Y-88185433D01*
X141138647Y-88197000D01*
X141079353Y-88197000D01*
X141021203Y-88185433D01*
X140966425Y-88162743D01*
X140966424Y-88162743D01*
X140966423Y-88162742D01*
X140917124Y-88129802D01*
X140875198Y-88087876D01*
X140842258Y-88038577D01*
X140842257Y-88038575D01*
X140837933Y-88032104D01*
X140822388Y-88013162D01*
X140803446Y-87997617D01*
X140781835Y-87986066D01*
X140758386Y-87978953D01*
X140734000Y-87976551D01*
X140709614Y-87978953D01*
X140686165Y-87986066D01*
X140664554Y-87997617D01*
X140645612Y-88013162D01*
X140630067Y-88032104D01*
X140625743Y-88038575D01*
X140625742Y-88038577D01*
X140592802Y-88087876D01*
X140550876Y-88129802D01*
X140501577Y-88162742D01*
X140501576Y-88162743D01*
X140501575Y-88162743D01*
X140446797Y-88185433D01*
X140388647Y-88197000D01*
X140329353Y-88197000D01*
X140271203Y-88185433D01*
X140216425Y-88162743D01*
X140216424Y-88162743D01*
X140216423Y-88162742D01*
X140167124Y-88129802D01*
X140125198Y-88087876D01*
X140092258Y-88038577D01*
X140089577Y-88032104D01*
X140069567Y-87983797D01*
X140058000Y-87925647D01*
X140058000Y-87866353D01*
X140069567Y-87808203D01*
X140092257Y-87753425D01*
X140092258Y-87753423D01*
X140125198Y-87704124D01*
X140167124Y-87662198D01*
X140216423Y-87629258D01*
X140216425Y-87629257D01*
X140271203Y-87606567D01*
X140329353Y-87595000D01*
X140388647Y-87595000D01*
X140446797Y-87606567D01*
X140446797Y-87606567D01*
G37*
G36*
X141584578Y-85824197D02*
G01*
X141637350Y-85834694D01*
X141736770Y-85875875D01*
X141826246Y-85935661D01*
X141902339Y-86011754D01*
X141962125Y-86101230D01*
X142003306Y-86200650D01*
X142024300Y-86306194D01*
X142024300Y-86413806D01*
X142003306Y-86519350D01*
X141962125Y-86618770D01*
X141902339Y-86708246D01*
X141826246Y-86784339D01*
X141736770Y-86844125D01*
X141637350Y-86885306D01*
X141584578Y-86895803D01*
X141531807Y-86906300D01*
X141424193Y-86906300D01*
X141371422Y-86895803D01*
X141318650Y-86885306D01*
X141219230Y-86844125D01*
X141129754Y-86784339D01*
X141053661Y-86708246D01*
X140993875Y-86618770D01*
X140952694Y-86519350D01*
X140931700Y-86413806D01*
X140931700Y-86306194D01*
X140952694Y-86200650D01*
X140993875Y-86101230D01*
X141053661Y-86011754D01*
X141129754Y-85935661D01*
X141219230Y-85875875D01*
X141318650Y-85834694D01*
X141371422Y-85824197D01*
X141424193Y-85813700D01*
X141531807Y-85813700D01*
X141584578Y-85824197D01*
X141584578Y-85824197D01*
G37*
G36*
X144823000Y-85133000D02*
G01*
X144594735Y-85133000D01*
X144570349Y-85135402D01*
X144546900Y-85142515D01*
X144525289Y-85154066D01*
X144506347Y-85169611D01*
X144490802Y-85188553D01*
X144479251Y-85210164D01*
X144472138Y-85233613D01*
X144469736Y-85257999D01*
X144472138Y-85282385D01*
X144479251Y-85305834D01*
X144490802Y-85327445D01*
X144506347Y-85346387D01*
X144525289Y-85361932D01*
X144535802Y-85368233D01*
X144579600Y-85391644D01*
X144587110Y-85397807D01*
X144663501Y-85460499D01*
X144732357Y-85544400D01*
X144763556Y-85602770D01*
X144783521Y-85640121D01*
X144815027Y-85743985D01*
X144825666Y-85852000D01*
X144815027Y-85960015D01*
X144783521Y-86063879D01*
X144783519Y-86063882D01*
X144732357Y-86159600D01*
X144663501Y-86243501D01*
X144579600Y-86312357D01*
X144511055Y-86348995D01*
X144483879Y-86363521D01*
X144380015Y-86395027D01*
X144299067Y-86403000D01*
X144244933Y-86403000D01*
X144163985Y-86395027D01*
X144060121Y-86363521D01*
X144032945Y-86348995D01*
X143964400Y-86312357D01*
X143880499Y-86243501D01*
X143811643Y-86159600D01*
X143760481Y-86063882D01*
X143760479Y-86063879D01*
X143728973Y-85960015D01*
X143718334Y-85852000D01*
X143728973Y-85743985D01*
X143760479Y-85640121D01*
X143780444Y-85602770D01*
X143811643Y-85544400D01*
X143880499Y-85460499D01*
X143956890Y-85397807D01*
X143964400Y-85391644D01*
X144008193Y-85368236D01*
X144028563Y-85354625D01*
X144045890Y-85337298D01*
X144059504Y-85316924D01*
X144068881Y-85294285D01*
X144073662Y-85270252D01*
X144073662Y-85245748D01*
X144068882Y-85221714D01*
X144059505Y-85199076D01*
X144045891Y-85178701D01*
X144028564Y-85161374D01*
X144008190Y-85147760D01*
X143985551Y-85138383D01*
X143961518Y-85133602D01*
X143949265Y-85133000D01*
X143721000Y-85133000D01*
X143721000Y-84031000D01*
X144823000Y-84031000D01*
X144823000Y-85133000D01*
X144823000Y-85133000D01*
G37*
G36*
X136504578Y-84808197D02*
G01*
X136557350Y-84818694D01*
X136656770Y-84859875D01*
X136746246Y-84919661D01*
X136822339Y-84995754D01*
X136882125Y-85085230D01*
X136923306Y-85184650D01*
X136944300Y-85290194D01*
X136944300Y-85397806D01*
X136923306Y-85503350D01*
X136882125Y-85602770D01*
X136822339Y-85692246D01*
X136746246Y-85768339D01*
X136656770Y-85828125D01*
X136557350Y-85869306D01*
X136524325Y-85875875D01*
X136451807Y-85890300D01*
X136344193Y-85890300D01*
X136271675Y-85875875D01*
X136238650Y-85869306D01*
X136139230Y-85828125D01*
X136049754Y-85768339D01*
X135973661Y-85692246D01*
X135913875Y-85602770D01*
X135872694Y-85503350D01*
X135851700Y-85397806D01*
X135851700Y-85290194D01*
X135872694Y-85184650D01*
X135913875Y-85085230D01*
X135973661Y-84995754D01*
X136049754Y-84919661D01*
X136139230Y-84859875D01*
X136238650Y-84818694D01*
X136291422Y-84808197D01*
X136344193Y-84797700D01*
X136451807Y-84797700D01*
X136504578Y-84808197D01*
X136504578Y-84808197D01*
G37*
G36*
X116629000Y-84117000D02*
G01*
X116400735Y-84117000D01*
X116376349Y-84119402D01*
X116352900Y-84126515D01*
X116331289Y-84138066D01*
X116312347Y-84153611D01*
X116296802Y-84172553D01*
X116285251Y-84194164D01*
X116278138Y-84217613D01*
X116275736Y-84241999D01*
X116278138Y-84266385D01*
X116285251Y-84289834D01*
X116296802Y-84311445D01*
X116312347Y-84330387D01*
X116331289Y-84345932D01*
X116341802Y-84352233D01*
X116385600Y-84375644D01*
X116393110Y-84381807D01*
X116469501Y-84444499D01*
X116538357Y-84528400D01*
X116569556Y-84586770D01*
X116589521Y-84624121D01*
X116621027Y-84727985D01*
X116631666Y-84836000D01*
X116621027Y-84944015D01*
X116589521Y-85047879D01*
X116589519Y-85047882D01*
X116538357Y-85143600D01*
X116469501Y-85227501D01*
X116385600Y-85296357D01*
X116327438Y-85327445D01*
X116289879Y-85347521D01*
X116186015Y-85379027D01*
X116105067Y-85387000D01*
X116050933Y-85387000D01*
X115969985Y-85379027D01*
X115866121Y-85347521D01*
X115828562Y-85327445D01*
X115770400Y-85296357D01*
X115686499Y-85227501D01*
X115617643Y-85143600D01*
X115566481Y-85047882D01*
X115566479Y-85047879D01*
X115534973Y-84944015D01*
X115524334Y-84836000D01*
X115534973Y-84727985D01*
X115566479Y-84624121D01*
X115586444Y-84586770D01*
X115617643Y-84528400D01*
X115686499Y-84444499D01*
X115762890Y-84381807D01*
X115770400Y-84375644D01*
X115814193Y-84352236D01*
X115834563Y-84338625D01*
X115851890Y-84321298D01*
X115865504Y-84300924D01*
X115874881Y-84278285D01*
X115879662Y-84254252D01*
X115879662Y-84229748D01*
X115874882Y-84205714D01*
X115865505Y-84183076D01*
X115851891Y-84162701D01*
X115834564Y-84145374D01*
X115814190Y-84131760D01*
X115791551Y-84122383D01*
X115767518Y-84117602D01*
X115755265Y-84117000D01*
X115527000Y-84117000D01*
X115527000Y-83015000D01*
X116629000Y-83015000D01*
X116629000Y-84117000D01*
X116629000Y-84117000D01*
G37*
G36*
X141584578Y-83792197D02*
G01*
X141637350Y-83802694D01*
X141736770Y-83843875D01*
X141826246Y-83903661D01*
X141902339Y-83979754D01*
X141962125Y-84069230D01*
X142003306Y-84168650D01*
X142024300Y-84274194D01*
X142024300Y-84381806D01*
X142003306Y-84487350D01*
X141962125Y-84586770D01*
X141902339Y-84676246D01*
X141826246Y-84752339D01*
X141736770Y-84812125D01*
X141637350Y-84853306D01*
X141604325Y-84859875D01*
X141531807Y-84874300D01*
X141424193Y-84874300D01*
X141351675Y-84859875D01*
X141318650Y-84853306D01*
X141219230Y-84812125D01*
X141129754Y-84752339D01*
X141053661Y-84676246D01*
X140993875Y-84586770D01*
X140952694Y-84487350D01*
X140931700Y-84381806D01*
X140931700Y-84274194D01*
X140952694Y-84168650D01*
X140993875Y-84069230D01*
X141053661Y-83979754D01*
X141129754Y-83903661D01*
X141219230Y-83843875D01*
X141318650Y-83802694D01*
X141371422Y-83792197D01*
X141424193Y-83781700D01*
X141531807Y-83781700D01*
X141584578Y-83792197D01*
X141584578Y-83792197D01*
G37*
G36*
X134128300Y-63326703D02*
G01*
X135640494Y-63627497D01*
X137267652Y-64301488D01*
X138732055Y-65279972D01*
X139977428Y-66525345D01*
X140955912Y-67989748D01*
X141629903Y-69616906D01*
X141930697Y-71129100D01*
X141973500Y-71344287D01*
X141973500Y-73105513D01*
X141948338Y-73232010D01*
X141629903Y-74832894D01*
X140955912Y-76460052D01*
X139977428Y-77924455D01*
X138732055Y-79169828D01*
X137267652Y-80148312D01*
X135640494Y-80822303D01*
X134128300Y-81123097D01*
X133913113Y-81165900D01*
X132151887Y-81165900D01*
X131936700Y-81123097D01*
X130424506Y-80822303D01*
X128797348Y-80148312D01*
X127332945Y-79169828D01*
X126087572Y-77924455D01*
X125109088Y-76460052D01*
X124435097Y-74832894D01*
X124116662Y-73232010D01*
X124091500Y-73105513D01*
X124091500Y-71344287D01*
X124134303Y-71129100D01*
X124435097Y-69616906D01*
X125109088Y-67989748D01*
X126087572Y-66525345D01*
X127332945Y-65279972D01*
X128797348Y-64301488D01*
X130424506Y-63627497D01*
X131936700Y-63326703D01*
X132151887Y-63283900D01*
X133913113Y-63283900D01*
X134128300Y-63326703D01*
X134128300Y-63326703D01*
G37*
G36*
X120404092Y-76264896D02*
G01*
X120507956Y-76296402D01*
X120535132Y-76310928D01*
X120603677Y-76347566D01*
X120687578Y-76416422D01*
X120756434Y-76500323D01*
X120793072Y-76568868D01*
X120807598Y-76596044D01*
X120839104Y-76699908D01*
X120849743Y-76807923D01*
X120839104Y-76915938D01*
X120807598Y-77019802D01*
X120807597Y-77019803D01*
X120807596Y-77019805D01*
X120756434Y-77115523D01*
X120687578Y-77199424D01*
X120603677Y-77268280D01*
X120546181Y-77299012D01*
X120507956Y-77319444D01*
X120404092Y-77350950D01*
X120323144Y-77358923D01*
X120269010Y-77358923D01*
X120188062Y-77350950D01*
X120084198Y-77319444D01*
X120072454Y-77313166D01*
X120049821Y-77303792D01*
X120025788Y-77299012D01*
X120001284Y-77299012D01*
X119977251Y-77303793D01*
X119954612Y-77313170D01*
X119934238Y-77326784D01*
X119916911Y-77344111D01*
X119903297Y-77364486D01*
X119893920Y-77387125D01*
X119889140Y-77411158D01*
X119889140Y-77435662D01*
X119893921Y-77459695D01*
X119903294Y-77482326D01*
X119909572Y-77494070D01*
X119941078Y-77597934D01*
X119951717Y-77705949D01*
X119941078Y-77813964D01*
X119909572Y-77917828D01*
X119903299Y-77929564D01*
X119858408Y-78013549D01*
X119789552Y-78097450D01*
X119705651Y-78166306D01*
X119637106Y-78202944D01*
X119609930Y-78217470D01*
X119506066Y-78248976D01*
X119425118Y-78256949D01*
X119370984Y-78256949D01*
X119290036Y-78248976D01*
X119186172Y-78217470D01*
X119174429Y-78211193D01*
X119151797Y-78201819D01*
X119127764Y-78197039D01*
X119103260Y-78197039D01*
X119079227Y-78201820D01*
X119056588Y-78211197D01*
X119036214Y-78224811D01*
X119018887Y-78242138D01*
X119005273Y-78262513D01*
X118995896Y-78285152D01*
X118991116Y-78309185D01*
X118991116Y-78333689D01*
X118995897Y-78357722D01*
X119005270Y-78380352D01*
X119011547Y-78392095D01*
X119043053Y-78495959D01*
X119053692Y-78603974D01*
X119043053Y-78711989D01*
X119011547Y-78815853D01*
X118997439Y-78842246D01*
X118960383Y-78911574D01*
X118891527Y-78995475D01*
X118807626Y-79064331D01*
X118754463Y-79092747D01*
X118711905Y-79115495D01*
X118608041Y-79147001D01*
X118527093Y-79154974D01*
X118472959Y-79154974D01*
X118392011Y-79147001D01*
X118344488Y-79132585D01*
X118320463Y-79127807D01*
X118295958Y-79127807D01*
X118271925Y-79132588D01*
X118249286Y-79141965D01*
X118228912Y-79155579D01*
X118211585Y-79172906D01*
X118197972Y-79193280D01*
X118188594Y-79215919D01*
X118183814Y-79239952D01*
X118183814Y-79264457D01*
X118188595Y-79288490D01*
X118197972Y-79311129D01*
X118219820Y-79340588D01*
X118381232Y-79502000D01*
X117602000Y-80281232D01*
X116822768Y-79502000D01*
X117602000Y-78722768D01*
X117763414Y-78884182D01*
X117782350Y-78899722D01*
X117803961Y-78911273D01*
X117827410Y-78918386D01*
X117851796Y-78920788D01*
X117876182Y-78918386D01*
X117899631Y-78911273D01*
X117921242Y-78899722D01*
X117940184Y-78884177D01*
X117955729Y-78865235D01*
X117967280Y-78843624D01*
X117974393Y-78820175D01*
X117976795Y-78795789D01*
X117971414Y-78759509D01*
X117956999Y-78711989D01*
X117946360Y-78603974D01*
X117956999Y-78495959D01*
X117988505Y-78392095D01*
X118025562Y-78322767D01*
X118039669Y-78296374D01*
X118108525Y-78212473D01*
X118192426Y-78143617D01*
X118260971Y-78106979D01*
X118288147Y-78092453D01*
X118392011Y-78060947D01*
X118472959Y-78052974D01*
X118527093Y-78052974D01*
X118608041Y-78060947D01*
X118711905Y-78092453D01*
X118723648Y-78098730D01*
X118746280Y-78108104D01*
X118770313Y-78112884D01*
X118794817Y-78112884D01*
X118818850Y-78108103D01*
X118841489Y-78098726D01*
X118861863Y-78085112D01*
X118879190Y-78067785D01*
X118892804Y-78047410D01*
X118902181Y-78024771D01*
X118906961Y-78000738D01*
X118906961Y-77976234D01*
X118902180Y-77952201D01*
X118892807Y-77929571D01*
X118886530Y-77917828D01*
X118855024Y-77813964D01*
X118844385Y-77705949D01*
X118855024Y-77597934D01*
X118886530Y-77494070D01*
X118917750Y-77435662D01*
X118937694Y-77398349D01*
X119006550Y-77314448D01*
X119090451Y-77245592D01*
X119174433Y-77200703D01*
X119186172Y-77194428D01*
X119290036Y-77162922D01*
X119370984Y-77154949D01*
X119425118Y-77154949D01*
X119506066Y-77162922D01*
X119609930Y-77194428D01*
X119621674Y-77200706D01*
X119644307Y-77210080D01*
X119668340Y-77214860D01*
X119692844Y-77214860D01*
X119716877Y-77210079D01*
X119739516Y-77200702D01*
X119759890Y-77187088D01*
X119777217Y-77169761D01*
X119790831Y-77149386D01*
X119800208Y-77126747D01*
X119804988Y-77102714D01*
X119804988Y-77078210D01*
X119800207Y-77054177D01*
X119790834Y-77031546D01*
X119784556Y-77019802D01*
X119753050Y-76915938D01*
X119742411Y-76807923D01*
X119753050Y-76699908D01*
X119784556Y-76596044D01*
X119799082Y-76568868D01*
X119835720Y-76500323D01*
X119904576Y-76416422D01*
X119988477Y-76347566D01*
X120057022Y-76310928D01*
X120084198Y-76296402D01*
X120188062Y-76264896D01*
X120269010Y-76256923D01*
X120323144Y-76256923D01*
X120404092Y-76264896D01*
X120404092Y-76264896D01*
G37*
G36*
X146309394Y-76589312D02*
G01*
X146122510Y-76720170D01*
X146103911Y-76736125D01*
X146088783Y-76755401D01*
X146077706Y-76777259D01*
X146071106Y-76800857D01*
X146069237Y-76825290D01*
X146072170Y-76849618D01*
X146079793Y-76872906D01*
X146091813Y-76894259D01*
X146107768Y-76912858D01*
X146127044Y-76927986D01*
X146148902Y-76939063D01*
X146172500Y-76945663D01*
X146206452Y-76946960D01*
X146243375Y-76943323D01*
X146297509Y-76943323D01*
X146378457Y-76951296D01*
X146482321Y-76982802D01*
X146509497Y-76997328D01*
X146578042Y-77033966D01*
X146661943Y-77102822D01*
X146730799Y-77186723D01*
X146767437Y-77255268D01*
X146781963Y-77282444D01*
X146813469Y-77386308D01*
X146824108Y-77494323D01*
X146813469Y-77602338D01*
X146781963Y-77706202D01*
X146781961Y-77706205D01*
X146730005Y-77803408D01*
X146718254Y-77820996D01*
X146708877Y-77843635D01*
X146704098Y-77867669D01*
X146704098Y-77892173D01*
X146708880Y-77916206D01*
X146718258Y-77938844D01*
X146731872Y-77959218D01*
X146749199Y-77976545D01*
X146769574Y-77990158D01*
X146792213Y-77999535D01*
X146816247Y-78004314D01*
X146840751Y-78004314D01*
X146864776Y-77999534D01*
X146880927Y-77994635D01*
X146890868Y-77991619D01*
X146905702Y-77990158D01*
X146971817Y-77983646D01*
X147025951Y-77983646D01*
X147106899Y-77991619D01*
X147210763Y-78023125D01*
X147237376Y-78037350D01*
X147306484Y-78074289D01*
X147390385Y-78143145D01*
X147459241Y-78227046D01*
X147475224Y-78256949D01*
X147510405Y-78322767D01*
X147541911Y-78426631D01*
X147552550Y-78534646D01*
X147541911Y-78642661D01*
X147510405Y-78746525D01*
X147510403Y-78746528D01*
X147458447Y-78843731D01*
X147446696Y-78861319D01*
X147437319Y-78883958D01*
X147432540Y-78907992D01*
X147432540Y-78932496D01*
X147437322Y-78956529D01*
X147446700Y-78979167D01*
X147460314Y-78999541D01*
X147477641Y-79016868D01*
X147498016Y-79030481D01*
X147520655Y-79039858D01*
X147544689Y-79044637D01*
X147569193Y-79044637D01*
X147593218Y-79039857D01*
X147609369Y-79034958D01*
X147619310Y-79031942D01*
X147634144Y-79030481D01*
X147700259Y-79023969D01*
X147754393Y-79023969D01*
X147835341Y-79031942D01*
X147939205Y-79063448D01*
X147965818Y-79077673D01*
X148034926Y-79114612D01*
X148118827Y-79183468D01*
X148187683Y-79267369D01*
X148198972Y-79288490D01*
X148238847Y-79363090D01*
X148270353Y-79466954D01*
X148280992Y-79574969D01*
X148270353Y-79682984D01*
X148238847Y-79786848D01*
X148238845Y-79786851D01*
X148187683Y-79882569D01*
X148118827Y-79966470D01*
X148034926Y-80035326D01*
X147966381Y-80071964D01*
X147939205Y-80086490D01*
X147835341Y-80117996D01*
X147754393Y-80125969D01*
X147700259Y-80125969D01*
X147619311Y-80117996D01*
X147515447Y-80086490D01*
X147488271Y-80071964D01*
X147419726Y-80035326D01*
X147335825Y-79966470D01*
X147266969Y-79882569D01*
X147215807Y-79786851D01*
X147215805Y-79786848D01*
X147184299Y-79682984D01*
X147173660Y-79574969D01*
X147184299Y-79466954D01*
X147215805Y-79363090D01*
X147255680Y-79288490D01*
X147267763Y-79265884D01*
X147279514Y-79248296D01*
X147288891Y-79225657D01*
X147293670Y-79201623D01*
X147293670Y-79177119D01*
X147288888Y-79153086D01*
X147279510Y-79130448D01*
X147265896Y-79110074D01*
X147248569Y-79092747D01*
X147228194Y-79079134D01*
X147205555Y-79069757D01*
X147181521Y-79064978D01*
X147157017Y-79064978D01*
X147132992Y-79069758D01*
X147116841Y-79074657D01*
X147106900Y-79077673D01*
X147095335Y-79078812D01*
X147025951Y-79085646D01*
X146971817Y-79085646D01*
X146890869Y-79077673D01*
X146787005Y-79046167D01*
X146745476Y-79023969D01*
X146691284Y-78995003D01*
X146607383Y-78926147D01*
X146538527Y-78842246D01*
X146487365Y-78746528D01*
X146487363Y-78746525D01*
X146455857Y-78642661D01*
X146445218Y-78534646D01*
X146455857Y-78426631D01*
X146487363Y-78322767D01*
X146522544Y-78256949D01*
X146539321Y-78225561D01*
X146551072Y-78207973D01*
X146560449Y-78185334D01*
X146565228Y-78161300D01*
X146565228Y-78136796D01*
X146560446Y-78112763D01*
X146551068Y-78090125D01*
X146537454Y-78069751D01*
X146520127Y-78052424D01*
X146499752Y-78038811D01*
X146477113Y-78029434D01*
X146453079Y-78024655D01*
X146428575Y-78024655D01*
X146404550Y-78029435D01*
X146388399Y-78034334D01*
X146378458Y-78037350D01*
X146366893Y-78038489D01*
X146297509Y-78045323D01*
X146243375Y-78045323D01*
X146162427Y-78037350D01*
X146058563Y-78005844D01*
X146017034Y-77983646D01*
X145962842Y-77954680D01*
X145878941Y-77885824D01*
X145810085Y-77801923D01*
X145758923Y-77706205D01*
X145758921Y-77706202D01*
X145727415Y-77602338D01*
X145716776Y-77494323D01*
X145727415Y-77386308D01*
X145758921Y-77282444D01*
X145775135Y-77252111D01*
X145784511Y-77229476D01*
X145789291Y-77205443D01*
X145789291Y-77180939D01*
X145784511Y-77156906D01*
X145775133Y-77134267D01*
X145761520Y-77113893D01*
X145744193Y-77096566D01*
X145723818Y-77082952D01*
X145701179Y-77073574D01*
X145677146Y-77068794D01*
X145652642Y-77068794D01*
X145628609Y-77073574D01*
X145605970Y-77082952D01*
X145593198Y-77090798D01*
X145406688Y-77221394D01*
X144774606Y-76318688D01*
X145677312Y-75686606D01*
X146309394Y-76589312D01*
X146309394Y-76589312D01*
G37*
G36*
X145783500Y-74815900D02*
G01*
X143141500Y-74815900D01*
X143141500Y-69633900D01*
X145783500Y-69633900D01*
X145783500Y-74815900D01*
X145783500Y-74815900D01*
G37*
G36*
X122923500Y-74815900D02*
G01*
X120281500Y-74815900D01*
X120281500Y-69633900D01*
X122923500Y-69633900D01*
X122923500Y-74815900D01*
X122923500Y-74815900D01*
G37*
M02*
