G04 #@! TF.GenerationSoftware,KiCad,Pcbnew,(5.1.0)-1*
G04 #@! TF.CreationDate,2019-03-21T22:27:28+11:00*
G04 #@! TF.ProjectId,top-hemi,746f702d-6865-46d6-992e-6b696361645f,rev?*
G04 #@! TF.SameCoordinates,Original*
G04 #@! TF.FileFunction,Legend,Bot*
G04 #@! TF.FilePolarity,Positive*
%FSLAX46Y46*%
G04 Gerber Fmt 4.6, Leading zero omitted, Abs format (unit mm)*
G04 Created by KiCad (PCBNEW (5.1.0)-1) date 2019-03-21 22:27:28*
%MOMM*%
%LPD*%
G04 APERTURE LIST*
%ADD10C,0.203200*%
G04 APERTURE END LIST*
D10*
X125542040Y-79595980D02*
X122491500Y-76804520D01*
X125542040Y-79595980D02*
X140522960Y-79595980D01*
X143573500Y-76804520D02*
X140522960Y-79595980D01*
X143573500Y-76804520D02*
X143573500Y-67655440D01*
X122491500Y-76804520D02*
X122491500Y-67655440D01*
X127441960Y-64355980D02*
X122491500Y-67655440D01*
X138623040Y-64355980D02*
X143573500Y-67655440D01*
X137901680Y-64775080D02*
X138623040Y-64355980D01*
X136812020Y-65224660D02*
X137901680Y-64775080D01*
X135811260Y-65544700D02*
X136812020Y-65224660D01*
X134581900Y-65786000D02*
X135811260Y-65544700D01*
X133032500Y-65874900D02*
X134581900Y-65786000D01*
X131582160Y-65796160D02*
X133032500Y-65874900D01*
X129951480Y-65476120D02*
X131582160Y-65796160D01*
X129021840Y-65145920D02*
X129951480Y-65476120D01*
X128173480Y-64775080D02*
X129021840Y-65145920D01*
X127441960Y-64355980D02*
X128173480Y-64775080D01*
X138546840Y-112974120D02*
X137815320Y-112555020D01*
X137815320Y-112555020D02*
X136966960Y-112184180D01*
X136966960Y-112184180D02*
X136037320Y-111853980D01*
X136037320Y-111853980D02*
X134406640Y-111533940D01*
X134406640Y-111533940D02*
X132956300Y-111455200D01*
X132956300Y-111455200D02*
X131406900Y-111544100D01*
X131406900Y-111544100D02*
X130177540Y-111785400D01*
X130177540Y-111785400D02*
X129176780Y-112105440D01*
X129176780Y-112105440D02*
X128087120Y-112555020D01*
X128087120Y-112555020D02*
X127365760Y-112974120D01*
X127365760Y-112974120D02*
X122415300Y-109674660D01*
X138546840Y-112974120D02*
X143497300Y-109674660D01*
X143497300Y-100525580D02*
X143497300Y-109674660D01*
X122415300Y-100525580D02*
X122415300Y-109674660D01*
X122415300Y-100525580D02*
X125465840Y-97734120D01*
X140446760Y-97734120D02*
X125465840Y-97734120D01*
X140446760Y-97734120D02*
X143497300Y-100525580D01*
M02*
