M48
; DRILL file {KiCad (5.1.0)-1} date 21/03/2019 10:18:02 PM
; FORMAT={3:3/ absolute / metric / suppress leading zeros}
; #@! TF.CreationDate,2019-03-21T22:18:02+11:00
; #@! TF.GenerationSoftware,Kicad,Pcbnew,(5.1.0)-1
FMAT,2
METRIC,TZ
T1C0.300
T2C1.000
T3C0.500
T4C0.991
T5C1.000
%
G90
G05
T1
X120828Y-80592
X122174Y-84328
X122913Y-80518
X122913Y-81534
X123444Y-96774
X123915Y-80530
X124079Y-79898
X124125Y-83054
X124202Y-81792
X124227Y-98583
X125091Y-79633
X127757Y-81309
X128956Y-86652
X129032Y-102362
X129032Y-105664
X130048Y-85598
X130048Y-86360
X131064Y-83312
X131064Y-85598
X131794Y-85264
X131826Y-81788
X132009Y-82414
X132097Y-83237
X132334Y-87122
X133096Y-82827
X133096Y-83595
X134087Y-81500
X134112Y-82827
X134817Y-82147
X135128Y-85090
X135193Y-86352
X135382Y-81788
X136150Y-86611
X136784Y-82719
X137414Y-82550
X137659Y-85556
X137922Y-102616
X137922Y-105664
X138938Y-85471
X139460Y-82070
X139700Y-79502
X140040Y-81772
X140135Y-83216
X140261Y-84345
X140716Y-81123
X141203Y-78159
X141478Y-82550
X141681Y-79451
X142113Y-96647
X142240Y-78965
X142529Y-82330
X143256Y-81280
X144018Y-84074
X144018Y-96774
X146812Y-81280
X153416Y-95758
T2
X115824Y-84836
X118364Y-84836
X118872Y-92456
X121412Y-92456
X115072Y-81432
X117226Y-80086
X119380Y-78740
X121534Y-77394
X144780Y-92456
X147320Y-92456
X144414Y-77496
X146568Y-78842
X148722Y-80188
X150876Y-81534
X147320Y-85344
X149860Y-85344
X115316Y-95758
X117470Y-97104
X119624Y-98450
X121778Y-99796
X144668Y-99796
X146822Y-98450
X148976Y-97104
X151130Y-95758
T3
X124345Y-87896
X124345Y-89396
X125095Y-87896
X125095Y-89396
X125845Y-87896
X125845Y-89396
X140359Y-87896
X140359Y-89396
X141109Y-87896
X141109Y-89396
X141859Y-87896
X141859Y-89396
T4
X136398Y-84836
X141478Y-83820
X141478Y-85852
T5
X130769Y-73660
X135169Y-73660
T0
M30
