G04 #@! TF.GenerationSoftware,KiCad,Pcbnew,(5.1.0)-1*
G04 #@! TF.CreationDate,2019-03-21T22:16:59+11:00*
G04 #@! TF.ProjectId,top-hemi,746f702d-6865-46d6-992e-6b696361645f,rev?*
G04 #@! TF.SameCoordinates,Original*
G04 #@! TF.FileFunction,Soldermask,Top*
G04 #@! TF.FilePolarity,Negative*
%FSLAX46Y46*%
G04 Gerber Fmt 4.6, Leading zero omitted, Abs format (unit mm)*
G04 Created by KiCad (PCBNEW (5.1.0)-1) date 2019-03-21 22:16:59*
%MOMM*%
%LPD*%
G04 APERTURE LIST*
%ADD10C,0.100000*%
G04 APERTURE END LIST*
D10*
G36*
X134244000Y-103262600D02*
G01*
X131942000Y-103262600D01*
X131942000Y-101360600D01*
X134244000Y-101360600D01*
X134244000Y-103262600D01*
X134244000Y-103262600D01*
G37*
G36*
X144778316Y-98901503D02*
G01*
X144844501Y-98908022D01*
X145014340Y-98959542D01*
X145170865Y-99043207D01*
X145206603Y-99072537D01*
X145308060Y-99155799D01*
X145353033Y-99210600D01*
X145420652Y-99292994D01*
X145504317Y-99449519D01*
X145555837Y-99619358D01*
X145573233Y-99795985D01*
X145555837Y-99972612D01*
X145504317Y-100142451D01*
X145420652Y-100298976D01*
X145391322Y-100334714D01*
X145308060Y-100436171D01*
X145206603Y-100519433D01*
X145170865Y-100548763D01*
X145014340Y-100632428D01*
X144844501Y-100683948D01*
X144778316Y-100690467D01*
X144712134Y-100696985D01*
X144623614Y-100696985D01*
X144557432Y-100690467D01*
X144491247Y-100683948D01*
X144321408Y-100632428D01*
X144164883Y-100548763D01*
X144129145Y-100519433D01*
X144027688Y-100436171D01*
X143944426Y-100334714D01*
X143915096Y-100298976D01*
X143831431Y-100142451D01*
X143779911Y-99972612D01*
X143762515Y-99795985D01*
X143779911Y-99619358D01*
X143831431Y-99449519D01*
X143915096Y-99292994D01*
X143982715Y-99210600D01*
X144027688Y-99155799D01*
X144129145Y-99072537D01*
X144164883Y-99043207D01*
X144321408Y-98959542D01*
X144491247Y-98908022D01*
X144557432Y-98901503D01*
X144623614Y-98894985D01*
X144712134Y-98894985D01*
X144778316Y-98901503D01*
X144778316Y-98901503D01*
G37*
G36*
X121888568Y-98901503D02*
G01*
X121954753Y-98908022D01*
X122124592Y-98959542D01*
X122281117Y-99043207D01*
X122316855Y-99072537D01*
X122418312Y-99155799D01*
X122463285Y-99210600D01*
X122530904Y-99292994D01*
X122614569Y-99449519D01*
X122666089Y-99619358D01*
X122683485Y-99795985D01*
X122666089Y-99972612D01*
X122614569Y-100142451D01*
X122530904Y-100298976D01*
X122501574Y-100334714D01*
X122418312Y-100436171D01*
X122316855Y-100519433D01*
X122281117Y-100548763D01*
X122124592Y-100632428D01*
X121954753Y-100683948D01*
X121888568Y-100690467D01*
X121822386Y-100696985D01*
X121733866Y-100696985D01*
X121667684Y-100690467D01*
X121601499Y-100683948D01*
X121431660Y-100632428D01*
X121275135Y-100548763D01*
X121239397Y-100519433D01*
X121137940Y-100436171D01*
X121054678Y-100334714D01*
X121025348Y-100298976D01*
X120941683Y-100142451D01*
X120890163Y-99972612D01*
X120872767Y-99795985D01*
X120890163Y-99619358D01*
X120941683Y-99449519D01*
X121025348Y-99292994D01*
X121092967Y-99210600D01*
X121137940Y-99155799D01*
X121239397Y-99072537D01*
X121275135Y-99043207D01*
X121431660Y-98959542D01*
X121601499Y-98908022D01*
X121667684Y-98901503D01*
X121733866Y-98894985D01*
X121822386Y-98894985D01*
X121888568Y-98901503D01*
X121888568Y-98901503D01*
G37*
G36*
X137044000Y-100612600D02*
G01*
X135642000Y-100612600D01*
X135642000Y-97710600D01*
X137044000Y-97710600D01*
X137044000Y-100612600D01*
X137044000Y-100612600D01*
G37*
G36*
X119734527Y-97555509D02*
G01*
X119800711Y-97562027D01*
X119970550Y-97613547D01*
X120127075Y-97697212D01*
X120143388Y-97710600D01*
X120264270Y-97809804D01*
X120347532Y-97911261D01*
X120376862Y-97946999D01*
X120460527Y-98103524D01*
X120512047Y-98273363D01*
X120529443Y-98449990D01*
X120512047Y-98626617D01*
X120460527Y-98796456D01*
X120376862Y-98952981D01*
X120347532Y-98988719D01*
X120264270Y-99090176D01*
X120162813Y-99173438D01*
X120127075Y-99202768D01*
X119970550Y-99286433D01*
X119800711Y-99337953D01*
X119734526Y-99344472D01*
X119668344Y-99350990D01*
X119579824Y-99350990D01*
X119513641Y-99344471D01*
X119447457Y-99337953D01*
X119277618Y-99286433D01*
X119121093Y-99202768D01*
X119085355Y-99173438D01*
X118983898Y-99090176D01*
X118900636Y-98988719D01*
X118871306Y-98952981D01*
X118787641Y-98796456D01*
X118736121Y-98626617D01*
X118718725Y-98449990D01*
X118736121Y-98273363D01*
X118787641Y-98103524D01*
X118871306Y-97946999D01*
X118900636Y-97911261D01*
X118983898Y-97809804D01*
X119104780Y-97710600D01*
X119121093Y-97697212D01*
X119277618Y-97613547D01*
X119447457Y-97562027D01*
X119513641Y-97555509D01*
X119579824Y-97548990D01*
X119668344Y-97548990D01*
X119734527Y-97555509D01*
X119734527Y-97555509D01*
G37*
G36*
X146932359Y-97555509D02*
G01*
X146998543Y-97562027D01*
X147168382Y-97613547D01*
X147324907Y-97697212D01*
X147341220Y-97710600D01*
X147462102Y-97809804D01*
X147545364Y-97911261D01*
X147574694Y-97946999D01*
X147658359Y-98103524D01*
X147709879Y-98273363D01*
X147727275Y-98449990D01*
X147709879Y-98626617D01*
X147658359Y-98796456D01*
X147574694Y-98952981D01*
X147545364Y-98988719D01*
X147462102Y-99090176D01*
X147360645Y-99173438D01*
X147324907Y-99202768D01*
X147168382Y-99286433D01*
X146998543Y-99337953D01*
X146932358Y-99344472D01*
X146866176Y-99350990D01*
X146777656Y-99350990D01*
X146711473Y-99344471D01*
X146645289Y-99337953D01*
X146475450Y-99286433D01*
X146318925Y-99202768D01*
X146283187Y-99173438D01*
X146181730Y-99090176D01*
X146098468Y-98988719D01*
X146069138Y-98952981D01*
X145985473Y-98796456D01*
X145933953Y-98626617D01*
X145916557Y-98449990D01*
X145933953Y-98273363D01*
X145985473Y-98103524D01*
X146069138Y-97946999D01*
X146098468Y-97911261D01*
X146181730Y-97809804D01*
X146302612Y-97710600D01*
X146318925Y-97697212D01*
X146475450Y-97613547D01*
X146645289Y-97562027D01*
X146711473Y-97555509D01*
X146777656Y-97548990D01*
X146866176Y-97548990D01*
X146932359Y-97555509D01*
X146932359Y-97555509D01*
G37*
G36*
X149086400Y-96209513D02*
G01*
X149152585Y-96216032D01*
X149322424Y-96267552D01*
X149478949Y-96351217D01*
X149514687Y-96380547D01*
X149616144Y-96463809D01*
X149680517Y-96542249D01*
X149728736Y-96601004D01*
X149812401Y-96757529D01*
X149863921Y-96927368D01*
X149881317Y-97103995D01*
X149863921Y-97280622D01*
X149812401Y-97450461D01*
X149728736Y-97606986D01*
X149699406Y-97642724D01*
X149616144Y-97744181D01*
X149514687Y-97827443D01*
X149478949Y-97856773D01*
X149322424Y-97940438D01*
X149152585Y-97991958D01*
X149086401Y-97998476D01*
X149020218Y-98004995D01*
X148931698Y-98004995D01*
X148865515Y-97998476D01*
X148799331Y-97991958D01*
X148629492Y-97940438D01*
X148472967Y-97856773D01*
X148437229Y-97827443D01*
X148335772Y-97744181D01*
X148252510Y-97642724D01*
X148223180Y-97606986D01*
X148139515Y-97450461D01*
X148087995Y-97280622D01*
X148070599Y-97103995D01*
X148087995Y-96927368D01*
X148139515Y-96757529D01*
X148223180Y-96601004D01*
X148271399Y-96542249D01*
X148335772Y-96463809D01*
X148437229Y-96380547D01*
X148472967Y-96351217D01*
X148629492Y-96267552D01*
X148799331Y-96216032D01*
X148865515Y-96209514D01*
X148931698Y-96202995D01*
X149020218Y-96202995D01*
X149086400Y-96209513D01*
X149086400Y-96209513D01*
G37*
G36*
X117580484Y-96209513D02*
G01*
X117646669Y-96216032D01*
X117816508Y-96267552D01*
X117973033Y-96351217D01*
X118008771Y-96380547D01*
X118110228Y-96463809D01*
X118174601Y-96542249D01*
X118222820Y-96601004D01*
X118306485Y-96757529D01*
X118358005Y-96927368D01*
X118375401Y-97103995D01*
X118358005Y-97280622D01*
X118306485Y-97450461D01*
X118222820Y-97606986D01*
X118193490Y-97642724D01*
X118110228Y-97744181D01*
X118008771Y-97827443D01*
X117973033Y-97856773D01*
X117816508Y-97940438D01*
X117646669Y-97991958D01*
X117580485Y-97998476D01*
X117514302Y-98004995D01*
X117425782Y-98004995D01*
X117359599Y-97998476D01*
X117293415Y-97991958D01*
X117123576Y-97940438D01*
X116967051Y-97856773D01*
X116931313Y-97827443D01*
X116829856Y-97744181D01*
X116746594Y-97642724D01*
X116717264Y-97606986D01*
X116633599Y-97450461D01*
X116582079Y-97280622D01*
X116564683Y-97103995D01*
X116582079Y-96927368D01*
X116633599Y-96757529D01*
X116717264Y-96601004D01*
X116765483Y-96542249D01*
X116829856Y-96463809D01*
X116931313Y-96380547D01*
X116967051Y-96351217D01*
X117123576Y-96267552D01*
X117293415Y-96216032D01*
X117359599Y-96209514D01*
X117425782Y-96202995D01*
X117514302Y-96202995D01*
X117580484Y-96209513D01*
X117580484Y-96209513D01*
G37*
G36*
X123677938Y-96405716D02*
G01*
X123698557Y-96411971D01*
X123717553Y-96422124D01*
X123734208Y-96435792D01*
X123747876Y-96452447D01*
X123758029Y-96471443D01*
X123764284Y-96492062D01*
X123767000Y-96519640D01*
X123767000Y-97028360D01*
X123764284Y-97055938D01*
X123758029Y-97076557D01*
X123747876Y-97095553D01*
X123734208Y-97112208D01*
X123717553Y-97125876D01*
X123698557Y-97136029D01*
X123677938Y-97142284D01*
X123650360Y-97145000D01*
X123191640Y-97145000D01*
X123164062Y-97142284D01*
X123143443Y-97136029D01*
X123124447Y-97125876D01*
X123107792Y-97112208D01*
X123094124Y-97095553D01*
X123083971Y-97076557D01*
X123077716Y-97055938D01*
X123075000Y-97028360D01*
X123075000Y-96519640D01*
X123077716Y-96492062D01*
X123083971Y-96471443D01*
X123094124Y-96452447D01*
X123107792Y-96435792D01*
X123124447Y-96422124D01*
X123143443Y-96411971D01*
X123164062Y-96405716D01*
X123191640Y-96403000D01*
X123650360Y-96403000D01*
X123677938Y-96405716D01*
X123677938Y-96405716D01*
G37*
G36*
X122707938Y-96405716D02*
G01*
X122728557Y-96411971D01*
X122747553Y-96422124D01*
X122764208Y-96435792D01*
X122777876Y-96452447D01*
X122788029Y-96471443D01*
X122794284Y-96492062D01*
X122797000Y-96519640D01*
X122797000Y-97028360D01*
X122794284Y-97055938D01*
X122788029Y-97076557D01*
X122777876Y-97095553D01*
X122764208Y-97112208D01*
X122747553Y-97125876D01*
X122728557Y-97136029D01*
X122707938Y-97142284D01*
X122680360Y-97145000D01*
X122221640Y-97145000D01*
X122194062Y-97142284D01*
X122173443Y-97136029D01*
X122154447Y-97125876D01*
X122137792Y-97112208D01*
X122124124Y-97095553D01*
X122113971Y-97076557D01*
X122107716Y-97055938D01*
X122105000Y-97028360D01*
X122105000Y-96519640D01*
X122107716Y-96492062D01*
X122113971Y-96471443D01*
X122124124Y-96452447D01*
X122137792Y-96435792D01*
X122154447Y-96422124D01*
X122173443Y-96411971D01*
X122194062Y-96405716D01*
X122221640Y-96403000D01*
X122680360Y-96403000D01*
X122707938Y-96405716D01*
X122707938Y-96405716D01*
G37*
G36*
X116557549Y-95471366D02*
G01*
X115602634Y-96999549D01*
X114074451Y-96044634D01*
X115029366Y-94516451D01*
X116557549Y-95471366D01*
X116557549Y-95471366D01*
G37*
G36*
X152371549Y-96044634D02*
G01*
X150843366Y-96999549D01*
X149888451Y-95471366D01*
X151416634Y-94516451D01*
X152371549Y-96044634D01*
X152371549Y-96044634D01*
G37*
G36*
X134244000Y-96962600D02*
G01*
X131942000Y-96962600D01*
X131942000Y-95060600D01*
X134244000Y-95060600D01*
X134244000Y-96962600D01*
X134244000Y-96962600D01*
G37*
G36*
X145821938Y-95135716D02*
G01*
X145842557Y-95141971D01*
X145861553Y-95152124D01*
X145878208Y-95165792D01*
X145891876Y-95182447D01*
X145902029Y-95201443D01*
X145908284Y-95222062D01*
X145911000Y-95249640D01*
X145911000Y-95758360D01*
X145908284Y-95785938D01*
X145902029Y-95806557D01*
X145891876Y-95825553D01*
X145878208Y-95842208D01*
X145861553Y-95855876D01*
X145842557Y-95866029D01*
X145821938Y-95872284D01*
X145794360Y-95875000D01*
X145335640Y-95875000D01*
X145308062Y-95872284D01*
X145287443Y-95866029D01*
X145268447Y-95855876D01*
X145251792Y-95842208D01*
X145238124Y-95825553D01*
X145227971Y-95806557D01*
X145221716Y-95785938D01*
X145219000Y-95758360D01*
X145219000Y-95249640D01*
X145221716Y-95222062D01*
X145227971Y-95201443D01*
X145238124Y-95182447D01*
X145251792Y-95165792D01*
X145268447Y-95152124D01*
X145287443Y-95141971D01*
X145308062Y-95135716D01*
X145335640Y-95133000D01*
X145794360Y-95133000D01*
X145821938Y-95135716D01*
X145821938Y-95135716D01*
G37*
G36*
X146791938Y-95135716D02*
G01*
X146812557Y-95141971D01*
X146831553Y-95152124D01*
X146848208Y-95165792D01*
X146861876Y-95182447D01*
X146872029Y-95201443D01*
X146878284Y-95222062D01*
X146881000Y-95249640D01*
X146881000Y-95758360D01*
X146878284Y-95785938D01*
X146872029Y-95806557D01*
X146861876Y-95825553D01*
X146848208Y-95842208D01*
X146831553Y-95855876D01*
X146812557Y-95866029D01*
X146791938Y-95872284D01*
X146764360Y-95875000D01*
X146305640Y-95875000D01*
X146278062Y-95872284D01*
X146257443Y-95866029D01*
X146238447Y-95855876D01*
X146221792Y-95842208D01*
X146208124Y-95825553D01*
X146197971Y-95806557D01*
X146191716Y-95785938D01*
X146189000Y-95758360D01*
X146189000Y-95249640D01*
X146191716Y-95222062D01*
X146197971Y-95201443D01*
X146208124Y-95182447D01*
X146221792Y-95165792D01*
X146238447Y-95152124D01*
X146257443Y-95141971D01*
X146278062Y-95135716D01*
X146305640Y-95133000D01*
X146764360Y-95133000D01*
X146791938Y-95135716D01*
X146791938Y-95135716D01*
G37*
G36*
X147430443Y-91561519D02*
G01*
X147496627Y-91568037D01*
X147666466Y-91619557D01*
X147822991Y-91703222D01*
X147858729Y-91732552D01*
X147960186Y-91815814D01*
X148043448Y-91917271D01*
X148072778Y-91953009D01*
X148156443Y-92109534D01*
X148207963Y-92279373D01*
X148225359Y-92456000D01*
X148207963Y-92632627D01*
X148156443Y-92802466D01*
X148072778Y-92958991D01*
X148043448Y-92994729D01*
X147960186Y-93096186D01*
X147858729Y-93179448D01*
X147822991Y-93208778D01*
X147666466Y-93292443D01*
X147496627Y-93343963D01*
X147430442Y-93350482D01*
X147364260Y-93357000D01*
X147275740Y-93357000D01*
X147209558Y-93350482D01*
X147143373Y-93343963D01*
X146973534Y-93292443D01*
X146817009Y-93208778D01*
X146781271Y-93179448D01*
X146679814Y-93096186D01*
X146596552Y-92994729D01*
X146567222Y-92958991D01*
X146483557Y-92802466D01*
X146432037Y-92632627D01*
X146414641Y-92456000D01*
X146432037Y-92279373D01*
X146483557Y-92109534D01*
X146567222Y-91953009D01*
X146596552Y-91917271D01*
X146679814Y-91815814D01*
X146781271Y-91732552D01*
X146817009Y-91703222D01*
X146973534Y-91619557D01*
X147143373Y-91568037D01*
X147209557Y-91561519D01*
X147275740Y-91555000D01*
X147364260Y-91555000D01*
X147430443Y-91561519D01*
X147430443Y-91561519D01*
G37*
G36*
X145681000Y-93357000D02*
G01*
X143879000Y-93357000D01*
X143879000Y-91555000D01*
X145681000Y-91555000D01*
X145681000Y-93357000D01*
X145681000Y-93357000D01*
G37*
G36*
X121522443Y-91561519D02*
G01*
X121588627Y-91568037D01*
X121758466Y-91619557D01*
X121914991Y-91703222D01*
X121950729Y-91732552D01*
X122052186Y-91815814D01*
X122135448Y-91917271D01*
X122164778Y-91953009D01*
X122248443Y-92109534D01*
X122299963Y-92279373D01*
X122317359Y-92456000D01*
X122299963Y-92632627D01*
X122248443Y-92802466D01*
X122164778Y-92958991D01*
X122135448Y-92994729D01*
X122052186Y-93096186D01*
X121950729Y-93179448D01*
X121914991Y-93208778D01*
X121758466Y-93292443D01*
X121588627Y-93343963D01*
X121522442Y-93350482D01*
X121456260Y-93357000D01*
X121367740Y-93357000D01*
X121301558Y-93350482D01*
X121235373Y-93343963D01*
X121065534Y-93292443D01*
X120909009Y-93208778D01*
X120873271Y-93179448D01*
X120771814Y-93096186D01*
X120688552Y-92994729D01*
X120659222Y-92958991D01*
X120575557Y-92802466D01*
X120524037Y-92632627D01*
X120506641Y-92456000D01*
X120524037Y-92279373D01*
X120575557Y-92109534D01*
X120659222Y-91953009D01*
X120688552Y-91917271D01*
X120771814Y-91815814D01*
X120873271Y-91732552D01*
X120909009Y-91703222D01*
X121065534Y-91619557D01*
X121235373Y-91568037D01*
X121301557Y-91561519D01*
X121367740Y-91555000D01*
X121456260Y-91555000D01*
X121522443Y-91561519D01*
X121522443Y-91561519D01*
G37*
G36*
X119773000Y-93357000D02*
G01*
X117971000Y-93357000D01*
X117971000Y-91555000D01*
X119773000Y-91555000D01*
X119773000Y-93357000D01*
X119773000Y-93357000D01*
G37*
G36*
X130897000Y-90181000D02*
G01*
X128995000Y-90181000D01*
X128995000Y-87879000D01*
X130897000Y-87879000D01*
X130897000Y-90181000D01*
X130897000Y-90181000D01*
G37*
G36*
X137197000Y-90181000D02*
G01*
X135295000Y-90181000D01*
X135295000Y-87879000D01*
X137197000Y-87879000D01*
X137197000Y-90181000D01*
X137197000Y-90181000D01*
G37*
G36*
X140446797Y-89106567D02*
G01*
X140501575Y-89129257D01*
X140501577Y-89129258D01*
X140550876Y-89162198D01*
X140592802Y-89204124D01*
X140625742Y-89253423D01*
X140630067Y-89259896D01*
X140645612Y-89278838D01*
X140664554Y-89294383D01*
X140686165Y-89305934D01*
X140709614Y-89313047D01*
X140734000Y-89315449D01*
X140758386Y-89313047D01*
X140781835Y-89305934D01*
X140803446Y-89294383D01*
X140822388Y-89278838D01*
X140837933Y-89259896D01*
X140842258Y-89253423D01*
X140875198Y-89204124D01*
X140917124Y-89162198D01*
X140966423Y-89129258D01*
X140966425Y-89129257D01*
X141021203Y-89106567D01*
X141079353Y-89095000D01*
X141138647Y-89095000D01*
X141196797Y-89106567D01*
X141251575Y-89129257D01*
X141251577Y-89129258D01*
X141300876Y-89162198D01*
X141342802Y-89204124D01*
X141375742Y-89253423D01*
X141380067Y-89259896D01*
X141395612Y-89278838D01*
X141414554Y-89294383D01*
X141436165Y-89305934D01*
X141459614Y-89313047D01*
X141484000Y-89315449D01*
X141508386Y-89313047D01*
X141531835Y-89305934D01*
X141553446Y-89294383D01*
X141572388Y-89278838D01*
X141587933Y-89259896D01*
X141592258Y-89253423D01*
X141625198Y-89204124D01*
X141667124Y-89162198D01*
X141716423Y-89129258D01*
X141716425Y-89129257D01*
X141771203Y-89106567D01*
X141829353Y-89095000D01*
X141888647Y-89095000D01*
X141946797Y-89106567D01*
X142001575Y-89129257D01*
X142001577Y-89129258D01*
X142050876Y-89162198D01*
X142092802Y-89204124D01*
X142125742Y-89253423D01*
X142125743Y-89253425D01*
X142148433Y-89308203D01*
X142160000Y-89366353D01*
X142160000Y-89425647D01*
X142148433Y-89483797D01*
X142128423Y-89532104D01*
X142125742Y-89538577D01*
X142092802Y-89587876D01*
X142050876Y-89629802D01*
X142001577Y-89662742D01*
X142001576Y-89662743D01*
X142001575Y-89662743D01*
X141946797Y-89685433D01*
X141888647Y-89697000D01*
X141829353Y-89697000D01*
X141771203Y-89685433D01*
X141716425Y-89662743D01*
X141716424Y-89662743D01*
X141716423Y-89662742D01*
X141667124Y-89629802D01*
X141625198Y-89587876D01*
X141592258Y-89538577D01*
X141592257Y-89538575D01*
X141587933Y-89532104D01*
X141572388Y-89513162D01*
X141553446Y-89497617D01*
X141531835Y-89486066D01*
X141508386Y-89478953D01*
X141484000Y-89476551D01*
X141459614Y-89478953D01*
X141436165Y-89486066D01*
X141414554Y-89497617D01*
X141395612Y-89513162D01*
X141380067Y-89532104D01*
X141375743Y-89538575D01*
X141375742Y-89538577D01*
X141342802Y-89587876D01*
X141300876Y-89629802D01*
X141251577Y-89662742D01*
X141251576Y-89662743D01*
X141251575Y-89662743D01*
X141196797Y-89685433D01*
X141138647Y-89697000D01*
X141079353Y-89697000D01*
X141021203Y-89685433D01*
X140966425Y-89662743D01*
X140966424Y-89662743D01*
X140966423Y-89662742D01*
X140917124Y-89629802D01*
X140875198Y-89587876D01*
X140842258Y-89538577D01*
X140842257Y-89538575D01*
X140837933Y-89532104D01*
X140822388Y-89513162D01*
X140803446Y-89497617D01*
X140781835Y-89486066D01*
X140758386Y-89478953D01*
X140734000Y-89476551D01*
X140709614Y-89478953D01*
X140686165Y-89486066D01*
X140664554Y-89497617D01*
X140645612Y-89513162D01*
X140630067Y-89532104D01*
X140625743Y-89538575D01*
X140625742Y-89538577D01*
X140592802Y-89587876D01*
X140550876Y-89629802D01*
X140501577Y-89662742D01*
X140501576Y-89662743D01*
X140501575Y-89662743D01*
X140446797Y-89685433D01*
X140388647Y-89697000D01*
X140329353Y-89697000D01*
X140271203Y-89685433D01*
X140216425Y-89662743D01*
X140216424Y-89662743D01*
X140216423Y-89662742D01*
X140167124Y-89629802D01*
X140125198Y-89587876D01*
X140092258Y-89538577D01*
X140089577Y-89532104D01*
X140069567Y-89483797D01*
X140058000Y-89425647D01*
X140058000Y-89366353D01*
X140069567Y-89308203D01*
X140092257Y-89253425D01*
X140092258Y-89253423D01*
X140125198Y-89204124D01*
X140167124Y-89162198D01*
X140216423Y-89129258D01*
X140216425Y-89129257D01*
X140271203Y-89106567D01*
X140329353Y-89095000D01*
X140388647Y-89095000D01*
X140446797Y-89106567D01*
X140446797Y-89106567D01*
G37*
G36*
X124432797Y-89106567D02*
G01*
X124487575Y-89129257D01*
X124487577Y-89129258D01*
X124536876Y-89162198D01*
X124578802Y-89204124D01*
X124611742Y-89253423D01*
X124616067Y-89259896D01*
X124631612Y-89278838D01*
X124650554Y-89294383D01*
X124672165Y-89305934D01*
X124695614Y-89313047D01*
X124720000Y-89315449D01*
X124744386Y-89313047D01*
X124767835Y-89305934D01*
X124789446Y-89294383D01*
X124808388Y-89278838D01*
X124823933Y-89259896D01*
X124828258Y-89253423D01*
X124861198Y-89204124D01*
X124903124Y-89162198D01*
X124952423Y-89129258D01*
X124952425Y-89129257D01*
X125007203Y-89106567D01*
X125065353Y-89095000D01*
X125124647Y-89095000D01*
X125182797Y-89106567D01*
X125237575Y-89129257D01*
X125237577Y-89129258D01*
X125286876Y-89162198D01*
X125328802Y-89204124D01*
X125361742Y-89253423D01*
X125366067Y-89259896D01*
X125381612Y-89278838D01*
X125400554Y-89294383D01*
X125422165Y-89305934D01*
X125445614Y-89313047D01*
X125470000Y-89315449D01*
X125494386Y-89313047D01*
X125517835Y-89305934D01*
X125539446Y-89294383D01*
X125558388Y-89278838D01*
X125573933Y-89259896D01*
X125578258Y-89253423D01*
X125611198Y-89204124D01*
X125653124Y-89162198D01*
X125702423Y-89129258D01*
X125702425Y-89129257D01*
X125757203Y-89106567D01*
X125815353Y-89095000D01*
X125874647Y-89095000D01*
X125932797Y-89106567D01*
X125987575Y-89129257D01*
X125987577Y-89129258D01*
X126036876Y-89162198D01*
X126078802Y-89204124D01*
X126111742Y-89253423D01*
X126111743Y-89253425D01*
X126134433Y-89308203D01*
X126146000Y-89366353D01*
X126146000Y-89425647D01*
X126134433Y-89483797D01*
X126114423Y-89532104D01*
X126111742Y-89538577D01*
X126078802Y-89587876D01*
X126036876Y-89629802D01*
X125987577Y-89662742D01*
X125987576Y-89662743D01*
X125987575Y-89662743D01*
X125932797Y-89685433D01*
X125874647Y-89697000D01*
X125815353Y-89697000D01*
X125757203Y-89685433D01*
X125702425Y-89662743D01*
X125702424Y-89662743D01*
X125702423Y-89662742D01*
X125653124Y-89629802D01*
X125611198Y-89587876D01*
X125578258Y-89538577D01*
X125578257Y-89538575D01*
X125573933Y-89532104D01*
X125558388Y-89513162D01*
X125539446Y-89497617D01*
X125517835Y-89486066D01*
X125494386Y-89478953D01*
X125470000Y-89476551D01*
X125445614Y-89478953D01*
X125422165Y-89486066D01*
X125400554Y-89497617D01*
X125381612Y-89513162D01*
X125366067Y-89532104D01*
X125361743Y-89538575D01*
X125361742Y-89538577D01*
X125328802Y-89587876D01*
X125286876Y-89629802D01*
X125237577Y-89662742D01*
X125237576Y-89662743D01*
X125237575Y-89662743D01*
X125182797Y-89685433D01*
X125124647Y-89697000D01*
X125065353Y-89697000D01*
X125007203Y-89685433D01*
X124952425Y-89662743D01*
X124952424Y-89662743D01*
X124952423Y-89662742D01*
X124903124Y-89629802D01*
X124861198Y-89587876D01*
X124828258Y-89538577D01*
X124828257Y-89538575D01*
X124823933Y-89532104D01*
X124808388Y-89513162D01*
X124789446Y-89497617D01*
X124767835Y-89486066D01*
X124744386Y-89478953D01*
X124720000Y-89476551D01*
X124695614Y-89478953D01*
X124672165Y-89486066D01*
X124650554Y-89497617D01*
X124631612Y-89513162D01*
X124616067Y-89532104D01*
X124611743Y-89538575D01*
X124611742Y-89538577D01*
X124578802Y-89587876D01*
X124536876Y-89629802D01*
X124487577Y-89662742D01*
X124487576Y-89662743D01*
X124487575Y-89662743D01*
X124432797Y-89685433D01*
X124374647Y-89697000D01*
X124315353Y-89697000D01*
X124257203Y-89685433D01*
X124202425Y-89662743D01*
X124202424Y-89662743D01*
X124202423Y-89662742D01*
X124153124Y-89629802D01*
X124111198Y-89587876D01*
X124078258Y-89538577D01*
X124075577Y-89532104D01*
X124055567Y-89483797D01*
X124044000Y-89425647D01*
X124044000Y-89366353D01*
X124055567Y-89308203D01*
X124078257Y-89253425D01*
X124078258Y-89253423D01*
X124111198Y-89204124D01*
X124153124Y-89162198D01*
X124202423Y-89129258D01*
X124202425Y-89129257D01*
X124257203Y-89106567D01*
X124315353Y-89095000D01*
X124374647Y-89095000D01*
X124432797Y-89106567D01*
X124432797Y-89106567D01*
G37*
G36*
X124432797Y-87606567D02*
G01*
X124487575Y-87629257D01*
X124487577Y-87629258D01*
X124536876Y-87662198D01*
X124578802Y-87704124D01*
X124611742Y-87753423D01*
X124616067Y-87759896D01*
X124631612Y-87778838D01*
X124650554Y-87794383D01*
X124672165Y-87805934D01*
X124695614Y-87813047D01*
X124720000Y-87815449D01*
X124744386Y-87813047D01*
X124767835Y-87805934D01*
X124789446Y-87794383D01*
X124808388Y-87778838D01*
X124823933Y-87759896D01*
X124828258Y-87753423D01*
X124861198Y-87704124D01*
X124903124Y-87662198D01*
X124952423Y-87629258D01*
X124952425Y-87629257D01*
X125007203Y-87606567D01*
X125065353Y-87595000D01*
X125124647Y-87595000D01*
X125182797Y-87606567D01*
X125237575Y-87629257D01*
X125237577Y-87629258D01*
X125286876Y-87662198D01*
X125328802Y-87704124D01*
X125361742Y-87753423D01*
X125366067Y-87759896D01*
X125381612Y-87778838D01*
X125400554Y-87794383D01*
X125422165Y-87805934D01*
X125445614Y-87813047D01*
X125470000Y-87815449D01*
X125494386Y-87813047D01*
X125517835Y-87805934D01*
X125539446Y-87794383D01*
X125558388Y-87778838D01*
X125573933Y-87759896D01*
X125578258Y-87753423D01*
X125611198Y-87704124D01*
X125653124Y-87662198D01*
X125702423Y-87629258D01*
X125702425Y-87629257D01*
X125757203Y-87606567D01*
X125815353Y-87595000D01*
X125874647Y-87595000D01*
X125932797Y-87606567D01*
X125987575Y-87629257D01*
X125987577Y-87629258D01*
X126036876Y-87662198D01*
X126078802Y-87704124D01*
X126111742Y-87753423D01*
X126111743Y-87753425D01*
X126134433Y-87808203D01*
X126146000Y-87866353D01*
X126146000Y-87925647D01*
X126134433Y-87983797D01*
X126114423Y-88032104D01*
X126111742Y-88038577D01*
X126078802Y-88087876D01*
X126036876Y-88129802D01*
X125987577Y-88162742D01*
X125987576Y-88162743D01*
X125987575Y-88162743D01*
X125932797Y-88185433D01*
X125874647Y-88197000D01*
X125815353Y-88197000D01*
X125757203Y-88185433D01*
X125702425Y-88162743D01*
X125702424Y-88162743D01*
X125702423Y-88162742D01*
X125653124Y-88129802D01*
X125611198Y-88087876D01*
X125578258Y-88038577D01*
X125578257Y-88038575D01*
X125573933Y-88032104D01*
X125558388Y-88013162D01*
X125539446Y-87997617D01*
X125517835Y-87986066D01*
X125494386Y-87978953D01*
X125470000Y-87976551D01*
X125445614Y-87978953D01*
X125422165Y-87986066D01*
X125400554Y-87997617D01*
X125381612Y-88013162D01*
X125366067Y-88032104D01*
X125361743Y-88038575D01*
X125361742Y-88038577D01*
X125328802Y-88087876D01*
X125286876Y-88129802D01*
X125237577Y-88162742D01*
X125237576Y-88162743D01*
X125237575Y-88162743D01*
X125182797Y-88185433D01*
X125124647Y-88197000D01*
X125065353Y-88197000D01*
X125007203Y-88185433D01*
X124952425Y-88162743D01*
X124952424Y-88162743D01*
X124952423Y-88162742D01*
X124903124Y-88129802D01*
X124861198Y-88087876D01*
X124828258Y-88038577D01*
X124828257Y-88038575D01*
X124823933Y-88032104D01*
X124808388Y-88013162D01*
X124789446Y-87997617D01*
X124767835Y-87986066D01*
X124744386Y-87978953D01*
X124720000Y-87976551D01*
X124695614Y-87978953D01*
X124672165Y-87986066D01*
X124650554Y-87997617D01*
X124631612Y-88013162D01*
X124616067Y-88032104D01*
X124611743Y-88038575D01*
X124611742Y-88038577D01*
X124578802Y-88087876D01*
X124536876Y-88129802D01*
X124487577Y-88162742D01*
X124487576Y-88162743D01*
X124487575Y-88162743D01*
X124432797Y-88185433D01*
X124374647Y-88197000D01*
X124315353Y-88197000D01*
X124257203Y-88185433D01*
X124202425Y-88162743D01*
X124202424Y-88162743D01*
X124202423Y-88162742D01*
X124153124Y-88129802D01*
X124111198Y-88087876D01*
X124078258Y-88038577D01*
X124075577Y-88032104D01*
X124055567Y-87983797D01*
X124044000Y-87925647D01*
X124044000Y-87866353D01*
X124055567Y-87808203D01*
X124078257Y-87753425D01*
X124078258Y-87753423D01*
X124111198Y-87704124D01*
X124153124Y-87662198D01*
X124202423Y-87629258D01*
X124202425Y-87629257D01*
X124257203Y-87606567D01*
X124315353Y-87595000D01*
X124374647Y-87595000D01*
X124432797Y-87606567D01*
X124432797Y-87606567D01*
G37*
G36*
X140446797Y-87606567D02*
G01*
X140501575Y-87629257D01*
X140501577Y-87629258D01*
X140550876Y-87662198D01*
X140592802Y-87704124D01*
X140625742Y-87753423D01*
X140630067Y-87759896D01*
X140645612Y-87778838D01*
X140664554Y-87794383D01*
X140686165Y-87805934D01*
X140709614Y-87813047D01*
X140734000Y-87815449D01*
X140758386Y-87813047D01*
X140781835Y-87805934D01*
X140803446Y-87794383D01*
X140822388Y-87778838D01*
X140837933Y-87759896D01*
X140842258Y-87753423D01*
X140875198Y-87704124D01*
X140917124Y-87662198D01*
X140966423Y-87629258D01*
X140966425Y-87629257D01*
X141021203Y-87606567D01*
X141079353Y-87595000D01*
X141138647Y-87595000D01*
X141196797Y-87606567D01*
X141251575Y-87629257D01*
X141251577Y-87629258D01*
X141300876Y-87662198D01*
X141342802Y-87704124D01*
X141375742Y-87753423D01*
X141380067Y-87759896D01*
X141395612Y-87778838D01*
X141414554Y-87794383D01*
X141436165Y-87805934D01*
X141459614Y-87813047D01*
X141484000Y-87815449D01*
X141508386Y-87813047D01*
X141531835Y-87805934D01*
X141553446Y-87794383D01*
X141572388Y-87778838D01*
X141587933Y-87759896D01*
X141592258Y-87753423D01*
X141625198Y-87704124D01*
X141667124Y-87662198D01*
X141716423Y-87629258D01*
X141716425Y-87629257D01*
X141771203Y-87606567D01*
X141829353Y-87595000D01*
X141888647Y-87595000D01*
X141946797Y-87606567D01*
X142001575Y-87629257D01*
X142001577Y-87629258D01*
X142050876Y-87662198D01*
X142092802Y-87704124D01*
X142125742Y-87753423D01*
X142125743Y-87753425D01*
X142148433Y-87808203D01*
X142160000Y-87866353D01*
X142160000Y-87925647D01*
X142148433Y-87983797D01*
X142128423Y-88032104D01*
X142125742Y-88038577D01*
X142092802Y-88087876D01*
X142050876Y-88129802D01*
X142001577Y-88162742D01*
X142001576Y-88162743D01*
X142001575Y-88162743D01*
X141946797Y-88185433D01*
X141888647Y-88197000D01*
X141829353Y-88197000D01*
X141771203Y-88185433D01*
X141716425Y-88162743D01*
X141716424Y-88162743D01*
X141716423Y-88162742D01*
X141667124Y-88129802D01*
X141625198Y-88087876D01*
X141592258Y-88038577D01*
X141592257Y-88038575D01*
X141587933Y-88032104D01*
X141572388Y-88013162D01*
X141553446Y-87997617D01*
X141531835Y-87986066D01*
X141508386Y-87978953D01*
X141484000Y-87976551D01*
X141459614Y-87978953D01*
X141436165Y-87986066D01*
X141414554Y-87997617D01*
X141395612Y-88013162D01*
X141380067Y-88032104D01*
X141375743Y-88038575D01*
X141375742Y-88038577D01*
X141342802Y-88087876D01*
X141300876Y-88129802D01*
X141251577Y-88162742D01*
X141251576Y-88162743D01*
X141251575Y-88162743D01*
X141196797Y-88185433D01*
X141138647Y-88197000D01*
X141079353Y-88197000D01*
X141021203Y-88185433D01*
X140966425Y-88162743D01*
X140966424Y-88162743D01*
X140966423Y-88162742D01*
X140917124Y-88129802D01*
X140875198Y-88087876D01*
X140842258Y-88038577D01*
X140842257Y-88038575D01*
X140837933Y-88032104D01*
X140822388Y-88013162D01*
X140803446Y-87997617D01*
X140781835Y-87986066D01*
X140758386Y-87978953D01*
X140734000Y-87976551D01*
X140709614Y-87978953D01*
X140686165Y-87986066D01*
X140664554Y-87997617D01*
X140645612Y-88013162D01*
X140630067Y-88032104D01*
X140625743Y-88038575D01*
X140625742Y-88038577D01*
X140592802Y-88087876D01*
X140550876Y-88129802D01*
X140501577Y-88162742D01*
X140501576Y-88162743D01*
X140501575Y-88162743D01*
X140446797Y-88185433D01*
X140388647Y-88197000D01*
X140329353Y-88197000D01*
X140271203Y-88185433D01*
X140216425Y-88162743D01*
X140216424Y-88162743D01*
X140216423Y-88162742D01*
X140167124Y-88129802D01*
X140125198Y-88087876D01*
X140092258Y-88038577D01*
X140089577Y-88032104D01*
X140069567Y-87983797D01*
X140058000Y-87925647D01*
X140058000Y-87866353D01*
X140069567Y-87808203D01*
X140092257Y-87753425D01*
X140092258Y-87753423D01*
X140125198Y-87704124D01*
X140167124Y-87662198D01*
X140216423Y-87629258D01*
X140216425Y-87629257D01*
X140271203Y-87606567D01*
X140329353Y-87595000D01*
X140388647Y-87595000D01*
X140446797Y-87606567D01*
X140446797Y-87606567D01*
G37*
G36*
X134547000Y-86481000D02*
G01*
X131645000Y-86481000D01*
X131645000Y-85079000D01*
X134547000Y-85079000D01*
X134547000Y-86481000D01*
X134547000Y-86481000D01*
G37*
G36*
X141584578Y-85316197D02*
G01*
X141637350Y-85326694D01*
X141736770Y-85367875D01*
X141826246Y-85427661D01*
X141902339Y-85503754D01*
X141962125Y-85593230D01*
X142003306Y-85692650D01*
X142024300Y-85798194D01*
X142024300Y-85905806D01*
X142003306Y-86011350D01*
X141962125Y-86110770D01*
X141902339Y-86200246D01*
X141826246Y-86276339D01*
X141736770Y-86336125D01*
X141637350Y-86377306D01*
X141584578Y-86387803D01*
X141531807Y-86398300D01*
X141424193Y-86398300D01*
X141371422Y-86387803D01*
X141318650Y-86377306D01*
X141219230Y-86336125D01*
X141129754Y-86276339D01*
X141053661Y-86200246D01*
X140993875Y-86110770D01*
X140952694Y-86011350D01*
X140931700Y-85905806D01*
X140931700Y-85798194D01*
X140952694Y-85692650D01*
X140993875Y-85593230D01*
X141053661Y-85503754D01*
X141129754Y-85427661D01*
X141219230Y-85367875D01*
X141318650Y-85326694D01*
X141371422Y-85316197D01*
X141424193Y-85305700D01*
X141531807Y-85305700D01*
X141584578Y-85316197D01*
X141584578Y-85316197D01*
G37*
G36*
X149970442Y-84449518D02*
G01*
X150036627Y-84456037D01*
X150206466Y-84507557D01*
X150362991Y-84591222D01*
X150398729Y-84620552D01*
X150500186Y-84703814D01*
X150583448Y-84805271D01*
X150612778Y-84841009D01*
X150612779Y-84841011D01*
X150666880Y-84942225D01*
X150696443Y-84997534D01*
X150747963Y-85167373D01*
X150765359Y-85344000D01*
X150747963Y-85520627D01*
X150696443Y-85690466D01*
X150612778Y-85846991D01*
X150597926Y-85865088D01*
X150500186Y-85984186D01*
X150398729Y-86067448D01*
X150362991Y-86096778D01*
X150206466Y-86180443D01*
X150036627Y-86231963D01*
X149970442Y-86238482D01*
X149904260Y-86245000D01*
X149815740Y-86245000D01*
X149749558Y-86238482D01*
X149683373Y-86231963D01*
X149513534Y-86180443D01*
X149357009Y-86096778D01*
X149321271Y-86067448D01*
X149219814Y-85984186D01*
X149122074Y-85865088D01*
X149107222Y-85846991D01*
X149023557Y-85690466D01*
X148972037Y-85520627D01*
X148954641Y-85344000D01*
X148972037Y-85167373D01*
X149023557Y-84997534D01*
X149053121Y-84942225D01*
X149107221Y-84841011D01*
X149107222Y-84841009D01*
X149136552Y-84805271D01*
X149219814Y-84703814D01*
X149321271Y-84620552D01*
X149357009Y-84591222D01*
X149513534Y-84507557D01*
X149683373Y-84456037D01*
X149749558Y-84449518D01*
X149815740Y-84443000D01*
X149904260Y-84443000D01*
X149970442Y-84449518D01*
X149970442Y-84449518D01*
G37*
G36*
X148221000Y-86245000D02*
G01*
X146419000Y-86245000D01*
X146419000Y-84443000D01*
X148221000Y-84443000D01*
X148221000Y-86245000D01*
X148221000Y-86245000D01*
G37*
G36*
X140337714Y-85043389D02*
G01*
X140418645Y-85076912D01*
X140491480Y-85125579D01*
X140553421Y-85187520D01*
X140602088Y-85260355D01*
X140602089Y-85260357D01*
X140635611Y-85341286D01*
X140652700Y-85427199D01*
X140652700Y-85514801D01*
X140651541Y-85520627D01*
X140635611Y-85600714D01*
X140602088Y-85681645D01*
X140553421Y-85754480D01*
X140491480Y-85816421D01*
X140418645Y-85865088D01*
X140418644Y-85865089D01*
X140418643Y-85865089D01*
X140337714Y-85898611D01*
X140251801Y-85915700D01*
X140164199Y-85915700D01*
X140078286Y-85898611D01*
X139997357Y-85865089D01*
X139997356Y-85865089D01*
X139997355Y-85865088D01*
X139924520Y-85816421D01*
X139862579Y-85754480D01*
X139813912Y-85681645D01*
X139780389Y-85600714D01*
X139764459Y-85520627D01*
X139763300Y-85514801D01*
X139763300Y-85427199D01*
X139780389Y-85341286D01*
X139813911Y-85260357D01*
X139813912Y-85260355D01*
X139862579Y-85187520D01*
X139924520Y-85125579D01*
X139997355Y-85076912D01*
X140078286Y-85043389D01*
X140164199Y-85026300D01*
X140251801Y-85026300D01*
X140337714Y-85043389D01*
X140337714Y-85043389D01*
G37*
G36*
X137797714Y-85043389D02*
G01*
X137878645Y-85076912D01*
X137951480Y-85125579D01*
X138013421Y-85187520D01*
X138062088Y-85260355D01*
X138062089Y-85260357D01*
X138095611Y-85341286D01*
X138112700Y-85427199D01*
X138112700Y-85514801D01*
X138111541Y-85520627D01*
X138095611Y-85600714D01*
X138062088Y-85681645D01*
X138013421Y-85754480D01*
X137951480Y-85816421D01*
X137878645Y-85865088D01*
X137878644Y-85865089D01*
X137878643Y-85865089D01*
X137797714Y-85898611D01*
X137711801Y-85915700D01*
X137624199Y-85915700D01*
X137538286Y-85898611D01*
X137457357Y-85865089D01*
X137457356Y-85865089D01*
X137457355Y-85865088D01*
X137384520Y-85816421D01*
X137322579Y-85754480D01*
X137273912Y-85681645D01*
X137240389Y-85600714D01*
X137224459Y-85520627D01*
X137223300Y-85514801D01*
X137223300Y-85427199D01*
X137240389Y-85341286D01*
X137273911Y-85260357D01*
X137273912Y-85260355D01*
X137322579Y-85187520D01*
X137384520Y-85125579D01*
X137457355Y-85076912D01*
X137538286Y-85043389D01*
X137624199Y-85026300D01*
X137711801Y-85026300D01*
X137797714Y-85043389D01*
X137797714Y-85043389D01*
G37*
G36*
X139067714Y-85043389D02*
G01*
X139148645Y-85076912D01*
X139221480Y-85125579D01*
X139283421Y-85187520D01*
X139332088Y-85260355D01*
X139332089Y-85260357D01*
X139365611Y-85341286D01*
X139382700Y-85427199D01*
X139382700Y-85514801D01*
X139381541Y-85520627D01*
X139365611Y-85600714D01*
X139332088Y-85681645D01*
X139283421Y-85754480D01*
X139221480Y-85816421D01*
X139148645Y-85865088D01*
X139148644Y-85865089D01*
X139148643Y-85865089D01*
X139067714Y-85898611D01*
X138981801Y-85915700D01*
X138894199Y-85915700D01*
X138808286Y-85898611D01*
X138727357Y-85865089D01*
X138727356Y-85865089D01*
X138727355Y-85865088D01*
X138654520Y-85816421D01*
X138592579Y-85754480D01*
X138543912Y-85681645D01*
X138510389Y-85600714D01*
X138494459Y-85520627D01*
X138493300Y-85514801D01*
X138493300Y-85427199D01*
X138510389Y-85341286D01*
X138543911Y-85260357D01*
X138543912Y-85260355D01*
X138592579Y-85187520D01*
X138654520Y-85125579D01*
X138727355Y-85076912D01*
X138808286Y-85043389D01*
X138894199Y-85026300D01*
X138981801Y-85026300D01*
X139067714Y-85043389D01*
X139067714Y-85043389D01*
G37*
G36*
X123175000Y-85779000D02*
G01*
X121173000Y-85779000D01*
X121173000Y-85277000D01*
X123175000Y-85277000D01*
X123175000Y-85779000D01*
X123175000Y-85779000D01*
G37*
G36*
X118474443Y-83941519D02*
G01*
X118540627Y-83948037D01*
X118710466Y-83999557D01*
X118710468Y-83999558D01*
X118765175Y-84028800D01*
X118866991Y-84083222D01*
X118878904Y-84092999D01*
X119004186Y-84195814D01*
X119081235Y-84289700D01*
X119116778Y-84333009D01*
X119116779Y-84333011D01*
X119197741Y-84484478D01*
X119200443Y-84489534D01*
X119251963Y-84659373D01*
X119269359Y-84836000D01*
X119251963Y-85012627D01*
X119200443Y-85182466D01*
X119200442Y-85182468D01*
X119158819Y-85260339D01*
X119116778Y-85338991D01*
X119087448Y-85374729D01*
X119004186Y-85476186D01*
X118902729Y-85559448D01*
X118866991Y-85588778D01*
X118710466Y-85672443D01*
X118540627Y-85723963D01*
X118474443Y-85730481D01*
X118408260Y-85737000D01*
X118319740Y-85737000D01*
X118253557Y-85730481D01*
X118187373Y-85723963D01*
X118017534Y-85672443D01*
X117861009Y-85588778D01*
X117825271Y-85559448D01*
X117723814Y-85476186D01*
X117640552Y-85374729D01*
X117611222Y-85338991D01*
X117569181Y-85260339D01*
X117527558Y-85182468D01*
X117527557Y-85182466D01*
X117476037Y-85012627D01*
X117458641Y-84836000D01*
X117476037Y-84659373D01*
X117527557Y-84489534D01*
X117530260Y-84484478D01*
X117611221Y-84333011D01*
X117611222Y-84333009D01*
X117646765Y-84289700D01*
X117723814Y-84195814D01*
X117849096Y-84092999D01*
X117861009Y-84083222D01*
X117962825Y-84028800D01*
X118017532Y-83999558D01*
X118017534Y-83999557D01*
X118187373Y-83948037D01*
X118253557Y-83941519D01*
X118319740Y-83935000D01*
X118408260Y-83935000D01*
X118474443Y-83941519D01*
X118474443Y-83941519D01*
G37*
G36*
X116725000Y-85737000D02*
G01*
X114923000Y-85737000D01*
X114923000Y-83935000D01*
X116725000Y-83935000D01*
X116725000Y-85737000D01*
X116725000Y-85737000D01*
G37*
G36*
X136504578Y-84300197D02*
G01*
X136557350Y-84310694D01*
X136656770Y-84351875D01*
X136746246Y-84411661D01*
X136822339Y-84487754D01*
X136882125Y-84577230D01*
X136923306Y-84676650D01*
X136944300Y-84782194D01*
X136944300Y-84889806D01*
X136923306Y-84995350D01*
X136882125Y-85094770D01*
X136822339Y-85184246D01*
X136746246Y-85260339D01*
X136656770Y-85320125D01*
X136557350Y-85361306D01*
X136524325Y-85367875D01*
X136451807Y-85382300D01*
X136344193Y-85382300D01*
X136271675Y-85367875D01*
X136238650Y-85361306D01*
X136139230Y-85320125D01*
X136049754Y-85260339D01*
X135973661Y-85184246D01*
X135913875Y-85094770D01*
X135872694Y-84995350D01*
X135851700Y-84889806D01*
X135851700Y-84782194D01*
X135872694Y-84676650D01*
X135913875Y-84577230D01*
X135973661Y-84487754D01*
X136049754Y-84411661D01*
X136139230Y-84351875D01*
X136238650Y-84310694D01*
X136291422Y-84300197D01*
X136344193Y-84289700D01*
X136451807Y-84289700D01*
X136504578Y-84300197D01*
X136504578Y-84300197D01*
G37*
G36*
X126421355Y-79117083D02*
G01*
X126426029Y-79118501D01*
X126430330Y-79120800D01*
X126436702Y-79126029D01*
X126457076Y-79139643D01*
X126479715Y-79149020D01*
X126503749Y-79153800D01*
X126528253Y-79153800D01*
X126552286Y-79149019D01*
X126574925Y-79139642D01*
X126595298Y-79126029D01*
X126601670Y-79120800D01*
X126605971Y-79118501D01*
X126610645Y-79117083D01*
X126621641Y-79116000D01*
X126910359Y-79116000D01*
X126921355Y-79117083D01*
X126926029Y-79118501D01*
X126930330Y-79120800D01*
X126936702Y-79126029D01*
X126957076Y-79139643D01*
X126979715Y-79149020D01*
X127003749Y-79153800D01*
X127028253Y-79153800D01*
X127052286Y-79149019D01*
X127074925Y-79139642D01*
X127095298Y-79126029D01*
X127101670Y-79120800D01*
X127105971Y-79118501D01*
X127110645Y-79117083D01*
X127121641Y-79116000D01*
X127410359Y-79116000D01*
X127421355Y-79117083D01*
X127426029Y-79118501D01*
X127430330Y-79120800D01*
X127436702Y-79126029D01*
X127457076Y-79139643D01*
X127479715Y-79149020D01*
X127503749Y-79153800D01*
X127528253Y-79153800D01*
X127552286Y-79149019D01*
X127574925Y-79139642D01*
X127595298Y-79126029D01*
X127601670Y-79120800D01*
X127605971Y-79118501D01*
X127610645Y-79117083D01*
X127621641Y-79116000D01*
X127910359Y-79116000D01*
X127921355Y-79117083D01*
X127926029Y-79118501D01*
X127930330Y-79120800D01*
X127936702Y-79126029D01*
X127957076Y-79139643D01*
X127979715Y-79149020D01*
X128003749Y-79153800D01*
X128028253Y-79153800D01*
X128052286Y-79149019D01*
X128074925Y-79139642D01*
X128095298Y-79126029D01*
X128101670Y-79120800D01*
X128105971Y-79118501D01*
X128110645Y-79117083D01*
X128121641Y-79116000D01*
X128410359Y-79116000D01*
X128421355Y-79117083D01*
X128426029Y-79118501D01*
X128430330Y-79120800D01*
X128436702Y-79126029D01*
X128457076Y-79139643D01*
X128479715Y-79149020D01*
X128503749Y-79153800D01*
X128528253Y-79153800D01*
X128552286Y-79149019D01*
X128574925Y-79139642D01*
X128595298Y-79126029D01*
X128601670Y-79120800D01*
X128605971Y-79118501D01*
X128610645Y-79117083D01*
X128621641Y-79116000D01*
X128910359Y-79116000D01*
X128921355Y-79117083D01*
X128926029Y-79118501D01*
X128930330Y-79120800D01*
X128936702Y-79126029D01*
X128957076Y-79139643D01*
X128979715Y-79149020D01*
X129003749Y-79153800D01*
X129028253Y-79153800D01*
X129052286Y-79149019D01*
X129074925Y-79139642D01*
X129095298Y-79126029D01*
X129101670Y-79120800D01*
X129105971Y-79118501D01*
X129110645Y-79117083D01*
X129121641Y-79116000D01*
X129410359Y-79116000D01*
X129421355Y-79117083D01*
X129426029Y-79118501D01*
X129430330Y-79120800D01*
X129436702Y-79126029D01*
X129457076Y-79139643D01*
X129479715Y-79149020D01*
X129503749Y-79153800D01*
X129528253Y-79153800D01*
X129552286Y-79149019D01*
X129574925Y-79139642D01*
X129595298Y-79126029D01*
X129601670Y-79120800D01*
X129605971Y-79118501D01*
X129610645Y-79117083D01*
X129621641Y-79116000D01*
X129910359Y-79116000D01*
X129921355Y-79117083D01*
X129926029Y-79118501D01*
X129930331Y-79120800D01*
X129934104Y-79123896D01*
X129937200Y-79127669D01*
X129939499Y-79131971D01*
X129940917Y-79136645D01*
X129942000Y-79147641D01*
X129942000Y-79991001D01*
X129944402Y-80015387D01*
X129951515Y-80038836D01*
X129963066Y-80060447D01*
X129978611Y-80079389D01*
X129997553Y-80094934D01*
X130019164Y-80106485D01*
X130042613Y-80113598D01*
X130066999Y-80116000D01*
X130910359Y-80116000D01*
X130921355Y-80117083D01*
X130926029Y-80118501D01*
X130930331Y-80120800D01*
X130934104Y-80123896D01*
X130937200Y-80127669D01*
X130939499Y-80131971D01*
X130940917Y-80136645D01*
X130942000Y-80147641D01*
X130942000Y-80436359D01*
X130940917Y-80447355D01*
X130939499Y-80452029D01*
X130937200Y-80456330D01*
X130931971Y-80462702D01*
X130918357Y-80483076D01*
X130908980Y-80505715D01*
X130904200Y-80529749D01*
X130904200Y-80554253D01*
X130908981Y-80578286D01*
X130918358Y-80600925D01*
X130931971Y-80621298D01*
X130937200Y-80627670D01*
X130939499Y-80631971D01*
X130940917Y-80636645D01*
X130942000Y-80647641D01*
X130942000Y-80936359D01*
X130940917Y-80947355D01*
X130939499Y-80952029D01*
X130937200Y-80956330D01*
X130931971Y-80962702D01*
X130918357Y-80983076D01*
X130908980Y-81005715D01*
X130904200Y-81029749D01*
X130904200Y-81054253D01*
X130908981Y-81078286D01*
X130918358Y-81100925D01*
X130931971Y-81121298D01*
X130937200Y-81127670D01*
X130939499Y-81131971D01*
X130940917Y-81136645D01*
X130942000Y-81147641D01*
X130942000Y-81436359D01*
X130940917Y-81447355D01*
X130939499Y-81452029D01*
X130937200Y-81456330D01*
X130931971Y-81462702D01*
X130918357Y-81483076D01*
X130908980Y-81505715D01*
X130904200Y-81529749D01*
X130904200Y-81554253D01*
X130908981Y-81578286D01*
X130918358Y-81600925D01*
X130931971Y-81621298D01*
X130937200Y-81627670D01*
X130939499Y-81631971D01*
X130940917Y-81636645D01*
X130942000Y-81647641D01*
X130942000Y-81936359D01*
X130940917Y-81947355D01*
X130939499Y-81952029D01*
X130937200Y-81956330D01*
X130931971Y-81962702D01*
X130918357Y-81983076D01*
X130908980Y-82005715D01*
X130904200Y-82029749D01*
X130904200Y-82054253D01*
X130908981Y-82078286D01*
X130918358Y-82100925D01*
X130931971Y-82121298D01*
X130937200Y-82127670D01*
X130939499Y-82131971D01*
X130940917Y-82136645D01*
X130942000Y-82147641D01*
X130942000Y-82436359D01*
X130940917Y-82447355D01*
X130939499Y-82452029D01*
X130937200Y-82456330D01*
X130931971Y-82462702D01*
X130918357Y-82483076D01*
X130908980Y-82505715D01*
X130904200Y-82529749D01*
X130904200Y-82554253D01*
X130908981Y-82578286D01*
X130918358Y-82600925D01*
X130931971Y-82621298D01*
X130937200Y-82627670D01*
X130939499Y-82631971D01*
X130940917Y-82636645D01*
X130942000Y-82647641D01*
X130942000Y-82936359D01*
X130940917Y-82947355D01*
X130939499Y-82952029D01*
X130937200Y-82956330D01*
X130931971Y-82962702D01*
X130918357Y-82983076D01*
X130908980Y-83005715D01*
X130904200Y-83029749D01*
X130904200Y-83054253D01*
X130908981Y-83078286D01*
X130918358Y-83100925D01*
X130931971Y-83121298D01*
X130937200Y-83127670D01*
X130939499Y-83131971D01*
X130940917Y-83136645D01*
X130942000Y-83147641D01*
X130942000Y-83436359D01*
X130940917Y-83447355D01*
X130939499Y-83452029D01*
X130937200Y-83456330D01*
X130931971Y-83462702D01*
X130918357Y-83483076D01*
X130908980Y-83505715D01*
X130904200Y-83529749D01*
X130904200Y-83554253D01*
X130908981Y-83578286D01*
X130918358Y-83600925D01*
X130931971Y-83621298D01*
X130937200Y-83627670D01*
X130939499Y-83631971D01*
X130940917Y-83636645D01*
X130942000Y-83647641D01*
X130942000Y-83936359D01*
X130940917Y-83947355D01*
X130939499Y-83952029D01*
X130937200Y-83956331D01*
X130934104Y-83960104D01*
X130930331Y-83963200D01*
X130926029Y-83965499D01*
X130921355Y-83966917D01*
X130910359Y-83968000D01*
X130066999Y-83968000D01*
X130042613Y-83970402D01*
X130019164Y-83977515D01*
X129997553Y-83989066D01*
X129978611Y-84004611D01*
X129963066Y-84023553D01*
X129951515Y-84045164D01*
X129944402Y-84068613D01*
X129942000Y-84092999D01*
X129942000Y-84936359D01*
X129940917Y-84947355D01*
X129939499Y-84952029D01*
X129937200Y-84956331D01*
X129934104Y-84960104D01*
X129930331Y-84963200D01*
X129926029Y-84965499D01*
X129921355Y-84966917D01*
X129910359Y-84968000D01*
X129621641Y-84968000D01*
X129610645Y-84966917D01*
X129605971Y-84965499D01*
X129601670Y-84963200D01*
X129595298Y-84957971D01*
X129574924Y-84944357D01*
X129552285Y-84934980D01*
X129528251Y-84930200D01*
X129503747Y-84930200D01*
X129479714Y-84934981D01*
X129457075Y-84944358D01*
X129436702Y-84957971D01*
X129430330Y-84963200D01*
X129426029Y-84965499D01*
X129421355Y-84966917D01*
X129410359Y-84968000D01*
X129121641Y-84968000D01*
X129110645Y-84966917D01*
X129105971Y-84965499D01*
X129101670Y-84963200D01*
X129095298Y-84957971D01*
X129074924Y-84944357D01*
X129052285Y-84934980D01*
X129028251Y-84930200D01*
X129003747Y-84930200D01*
X128979714Y-84934981D01*
X128957075Y-84944358D01*
X128936702Y-84957971D01*
X128930330Y-84963200D01*
X128926029Y-84965499D01*
X128921355Y-84966917D01*
X128910359Y-84968000D01*
X128621641Y-84968000D01*
X128610645Y-84966917D01*
X128605971Y-84965499D01*
X128601670Y-84963200D01*
X128595298Y-84957971D01*
X128574924Y-84944357D01*
X128552285Y-84934980D01*
X128528251Y-84930200D01*
X128503747Y-84930200D01*
X128479714Y-84934981D01*
X128457075Y-84944358D01*
X128436702Y-84957971D01*
X128430330Y-84963200D01*
X128426029Y-84965499D01*
X128421355Y-84966917D01*
X128410359Y-84968000D01*
X128121641Y-84968000D01*
X128110645Y-84966917D01*
X128105971Y-84965499D01*
X128101670Y-84963200D01*
X128095298Y-84957971D01*
X128074924Y-84944357D01*
X128052285Y-84934980D01*
X128028251Y-84930200D01*
X128003747Y-84930200D01*
X127979714Y-84934981D01*
X127957075Y-84944358D01*
X127936702Y-84957971D01*
X127930330Y-84963200D01*
X127926029Y-84965499D01*
X127921355Y-84966917D01*
X127910359Y-84968000D01*
X127621641Y-84968000D01*
X127610645Y-84966917D01*
X127605971Y-84965499D01*
X127601670Y-84963200D01*
X127595298Y-84957971D01*
X127574924Y-84944357D01*
X127552285Y-84934980D01*
X127528251Y-84930200D01*
X127503747Y-84930200D01*
X127479714Y-84934981D01*
X127457075Y-84944358D01*
X127436702Y-84957971D01*
X127430330Y-84963200D01*
X127426029Y-84965499D01*
X127421355Y-84966917D01*
X127410359Y-84968000D01*
X127121641Y-84968000D01*
X127110645Y-84966917D01*
X127105971Y-84965499D01*
X127101670Y-84963200D01*
X127095298Y-84957971D01*
X127074924Y-84944357D01*
X127052285Y-84934980D01*
X127028251Y-84930200D01*
X127003747Y-84930200D01*
X126979714Y-84934981D01*
X126957075Y-84944358D01*
X126936702Y-84957971D01*
X126930330Y-84963200D01*
X126926029Y-84965499D01*
X126921355Y-84966917D01*
X126910359Y-84968000D01*
X126621641Y-84968000D01*
X126610645Y-84966917D01*
X126605971Y-84965499D01*
X126601670Y-84963200D01*
X126595298Y-84957971D01*
X126574924Y-84944357D01*
X126552285Y-84934980D01*
X126528251Y-84930200D01*
X126503747Y-84930200D01*
X126479714Y-84934981D01*
X126457075Y-84944358D01*
X126436702Y-84957971D01*
X126430330Y-84963200D01*
X126426029Y-84965499D01*
X126421355Y-84966917D01*
X126410359Y-84968000D01*
X126121641Y-84968000D01*
X126110645Y-84966917D01*
X126105971Y-84965499D01*
X126101669Y-84963200D01*
X126097896Y-84960104D01*
X126094800Y-84956331D01*
X126092501Y-84952029D01*
X126091083Y-84947355D01*
X126090000Y-84936359D01*
X126090000Y-84092999D01*
X126087598Y-84068613D01*
X126080485Y-84045164D01*
X126068934Y-84023553D01*
X126053389Y-84004611D01*
X126034447Y-83989066D01*
X126012836Y-83977515D01*
X125989387Y-83970402D01*
X125965001Y-83968000D01*
X125121641Y-83968000D01*
X125110645Y-83966917D01*
X125105971Y-83965499D01*
X125101669Y-83963200D01*
X125097896Y-83960104D01*
X125094800Y-83956331D01*
X125092501Y-83952029D01*
X125091083Y-83947355D01*
X125090000Y-83936359D01*
X125090000Y-83647641D01*
X125091083Y-83636645D01*
X125092501Y-83631971D01*
X125094800Y-83627670D01*
X125100029Y-83621298D01*
X125113643Y-83600924D01*
X125123020Y-83578285D01*
X125127800Y-83554251D01*
X125127800Y-83529747D01*
X125123019Y-83505714D01*
X125113642Y-83483075D01*
X125100029Y-83462702D01*
X125094800Y-83456330D01*
X125092501Y-83452029D01*
X125091083Y-83447355D01*
X125090000Y-83436359D01*
X125090000Y-83147641D01*
X125091083Y-83136645D01*
X125092501Y-83131971D01*
X125094800Y-83127670D01*
X125100029Y-83121298D01*
X125113643Y-83100924D01*
X125123020Y-83078285D01*
X125127800Y-83054251D01*
X125127800Y-83029747D01*
X125123019Y-83005714D01*
X125113642Y-82983075D01*
X125100029Y-82962702D01*
X125094800Y-82956330D01*
X125092501Y-82952029D01*
X125091083Y-82947355D01*
X125090000Y-82936359D01*
X125090000Y-82647641D01*
X125091083Y-82636645D01*
X125092501Y-82631971D01*
X125094800Y-82627670D01*
X125100029Y-82621298D01*
X125113643Y-82600924D01*
X125123020Y-82578285D01*
X125127800Y-82554251D01*
X125127800Y-82529747D01*
X125123019Y-82505714D01*
X125113642Y-82483075D01*
X125100029Y-82462702D01*
X125094800Y-82456330D01*
X125092501Y-82452029D01*
X125091083Y-82447355D01*
X125090000Y-82436359D01*
X125090000Y-82147641D01*
X125091083Y-82136645D01*
X125092501Y-82131971D01*
X125094800Y-82127670D01*
X125100029Y-82121298D01*
X125113643Y-82100924D01*
X125123020Y-82078285D01*
X125127800Y-82054251D01*
X125127800Y-82029747D01*
X125123019Y-82005714D01*
X125113642Y-81983075D01*
X125100029Y-81962702D01*
X125094800Y-81956330D01*
X125092501Y-81952029D01*
X125091083Y-81947355D01*
X125090000Y-81936359D01*
X125090000Y-81647641D01*
X125091083Y-81636645D01*
X125092501Y-81631971D01*
X125094800Y-81627670D01*
X125100029Y-81621298D01*
X125113643Y-81600924D01*
X125123020Y-81578285D01*
X125127800Y-81554251D01*
X125127800Y-81529747D01*
X125123019Y-81505714D01*
X125113642Y-81483075D01*
X125100029Y-81462702D01*
X125094800Y-81456330D01*
X125092501Y-81452029D01*
X125091083Y-81447355D01*
X125090000Y-81436359D01*
X125090000Y-81147641D01*
X125091083Y-81136645D01*
X125092501Y-81131971D01*
X125094800Y-81127670D01*
X125100029Y-81121298D01*
X125113643Y-81100924D01*
X125123020Y-81078285D01*
X125127800Y-81054251D01*
X125127800Y-81029747D01*
X125123019Y-81005714D01*
X125113642Y-80983075D01*
X125100029Y-80962702D01*
X125094800Y-80956330D01*
X125092501Y-80952029D01*
X125091083Y-80947355D01*
X125090000Y-80936359D01*
X125090000Y-80647641D01*
X125091083Y-80636645D01*
X125092501Y-80631971D01*
X125094800Y-80627670D01*
X125100029Y-80621298D01*
X125113643Y-80600924D01*
X125123020Y-80578285D01*
X125127800Y-80554251D01*
X125127800Y-80529749D01*
X126029200Y-80529749D01*
X126029200Y-80554253D01*
X126033981Y-80578286D01*
X126043358Y-80600925D01*
X126056971Y-80621298D01*
X126062200Y-80627670D01*
X126064499Y-80631971D01*
X126065917Y-80636645D01*
X126067000Y-80647641D01*
X126067000Y-80936359D01*
X126065917Y-80947355D01*
X126064499Y-80952029D01*
X126062200Y-80956330D01*
X126056971Y-80962702D01*
X126043357Y-80983076D01*
X126033980Y-81005715D01*
X126029200Y-81029749D01*
X126029200Y-81054253D01*
X126033981Y-81078286D01*
X126043358Y-81100925D01*
X126056971Y-81121298D01*
X126062200Y-81127670D01*
X126064499Y-81131971D01*
X126065917Y-81136645D01*
X126067000Y-81147641D01*
X126067000Y-81436359D01*
X126065917Y-81447355D01*
X126064499Y-81452029D01*
X126062200Y-81456330D01*
X126056971Y-81462702D01*
X126043357Y-81483076D01*
X126033980Y-81505715D01*
X126029200Y-81529749D01*
X126029200Y-81554253D01*
X126033981Y-81578286D01*
X126043358Y-81600925D01*
X126056971Y-81621298D01*
X126062200Y-81627670D01*
X126064499Y-81631971D01*
X126065917Y-81636645D01*
X126067000Y-81647641D01*
X126067000Y-81936359D01*
X126065917Y-81947355D01*
X126064499Y-81952029D01*
X126062200Y-81956330D01*
X126056971Y-81962702D01*
X126043357Y-81983076D01*
X126033980Y-82005715D01*
X126029200Y-82029749D01*
X126029200Y-82054253D01*
X126033981Y-82078286D01*
X126043358Y-82100925D01*
X126056971Y-82121298D01*
X126062200Y-82127670D01*
X126064499Y-82131971D01*
X126065917Y-82136645D01*
X126067000Y-82147641D01*
X126067000Y-82436359D01*
X126065917Y-82447355D01*
X126064499Y-82452029D01*
X126062200Y-82456330D01*
X126056971Y-82462702D01*
X126043357Y-82483076D01*
X126033980Y-82505715D01*
X126029200Y-82529749D01*
X126029200Y-82554253D01*
X126033981Y-82578286D01*
X126043358Y-82600925D01*
X126056971Y-82621298D01*
X126062200Y-82627670D01*
X126064499Y-82631971D01*
X126065917Y-82636645D01*
X126067000Y-82647641D01*
X126067000Y-82936359D01*
X126065917Y-82947355D01*
X126064499Y-82952029D01*
X126062200Y-82956330D01*
X126056971Y-82962702D01*
X126043357Y-82983076D01*
X126033980Y-83005715D01*
X126029200Y-83029749D01*
X126029200Y-83054253D01*
X126033981Y-83078286D01*
X126043358Y-83100925D01*
X126056971Y-83121298D01*
X126062200Y-83127670D01*
X126064499Y-83131971D01*
X126065917Y-83136645D01*
X126067000Y-83147641D01*
X126067000Y-83436359D01*
X126065917Y-83447355D01*
X126064499Y-83452029D01*
X126062200Y-83456330D01*
X126056971Y-83462702D01*
X126043357Y-83483076D01*
X126033980Y-83505715D01*
X126029200Y-83529749D01*
X126029200Y-83554253D01*
X126033981Y-83578286D01*
X126043358Y-83600925D01*
X126056971Y-83621298D01*
X126062200Y-83627670D01*
X126064499Y-83631971D01*
X126065917Y-83636645D01*
X126067000Y-83647641D01*
X126067000Y-83866001D01*
X126069402Y-83890387D01*
X126076515Y-83913836D01*
X126088066Y-83935447D01*
X126103611Y-83954389D01*
X126122553Y-83969934D01*
X126144164Y-83981485D01*
X126167613Y-83988598D01*
X126191999Y-83991000D01*
X126410359Y-83991000D01*
X126421355Y-83992083D01*
X126426029Y-83993501D01*
X126430330Y-83995800D01*
X126436702Y-84001029D01*
X126457076Y-84014643D01*
X126479715Y-84024020D01*
X126503749Y-84028800D01*
X126528253Y-84028800D01*
X126552286Y-84024019D01*
X126574925Y-84014642D01*
X126595298Y-84001029D01*
X126601670Y-83995800D01*
X126605971Y-83993501D01*
X126610645Y-83992083D01*
X126621641Y-83991000D01*
X126910359Y-83991000D01*
X126921355Y-83992083D01*
X126926029Y-83993501D01*
X126930330Y-83995800D01*
X126936702Y-84001029D01*
X126957076Y-84014643D01*
X126979715Y-84024020D01*
X127003749Y-84028800D01*
X127028253Y-84028800D01*
X127052286Y-84024019D01*
X127074925Y-84014642D01*
X127095298Y-84001029D01*
X127101670Y-83995800D01*
X127105971Y-83993501D01*
X127110645Y-83992083D01*
X127121641Y-83991000D01*
X127410359Y-83991000D01*
X127421355Y-83992083D01*
X127426029Y-83993501D01*
X127430330Y-83995800D01*
X127436702Y-84001029D01*
X127457076Y-84014643D01*
X127479715Y-84024020D01*
X127503749Y-84028800D01*
X127528253Y-84028800D01*
X127552286Y-84024019D01*
X127574925Y-84014642D01*
X127595298Y-84001029D01*
X127601670Y-83995800D01*
X127605971Y-83993501D01*
X127610645Y-83992083D01*
X127621641Y-83991000D01*
X127910359Y-83991000D01*
X127921355Y-83992083D01*
X127926029Y-83993501D01*
X127930330Y-83995800D01*
X127936702Y-84001029D01*
X127957076Y-84014643D01*
X127979715Y-84024020D01*
X128003749Y-84028800D01*
X128028253Y-84028800D01*
X128052286Y-84024019D01*
X128074925Y-84014642D01*
X128095298Y-84001029D01*
X128101670Y-83995800D01*
X128105971Y-83993501D01*
X128110645Y-83992083D01*
X128121641Y-83991000D01*
X128410359Y-83991000D01*
X128421355Y-83992083D01*
X128426029Y-83993501D01*
X128430330Y-83995800D01*
X128436702Y-84001029D01*
X128457076Y-84014643D01*
X128479715Y-84024020D01*
X128503749Y-84028800D01*
X128528253Y-84028800D01*
X128552286Y-84024019D01*
X128574925Y-84014642D01*
X128595298Y-84001029D01*
X128601670Y-83995800D01*
X128605971Y-83993501D01*
X128610645Y-83992083D01*
X128621641Y-83991000D01*
X128910359Y-83991000D01*
X128921355Y-83992083D01*
X128926029Y-83993501D01*
X128930330Y-83995800D01*
X128936702Y-84001029D01*
X128957076Y-84014643D01*
X128979715Y-84024020D01*
X129003749Y-84028800D01*
X129028253Y-84028800D01*
X129052286Y-84024019D01*
X129074925Y-84014642D01*
X129095298Y-84001029D01*
X129101670Y-83995800D01*
X129105971Y-83993501D01*
X129110645Y-83992083D01*
X129121641Y-83991000D01*
X129410359Y-83991000D01*
X129421355Y-83992083D01*
X129426029Y-83993501D01*
X129430330Y-83995800D01*
X129436702Y-84001029D01*
X129457076Y-84014643D01*
X129479715Y-84024020D01*
X129503749Y-84028800D01*
X129528253Y-84028800D01*
X129552286Y-84024019D01*
X129574925Y-84014642D01*
X129595298Y-84001029D01*
X129601670Y-83995800D01*
X129605971Y-83993501D01*
X129610645Y-83992083D01*
X129621641Y-83991000D01*
X129840001Y-83991000D01*
X129864387Y-83988598D01*
X129887836Y-83981485D01*
X129909447Y-83969934D01*
X129928389Y-83954389D01*
X129943934Y-83935447D01*
X129955485Y-83913836D01*
X129962598Y-83890387D01*
X129965000Y-83866001D01*
X129965000Y-83647641D01*
X129966083Y-83636645D01*
X129967501Y-83631971D01*
X129969800Y-83627670D01*
X129975029Y-83621298D01*
X129988643Y-83600924D01*
X129998020Y-83578285D01*
X130002800Y-83554251D01*
X130002800Y-83529747D01*
X129998019Y-83505714D01*
X129988642Y-83483075D01*
X129975029Y-83462702D01*
X129969800Y-83456330D01*
X129967501Y-83452029D01*
X129966083Y-83447355D01*
X129965000Y-83436359D01*
X129965000Y-83147641D01*
X129966083Y-83136645D01*
X129967501Y-83131971D01*
X129969800Y-83127670D01*
X129975029Y-83121298D01*
X129988643Y-83100924D01*
X129998020Y-83078285D01*
X130002800Y-83054251D01*
X130002800Y-83029747D01*
X129998019Y-83005714D01*
X129988642Y-82983075D01*
X129975029Y-82962702D01*
X129969800Y-82956330D01*
X129967501Y-82952029D01*
X129966083Y-82947355D01*
X129965000Y-82936359D01*
X129965000Y-82647641D01*
X129966083Y-82636645D01*
X129967501Y-82631971D01*
X129969800Y-82627670D01*
X129975029Y-82621298D01*
X129988643Y-82600924D01*
X129998020Y-82578285D01*
X130002800Y-82554251D01*
X130002800Y-82529747D01*
X129998019Y-82505714D01*
X129988642Y-82483075D01*
X129975029Y-82462702D01*
X129969800Y-82456330D01*
X129967501Y-82452029D01*
X129966083Y-82447355D01*
X129965000Y-82436359D01*
X129965000Y-82147641D01*
X129966083Y-82136645D01*
X129967501Y-82131971D01*
X129969800Y-82127670D01*
X129975029Y-82121298D01*
X129988643Y-82100924D01*
X129998020Y-82078285D01*
X130002800Y-82054251D01*
X130002800Y-82029747D01*
X129998019Y-82005714D01*
X129988642Y-81983075D01*
X129975029Y-81962702D01*
X129969800Y-81956330D01*
X129967501Y-81952029D01*
X129966083Y-81947355D01*
X129965000Y-81936359D01*
X129965000Y-81647641D01*
X129966083Y-81636645D01*
X129967501Y-81631971D01*
X129969800Y-81627670D01*
X129975029Y-81621298D01*
X129988643Y-81600924D01*
X129998020Y-81578285D01*
X130002800Y-81554251D01*
X130002800Y-81529747D01*
X129998019Y-81505714D01*
X129988642Y-81483075D01*
X129975029Y-81462702D01*
X129969800Y-81456330D01*
X129967501Y-81452029D01*
X129966083Y-81447355D01*
X129965000Y-81436359D01*
X129965000Y-81147641D01*
X129966083Y-81136645D01*
X129967501Y-81131971D01*
X129969800Y-81127670D01*
X129975029Y-81121298D01*
X129988643Y-81100924D01*
X129998020Y-81078285D01*
X130002800Y-81054251D01*
X130002800Y-81029747D01*
X129998019Y-81005714D01*
X129988642Y-80983075D01*
X129975029Y-80962702D01*
X129969800Y-80956330D01*
X129967501Y-80952029D01*
X129966083Y-80947355D01*
X129965000Y-80936359D01*
X129965000Y-80647641D01*
X129966083Y-80636645D01*
X129967501Y-80631971D01*
X129969800Y-80627670D01*
X129975029Y-80621298D01*
X129988643Y-80600924D01*
X129998020Y-80578285D01*
X130002800Y-80554251D01*
X130002800Y-80529747D01*
X129998019Y-80505714D01*
X129988642Y-80483075D01*
X129975029Y-80462702D01*
X129969800Y-80456330D01*
X129967501Y-80452029D01*
X129966083Y-80447355D01*
X129965000Y-80436359D01*
X129965000Y-80217999D01*
X129962598Y-80193613D01*
X129955485Y-80170164D01*
X129943934Y-80148553D01*
X129928389Y-80129611D01*
X129909447Y-80114066D01*
X129887836Y-80102515D01*
X129864387Y-80095402D01*
X129840001Y-80093000D01*
X129621641Y-80093000D01*
X129610645Y-80091917D01*
X129605971Y-80090499D01*
X129601670Y-80088200D01*
X129595298Y-80082971D01*
X129574924Y-80069357D01*
X129552285Y-80059980D01*
X129528251Y-80055200D01*
X129503747Y-80055200D01*
X129479714Y-80059981D01*
X129457075Y-80069358D01*
X129436702Y-80082971D01*
X129430330Y-80088200D01*
X129426029Y-80090499D01*
X129421355Y-80091917D01*
X129410359Y-80093000D01*
X129121641Y-80093000D01*
X129110645Y-80091917D01*
X129105971Y-80090499D01*
X129101670Y-80088200D01*
X129095298Y-80082971D01*
X129074924Y-80069357D01*
X129052285Y-80059980D01*
X129028251Y-80055200D01*
X129003747Y-80055200D01*
X128979714Y-80059981D01*
X128957075Y-80069358D01*
X128936702Y-80082971D01*
X128930330Y-80088200D01*
X128926029Y-80090499D01*
X128921355Y-80091917D01*
X128910359Y-80093000D01*
X128621641Y-80093000D01*
X128610645Y-80091917D01*
X128605971Y-80090499D01*
X128601670Y-80088200D01*
X128595298Y-80082971D01*
X128574924Y-80069357D01*
X128552285Y-80059980D01*
X128528251Y-80055200D01*
X128503747Y-80055200D01*
X128479714Y-80059981D01*
X128457075Y-80069358D01*
X128436702Y-80082971D01*
X128430330Y-80088200D01*
X128426029Y-80090499D01*
X128421355Y-80091917D01*
X128410359Y-80093000D01*
X128121641Y-80093000D01*
X128110645Y-80091917D01*
X128105971Y-80090499D01*
X128101670Y-80088200D01*
X128095298Y-80082971D01*
X128074924Y-80069357D01*
X128052285Y-80059980D01*
X128028251Y-80055200D01*
X128003747Y-80055200D01*
X127979714Y-80059981D01*
X127957075Y-80069358D01*
X127936702Y-80082971D01*
X127930330Y-80088200D01*
X127926029Y-80090499D01*
X127921355Y-80091917D01*
X127910359Y-80093000D01*
X127621641Y-80093000D01*
X127610645Y-80091917D01*
X127605971Y-80090499D01*
X127601670Y-80088200D01*
X127595298Y-80082971D01*
X127574924Y-80069357D01*
X127552285Y-80059980D01*
X127528251Y-80055200D01*
X127503747Y-80055200D01*
X127479714Y-80059981D01*
X127457075Y-80069358D01*
X127436702Y-80082971D01*
X127430330Y-80088200D01*
X127426029Y-80090499D01*
X127421355Y-80091917D01*
X127410359Y-80093000D01*
X127121641Y-80093000D01*
X127110645Y-80091917D01*
X127105971Y-80090499D01*
X127101670Y-80088200D01*
X127095298Y-80082971D01*
X127074924Y-80069357D01*
X127052285Y-80059980D01*
X127028251Y-80055200D01*
X127003747Y-80055200D01*
X126979714Y-80059981D01*
X126957075Y-80069358D01*
X126936702Y-80082971D01*
X126930330Y-80088200D01*
X126926029Y-80090499D01*
X126921355Y-80091917D01*
X126910359Y-80093000D01*
X126621641Y-80093000D01*
X126610645Y-80091917D01*
X126605971Y-80090499D01*
X126601670Y-80088200D01*
X126595298Y-80082971D01*
X126574924Y-80069357D01*
X126552285Y-80059980D01*
X126528251Y-80055200D01*
X126503747Y-80055200D01*
X126479714Y-80059981D01*
X126457075Y-80069358D01*
X126436702Y-80082971D01*
X126430330Y-80088200D01*
X126426029Y-80090499D01*
X126421355Y-80091917D01*
X126410359Y-80093000D01*
X126191999Y-80093000D01*
X126167613Y-80095402D01*
X126144164Y-80102515D01*
X126122553Y-80114066D01*
X126103611Y-80129611D01*
X126088066Y-80148553D01*
X126076515Y-80170164D01*
X126069402Y-80193613D01*
X126067000Y-80217999D01*
X126067000Y-80436359D01*
X126065917Y-80447355D01*
X126064499Y-80452029D01*
X126062200Y-80456330D01*
X126056971Y-80462702D01*
X126043357Y-80483076D01*
X126033980Y-80505715D01*
X126029200Y-80529749D01*
X125127800Y-80529749D01*
X125127800Y-80529747D01*
X125123019Y-80505714D01*
X125113642Y-80483075D01*
X125100029Y-80462702D01*
X125094800Y-80456330D01*
X125092501Y-80452029D01*
X125091083Y-80447355D01*
X125090000Y-80436359D01*
X125090000Y-80147641D01*
X125091083Y-80136645D01*
X125092501Y-80131971D01*
X125094800Y-80127669D01*
X125097896Y-80123896D01*
X125101669Y-80120800D01*
X125105971Y-80118501D01*
X125110645Y-80117083D01*
X125121641Y-80116000D01*
X125965001Y-80116000D01*
X125989387Y-80113598D01*
X126012836Y-80106485D01*
X126034447Y-80094934D01*
X126053389Y-80079389D01*
X126068934Y-80060447D01*
X126080485Y-80038836D01*
X126087598Y-80015387D01*
X126090000Y-79991001D01*
X126090000Y-79147641D01*
X126091083Y-79136645D01*
X126092501Y-79131971D01*
X126094800Y-79127669D01*
X126097896Y-79123896D01*
X126101669Y-79120800D01*
X126105971Y-79118501D01*
X126110645Y-79117083D01*
X126121641Y-79116000D01*
X126410359Y-79116000D01*
X126421355Y-79117083D01*
X126421355Y-79117083D01*
G37*
G36*
X129493417Y-80444540D02*
G01*
X129522081Y-80453235D01*
X129548495Y-80467354D01*
X129571646Y-80486354D01*
X129590646Y-80509505D01*
X129604765Y-80535919D01*
X129613460Y-80564583D01*
X129617000Y-80600527D01*
X129617000Y-83483473D01*
X129613460Y-83519417D01*
X129604765Y-83548081D01*
X129590646Y-83574495D01*
X129571646Y-83597646D01*
X129548495Y-83616646D01*
X129522081Y-83630765D01*
X129493417Y-83639460D01*
X129457473Y-83643000D01*
X126574527Y-83643000D01*
X126538583Y-83639460D01*
X126509919Y-83630765D01*
X126483505Y-83616646D01*
X126460354Y-83597646D01*
X126441354Y-83574495D01*
X126427235Y-83548081D01*
X126418540Y-83519417D01*
X126415000Y-83483473D01*
X126415000Y-80600527D01*
X126418540Y-80564583D01*
X126427235Y-80535919D01*
X126441354Y-80509505D01*
X126460354Y-80486354D01*
X126483505Y-80467354D01*
X126509919Y-80453235D01*
X126538583Y-80444540D01*
X126574527Y-80441000D01*
X129457473Y-80441000D01*
X129493417Y-80444540D01*
X129493417Y-80444540D01*
G37*
G36*
X140337714Y-83773389D02*
G01*
X140418645Y-83806912D01*
X140491480Y-83855579D01*
X140553421Y-83917520D01*
X140602088Y-83990355D01*
X140602089Y-83990357D01*
X140635611Y-84071286D01*
X140649876Y-84143000D01*
X140652700Y-84157201D01*
X140652700Y-84244799D01*
X140635611Y-84330714D01*
X140602088Y-84411645D01*
X140553421Y-84484480D01*
X140491480Y-84546421D01*
X140418645Y-84595088D01*
X140418644Y-84595089D01*
X140418643Y-84595089D01*
X140337714Y-84628611D01*
X140251801Y-84645700D01*
X140164199Y-84645700D01*
X140078286Y-84628611D01*
X139997357Y-84595089D01*
X139997356Y-84595089D01*
X139997355Y-84595088D01*
X139924520Y-84546421D01*
X139862579Y-84484480D01*
X139813912Y-84411645D01*
X139780389Y-84330714D01*
X139763300Y-84244799D01*
X139763300Y-84157201D01*
X139766125Y-84143000D01*
X139780389Y-84071286D01*
X139813911Y-83990357D01*
X139813912Y-83990355D01*
X139862579Y-83917520D01*
X139924520Y-83855579D01*
X139997355Y-83806912D01*
X140078286Y-83773389D01*
X140164199Y-83756300D01*
X140251801Y-83756300D01*
X140337714Y-83773389D01*
X140337714Y-83773389D01*
G37*
G36*
X137797714Y-83773389D02*
G01*
X137878645Y-83806912D01*
X137951480Y-83855579D01*
X138013421Y-83917520D01*
X138062088Y-83990355D01*
X138062089Y-83990357D01*
X138095611Y-84071286D01*
X138109876Y-84143000D01*
X138112700Y-84157201D01*
X138112700Y-84244799D01*
X138095611Y-84330714D01*
X138062088Y-84411645D01*
X138013421Y-84484480D01*
X137951480Y-84546421D01*
X137878645Y-84595088D01*
X137878644Y-84595089D01*
X137878643Y-84595089D01*
X137797714Y-84628611D01*
X137711801Y-84645700D01*
X137624199Y-84645700D01*
X137538286Y-84628611D01*
X137457357Y-84595089D01*
X137457356Y-84595089D01*
X137457355Y-84595088D01*
X137384520Y-84546421D01*
X137322579Y-84484480D01*
X137273912Y-84411645D01*
X137240389Y-84330714D01*
X137223300Y-84244799D01*
X137223300Y-84157201D01*
X137226125Y-84143000D01*
X137240389Y-84071286D01*
X137273911Y-83990357D01*
X137273912Y-83990355D01*
X137322579Y-83917520D01*
X137384520Y-83855579D01*
X137457355Y-83806912D01*
X137538286Y-83773389D01*
X137624199Y-83756300D01*
X137711801Y-83756300D01*
X137797714Y-83773389D01*
X137797714Y-83773389D01*
G37*
G36*
X139067714Y-83773389D02*
G01*
X139148645Y-83806912D01*
X139221480Y-83855579D01*
X139283421Y-83917520D01*
X139332088Y-83990355D01*
X139332089Y-83990357D01*
X139365611Y-84071286D01*
X139379876Y-84143000D01*
X139382700Y-84157201D01*
X139382700Y-84244799D01*
X139365611Y-84330714D01*
X139332088Y-84411645D01*
X139283421Y-84484480D01*
X139221480Y-84546421D01*
X139148645Y-84595088D01*
X139148644Y-84595089D01*
X139148643Y-84595089D01*
X139067714Y-84628611D01*
X138981801Y-84645700D01*
X138894199Y-84645700D01*
X138808286Y-84628611D01*
X138727357Y-84595089D01*
X138727356Y-84595089D01*
X138727355Y-84595088D01*
X138654520Y-84546421D01*
X138592579Y-84484480D01*
X138543912Y-84411645D01*
X138510389Y-84330714D01*
X138493300Y-84244799D01*
X138493300Y-84157201D01*
X138496125Y-84143000D01*
X138510389Y-84071286D01*
X138543911Y-83990357D01*
X138543912Y-83990355D01*
X138592579Y-83917520D01*
X138654520Y-83855579D01*
X138727355Y-83806912D01*
X138808286Y-83773389D01*
X138894199Y-83756300D01*
X138981801Y-83756300D01*
X139067714Y-83773389D01*
X139067714Y-83773389D01*
G37*
G36*
X123175000Y-84579000D02*
G01*
X121173000Y-84579000D01*
X121173000Y-84077000D01*
X123175000Y-84077000D01*
X123175000Y-84579000D01*
X123175000Y-84579000D01*
G37*
G36*
X141584578Y-83284197D02*
G01*
X141637350Y-83294694D01*
X141736770Y-83335875D01*
X141826246Y-83395661D01*
X141902339Y-83471754D01*
X141962125Y-83561230D01*
X142003306Y-83660650D01*
X142024300Y-83766194D01*
X142024300Y-83873806D01*
X142003306Y-83979350D01*
X141962125Y-84078770D01*
X141902339Y-84168246D01*
X141826246Y-84244339D01*
X141736770Y-84304125D01*
X141637350Y-84345306D01*
X141604325Y-84351875D01*
X141531807Y-84366300D01*
X141424193Y-84366300D01*
X141351675Y-84351875D01*
X141318650Y-84345306D01*
X141219230Y-84304125D01*
X141129754Y-84244339D01*
X141053661Y-84168246D01*
X140993875Y-84078770D01*
X140952694Y-83979350D01*
X140931700Y-83873806D01*
X140931700Y-83766194D01*
X140952694Y-83660650D01*
X140993875Y-83561230D01*
X141053661Y-83471754D01*
X141129754Y-83395661D01*
X141219230Y-83335875D01*
X141318650Y-83294694D01*
X141371422Y-83284197D01*
X141424193Y-83273700D01*
X141531807Y-83273700D01*
X141584578Y-83284197D01*
X141584578Y-83284197D01*
G37*
G36*
X133377938Y-83453716D02*
G01*
X133398557Y-83459971D01*
X133417553Y-83470124D01*
X133434208Y-83483792D01*
X133447876Y-83500447D01*
X133458029Y-83519443D01*
X133464284Y-83540062D01*
X133467000Y-83567640D01*
X133467000Y-84026360D01*
X133464284Y-84053938D01*
X133458029Y-84074557D01*
X133447876Y-84093553D01*
X133434208Y-84110208D01*
X133417553Y-84123876D01*
X133398557Y-84134029D01*
X133377938Y-84140284D01*
X133350360Y-84143000D01*
X132841640Y-84143000D01*
X132814062Y-84140284D01*
X132793443Y-84134029D01*
X132774447Y-84123876D01*
X132757792Y-84110208D01*
X132744124Y-84093553D01*
X132733971Y-84074557D01*
X132727716Y-84053938D01*
X132725000Y-84026360D01*
X132725000Y-83567640D01*
X132727716Y-83540062D01*
X132733971Y-83519443D01*
X132744124Y-83500447D01*
X132757792Y-83483792D01*
X132774447Y-83470124D01*
X132793443Y-83459971D01*
X132814062Y-83453716D01*
X132841640Y-83451000D01*
X133350360Y-83451000D01*
X133377938Y-83453716D01*
X133377938Y-83453716D01*
G37*
G36*
X134393938Y-83453716D02*
G01*
X134414557Y-83459971D01*
X134433553Y-83470124D01*
X134450208Y-83483792D01*
X134463876Y-83500447D01*
X134474029Y-83519443D01*
X134480284Y-83540062D01*
X134483000Y-83567640D01*
X134483000Y-84026360D01*
X134480284Y-84053938D01*
X134474029Y-84074557D01*
X134463876Y-84093553D01*
X134450208Y-84110208D01*
X134433553Y-84123876D01*
X134414557Y-84134029D01*
X134393938Y-84140284D01*
X134366360Y-84143000D01*
X133857640Y-84143000D01*
X133830062Y-84140284D01*
X133809443Y-84134029D01*
X133790447Y-84123876D01*
X133773792Y-84110208D01*
X133760124Y-84093553D01*
X133749971Y-84074557D01*
X133743716Y-84053938D01*
X133741000Y-84026360D01*
X133741000Y-83567640D01*
X133743716Y-83540062D01*
X133749971Y-83519443D01*
X133760124Y-83500447D01*
X133773792Y-83483792D01*
X133790447Y-83470124D01*
X133809443Y-83459971D01*
X133830062Y-83453716D01*
X133857640Y-83451000D01*
X134366360Y-83451000D01*
X134393938Y-83453716D01*
X134393938Y-83453716D01*
G37*
G36*
X123175000Y-83379000D02*
G01*
X121173000Y-83379000D01*
X121173000Y-82877000D01*
X123175000Y-82877000D01*
X123175000Y-83379000D01*
X123175000Y-83379000D01*
G37*
G36*
X133377938Y-82483716D02*
G01*
X133398557Y-82489971D01*
X133417553Y-82500124D01*
X133434208Y-82513792D01*
X133447876Y-82530447D01*
X133458029Y-82549443D01*
X133464284Y-82570062D01*
X133467000Y-82597640D01*
X133467000Y-83056360D01*
X133464284Y-83083938D01*
X133458029Y-83104557D01*
X133447876Y-83123553D01*
X133434208Y-83140208D01*
X133417553Y-83153876D01*
X133398557Y-83164029D01*
X133377938Y-83170284D01*
X133350360Y-83173000D01*
X132841640Y-83173000D01*
X132814062Y-83170284D01*
X132793443Y-83164029D01*
X132774447Y-83153876D01*
X132757792Y-83140208D01*
X132744124Y-83123553D01*
X132733971Y-83104557D01*
X132727716Y-83083938D01*
X132725000Y-83056360D01*
X132725000Y-82597640D01*
X132727716Y-82570062D01*
X132733971Y-82549443D01*
X132744124Y-82530447D01*
X132757792Y-82513792D01*
X132774447Y-82500124D01*
X132793443Y-82489971D01*
X132814062Y-82483716D01*
X132841640Y-82481000D01*
X133350360Y-82481000D01*
X133377938Y-82483716D01*
X133377938Y-82483716D01*
G37*
G36*
X134393938Y-82483716D02*
G01*
X134414557Y-82489971D01*
X134433553Y-82500124D01*
X134450208Y-82513792D01*
X134463876Y-82530447D01*
X134474029Y-82549443D01*
X134480284Y-82570062D01*
X134483000Y-82597640D01*
X134483000Y-83056360D01*
X134480284Y-83083938D01*
X134474029Y-83104557D01*
X134463876Y-83123553D01*
X134450208Y-83140208D01*
X134433553Y-83153876D01*
X134414557Y-83164029D01*
X134393938Y-83170284D01*
X134366360Y-83173000D01*
X133857640Y-83173000D01*
X133830062Y-83170284D01*
X133809443Y-83164029D01*
X133790447Y-83153876D01*
X133773792Y-83140208D01*
X133760124Y-83123553D01*
X133749971Y-83104557D01*
X133743716Y-83083938D01*
X133741000Y-83056360D01*
X133741000Y-82597640D01*
X133743716Y-82570062D01*
X133749971Y-82549443D01*
X133760124Y-82530447D01*
X133773792Y-82513792D01*
X133790447Y-82500124D01*
X133809443Y-82489971D01*
X133830062Y-82483716D01*
X133857640Y-82481000D01*
X134366360Y-82481000D01*
X134393938Y-82483716D01*
X134393938Y-82483716D01*
G37*
G36*
X152117549Y-81247366D02*
G01*
X151162634Y-82775549D01*
X149634451Y-81820634D01*
X150589366Y-80292451D01*
X152117549Y-81247366D01*
X152117549Y-81247366D01*
G37*
G36*
X142755000Y-82681000D02*
G01*
X142203000Y-82681000D01*
X142203000Y-81879000D01*
X142755000Y-81879000D01*
X142755000Y-82681000D01*
X142755000Y-82681000D01*
G37*
G36*
X144055000Y-82681000D02*
G01*
X143503000Y-82681000D01*
X143503000Y-81879000D01*
X144055000Y-81879000D01*
X144055000Y-82681000D01*
X144055000Y-82681000D01*
G37*
G36*
X116313465Y-81718624D02*
G01*
X114785282Y-82673539D01*
X113830367Y-81145356D01*
X115358550Y-80190441D01*
X116313465Y-81718624D01*
X116313465Y-81718624D01*
G37*
G36*
X140997938Y-81929716D02*
G01*
X141018557Y-81935971D01*
X141037553Y-81946124D01*
X141054208Y-81959792D01*
X141067876Y-81976447D01*
X141078029Y-81995443D01*
X141084284Y-82016062D01*
X141087000Y-82043640D01*
X141087000Y-82502360D01*
X141084284Y-82529938D01*
X141078029Y-82550557D01*
X141067876Y-82569553D01*
X141054208Y-82586208D01*
X141037553Y-82599876D01*
X141018557Y-82610029D01*
X140997938Y-82616284D01*
X140970360Y-82619000D01*
X140461640Y-82619000D01*
X140434062Y-82616284D01*
X140413443Y-82610029D01*
X140394447Y-82599876D01*
X140377792Y-82586208D01*
X140364124Y-82569553D01*
X140353971Y-82550557D01*
X140347716Y-82529938D01*
X140345000Y-82502360D01*
X140345000Y-82043640D01*
X140347716Y-82016062D01*
X140353971Y-81995443D01*
X140364124Y-81976447D01*
X140377792Y-81959792D01*
X140394447Y-81946124D01*
X140413443Y-81935971D01*
X140434062Y-81929716D01*
X140461640Y-81927000D01*
X140970360Y-81927000D01*
X140997938Y-81929716D01*
X140997938Y-81929716D01*
G37*
G36*
X145569938Y-81929716D02*
G01*
X145590557Y-81935971D01*
X145609553Y-81946124D01*
X145626208Y-81959792D01*
X145639876Y-81976447D01*
X145650029Y-81995443D01*
X145656284Y-82016062D01*
X145659000Y-82043640D01*
X145659000Y-82502360D01*
X145656284Y-82529938D01*
X145650029Y-82550557D01*
X145639876Y-82569553D01*
X145626208Y-82586208D01*
X145609553Y-82599876D01*
X145590557Y-82610029D01*
X145569938Y-82616284D01*
X145542360Y-82619000D01*
X145033640Y-82619000D01*
X145006062Y-82616284D01*
X144985443Y-82610029D01*
X144966447Y-82599876D01*
X144949792Y-82586208D01*
X144936124Y-82569553D01*
X144925971Y-82550557D01*
X144919716Y-82529938D01*
X144917000Y-82502360D01*
X144917000Y-82043640D01*
X144919716Y-82016062D01*
X144925971Y-81995443D01*
X144936124Y-81976447D01*
X144949792Y-81959792D01*
X144966447Y-81946124D01*
X144985443Y-81935971D01*
X145006062Y-81929716D01*
X145033640Y-81927000D01*
X145542360Y-81927000D01*
X145569938Y-81929716D01*
X145569938Y-81929716D01*
G37*
G36*
X136565355Y-78364083D02*
G01*
X136570029Y-78365501D01*
X136574330Y-78367800D01*
X136580702Y-78373029D01*
X136601076Y-78386643D01*
X136623715Y-78396020D01*
X136647749Y-78400800D01*
X136672253Y-78400800D01*
X136696286Y-78396019D01*
X136718925Y-78386642D01*
X136739298Y-78373029D01*
X136745670Y-78367800D01*
X136749971Y-78365501D01*
X136754645Y-78364083D01*
X136765641Y-78363000D01*
X137054359Y-78363000D01*
X137065355Y-78364083D01*
X137070029Y-78365501D01*
X137074330Y-78367800D01*
X137080702Y-78373029D01*
X137101076Y-78386643D01*
X137123715Y-78396020D01*
X137147749Y-78400800D01*
X137172253Y-78400800D01*
X137196286Y-78396019D01*
X137218925Y-78386642D01*
X137239298Y-78373029D01*
X137245670Y-78367800D01*
X137249971Y-78365501D01*
X137254645Y-78364083D01*
X137265641Y-78363000D01*
X137554359Y-78363000D01*
X137565355Y-78364083D01*
X137570029Y-78365501D01*
X137574330Y-78367800D01*
X137580702Y-78373029D01*
X137601076Y-78386643D01*
X137623715Y-78396020D01*
X137647749Y-78400800D01*
X137672253Y-78400800D01*
X137696286Y-78396019D01*
X137718925Y-78386642D01*
X137739298Y-78373029D01*
X137745670Y-78367800D01*
X137749971Y-78365501D01*
X137754645Y-78364083D01*
X137765641Y-78363000D01*
X138054359Y-78363000D01*
X138065355Y-78364083D01*
X138070029Y-78365501D01*
X138074331Y-78367800D01*
X138078104Y-78370896D01*
X138081200Y-78374669D01*
X138083499Y-78378971D01*
X138084917Y-78383645D01*
X138086000Y-78394641D01*
X138086000Y-79213001D01*
X138088402Y-79237387D01*
X138095515Y-79260836D01*
X138107066Y-79282447D01*
X138122611Y-79301389D01*
X138141553Y-79316934D01*
X138163164Y-79328485D01*
X138186613Y-79335598D01*
X138210999Y-79338000D01*
X139029359Y-79338000D01*
X139040355Y-79339083D01*
X139045029Y-79340501D01*
X139049331Y-79342800D01*
X139053104Y-79345896D01*
X139056200Y-79349669D01*
X139058499Y-79353971D01*
X139059917Y-79358645D01*
X139061000Y-79369641D01*
X139061000Y-79658359D01*
X139059917Y-79669355D01*
X139058499Y-79674029D01*
X139056200Y-79678330D01*
X139050971Y-79684702D01*
X139037357Y-79705076D01*
X139027980Y-79727715D01*
X139023200Y-79751749D01*
X139023200Y-79776253D01*
X139027981Y-79800286D01*
X139037358Y-79822925D01*
X139050971Y-79843298D01*
X139056200Y-79849670D01*
X139058499Y-79853971D01*
X139059917Y-79858645D01*
X139061000Y-79869641D01*
X139061000Y-80158359D01*
X139059917Y-80169355D01*
X139058499Y-80174029D01*
X139056200Y-80178330D01*
X139050971Y-80184702D01*
X139037357Y-80205076D01*
X139027980Y-80227715D01*
X139023200Y-80251749D01*
X139023200Y-80276253D01*
X139027981Y-80300286D01*
X139037358Y-80322925D01*
X139050971Y-80343298D01*
X139056200Y-80349670D01*
X139058499Y-80353971D01*
X139059917Y-80358645D01*
X139061000Y-80369641D01*
X139061000Y-80658359D01*
X139059917Y-80669355D01*
X139058499Y-80674029D01*
X139056200Y-80678330D01*
X139050971Y-80684702D01*
X139037357Y-80705076D01*
X139027980Y-80727715D01*
X139023200Y-80751749D01*
X139023200Y-80776253D01*
X139027981Y-80800286D01*
X139037358Y-80822925D01*
X139050971Y-80843298D01*
X139056200Y-80849670D01*
X139058499Y-80853971D01*
X139059917Y-80858645D01*
X139061000Y-80869641D01*
X139061000Y-81158359D01*
X139059917Y-81169355D01*
X139058499Y-81174029D01*
X139056200Y-81178331D01*
X139053104Y-81182104D01*
X139049331Y-81185200D01*
X139045029Y-81187499D01*
X139040355Y-81188917D01*
X139029359Y-81190000D01*
X138210999Y-81190000D01*
X138186613Y-81192402D01*
X138163164Y-81199515D01*
X138141553Y-81211066D01*
X138122611Y-81226611D01*
X138107066Y-81245553D01*
X138095515Y-81267164D01*
X138088402Y-81290613D01*
X138086000Y-81314999D01*
X138086000Y-82133359D01*
X138084917Y-82144355D01*
X138083499Y-82149029D01*
X138081200Y-82153331D01*
X138078104Y-82157104D01*
X138074331Y-82160200D01*
X138070029Y-82162499D01*
X138065355Y-82163917D01*
X138054359Y-82165000D01*
X137765641Y-82165000D01*
X137754645Y-82163917D01*
X137749971Y-82162499D01*
X137745670Y-82160200D01*
X137739298Y-82154971D01*
X137718924Y-82141357D01*
X137696285Y-82131980D01*
X137672251Y-82127200D01*
X137647747Y-82127200D01*
X137623714Y-82131981D01*
X137601075Y-82141358D01*
X137580702Y-82154971D01*
X137574330Y-82160200D01*
X137570029Y-82162499D01*
X137565355Y-82163917D01*
X137554359Y-82165000D01*
X137265641Y-82165000D01*
X137254645Y-82163917D01*
X137249971Y-82162499D01*
X137245670Y-82160200D01*
X137239298Y-82154971D01*
X137218924Y-82141357D01*
X137196285Y-82131980D01*
X137172251Y-82127200D01*
X137147747Y-82127200D01*
X137123714Y-82131981D01*
X137101075Y-82141358D01*
X137080702Y-82154971D01*
X137074330Y-82160200D01*
X137070029Y-82162499D01*
X137065355Y-82163917D01*
X137054359Y-82165000D01*
X136765641Y-82165000D01*
X136754645Y-82163917D01*
X136749971Y-82162499D01*
X136745670Y-82160200D01*
X136739298Y-82154971D01*
X136718924Y-82141357D01*
X136696285Y-82131980D01*
X136672251Y-82127200D01*
X136647747Y-82127200D01*
X136623714Y-82131981D01*
X136601075Y-82141358D01*
X136580702Y-82154971D01*
X136574330Y-82160200D01*
X136570029Y-82162499D01*
X136565355Y-82163917D01*
X136554359Y-82165000D01*
X136265641Y-82165000D01*
X136254645Y-82163917D01*
X136249971Y-82162499D01*
X136245669Y-82160200D01*
X136241896Y-82157104D01*
X136238800Y-82153331D01*
X136236501Y-82149029D01*
X136235083Y-82144355D01*
X136234000Y-82133359D01*
X136234000Y-81314999D01*
X136231598Y-81290613D01*
X136224485Y-81267164D01*
X136212934Y-81245553D01*
X136197389Y-81226611D01*
X136178447Y-81211066D01*
X136156836Y-81199515D01*
X136133387Y-81192402D01*
X136109001Y-81190000D01*
X135290641Y-81190000D01*
X135279645Y-81188917D01*
X135274971Y-81187499D01*
X135270669Y-81185200D01*
X135266896Y-81182104D01*
X135263800Y-81178331D01*
X135261501Y-81174029D01*
X135260083Y-81169355D01*
X135259000Y-81158359D01*
X135259000Y-80869641D01*
X135260083Y-80858645D01*
X135261501Y-80853971D01*
X135263800Y-80849670D01*
X135269029Y-80843298D01*
X135282643Y-80822924D01*
X135292020Y-80800285D01*
X135296800Y-80776251D01*
X135296800Y-80751747D01*
X135292019Y-80727714D01*
X135282642Y-80705075D01*
X135269029Y-80684702D01*
X135263800Y-80678330D01*
X135261501Y-80674029D01*
X135260083Y-80669355D01*
X135259000Y-80658359D01*
X135259000Y-80369641D01*
X135260083Y-80358645D01*
X135261501Y-80353971D01*
X135263800Y-80349670D01*
X135269029Y-80343298D01*
X135282643Y-80322924D01*
X135292020Y-80300285D01*
X135296800Y-80276251D01*
X135296800Y-80251747D01*
X135292019Y-80227714D01*
X135282642Y-80205075D01*
X135269029Y-80184702D01*
X135263800Y-80178330D01*
X135261501Y-80174029D01*
X135260083Y-80169355D01*
X135259000Y-80158359D01*
X135259000Y-79869641D01*
X135260083Y-79858645D01*
X135261501Y-79853971D01*
X135263800Y-79849670D01*
X135269029Y-79843298D01*
X135282643Y-79822924D01*
X135292020Y-79800285D01*
X135296800Y-79776251D01*
X135296800Y-79751747D01*
X135292019Y-79727714D01*
X135282642Y-79705075D01*
X135269029Y-79684702D01*
X135263800Y-79678330D01*
X135261501Y-79674029D01*
X135260083Y-79669355D01*
X135259000Y-79658359D01*
X135259000Y-79369641D01*
X135260083Y-79358645D01*
X135261501Y-79353971D01*
X135263800Y-79349669D01*
X135266896Y-79345896D01*
X135270669Y-79342800D01*
X135274971Y-79340501D01*
X135279645Y-79339083D01*
X135290641Y-79338000D01*
X136109001Y-79338000D01*
X136133387Y-79335598D01*
X136156836Y-79328485D01*
X136178447Y-79316934D01*
X136197389Y-79301389D01*
X136212934Y-79282447D01*
X136224485Y-79260836D01*
X136231598Y-79237387D01*
X136234000Y-79213001D01*
X136234000Y-78394641D01*
X136235083Y-78383645D01*
X136236501Y-78378971D01*
X136238800Y-78374669D01*
X136241896Y-78370896D01*
X136245669Y-78367800D01*
X136249971Y-78365501D01*
X136254645Y-78364083D01*
X136265641Y-78363000D01*
X136554359Y-78363000D01*
X136565355Y-78364083D01*
X136565355Y-78364083D01*
G37*
G36*
X121109738Y-81218516D02*
G01*
X121130357Y-81224771D01*
X121149353Y-81234924D01*
X121166008Y-81248592D01*
X121179676Y-81265247D01*
X121189829Y-81284243D01*
X121196084Y-81304862D01*
X121198800Y-81332440D01*
X121198800Y-81791160D01*
X121196084Y-81818738D01*
X121189829Y-81839357D01*
X121179676Y-81858353D01*
X121166008Y-81875008D01*
X121149353Y-81888676D01*
X121130357Y-81898829D01*
X121109738Y-81905084D01*
X121082160Y-81907800D01*
X120573440Y-81907800D01*
X120545862Y-81905084D01*
X120525243Y-81898829D01*
X120506247Y-81888676D01*
X120489592Y-81875008D01*
X120475924Y-81858353D01*
X120465771Y-81839357D01*
X120459516Y-81818738D01*
X120456800Y-81791160D01*
X120456800Y-81332440D01*
X120459516Y-81304862D01*
X120465771Y-81284243D01*
X120475924Y-81265247D01*
X120489592Y-81248592D01*
X120506247Y-81234924D01*
X120525243Y-81224771D01*
X120545862Y-81218516D01*
X120573440Y-81215800D01*
X121082160Y-81215800D01*
X121109738Y-81218516D01*
X121109738Y-81218516D01*
G37*
G36*
X122199938Y-81165716D02*
G01*
X122220557Y-81171971D01*
X122239553Y-81182124D01*
X122256208Y-81195792D01*
X122269876Y-81212447D01*
X122280029Y-81231443D01*
X122286284Y-81252062D01*
X122289000Y-81279640D01*
X122289000Y-81788360D01*
X122286284Y-81815938D01*
X122280029Y-81836557D01*
X122269876Y-81855553D01*
X122256208Y-81872208D01*
X122239553Y-81885876D01*
X122220557Y-81896029D01*
X122199938Y-81902284D01*
X122172360Y-81905000D01*
X121713640Y-81905000D01*
X121686062Y-81902284D01*
X121665443Y-81896029D01*
X121646447Y-81885876D01*
X121629792Y-81872208D01*
X121616124Y-81855553D01*
X121605971Y-81836557D01*
X121599716Y-81815938D01*
X121597000Y-81788360D01*
X121597000Y-81279640D01*
X121599716Y-81252062D01*
X121605971Y-81231443D01*
X121616124Y-81212447D01*
X121629792Y-81195792D01*
X121646447Y-81182124D01*
X121665443Y-81171971D01*
X121686062Y-81165716D01*
X121713640Y-81163000D01*
X122172360Y-81163000D01*
X122199938Y-81165716D01*
X122199938Y-81165716D01*
G37*
G36*
X123169938Y-81165716D02*
G01*
X123190557Y-81171971D01*
X123209553Y-81182124D01*
X123226208Y-81195792D01*
X123239876Y-81212447D01*
X123250029Y-81231443D01*
X123256284Y-81252062D01*
X123259000Y-81279640D01*
X123259000Y-81788360D01*
X123256284Y-81815938D01*
X123250029Y-81836557D01*
X123239876Y-81855553D01*
X123226208Y-81872208D01*
X123209553Y-81885876D01*
X123190557Y-81896029D01*
X123169938Y-81902284D01*
X123142360Y-81905000D01*
X122683640Y-81905000D01*
X122656062Y-81902284D01*
X122635443Y-81896029D01*
X122616447Y-81885876D01*
X122599792Y-81872208D01*
X122586124Y-81855553D01*
X122575971Y-81836557D01*
X122569716Y-81815938D01*
X122567000Y-81788360D01*
X122567000Y-81279640D01*
X122569716Y-81252062D01*
X122575971Y-81231443D01*
X122586124Y-81212447D01*
X122599792Y-81195792D01*
X122616447Y-81182124D01*
X122635443Y-81171971D01*
X122656062Y-81165716D01*
X122683640Y-81163000D01*
X123142360Y-81163000D01*
X123169938Y-81165716D01*
X123169938Y-81165716D01*
G37*
G36*
X145569938Y-80959716D02*
G01*
X145590557Y-80965971D01*
X145609553Y-80976124D01*
X145626208Y-80989792D01*
X145639876Y-81006447D01*
X145650029Y-81025443D01*
X145656284Y-81046062D01*
X145659000Y-81073640D01*
X145659000Y-81532360D01*
X145656284Y-81559938D01*
X145650029Y-81580557D01*
X145639876Y-81599553D01*
X145626208Y-81616208D01*
X145609553Y-81629876D01*
X145590557Y-81640029D01*
X145569938Y-81646284D01*
X145542360Y-81649000D01*
X145033640Y-81649000D01*
X145006062Y-81646284D01*
X144985443Y-81640029D01*
X144966447Y-81629876D01*
X144949792Y-81616208D01*
X144936124Y-81599553D01*
X144925971Y-81580557D01*
X144919716Y-81559938D01*
X144917000Y-81532360D01*
X144917000Y-81073640D01*
X144919716Y-81046062D01*
X144925971Y-81025443D01*
X144936124Y-81006447D01*
X144949792Y-80989792D01*
X144966447Y-80976124D01*
X144985443Y-80965971D01*
X145006062Y-80959716D01*
X145033640Y-80957000D01*
X145542360Y-80957000D01*
X145569938Y-80959716D01*
X145569938Y-80959716D01*
G37*
G36*
X140997938Y-80959716D02*
G01*
X141018557Y-80965971D01*
X141037553Y-80976124D01*
X141054208Y-80989792D01*
X141067876Y-81006447D01*
X141078029Y-81025443D01*
X141084284Y-81046062D01*
X141087000Y-81073640D01*
X141087000Y-81532360D01*
X141084284Y-81559938D01*
X141078029Y-81580557D01*
X141067876Y-81599553D01*
X141054208Y-81616208D01*
X141037553Y-81629876D01*
X141018557Y-81640029D01*
X140997938Y-81646284D01*
X140970360Y-81649000D01*
X140461640Y-81649000D01*
X140434062Y-81646284D01*
X140413443Y-81640029D01*
X140394447Y-81629876D01*
X140377792Y-81616208D01*
X140364124Y-81599553D01*
X140353971Y-81580557D01*
X140347716Y-81559938D01*
X140345000Y-81532360D01*
X140345000Y-81073640D01*
X140347716Y-81046062D01*
X140353971Y-81025443D01*
X140364124Y-81006447D01*
X140377792Y-80989792D01*
X140394447Y-80976124D01*
X140413443Y-80965971D01*
X140434062Y-80959716D01*
X140461640Y-80957000D01*
X140970360Y-80957000D01*
X140997938Y-80959716D01*
X140997938Y-80959716D01*
G37*
G36*
X148832400Y-79293523D02*
G01*
X148898585Y-79300042D01*
X149068424Y-79351562D01*
X149068426Y-79351563D01*
X149081675Y-79358645D01*
X149224949Y-79435227D01*
X149237843Y-79445809D01*
X149362144Y-79547819D01*
X149440843Y-79643716D01*
X149474736Y-79685014D01*
X149558401Y-79841539D01*
X149609921Y-80011378D01*
X149627317Y-80188005D01*
X149609921Y-80364632D01*
X149558401Y-80534471D01*
X149474736Y-80690996D01*
X149445861Y-80726180D01*
X149362144Y-80828191D01*
X149268541Y-80905008D01*
X149224949Y-80940783D01*
X149068424Y-81024448D01*
X148898585Y-81075968D01*
X148832401Y-81082486D01*
X148766218Y-81089005D01*
X148677698Y-81089005D01*
X148611515Y-81082486D01*
X148545331Y-81075968D01*
X148375492Y-81024448D01*
X148218967Y-80940783D01*
X148175375Y-80905008D01*
X148081772Y-80828191D01*
X147998055Y-80726180D01*
X147969180Y-80690996D01*
X147885515Y-80534471D01*
X147833995Y-80364632D01*
X147816599Y-80188005D01*
X147833995Y-80011378D01*
X147885515Y-79841539D01*
X147969180Y-79685014D01*
X148003073Y-79643716D01*
X148081772Y-79547819D01*
X148206073Y-79445809D01*
X148218967Y-79435227D01*
X148362241Y-79358645D01*
X148375490Y-79351563D01*
X148375492Y-79351562D01*
X148545331Y-79300042D01*
X148611516Y-79293523D01*
X148677698Y-79287005D01*
X148766218Y-79287005D01*
X148832400Y-79293523D01*
X148832400Y-79293523D01*
G37*
G36*
X117336400Y-79191513D02*
G01*
X117402585Y-79198032D01*
X117572424Y-79249552D01*
X117728949Y-79333217D01*
X117754308Y-79354029D01*
X117866144Y-79445809D01*
X117936213Y-79531190D01*
X117978736Y-79583004D01*
X117978737Y-79583006D01*
X118050833Y-79717886D01*
X118062401Y-79739529D01*
X118113921Y-79909368D01*
X118131317Y-80085995D01*
X118113921Y-80262622D01*
X118068099Y-80413676D01*
X118062400Y-80432463D01*
X118057837Y-80441000D01*
X117978736Y-80588986D01*
X117956566Y-80616000D01*
X117866144Y-80726181D01*
X117775845Y-80800286D01*
X117728949Y-80838773D01*
X117700516Y-80853971D01*
X117588817Y-80913676D01*
X117572424Y-80922438D01*
X117402585Y-80973958D01*
X117336401Y-80980476D01*
X117270218Y-80986995D01*
X117181698Y-80986995D01*
X117115515Y-80980476D01*
X117049331Y-80973958D01*
X116879492Y-80922438D01*
X116863100Y-80913676D01*
X116751400Y-80853971D01*
X116722967Y-80838773D01*
X116676071Y-80800286D01*
X116585772Y-80726181D01*
X116495350Y-80616000D01*
X116473180Y-80588986D01*
X116394079Y-80441000D01*
X116389516Y-80432463D01*
X116383817Y-80413676D01*
X116337995Y-80262622D01*
X116320599Y-80085995D01*
X116337995Y-79909368D01*
X116389515Y-79739529D01*
X116401084Y-79717886D01*
X116473179Y-79583006D01*
X116473180Y-79583004D01*
X116515703Y-79531190D01*
X116585772Y-79445809D01*
X116697608Y-79354029D01*
X116722967Y-79333217D01*
X116879492Y-79249552D01*
X117049331Y-79198032D01*
X117115516Y-79191513D01*
X117181698Y-79184995D01*
X117270218Y-79184995D01*
X117336400Y-79191513D01*
X117336400Y-79191513D01*
G37*
G36*
X121109738Y-80248516D02*
G01*
X121130357Y-80254771D01*
X121149353Y-80264924D01*
X121166008Y-80278592D01*
X121179676Y-80295247D01*
X121189829Y-80314243D01*
X121196084Y-80334862D01*
X121198800Y-80362440D01*
X121198800Y-80821160D01*
X121196084Y-80848738D01*
X121189829Y-80869357D01*
X121179676Y-80888353D01*
X121166008Y-80905008D01*
X121149353Y-80918676D01*
X121130357Y-80928829D01*
X121109738Y-80935084D01*
X121082160Y-80937800D01*
X120573440Y-80937800D01*
X120545862Y-80935084D01*
X120525243Y-80928829D01*
X120506247Y-80918676D01*
X120489592Y-80905008D01*
X120475924Y-80888353D01*
X120465771Y-80869357D01*
X120459516Y-80848738D01*
X120456800Y-80821160D01*
X120456800Y-80362440D01*
X120459516Y-80334862D01*
X120465771Y-80314243D01*
X120475924Y-80295247D01*
X120489592Y-80278592D01*
X120506247Y-80264924D01*
X120525243Y-80254771D01*
X120545862Y-80248516D01*
X120573440Y-80245800D01*
X121082160Y-80245800D01*
X121109738Y-80248516D01*
X121109738Y-80248516D01*
G37*
G36*
X122199938Y-80149716D02*
G01*
X122220557Y-80155971D01*
X122239553Y-80166124D01*
X122256208Y-80179792D01*
X122269876Y-80196447D01*
X122280029Y-80215443D01*
X122286284Y-80236062D01*
X122289000Y-80263640D01*
X122289000Y-80772360D01*
X122286284Y-80799938D01*
X122280029Y-80820557D01*
X122269876Y-80839553D01*
X122256208Y-80856208D01*
X122239553Y-80869876D01*
X122220557Y-80880029D01*
X122199938Y-80886284D01*
X122172360Y-80889000D01*
X121713640Y-80889000D01*
X121686062Y-80886284D01*
X121665443Y-80880029D01*
X121646447Y-80869876D01*
X121629792Y-80856208D01*
X121616124Y-80839553D01*
X121605971Y-80820557D01*
X121599716Y-80799938D01*
X121597000Y-80772360D01*
X121597000Y-80263640D01*
X121599716Y-80236062D01*
X121605971Y-80215443D01*
X121616124Y-80196447D01*
X121629792Y-80179792D01*
X121646447Y-80166124D01*
X121665443Y-80155971D01*
X121686062Y-80149716D01*
X121713640Y-80147000D01*
X122172360Y-80147000D01*
X122199938Y-80149716D01*
X122199938Y-80149716D01*
G37*
G36*
X123169938Y-80149716D02*
G01*
X123190557Y-80155971D01*
X123209553Y-80166124D01*
X123226208Y-80179792D01*
X123239876Y-80196447D01*
X123250029Y-80215443D01*
X123256284Y-80236062D01*
X123259000Y-80263640D01*
X123259000Y-80772360D01*
X123256284Y-80799938D01*
X123250029Y-80820557D01*
X123239876Y-80839553D01*
X123226208Y-80856208D01*
X123209553Y-80869876D01*
X123190557Y-80880029D01*
X123169938Y-80886284D01*
X123142360Y-80889000D01*
X122683640Y-80889000D01*
X122656062Y-80886284D01*
X122635443Y-80880029D01*
X122616447Y-80869876D01*
X122599792Y-80856208D01*
X122586124Y-80839553D01*
X122575971Y-80820557D01*
X122569716Y-80799938D01*
X122567000Y-80772360D01*
X122567000Y-80263640D01*
X122569716Y-80236062D01*
X122575971Y-80215443D01*
X122586124Y-80196447D01*
X122599792Y-80179792D01*
X122616447Y-80166124D01*
X122635443Y-80155971D01*
X122656062Y-80149716D01*
X122683640Y-80147000D01*
X123142360Y-80147000D01*
X123169938Y-80149716D01*
X123169938Y-80149716D01*
G37*
G36*
X143405000Y-80681000D02*
G01*
X142853000Y-80681000D01*
X142853000Y-79879000D01*
X143405000Y-79879000D01*
X143405000Y-80681000D01*
X143405000Y-80681000D01*
G37*
G36*
X133377938Y-79643716D02*
G01*
X133398557Y-79649971D01*
X133417553Y-79660124D01*
X133434208Y-79673792D01*
X133447876Y-79690447D01*
X133458029Y-79709443D01*
X133464284Y-79730062D01*
X133467000Y-79757640D01*
X133467000Y-80216360D01*
X133464284Y-80243938D01*
X133458029Y-80264557D01*
X133447876Y-80283553D01*
X133434208Y-80300208D01*
X133417553Y-80313876D01*
X133398557Y-80324029D01*
X133377938Y-80330284D01*
X133350360Y-80333000D01*
X132841640Y-80333000D01*
X132814062Y-80330284D01*
X132793443Y-80324029D01*
X132774447Y-80313876D01*
X132757792Y-80300208D01*
X132744124Y-80283553D01*
X132733971Y-80264557D01*
X132727716Y-80243938D01*
X132725000Y-80216360D01*
X132725000Y-79757640D01*
X132727716Y-79730062D01*
X132733971Y-79709443D01*
X132744124Y-79690447D01*
X132757792Y-79673792D01*
X132774447Y-79660124D01*
X132793443Y-79649971D01*
X132814062Y-79643716D01*
X132841640Y-79641000D01*
X133350360Y-79641000D01*
X133377938Y-79643716D01*
X133377938Y-79643716D01*
G37*
G36*
X134393938Y-79643716D02*
G01*
X134414557Y-79649971D01*
X134433553Y-79660124D01*
X134450208Y-79673792D01*
X134463876Y-79690447D01*
X134474029Y-79709443D01*
X134480284Y-79730062D01*
X134483000Y-79757640D01*
X134483000Y-80216360D01*
X134480284Y-80243938D01*
X134474029Y-80264557D01*
X134463876Y-80283553D01*
X134450208Y-80300208D01*
X134433553Y-80313876D01*
X134414557Y-80324029D01*
X134393938Y-80330284D01*
X134366360Y-80333000D01*
X133857640Y-80333000D01*
X133830062Y-80330284D01*
X133809443Y-80324029D01*
X133790447Y-80313876D01*
X133773792Y-80300208D01*
X133760124Y-80283553D01*
X133749971Y-80264557D01*
X133743716Y-80243938D01*
X133741000Y-80216360D01*
X133741000Y-79757640D01*
X133743716Y-79730062D01*
X133749971Y-79709443D01*
X133760124Y-79690447D01*
X133773792Y-79673792D01*
X133790447Y-79660124D01*
X133809443Y-79649971D01*
X133830062Y-79643716D01*
X133857640Y-79641000D01*
X134366360Y-79641000D01*
X134393938Y-79643716D01*
X134393938Y-79643716D01*
G37*
G36*
X146678359Y-77947529D02*
G01*
X146744543Y-77954047D01*
X146914382Y-78005567D01*
X147070907Y-78089232D01*
X147083801Y-78099814D01*
X147208102Y-78201824D01*
X147291364Y-78303281D01*
X147320694Y-78339019D01*
X147404359Y-78495544D01*
X147455879Y-78665383D01*
X147473275Y-78842010D01*
X147455879Y-79018637D01*
X147404359Y-79188476D01*
X147320694Y-79345001D01*
X147308650Y-79359676D01*
X147208102Y-79482196D01*
X147106645Y-79565458D01*
X147070907Y-79594788D01*
X147070905Y-79594789D01*
X146929905Y-79670156D01*
X146914382Y-79678453D01*
X146744543Y-79729973D01*
X146678359Y-79736491D01*
X146612176Y-79743010D01*
X146523656Y-79743010D01*
X146457473Y-79736491D01*
X146391289Y-79729973D01*
X146221450Y-79678453D01*
X146205928Y-79670156D01*
X146064927Y-79594789D01*
X146064925Y-79594788D01*
X146029187Y-79565458D01*
X145927730Y-79482196D01*
X145827182Y-79359676D01*
X145815138Y-79345001D01*
X145731473Y-79188476D01*
X145679953Y-79018637D01*
X145662557Y-78842010D01*
X145679953Y-78665383D01*
X145731473Y-78495544D01*
X145815138Y-78339019D01*
X145844468Y-78303281D01*
X145927730Y-78201824D01*
X146052031Y-78099814D01*
X146064925Y-78089232D01*
X146221450Y-78005567D01*
X146391289Y-77954047D01*
X146457473Y-77947529D01*
X146523656Y-77941010D01*
X146612176Y-77941010D01*
X146678359Y-77947529D01*
X146678359Y-77947529D01*
G37*
G36*
X119490443Y-77845519D02*
G01*
X119556627Y-77852037D01*
X119726466Y-77903557D01*
X119882991Y-77987222D01*
X119918729Y-78016552D01*
X120020186Y-78099814D01*
X120103448Y-78201271D01*
X120132778Y-78237009D01*
X120216443Y-78393534D01*
X120267963Y-78563373D01*
X120285359Y-78740000D01*
X120267963Y-78916627D01*
X120216443Y-79086466D01*
X120216442Y-79086468D01*
X120183744Y-79147641D01*
X120132778Y-79242991D01*
X120107380Y-79273938D01*
X120020186Y-79380186D01*
X119925590Y-79457818D01*
X119882991Y-79492778D01*
X119726466Y-79576443D01*
X119556627Y-79627963D01*
X119490442Y-79634482D01*
X119424260Y-79641000D01*
X119335740Y-79641000D01*
X119269558Y-79634482D01*
X119203373Y-79627963D01*
X119033534Y-79576443D01*
X118877009Y-79492778D01*
X118834410Y-79457818D01*
X118739814Y-79380186D01*
X118652620Y-79273938D01*
X118627222Y-79242991D01*
X118576256Y-79147641D01*
X118543558Y-79086468D01*
X118543557Y-79086466D01*
X118492037Y-78916627D01*
X118474641Y-78740000D01*
X118492037Y-78563373D01*
X118543557Y-78393534D01*
X118627222Y-78237009D01*
X118656552Y-78201271D01*
X118739814Y-78099814D01*
X118841271Y-78016552D01*
X118877009Y-77987222D01*
X119033534Y-77903557D01*
X119203373Y-77852037D01*
X119269557Y-77845519D01*
X119335740Y-77839000D01*
X119424260Y-77839000D01*
X119490443Y-77845519D01*
X119490443Y-77845519D01*
G37*
G36*
X134393938Y-78673716D02*
G01*
X134414557Y-78679971D01*
X134433553Y-78690124D01*
X134450208Y-78703792D01*
X134463876Y-78720447D01*
X134474029Y-78739443D01*
X134480284Y-78760062D01*
X134483000Y-78787640D01*
X134483000Y-79246360D01*
X134480284Y-79273938D01*
X134474029Y-79294557D01*
X134463876Y-79313553D01*
X134450208Y-79330208D01*
X134433553Y-79343876D01*
X134414557Y-79354029D01*
X134393938Y-79360284D01*
X134366360Y-79363000D01*
X133857640Y-79363000D01*
X133830062Y-79360284D01*
X133809443Y-79354029D01*
X133790447Y-79343876D01*
X133773792Y-79330208D01*
X133760124Y-79313553D01*
X133749971Y-79294557D01*
X133743716Y-79273938D01*
X133741000Y-79246360D01*
X133741000Y-78787640D01*
X133743716Y-78760062D01*
X133749971Y-78739443D01*
X133760124Y-78720447D01*
X133773792Y-78703792D01*
X133790447Y-78690124D01*
X133809443Y-78679971D01*
X133830062Y-78673716D01*
X133857640Y-78671000D01*
X134366360Y-78671000D01*
X134393938Y-78673716D01*
X134393938Y-78673716D01*
G37*
G36*
X133377938Y-78673716D02*
G01*
X133398557Y-78679971D01*
X133417553Y-78690124D01*
X133434208Y-78703792D01*
X133447876Y-78720447D01*
X133458029Y-78739443D01*
X133464284Y-78760062D01*
X133467000Y-78787640D01*
X133467000Y-79246360D01*
X133464284Y-79273938D01*
X133458029Y-79294557D01*
X133447876Y-79313553D01*
X133434208Y-79330208D01*
X133417553Y-79343876D01*
X133398557Y-79354029D01*
X133377938Y-79360284D01*
X133350360Y-79363000D01*
X132841640Y-79363000D01*
X132814062Y-79360284D01*
X132793443Y-79354029D01*
X132774447Y-79343876D01*
X132757792Y-79330208D01*
X132744124Y-79313553D01*
X132733971Y-79294557D01*
X132727716Y-79273938D01*
X132725000Y-79246360D01*
X132725000Y-78787640D01*
X132727716Y-78760062D01*
X132733971Y-78739443D01*
X132744124Y-78720447D01*
X132757792Y-78703792D01*
X132774447Y-78690124D01*
X132793443Y-78679971D01*
X132814062Y-78673716D01*
X132841640Y-78671000D01*
X133350360Y-78671000D01*
X133377938Y-78673716D01*
X133377938Y-78673716D01*
G37*
G36*
X144524316Y-76601533D02*
G01*
X144590501Y-76608052D01*
X144760340Y-76659572D01*
X144916865Y-76743237D01*
X144929759Y-76753819D01*
X145054060Y-76855829D01*
X145118417Y-76934250D01*
X145166652Y-76993024D01*
X145250317Y-77149549D01*
X145301837Y-77319388D01*
X145319233Y-77496015D01*
X145301837Y-77672642D01*
X145250317Y-77842481D01*
X145166652Y-77999006D01*
X145137777Y-78034190D01*
X145054060Y-78136201D01*
X144952603Y-78219463D01*
X144916865Y-78248793D01*
X144760340Y-78332458D01*
X144590501Y-78383978D01*
X144541795Y-78388775D01*
X144458134Y-78397015D01*
X144369614Y-78397015D01*
X144285953Y-78388775D01*
X144237247Y-78383978D01*
X144067408Y-78332458D01*
X143910883Y-78248793D01*
X143875145Y-78219463D01*
X143773688Y-78136201D01*
X143689971Y-78034190D01*
X143661096Y-77999006D01*
X143577431Y-77842481D01*
X143525911Y-77672642D01*
X143508515Y-77496015D01*
X143525911Y-77319388D01*
X143577431Y-77149549D01*
X143661096Y-76993024D01*
X143709331Y-76934250D01*
X143773688Y-76855829D01*
X143897989Y-76753819D01*
X143910883Y-76743237D01*
X144067408Y-76659572D01*
X144237247Y-76608052D01*
X144303432Y-76601533D01*
X144369614Y-76595015D01*
X144458134Y-76595015D01*
X144524316Y-76601533D01*
X144524316Y-76601533D01*
G37*
G36*
X121644484Y-76499523D02*
G01*
X121710669Y-76506042D01*
X121880508Y-76557562D01*
X122037033Y-76641227D01*
X122072771Y-76670557D01*
X122174228Y-76753819D01*
X122242007Y-76836409D01*
X122286820Y-76891014D01*
X122370485Y-77047539D01*
X122422005Y-77217378D01*
X122439401Y-77394005D01*
X122422005Y-77570632D01*
X122370485Y-77740471D01*
X122286820Y-77896996D01*
X122257490Y-77932734D01*
X122174228Y-78034191D01*
X122072771Y-78117453D01*
X122037033Y-78146783D01*
X121880508Y-78230448D01*
X121710669Y-78281968D01*
X121644484Y-78288487D01*
X121578302Y-78295005D01*
X121489782Y-78295005D01*
X121423600Y-78288487D01*
X121357415Y-78281968D01*
X121187576Y-78230448D01*
X121031051Y-78146783D01*
X120995313Y-78117453D01*
X120893856Y-78034191D01*
X120810594Y-77932734D01*
X120781264Y-77896996D01*
X120697599Y-77740471D01*
X120646079Y-77570632D01*
X120628683Y-77394005D01*
X120646079Y-77217378D01*
X120697599Y-77047539D01*
X120781264Y-76891014D01*
X120826077Y-76836409D01*
X120893856Y-76753819D01*
X120995313Y-76670557D01*
X121031051Y-76641227D01*
X121187576Y-76557562D01*
X121357415Y-76506042D01*
X121423600Y-76499523D01*
X121489782Y-76493005D01*
X121578302Y-76493005D01*
X121644484Y-76499523D01*
X121644484Y-76499523D01*
G37*
G36*
X124522591Y-76694085D02*
G01*
X124556569Y-76704393D01*
X124587890Y-76721134D01*
X124615339Y-76743661D01*
X124637866Y-76771110D01*
X124654607Y-76802431D01*
X124664915Y-76836409D01*
X124669000Y-76877890D01*
X124669000Y-77554110D01*
X124664915Y-77595591D01*
X124654607Y-77629569D01*
X124637866Y-77660890D01*
X124615339Y-77688339D01*
X124587890Y-77710866D01*
X124556569Y-77727607D01*
X124522591Y-77737915D01*
X124481110Y-77742000D01*
X123879890Y-77742000D01*
X123838409Y-77737915D01*
X123804431Y-77727607D01*
X123773110Y-77710866D01*
X123745661Y-77688339D01*
X123723134Y-77660890D01*
X123706393Y-77629569D01*
X123696085Y-77595591D01*
X123692000Y-77554110D01*
X123692000Y-76877890D01*
X123696085Y-76836409D01*
X123706393Y-76802431D01*
X123723134Y-76771110D01*
X123745661Y-76743661D01*
X123773110Y-76721134D01*
X123804431Y-76704393D01*
X123838409Y-76694085D01*
X123879890Y-76690000D01*
X124481110Y-76690000D01*
X124522591Y-76694085D01*
X124522591Y-76694085D01*
G37*
G36*
X126097591Y-76694085D02*
G01*
X126131569Y-76704393D01*
X126162890Y-76721134D01*
X126190339Y-76743661D01*
X126212866Y-76771110D01*
X126229607Y-76802431D01*
X126239915Y-76836409D01*
X126244000Y-76877890D01*
X126244000Y-77554110D01*
X126239915Y-77595591D01*
X126229607Y-77629569D01*
X126212866Y-77660890D01*
X126190339Y-77688339D01*
X126162890Y-77710866D01*
X126131569Y-77727607D01*
X126097591Y-77737915D01*
X126056110Y-77742000D01*
X125454890Y-77742000D01*
X125413409Y-77737915D01*
X125379431Y-77727607D01*
X125348110Y-77710866D01*
X125320661Y-77688339D01*
X125298134Y-77660890D01*
X125281393Y-77629569D01*
X125271085Y-77595591D01*
X125267000Y-77554110D01*
X125267000Y-76877890D01*
X125271085Y-76836409D01*
X125281393Y-76802431D01*
X125298134Y-76771110D01*
X125320661Y-76743661D01*
X125348110Y-76721134D01*
X125379431Y-76704393D01*
X125413409Y-76694085D01*
X125454890Y-76690000D01*
X126056110Y-76690000D01*
X126097591Y-76694085D01*
X126097591Y-76694085D01*
G37*
G36*
X142023391Y-76419765D02*
G01*
X142057369Y-76430073D01*
X142088690Y-76446814D01*
X142116139Y-76469341D01*
X142138666Y-76496790D01*
X142155407Y-76528111D01*
X142165715Y-76562089D01*
X142169800Y-76603570D01*
X142169800Y-77279790D01*
X142165715Y-77321271D01*
X142155407Y-77355249D01*
X142138666Y-77386570D01*
X142116139Y-77414019D01*
X142088690Y-77436546D01*
X142057369Y-77453287D01*
X142023391Y-77463595D01*
X141981910Y-77467680D01*
X141380690Y-77467680D01*
X141339209Y-77463595D01*
X141305231Y-77453287D01*
X141273910Y-77436546D01*
X141246461Y-77414019D01*
X141223934Y-77386570D01*
X141207193Y-77355249D01*
X141196885Y-77321271D01*
X141192800Y-77279790D01*
X141192800Y-76603570D01*
X141196885Y-76562089D01*
X141207193Y-76528111D01*
X141223934Y-76496790D01*
X141246461Y-76469341D01*
X141273910Y-76446814D01*
X141305231Y-76430073D01*
X141339209Y-76419765D01*
X141380690Y-76415680D01*
X141981910Y-76415680D01*
X142023391Y-76419765D01*
X142023391Y-76419765D01*
G37*
G36*
X140448391Y-76419765D02*
G01*
X140482369Y-76430073D01*
X140513690Y-76446814D01*
X140541139Y-76469341D01*
X140563666Y-76496790D01*
X140580407Y-76528111D01*
X140590715Y-76562089D01*
X140594800Y-76603570D01*
X140594800Y-77279790D01*
X140590715Y-77321271D01*
X140580407Y-77355249D01*
X140563666Y-77386570D01*
X140541139Y-77414019D01*
X140513690Y-77436546D01*
X140482369Y-77453287D01*
X140448391Y-77463595D01*
X140406910Y-77467680D01*
X139805690Y-77467680D01*
X139764209Y-77463595D01*
X139730231Y-77453287D01*
X139698910Y-77436546D01*
X139671461Y-77414019D01*
X139648934Y-77386570D01*
X139632193Y-77355249D01*
X139621885Y-77321271D01*
X139617800Y-77279790D01*
X139617800Y-76603570D01*
X139621885Y-76562089D01*
X139632193Y-76528111D01*
X139648934Y-76496790D01*
X139671461Y-76469341D01*
X139698910Y-76446814D01*
X139730231Y-76430073D01*
X139764209Y-76419765D01*
X139805690Y-76415680D01*
X140406910Y-76415680D01*
X140448391Y-76419765D01*
X140448391Y-76419765D01*
G37*
G36*
X134870000Y-77411000D02*
G01*
X131068000Y-77411000D01*
X131068000Y-75309000D01*
X134870000Y-75309000D01*
X134870000Y-77411000D01*
X134870000Y-77411000D01*
G37*
G36*
X129570000Y-77161000D02*
G01*
X127468000Y-77161000D01*
X127468000Y-75359000D01*
X129570000Y-75359000D01*
X129570000Y-77161000D01*
X129570000Y-77161000D01*
G37*
G36*
X138470000Y-77161000D02*
G01*
X136368000Y-77161000D01*
X136368000Y-75359000D01*
X138470000Y-75359000D01*
X138470000Y-77161000D01*
X138470000Y-77161000D01*
G37*
G36*
X126294000Y-75849000D02*
G01*
X125542000Y-75849000D01*
X125542000Y-74687000D01*
X126294000Y-74687000D01*
X126294000Y-75849000D01*
X126294000Y-75849000D01*
G37*
G36*
X124394000Y-75849000D02*
G01*
X123642000Y-75849000D01*
X123642000Y-74687000D01*
X124394000Y-74687000D01*
X124394000Y-75849000D01*
X124394000Y-75849000D01*
G37*
G36*
X142550000Y-75849000D02*
G01*
X141798000Y-75849000D01*
X141798000Y-74687000D01*
X142550000Y-74687000D01*
X142550000Y-75849000D01*
X142550000Y-75849000D01*
G37*
G36*
X140650000Y-75849000D02*
G01*
X139898000Y-75849000D01*
X139898000Y-74687000D01*
X140650000Y-74687000D01*
X140650000Y-75849000D01*
X140650000Y-75849000D01*
G37*
G36*
X135329721Y-73130174D02*
G01*
X135429995Y-73171709D01*
X135429996Y-73171710D01*
X135520242Y-73232010D01*
X135596990Y-73308758D01*
X135596991Y-73308760D01*
X135657291Y-73399005D01*
X135698826Y-73499279D01*
X135720000Y-73605730D01*
X135720000Y-73714270D01*
X135698826Y-73820721D01*
X135657291Y-73920995D01*
X135657290Y-73920996D01*
X135596990Y-74011242D01*
X135520242Y-74087990D01*
X135474812Y-74118345D01*
X135429995Y-74148291D01*
X135329721Y-74189826D01*
X135223270Y-74211000D01*
X135114730Y-74211000D01*
X135008279Y-74189826D01*
X134908005Y-74148291D01*
X134863188Y-74118345D01*
X134817758Y-74087990D01*
X134741010Y-74011242D01*
X134680710Y-73920996D01*
X134680709Y-73920995D01*
X134639174Y-73820721D01*
X134618000Y-73714270D01*
X134618000Y-73605730D01*
X134639174Y-73499279D01*
X134680709Y-73399005D01*
X134741009Y-73308760D01*
X134741010Y-73308758D01*
X134817758Y-73232010D01*
X134908004Y-73171710D01*
X134908005Y-73171709D01*
X135008279Y-73130174D01*
X135114730Y-73109000D01*
X135223270Y-73109000D01*
X135329721Y-73130174D01*
X135329721Y-73130174D01*
G37*
G36*
X130929721Y-73130174D02*
G01*
X131029995Y-73171709D01*
X131029996Y-73171710D01*
X131120242Y-73232010D01*
X131196990Y-73308758D01*
X131196991Y-73308760D01*
X131257291Y-73399005D01*
X131298826Y-73499279D01*
X131320000Y-73605730D01*
X131320000Y-73714270D01*
X131298826Y-73820721D01*
X131257291Y-73920995D01*
X131257290Y-73920996D01*
X131196990Y-74011242D01*
X131120242Y-74087990D01*
X131074812Y-74118345D01*
X131029995Y-74148291D01*
X130929721Y-74189826D01*
X130823270Y-74211000D01*
X130714730Y-74211000D01*
X130608279Y-74189826D01*
X130508005Y-74148291D01*
X130463188Y-74118345D01*
X130417758Y-74087990D01*
X130341010Y-74011242D01*
X130280710Y-73920996D01*
X130280709Y-73920995D01*
X130239174Y-73820721D01*
X130218000Y-73714270D01*
X130218000Y-73605730D01*
X130239174Y-73499279D01*
X130280709Y-73399005D01*
X130341009Y-73308760D01*
X130341010Y-73308758D01*
X130417758Y-73232010D01*
X130508004Y-73171710D01*
X130508005Y-73171709D01*
X130608279Y-73130174D01*
X130714730Y-73109000D01*
X130823270Y-73109000D01*
X130929721Y-73130174D01*
X130929721Y-73130174D01*
G37*
G36*
X142550000Y-73649000D02*
G01*
X139898000Y-73649000D01*
X139898000Y-72487000D01*
X142550000Y-72487000D01*
X142550000Y-73649000D01*
X142550000Y-73649000D01*
G37*
G36*
X126294000Y-73649000D02*
G01*
X123642000Y-73649000D01*
X123642000Y-72487000D01*
X126294000Y-72487000D01*
X126294000Y-73649000D01*
X126294000Y-73649000D01*
G37*
G36*
X138470000Y-71711000D02*
G01*
X136368000Y-71711000D01*
X136368000Y-69909000D01*
X138470000Y-69909000D01*
X138470000Y-71711000D01*
X138470000Y-71711000D01*
G37*
G36*
X129570000Y-71711000D02*
G01*
X127468000Y-71711000D01*
X127468000Y-69909000D01*
X129570000Y-69909000D01*
X129570000Y-71711000D01*
X129570000Y-71711000D01*
G37*
G36*
X126097591Y-70598085D02*
G01*
X126131569Y-70608393D01*
X126162890Y-70625134D01*
X126190339Y-70647661D01*
X126212866Y-70675110D01*
X126229607Y-70706431D01*
X126239915Y-70740409D01*
X126244000Y-70781890D01*
X126244000Y-71458110D01*
X126239915Y-71499591D01*
X126229607Y-71533569D01*
X126212866Y-71564890D01*
X126190339Y-71592339D01*
X126162890Y-71614866D01*
X126131569Y-71631607D01*
X126097591Y-71641915D01*
X126056110Y-71646000D01*
X125454890Y-71646000D01*
X125413409Y-71641915D01*
X125379431Y-71631607D01*
X125348110Y-71614866D01*
X125320661Y-71592339D01*
X125298134Y-71564890D01*
X125281393Y-71533569D01*
X125271085Y-71499591D01*
X125267000Y-71458110D01*
X125267000Y-70781890D01*
X125271085Y-70740409D01*
X125281393Y-70706431D01*
X125298134Y-70675110D01*
X125320661Y-70647661D01*
X125348110Y-70625134D01*
X125379431Y-70608393D01*
X125413409Y-70598085D01*
X125454890Y-70594000D01*
X126056110Y-70594000D01*
X126097591Y-70598085D01*
X126097591Y-70598085D01*
G37*
G36*
X124522591Y-70598085D02*
G01*
X124556569Y-70608393D01*
X124587890Y-70625134D01*
X124615339Y-70647661D01*
X124637866Y-70675110D01*
X124654607Y-70706431D01*
X124664915Y-70740409D01*
X124669000Y-70781890D01*
X124669000Y-71458110D01*
X124664915Y-71499591D01*
X124654607Y-71533569D01*
X124637866Y-71564890D01*
X124615339Y-71592339D01*
X124587890Y-71614866D01*
X124556569Y-71631607D01*
X124522591Y-71641915D01*
X124481110Y-71646000D01*
X123879890Y-71646000D01*
X123838409Y-71641915D01*
X123804431Y-71631607D01*
X123773110Y-71614866D01*
X123745661Y-71592339D01*
X123723134Y-71564890D01*
X123706393Y-71533569D01*
X123696085Y-71499591D01*
X123692000Y-71458110D01*
X123692000Y-70781890D01*
X123696085Y-70740409D01*
X123706393Y-70706431D01*
X123723134Y-70675110D01*
X123745661Y-70647661D01*
X123773110Y-70625134D01*
X123804431Y-70608393D01*
X123838409Y-70598085D01*
X123879890Y-70594000D01*
X124481110Y-70594000D01*
X124522591Y-70598085D01*
X124522591Y-70598085D01*
G37*
G36*
X140778591Y-70598085D02*
G01*
X140812569Y-70608393D01*
X140843890Y-70625134D01*
X140871339Y-70647661D01*
X140893866Y-70675110D01*
X140910607Y-70706431D01*
X140920915Y-70740409D01*
X140925000Y-70781890D01*
X140925000Y-71458110D01*
X140920915Y-71499591D01*
X140910607Y-71533569D01*
X140893866Y-71564890D01*
X140871339Y-71592339D01*
X140843890Y-71614866D01*
X140812569Y-71631607D01*
X140778591Y-71641915D01*
X140737110Y-71646000D01*
X140135890Y-71646000D01*
X140094409Y-71641915D01*
X140060431Y-71631607D01*
X140029110Y-71614866D01*
X140001661Y-71592339D01*
X139979134Y-71564890D01*
X139962393Y-71533569D01*
X139952085Y-71499591D01*
X139948000Y-71458110D01*
X139948000Y-70781890D01*
X139952085Y-70740409D01*
X139962393Y-70706431D01*
X139979134Y-70675110D01*
X140001661Y-70647661D01*
X140029110Y-70625134D01*
X140060431Y-70608393D01*
X140094409Y-70598085D01*
X140135890Y-70594000D01*
X140737110Y-70594000D01*
X140778591Y-70598085D01*
X140778591Y-70598085D01*
G37*
G36*
X142353591Y-70598085D02*
G01*
X142387569Y-70608393D01*
X142418890Y-70625134D01*
X142446339Y-70647661D01*
X142468866Y-70675110D01*
X142485607Y-70706431D01*
X142495915Y-70740409D01*
X142500000Y-70781890D01*
X142500000Y-71458110D01*
X142495915Y-71499591D01*
X142485607Y-71533569D01*
X142468866Y-71564890D01*
X142446339Y-71592339D01*
X142418890Y-71614866D01*
X142387569Y-71631607D01*
X142353591Y-71641915D01*
X142312110Y-71646000D01*
X141710890Y-71646000D01*
X141669409Y-71641915D01*
X141635431Y-71631607D01*
X141604110Y-71614866D01*
X141576661Y-71592339D01*
X141554134Y-71564890D01*
X141537393Y-71533569D01*
X141527085Y-71499591D01*
X141523000Y-71458110D01*
X141523000Y-70781890D01*
X141527085Y-70740409D01*
X141537393Y-70706431D01*
X141554134Y-70675110D01*
X141576661Y-70647661D01*
X141604110Y-70625134D01*
X141635431Y-70608393D01*
X141669409Y-70598085D01*
X141710890Y-70594000D01*
X142312110Y-70594000D01*
X142353591Y-70598085D01*
X142353591Y-70598085D01*
G37*
M02*
