G04 #@! TF.GenerationSoftware,KiCad,Pcbnew,(5.1.0)-1*
G04 #@! TF.CreationDate,2019-03-21T22:27:28+11:00*
G04 #@! TF.ProjectId,top-hemi,746f702d-6865-46d6-992e-6b696361645f,rev?*
G04 #@! TF.SameCoordinates,Original*
G04 #@! TF.FileFunction,Copper,L2,Bot*
G04 #@! TF.FilePolarity,Positive*
%FSLAX46Y46*%
G04 Gerber Fmt 4.6, Leading zero omitted, Abs format (unit mm)*
G04 Created by KiCad (PCBNEW (5.1.0)-1) date 2019-03-21 22:27:28*
%MOMM*%
%LPD*%
G04 APERTURE LIST*
%ADD10C,1.000000*%
%ADD11C,0.100000*%
%ADD12C,1.000000*%
%ADD13R,2.540000X5.080000*%
%ADD14C,17.780000*%
%ADD15O,1.000000X1.000000*%
%ADD16R,1.000000X1.000000*%
%ADD17C,0.500000*%
%ADD18C,0.152400*%
%ADD19C,0.254000*%
G04 APERTURE END LIST*
D10*
X117602000Y-79502000D03*
D11*
G36*
X118309107Y-79502000D02*
G01*
X117602000Y-80209107D01*
X116894893Y-79502000D01*
X117602000Y-78794893D01*
X118309107Y-79502000D01*
X118309107Y-79502000D01*
G37*
D10*
X118500026Y-78603974D03*
D12*
X118500026Y-78603974D02*
X118500026Y-78603974D01*
D10*
X119398051Y-77705949D03*
D12*
X119398051Y-77705949D02*
X119398051Y-77705949D01*
D10*
X120296077Y-76807923D03*
D12*
X120296077Y-76807923D02*
X120296077Y-76807923D01*
D13*
X144462500Y-72224900D03*
X121602500Y-72224900D03*
D14*
X133032500Y-72224900D03*
D10*
X147727326Y-79574969D03*
D12*
X147727326Y-79574969D02*
X147727326Y-79574969D01*
D10*
X146998884Y-78534646D03*
D12*
X146998884Y-78534646D02*
X146998884Y-78534646D01*
D10*
X146270442Y-77494323D03*
D12*
X146270442Y-77494323D02*
X146270442Y-77494323D01*
D10*
X145542000Y-76454000D03*
D11*
G36*
X145419212Y-77150364D02*
G01*
X144845636Y-76331212D01*
X145664788Y-75757636D01*
X146238364Y-76576788D01*
X145419212Y-77150364D01*
X145419212Y-77150364D01*
G37*
D10*
X117415116Y-98503354D03*
D11*
G36*
X117292328Y-99199718D02*
G01*
X116718752Y-98380566D01*
X117537904Y-97806990D01*
X118111480Y-98626142D01*
X117292328Y-99199718D01*
X117292328Y-99199718D01*
G37*
D10*
X118143558Y-99543677D03*
D12*
X118143558Y-99543677D02*
X118143558Y-99543677D01*
D10*
X118872000Y-100584000D03*
D12*
X118872000Y-100584000D02*
X118872000Y-100584000D01*
D10*
X119600442Y-101624323D03*
D12*
X119600442Y-101624323D02*
X119600442Y-101624323D01*
D10*
X148998077Y-98397923D03*
D12*
X148998077Y-98397923D02*
X148998077Y-98397923D01*
D10*
X148100051Y-99295949D03*
D12*
X148100051Y-99295949D02*
X148100051Y-99295949D01*
D10*
X147202026Y-100193974D03*
D12*
X147202026Y-100193974D02*
X147202026Y-100193974D01*
D10*
X146304000Y-101092000D03*
D11*
G36*
X147011107Y-101092000D02*
G01*
X146304000Y-101799107D01*
X145596893Y-101092000D01*
X146304000Y-100384893D01*
X147011107Y-101092000D01*
X147011107Y-101092000D01*
G37*
D15*
X116078000Y-84836000D03*
D16*
X116078000Y-83566000D03*
X144272000Y-84582000D03*
D15*
X144272000Y-85852000D03*
X116078000Y-93853000D03*
D16*
X116078000Y-92583000D03*
X143510000Y-91948000D03*
D15*
X143510000Y-93218000D03*
D14*
X132956300Y-105105200D03*
D13*
X144386300Y-105105200D03*
X121526300Y-105105200D03*
D17*
X144462500Y-72224900D03*
X121602500Y-72224900D03*
X143975429Y-78515390D03*
X142621451Y-78351668D03*
X149606000Y-82550000D03*
X137922000Y-105664000D03*
X129032000Y-105664000D03*
X137922000Y-102616000D03*
X129032000Y-102362000D03*
X124206000Y-82296000D03*
X122174000Y-84328000D03*
X124206000Y-81280000D03*
X131644922Y-82126922D03*
X141732000Y-78740000D03*
X119634000Y-81534000D03*
X127254000Y-82550000D03*
X140970000Y-79502000D03*
X133858000Y-86374031D03*
X133096000Y-85067000D03*
X143256000Y-76200000D03*
X146558000Y-73914000D03*
X123952000Y-97790000D03*
X123952000Y-92456000D03*
X153416000Y-95758000D03*
X146812000Y-97536000D03*
X132704289Y-82327147D03*
X122795960Y-81758610D03*
X131572000Y-83566000D03*
X145288000Y-81280000D03*
X120650000Y-80056000D03*
X133096000Y-84097000D03*
X140716000Y-81303000D03*
X142011500Y-77216000D03*
X140154764Y-79047236D03*
X135172267Y-84213745D03*
X133616410Y-82126914D03*
X137783850Y-83595390D03*
X146600571Y-80488610D03*
X121920000Y-96774000D03*
X138938000Y-85979000D03*
X131572000Y-84328000D03*
X151130000Y-82550000D03*
X128748610Y-85676208D03*
X150368000Y-82550000D03*
X140208000Y-86868000D03*
X125362250Y-79539119D03*
X124296583Y-79990162D03*
X139700000Y-83312000D03*
X122913000Y-80518000D03*
X124477859Y-80616884D03*
D18*
X142785173Y-78515390D02*
X142621451Y-78351668D01*
X143975429Y-78515390D02*
X142785173Y-78515390D01*
X133404055Y-72114579D02*
X133050502Y-72114579D01*
X139170579Y-72114579D02*
X133404055Y-72114579D01*
X133032500Y-72601830D02*
X133032500Y-72224900D01*
X140491479Y-80060809D02*
X133032500Y-72601830D01*
X147066000Y-80010000D02*
X143433066Y-80010000D01*
X149606000Y-82550000D02*
X147066000Y-80010000D01*
X143433066Y-80010000D02*
X143382257Y-80060809D01*
X143382257Y-80060809D02*
X140491479Y-80060809D01*
X124206000Y-81280000D02*
X119888000Y-81280000D01*
X119888000Y-81280000D02*
X119634000Y-81534000D01*
X140970000Y-79502000D02*
X141732000Y-78740000D01*
X133858000Y-86374031D02*
X133858000Y-85852000D01*
X133096000Y-85090000D02*
X133096000Y-85067000D01*
X133858000Y-85852000D02*
X133096000Y-85090000D01*
X142624124Y-77494323D02*
X145563336Y-77494323D01*
X145563336Y-77494323D02*
X146270442Y-77494323D01*
X141732000Y-78386447D02*
X142624124Y-77494323D01*
X141732000Y-78740000D02*
X141732000Y-78386447D01*
X144958881Y-75950001D02*
X146558000Y-74350882D01*
X143256000Y-76200000D02*
X143505999Y-75950001D01*
X143505999Y-75950001D02*
X144958881Y-75950001D01*
X146558000Y-74350882D02*
X146558000Y-73914000D01*
X144386300Y-102412800D02*
X144386300Y-105105200D01*
X143065500Y-101092000D02*
X144386300Y-102412800D01*
X121526300Y-105105200D02*
X121526300Y-102412800D01*
X121526300Y-102412800D02*
X125476000Y-98463100D01*
X125476000Y-98463100D02*
X125476000Y-97536000D01*
X125476000Y-97536000D02*
X128016000Y-94996000D01*
X128016000Y-94996000D02*
X140462000Y-94996000D01*
X140462000Y-94996000D02*
X143065500Y-97599500D01*
X143256000Y-97536000D02*
X143065500Y-97726500D01*
X146812000Y-97536000D02*
X143256000Y-97536000D01*
X143065500Y-97599500D02*
X143065500Y-97726500D01*
X143065500Y-97726500D02*
X143065500Y-101092000D01*
X131572000Y-83566000D02*
X124603350Y-83566000D01*
X124603350Y-83566000D02*
X123045959Y-82008609D01*
X132704289Y-82433711D02*
X132704289Y-82327147D01*
X131572000Y-83566000D02*
X132704289Y-82433711D01*
X123045959Y-82008609D02*
X122795960Y-81758610D01*
X132704289Y-82327147D02*
X132704289Y-82179711D01*
X133130102Y-82605524D02*
X135945524Y-82605524D01*
X132704289Y-82179711D02*
X133130102Y-82605524D01*
X135945524Y-82605524D02*
X137414000Y-84074000D01*
X140229559Y-84074000D02*
X143023559Y-81280000D01*
X137414000Y-84074000D02*
X140229559Y-84074000D01*
X143023559Y-81280000D02*
X145288000Y-81280000D01*
X119155398Y-81763730D02*
X119155398Y-81226200D01*
X122795960Y-81758610D02*
X122541968Y-82012602D01*
X122541968Y-82012602D02*
X119404270Y-82012602D01*
X119404270Y-82012602D02*
X119155398Y-81763730D01*
X120200201Y-80505799D02*
X120650000Y-80056000D01*
X119875799Y-80505799D02*
X120200201Y-80505799D01*
X119155398Y-81226200D02*
X119875799Y-80505799D01*
X140180264Y-79047236D02*
X140154764Y-79047236D01*
X142011500Y-77216000D02*
X140180264Y-79047236D01*
X133096000Y-84097000D02*
X135055522Y-84097000D01*
X135055522Y-84097000D02*
X135172267Y-84213745D01*
X133616410Y-82126914D02*
X136315374Y-82126914D01*
X136315374Y-82126914D02*
X137533851Y-83345391D01*
X137533851Y-83345391D02*
X137783850Y-83595390D01*
X137123943Y-82042000D02*
X141830492Y-82042000D01*
X127760652Y-81229189D02*
X128541259Y-81229189D01*
X117348000Y-79248000D02*
X117432575Y-79332575D01*
X143383882Y-80488610D02*
X146247018Y-80488610D01*
X146247018Y-80488610D02*
X146600571Y-80488610D01*
X125474654Y-78943191D02*
X127760652Y-81229189D01*
X128541259Y-81229189D02*
X128655571Y-81343501D01*
X128655571Y-81343501D02*
X136425444Y-81343501D01*
X136425444Y-81343501D02*
X137123943Y-82042000D01*
X141830492Y-82042000D02*
X143383882Y-80488610D01*
X125474654Y-78943191D02*
X119684809Y-78943191D01*
X119126000Y-79502000D02*
X117602000Y-79502000D01*
X119684809Y-78943191D02*
X119126000Y-79502000D01*
X121735279Y-94183191D02*
X117415116Y-98503354D01*
X148539191Y-94183191D02*
X121735279Y-94183191D01*
X149498076Y-95142076D02*
X148539191Y-94183191D01*
X149498076Y-97897924D02*
X149498076Y-95142076D01*
X148998077Y-98397923D02*
X149498076Y-97897924D01*
X121920000Y-96774000D02*
X121666000Y-97028000D01*
X121666000Y-99558765D02*
X119600442Y-101624323D01*
X121666000Y-97028000D02*
X121666000Y-99558765D01*
X133315331Y-84577999D02*
X131821999Y-84577999D01*
X135674099Y-84996527D02*
X133733859Y-84996527D01*
X131821999Y-84577999D02*
X131572000Y-84328000D01*
X136050527Y-84620099D02*
X135674099Y-84996527D01*
X137579099Y-84620099D02*
X136050527Y-84620099D01*
X133733859Y-84996527D02*
X133315331Y-84577999D01*
X138938000Y-85979000D02*
X137579099Y-84620099D01*
X128998609Y-85926207D02*
X128748610Y-85676208D01*
X134087730Y-86852635D02*
X129925037Y-86852635D01*
X134326365Y-86614000D02*
X134087730Y-86852635D01*
X139700000Y-86106000D02*
X139192000Y-86614000D01*
X151130000Y-82550000D02*
X150418809Y-83261191D01*
X150418809Y-83261191D02*
X143383743Y-83261191D01*
X143078934Y-83566000D02*
X141168626Y-83566000D01*
X129925037Y-86852635D02*
X128998609Y-85926207D01*
X139192000Y-86614000D02*
X134326365Y-86614000D01*
X141168626Y-83566000D02*
X139700000Y-85034626D01*
X143383743Y-83261191D02*
X143078934Y-83566000D01*
X139700000Y-85034626D02*
X139700000Y-86106000D01*
X140208000Y-86868000D02*
X140462000Y-86614000D01*
X140462000Y-86304626D02*
X141422626Y-85344000D01*
X140462000Y-86614000D02*
X140462000Y-86304626D01*
X141422626Y-85344000D02*
X141732000Y-85344000D01*
X141732000Y-85344000D02*
X143510000Y-83566000D01*
X143510000Y-83566000D02*
X150876000Y-83566000D01*
X150876000Y-83566000D02*
X151638000Y-82804000D01*
X151638000Y-82804000D02*
X151638000Y-81534000D01*
X150368000Y-82550000D02*
X150368000Y-81534000D01*
X150622000Y-81280000D02*
X151384000Y-81280000D01*
X150368000Y-81534000D02*
X150622000Y-81280000D01*
X151638000Y-81534000D02*
X151384000Y-81280000D01*
X116078000Y-82913600D02*
X118930791Y-80060809D01*
X118930791Y-80060809D02*
X119506257Y-80060809D01*
X120277946Y-79289120D02*
X125112251Y-79289120D01*
X119506257Y-80060809D02*
X120277946Y-79289120D01*
X116078000Y-83566000D02*
X116078000Y-82913600D01*
X125112251Y-79289120D02*
X125362250Y-79539119D01*
X128415003Y-81534000D02*
X128529315Y-81648312D01*
X126746000Y-81534000D02*
X128415003Y-81534000D01*
X128529315Y-81648312D02*
X136299188Y-81648312D01*
X137374673Y-82723797D02*
X139111797Y-82723797D01*
X139450001Y-83062001D02*
X139700000Y-83312000D01*
X139111797Y-82723797D02*
X139450001Y-83062001D01*
X125202162Y-79990162D02*
X126746000Y-81534000D01*
X124296583Y-79990162D02*
X125202162Y-79990162D01*
X136299188Y-81648312D02*
X137374673Y-82723797D01*
X124378975Y-80518000D02*
X124477859Y-80616884D01*
X122913000Y-80518000D02*
X124378975Y-80518000D01*
D19*
G36*
X119694428Y-74764900D02*
G01*
X119706688Y-74889382D01*
X119742998Y-75009080D01*
X119801963Y-75119394D01*
X119881315Y-75216085D01*
X119978006Y-75295437D01*
X120088320Y-75354402D01*
X120208018Y-75390712D01*
X120332500Y-75402972D01*
X122872500Y-75402972D01*
X122996982Y-75390712D01*
X123116680Y-75354402D01*
X123226994Y-75295437D01*
X123323685Y-75216085D01*
X123403037Y-75119394D01*
X123462002Y-75009080D01*
X123498312Y-74889382D01*
X123510572Y-74764900D01*
X123510572Y-73178475D01*
X123873541Y-75003240D01*
X124591555Y-76736679D01*
X125596404Y-78240542D01*
X125509590Y-78231991D01*
X125509580Y-78231991D01*
X125474654Y-78228551D01*
X125439728Y-78231991D01*
X120403838Y-78231991D01*
X120451727Y-78142396D01*
X120516628Y-77928448D01*
X120516803Y-77926675D01*
X120518576Y-77926500D01*
X120732524Y-77861599D01*
X120929700Y-77756207D01*
X121102526Y-77614372D01*
X121244361Y-77441546D01*
X121349753Y-77244370D01*
X121414654Y-77030422D01*
X121436568Y-76807923D01*
X121414654Y-76585424D01*
X121349753Y-76371476D01*
X121244361Y-76174300D01*
X121102526Y-76001474D01*
X120929700Y-75859639D01*
X120732524Y-75754247D01*
X120518576Y-75689346D01*
X120351829Y-75672923D01*
X120240325Y-75672923D01*
X120073578Y-75689346D01*
X119859630Y-75754247D01*
X119662454Y-75859639D01*
X119489628Y-76001474D01*
X119347793Y-76174300D01*
X119242401Y-76371476D01*
X119177500Y-76585424D01*
X119177325Y-76587197D01*
X119175552Y-76587372D01*
X118961604Y-76652273D01*
X118764428Y-76757665D01*
X118591602Y-76899500D01*
X118449767Y-77072326D01*
X118344375Y-77269502D01*
X118279474Y-77483450D01*
X118278237Y-77496014D01*
X118198150Y-77509847D01*
X117990498Y-77589764D01*
X117939824Y-77616858D01*
X117905382Y-77829725D01*
X118500026Y-78424369D01*
X118510644Y-78413751D01*
X118591602Y-78512398D01*
X118690249Y-78593356D01*
X118679631Y-78603974D01*
X118693774Y-78618117D01*
X118521090Y-78790800D01*
X118507247Y-78790800D01*
X118500026Y-78783579D01*
X118496541Y-78787064D01*
X118316936Y-78607459D01*
X118320421Y-78603974D01*
X117725777Y-78009330D01*
X117512910Y-78043772D01*
X117485816Y-78094446D01*
X117454392Y-78176096D01*
X117357820Y-78205391D01*
X117247506Y-78264356D01*
X117150815Y-78343708D01*
X116443708Y-79050815D01*
X116364356Y-79147506D01*
X116305391Y-79257820D01*
X116269081Y-79377518D01*
X116256821Y-79502000D01*
X116269081Y-79626482D01*
X116305391Y-79746180D01*
X116364356Y-79856494D01*
X116443708Y-79953185D01*
X117150815Y-80660292D01*
X117246771Y-80739041D01*
X115599810Y-82386003D01*
X115572674Y-82408273D01*
X115554657Y-82430227D01*
X115453518Y-82440188D01*
X115333820Y-82476498D01*
X115223506Y-82535463D01*
X115126815Y-82614815D01*
X115047463Y-82711506D01*
X114988498Y-82821820D01*
X114952188Y-82941518D01*
X114939928Y-83066000D01*
X114939928Y-84066000D01*
X114952188Y-84190482D01*
X114988498Y-84310180D01*
X115036070Y-84399180D01*
X115000554Y-84479136D01*
X114983881Y-84534126D01*
X115110046Y-84709000D01*
X115951000Y-84709000D01*
X115951000Y-84704072D01*
X116205000Y-84704072D01*
X116205000Y-84709000D01*
X117045954Y-84709000D01*
X117172119Y-84534126D01*
X117155446Y-84479136D01*
X117119930Y-84399180D01*
X117167502Y-84310180D01*
X117203812Y-84190482D01*
X117216072Y-84066000D01*
X117216072Y-83066000D01*
X117203812Y-82941518D01*
X117169379Y-82828008D01*
X118444198Y-81553190D01*
X118444198Y-81728804D01*
X118440758Y-81763730D01*
X118444198Y-81798656D01*
X118444198Y-81798665D01*
X118454489Y-81903149D01*
X118495156Y-82037210D01*
X118561196Y-82160762D01*
X118650071Y-82269056D01*
X118677209Y-82291328D01*
X118876668Y-82490787D01*
X118898943Y-82517929D01*
X119007237Y-82606804D01*
X119130789Y-82672844D01*
X119264850Y-82713511D01*
X119369334Y-82723802D01*
X119369343Y-82723802D01*
X119404269Y-82727242D01*
X119439195Y-82723802D01*
X122507042Y-82723802D01*
X122541968Y-82727242D01*
X122576894Y-82723802D01*
X122576904Y-82723802D01*
X122681388Y-82713511D01*
X122730251Y-82698688D01*
X124075757Y-84044196D01*
X124098023Y-84071327D01*
X124125154Y-84093593D01*
X124125158Y-84093597D01*
X124191114Y-84147726D01*
X124206317Y-84160202D01*
X124329869Y-84226242D01*
X124463930Y-84266909D01*
X124568414Y-84277200D01*
X124568431Y-84277200D01*
X124603349Y-84280639D01*
X124638267Y-84277200D01*
X130687000Y-84277200D01*
X130687000Y-84415165D01*
X130721010Y-84586145D01*
X130787723Y-84747205D01*
X130884576Y-84892155D01*
X131007845Y-85015424D01*
X131152795Y-85112277D01*
X131313855Y-85178990D01*
X131484835Y-85213000D01*
X131501295Y-85213000D01*
X131548518Y-85238241D01*
X131682579Y-85278908D01*
X131787063Y-85289199D01*
X131787070Y-85289199D01*
X131821999Y-85292639D01*
X131856927Y-85289199D01*
X133020744Y-85289199D01*
X133206257Y-85474712D01*
X133228532Y-85501854D01*
X133336826Y-85590729D01*
X133460378Y-85656769D01*
X133594439Y-85697436D01*
X133698923Y-85707727D01*
X133698930Y-85707727D01*
X133733859Y-85711167D01*
X133768787Y-85707727D01*
X135325233Y-85707727D01*
X135396341Y-85879398D01*
X135411978Y-85902800D01*
X134361293Y-85902800D01*
X134326365Y-85899360D01*
X134291436Y-85902800D01*
X134291429Y-85902800D01*
X134186945Y-85913091D01*
X134052884Y-85953758D01*
X133929332Y-86019798D01*
X133821038Y-86108673D01*
X133798763Y-86135815D01*
X133793143Y-86141435D01*
X130219625Y-86141435D01*
X129625262Y-85547072D01*
X129599600Y-85418063D01*
X129532887Y-85257003D01*
X129436034Y-85112053D01*
X129312765Y-84988784D01*
X129167815Y-84891931D01*
X129006755Y-84825218D01*
X128835775Y-84791208D01*
X128661445Y-84791208D01*
X128490465Y-84825218D01*
X128329405Y-84891931D01*
X128184455Y-84988784D01*
X128061186Y-85112053D01*
X127964333Y-85257003D01*
X127897620Y-85418063D01*
X127863610Y-85589043D01*
X127863610Y-85763373D01*
X127897620Y-85934353D01*
X127964333Y-86095413D01*
X128061186Y-86240363D01*
X128184455Y-86363632D01*
X128329405Y-86460485D01*
X128490465Y-86527198D01*
X128619474Y-86552860D01*
X129048914Y-86982300D01*
X127064192Y-86982300D01*
X127031825Y-86985488D01*
X127018833Y-86985488D01*
X127009839Y-86986434D01*
X126815890Y-87008189D01*
X126758452Y-87020397D01*
X126700880Y-87031797D01*
X126692247Y-87034469D01*
X126692243Y-87034470D01*
X126692240Y-87034471D01*
X126692241Y-87034471D01*
X126506211Y-87093484D01*
X126452220Y-87116624D01*
X126397981Y-87138980D01*
X126390029Y-87143280D01*
X126390023Y-87143282D01*
X126390018Y-87143285D01*
X126346909Y-87166985D01*
X126264205Y-87111723D01*
X126103145Y-87045010D01*
X125932165Y-87011000D01*
X125757835Y-87011000D01*
X125586855Y-87045010D01*
X125470000Y-87093413D01*
X125353145Y-87045010D01*
X125182165Y-87011000D01*
X125007835Y-87011000D01*
X124836855Y-87045010D01*
X124720000Y-87093413D01*
X124603145Y-87045010D01*
X124432165Y-87011000D01*
X124257835Y-87011000D01*
X124086855Y-87045010D01*
X123925795Y-87111723D01*
X123843490Y-87166718D01*
X123781146Y-87133569D01*
X123726872Y-87111198D01*
X123672915Y-87088072D01*
X123664282Y-87085400D01*
X123664275Y-87085397D01*
X123664268Y-87085396D01*
X123477440Y-87028989D01*
X123419840Y-87017584D01*
X123362432Y-87005381D01*
X123353439Y-87004436D01*
X123159205Y-86985391D01*
X123159191Y-86985391D01*
X123127809Y-86982300D01*
X110842803Y-86982300D01*
X111106292Y-85137874D01*
X114983881Y-85137874D01*
X115000554Y-85192864D01*
X115090877Y-85396206D01*
X115219135Y-85578020D01*
X115380399Y-85731318D01*
X115568471Y-85850210D01*
X115776124Y-85930126D01*
X115951000Y-85805129D01*
X115951000Y-84963000D01*
X116205000Y-84963000D01*
X116205000Y-85805129D01*
X116379876Y-85930126D01*
X116587529Y-85850210D01*
X116775601Y-85731318D01*
X116936865Y-85578020D01*
X117065123Y-85396206D01*
X117155446Y-85192864D01*
X117172119Y-85137874D01*
X117045954Y-84963000D01*
X116205000Y-84963000D01*
X115951000Y-84963000D01*
X115110046Y-84963000D01*
X114983881Y-85137874D01*
X111106292Y-85137874D01*
X111694221Y-81022380D01*
X117918425Y-77192101D01*
X117957016Y-77171525D01*
X117997249Y-77138578D01*
X118038681Y-77107092D01*
X118046547Y-77098207D01*
X118055727Y-77090689D01*
X118088770Y-77050512D01*
X118123251Y-77011562D01*
X118129232Y-77001313D01*
X118136769Y-76992149D01*
X118161335Y-76946304D01*
X118187559Y-76901369D01*
X118191427Y-76890148D01*
X118197030Y-76879691D01*
X118212177Y-76829944D01*
X118229134Y-76780747D01*
X118235049Y-76737387D01*
X119626987Y-69777700D01*
X119694428Y-69777700D01*
X119694428Y-74764900D01*
X119694428Y-74764900D01*
G37*
X119694428Y-74764900D02*
X119706688Y-74889382D01*
X119742998Y-75009080D01*
X119801963Y-75119394D01*
X119881315Y-75216085D01*
X119978006Y-75295437D01*
X120088320Y-75354402D01*
X120208018Y-75390712D01*
X120332500Y-75402972D01*
X122872500Y-75402972D01*
X122996982Y-75390712D01*
X123116680Y-75354402D01*
X123226994Y-75295437D01*
X123323685Y-75216085D01*
X123403037Y-75119394D01*
X123462002Y-75009080D01*
X123498312Y-74889382D01*
X123510572Y-74764900D01*
X123510572Y-73178475D01*
X123873541Y-75003240D01*
X124591555Y-76736679D01*
X125596404Y-78240542D01*
X125509590Y-78231991D01*
X125509580Y-78231991D01*
X125474654Y-78228551D01*
X125439728Y-78231991D01*
X120403838Y-78231991D01*
X120451727Y-78142396D01*
X120516628Y-77928448D01*
X120516803Y-77926675D01*
X120518576Y-77926500D01*
X120732524Y-77861599D01*
X120929700Y-77756207D01*
X121102526Y-77614372D01*
X121244361Y-77441546D01*
X121349753Y-77244370D01*
X121414654Y-77030422D01*
X121436568Y-76807923D01*
X121414654Y-76585424D01*
X121349753Y-76371476D01*
X121244361Y-76174300D01*
X121102526Y-76001474D01*
X120929700Y-75859639D01*
X120732524Y-75754247D01*
X120518576Y-75689346D01*
X120351829Y-75672923D01*
X120240325Y-75672923D01*
X120073578Y-75689346D01*
X119859630Y-75754247D01*
X119662454Y-75859639D01*
X119489628Y-76001474D01*
X119347793Y-76174300D01*
X119242401Y-76371476D01*
X119177500Y-76585424D01*
X119177325Y-76587197D01*
X119175552Y-76587372D01*
X118961604Y-76652273D01*
X118764428Y-76757665D01*
X118591602Y-76899500D01*
X118449767Y-77072326D01*
X118344375Y-77269502D01*
X118279474Y-77483450D01*
X118278237Y-77496014D01*
X118198150Y-77509847D01*
X117990498Y-77589764D01*
X117939824Y-77616858D01*
X117905382Y-77829725D01*
X118500026Y-78424369D01*
X118510644Y-78413751D01*
X118591602Y-78512398D01*
X118690249Y-78593356D01*
X118679631Y-78603974D01*
X118693774Y-78618117D01*
X118521090Y-78790800D01*
X118507247Y-78790800D01*
X118500026Y-78783579D01*
X118496541Y-78787064D01*
X118316936Y-78607459D01*
X118320421Y-78603974D01*
X117725777Y-78009330D01*
X117512910Y-78043772D01*
X117485816Y-78094446D01*
X117454392Y-78176096D01*
X117357820Y-78205391D01*
X117247506Y-78264356D01*
X117150815Y-78343708D01*
X116443708Y-79050815D01*
X116364356Y-79147506D01*
X116305391Y-79257820D01*
X116269081Y-79377518D01*
X116256821Y-79502000D01*
X116269081Y-79626482D01*
X116305391Y-79746180D01*
X116364356Y-79856494D01*
X116443708Y-79953185D01*
X117150815Y-80660292D01*
X117246771Y-80739041D01*
X115599810Y-82386003D01*
X115572674Y-82408273D01*
X115554657Y-82430227D01*
X115453518Y-82440188D01*
X115333820Y-82476498D01*
X115223506Y-82535463D01*
X115126815Y-82614815D01*
X115047463Y-82711506D01*
X114988498Y-82821820D01*
X114952188Y-82941518D01*
X114939928Y-83066000D01*
X114939928Y-84066000D01*
X114952188Y-84190482D01*
X114988498Y-84310180D01*
X115036070Y-84399180D01*
X115000554Y-84479136D01*
X114983881Y-84534126D01*
X115110046Y-84709000D01*
X115951000Y-84709000D01*
X115951000Y-84704072D01*
X116205000Y-84704072D01*
X116205000Y-84709000D01*
X117045954Y-84709000D01*
X117172119Y-84534126D01*
X117155446Y-84479136D01*
X117119930Y-84399180D01*
X117167502Y-84310180D01*
X117203812Y-84190482D01*
X117216072Y-84066000D01*
X117216072Y-83066000D01*
X117203812Y-82941518D01*
X117169379Y-82828008D01*
X118444198Y-81553190D01*
X118444198Y-81728804D01*
X118440758Y-81763730D01*
X118444198Y-81798656D01*
X118444198Y-81798665D01*
X118454489Y-81903149D01*
X118495156Y-82037210D01*
X118561196Y-82160762D01*
X118650071Y-82269056D01*
X118677209Y-82291328D01*
X118876668Y-82490787D01*
X118898943Y-82517929D01*
X119007237Y-82606804D01*
X119130789Y-82672844D01*
X119264850Y-82713511D01*
X119369334Y-82723802D01*
X119369343Y-82723802D01*
X119404269Y-82727242D01*
X119439195Y-82723802D01*
X122507042Y-82723802D01*
X122541968Y-82727242D01*
X122576894Y-82723802D01*
X122576904Y-82723802D01*
X122681388Y-82713511D01*
X122730251Y-82698688D01*
X124075757Y-84044196D01*
X124098023Y-84071327D01*
X124125154Y-84093593D01*
X124125158Y-84093597D01*
X124191114Y-84147726D01*
X124206317Y-84160202D01*
X124329869Y-84226242D01*
X124463930Y-84266909D01*
X124568414Y-84277200D01*
X124568431Y-84277200D01*
X124603349Y-84280639D01*
X124638267Y-84277200D01*
X130687000Y-84277200D01*
X130687000Y-84415165D01*
X130721010Y-84586145D01*
X130787723Y-84747205D01*
X130884576Y-84892155D01*
X131007845Y-85015424D01*
X131152795Y-85112277D01*
X131313855Y-85178990D01*
X131484835Y-85213000D01*
X131501295Y-85213000D01*
X131548518Y-85238241D01*
X131682579Y-85278908D01*
X131787063Y-85289199D01*
X131787070Y-85289199D01*
X131821999Y-85292639D01*
X131856927Y-85289199D01*
X133020744Y-85289199D01*
X133206257Y-85474712D01*
X133228532Y-85501854D01*
X133336826Y-85590729D01*
X133460378Y-85656769D01*
X133594439Y-85697436D01*
X133698923Y-85707727D01*
X133698930Y-85707727D01*
X133733859Y-85711167D01*
X133768787Y-85707727D01*
X135325233Y-85707727D01*
X135396341Y-85879398D01*
X135411978Y-85902800D01*
X134361293Y-85902800D01*
X134326365Y-85899360D01*
X134291436Y-85902800D01*
X134291429Y-85902800D01*
X134186945Y-85913091D01*
X134052884Y-85953758D01*
X133929332Y-86019798D01*
X133821038Y-86108673D01*
X133798763Y-86135815D01*
X133793143Y-86141435D01*
X130219625Y-86141435D01*
X129625262Y-85547072D01*
X129599600Y-85418063D01*
X129532887Y-85257003D01*
X129436034Y-85112053D01*
X129312765Y-84988784D01*
X129167815Y-84891931D01*
X129006755Y-84825218D01*
X128835775Y-84791208D01*
X128661445Y-84791208D01*
X128490465Y-84825218D01*
X128329405Y-84891931D01*
X128184455Y-84988784D01*
X128061186Y-85112053D01*
X127964333Y-85257003D01*
X127897620Y-85418063D01*
X127863610Y-85589043D01*
X127863610Y-85763373D01*
X127897620Y-85934353D01*
X127964333Y-86095413D01*
X128061186Y-86240363D01*
X128184455Y-86363632D01*
X128329405Y-86460485D01*
X128490465Y-86527198D01*
X128619474Y-86552860D01*
X129048914Y-86982300D01*
X127064192Y-86982300D01*
X127031825Y-86985488D01*
X127018833Y-86985488D01*
X127009839Y-86986434D01*
X126815890Y-87008189D01*
X126758452Y-87020397D01*
X126700880Y-87031797D01*
X126692247Y-87034469D01*
X126692243Y-87034470D01*
X126692240Y-87034471D01*
X126692241Y-87034471D01*
X126506211Y-87093484D01*
X126452220Y-87116624D01*
X126397981Y-87138980D01*
X126390029Y-87143280D01*
X126390023Y-87143282D01*
X126390018Y-87143285D01*
X126346909Y-87166985D01*
X126264205Y-87111723D01*
X126103145Y-87045010D01*
X125932165Y-87011000D01*
X125757835Y-87011000D01*
X125586855Y-87045010D01*
X125470000Y-87093413D01*
X125353145Y-87045010D01*
X125182165Y-87011000D01*
X125007835Y-87011000D01*
X124836855Y-87045010D01*
X124720000Y-87093413D01*
X124603145Y-87045010D01*
X124432165Y-87011000D01*
X124257835Y-87011000D01*
X124086855Y-87045010D01*
X123925795Y-87111723D01*
X123843490Y-87166718D01*
X123781146Y-87133569D01*
X123726872Y-87111198D01*
X123672915Y-87088072D01*
X123664282Y-87085400D01*
X123664275Y-87085397D01*
X123664268Y-87085396D01*
X123477440Y-87028989D01*
X123419840Y-87017584D01*
X123362432Y-87005381D01*
X123353439Y-87004436D01*
X123159205Y-86985391D01*
X123159191Y-86985391D01*
X123127809Y-86982300D01*
X110842803Y-86982300D01*
X111106292Y-85137874D01*
X114983881Y-85137874D01*
X115000554Y-85192864D01*
X115090877Y-85396206D01*
X115219135Y-85578020D01*
X115380399Y-85731318D01*
X115568471Y-85850210D01*
X115776124Y-85930126D01*
X115951000Y-85805129D01*
X115951000Y-84963000D01*
X116205000Y-84963000D01*
X116205000Y-85805129D01*
X116379876Y-85930126D01*
X116587529Y-85850210D01*
X116775601Y-85731318D01*
X116936865Y-85578020D01*
X117065123Y-85396206D01*
X117155446Y-85192864D01*
X117172119Y-85137874D01*
X117045954Y-84963000D01*
X116205000Y-84963000D01*
X115951000Y-84963000D01*
X115110046Y-84963000D01*
X114983881Y-85137874D01*
X111106292Y-85137874D01*
X111694221Y-81022380D01*
X117918425Y-77192101D01*
X117957016Y-77171525D01*
X117997249Y-77138578D01*
X118038681Y-77107092D01*
X118046547Y-77098207D01*
X118055727Y-77090689D01*
X118088770Y-77050512D01*
X118123251Y-77011562D01*
X118129232Y-77001313D01*
X118136769Y-76992149D01*
X118161335Y-76946304D01*
X118187559Y-76901369D01*
X118191427Y-76890148D01*
X118197030Y-76879691D01*
X118212177Y-76829944D01*
X118229134Y-76780747D01*
X118235049Y-76737387D01*
X119626987Y-69777700D01*
X119694428Y-69777700D01*
X119694428Y-74764900D01*
G36*
X147956957Y-76737421D02*
G01*
X147962867Y-76780746D01*
X147979807Y-76829896D01*
X147994969Y-76879691D01*
X148000576Y-76890155D01*
X148004441Y-76901368D01*
X148030650Y-76946277D01*
X148055230Y-76992148D01*
X148062770Y-77001316D01*
X148068749Y-77011561D01*
X148103216Y-77050495D01*
X148136272Y-77090688D01*
X148145456Y-77098209D01*
X148153319Y-77107091D01*
X148194736Y-77138566D01*
X148234983Y-77171525D01*
X148273581Y-77192105D01*
X154497779Y-81022381D01*
X155349196Y-86982300D01*
X144399002Y-86982300D01*
X144399002Y-86821130D01*
X144573876Y-86946126D01*
X144781529Y-86866210D01*
X144969601Y-86747318D01*
X145130865Y-86594020D01*
X145259123Y-86412206D01*
X145349446Y-86208864D01*
X145366119Y-86153874D01*
X145239954Y-85979000D01*
X144399000Y-85979000D01*
X144399000Y-85999000D01*
X144145000Y-85999000D01*
X144145000Y-85979000D01*
X143304046Y-85979000D01*
X143177881Y-86153874D01*
X143194554Y-86208864D01*
X143284877Y-86412206D01*
X143413135Y-86594020D01*
X143574399Y-86747318D01*
X143762471Y-86866210D01*
X143970124Y-86946126D01*
X144144998Y-86821130D01*
X144144998Y-86982300D01*
X143064191Y-86982300D01*
X143031824Y-86985488D01*
X143018833Y-86985488D01*
X143009839Y-86986434D01*
X142815890Y-87008189D01*
X142758452Y-87020397D01*
X142700880Y-87031797D01*
X142692247Y-87034469D01*
X142692243Y-87034470D01*
X142692240Y-87034471D01*
X142692241Y-87034471D01*
X142506211Y-87093484D01*
X142452220Y-87116624D01*
X142397981Y-87138980D01*
X142390029Y-87143280D01*
X142390023Y-87143282D01*
X142390018Y-87143285D01*
X142354590Y-87162762D01*
X142306114Y-87130371D01*
X142355961Y-87080524D01*
X142479659Y-86895398D01*
X142564863Y-86689696D01*
X142608300Y-86471325D01*
X142608300Y-86248675D01*
X142564863Y-86030304D01*
X142479659Y-85824602D01*
X142390548Y-85691239D01*
X143133928Y-84947860D01*
X143133928Y-85082000D01*
X143146188Y-85206482D01*
X143182498Y-85326180D01*
X143230070Y-85415180D01*
X143194554Y-85495136D01*
X143177881Y-85550126D01*
X143304046Y-85725000D01*
X144145000Y-85725000D01*
X144145000Y-85720072D01*
X144399000Y-85720072D01*
X144399000Y-85725000D01*
X145239954Y-85725000D01*
X145366119Y-85550126D01*
X145349446Y-85495136D01*
X145313930Y-85415180D01*
X145361502Y-85326180D01*
X145397812Y-85206482D01*
X145410072Y-85082000D01*
X145410072Y-84277200D01*
X150841074Y-84277200D01*
X150876000Y-84280640D01*
X150910926Y-84277200D01*
X150910936Y-84277200D01*
X151015420Y-84266909D01*
X151149481Y-84226242D01*
X151273033Y-84160202D01*
X151381327Y-84071327D01*
X151403601Y-84044186D01*
X152116200Y-83331589D01*
X152143326Y-83309327D01*
X152165588Y-83282201D01*
X152165598Y-83282191D01*
X152232202Y-83201033D01*
X152298242Y-83077482D01*
X152338909Y-82943420D01*
X152340961Y-82922582D01*
X152349200Y-82838936D01*
X152349200Y-82838929D01*
X152352640Y-82804000D01*
X152349200Y-82769072D01*
X152349200Y-81568925D01*
X152352640Y-81533999D01*
X152349200Y-81499073D01*
X152349200Y-81499064D01*
X152338909Y-81394580D01*
X152298242Y-81260519D01*
X152232202Y-81136967D01*
X152143327Y-81028673D01*
X152116190Y-81006402D01*
X151911601Y-80801814D01*
X151889327Y-80774673D01*
X151781033Y-80685798D01*
X151657481Y-80619758D01*
X151523420Y-80579091D01*
X151418936Y-80568800D01*
X151418926Y-80568800D01*
X151384000Y-80565360D01*
X151349074Y-80568800D01*
X150656925Y-80568800D01*
X150621999Y-80565360D01*
X150587073Y-80568800D01*
X150587064Y-80568800D01*
X150482580Y-80579091D01*
X150348519Y-80619758D01*
X150224967Y-80685798D01*
X150116673Y-80774673D01*
X150094402Y-80801810D01*
X149889810Y-81006403D01*
X149862674Y-81028673D01*
X149840404Y-81055809D01*
X149840403Y-81055810D01*
X149773798Y-81136968D01*
X149726103Y-81226200D01*
X149707759Y-81260519D01*
X149667092Y-81394580D01*
X149664746Y-81418400D01*
X149653360Y-81534000D01*
X149656801Y-81568935D01*
X149656801Y-81595012D01*
X148484030Y-80422243D01*
X148533775Y-80381418D01*
X148675610Y-80208592D01*
X148781002Y-80011416D01*
X148845903Y-79797468D01*
X148867817Y-79574969D01*
X148845903Y-79352470D01*
X148781002Y-79138522D01*
X148675610Y-78941346D01*
X148533775Y-78768520D01*
X148360949Y-78626685D01*
X148163773Y-78521293D01*
X148137268Y-78513253D01*
X148117461Y-78312147D01*
X148052560Y-78098199D01*
X147947168Y-77901023D01*
X147805333Y-77728197D01*
X147632507Y-77586362D01*
X147435331Y-77480970D01*
X147400076Y-77470275D01*
X147400367Y-77387026D01*
X147357723Y-77168651D01*
X147339840Y-77114043D01*
X147136188Y-77043160D01*
X146447319Y-77525511D01*
X146455976Y-77537874D01*
X146365261Y-77586362D01*
X146247513Y-77682995D01*
X146239254Y-77671200D01*
X145550385Y-78153551D01*
X145547340Y-78369165D01*
X145592539Y-78404647D01*
X145783159Y-78519407D01*
X145859603Y-78546928D01*
X145880307Y-78757145D01*
X145945208Y-78971093D01*
X146050600Y-79168269D01*
X146157724Y-79298800D01*
X144395932Y-79298800D01*
X144539584Y-79202814D01*
X144662853Y-79079545D01*
X144759706Y-78934595D01*
X144826419Y-78773535D01*
X144860429Y-78602555D01*
X144860429Y-78428225D01*
X144826419Y-78257245D01*
X144759706Y-78096185D01*
X144662853Y-77951235D01*
X144539584Y-77827966D01*
X144394634Y-77731113D01*
X144233574Y-77664400D01*
X144062594Y-77630390D01*
X143888264Y-77630390D01*
X143717284Y-77664400D01*
X143556224Y-77731113D01*
X143446857Y-77804190D01*
X143320018Y-77804190D01*
X143308875Y-77787513D01*
X143185606Y-77664244D01*
X143040656Y-77567391D01*
X142879596Y-77500678D01*
X142853638Y-77495515D01*
X142862490Y-77474145D01*
X142896500Y-77303165D01*
X142896500Y-77128835D01*
X142862490Y-76957855D01*
X142795777Y-76796795D01*
X142698924Y-76651845D01*
X142575655Y-76528576D01*
X142430705Y-76431723D01*
X142269645Y-76365010D01*
X142098665Y-76331000D01*
X141924335Y-76331000D01*
X141753355Y-76365010D01*
X141601308Y-76427990D01*
X142191459Y-75003240D01*
X142554428Y-73178475D01*
X142554428Y-74764900D01*
X142566688Y-74889382D01*
X142602998Y-75009080D01*
X142661963Y-75119394D01*
X142741315Y-75216085D01*
X142838006Y-75295437D01*
X142948320Y-75354402D01*
X143068018Y-75390712D01*
X143192500Y-75402972D01*
X145058856Y-75402972D01*
X144479653Y-75808534D01*
X144384716Y-75889977D01*
X144307492Y-75988376D01*
X144250948Y-76099950D01*
X144217258Y-76220412D01*
X144207716Y-76345131D01*
X144222689Y-76469316D01*
X144261601Y-76588193D01*
X144322958Y-76697195D01*
X144896534Y-77516347D01*
X144977977Y-77611284D01*
X145076376Y-77688508D01*
X145166393Y-77734127D01*
X145183161Y-77819995D01*
X145201044Y-77874603D01*
X145404696Y-77945486D01*
X146093565Y-77463135D01*
X146090738Y-77459098D01*
X146298804Y-77313410D01*
X146301630Y-77317446D01*
X146990499Y-76835095D01*
X146993544Y-76619481D01*
X146948345Y-76583999D01*
X146873391Y-76538874D01*
X146861311Y-76438684D01*
X146822399Y-76319807D01*
X146761042Y-76210805D01*
X146187466Y-75391653D01*
X146106023Y-75296716D01*
X146095499Y-75288457D01*
X146183685Y-75216085D01*
X146263037Y-75119394D01*
X146322002Y-75009080D01*
X146358312Y-74889382D01*
X146370572Y-74764900D01*
X146370572Y-69777700D01*
X146565013Y-69777700D01*
X147956957Y-76737421D01*
X147956957Y-76737421D01*
G37*
X147956957Y-76737421D02*
X147962867Y-76780746D01*
X147979807Y-76829896D01*
X147994969Y-76879691D01*
X148000576Y-76890155D01*
X148004441Y-76901368D01*
X148030650Y-76946277D01*
X148055230Y-76992148D01*
X148062770Y-77001316D01*
X148068749Y-77011561D01*
X148103216Y-77050495D01*
X148136272Y-77090688D01*
X148145456Y-77098209D01*
X148153319Y-77107091D01*
X148194736Y-77138566D01*
X148234983Y-77171525D01*
X148273581Y-77192105D01*
X154497779Y-81022381D01*
X155349196Y-86982300D01*
X144399002Y-86982300D01*
X144399002Y-86821130D01*
X144573876Y-86946126D01*
X144781529Y-86866210D01*
X144969601Y-86747318D01*
X145130865Y-86594020D01*
X145259123Y-86412206D01*
X145349446Y-86208864D01*
X145366119Y-86153874D01*
X145239954Y-85979000D01*
X144399000Y-85979000D01*
X144399000Y-85999000D01*
X144145000Y-85999000D01*
X144145000Y-85979000D01*
X143304046Y-85979000D01*
X143177881Y-86153874D01*
X143194554Y-86208864D01*
X143284877Y-86412206D01*
X143413135Y-86594020D01*
X143574399Y-86747318D01*
X143762471Y-86866210D01*
X143970124Y-86946126D01*
X144144998Y-86821130D01*
X144144998Y-86982300D01*
X143064191Y-86982300D01*
X143031824Y-86985488D01*
X143018833Y-86985488D01*
X143009839Y-86986434D01*
X142815890Y-87008189D01*
X142758452Y-87020397D01*
X142700880Y-87031797D01*
X142692247Y-87034469D01*
X142692243Y-87034470D01*
X142692240Y-87034471D01*
X142692241Y-87034471D01*
X142506211Y-87093484D01*
X142452220Y-87116624D01*
X142397981Y-87138980D01*
X142390029Y-87143280D01*
X142390023Y-87143282D01*
X142390018Y-87143285D01*
X142354590Y-87162762D01*
X142306114Y-87130371D01*
X142355961Y-87080524D01*
X142479659Y-86895398D01*
X142564863Y-86689696D01*
X142608300Y-86471325D01*
X142608300Y-86248675D01*
X142564863Y-86030304D01*
X142479659Y-85824602D01*
X142390548Y-85691239D01*
X143133928Y-84947860D01*
X143133928Y-85082000D01*
X143146188Y-85206482D01*
X143182498Y-85326180D01*
X143230070Y-85415180D01*
X143194554Y-85495136D01*
X143177881Y-85550126D01*
X143304046Y-85725000D01*
X144145000Y-85725000D01*
X144145000Y-85720072D01*
X144399000Y-85720072D01*
X144399000Y-85725000D01*
X145239954Y-85725000D01*
X145366119Y-85550126D01*
X145349446Y-85495136D01*
X145313930Y-85415180D01*
X145361502Y-85326180D01*
X145397812Y-85206482D01*
X145410072Y-85082000D01*
X145410072Y-84277200D01*
X150841074Y-84277200D01*
X150876000Y-84280640D01*
X150910926Y-84277200D01*
X150910936Y-84277200D01*
X151015420Y-84266909D01*
X151149481Y-84226242D01*
X151273033Y-84160202D01*
X151381327Y-84071327D01*
X151403601Y-84044186D01*
X152116200Y-83331589D01*
X152143326Y-83309327D01*
X152165588Y-83282201D01*
X152165598Y-83282191D01*
X152232202Y-83201033D01*
X152298242Y-83077482D01*
X152338909Y-82943420D01*
X152340961Y-82922582D01*
X152349200Y-82838936D01*
X152349200Y-82838929D01*
X152352640Y-82804000D01*
X152349200Y-82769072D01*
X152349200Y-81568925D01*
X152352640Y-81533999D01*
X152349200Y-81499073D01*
X152349200Y-81499064D01*
X152338909Y-81394580D01*
X152298242Y-81260519D01*
X152232202Y-81136967D01*
X152143327Y-81028673D01*
X152116190Y-81006402D01*
X151911601Y-80801814D01*
X151889327Y-80774673D01*
X151781033Y-80685798D01*
X151657481Y-80619758D01*
X151523420Y-80579091D01*
X151418936Y-80568800D01*
X151418926Y-80568800D01*
X151384000Y-80565360D01*
X151349074Y-80568800D01*
X150656925Y-80568800D01*
X150621999Y-80565360D01*
X150587073Y-80568800D01*
X150587064Y-80568800D01*
X150482580Y-80579091D01*
X150348519Y-80619758D01*
X150224967Y-80685798D01*
X150116673Y-80774673D01*
X150094402Y-80801810D01*
X149889810Y-81006403D01*
X149862674Y-81028673D01*
X149840404Y-81055809D01*
X149840403Y-81055810D01*
X149773798Y-81136968D01*
X149726103Y-81226200D01*
X149707759Y-81260519D01*
X149667092Y-81394580D01*
X149664746Y-81418400D01*
X149653360Y-81534000D01*
X149656801Y-81568935D01*
X149656801Y-81595012D01*
X148484030Y-80422243D01*
X148533775Y-80381418D01*
X148675610Y-80208592D01*
X148781002Y-80011416D01*
X148845903Y-79797468D01*
X148867817Y-79574969D01*
X148845903Y-79352470D01*
X148781002Y-79138522D01*
X148675610Y-78941346D01*
X148533775Y-78768520D01*
X148360949Y-78626685D01*
X148163773Y-78521293D01*
X148137268Y-78513253D01*
X148117461Y-78312147D01*
X148052560Y-78098199D01*
X147947168Y-77901023D01*
X147805333Y-77728197D01*
X147632507Y-77586362D01*
X147435331Y-77480970D01*
X147400076Y-77470275D01*
X147400367Y-77387026D01*
X147357723Y-77168651D01*
X147339840Y-77114043D01*
X147136188Y-77043160D01*
X146447319Y-77525511D01*
X146455976Y-77537874D01*
X146365261Y-77586362D01*
X146247513Y-77682995D01*
X146239254Y-77671200D01*
X145550385Y-78153551D01*
X145547340Y-78369165D01*
X145592539Y-78404647D01*
X145783159Y-78519407D01*
X145859603Y-78546928D01*
X145880307Y-78757145D01*
X145945208Y-78971093D01*
X146050600Y-79168269D01*
X146157724Y-79298800D01*
X144395932Y-79298800D01*
X144539584Y-79202814D01*
X144662853Y-79079545D01*
X144759706Y-78934595D01*
X144826419Y-78773535D01*
X144860429Y-78602555D01*
X144860429Y-78428225D01*
X144826419Y-78257245D01*
X144759706Y-78096185D01*
X144662853Y-77951235D01*
X144539584Y-77827966D01*
X144394634Y-77731113D01*
X144233574Y-77664400D01*
X144062594Y-77630390D01*
X143888264Y-77630390D01*
X143717284Y-77664400D01*
X143556224Y-77731113D01*
X143446857Y-77804190D01*
X143320018Y-77804190D01*
X143308875Y-77787513D01*
X143185606Y-77664244D01*
X143040656Y-77567391D01*
X142879596Y-77500678D01*
X142853638Y-77495515D01*
X142862490Y-77474145D01*
X142896500Y-77303165D01*
X142896500Y-77128835D01*
X142862490Y-76957855D01*
X142795777Y-76796795D01*
X142698924Y-76651845D01*
X142575655Y-76528576D01*
X142430705Y-76431723D01*
X142269645Y-76365010D01*
X142098665Y-76331000D01*
X141924335Y-76331000D01*
X141753355Y-76365010D01*
X141601308Y-76427990D01*
X142191459Y-75003240D01*
X142554428Y-73178475D01*
X142554428Y-74764900D01*
X142566688Y-74889382D01*
X142602998Y-75009080D01*
X142661963Y-75119394D01*
X142741315Y-75216085D01*
X142838006Y-75295437D01*
X142948320Y-75354402D01*
X143068018Y-75390712D01*
X143192500Y-75402972D01*
X145058856Y-75402972D01*
X144479653Y-75808534D01*
X144384716Y-75889977D01*
X144307492Y-75988376D01*
X144250948Y-76099950D01*
X144217258Y-76220412D01*
X144207716Y-76345131D01*
X144222689Y-76469316D01*
X144261601Y-76588193D01*
X144322958Y-76697195D01*
X144896534Y-77516347D01*
X144977977Y-77611284D01*
X145076376Y-77688508D01*
X145166393Y-77734127D01*
X145183161Y-77819995D01*
X145201044Y-77874603D01*
X145404696Y-77945486D01*
X146093565Y-77463135D01*
X146090738Y-77459098D01*
X146298804Y-77313410D01*
X146301630Y-77317446D01*
X146990499Y-76835095D01*
X146993544Y-76619481D01*
X146948345Y-76583999D01*
X146873391Y-76538874D01*
X146861311Y-76438684D01*
X146822399Y-76319807D01*
X146761042Y-76210805D01*
X146187466Y-75391653D01*
X146106023Y-75296716D01*
X146095499Y-75288457D01*
X146183685Y-75216085D01*
X146263037Y-75119394D01*
X146322002Y-75009080D01*
X146358312Y-74889382D01*
X146370572Y-74764900D01*
X146370572Y-69777700D01*
X146565013Y-69777700D01*
X147956957Y-76737421D01*
G36*
X126218407Y-82012196D02*
G01*
X126240673Y-82039327D01*
X126267804Y-82061593D01*
X126267809Y-82061598D01*
X126348967Y-82128202D01*
X126472518Y-82194242D01*
X126552388Y-82218470D01*
X126606580Y-82234909D01*
X126711064Y-82245200D01*
X126711071Y-82245200D01*
X126746000Y-82248640D01*
X126780928Y-82245200D01*
X128137307Y-82245200D01*
X128255834Y-82308554D01*
X128389895Y-82349221D01*
X128494379Y-82359512D01*
X128494387Y-82359512D01*
X128529315Y-82362952D01*
X128564243Y-82359512D01*
X131772700Y-82359512D01*
X131442864Y-82689349D01*
X131313855Y-82715010D01*
X131152795Y-82781723D01*
X131043428Y-82854800D01*
X124897939Y-82854800D01*
X123672612Y-81629474D01*
X123646950Y-81500465D01*
X123580237Y-81339405D01*
X123506600Y-81229200D01*
X123838596Y-81229200D01*
X123913704Y-81304308D01*
X124058654Y-81401161D01*
X124219714Y-81467874D01*
X124390694Y-81501884D01*
X124565024Y-81501884D01*
X124736004Y-81467874D01*
X124897064Y-81401161D01*
X125042014Y-81304308D01*
X125165283Y-81181039D01*
X125254191Y-81047979D01*
X126218407Y-82012196D01*
X126218407Y-82012196D01*
G37*
X126218407Y-82012196D02*
X126240673Y-82039327D01*
X126267804Y-82061593D01*
X126267809Y-82061598D01*
X126348967Y-82128202D01*
X126472518Y-82194242D01*
X126552388Y-82218470D01*
X126606580Y-82234909D01*
X126711064Y-82245200D01*
X126711071Y-82245200D01*
X126746000Y-82248640D01*
X126780928Y-82245200D01*
X128137307Y-82245200D01*
X128255834Y-82308554D01*
X128389895Y-82349221D01*
X128494379Y-82359512D01*
X128494387Y-82359512D01*
X128529315Y-82362952D01*
X128564243Y-82359512D01*
X131772700Y-82359512D01*
X131442864Y-82689349D01*
X131313855Y-82715010D01*
X131152795Y-82781723D01*
X131043428Y-82854800D01*
X124897939Y-82854800D01*
X123672612Y-81629474D01*
X123646950Y-81500465D01*
X123580237Y-81339405D01*
X123506600Y-81229200D01*
X123838596Y-81229200D01*
X123913704Y-81304308D01*
X124058654Y-81401161D01*
X124219714Y-81467874D01*
X124390694Y-81501884D01*
X124565024Y-81501884D01*
X124736004Y-81467874D01*
X124897064Y-81401161D01*
X125042014Y-81304308D01*
X125165283Y-81181039D01*
X125254191Y-81047979D01*
X126218407Y-82012196D01*
G36*
X122128723Y-80098795D02*
G01*
X122062010Y-80259855D01*
X122028000Y-80430835D01*
X122028000Y-80605165D01*
X122062010Y-80776145D01*
X122128723Y-80937205D01*
X122223677Y-81079314D01*
X122108536Y-81194455D01*
X122037076Y-81301402D01*
X120085984Y-81301402D01*
X120169928Y-81217457D01*
X120200201Y-81220439D01*
X120235127Y-81216999D01*
X120235137Y-81216999D01*
X120339621Y-81206708D01*
X120473682Y-81166041D01*
X120597234Y-81100001D01*
X120705528Y-81011126D01*
X120727803Y-80983984D01*
X120779135Y-80932652D01*
X120908145Y-80906990D01*
X121069205Y-80840277D01*
X121214155Y-80743424D01*
X121337424Y-80620155D01*
X121434277Y-80475205D01*
X121500990Y-80314145D01*
X121535000Y-80143165D01*
X121535000Y-80000320D01*
X122194522Y-80000320D01*
X122128723Y-80098795D01*
X122128723Y-80098795D01*
G37*
X122128723Y-80098795D02*
X122062010Y-80259855D01*
X122028000Y-80430835D01*
X122028000Y-80605165D01*
X122062010Y-80776145D01*
X122128723Y-80937205D01*
X122223677Y-81079314D01*
X122108536Y-81194455D01*
X122037076Y-81301402D01*
X120085984Y-81301402D01*
X120169928Y-81217457D01*
X120200201Y-81220439D01*
X120235127Y-81216999D01*
X120235137Y-81216999D01*
X120339621Y-81206708D01*
X120473682Y-81166041D01*
X120597234Y-81100001D01*
X120705528Y-81011126D01*
X120727803Y-80983984D01*
X120779135Y-80932652D01*
X120908145Y-80906990D01*
X121069205Y-80840277D01*
X121214155Y-80743424D01*
X121337424Y-80620155D01*
X121434277Y-80475205D01*
X121500990Y-80314145D01*
X121535000Y-80143165D01*
X121535000Y-80000320D01*
X122194522Y-80000320D01*
X122128723Y-80098795D01*
G36*
X141770461Y-78609813D02*
G01*
X141837174Y-78770873D01*
X141934027Y-78915823D01*
X142057296Y-79039092D01*
X142202246Y-79135945D01*
X142363306Y-79202658D01*
X142534286Y-79236668D01*
X142708616Y-79236668D01*
X142756289Y-79227185D01*
X142785173Y-79230030D01*
X142820101Y-79226590D01*
X143446857Y-79226590D01*
X143554926Y-79298800D01*
X143467994Y-79298800D01*
X143433066Y-79295360D01*
X143398138Y-79298800D01*
X143398130Y-79298800D01*
X143293646Y-79309091D01*
X143160076Y-79349609D01*
X140987434Y-79349609D01*
X141005754Y-79305381D01*
X141025084Y-79208203D01*
X141746074Y-78487213D01*
X141770461Y-78609813D01*
X141770461Y-78609813D01*
G37*
X141770461Y-78609813D02*
X141837174Y-78770873D01*
X141934027Y-78915823D01*
X142057296Y-79039092D01*
X142202246Y-79135945D01*
X142363306Y-79202658D01*
X142534286Y-79236668D01*
X142708616Y-79236668D01*
X142756289Y-79227185D01*
X142785173Y-79230030D01*
X142820101Y-79226590D01*
X143446857Y-79226590D01*
X143554926Y-79298800D01*
X143467994Y-79298800D01*
X143433066Y-79295360D01*
X143398138Y-79298800D01*
X143398130Y-79298800D01*
X143293646Y-79309091D01*
X143160076Y-79349609D01*
X140987434Y-79349609D01*
X141005754Y-79305381D01*
X141025084Y-79208203D01*
X141746074Y-78487213D01*
X141770461Y-78609813D01*
G36*
X129524724Y-96170437D02*
G01*
X127847575Y-97011584D01*
X127433797Y-97288062D01*
X126391181Y-98360476D01*
X132956300Y-104925595D01*
X139521419Y-98360476D01*
X138478803Y-97288062D01*
X136847642Y-96360879D01*
X135066938Y-95769735D01*
X134565927Y-95707200D01*
X140167413Y-95707200D01*
X142354300Y-97894088D01*
X142354301Y-101057064D01*
X142350860Y-101092000D01*
X142364592Y-101231419D01*
X142405259Y-101365481D01*
X142471298Y-101489032D01*
X142537903Y-101570190D01*
X142560174Y-101597327D01*
X142587310Y-101619597D01*
X142926818Y-101959106D01*
X142872120Y-101975698D01*
X142761806Y-102034663D01*
X142665115Y-102114015D01*
X142585763Y-102210706D01*
X142526798Y-102321020D01*
X142490488Y-102440718D01*
X142478228Y-102565200D01*
X142478228Y-104718839D01*
X142388851Y-103482647D01*
X141891063Y-101673624D01*
X141049916Y-99996475D01*
X140773438Y-99582697D01*
X139701024Y-98540081D01*
X133135905Y-105105200D01*
X133150048Y-105119343D01*
X132970443Y-105298948D01*
X132956300Y-105284805D01*
X132942158Y-105298948D01*
X132762553Y-105119343D01*
X132776695Y-105105200D01*
X126211576Y-98540081D01*
X126180039Y-98570742D01*
X126187200Y-98498036D01*
X126187200Y-98498027D01*
X126190640Y-98463101D01*
X126187200Y-98428175D01*
X126187200Y-97830587D01*
X128310589Y-95707200D01*
X131208184Y-95707200D01*
X129524724Y-96170437D01*
X129524724Y-96170437D01*
G37*
X129524724Y-96170437D02*
X127847575Y-97011584D01*
X127433797Y-97288062D01*
X126391181Y-98360476D01*
X132956300Y-104925595D01*
X139521419Y-98360476D01*
X138478803Y-97288062D01*
X136847642Y-96360879D01*
X135066938Y-95769735D01*
X134565927Y-95707200D01*
X140167413Y-95707200D01*
X142354300Y-97894088D01*
X142354301Y-101057064D01*
X142350860Y-101092000D01*
X142364592Y-101231419D01*
X142405259Y-101365481D01*
X142471298Y-101489032D01*
X142537903Y-101570190D01*
X142560174Y-101597327D01*
X142587310Y-101619597D01*
X142926818Y-101959106D01*
X142872120Y-101975698D01*
X142761806Y-102034663D01*
X142665115Y-102114015D01*
X142585763Y-102210706D01*
X142526798Y-102321020D01*
X142490488Y-102440718D01*
X142478228Y-102565200D01*
X142478228Y-104718839D01*
X142388851Y-103482647D01*
X141891063Y-101673624D01*
X141049916Y-99996475D01*
X140773438Y-99582697D01*
X139701024Y-98540081D01*
X133135905Y-105105200D01*
X133150048Y-105119343D01*
X132970443Y-105298948D01*
X132956300Y-105284805D01*
X132942158Y-105298948D01*
X132762553Y-105119343D01*
X132776695Y-105105200D01*
X126211576Y-98540081D01*
X126180039Y-98570742D01*
X126187200Y-98498036D01*
X126187200Y-98498027D01*
X126190640Y-98463101D01*
X126187200Y-98428175D01*
X126187200Y-97830587D01*
X128310589Y-95707200D01*
X131208184Y-95707200D01*
X129524724Y-96170437D01*
G36*
X148786877Y-95436665D02*
G01*
X148786876Y-97278233D01*
X148775578Y-97279346D01*
X148561630Y-97344247D01*
X148364454Y-97449639D01*
X148191628Y-97591474D01*
X148049793Y-97764300D01*
X147944401Y-97961476D01*
X147879500Y-98175424D01*
X147879325Y-98177197D01*
X147877552Y-98177372D01*
X147663604Y-98242273D01*
X147466428Y-98347665D01*
X147293602Y-98489500D01*
X147151767Y-98662326D01*
X147046375Y-98859502D01*
X146981474Y-99073450D01*
X146980237Y-99086014D01*
X146900150Y-99099847D01*
X146692498Y-99179764D01*
X146641824Y-99206858D01*
X146607382Y-99419725D01*
X147202026Y-100014369D01*
X147212644Y-100003751D01*
X147293602Y-100102398D01*
X147392249Y-100183356D01*
X147381631Y-100193974D01*
X147395774Y-100208117D01*
X147216169Y-100387722D01*
X147202026Y-100373579D01*
X147198541Y-100377064D01*
X147018936Y-100197459D01*
X147022421Y-100193974D01*
X146427777Y-99599330D01*
X146214910Y-99633772D01*
X146187816Y-99684446D01*
X146156392Y-99766096D01*
X146059820Y-99795391D01*
X145949506Y-99854356D01*
X145852815Y-99933708D01*
X145145708Y-100640815D01*
X145066356Y-100737506D01*
X145007391Y-100847820D01*
X144971081Y-100967518D01*
X144958821Y-101092000D01*
X144971081Y-101216482D01*
X145007391Y-101336180D01*
X145066356Y-101446494D01*
X145145708Y-101543185D01*
X145529651Y-101927128D01*
X144907757Y-101927128D01*
X144891626Y-101907473D01*
X144864501Y-101885212D01*
X143776700Y-100797413D01*
X143776700Y-98247200D01*
X146283428Y-98247200D01*
X146392795Y-98320277D01*
X146553855Y-98386990D01*
X146724835Y-98421000D01*
X146899165Y-98421000D01*
X147070145Y-98386990D01*
X147231205Y-98320277D01*
X147376155Y-98223424D01*
X147499424Y-98100155D01*
X147596277Y-97955205D01*
X147662990Y-97794145D01*
X147697000Y-97623165D01*
X147697000Y-97448835D01*
X147662990Y-97277855D01*
X147596277Y-97116795D01*
X147499424Y-96971845D01*
X147376155Y-96848576D01*
X147231205Y-96751723D01*
X147070145Y-96685010D01*
X146899165Y-96651000D01*
X146724835Y-96651000D01*
X146553855Y-96685010D01*
X146392795Y-96751723D01*
X146283428Y-96824800D01*
X143296588Y-96824800D01*
X141366178Y-94894391D01*
X148244604Y-94894391D01*
X148786877Y-95436665D01*
X148786877Y-95436665D01*
G37*
X148786877Y-95436665D02*
X148786876Y-97278233D01*
X148775578Y-97279346D01*
X148561630Y-97344247D01*
X148364454Y-97449639D01*
X148191628Y-97591474D01*
X148049793Y-97764300D01*
X147944401Y-97961476D01*
X147879500Y-98175424D01*
X147879325Y-98177197D01*
X147877552Y-98177372D01*
X147663604Y-98242273D01*
X147466428Y-98347665D01*
X147293602Y-98489500D01*
X147151767Y-98662326D01*
X147046375Y-98859502D01*
X146981474Y-99073450D01*
X146980237Y-99086014D01*
X146900150Y-99099847D01*
X146692498Y-99179764D01*
X146641824Y-99206858D01*
X146607382Y-99419725D01*
X147202026Y-100014369D01*
X147212644Y-100003751D01*
X147293602Y-100102398D01*
X147392249Y-100183356D01*
X147381631Y-100193974D01*
X147395774Y-100208117D01*
X147216169Y-100387722D01*
X147202026Y-100373579D01*
X147198541Y-100377064D01*
X147018936Y-100197459D01*
X147022421Y-100193974D01*
X146427777Y-99599330D01*
X146214910Y-99633772D01*
X146187816Y-99684446D01*
X146156392Y-99766096D01*
X146059820Y-99795391D01*
X145949506Y-99854356D01*
X145852815Y-99933708D01*
X145145708Y-100640815D01*
X145066356Y-100737506D01*
X145007391Y-100847820D01*
X144971081Y-100967518D01*
X144958821Y-101092000D01*
X144971081Y-101216482D01*
X145007391Y-101336180D01*
X145066356Y-101446494D01*
X145145708Y-101543185D01*
X145529651Y-101927128D01*
X144907757Y-101927128D01*
X144891626Y-101907473D01*
X144864501Y-101885212D01*
X143776700Y-100797413D01*
X143776700Y-98247200D01*
X146283428Y-98247200D01*
X146392795Y-98320277D01*
X146553855Y-98386990D01*
X146724835Y-98421000D01*
X146899165Y-98421000D01*
X147070145Y-98386990D01*
X147231205Y-98320277D01*
X147376155Y-98223424D01*
X147499424Y-98100155D01*
X147596277Y-97955205D01*
X147662990Y-97794145D01*
X147697000Y-97623165D01*
X147697000Y-97448835D01*
X147662990Y-97277855D01*
X147596277Y-97116795D01*
X147499424Y-96971845D01*
X147376155Y-96848576D01*
X147231205Y-96751723D01*
X147070145Y-96685010D01*
X146899165Y-96651000D01*
X146724835Y-96651000D01*
X146553855Y-96685010D01*
X146392795Y-96751723D01*
X146283428Y-96824800D01*
X143296588Y-96824800D01*
X141366178Y-94894391D01*
X148244604Y-94894391D01*
X148786877Y-95436665D01*
G36*
X124997811Y-97008402D02*
G01*
X124970674Y-97030673D01*
X124948404Y-97057809D01*
X124948403Y-97057810D01*
X124881798Y-97138968D01*
X124840173Y-97216844D01*
X124815759Y-97262519D01*
X124776301Y-97392597D01*
X124775092Y-97396581D01*
X124761360Y-97536000D01*
X124764801Y-97570935D01*
X124764800Y-98168511D01*
X121048110Y-101885203D01*
X121020974Y-101907473D01*
X121004843Y-101927128D01*
X120694658Y-101927128D01*
X120719019Y-101846822D01*
X120740933Y-101624323D01*
X120728856Y-101501697D01*
X122144191Y-100086362D01*
X122171327Y-100064092D01*
X122260202Y-99955798D01*
X122326242Y-99832246D01*
X122366909Y-99698185D01*
X122377200Y-99593701D01*
X122377200Y-99593692D01*
X122380640Y-99558766D01*
X122377200Y-99523840D01*
X122377200Y-97532889D01*
X122484155Y-97461424D01*
X122607424Y-97338155D01*
X122704277Y-97193205D01*
X122770990Y-97032145D01*
X122805000Y-96861165D01*
X122805000Y-96686835D01*
X122770990Y-96515855D01*
X122704277Y-96354795D01*
X122607424Y-96209845D01*
X122484155Y-96086576D01*
X122339205Y-95989723D01*
X122178145Y-95923010D01*
X122007165Y-95889000D01*
X121832835Y-95889000D01*
X121661855Y-95923010D01*
X121500795Y-95989723D01*
X121355845Y-96086576D01*
X121232576Y-96209845D01*
X121135723Y-96354795D01*
X121069010Y-96515855D01*
X121035000Y-96686835D01*
X121035000Y-96699812D01*
X121005758Y-96754520D01*
X120965091Y-96888581D01*
X120954800Y-96993065D01*
X120954800Y-96993074D01*
X120951360Y-97028000D01*
X120954800Y-97062926D01*
X120954801Y-99264176D01*
X119959598Y-100259379D01*
X119925676Y-100147553D01*
X119820284Y-99950377D01*
X119678449Y-99777551D01*
X119505623Y-99635716D01*
X119308447Y-99530324D01*
X119273192Y-99519629D01*
X119273483Y-99436380D01*
X119230839Y-99218005D01*
X119212956Y-99163397D01*
X119009304Y-99092514D01*
X118320435Y-99574865D01*
X118329092Y-99587228D01*
X118238377Y-99635716D01*
X118120629Y-99732349D01*
X118112370Y-99720554D01*
X118095987Y-99732026D01*
X117950298Y-99523960D01*
X117966681Y-99512489D01*
X117963854Y-99508452D01*
X118171920Y-99362764D01*
X118174746Y-99366800D01*
X118863615Y-98884449D01*
X118866660Y-98668835D01*
X118821461Y-98633353D01*
X118746507Y-98588228D01*
X118734427Y-98488038D01*
X118695515Y-98369161D01*
X118644941Y-98279316D01*
X122029867Y-94894391D01*
X127111820Y-94894391D01*
X124997811Y-97008402D01*
X124997811Y-97008402D01*
G37*
X124997811Y-97008402D02*
X124970674Y-97030673D01*
X124948404Y-97057809D01*
X124948403Y-97057810D01*
X124881798Y-97138968D01*
X124840173Y-97216844D01*
X124815759Y-97262519D01*
X124776301Y-97392597D01*
X124775092Y-97396581D01*
X124761360Y-97536000D01*
X124764801Y-97570935D01*
X124764800Y-98168511D01*
X121048110Y-101885203D01*
X121020974Y-101907473D01*
X121004843Y-101927128D01*
X120694658Y-101927128D01*
X120719019Y-101846822D01*
X120740933Y-101624323D01*
X120728856Y-101501697D01*
X122144191Y-100086362D01*
X122171327Y-100064092D01*
X122260202Y-99955798D01*
X122326242Y-99832246D01*
X122366909Y-99698185D01*
X122377200Y-99593701D01*
X122377200Y-99593692D01*
X122380640Y-99558766D01*
X122377200Y-99523840D01*
X122377200Y-97532889D01*
X122484155Y-97461424D01*
X122607424Y-97338155D01*
X122704277Y-97193205D01*
X122770990Y-97032145D01*
X122805000Y-96861165D01*
X122805000Y-96686835D01*
X122770990Y-96515855D01*
X122704277Y-96354795D01*
X122607424Y-96209845D01*
X122484155Y-96086576D01*
X122339205Y-95989723D01*
X122178145Y-95923010D01*
X122007165Y-95889000D01*
X121832835Y-95889000D01*
X121661855Y-95923010D01*
X121500795Y-95989723D01*
X121355845Y-96086576D01*
X121232576Y-96209845D01*
X121135723Y-96354795D01*
X121069010Y-96515855D01*
X121035000Y-96686835D01*
X121035000Y-96699812D01*
X121005758Y-96754520D01*
X120965091Y-96888581D01*
X120954800Y-96993065D01*
X120954800Y-96993074D01*
X120951360Y-97028000D01*
X120954800Y-97062926D01*
X120954801Y-99264176D01*
X119959598Y-100259379D01*
X119925676Y-100147553D01*
X119820284Y-99950377D01*
X119678449Y-99777551D01*
X119505623Y-99635716D01*
X119308447Y-99530324D01*
X119273192Y-99519629D01*
X119273483Y-99436380D01*
X119230839Y-99218005D01*
X119212956Y-99163397D01*
X119009304Y-99092514D01*
X118320435Y-99574865D01*
X118329092Y-99587228D01*
X118238377Y-99635716D01*
X118120629Y-99732349D01*
X118112370Y-99720554D01*
X118095987Y-99732026D01*
X117950298Y-99523960D01*
X117966681Y-99512489D01*
X117963854Y-99508452D01*
X118171920Y-99362764D01*
X118174746Y-99366800D01*
X118863615Y-98884449D01*
X118866660Y-98668835D01*
X118821461Y-98633353D01*
X118746507Y-98588228D01*
X118734427Y-98488038D01*
X118695515Y-98369161D01*
X118644941Y-98279316D01*
X122029867Y-94894391D01*
X127111820Y-94894391D01*
X124997811Y-97008402D01*
G36*
X139939795Y-90180277D02*
G01*
X140100855Y-90246990D01*
X140271835Y-90281000D01*
X140446165Y-90281000D01*
X140617145Y-90246990D01*
X140734000Y-90198587D01*
X140850855Y-90246990D01*
X141021835Y-90281000D01*
X141196165Y-90281000D01*
X141367145Y-90246990D01*
X141484000Y-90198587D01*
X141600855Y-90246990D01*
X141771835Y-90281000D01*
X141946165Y-90281000D01*
X142117145Y-90246990D01*
X142278205Y-90180277D01*
X142381861Y-90111016D01*
X142410854Y-90126432D01*
X142465174Y-90148821D01*
X142519086Y-90171928D01*
X142527718Y-90174600D01*
X142527725Y-90174603D01*
X142527732Y-90174604D01*
X142714561Y-90231011D01*
X142772145Y-90242413D01*
X142829567Y-90254619D01*
X142838561Y-90255564D01*
X143032794Y-90274609D01*
X143032809Y-90274609D01*
X143064191Y-90277700D01*
X155349196Y-90277700D01*
X154497779Y-96237619D01*
X149934843Y-99045580D01*
X149946361Y-99031546D01*
X150051753Y-98834370D01*
X150116654Y-98620422D01*
X150138568Y-98397923D01*
X150122802Y-98237850D01*
X150158318Y-98171405D01*
X150198985Y-98037344D01*
X150209276Y-97932860D01*
X150209276Y-97932851D01*
X150212716Y-97897925D01*
X150209276Y-97862999D01*
X150209276Y-95177001D01*
X150212716Y-95142075D01*
X150209276Y-95107149D01*
X150209276Y-95107140D01*
X150198985Y-95002656D01*
X150158318Y-94868595D01*
X150092278Y-94745043D01*
X150003403Y-94636749D01*
X149976266Y-94614479D01*
X149066793Y-93705006D01*
X149044518Y-93677864D01*
X148936224Y-93588989D01*
X148812672Y-93522949D01*
X148678611Y-93482282D01*
X148574127Y-93471991D01*
X148574117Y-93471991D01*
X148539191Y-93468551D01*
X148504265Y-93471991D01*
X144569573Y-93471991D01*
X144477954Y-93345000D01*
X143637000Y-93345000D01*
X143637000Y-93365000D01*
X143383000Y-93365000D01*
X143383000Y-93345000D01*
X142542046Y-93345000D01*
X142450427Y-93471991D01*
X121770204Y-93471991D01*
X121735278Y-93468551D01*
X121700352Y-93471991D01*
X121700343Y-93471991D01*
X121595859Y-93482282D01*
X121461798Y-93522949D01*
X121338246Y-93588989D01*
X121229952Y-93677864D01*
X121207682Y-93705000D01*
X117715414Y-97197269D01*
X117648704Y-97178612D01*
X117523985Y-97169070D01*
X117399800Y-97184043D01*
X117280923Y-97222955D01*
X117171921Y-97284312D01*
X116352769Y-97857888D01*
X116257832Y-97939331D01*
X116180608Y-98037730D01*
X116124064Y-98149304D01*
X116090374Y-98269766D01*
X116080832Y-98394485D01*
X116095805Y-98518670D01*
X116134717Y-98637547D01*
X116196074Y-98746549D01*
X116419933Y-99066253D01*
X111693159Y-96230189D01*
X111396686Y-94154874D01*
X114983881Y-94154874D01*
X115000554Y-94209864D01*
X115090877Y-94413206D01*
X115219135Y-94595020D01*
X115380399Y-94748318D01*
X115568471Y-94867210D01*
X115776124Y-94947126D01*
X115951000Y-94822129D01*
X115951000Y-93980000D01*
X116205000Y-93980000D01*
X116205000Y-94822129D01*
X116379876Y-94947126D01*
X116587529Y-94867210D01*
X116775601Y-94748318D01*
X116936865Y-94595020D01*
X117065123Y-94413206D01*
X117155446Y-94209864D01*
X117172119Y-94154874D01*
X117045954Y-93980000D01*
X116205000Y-93980000D01*
X115951000Y-93980000D01*
X115110046Y-93980000D01*
X114983881Y-94154874D01*
X111396686Y-94154874D01*
X111295999Y-93450071D01*
X111131951Y-92083000D01*
X114939928Y-92083000D01*
X114939928Y-93083000D01*
X114952188Y-93207482D01*
X114988498Y-93327180D01*
X115036070Y-93416180D01*
X115000554Y-93496136D01*
X114983881Y-93551126D01*
X115110046Y-93726000D01*
X115951000Y-93726000D01*
X115951000Y-93721072D01*
X116205000Y-93721072D01*
X116205000Y-93726000D01*
X117045954Y-93726000D01*
X117172119Y-93551126D01*
X117155446Y-93496136D01*
X117119930Y-93416180D01*
X117167502Y-93327180D01*
X117203812Y-93207482D01*
X117216072Y-93083000D01*
X117216072Y-92083000D01*
X117203812Y-91958518D01*
X117167502Y-91838820D01*
X117108537Y-91728506D01*
X117029185Y-91631815D01*
X116932494Y-91552463D01*
X116822180Y-91493498D01*
X116702482Y-91457188D01*
X116609192Y-91448000D01*
X142371928Y-91448000D01*
X142371928Y-92448000D01*
X142384188Y-92572482D01*
X142420498Y-92692180D01*
X142468070Y-92781180D01*
X142432554Y-92861136D01*
X142415881Y-92916126D01*
X142542046Y-93091000D01*
X143383000Y-93091000D01*
X143383000Y-93086072D01*
X143637000Y-93086072D01*
X143637000Y-93091000D01*
X144477954Y-93091000D01*
X144604119Y-92916126D01*
X144587446Y-92861136D01*
X144551930Y-92781180D01*
X144599502Y-92692180D01*
X144635812Y-92572482D01*
X144648072Y-92448000D01*
X144648072Y-91448000D01*
X144635812Y-91323518D01*
X144599502Y-91203820D01*
X144540537Y-91093506D01*
X144461185Y-90996815D01*
X144364494Y-90917463D01*
X144254180Y-90858498D01*
X144134482Y-90822188D01*
X144010000Y-90809928D01*
X143010000Y-90809928D01*
X142885518Y-90822188D01*
X142765820Y-90858498D01*
X142655506Y-90917463D01*
X142558815Y-90996815D01*
X142479463Y-91093506D01*
X142420498Y-91203820D01*
X142384188Y-91323518D01*
X142371928Y-91448000D01*
X116609192Y-91448000D01*
X116578000Y-91444928D01*
X115578000Y-91444928D01*
X115453518Y-91457188D01*
X115333820Y-91493498D01*
X115223506Y-91552463D01*
X115126815Y-91631815D01*
X115047463Y-91728506D01*
X114988498Y-91838820D01*
X114952188Y-91958518D01*
X114939928Y-92083000D01*
X111131951Y-92083000D01*
X110915315Y-90277700D01*
X123127809Y-90277700D01*
X123160176Y-90274512D01*
X123173167Y-90274512D01*
X123182160Y-90273566D01*
X123376110Y-90251812D01*
X123433578Y-90239597D01*
X123491121Y-90228203D01*
X123499753Y-90225531D01*
X123499757Y-90225530D01*
X123499760Y-90225529D01*
X123685790Y-90166516D01*
X123739780Y-90143376D01*
X123794020Y-90121020D01*
X123801971Y-90116720D01*
X123801977Y-90116718D01*
X123801982Y-90116715D01*
X123817719Y-90108063D01*
X123925795Y-90180277D01*
X124086855Y-90246990D01*
X124257835Y-90281000D01*
X124432165Y-90281000D01*
X124603145Y-90246990D01*
X124720000Y-90198587D01*
X124836855Y-90246990D01*
X125007835Y-90281000D01*
X125182165Y-90281000D01*
X125353145Y-90246990D01*
X125470000Y-90198587D01*
X125586855Y-90246990D01*
X125757835Y-90281000D01*
X125932165Y-90281000D01*
X126103145Y-90246990D01*
X126264205Y-90180277D01*
X126374065Y-90106871D01*
X126410854Y-90126432D01*
X126465174Y-90148821D01*
X126519086Y-90171928D01*
X126527718Y-90174600D01*
X126527725Y-90174603D01*
X126527732Y-90174604D01*
X126714561Y-90231011D01*
X126772145Y-90242413D01*
X126829567Y-90254619D01*
X126838561Y-90255564D01*
X127032794Y-90274609D01*
X127032809Y-90274609D01*
X127064191Y-90277700D01*
X139127809Y-90277700D01*
X139160176Y-90274512D01*
X139173167Y-90274512D01*
X139182160Y-90273566D01*
X139376110Y-90251812D01*
X139433578Y-90239597D01*
X139491121Y-90228203D01*
X139499753Y-90225531D01*
X139499757Y-90225530D01*
X139499760Y-90225529D01*
X139685790Y-90166516D01*
X139739780Y-90143376D01*
X139794020Y-90121020D01*
X139801971Y-90116720D01*
X139801977Y-90116718D01*
X139801982Y-90116715D01*
X139825400Y-90103840D01*
X139939795Y-90180277D01*
X139939795Y-90180277D01*
G37*
X139939795Y-90180277D02*
X140100855Y-90246990D01*
X140271835Y-90281000D01*
X140446165Y-90281000D01*
X140617145Y-90246990D01*
X140734000Y-90198587D01*
X140850855Y-90246990D01*
X141021835Y-90281000D01*
X141196165Y-90281000D01*
X141367145Y-90246990D01*
X141484000Y-90198587D01*
X141600855Y-90246990D01*
X141771835Y-90281000D01*
X141946165Y-90281000D01*
X142117145Y-90246990D01*
X142278205Y-90180277D01*
X142381861Y-90111016D01*
X142410854Y-90126432D01*
X142465174Y-90148821D01*
X142519086Y-90171928D01*
X142527718Y-90174600D01*
X142527725Y-90174603D01*
X142527732Y-90174604D01*
X142714561Y-90231011D01*
X142772145Y-90242413D01*
X142829567Y-90254619D01*
X142838561Y-90255564D01*
X143032794Y-90274609D01*
X143032809Y-90274609D01*
X143064191Y-90277700D01*
X155349196Y-90277700D01*
X154497779Y-96237619D01*
X149934843Y-99045580D01*
X149946361Y-99031546D01*
X150051753Y-98834370D01*
X150116654Y-98620422D01*
X150138568Y-98397923D01*
X150122802Y-98237850D01*
X150158318Y-98171405D01*
X150198985Y-98037344D01*
X150209276Y-97932860D01*
X150209276Y-97932851D01*
X150212716Y-97897925D01*
X150209276Y-97862999D01*
X150209276Y-95177001D01*
X150212716Y-95142075D01*
X150209276Y-95107149D01*
X150209276Y-95107140D01*
X150198985Y-95002656D01*
X150158318Y-94868595D01*
X150092278Y-94745043D01*
X150003403Y-94636749D01*
X149976266Y-94614479D01*
X149066793Y-93705006D01*
X149044518Y-93677864D01*
X148936224Y-93588989D01*
X148812672Y-93522949D01*
X148678611Y-93482282D01*
X148574127Y-93471991D01*
X148574117Y-93471991D01*
X148539191Y-93468551D01*
X148504265Y-93471991D01*
X144569573Y-93471991D01*
X144477954Y-93345000D01*
X143637000Y-93345000D01*
X143637000Y-93365000D01*
X143383000Y-93365000D01*
X143383000Y-93345000D01*
X142542046Y-93345000D01*
X142450427Y-93471991D01*
X121770204Y-93471991D01*
X121735278Y-93468551D01*
X121700352Y-93471991D01*
X121700343Y-93471991D01*
X121595859Y-93482282D01*
X121461798Y-93522949D01*
X121338246Y-93588989D01*
X121229952Y-93677864D01*
X121207682Y-93705000D01*
X117715414Y-97197269D01*
X117648704Y-97178612D01*
X117523985Y-97169070D01*
X117399800Y-97184043D01*
X117280923Y-97222955D01*
X117171921Y-97284312D01*
X116352769Y-97857888D01*
X116257832Y-97939331D01*
X116180608Y-98037730D01*
X116124064Y-98149304D01*
X116090374Y-98269766D01*
X116080832Y-98394485D01*
X116095805Y-98518670D01*
X116134717Y-98637547D01*
X116196074Y-98746549D01*
X116419933Y-99066253D01*
X111693159Y-96230189D01*
X111396686Y-94154874D01*
X114983881Y-94154874D01*
X115000554Y-94209864D01*
X115090877Y-94413206D01*
X115219135Y-94595020D01*
X115380399Y-94748318D01*
X115568471Y-94867210D01*
X115776124Y-94947126D01*
X115951000Y-94822129D01*
X115951000Y-93980000D01*
X116205000Y-93980000D01*
X116205000Y-94822129D01*
X116379876Y-94947126D01*
X116587529Y-94867210D01*
X116775601Y-94748318D01*
X116936865Y-94595020D01*
X117065123Y-94413206D01*
X117155446Y-94209864D01*
X117172119Y-94154874D01*
X117045954Y-93980000D01*
X116205000Y-93980000D01*
X115951000Y-93980000D01*
X115110046Y-93980000D01*
X114983881Y-94154874D01*
X111396686Y-94154874D01*
X111295999Y-93450071D01*
X111131951Y-92083000D01*
X114939928Y-92083000D01*
X114939928Y-93083000D01*
X114952188Y-93207482D01*
X114988498Y-93327180D01*
X115036070Y-93416180D01*
X115000554Y-93496136D01*
X114983881Y-93551126D01*
X115110046Y-93726000D01*
X115951000Y-93726000D01*
X115951000Y-93721072D01*
X116205000Y-93721072D01*
X116205000Y-93726000D01*
X117045954Y-93726000D01*
X117172119Y-93551126D01*
X117155446Y-93496136D01*
X117119930Y-93416180D01*
X117167502Y-93327180D01*
X117203812Y-93207482D01*
X117216072Y-93083000D01*
X117216072Y-92083000D01*
X117203812Y-91958518D01*
X117167502Y-91838820D01*
X117108537Y-91728506D01*
X117029185Y-91631815D01*
X116932494Y-91552463D01*
X116822180Y-91493498D01*
X116702482Y-91457188D01*
X116609192Y-91448000D01*
X142371928Y-91448000D01*
X142371928Y-92448000D01*
X142384188Y-92572482D01*
X142420498Y-92692180D01*
X142468070Y-92781180D01*
X142432554Y-92861136D01*
X142415881Y-92916126D01*
X142542046Y-93091000D01*
X143383000Y-93091000D01*
X143383000Y-93086072D01*
X143637000Y-93086072D01*
X143637000Y-93091000D01*
X144477954Y-93091000D01*
X144604119Y-92916126D01*
X144587446Y-92861136D01*
X144551930Y-92781180D01*
X144599502Y-92692180D01*
X144635812Y-92572482D01*
X144648072Y-92448000D01*
X144648072Y-91448000D01*
X144635812Y-91323518D01*
X144599502Y-91203820D01*
X144540537Y-91093506D01*
X144461185Y-90996815D01*
X144364494Y-90917463D01*
X144254180Y-90858498D01*
X144134482Y-90822188D01*
X144010000Y-90809928D01*
X143010000Y-90809928D01*
X142885518Y-90822188D01*
X142765820Y-90858498D01*
X142655506Y-90917463D01*
X142558815Y-90996815D01*
X142479463Y-91093506D01*
X142420498Y-91203820D01*
X142384188Y-91323518D01*
X142371928Y-91448000D01*
X116609192Y-91448000D01*
X116578000Y-91444928D01*
X115578000Y-91444928D01*
X115453518Y-91457188D01*
X115333820Y-91493498D01*
X115223506Y-91552463D01*
X115126815Y-91631815D01*
X115047463Y-91728506D01*
X114988498Y-91838820D01*
X114952188Y-91958518D01*
X114939928Y-92083000D01*
X111131951Y-92083000D01*
X110915315Y-90277700D01*
X123127809Y-90277700D01*
X123160176Y-90274512D01*
X123173167Y-90274512D01*
X123182160Y-90273566D01*
X123376110Y-90251812D01*
X123433578Y-90239597D01*
X123491121Y-90228203D01*
X123499753Y-90225531D01*
X123499757Y-90225530D01*
X123499760Y-90225529D01*
X123685790Y-90166516D01*
X123739780Y-90143376D01*
X123794020Y-90121020D01*
X123801971Y-90116720D01*
X123801977Y-90116718D01*
X123801982Y-90116715D01*
X123817719Y-90108063D01*
X123925795Y-90180277D01*
X124086855Y-90246990D01*
X124257835Y-90281000D01*
X124432165Y-90281000D01*
X124603145Y-90246990D01*
X124720000Y-90198587D01*
X124836855Y-90246990D01*
X125007835Y-90281000D01*
X125182165Y-90281000D01*
X125353145Y-90246990D01*
X125470000Y-90198587D01*
X125586855Y-90246990D01*
X125757835Y-90281000D01*
X125932165Y-90281000D01*
X126103145Y-90246990D01*
X126264205Y-90180277D01*
X126374065Y-90106871D01*
X126410854Y-90126432D01*
X126465174Y-90148821D01*
X126519086Y-90171928D01*
X126527718Y-90174600D01*
X126527725Y-90174603D01*
X126527732Y-90174604D01*
X126714561Y-90231011D01*
X126772145Y-90242413D01*
X126829567Y-90254619D01*
X126838561Y-90255564D01*
X127032794Y-90274609D01*
X127032809Y-90274609D01*
X127064191Y-90277700D01*
X139127809Y-90277700D01*
X139160176Y-90274512D01*
X139173167Y-90274512D01*
X139182160Y-90273566D01*
X139376110Y-90251812D01*
X139433578Y-90239597D01*
X139491121Y-90228203D01*
X139499753Y-90225531D01*
X139499757Y-90225530D01*
X139499760Y-90225529D01*
X139685790Y-90166516D01*
X139739780Y-90143376D01*
X139794020Y-90121020D01*
X139801971Y-90116720D01*
X139801977Y-90116718D01*
X139801982Y-90116715D01*
X139825400Y-90103840D01*
X139939795Y-90180277D01*
M02*
