G04 #@! TF.GenerationSoftware,KiCad,Pcbnew,(5.1.0)-1*
G04 #@! TF.CreationDate,2019-03-21T23:03:58+11:00*
G04 #@! TF.ProjectId,top-hemi,746f702d-6865-46d6-992e-6b696361645f,rev?*
G04 #@! TF.SameCoordinates,Original*
G04 #@! TF.FileFunction,Soldermask,Bot*
G04 #@! TF.FilePolarity,Negative*
%FSLAX46Y46*%
G04 Gerber Fmt 4.6, Leading zero omitted, Abs format (unit mm)*
G04 Created by KiCad (PCBNEW (5.1.0)-1) date 2019-03-21 23:03:58*
%MOMM*%
%LPD*%
G04 APERTURE LIST*
%ADD10C,0.100000*%
G04 APERTURE END LIST*
D10*
G36*
X134031948Y-96202995D02*
G01*
X135564294Y-96507797D01*
X137191452Y-97181788D01*
X138655855Y-98160272D01*
X139901228Y-99405645D01*
X140879712Y-100870048D01*
X141553703Y-102497206D01*
X141897300Y-104224588D01*
X141897300Y-105985812D01*
X141553703Y-107713194D01*
X140879712Y-109340352D01*
X139901228Y-110804755D01*
X138655855Y-112050128D01*
X137191452Y-113028612D01*
X135564294Y-113702603D01*
X134052100Y-114003397D01*
X133836913Y-114046200D01*
X132075687Y-114046200D01*
X131860500Y-114003397D01*
X130348306Y-113702603D01*
X128721148Y-113028612D01*
X127256745Y-112050128D01*
X126011372Y-110804755D01*
X125032888Y-109340352D01*
X124358897Y-107713194D01*
X124015300Y-105985812D01*
X124015300Y-104224588D01*
X124358897Y-102497206D01*
X125032888Y-100870048D01*
X126011372Y-99405645D01*
X127256745Y-98160272D01*
X128721148Y-97181788D01*
X130348306Y-96507797D01*
X131880652Y-96202995D01*
X132075687Y-96164200D01*
X133836913Y-96164200D01*
X134031948Y-96202995D01*
X134031948Y-96202995D01*
G37*
G36*
X145707300Y-107696200D02*
G01*
X143065300Y-107696200D01*
X143065300Y-102514200D01*
X145707300Y-102514200D01*
X145707300Y-107696200D01*
X145707300Y-107696200D01*
G37*
G36*
X122847300Y-107696200D02*
G01*
X120205300Y-107696200D01*
X120205300Y-102514200D01*
X122847300Y-102514200D01*
X122847300Y-107696200D01*
X122847300Y-107696200D01*
G37*
G36*
X144778316Y-98901503D02*
G01*
X144844501Y-98908022D01*
X145014340Y-98959542D01*
X145170865Y-99043207D01*
X145206603Y-99072537D01*
X145308060Y-99155799D01*
X145391322Y-99257256D01*
X145420652Y-99292994D01*
X145504317Y-99449519D01*
X145555837Y-99619358D01*
X145573233Y-99795985D01*
X145555837Y-99972612D01*
X145504317Y-100142451D01*
X145420652Y-100298976D01*
X145391322Y-100334714D01*
X145308060Y-100436171D01*
X145206603Y-100519433D01*
X145170865Y-100548763D01*
X145014340Y-100632428D01*
X144844501Y-100683948D01*
X144778316Y-100690467D01*
X144712134Y-100696985D01*
X144623614Y-100696985D01*
X144557432Y-100690467D01*
X144491247Y-100683948D01*
X144321408Y-100632428D01*
X144164883Y-100548763D01*
X144129145Y-100519433D01*
X144027688Y-100436171D01*
X143944426Y-100334714D01*
X143915096Y-100298976D01*
X143831431Y-100142451D01*
X143779911Y-99972612D01*
X143762515Y-99795985D01*
X143779911Y-99619358D01*
X143831431Y-99449519D01*
X143915096Y-99292994D01*
X143944426Y-99257256D01*
X144027688Y-99155799D01*
X144129145Y-99072537D01*
X144164883Y-99043207D01*
X144321408Y-98959542D01*
X144491247Y-98908022D01*
X144557432Y-98901503D01*
X144623614Y-98894985D01*
X144712134Y-98894985D01*
X144778316Y-98901503D01*
X144778316Y-98901503D01*
G37*
G36*
X121888568Y-98901503D02*
G01*
X121954753Y-98908022D01*
X122124592Y-98959542D01*
X122281117Y-99043207D01*
X122316855Y-99072537D01*
X122418312Y-99155799D01*
X122501574Y-99257256D01*
X122530904Y-99292994D01*
X122614569Y-99449519D01*
X122666089Y-99619358D01*
X122683485Y-99795985D01*
X122666089Y-99972612D01*
X122614569Y-100142451D01*
X122530904Y-100298976D01*
X122501574Y-100334714D01*
X122418312Y-100436171D01*
X122316855Y-100519433D01*
X122281117Y-100548763D01*
X122124592Y-100632428D01*
X121954753Y-100683948D01*
X121888568Y-100690467D01*
X121822386Y-100696985D01*
X121733866Y-100696985D01*
X121667684Y-100690467D01*
X121601499Y-100683948D01*
X121431660Y-100632428D01*
X121275135Y-100548763D01*
X121239397Y-100519433D01*
X121137940Y-100436171D01*
X121054678Y-100334714D01*
X121025348Y-100298976D01*
X120941683Y-100142451D01*
X120890163Y-99972612D01*
X120872767Y-99795985D01*
X120890163Y-99619358D01*
X120941683Y-99449519D01*
X121025348Y-99292994D01*
X121054678Y-99257256D01*
X121137940Y-99155799D01*
X121239397Y-99072537D01*
X121275135Y-99043207D01*
X121431660Y-98959542D01*
X121601499Y-98908022D01*
X121667684Y-98901503D01*
X121733866Y-98894985D01*
X121822386Y-98894985D01*
X121888568Y-98901503D01*
X121888568Y-98901503D01*
G37*
G36*
X119734527Y-97555509D02*
G01*
X119800711Y-97562027D01*
X119970550Y-97613547D01*
X120127075Y-97697212D01*
X120162813Y-97726542D01*
X120264270Y-97809804D01*
X120347532Y-97911261D01*
X120376862Y-97946999D01*
X120460527Y-98103524D01*
X120512047Y-98273363D01*
X120529443Y-98449990D01*
X120512047Y-98626617D01*
X120460527Y-98796456D01*
X120376862Y-98952981D01*
X120347532Y-98988719D01*
X120264270Y-99090176D01*
X120162813Y-99173438D01*
X120127075Y-99202768D01*
X119970550Y-99286433D01*
X119800711Y-99337953D01*
X119734526Y-99344472D01*
X119668344Y-99350990D01*
X119579824Y-99350990D01*
X119513641Y-99344471D01*
X119447457Y-99337953D01*
X119277618Y-99286433D01*
X119121093Y-99202768D01*
X119085355Y-99173438D01*
X118983898Y-99090176D01*
X118900636Y-98988719D01*
X118871306Y-98952981D01*
X118787641Y-98796456D01*
X118736121Y-98626617D01*
X118718725Y-98449990D01*
X118736121Y-98273363D01*
X118787641Y-98103524D01*
X118871306Y-97946999D01*
X118900636Y-97911261D01*
X118983898Y-97809804D01*
X119085355Y-97726542D01*
X119121093Y-97697212D01*
X119277618Y-97613547D01*
X119447457Y-97562027D01*
X119513641Y-97555509D01*
X119579824Y-97548990D01*
X119668344Y-97548990D01*
X119734527Y-97555509D01*
X119734527Y-97555509D01*
G37*
G36*
X146932359Y-97555509D02*
G01*
X146998543Y-97562027D01*
X147168382Y-97613547D01*
X147324907Y-97697212D01*
X147360645Y-97726542D01*
X147462102Y-97809804D01*
X147545364Y-97911261D01*
X147574694Y-97946999D01*
X147658359Y-98103524D01*
X147709879Y-98273363D01*
X147727275Y-98449990D01*
X147709879Y-98626617D01*
X147658359Y-98796456D01*
X147574694Y-98952981D01*
X147545364Y-98988719D01*
X147462102Y-99090176D01*
X147360645Y-99173438D01*
X147324907Y-99202768D01*
X147168382Y-99286433D01*
X146998543Y-99337953D01*
X146932358Y-99344472D01*
X146866176Y-99350990D01*
X146777656Y-99350990D01*
X146711473Y-99344471D01*
X146645289Y-99337953D01*
X146475450Y-99286433D01*
X146318925Y-99202768D01*
X146283187Y-99173438D01*
X146181730Y-99090176D01*
X146098468Y-98988719D01*
X146069138Y-98952981D01*
X145985473Y-98796456D01*
X145933953Y-98626617D01*
X145916557Y-98449990D01*
X145933953Y-98273363D01*
X145985473Y-98103524D01*
X146069138Y-97946999D01*
X146098468Y-97911261D01*
X146181730Y-97809804D01*
X146283187Y-97726542D01*
X146318925Y-97697212D01*
X146475450Y-97613547D01*
X146645289Y-97562027D01*
X146711473Y-97555509D01*
X146777656Y-97548990D01*
X146866176Y-97548990D01*
X146932359Y-97555509D01*
X146932359Y-97555509D01*
G37*
G36*
X149086400Y-96209513D02*
G01*
X149152585Y-96216032D01*
X149322424Y-96267552D01*
X149478949Y-96351217D01*
X149514687Y-96380547D01*
X149616144Y-96463809D01*
X149699406Y-96565266D01*
X149728736Y-96601004D01*
X149812401Y-96757529D01*
X149863921Y-96927368D01*
X149881317Y-97103995D01*
X149863921Y-97280622D01*
X149812401Y-97450461D01*
X149728736Y-97606986D01*
X149699406Y-97642724D01*
X149616144Y-97744181D01*
X149514687Y-97827443D01*
X149478949Y-97856773D01*
X149322424Y-97940438D01*
X149152585Y-97991958D01*
X149086401Y-97998476D01*
X149020218Y-98004995D01*
X148931698Y-98004995D01*
X148865515Y-97998476D01*
X148799331Y-97991958D01*
X148629492Y-97940438D01*
X148472967Y-97856773D01*
X148437229Y-97827443D01*
X148335772Y-97744181D01*
X148252510Y-97642724D01*
X148223180Y-97606986D01*
X148139515Y-97450461D01*
X148087995Y-97280622D01*
X148070599Y-97103995D01*
X148087995Y-96927368D01*
X148139515Y-96757529D01*
X148223180Y-96601004D01*
X148252510Y-96565266D01*
X148335772Y-96463809D01*
X148437229Y-96380547D01*
X148472967Y-96351217D01*
X148629492Y-96267552D01*
X148799331Y-96216032D01*
X148865515Y-96209514D01*
X148931698Y-96202995D01*
X149020218Y-96202995D01*
X149086400Y-96209513D01*
X149086400Y-96209513D01*
G37*
G36*
X117580484Y-96209513D02*
G01*
X117646669Y-96216032D01*
X117816508Y-96267552D01*
X117973033Y-96351217D01*
X118008771Y-96380547D01*
X118110228Y-96463809D01*
X118193490Y-96565266D01*
X118222820Y-96601004D01*
X118306485Y-96757529D01*
X118358005Y-96927368D01*
X118375401Y-97103995D01*
X118358005Y-97280622D01*
X118306485Y-97450461D01*
X118222820Y-97606986D01*
X118193490Y-97642724D01*
X118110228Y-97744181D01*
X118008771Y-97827443D01*
X117973033Y-97856773D01*
X117816508Y-97940438D01*
X117646669Y-97991958D01*
X117580485Y-97998476D01*
X117514302Y-98004995D01*
X117425782Y-98004995D01*
X117359599Y-97998476D01*
X117293415Y-97991958D01*
X117123576Y-97940438D01*
X116967051Y-97856773D01*
X116931313Y-97827443D01*
X116829856Y-97744181D01*
X116746594Y-97642724D01*
X116717264Y-97606986D01*
X116633599Y-97450461D01*
X116582079Y-97280622D01*
X116564683Y-97103995D01*
X116582079Y-96927368D01*
X116633599Y-96757529D01*
X116717264Y-96601004D01*
X116746594Y-96565266D01*
X116829856Y-96463809D01*
X116931313Y-96380547D01*
X116967051Y-96351217D01*
X117123576Y-96267552D01*
X117293415Y-96216032D01*
X117359599Y-96209514D01*
X117425782Y-96202995D01*
X117514302Y-96202995D01*
X117580484Y-96209513D01*
X117580484Y-96209513D01*
G37*
G36*
X116557549Y-95471366D02*
G01*
X115602634Y-96999549D01*
X114074451Y-96044634D01*
X115029366Y-94516451D01*
X116557549Y-95471366D01*
X116557549Y-95471366D01*
G37*
G36*
X152371549Y-96044634D02*
G01*
X150843366Y-96999549D01*
X149888451Y-95471366D01*
X151416634Y-94516451D01*
X152371549Y-96044634D01*
X152371549Y-96044634D01*
G37*
G36*
X145681000Y-93357000D02*
G01*
X143879000Y-93357000D01*
X143879000Y-91555000D01*
X145681000Y-91555000D01*
X145681000Y-93357000D01*
X145681000Y-93357000D01*
G37*
G36*
X147430443Y-91561519D02*
G01*
X147496627Y-91568037D01*
X147666466Y-91619557D01*
X147822991Y-91703222D01*
X147858729Y-91732552D01*
X147960186Y-91815814D01*
X148043448Y-91917271D01*
X148072778Y-91953009D01*
X148156443Y-92109534D01*
X148207963Y-92279373D01*
X148225359Y-92456000D01*
X148207963Y-92632627D01*
X148156443Y-92802466D01*
X148072778Y-92958991D01*
X148043448Y-92994729D01*
X147960186Y-93096186D01*
X147858729Y-93179448D01*
X147822991Y-93208778D01*
X147666466Y-93292443D01*
X147496627Y-93343963D01*
X147430442Y-93350482D01*
X147364260Y-93357000D01*
X147275740Y-93357000D01*
X147209558Y-93350482D01*
X147143373Y-93343963D01*
X146973534Y-93292443D01*
X146817009Y-93208778D01*
X146781271Y-93179448D01*
X146679814Y-93096186D01*
X146596552Y-92994729D01*
X146567222Y-92958991D01*
X146483557Y-92802466D01*
X146432037Y-92632627D01*
X146414641Y-92456000D01*
X146432037Y-92279373D01*
X146483557Y-92109534D01*
X146567222Y-91953009D01*
X146596552Y-91917271D01*
X146679814Y-91815814D01*
X146781271Y-91732552D01*
X146817009Y-91703222D01*
X146973534Y-91619557D01*
X147143373Y-91568037D01*
X147209557Y-91561519D01*
X147275740Y-91555000D01*
X147364260Y-91555000D01*
X147430443Y-91561519D01*
X147430443Y-91561519D01*
G37*
G36*
X121522443Y-91561519D02*
G01*
X121588627Y-91568037D01*
X121758466Y-91619557D01*
X121914991Y-91703222D01*
X121950729Y-91732552D01*
X122052186Y-91815814D01*
X122135448Y-91917271D01*
X122164778Y-91953009D01*
X122248443Y-92109534D01*
X122299963Y-92279373D01*
X122317359Y-92456000D01*
X122299963Y-92632627D01*
X122248443Y-92802466D01*
X122164778Y-92958991D01*
X122135448Y-92994729D01*
X122052186Y-93096186D01*
X121950729Y-93179448D01*
X121914991Y-93208778D01*
X121758466Y-93292443D01*
X121588627Y-93343963D01*
X121522442Y-93350482D01*
X121456260Y-93357000D01*
X121367740Y-93357000D01*
X121301558Y-93350482D01*
X121235373Y-93343963D01*
X121065534Y-93292443D01*
X120909009Y-93208778D01*
X120873271Y-93179448D01*
X120771814Y-93096186D01*
X120688552Y-92994729D01*
X120659222Y-92958991D01*
X120575557Y-92802466D01*
X120524037Y-92632627D01*
X120506641Y-92456000D01*
X120524037Y-92279373D01*
X120575557Y-92109534D01*
X120659222Y-91953009D01*
X120688552Y-91917271D01*
X120771814Y-91815814D01*
X120873271Y-91732552D01*
X120909009Y-91703222D01*
X121065534Y-91619557D01*
X121235373Y-91568037D01*
X121301557Y-91561519D01*
X121367740Y-91555000D01*
X121456260Y-91555000D01*
X121522443Y-91561519D01*
X121522443Y-91561519D01*
G37*
G36*
X119773000Y-93357000D02*
G01*
X117971000Y-93357000D01*
X117971000Y-91555000D01*
X119773000Y-91555000D01*
X119773000Y-93357000D01*
X119773000Y-93357000D01*
G37*
G36*
X124432797Y-89106567D02*
G01*
X124487575Y-89129257D01*
X124487577Y-89129258D01*
X124536876Y-89162198D01*
X124578802Y-89204124D01*
X124611742Y-89253423D01*
X124616067Y-89259896D01*
X124631612Y-89278838D01*
X124650554Y-89294383D01*
X124672165Y-89305934D01*
X124695614Y-89313047D01*
X124720000Y-89315449D01*
X124744386Y-89313047D01*
X124767835Y-89305934D01*
X124789446Y-89294383D01*
X124808388Y-89278838D01*
X124823933Y-89259896D01*
X124828258Y-89253423D01*
X124861198Y-89204124D01*
X124903124Y-89162198D01*
X124952423Y-89129258D01*
X124952425Y-89129257D01*
X125007203Y-89106567D01*
X125065353Y-89095000D01*
X125124647Y-89095000D01*
X125182797Y-89106567D01*
X125237575Y-89129257D01*
X125237577Y-89129258D01*
X125286876Y-89162198D01*
X125328802Y-89204124D01*
X125361742Y-89253423D01*
X125366067Y-89259896D01*
X125381612Y-89278838D01*
X125400554Y-89294383D01*
X125422165Y-89305934D01*
X125445614Y-89313047D01*
X125470000Y-89315449D01*
X125494386Y-89313047D01*
X125517835Y-89305934D01*
X125539446Y-89294383D01*
X125558388Y-89278838D01*
X125573933Y-89259896D01*
X125578258Y-89253423D01*
X125611198Y-89204124D01*
X125653124Y-89162198D01*
X125702423Y-89129258D01*
X125702425Y-89129257D01*
X125757203Y-89106567D01*
X125815353Y-89095000D01*
X125874647Y-89095000D01*
X125932797Y-89106567D01*
X125987575Y-89129257D01*
X125987577Y-89129258D01*
X126036876Y-89162198D01*
X126078802Y-89204124D01*
X126111742Y-89253423D01*
X126111743Y-89253425D01*
X126134433Y-89308203D01*
X126146000Y-89366353D01*
X126146000Y-89425647D01*
X126134433Y-89483797D01*
X126114423Y-89532104D01*
X126111742Y-89538577D01*
X126078802Y-89587876D01*
X126036876Y-89629802D01*
X125987577Y-89662742D01*
X125987576Y-89662743D01*
X125987575Y-89662743D01*
X125932797Y-89685433D01*
X125874647Y-89697000D01*
X125815353Y-89697000D01*
X125757203Y-89685433D01*
X125702425Y-89662743D01*
X125702424Y-89662743D01*
X125702423Y-89662742D01*
X125653124Y-89629802D01*
X125611198Y-89587876D01*
X125578258Y-89538577D01*
X125578257Y-89538575D01*
X125573933Y-89532104D01*
X125558388Y-89513162D01*
X125539446Y-89497617D01*
X125517835Y-89486066D01*
X125494386Y-89478953D01*
X125470000Y-89476551D01*
X125445614Y-89478953D01*
X125422165Y-89486066D01*
X125400554Y-89497617D01*
X125381612Y-89513162D01*
X125366067Y-89532104D01*
X125361743Y-89538575D01*
X125361742Y-89538577D01*
X125328802Y-89587876D01*
X125286876Y-89629802D01*
X125237577Y-89662742D01*
X125237576Y-89662743D01*
X125237575Y-89662743D01*
X125182797Y-89685433D01*
X125124647Y-89697000D01*
X125065353Y-89697000D01*
X125007203Y-89685433D01*
X124952425Y-89662743D01*
X124952424Y-89662743D01*
X124952423Y-89662742D01*
X124903124Y-89629802D01*
X124861198Y-89587876D01*
X124828258Y-89538577D01*
X124828257Y-89538575D01*
X124823933Y-89532104D01*
X124808388Y-89513162D01*
X124789446Y-89497617D01*
X124767835Y-89486066D01*
X124744386Y-89478953D01*
X124720000Y-89476551D01*
X124695614Y-89478953D01*
X124672165Y-89486066D01*
X124650554Y-89497617D01*
X124631612Y-89513162D01*
X124616067Y-89532104D01*
X124611743Y-89538575D01*
X124611742Y-89538577D01*
X124578802Y-89587876D01*
X124536876Y-89629802D01*
X124487577Y-89662742D01*
X124487576Y-89662743D01*
X124487575Y-89662743D01*
X124432797Y-89685433D01*
X124374647Y-89697000D01*
X124315353Y-89697000D01*
X124257203Y-89685433D01*
X124202425Y-89662743D01*
X124202424Y-89662743D01*
X124202423Y-89662742D01*
X124153124Y-89629802D01*
X124111198Y-89587876D01*
X124078258Y-89538577D01*
X124075577Y-89532104D01*
X124055567Y-89483797D01*
X124044000Y-89425647D01*
X124044000Y-89366353D01*
X124055567Y-89308203D01*
X124078257Y-89253425D01*
X124078258Y-89253423D01*
X124111198Y-89204124D01*
X124153124Y-89162198D01*
X124202423Y-89129258D01*
X124202425Y-89129257D01*
X124257203Y-89106567D01*
X124315353Y-89095000D01*
X124374647Y-89095000D01*
X124432797Y-89106567D01*
X124432797Y-89106567D01*
G37*
G36*
X140446797Y-89106567D02*
G01*
X140501575Y-89129257D01*
X140501577Y-89129258D01*
X140550876Y-89162198D01*
X140592802Y-89204124D01*
X140625742Y-89253423D01*
X140630067Y-89259896D01*
X140645612Y-89278838D01*
X140664554Y-89294383D01*
X140686165Y-89305934D01*
X140709614Y-89313047D01*
X140734000Y-89315449D01*
X140758386Y-89313047D01*
X140781835Y-89305934D01*
X140803446Y-89294383D01*
X140822388Y-89278838D01*
X140837933Y-89259896D01*
X140842258Y-89253423D01*
X140875198Y-89204124D01*
X140917124Y-89162198D01*
X140966423Y-89129258D01*
X140966425Y-89129257D01*
X141021203Y-89106567D01*
X141079353Y-89095000D01*
X141138647Y-89095000D01*
X141196797Y-89106567D01*
X141251575Y-89129257D01*
X141251577Y-89129258D01*
X141300876Y-89162198D01*
X141342802Y-89204124D01*
X141375742Y-89253423D01*
X141380067Y-89259896D01*
X141395612Y-89278838D01*
X141414554Y-89294383D01*
X141436165Y-89305934D01*
X141459614Y-89313047D01*
X141484000Y-89315449D01*
X141508386Y-89313047D01*
X141531835Y-89305934D01*
X141553446Y-89294383D01*
X141572388Y-89278838D01*
X141587933Y-89259896D01*
X141592258Y-89253423D01*
X141625198Y-89204124D01*
X141667124Y-89162198D01*
X141716423Y-89129258D01*
X141716425Y-89129257D01*
X141771203Y-89106567D01*
X141829353Y-89095000D01*
X141888647Y-89095000D01*
X141946797Y-89106567D01*
X142001575Y-89129257D01*
X142001577Y-89129258D01*
X142050876Y-89162198D01*
X142092802Y-89204124D01*
X142125742Y-89253423D01*
X142125743Y-89253425D01*
X142148433Y-89308203D01*
X142160000Y-89366353D01*
X142160000Y-89425647D01*
X142148433Y-89483797D01*
X142128423Y-89532104D01*
X142125742Y-89538577D01*
X142092802Y-89587876D01*
X142050876Y-89629802D01*
X142001577Y-89662742D01*
X142001576Y-89662743D01*
X142001575Y-89662743D01*
X141946797Y-89685433D01*
X141888647Y-89697000D01*
X141829353Y-89697000D01*
X141771203Y-89685433D01*
X141716425Y-89662743D01*
X141716424Y-89662743D01*
X141716423Y-89662742D01*
X141667124Y-89629802D01*
X141625198Y-89587876D01*
X141592258Y-89538577D01*
X141592257Y-89538575D01*
X141587933Y-89532104D01*
X141572388Y-89513162D01*
X141553446Y-89497617D01*
X141531835Y-89486066D01*
X141508386Y-89478953D01*
X141484000Y-89476551D01*
X141459614Y-89478953D01*
X141436165Y-89486066D01*
X141414554Y-89497617D01*
X141395612Y-89513162D01*
X141380067Y-89532104D01*
X141375743Y-89538575D01*
X141375742Y-89538577D01*
X141342802Y-89587876D01*
X141300876Y-89629802D01*
X141251577Y-89662742D01*
X141251576Y-89662743D01*
X141251575Y-89662743D01*
X141196797Y-89685433D01*
X141138647Y-89697000D01*
X141079353Y-89697000D01*
X141021203Y-89685433D01*
X140966425Y-89662743D01*
X140966424Y-89662743D01*
X140966423Y-89662742D01*
X140917124Y-89629802D01*
X140875198Y-89587876D01*
X140842258Y-89538577D01*
X140842257Y-89538575D01*
X140837933Y-89532104D01*
X140822388Y-89513162D01*
X140803446Y-89497617D01*
X140781835Y-89486066D01*
X140758386Y-89478953D01*
X140734000Y-89476551D01*
X140709614Y-89478953D01*
X140686165Y-89486066D01*
X140664554Y-89497617D01*
X140645612Y-89513162D01*
X140630067Y-89532104D01*
X140625743Y-89538575D01*
X140625742Y-89538577D01*
X140592802Y-89587876D01*
X140550876Y-89629802D01*
X140501577Y-89662742D01*
X140501576Y-89662743D01*
X140501575Y-89662743D01*
X140446797Y-89685433D01*
X140388647Y-89697000D01*
X140329353Y-89697000D01*
X140271203Y-89685433D01*
X140216425Y-89662743D01*
X140216424Y-89662743D01*
X140216423Y-89662742D01*
X140167124Y-89629802D01*
X140125198Y-89587876D01*
X140092258Y-89538577D01*
X140089577Y-89532104D01*
X140069567Y-89483797D01*
X140058000Y-89425647D01*
X140058000Y-89366353D01*
X140069567Y-89308203D01*
X140092257Y-89253425D01*
X140092258Y-89253423D01*
X140125198Y-89204124D01*
X140167124Y-89162198D01*
X140216423Y-89129258D01*
X140216425Y-89129257D01*
X140271203Y-89106567D01*
X140329353Y-89095000D01*
X140388647Y-89095000D01*
X140446797Y-89106567D01*
X140446797Y-89106567D01*
G37*
G36*
X124432797Y-87606567D02*
G01*
X124487575Y-87629257D01*
X124487577Y-87629258D01*
X124536876Y-87662198D01*
X124578802Y-87704124D01*
X124611742Y-87753423D01*
X124616067Y-87759896D01*
X124631612Y-87778838D01*
X124650554Y-87794383D01*
X124672165Y-87805934D01*
X124695614Y-87813047D01*
X124720000Y-87815449D01*
X124744386Y-87813047D01*
X124767835Y-87805934D01*
X124789446Y-87794383D01*
X124808388Y-87778838D01*
X124823933Y-87759896D01*
X124828258Y-87753423D01*
X124861198Y-87704124D01*
X124903124Y-87662198D01*
X124952423Y-87629258D01*
X124952425Y-87629257D01*
X125007203Y-87606567D01*
X125065353Y-87595000D01*
X125124647Y-87595000D01*
X125182797Y-87606567D01*
X125237575Y-87629257D01*
X125237577Y-87629258D01*
X125286876Y-87662198D01*
X125328802Y-87704124D01*
X125361742Y-87753423D01*
X125366067Y-87759896D01*
X125381612Y-87778838D01*
X125400554Y-87794383D01*
X125422165Y-87805934D01*
X125445614Y-87813047D01*
X125470000Y-87815449D01*
X125494386Y-87813047D01*
X125517835Y-87805934D01*
X125539446Y-87794383D01*
X125558388Y-87778838D01*
X125573933Y-87759896D01*
X125578258Y-87753423D01*
X125611198Y-87704124D01*
X125653124Y-87662198D01*
X125702423Y-87629258D01*
X125702425Y-87629257D01*
X125757203Y-87606567D01*
X125815353Y-87595000D01*
X125874647Y-87595000D01*
X125932797Y-87606567D01*
X125987575Y-87629257D01*
X125987577Y-87629258D01*
X126036876Y-87662198D01*
X126078802Y-87704124D01*
X126111742Y-87753423D01*
X126111743Y-87753425D01*
X126134433Y-87808203D01*
X126146000Y-87866353D01*
X126146000Y-87925647D01*
X126134433Y-87983797D01*
X126114423Y-88032104D01*
X126111742Y-88038577D01*
X126078802Y-88087876D01*
X126036876Y-88129802D01*
X125987577Y-88162742D01*
X125987576Y-88162743D01*
X125987575Y-88162743D01*
X125932797Y-88185433D01*
X125874647Y-88197000D01*
X125815353Y-88197000D01*
X125757203Y-88185433D01*
X125702425Y-88162743D01*
X125702424Y-88162743D01*
X125702423Y-88162742D01*
X125653124Y-88129802D01*
X125611198Y-88087876D01*
X125578258Y-88038577D01*
X125578257Y-88038575D01*
X125573933Y-88032104D01*
X125558388Y-88013162D01*
X125539446Y-87997617D01*
X125517835Y-87986066D01*
X125494386Y-87978953D01*
X125470000Y-87976551D01*
X125445614Y-87978953D01*
X125422165Y-87986066D01*
X125400554Y-87997617D01*
X125381612Y-88013162D01*
X125366067Y-88032104D01*
X125361743Y-88038575D01*
X125361742Y-88038577D01*
X125328802Y-88087876D01*
X125286876Y-88129802D01*
X125237577Y-88162742D01*
X125237576Y-88162743D01*
X125237575Y-88162743D01*
X125182797Y-88185433D01*
X125124647Y-88197000D01*
X125065353Y-88197000D01*
X125007203Y-88185433D01*
X124952425Y-88162743D01*
X124952424Y-88162743D01*
X124952423Y-88162742D01*
X124903124Y-88129802D01*
X124861198Y-88087876D01*
X124828258Y-88038577D01*
X124828257Y-88038575D01*
X124823933Y-88032104D01*
X124808388Y-88013162D01*
X124789446Y-87997617D01*
X124767835Y-87986066D01*
X124744386Y-87978953D01*
X124720000Y-87976551D01*
X124695614Y-87978953D01*
X124672165Y-87986066D01*
X124650554Y-87997617D01*
X124631612Y-88013162D01*
X124616067Y-88032104D01*
X124611743Y-88038575D01*
X124611742Y-88038577D01*
X124578802Y-88087876D01*
X124536876Y-88129802D01*
X124487577Y-88162742D01*
X124487576Y-88162743D01*
X124487575Y-88162743D01*
X124432797Y-88185433D01*
X124374647Y-88197000D01*
X124315353Y-88197000D01*
X124257203Y-88185433D01*
X124202425Y-88162743D01*
X124202424Y-88162743D01*
X124202423Y-88162742D01*
X124153124Y-88129802D01*
X124111198Y-88087876D01*
X124078258Y-88038577D01*
X124075577Y-88032104D01*
X124055567Y-87983797D01*
X124044000Y-87925647D01*
X124044000Y-87866353D01*
X124055567Y-87808203D01*
X124078257Y-87753425D01*
X124078258Y-87753423D01*
X124111198Y-87704124D01*
X124153124Y-87662198D01*
X124202423Y-87629258D01*
X124202425Y-87629257D01*
X124257203Y-87606567D01*
X124315353Y-87595000D01*
X124374647Y-87595000D01*
X124432797Y-87606567D01*
X124432797Y-87606567D01*
G37*
G36*
X140446797Y-87606567D02*
G01*
X140501575Y-87629257D01*
X140501577Y-87629258D01*
X140550876Y-87662198D01*
X140592802Y-87704124D01*
X140625742Y-87753423D01*
X140630067Y-87759896D01*
X140645612Y-87778838D01*
X140664554Y-87794383D01*
X140686165Y-87805934D01*
X140709614Y-87813047D01*
X140734000Y-87815449D01*
X140758386Y-87813047D01*
X140781835Y-87805934D01*
X140803446Y-87794383D01*
X140822388Y-87778838D01*
X140837933Y-87759896D01*
X140842258Y-87753423D01*
X140875198Y-87704124D01*
X140917124Y-87662198D01*
X140966423Y-87629258D01*
X140966425Y-87629257D01*
X141021203Y-87606567D01*
X141079353Y-87595000D01*
X141138647Y-87595000D01*
X141196797Y-87606567D01*
X141251575Y-87629257D01*
X141251577Y-87629258D01*
X141300876Y-87662198D01*
X141342802Y-87704124D01*
X141375742Y-87753423D01*
X141380067Y-87759896D01*
X141395612Y-87778838D01*
X141414554Y-87794383D01*
X141436165Y-87805934D01*
X141459614Y-87813047D01*
X141484000Y-87815449D01*
X141508386Y-87813047D01*
X141531835Y-87805934D01*
X141553446Y-87794383D01*
X141572388Y-87778838D01*
X141587933Y-87759896D01*
X141592258Y-87753423D01*
X141625198Y-87704124D01*
X141667124Y-87662198D01*
X141716423Y-87629258D01*
X141716425Y-87629257D01*
X141771203Y-87606567D01*
X141829353Y-87595000D01*
X141888647Y-87595000D01*
X141946797Y-87606567D01*
X142001575Y-87629257D01*
X142001577Y-87629258D01*
X142050876Y-87662198D01*
X142092802Y-87704124D01*
X142125742Y-87753423D01*
X142125743Y-87753425D01*
X142148433Y-87808203D01*
X142160000Y-87866353D01*
X142160000Y-87925647D01*
X142148433Y-87983797D01*
X142128423Y-88032104D01*
X142125742Y-88038577D01*
X142092802Y-88087876D01*
X142050876Y-88129802D01*
X142001577Y-88162742D01*
X142001576Y-88162743D01*
X142001575Y-88162743D01*
X141946797Y-88185433D01*
X141888647Y-88197000D01*
X141829353Y-88197000D01*
X141771203Y-88185433D01*
X141716425Y-88162743D01*
X141716424Y-88162743D01*
X141716423Y-88162742D01*
X141667124Y-88129802D01*
X141625198Y-88087876D01*
X141592258Y-88038577D01*
X141592257Y-88038575D01*
X141587933Y-88032104D01*
X141572388Y-88013162D01*
X141553446Y-87997617D01*
X141531835Y-87986066D01*
X141508386Y-87978953D01*
X141484000Y-87976551D01*
X141459614Y-87978953D01*
X141436165Y-87986066D01*
X141414554Y-87997617D01*
X141395612Y-88013162D01*
X141380067Y-88032104D01*
X141375743Y-88038575D01*
X141375742Y-88038577D01*
X141342802Y-88087876D01*
X141300876Y-88129802D01*
X141251577Y-88162742D01*
X141251576Y-88162743D01*
X141251575Y-88162743D01*
X141196797Y-88185433D01*
X141138647Y-88197000D01*
X141079353Y-88197000D01*
X141021203Y-88185433D01*
X140966425Y-88162743D01*
X140966424Y-88162743D01*
X140966423Y-88162742D01*
X140917124Y-88129802D01*
X140875198Y-88087876D01*
X140842258Y-88038577D01*
X140842257Y-88038575D01*
X140837933Y-88032104D01*
X140822388Y-88013162D01*
X140803446Y-87997617D01*
X140781835Y-87986066D01*
X140758386Y-87978953D01*
X140734000Y-87976551D01*
X140709614Y-87978953D01*
X140686165Y-87986066D01*
X140664554Y-87997617D01*
X140645612Y-88013162D01*
X140630067Y-88032104D01*
X140625743Y-88038575D01*
X140625742Y-88038577D01*
X140592802Y-88087876D01*
X140550876Y-88129802D01*
X140501577Y-88162742D01*
X140501576Y-88162743D01*
X140501575Y-88162743D01*
X140446797Y-88185433D01*
X140388647Y-88197000D01*
X140329353Y-88197000D01*
X140271203Y-88185433D01*
X140216425Y-88162743D01*
X140216424Y-88162743D01*
X140216423Y-88162742D01*
X140167124Y-88129802D01*
X140125198Y-88087876D01*
X140092258Y-88038577D01*
X140089577Y-88032104D01*
X140069567Y-87983797D01*
X140058000Y-87925647D01*
X140058000Y-87866353D01*
X140069567Y-87808203D01*
X140092257Y-87753425D01*
X140092258Y-87753423D01*
X140125198Y-87704124D01*
X140167124Y-87662198D01*
X140216423Y-87629258D01*
X140216425Y-87629257D01*
X140271203Y-87606567D01*
X140329353Y-87595000D01*
X140388647Y-87595000D01*
X140446797Y-87606567D01*
X140446797Y-87606567D01*
G37*
G36*
X141584578Y-85316197D02*
G01*
X141637350Y-85326694D01*
X141736770Y-85367875D01*
X141826246Y-85427661D01*
X141902339Y-85503754D01*
X141962125Y-85593230D01*
X142003306Y-85692650D01*
X142024300Y-85798194D01*
X142024300Y-85905806D01*
X142003306Y-86011350D01*
X141962125Y-86110770D01*
X141902339Y-86200246D01*
X141826246Y-86276339D01*
X141736770Y-86336125D01*
X141637350Y-86377306D01*
X141584578Y-86387803D01*
X141531807Y-86398300D01*
X141424193Y-86398300D01*
X141371422Y-86387803D01*
X141318650Y-86377306D01*
X141219230Y-86336125D01*
X141129754Y-86276339D01*
X141053661Y-86200246D01*
X140993875Y-86110770D01*
X140952694Y-86011350D01*
X140931700Y-85905806D01*
X140931700Y-85798194D01*
X140952694Y-85692650D01*
X140993875Y-85593230D01*
X141053661Y-85503754D01*
X141129754Y-85427661D01*
X141219230Y-85367875D01*
X141318650Y-85326694D01*
X141371422Y-85316197D01*
X141424193Y-85305700D01*
X141531807Y-85305700D01*
X141584578Y-85316197D01*
X141584578Y-85316197D01*
G37*
G36*
X148221000Y-86245000D02*
G01*
X146419000Y-86245000D01*
X146419000Y-84443000D01*
X148221000Y-84443000D01*
X148221000Y-86245000D01*
X148221000Y-86245000D01*
G37*
G36*
X149970442Y-84449518D02*
G01*
X150036627Y-84456037D01*
X150206466Y-84507557D01*
X150362991Y-84591222D01*
X150398729Y-84620552D01*
X150500186Y-84703814D01*
X150583448Y-84805271D01*
X150612778Y-84841009D01*
X150696443Y-84997534D01*
X150747963Y-85167373D01*
X150765359Y-85344000D01*
X150747963Y-85520627D01*
X150696443Y-85690466D01*
X150612778Y-85846991D01*
X150583448Y-85882729D01*
X150500186Y-85984186D01*
X150398729Y-86067448D01*
X150362991Y-86096778D01*
X150206466Y-86180443D01*
X150036627Y-86231963D01*
X149970442Y-86238482D01*
X149904260Y-86245000D01*
X149815740Y-86245000D01*
X149749558Y-86238482D01*
X149683373Y-86231963D01*
X149513534Y-86180443D01*
X149357009Y-86096778D01*
X149321271Y-86067448D01*
X149219814Y-85984186D01*
X149136552Y-85882729D01*
X149107222Y-85846991D01*
X149023557Y-85690466D01*
X148972037Y-85520627D01*
X148954641Y-85344000D01*
X148972037Y-85167373D01*
X149023557Y-84997534D01*
X149107222Y-84841009D01*
X149136552Y-84805271D01*
X149219814Y-84703814D01*
X149321271Y-84620552D01*
X149357009Y-84591222D01*
X149513534Y-84507557D01*
X149683373Y-84456037D01*
X149749558Y-84449518D01*
X149815740Y-84443000D01*
X149904260Y-84443000D01*
X149970442Y-84449518D01*
X149970442Y-84449518D01*
G37*
G36*
X118474443Y-83941519D02*
G01*
X118540627Y-83948037D01*
X118710466Y-83999557D01*
X118866991Y-84083222D01*
X118902729Y-84112552D01*
X119004186Y-84195814D01*
X119044010Y-84244341D01*
X119116778Y-84333009D01*
X119200443Y-84489534D01*
X119251963Y-84659373D01*
X119269359Y-84836000D01*
X119251963Y-85012627D01*
X119200443Y-85182466D01*
X119116778Y-85338991D01*
X119087448Y-85374729D01*
X119004186Y-85476186D01*
X118902729Y-85559448D01*
X118866991Y-85588778D01*
X118710466Y-85672443D01*
X118540627Y-85723963D01*
X118474443Y-85730481D01*
X118408260Y-85737000D01*
X118319740Y-85737000D01*
X118253557Y-85730481D01*
X118187373Y-85723963D01*
X118017534Y-85672443D01*
X117861009Y-85588778D01*
X117825271Y-85559448D01*
X117723814Y-85476186D01*
X117640552Y-85374729D01*
X117611222Y-85338991D01*
X117527557Y-85182466D01*
X117476037Y-85012627D01*
X117458641Y-84836000D01*
X117476037Y-84659373D01*
X117527557Y-84489534D01*
X117611222Y-84333009D01*
X117683990Y-84244341D01*
X117723814Y-84195814D01*
X117825271Y-84112552D01*
X117861009Y-84083222D01*
X118017534Y-83999557D01*
X118187373Y-83948037D01*
X118253557Y-83941519D01*
X118319740Y-83935000D01*
X118408260Y-83935000D01*
X118474443Y-83941519D01*
X118474443Y-83941519D01*
G37*
G36*
X116725000Y-85737000D02*
G01*
X114923000Y-85737000D01*
X114923000Y-83935000D01*
X116725000Y-83935000D01*
X116725000Y-85737000D01*
X116725000Y-85737000D01*
G37*
G36*
X136504578Y-84300197D02*
G01*
X136557350Y-84310694D01*
X136656770Y-84351875D01*
X136746246Y-84411661D01*
X136822339Y-84487754D01*
X136882125Y-84577230D01*
X136923306Y-84676650D01*
X136944300Y-84782194D01*
X136944300Y-84889806D01*
X136923306Y-84995350D01*
X136882125Y-85094770D01*
X136822339Y-85184246D01*
X136746246Y-85260339D01*
X136656770Y-85320125D01*
X136557350Y-85361306D01*
X136524325Y-85367875D01*
X136451807Y-85382300D01*
X136344193Y-85382300D01*
X136271675Y-85367875D01*
X136238650Y-85361306D01*
X136139230Y-85320125D01*
X136049754Y-85260339D01*
X135973661Y-85184246D01*
X135913875Y-85094770D01*
X135872694Y-84995350D01*
X135851700Y-84889806D01*
X135851700Y-84782194D01*
X135872694Y-84676650D01*
X135913875Y-84577230D01*
X135973661Y-84487754D01*
X136049754Y-84411661D01*
X136139230Y-84351875D01*
X136238650Y-84310694D01*
X136291422Y-84300197D01*
X136344193Y-84289700D01*
X136451807Y-84289700D01*
X136504578Y-84300197D01*
X136504578Y-84300197D01*
G37*
G36*
X141584578Y-83284197D02*
G01*
X141637350Y-83294694D01*
X141736770Y-83335875D01*
X141826246Y-83395661D01*
X141902339Y-83471754D01*
X141962125Y-83561230D01*
X142003306Y-83660650D01*
X142024300Y-83766194D01*
X142024300Y-83873806D01*
X142003306Y-83979350D01*
X141962125Y-84078770D01*
X141902339Y-84168246D01*
X141826246Y-84244339D01*
X141736770Y-84304125D01*
X141637350Y-84345306D01*
X141604325Y-84351875D01*
X141531807Y-84366300D01*
X141424193Y-84366300D01*
X141351675Y-84351875D01*
X141318650Y-84345306D01*
X141219230Y-84304125D01*
X141129754Y-84244339D01*
X141053661Y-84168246D01*
X140993875Y-84078770D01*
X140952694Y-83979350D01*
X140931700Y-83873806D01*
X140931700Y-83766194D01*
X140952694Y-83660650D01*
X140993875Y-83561230D01*
X141053661Y-83471754D01*
X141129754Y-83395661D01*
X141219230Y-83335875D01*
X141318650Y-83294694D01*
X141371422Y-83284197D01*
X141424193Y-83273700D01*
X141531807Y-83273700D01*
X141584578Y-83284197D01*
X141584578Y-83284197D01*
G37*
G36*
X152117549Y-81247366D02*
G01*
X151162634Y-82775549D01*
X149634451Y-81820634D01*
X150589366Y-80292451D01*
X152117549Y-81247366D01*
X152117549Y-81247366D01*
G37*
G36*
X116313465Y-81718624D02*
G01*
X114785282Y-82673539D01*
X113830367Y-81145356D01*
X115358550Y-80190441D01*
X116313465Y-81718624D01*
X116313465Y-81718624D01*
G37*
G36*
X134128300Y-63326703D02*
G01*
X135640494Y-63627497D01*
X137267652Y-64301488D01*
X138732055Y-65279972D01*
X139977428Y-66525345D01*
X140955912Y-67989748D01*
X141629903Y-69616906D01*
X141930697Y-71129100D01*
X141973500Y-71344287D01*
X141973500Y-73105513D01*
X141948338Y-73232010D01*
X141629903Y-74832894D01*
X140955912Y-76460052D01*
X139977428Y-77924455D01*
X138732055Y-79169828D01*
X137267652Y-80148312D01*
X135640494Y-80822303D01*
X134128300Y-81123097D01*
X133913113Y-81165900D01*
X132151887Y-81165900D01*
X131936700Y-81123097D01*
X130424506Y-80822303D01*
X128797348Y-80148312D01*
X127332945Y-79169828D01*
X126087572Y-77924455D01*
X125109088Y-76460052D01*
X124435097Y-74832894D01*
X124116662Y-73232010D01*
X124091500Y-73105513D01*
X124091500Y-71344287D01*
X124134303Y-71129100D01*
X124435097Y-69616906D01*
X125109088Y-67989748D01*
X126087572Y-66525345D01*
X127332945Y-65279972D01*
X128797348Y-64301488D01*
X130424506Y-63627497D01*
X131936700Y-63326703D01*
X132151887Y-63283900D01*
X133913113Y-63283900D01*
X134128300Y-63326703D01*
X134128300Y-63326703D01*
G37*
G36*
X148832400Y-79293523D02*
G01*
X148898585Y-79300042D01*
X149068424Y-79351562D01*
X149224949Y-79435227D01*
X149237843Y-79445809D01*
X149362144Y-79547819D01*
X149445406Y-79649276D01*
X149474736Y-79685014D01*
X149558401Y-79841539D01*
X149609921Y-80011378D01*
X149627317Y-80188005D01*
X149609921Y-80364632D01*
X149558401Y-80534471D01*
X149474736Y-80690996D01*
X149445861Y-80726180D01*
X149362144Y-80828191D01*
X149260687Y-80911453D01*
X149224949Y-80940783D01*
X149068424Y-81024448D01*
X148898585Y-81075968D01*
X148832401Y-81082486D01*
X148766218Y-81089005D01*
X148677698Y-81089005D01*
X148611515Y-81082486D01*
X148545331Y-81075968D01*
X148375492Y-81024448D01*
X148218967Y-80940783D01*
X148183229Y-80911453D01*
X148081772Y-80828191D01*
X147998055Y-80726180D01*
X147969180Y-80690996D01*
X147885515Y-80534471D01*
X147833995Y-80364632D01*
X147816599Y-80188005D01*
X147833995Y-80011378D01*
X147885515Y-79841539D01*
X147969180Y-79685014D01*
X147998510Y-79649276D01*
X148081772Y-79547819D01*
X148206073Y-79445809D01*
X148218967Y-79435227D01*
X148375492Y-79351562D01*
X148545331Y-79300042D01*
X148611516Y-79293523D01*
X148677698Y-79287005D01*
X148766218Y-79287005D01*
X148832400Y-79293523D01*
X148832400Y-79293523D01*
G37*
G36*
X117336400Y-79191513D02*
G01*
X117402585Y-79198032D01*
X117572424Y-79249552D01*
X117728949Y-79333217D01*
X117764687Y-79362547D01*
X117866144Y-79445809D01*
X117949406Y-79547266D01*
X117978736Y-79583004D01*
X118062401Y-79739529D01*
X118113921Y-79909368D01*
X118131317Y-80085995D01*
X118113921Y-80262622D01*
X118062401Y-80432461D01*
X117978736Y-80588986D01*
X117949406Y-80624724D01*
X117866144Y-80726181D01*
X117764687Y-80809443D01*
X117728949Y-80838773D01*
X117572424Y-80922438D01*
X117402585Y-80973958D01*
X117336401Y-80980476D01*
X117270218Y-80986995D01*
X117181698Y-80986995D01*
X117115515Y-80980476D01*
X117049331Y-80973958D01*
X116879492Y-80922438D01*
X116722967Y-80838773D01*
X116687229Y-80809443D01*
X116585772Y-80726181D01*
X116502510Y-80624724D01*
X116473180Y-80588986D01*
X116389515Y-80432461D01*
X116337995Y-80262622D01*
X116320599Y-80085995D01*
X116337995Y-79909368D01*
X116389515Y-79739529D01*
X116473180Y-79583004D01*
X116502510Y-79547266D01*
X116585772Y-79445809D01*
X116687229Y-79362547D01*
X116722967Y-79333217D01*
X116879492Y-79249552D01*
X117049331Y-79198032D01*
X117115516Y-79191513D01*
X117181698Y-79184995D01*
X117270218Y-79184995D01*
X117336400Y-79191513D01*
X117336400Y-79191513D01*
G37*
G36*
X146678359Y-77947529D02*
G01*
X146744543Y-77954047D01*
X146914382Y-78005567D01*
X147070907Y-78089232D01*
X147083801Y-78099814D01*
X147208102Y-78201824D01*
X147291364Y-78303281D01*
X147320694Y-78339019D01*
X147404359Y-78495544D01*
X147455879Y-78665383D01*
X147473275Y-78842010D01*
X147455879Y-79018637D01*
X147404359Y-79188476D01*
X147320694Y-79345001D01*
X147291819Y-79380185D01*
X147208102Y-79482196D01*
X147106645Y-79565458D01*
X147070907Y-79594788D01*
X146914382Y-79678453D01*
X146744543Y-79729973D01*
X146678359Y-79736491D01*
X146612176Y-79743010D01*
X146523656Y-79743010D01*
X146457473Y-79736491D01*
X146391289Y-79729973D01*
X146221450Y-79678453D01*
X146064925Y-79594788D01*
X146029187Y-79565458D01*
X145927730Y-79482196D01*
X145844013Y-79380185D01*
X145815138Y-79345001D01*
X145731473Y-79188476D01*
X145679953Y-79018637D01*
X145662557Y-78842010D01*
X145679953Y-78665383D01*
X145731473Y-78495544D01*
X145815138Y-78339019D01*
X145844468Y-78303281D01*
X145927730Y-78201824D01*
X146052031Y-78099814D01*
X146064925Y-78089232D01*
X146221450Y-78005567D01*
X146391289Y-77954047D01*
X146457473Y-77947529D01*
X146523656Y-77941010D01*
X146612176Y-77941010D01*
X146678359Y-77947529D01*
X146678359Y-77947529D01*
G37*
G36*
X119490443Y-77845519D02*
G01*
X119556627Y-77852037D01*
X119726466Y-77903557D01*
X119882991Y-77987222D01*
X119918729Y-78016552D01*
X120020186Y-78099814D01*
X120103448Y-78201271D01*
X120132778Y-78237009D01*
X120216443Y-78393534D01*
X120267963Y-78563373D01*
X120285359Y-78740000D01*
X120267963Y-78916627D01*
X120216443Y-79086466D01*
X120132778Y-79242991D01*
X120103448Y-79278729D01*
X120020186Y-79380186D01*
X119918729Y-79463448D01*
X119882991Y-79492778D01*
X119726466Y-79576443D01*
X119556627Y-79627963D01*
X119490442Y-79634482D01*
X119424260Y-79641000D01*
X119335740Y-79641000D01*
X119269558Y-79634482D01*
X119203373Y-79627963D01*
X119033534Y-79576443D01*
X118877009Y-79492778D01*
X118841271Y-79463448D01*
X118739814Y-79380186D01*
X118656552Y-79278729D01*
X118627222Y-79242991D01*
X118543557Y-79086466D01*
X118492037Y-78916627D01*
X118474641Y-78740000D01*
X118492037Y-78563373D01*
X118543557Y-78393534D01*
X118627222Y-78237009D01*
X118656552Y-78201271D01*
X118739814Y-78099814D01*
X118841271Y-78016552D01*
X118877009Y-77987222D01*
X119033534Y-77903557D01*
X119203373Y-77852037D01*
X119269557Y-77845519D01*
X119335740Y-77839000D01*
X119424260Y-77839000D01*
X119490443Y-77845519D01*
X119490443Y-77845519D01*
G37*
G36*
X144524316Y-76601533D02*
G01*
X144590501Y-76608052D01*
X144760340Y-76659572D01*
X144916865Y-76743237D01*
X144929759Y-76753819D01*
X145054060Y-76855829D01*
X145137322Y-76957286D01*
X145166652Y-76993024D01*
X145250317Y-77149549D01*
X145301837Y-77319388D01*
X145319233Y-77496015D01*
X145301837Y-77672642D01*
X145250317Y-77842481D01*
X145166652Y-77999006D01*
X145137777Y-78034190D01*
X145054060Y-78136201D01*
X144952603Y-78219463D01*
X144916865Y-78248793D01*
X144760340Y-78332458D01*
X144590501Y-78383978D01*
X144524316Y-78390497D01*
X144458134Y-78397015D01*
X144369614Y-78397015D01*
X144303432Y-78390497D01*
X144237247Y-78383978D01*
X144067408Y-78332458D01*
X143910883Y-78248793D01*
X143875145Y-78219463D01*
X143773688Y-78136201D01*
X143689971Y-78034190D01*
X143661096Y-77999006D01*
X143577431Y-77842481D01*
X143525911Y-77672642D01*
X143508515Y-77496015D01*
X143525911Y-77319388D01*
X143577431Y-77149549D01*
X143661096Y-76993024D01*
X143690426Y-76957286D01*
X143773688Y-76855829D01*
X143897989Y-76753819D01*
X143910883Y-76743237D01*
X144067408Y-76659572D01*
X144237247Y-76608052D01*
X144303432Y-76601533D01*
X144369614Y-76595015D01*
X144458134Y-76595015D01*
X144524316Y-76601533D01*
X144524316Y-76601533D01*
G37*
G36*
X121644484Y-76499523D02*
G01*
X121710669Y-76506042D01*
X121880508Y-76557562D01*
X122037033Y-76641227D01*
X122072771Y-76670557D01*
X122174228Y-76753819D01*
X122257490Y-76855276D01*
X122286820Y-76891014D01*
X122370485Y-77047539D01*
X122422005Y-77217378D01*
X122439401Y-77394005D01*
X122422005Y-77570632D01*
X122370485Y-77740471D01*
X122286820Y-77896996D01*
X122264285Y-77924455D01*
X122174228Y-78034191D01*
X122072771Y-78117453D01*
X122037033Y-78146783D01*
X121880508Y-78230448D01*
X121710669Y-78281968D01*
X121644484Y-78288487D01*
X121578302Y-78295005D01*
X121489782Y-78295005D01*
X121423600Y-78288487D01*
X121357415Y-78281968D01*
X121187576Y-78230448D01*
X121031051Y-78146783D01*
X120995313Y-78117453D01*
X120893856Y-78034191D01*
X120803799Y-77924455D01*
X120781264Y-77896996D01*
X120697599Y-77740471D01*
X120646079Y-77570632D01*
X120628683Y-77394005D01*
X120646079Y-77217378D01*
X120697599Y-77047539D01*
X120781264Y-76891014D01*
X120810594Y-76855276D01*
X120893856Y-76753819D01*
X120995313Y-76670557D01*
X121031051Y-76641227D01*
X121187576Y-76557562D01*
X121357415Y-76506042D01*
X121423600Y-76499523D01*
X121489782Y-76493005D01*
X121578302Y-76493005D01*
X121644484Y-76499523D01*
X121644484Y-76499523D01*
G37*
G36*
X145783500Y-74815900D02*
G01*
X143141500Y-74815900D01*
X143141500Y-69633900D01*
X145783500Y-69633900D01*
X145783500Y-74815900D01*
X145783500Y-74815900D01*
G37*
G36*
X122923500Y-74815900D02*
G01*
X120281500Y-74815900D01*
X120281500Y-69633900D01*
X122923500Y-69633900D01*
X122923500Y-74815900D01*
X122923500Y-74815900D01*
G37*
M02*
