G04 #@! TF.GenerationSoftware,KiCad,Pcbnew,(5.1.0)-1*
G04 #@! TF.CreationDate,2019-03-21T23:03:58+11:00*
G04 #@! TF.ProjectId,top-hemi,746f702d-6865-46d6-992e-6b696361645f,rev?*
G04 #@! TF.SameCoordinates,Original*
G04 #@! TF.FileFunction,Copper,L2,Bot*
G04 #@! TF.FilePolarity,Positive*
%FSLAX46Y46*%
G04 Gerber Fmt 4.6, Leading zero omitted, Abs format (unit mm)*
G04 Created by KiCad (PCBNEW (5.1.0)-1) date 2019-03-21 23:03:58*
%MOMM*%
%LPD*%
G04 APERTURE LIST*
%ADD10R,2.540000X5.080000*%
%ADD11C,17.780000*%
%ADD12C,1.700000*%
%ADD13C,0.100000*%
%ADD14C,1.700000*%
%ADD15O,1.700000X1.700000*%
%ADD16R,1.700000X1.700000*%
%ADD17C,0.500000*%
%ADD18C,0.152400*%
%ADD19C,0.254000*%
G04 APERTURE END LIST*
D10*
X144462500Y-72224900D03*
X121602500Y-72224900D03*
D11*
X133032500Y-72224900D03*
X132956300Y-105105200D03*
D10*
X144386300Y-105105200D03*
X121526300Y-105105200D03*
D12*
X115071916Y-81431990D03*
D13*
G36*
X116243188Y-81702400D02*
G01*
X114801506Y-82603262D01*
X113900644Y-81161580D01*
X115342326Y-80260718D01*
X116243188Y-81702400D01*
X116243188Y-81702400D01*
G37*
D12*
X117225958Y-80085995D03*
D14*
X117225958Y-80085995D02*
X117225958Y-80085995D01*
D12*
X119380000Y-78740000D03*
D14*
X119380000Y-78740000D02*
X119380000Y-78740000D01*
D12*
X121534042Y-77394005D03*
D14*
X121534042Y-77394005D02*
X121534042Y-77394005D01*
D12*
X144413874Y-77496015D03*
D14*
X144413874Y-77496015D02*
X144413874Y-77496015D01*
D12*
X146567916Y-78842010D03*
D14*
X146567916Y-78842010D02*
X146567916Y-78842010D01*
D12*
X148721958Y-80188005D03*
D14*
X148721958Y-80188005D02*
X148721958Y-80188005D01*
D12*
X150876000Y-81534000D03*
D13*
G36*
X150605590Y-80362728D02*
G01*
X152047272Y-81263590D01*
X151146410Y-82705272D01*
X149704728Y-81804410D01*
X150605590Y-80362728D01*
X150605590Y-80362728D01*
G37*
D12*
X151130000Y-95758000D03*
D13*
G36*
X149958728Y-95487590D02*
G01*
X151400410Y-94586728D01*
X152301272Y-96028410D01*
X150859590Y-96929272D01*
X149958728Y-95487590D01*
X149958728Y-95487590D01*
G37*
D12*
X148975958Y-97103995D03*
D14*
X148975958Y-97103995D02*
X148975958Y-97103995D01*
D12*
X146821916Y-98449990D03*
D14*
X146821916Y-98449990D02*
X146821916Y-98449990D01*
D12*
X144667874Y-99795985D03*
D14*
X144667874Y-99795985D02*
X144667874Y-99795985D01*
D12*
X121778126Y-99795985D03*
D14*
X121778126Y-99795985D02*
X121778126Y-99795985D01*
D12*
X119624084Y-98449990D03*
D14*
X119624084Y-98449990D02*
X119624084Y-98449990D01*
D12*
X117470042Y-97103995D03*
D14*
X117470042Y-97103995D02*
X117470042Y-97103995D01*
D12*
X115316000Y-95758000D03*
D13*
G36*
X115586410Y-96929272D02*
G01*
X114144728Y-96028410D01*
X115045590Y-94586728D01*
X116487272Y-95487590D01*
X115586410Y-96929272D01*
X115586410Y-96929272D01*
G37*
D15*
X118364000Y-84836000D03*
D16*
X115824000Y-84836000D03*
X147320000Y-85344000D03*
D15*
X149860000Y-85344000D03*
D16*
X118872000Y-92456000D03*
D15*
X121412000Y-92456000D03*
X147320000Y-92456000D03*
D16*
X144780000Y-92456000D03*
D17*
X141478000Y-82550000D03*
X137414000Y-82550000D03*
X140135051Y-83216092D03*
X134816895Y-82146706D03*
X123444000Y-96774000D03*
X137922000Y-105664000D03*
X129032000Y-105664000D03*
X137922000Y-102616000D03*
X129032000Y-102362000D03*
X122174000Y-84328000D03*
X153416000Y-95758000D03*
X127757481Y-81309390D03*
X124124746Y-83054023D03*
X141202690Y-78159101D03*
X132097194Y-83237269D03*
X139700000Y-79502000D03*
X146812000Y-81280000D03*
X133096000Y-83595390D03*
X135193463Y-86352023D03*
X137659196Y-85555911D03*
X140040208Y-81772331D03*
X142113000Y-96647000D03*
X122913000Y-81534000D03*
X120827800Y-80591800D03*
X131064000Y-83312000D03*
X124202000Y-81792000D03*
X132008919Y-82414245D03*
X143256000Y-81280000D03*
X131793588Y-85263799D03*
X124226853Y-98583195D03*
X140716000Y-81123197D03*
X141681300Y-79451300D03*
X133096000Y-82827000D03*
X135382000Y-81788000D03*
X134087209Y-81499635D03*
X131826000Y-81788000D03*
X136783875Y-82719056D03*
X134112000Y-82827000D03*
X142529152Y-82330152D03*
X140260991Y-84344691D03*
X142240000Y-78964610D03*
X130048000Y-86360000D03*
X136149782Y-86610981D03*
X135128000Y-85090000D03*
X130048000Y-85598000D03*
X131064000Y-85598000D03*
X138938000Y-85471000D03*
X132334000Y-87122000D03*
X128956465Y-86651767D03*
X124078647Y-79898374D03*
X144018000Y-84074000D03*
X125090896Y-79633104D03*
X139459671Y-82070018D03*
X144018000Y-96774000D03*
X122913000Y-80518000D03*
X123915220Y-80529977D03*
D18*
X144462500Y-75755500D02*
X144462500Y-74917300D01*
X137977545Y-82240455D02*
X144462500Y-75755500D01*
X144462500Y-74917300D02*
X144462500Y-72224900D01*
X137414000Y-82296000D02*
X137358455Y-82240455D01*
X137414000Y-82550000D02*
X137414000Y-82296000D01*
X137358455Y-82240455D02*
X137977545Y-82240455D01*
X132229519Y-81483189D02*
X132921792Y-81483189D01*
X133787001Y-82348398D02*
X134341730Y-82348398D01*
X128727189Y-81483189D02*
X129666256Y-81483189D01*
X122377200Y-75692000D02*
X122936000Y-75692000D01*
X129666256Y-81483189D02*
X129971067Y-81788000D01*
X134341730Y-82348398D02*
X134674291Y-82680959D01*
X132055729Y-81309399D02*
X132229519Y-81483189D01*
X121602500Y-72224900D02*
X121602500Y-74917300D01*
X121602500Y-74917300D02*
X122377200Y-75692000D01*
X135766837Y-82240455D02*
X137358455Y-82240455D01*
X135326333Y-82680959D02*
X135766837Y-82240455D01*
X134674291Y-82680959D02*
X135326333Y-82680959D01*
X132921792Y-81483189D02*
X133787001Y-82348398D01*
X130449668Y-81309399D02*
X132055729Y-81309399D01*
X129971067Y-81788000D02*
X130449668Y-81309399D01*
X122936000Y-75692000D02*
X128727189Y-81483189D01*
X140458355Y-83216092D02*
X140135051Y-83216092D01*
X141478000Y-82550000D02*
X141124447Y-82550000D01*
X141124447Y-82550000D02*
X140458355Y-83216092D01*
X133404055Y-72114579D02*
X133050502Y-72114579D01*
X139170579Y-72114579D02*
X133404055Y-72114579D01*
X133032500Y-81162830D02*
X133882271Y-82012601D01*
X133032500Y-72224900D02*
X133032500Y-81162830D01*
X134682790Y-82012601D02*
X134816895Y-82146706D01*
X133882271Y-82012601D02*
X134682790Y-82012601D01*
X124124746Y-83127254D02*
X124124746Y-83054023D01*
X122924000Y-84328000D02*
X124124746Y-83127254D01*
X122174000Y-84328000D02*
X122924000Y-84328000D01*
X132737879Y-83237269D02*
X132846001Y-83345391D01*
X132097194Y-83237269D02*
X132737879Y-83237269D01*
X132846001Y-83345391D02*
X133096000Y-83595390D01*
X135886408Y-86012631D02*
X137202476Y-86012631D01*
X137202476Y-86012631D02*
X137409197Y-85805910D01*
X135547016Y-86352023D02*
X135886408Y-86012631D01*
X135193463Y-86352023D02*
X135547016Y-86352023D01*
X137409197Y-85805910D02*
X137659196Y-85555911D01*
X144386300Y-102412800D02*
X144386300Y-105105200D01*
X143065500Y-101092000D02*
X144386300Y-102412800D01*
X143065500Y-97599500D02*
X143065500Y-101092000D01*
X142240000Y-96774000D02*
X142113000Y-96647000D01*
X142240000Y-96774000D02*
X143065500Y-97599500D01*
X140970000Y-95504000D02*
X142113000Y-96647000D01*
X128435100Y-95504000D02*
X140970000Y-95504000D01*
X121526300Y-105105200D02*
X121526300Y-102412800D01*
X121526300Y-102412800D02*
X128435100Y-95504000D01*
X119684809Y-78943191D02*
X119126000Y-79502000D01*
X122578832Y-81199832D02*
X121331832Y-81199832D01*
X122913000Y-81534000D02*
X122578832Y-81199832D01*
X121331832Y-81199832D02*
X120827800Y-80695800D01*
X120827800Y-80695800D02*
X120827800Y-80591800D01*
X131064000Y-83312000D02*
X129540000Y-81788000D01*
X124206000Y-81788000D02*
X124202000Y-81792000D01*
X129540000Y-81788000D02*
X124206000Y-81788000D01*
X131064000Y-83312000D02*
X131961755Y-82414245D01*
X131961755Y-82414245D02*
X132008919Y-82414245D01*
X124093648Y-98449990D02*
X124226853Y-98583195D01*
X119624084Y-98449990D02*
X124093648Y-98449990D01*
X136050527Y-84112099D02*
X135606602Y-84556024D01*
X140182974Y-82737490D02*
X139905709Y-82737490D01*
X132098391Y-85568602D02*
X132043587Y-85513798D01*
X140675275Y-82245189D02*
X140182974Y-82737490D01*
X141774065Y-81280000D02*
X140808876Y-82245189D01*
X140808876Y-82245189D02*
X140675275Y-82245189D01*
X139905709Y-82737490D02*
X138531100Y-84112099D01*
X132043587Y-85513798D02*
X131793588Y-85263799D01*
X143256000Y-81280000D02*
X141774065Y-81280000D01*
X135606602Y-85319730D02*
X135357730Y-85568602D01*
X135606602Y-84556024D02*
X135606602Y-85319730D01*
X138531100Y-84112099D02*
X136050527Y-84112099D01*
X135357730Y-85568602D02*
X132098391Y-85568602D01*
X140716000Y-80416600D02*
X140716000Y-81123197D01*
X141681300Y-79451300D02*
X140716000Y-80416600D01*
X139579602Y-81123197D02*
X140716000Y-81123197D01*
X137505133Y-83197666D02*
X139579602Y-81123197D01*
X135671760Y-83197666D02*
X137505133Y-83197666D01*
X135405046Y-83464380D02*
X135671760Y-83197666D01*
X133733380Y-83464380D02*
X135405046Y-83464380D01*
X133096000Y-82827000D02*
X133733380Y-83464380D01*
X134440762Y-81499635D02*
X134087209Y-81499635D01*
X135382000Y-81788000D02*
X135093635Y-81499635D01*
X135093635Y-81499635D02*
X134440762Y-81499635D01*
X136783875Y-82719056D02*
X135719303Y-82719056D01*
X131826000Y-81788000D02*
X132780256Y-81788000D01*
X135452588Y-82985770D02*
X134293770Y-82985770D01*
X135508179Y-82930179D02*
X135452588Y-82985770D01*
X135719303Y-82719056D02*
X135508179Y-82930179D01*
X134293770Y-82985770D02*
X134135000Y-82827000D01*
X134135000Y-82827000D02*
X134112000Y-82827000D01*
X133819256Y-82827000D02*
X133319128Y-82326872D01*
X134112000Y-82827000D02*
X133819256Y-82827000D01*
X132780256Y-81788000D02*
X133319128Y-82326872D01*
X140260991Y-83991138D02*
X141194129Y-83058000D01*
X140260991Y-84344691D02*
X140260991Y-83991138D01*
X141801304Y-83058000D02*
X142529152Y-82330152D01*
X141194129Y-83058000D02*
X141801304Y-83058000D01*
X118848211Y-81431990D02*
X120860428Y-79419773D01*
X124308376Y-79419773D02*
X124557986Y-79669383D01*
X120860428Y-79419773D02*
X124308376Y-79419773D01*
X115071916Y-81431990D02*
X118848211Y-81431990D01*
X124557986Y-79669383D02*
X124557986Y-80674014D01*
X124557986Y-80674014D02*
X124223412Y-81008588D01*
X123846012Y-81008588D02*
X123763300Y-81091300D01*
X124223412Y-81008588D02*
X123846012Y-81008588D01*
X123846014Y-81008587D02*
X123763300Y-81091300D01*
X135352748Y-84378811D02*
X135924271Y-83807288D01*
X142240000Y-80382998D02*
X142240000Y-79318163D01*
X140549019Y-81940378D02*
X140682620Y-81940378D01*
X123418587Y-82147986D02*
X123846014Y-82575413D01*
X123846014Y-82575413D02*
X125401279Y-82575413D01*
X138404456Y-83807288D02*
X139904391Y-82307353D01*
X127204677Y-84378811D02*
X135352748Y-84378811D01*
X142240000Y-79318163D02*
X142240000Y-78964610D01*
X123418587Y-81436014D02*
X123418587Y-82147986D01*
X125401279Y-82575413D02*
X127204677Y-84378811D01*
X123763300Y-81091300D02*
X123418587Y-81436014D01*
X140182045Y-82307353D02*
X140549019Y-81940378D01*
X135924271Y-83807288D02*
X138404456Y-83807288D01*
X139904391Y-82307353D02*
X140182045Y-82307353D01*
X140682620Y-81940378D02*
X142240000Y-80382998D01*
X134994090Y-86860980D02*
X135899783Y-86860980D01*
X135899783Y-86860980D02*
X136149782Y-86610981D01*
X134493110Y-86360000D02*
X134994090Y-86860980D01*
X130048000Y-86360000D02*
X134493110Y-86360000D01*
X133794021Y-84924399D02*
X134962399Y-84924399D01*
X133654811Y-84785189D02*
X133794021Y-84924399D01*
X132202701Y-84785189D02*
X133654811Y-84785189D01*
X134962399Y-84924399D02*
X135128000Y-85090000D01*
X130860811Y-84785189D02*
X132029189Y-84785189D01*
X130048000Y-85598000D02*
X130860811Y-84785189D01*
X131389157Y-84785189D02*
X132029189Y-84785189D01*
X132029189Y-84785189D02*
X132202701Y-84785189D01*
X131064000Y-85598000D02*
X131339413Y-85873413D01*
X138544301Y-85077301D02*
X138938000Y-85471000D01*
X131339413Y-85873413D02*
X135483986Y-85873413D01*
X137228073Y-85077301D02*
X136707374Y-85598000D01*
X138544301Y-85077301D02*
X137228073Y-85077301D01*
X135759399Y-85598000D02*
X135483986Y-85873413D01*
X136707374Y-85598000D02*
X135759399Y-85598000D01*
X129206464Y-86901766D02*
X128956465Y-86651767D01*
X132334000Y-87122000D02*
X129426698Y-87122000D01*
X129426698Y-87122000D02*
X129206464Y-86901766D01*
X120349198Y-80362070D02*
X120812894Y-79898374D01*
X118618000Y-83566000D02*
X120349198Y-81834802D01*
X118096400Y-83566000D02*
X118618000Y-83566000D01*
X123725094Y-79898374D02*
X124078647Y-79898374D01*
X120812894Y-79898374D02*
X123725094Y-79898374D01*
X120349198Y-81834802D02*
X120349198Y-80362070D01*
X116826400Y-84836000D02*
X118096400Y-83566000D01*
X115824000Y-84836000D02*
X116826400Y-84836000D01*
X147320000Y-84341600D02*
X147320000Y-85344000D01*
X147052400Y-84074000D02*
X147320000Y-84341600D01*
X144018000Y-84074000D02*
X147052400Y-84074000D01*
X135798015Y-83502477D02*
X138027212Y-83502477D01*
X123972270Y-81313398D02*
X123723398Y-81562270D01*
X127330933Y-84074000D02*
X135226492Y-84074000D01*
X123972270Y-82270602D02*
X125527535Y-82270602D01*
X125090896Y-79633104D02*
X125090896Y-80980037D01*
X124757535Y-81313398D02*
X123972270Y-81313398D01*
X139209672Y-82320017D02*
X139459671Y-82070018D01*
X125527535Y-82270602D02*
X127330933Y-84074000D01*
X138027212Y-83502477D02*
X139209672Y-82320017D01*
X123723398Y-82021730D02*
X123972270Y-82270602D01*
X123723398Y-81562270D02*
X123723398Y-82021730D01*
X135226492Y-84074000D02*
X135798015Y-83502477D01*
X125090896Y-80980037D02*
X124757535Y-81313398D01*
X144018000Y-93218000D02*
X144780000Y-92456000D01*
X144018000Y-96774000D02*
X144018000Y-93218000D01*
X123903243Y-80518000D02*
X123915220Y-80529977D01*
X122913000Y-80518000D02*
X123903243Y-80518000D01*
D19*
G36*
X147956957Y-76737421D02*
G01*
X147962867Y-76780746D01*
X147979807Y-76829896D01*
X147994969Y-76879691D01*
X148000576Y-76890155D01*
X148004441Y-76901368D01*
X148030650Y-76946277D01*
X148055230Y-76992148D01*
X148062770Y-77001316D01*
X148068749Y-77011561D01*
X148103216Y-77050495D01*
X148136272Y-77090688D01*
X148145456Y-77098209D01*
X148153319Y-77107091D01*
X148194736Y-77138566D01*
X148234983Y-77171525D01*
X148273581Y-77192105D01*
X154497779Y-81022381D01*
X155349196Y-86982300D01*
X143064191Y-86982300D01*
X143031824Y-86985488D01*
X143018833Y-86985488D01*
X143009839Y-86986434D01*
X142815890Y-87008189D01*
X142758452Y-87020397D01*
X142700880Y-87031797D01*
X142692247Y-87034469D01*
X142692243Y-87034470D01*
X142692240Y-87034471D01*
X142692241Y-87034471D01*
X142506211Y-87093484D01*
X142452220Y-87116624D01*
X142397981Y-87138980D01*
X142390029Y-87143280D01*
X142390023Y-87143282D01*
X142390018Y-87143285D01*
X142354590Y-87162762D01*
X142278205Y-87111723D01*
X142117145Y-87045010D01*
X141946165Y-87011000D01*
X141771835Y-87011000D01*
X141600855Y-87045010D01*
X141484000Y-87093413D01*
X141367145Y-87045010D01*
X141196165Y-87011000D01*
X141021835Y-87011000D01*
X140850855Y-87045010D01*
X140734000Y-87093413D01*
X140617145Y-87045010D01*
X140446165Y-87011000D01*
X140271835Y-87011000D01*
X140100855Y-87045010D01*
X139939795Y-87111723D01*
X139851286Y-87170863D01*
X139781146Y-87133569D01*
X139726872Y-87111198D01*
X139672915Y-87088072D01*
X139664282Y-87085400D01*
X139664275Y-87085397D01*
X139664268Y-87085396D01*
X139477440Y-87028989D01*
X139419840Y-87017584D01*
X139362432Y-87005381D01*
X139353439Y-87004436D01*
X139285441Y-86997769D01*
X139225383Y-86979550D01*
X139128419Y-86970000D01*
X137573603Y-86970000D01*
X137541368Y-86966807D01*
X137508763Y-86970000D01*
X137508581Y-86970000D01*
X137476807Y-86973129D01*
X137411979Y-86979478D01*
X137411801Y-86979532D01*
X137411617Y-86979550D01*
X137349552Y-86998378D01*
X137287548Y-87017149D01*
X137287385Y-87017236D01*
X137287207Y-87017290D01*
X137229241Y-87048273D01*
X137172857Y-87078371D01*
X137172717Y-87078486D01*
X137172550Y-87078575D01*
X137121433Y-87120526D01*
X137072313Y-87160792D01*
X137072197Y-87160933D01*
X137072052Y-87161052D01*
X137030389Y-87211818D01*
X136999840Y-87249000D01*
X136763342Y-87249000D01*
X136837206Y-87175136D01*
X136934059Y-87030186D01*
X137000772Y-86869126D01*
X137034782Y-86698146D01*
X137034782Y-86523816D01*
X137000772Y-86352836D01*
X136963740Y-86263434D01*
X136980855Y-86258242D01*
X137104407Y-86192202D01*
X137212701Y-86103327D01*
X137234975Y-86076186D01*
X137522661Y-85788501D01*
X138111596Y-85788501D01*
X138153723Y-85890205D01*
X138250576Y-86035155D01*
X138373845Y-86158424D01*
X138518795Y-86255277D01*
X138679855Y-86321990D01*
X138850835Y-86356000D01*
X139025165Y-86356000D01*
X139196145Y-86321990D01*
X139357205Y-86255277D01*
X139502155Y-86158424D01*
X139625424Y-86035155D01*
X139722277Y-85890205D01*
X139788990Y-85729145D01*
X139823000Y-85558165D01*
X139823000Y-85383835D01*
X139788990Y-85212855D01*
X139722277Y-85051795D01*
X139719041Y-85046952D01*
X139841786Y-85128968D01*
X140002846Y-85195681D01*
X140173826Y-85229691D01*
X140348156Y-85229691D01*
X140519136Y-85195681D01*
X140571681Y-85173916D01*
X140476341Y-85316602D01*
X140391137Y-85522304D01*
X140347700Y-85740675D01*
X140347700Y-85963325D01*
X140391137Y-86181696D01*
X140476341Y-86387398D01*
X140600039Y-86572524D01*
X140757476Y-86729961D01*
X140942602Y-86853659D01*
X141148304Y-86938863D01*
X141366675Y-86982300D01*
X141589325Y-86982300D01*
X141807696Y-86938863D01*
X142013398Y-86853659D01*
X142198524Y-86729961D01*
X142355961Y-86572524D01*
X142479659Y-86387398D01*
X142564863Y-86181696D01*
X142608300Y-85963325D01*
X142608300Y-85740675D01*
X142564863Y-85522304D01*
X142479659Y-85316602D01*
X142355961Y-85131476D01*
X142198524Y-84974039D01*
X142013398Y-84850341D01*
X141978776Y-84836000D01*
X142013398Y-84821659D01*
X142198524Y-84697961D01*
X142355961Y-84540524D01*
X142479659Y-84355398D01*
X142564863Y-84149696D01*
X142597258Y-83986835D01*
X143133000Y-83986835D01*
X143133000Y-84161165D01*
X143167010Y-84332145D01*
X143233723Y-84493205D01*
X143330576Y-84638155D01*
X143453845Y-84761424D01*
X143598795Y-84858277D01*
X143759855Y-84924990D01*
X143930835Y-84959000D01*
X144105165Y-84959000D01*
X144276145Y-84924990D01*
X144437205Y-84858277D01*
X144546572Y-84785200D01*
X145831928Y-84785200D01*
X145831928Y-86194000D01*
X145844188Y-86318482D01*
X145880498Y-86438180D01*
X145939463Y-86548494D01*
X146018815Y-86645185D01*
X146115506Y-86724537D01*
X146225820Y-86783502D01*
X146345518Y-86819812D01*
X146470000Y-86832072D01*
X148170000Y-86832072D01*
X148294482Y-86819812D01*
X148414180Y-86783502D01*
X148524494Y-86724537D01*
X148621185Y-86645185D01*
X148700537Y-86548494D01*
X148759502Y-86438180D01*
X148783966Y-86357534D01*
X148859731Y-86441588D01*
X149093080Y-86615641D01*
X149355901Y-86740825D01*
X149503110Y-86785476D01*
X149733000Y-86664155D01*
X149733000Y-85471000D01*
X149987000Y-85471000D01*
X149987000Y-86664155D01*
X150216890Y-86785476D01*
X150364099Y-86740825D01*
X150626920Y-86615641D01*
X150860269Y-86441588D01*
X151055178Y-86225355D01*
X151204157Y-85975252D01*
X151301481Y-85700891D01*
X151180814Y-85471000D01*
X149987000Y-85471000D01*
X149733000Y-85471000D01*
X149713000Y-85471000D01*
X149713000Y-85217000D01*
X149733000Y-85217000D01*
X149733000Y-84023845D01*
X149987000Y-84023845D01*
X149987000Y-85217000D01*
X151180814Y-85217000D01*
X151301481Y-84987109D01*
X151204157Y-84712748D01*
X151055178Y-84462645D01*
X150860269Y-84246412D01*
X150626920Y-84072359D01*
X150364099Y-83947175D01*
X150216890Y-83902524D01*
X149987000Y-84023845D01*
X149733000Y-84023845D01*
X149503110Y-83902524D01*
X149355901Y-83947175D01*
X149093080Y-84072359D01*
X148859731Y-84246412D01*
X148783966Y-84330466D01*
X148759502Y-84249820D01*
X148700537Y-84139506D01*
X148621185Y-84042815D01*
X148524494Y-83963463D01*
X148414180Y-83904498D01*
X148294482Y-83868188D01*
X148170000Y-83855928D01*
X147841457Y-83855928D01*
X147825326Y-83836273D01*
X147798194Y-83814007D01*
X147580001Y-83595814D01*
X147557727Y-83568673D01*
X147449433Y-83479798D01*
X147325881Y-83413758D01*
X147191820Y-83373091D01*
X147087336Y-83362800D01*
X147087326Y-83362800D01*
X147052400Y-83359360D01*
X147017474Y-83362800D01*
X144546572Y-83362800D01*
X144437205Y-83289723D01*
X144276145Y-83223010D01*
X144105165Y-83189000D01*
X143930835Y-83189000D01*
X143759855Y-83223010D01*
X143598795Y-83289723D01*
X143453845Y-83386576D01*
X143330576Y-83509845D01*
X143233723Y-83654795D01*
X143167010Y-83815855D01*
X143133000Y-83986835D01*
X142597258Y-83986835D01*
X142608300Y-83931325D01*
X142608300Y-83708675D01*
X142564863Y-83490304D01*
X142509191Y-83355900D01*
X142658289Y-83206803D01*
X142787297Y-83181142D01*
X142948357Y-83114429D01*
X143093307Y-83017576D01*
X143216576Y-82894307D01*
X143313429Y-82749357D01*
X143380142Y-82588297D01*
X143414152Y-82417317D01*
X143414152Y-82242987D01*
X143396528Y-82154385D01*
X143514145Y-82130990D01*
X143675205Y-82064277D01*
X143820155Y-81967424D01*
X143943424Y-81844155D01*
X144040277Y-81699205D01*
X144106990Y-81538145D01*
X144139469Y-81374860D01*
X148130085Y-81374860D01*
X148260752Y-81599569D01*
X148409254Y-81639712D01*
X148698476Y-81672823D01*
X148988601Y-81648874D01*
X149097396Y-81617741D01*
X149075407Y-81699098D01*
X149066954Y-81823896D01*
X149083010Y-81947945D01*
X149122958Y-82066478D01*
X149185264Y-82174941D01*
X149267532Y-82269163D01*
X149366602Y-82345526D01*
X150808284Y-83246388D01*
X150920347Y-83301956D01*
X151041098Y-83334593D01*
X151165896Y-83343046D01*
X151289945Y-83326990D01*
X151408478Y-83287042D01*
X151516941Y-83224736D01*
X151611163Y-83142468D01*
X151687526Y-83043398D01*
X152588388Y-81601716D01*
X152643956Y-81489653D01*
X152676593Y-81368902D01*
X152685046Y-81244104D01*
X152668990Y-81120055D01*
X152629042Y-81001522D01*
X152566736Y-80893059D01*
X152484468Y-80798837D01*
X152385398Y-80722474D01*
X150943716Y-79821612D01*
X150831653Y-79766044D01*
X150710902Y-79733407D01*
X150586104Y-79724954D01*
X150462055Y-79741010D01*
X150343522Y-79780958D01*
X150235059Y-79843264D01*
X150171578Y-79898691D01*
X150151867Y-79787259D01*
X150046210Y-79515998D01*
X149889663Y-79270562D01*
X149788484Y-79154687D01*
X149529236Y-79135750D01*
X148896960Y-80147603D01*
X148913921Y-80158201D01*
X148779321Y-80373605D01*
X148762360Y-80363007D01*
X148130085Y-81374860D01*
X144139469Y-81374860D01*
X144141000Y-81367165D01*
X144141000Y-81192835D01*
X144106990Y-81021855D01*
X144040277Y-80860795D01*
X143943424Y-80715845D01*
X143820155Y-80592576D01*
X143675205Y-80495723D01*
X143514145Y-80429010D01*
X143343165Y-80395000D01*
X143168835Y-80395000D01*
X142997855Y-80429010D01*
X142948078Y-80449628D01*
X142951200Y-80417934D01*
X142951200Y-80417927D01*
X142954640Y-80382998D01*
X142951200Y-80348070D01*
X142951200Y-79493182D01*
X143024277Y-79383815D01*
X143090990Y-79222755D01*
X143125000Y-79051775D01*
X143125000Y-78877445D01*
X143090990Y-78706465D01*
X143024277Y-78545405D01*
X142927424Y-78400455D01*
X142875379Y-78348410D01*
X143077584Y-78146204D01*
X143173168Y-78325029D01*
X143358740Y-78551149D01*
X143584860Y-78736721D01*
X143842840Y-78874614D01*
X144122763Y-78959528D01*
X144340924Y-78981015D01*
X144486824Y-78981015D01*
X144704985Y-78959528D01*
X144984908Y-78874614D01*
X145077388Y-78825182D01*
X145075731Y-78842010D01*
X145104403Y-79133121D01*
X145189317Y-79413044D01*
X145327210Y-79671024D01*
X145512782Y-79897144D01*
X145738902Y-80082716D01*
X145996882Y-80220609D01*
X146276805Y-80305523D01*
X146494966Y-80327010D01*
X146640866Y-80327010D01*
X146859027Y-80305523D01*
X147138950Y-80220609D01*
X147244275Y-80164312D01*
X147241343Y-80302089D01*
X147292049Y-80588751D01*
X147397706Y-80860012D01*
X147554253Y-81105448D01*
X147655432Y-81221323D01*
X147914680Y-81240260D01*
X148546956Y-80228407D01*
X148529995Y-80217809D01*
X148664595Y-80002405D01*
X148681556Y-80013003D01*
X149313831Y-79001150D01*
X149183164Y-78776441D01*
X149034662Y-78736298D01*
X148745440Y-78703187D01*
X148455315Y-78727136D01*
X148175437Y-78807226D01*
X148057555Y-78867858D01*
X148060101Y-78842010D01*
X148031429Y-78550899D01*
X147946515Y-78270976D01*
X147808622Y-78012996D01*
X147623050Y-77786876D01*
X147396930Y-77601304D01*
X147138950Y-77463411D01*
X146859027Y-77378497D01*
X146640866Y-77357010D01*
X146494966Y-77357010D01*
X146276805Y-77378497D01*
X145996882Y-77463411D01*
X145904402Y-77512843D01*
X145906059Y-77496015D01*
X145877387Y-77204904D01*
X145792473Y-76924981D01*
X145654580Y-76667001D01*
X145469008Y-76440881D01*
X145242888Y-76255309D01*
X145054844Y-76154797D01*
X145056702Y-76152533D01*
X145105248Y-76061710D01*
X145122742Y-76028981D01*
X145163409Y-75894920D01*
X145173700Y-75790436D01*
X145173700Y-75790427D01*
X145177140Y-75755501D01*
X145173700Y-75720575D01*
X145173700Y-75402972D01*
X145732500Y-75402972D01*
X145856982Y-75390712D01*
X145976680Y-75354402D01*
X146086994Y-75295437D01*
X146183685Y-75216085D01*
X146263037Y-75119394D01*
X146322002Y-75009080D01*
X146358312Y-74889382D01*
X146370572Y-74764900D01*
X146370572Y-69777700D01*
X146565013Y-69777700D01*
X147956957Y-76737421D01*
X147956957Y-76737421D01*
G37*
X147956957Y-76737421D02*
X147962867Y-76780746D01*
X147979807Y-76829896D01*
X147994969Y-76879691D01*
X148000576Y-76890155D01*
X148004441Y-76901368D01*
X148030650Y-76946277D01*
X148055230Y-76992148D01*
X148062770Y-77001316D01*
X148068749Y-77011561D01*
X148103216Y-77050495D01*
X148136272Y-77090688D01*
X148145456Y-77098209D01*
X148153319Y-77107091D01*
X148194736Y-77138566D01*
X148234983Y-77171525D01*
X148273581Y-77192105D01*
X154497779Y-81022381D01*
X155349196Y-86982300D01*
X143064191Y-86982300D01*
X143031824Y-86985488D01*
X143018833Y-86985488D01*
X143009839Y-86986434D01*
X142815890Y-87008189D01*
X142758452Y-87020397D01*
X142700880Y-87031797D01*
X142692247Y-87034469D01*
X142692243Y-87034470D01*
X142692240Y-87034471D01*
X142692241Y-87034471D01*
X142506211Y-87093484D01*
X142452220Y-87116624D01*
X142397981Y-87138980D01*
X142390029Y-87143280D01*
X142390023Y-87143282D01*
X142390018Y-87143285D01*
X142354590Y-87162762D01*
X142278205Y-87111723D01*
X142117145Y-87045010D01*
X141946165Y-87011000D01*
X141771835Y-87011000D01*
X141600855Y-87045010D01*
X141484000Y-87093413D01*
X141367145Y-87045010D01*
X141196165Y-87011000D01*
X141021835Y-87011000D01*
X140850855Y-87045010D01*
X140734000Y-87093413D01*
X140617145Y-87045010D01*
X140446165Y-87011000D01*
X140271835Y-87011000D01*
X140100855Y-87045010D01*
X139939795Y-87111723D01*
X139851286Y-87170863D01*
X139781146Y-87133569D01*
X139726872Y-87111198D01*
X139672915Y-87088072D01*
X139664282Y-87085400D01*
X139664275Y-87085397D01*
X139664268Y-87085396D01*
X139477440Y-87028989D01*
X139419840Y-87017584D01*
X139362432Y-87005381D01*
X139353439Y-87004436D01*
X139285441Y-86997769D01*
X139225383Y-86979550D01*
X139128419Y-86970000D01*
X137573603Y-86970000D01*
X137541368Y-86966807D01*
X137508763Y-86970000D01*
X137508581Y-86970000D01*
X137476807Y-86973129D01*
X137411979Y-86979478D01*
X137411801Y-86979532D01*
X137411617Y-86979550D01*
X137349552Y-86998378D01*
X137287548Y-87017149D01*
X137287385Y-87017236D01*
X137287207Y-87017290D01*
X137229241Y-87048273D01*
X137172857Y-87078371D01*
X137172717Y-87078486D01*
X137172550Y-87078575D01*
X137121433Y-87120526D01*
X137072313Y-87160792D01*
X137072197Y-87160933D01*
X137072052Y-87161052D01*
X137030389Y-87211818D01*
X136999840Y-87249000D01*
X136763342Y-87249000D01*
X136837206Y-87175136D01*
X136934059Y-87030186D01*
X137000772Y-86869126D01*
X137034782Y-86698146D01*
X137034782Y-86523816D01*
X137000772Y-86352836D01*
X136963740Y-86263434D01*
X136980855Y-86258242D01*
X137104407Y-86192202D01*
X137212701Y-86103327D01*
X137234975Y-86076186D01*
X137522661Y-85788501D01*
X138111596Y-85788501D01*
X138153723Y-85890205D01*
X138250576Y-86035155D01*
X138373845Y-86158424D01*
X138518795Y-86255277D01*
X138679855Y-86321990D01*
X138850835Y-86356000D01*
X139025165Y-86356000D01*
X139196145Y-86321990D01*
X139357205Y-86255277D01*
X139502155Y-86158424D01*
X139625424Y-86035155D01*
X139722277Y-85890205D01*
X139788990Y-85729145D01*
X139823000Y-85558165D01*
X139823000Y-85383835D01*
X139788990Y-85212855D01*
X139722277Y-85051795D01*
X139719041Y-85046952D01*
X139841786Y-85128968D01*
X140002846Y-85195681D01*
X140173826Y-85229691D01*
X140348156Y-85229691D01*
X140519136Y-85195681D01*
X140571681Y-85173916D01*
X140476341Y-85316602D01*
X140391137Y-85522304D01*
X140347700Y-85740675D01*
X140347700Y-85963325D01*
X140391137Y-86181696D01*
X140476341Y-86387398D01*
X140600039Y-86572524D01*
X140757476Y-86729961D01*
X140942602Y-86853659D01*
X141148304Y-86938863D01*
X141366675Y-86982300D01*
X141589325Y-86982300D01*
X141807696Y-86938863D01*
X142013398Y-86853659D01*
X142198524Y-86729961D01*
X142355961Y-86572524D01*
X142479659Y-86387398D01*
X142564863Y-86181696D01*
X142608300Y-85963325D01*
X142608300Y-85740675D01*
X142564863Y-85522304D01*
X142479659Y-85316602D01*
X142355961Y-85131476D01*
X142198524Y-84974039D01*
X142013398Y-84850341D01*
X141978776Y-84836000D01*
X142013398Y-84821659D01*
X142198524Y-84697961D01*
X142355961Y-84540524D01*
X142479659Y-84355398D01*
X142564863Y-84149696D01*
X142597258Y-83986835D01*
X143133000Y-83986835D01*
X143133000Y-84161165D01*
X143167010Y-84332145D01*
X143233723Y-84493205D01*
X143330576Y-84638155D01*
X143453845Y-84761424D01*
X143598795Y-84858277D01*
X143759855Y-84924990D01*
X143930835Y-84959000D01*
X144105165Y-84959000D01*
X144276145Y-84924990D01*
X144437205Y-84858277D01*
X144546572Y-84785200D01*
X145831928Y-84785200D01*
X145831928Y-86194000D01*
X145844188Y-86318482D01*
X145880498Y-86438180D01*
X145939463Y-86548494D01*
X146018815Y-86645185D01*
X146115506Y-86724537D01*
X146225820Y-86783502D01*
X146345518Y-86819812D01*
X146470000Y-86832072D01*
X148170000Y-86832072D01*
X148294482Y-86819812D01*
X148414180Y-86783502D01*
X148524494Y-86724537D01*
X148621185Y-86645185D01*
X148700537Y-86548494D01*
X148759502Y-86438180D01*
X148783966Y-86357534D01*
X148859731Y-86441588D01*
X149093080Y-86615641D01*
X149355901Y-86740825D01*
X149503110Y-86785476D01*
X149733000Y-86664155D01*
X149733000Y-85471000D01*
X149987000Y-85471000D01*
X149987000Y-86664155D01*
X150216890Y-86785476D01*
X150364099Y-86740825D01*
X150626920Y-86615641D01*
X150860269Y-86441588D01*
X151055178Y-86225355D01*
X151204157Y-85975252D01*
X151301481Y-85700891D01*
X151180814Y-85471000D01*
X149987000Y-85471000D01*
X149733000Y-85471000D01*
X149713000Y-85471000D01*
X149713000Y-85217000D01*
X149733000Y-85217000D01*
X149733000Y-84023845D01*
X149987000Y-84023845D01*
X149987000Y-85217000D01*
X151180814Y-85217000D01*
X151301481Y-84987109D01*
X151204157Y-84712748D01*
X151055178Y-84462645D01*
X150860269Y-84246412D01*
X150626920Y-84072359D01*
X150364099Y-83947175D01*
X150216890Y-83902524D01*
X149987000Y-84023845D01*
X149733000Y-84023845D01*
X149503110Y-83902524D01*
X149355901Y-83947175D01*
X149093080Y-84072359D01*
X148859731Y-84246412D01*
X148783966Y-84330466D01*
X148759502Y-84249820D01*
X148700537Y-84139506D01*
X148621185Y-84042815D01*
X148524494Y-83963463D01*
X148414180Y-83904498D01*
X148294482Y-83868188D01*
X148170000Y-83855928D01*
X147841457Y-83855928D01*
X147825326Y-83836273D01*
X147798194Y-83814007D01*
X147580001Y-83595814D01*
X147557727Y-83568673D01*
X147449433Y-83479798D01*
X147325881Y-83413758D01*
X147191820Y-83373091D01*
X147087336Y-83362800D01*
X147087326Y-83362800D01*
X147052400Y-83359360D01*
X147017474Y-83362800D01*
X144546572Y-83362800D01*
X144437205Y-83289723D01*
X144276145Y-83223010D01*
X144105165Y-83189000D01*
X143930835Y-83189000D01*
X143759855Y-83223010D01*
X143598795Y-83289723D01*
X143453845Y-83386576D01*
X143330576Y-83509845D01*
X143233723Y-83654795D01*
X143167010Y-83815855D01*
X143133000Y-83986835D01*
X142597258Y-83986835D01*
X142608300Y-83931325D01*
X142608300Y-83708675D01*
X142564863Y-83490304D01*
X142509191Y-83355900D01*
X142658289Y-83206803D01*
X142787297Y-83181142D01*
X142948357Y-83114429D01*
X143093307Y-83017576D01*
X143216576Y-82894307D01*
X143313429Y-82749357D01*
X143380142Y-82588297D01*
X143414152Y-82417317D01*
X143414152Y-82242987D01*
X143396528Y-82154385D01*
X143514145Y-82130990D01*
X143675205Y-82064277D01*
X143820155Y-81967424D01*
X143943424Y-81844155D01*
X144040277Y-81699205D01*
X144106990Y-81538145D01*
X144139469Y-81374860D01*
X148130085Y-81374860D01*
X148260752Y-81599569D01*
X148409254Y-81639712D01*
X148698476Y-81672823D01*
X148988601Y-81648874D01*
X149097396Y-81617741D01*
X149075407Y-81699098D01*
X149066954Y-81823896D01*
X149083010Y-81947945D01*
X149122958Y-82066478D01*
X149185264Y-82174941D01*
X149267532Y-82269163D01*
X149366602Y-82345526D01*
X150808284Y-83246388D01*
X150920347Y-83301956D01*
X151041098Y-83334593D01*
X151165896Y-83343046D01*
X151289945Y-83326990D01*
X151408478Y-83287042D01*
X151516941Y-83224736D01*
X151611163Y-83142468D01*
X151687526Y-83043398D01*
X152588388Y-81601716D01*
X152643956Y-81489653D01*
X152676593Y-81368902D01*
X152685046Y-81244104D01*
X152668990Y-81120055D01*
X152629042Y-81001522D01*
X152566736Y-80893059D01*
X152484468Y-80798837D01*
X152385398Y-80722474D01*
X150943716Y-79821612D01*
X150831653Y-79766044D01*
X150710902Y-79733407D01*
X150586104Y-79724954D01*
X150462055Y-79741010D01*
X150343522Y-79780958D01*
X150235059Y-79843264D01*
X150171578Y-79898691D01*
X150151867Y-79787259D01*
X150046210Y-79515998D01*
X149889663Y-79270562D01*
X149788484Y-79154687D01*
X149529236Y-79135750D01*
X148896960Y-80147603D01*
X148913921Y-80158201D01*
X148779321Y-80373605D01*
X148762360Y-80363007D01*
X148130085Y-81374860D01*
X144139469Y-81374860D01*
X144141000Y-81367165D01*
X144141000Y-81192835D01*
X144106990Y-81021855D01*
X144040277Y-80860795D01*
X143943424Y-80715845D01*
X143820155Y-80592576D01*
X143675205Y-80495723D01*
X143514145Y-80429010D01*
X143343165Y-80395000D01*
X143168835Y-80395000D01*
X142997855Y-80429010D01*
X142948078Y-80449628D01*
X142951200Y-80417934D01*
X142951200Y-80417927D01*
X142954640Y-80382998D01*
X142951200Y-80348070D01*
X142951200Y-79493182D01*
X143024277Y-79383815D01*
X143090990Y-79222755D01*
X143125000Y-79051775D01*
X143125000Y-78877445D01*
X143090990Y-78706465D01*
X143024277Y-78545405D01*
X142927424Y-78400455D01*
X142875379Y-78348410D01*
X143077584Y-78146204D01*
X143173168Y-78325029D01*
X143358740Y-78551149D01*
X143584860Y-78736721D01*
X143842840Y-78874614D01*
X144122763Y-78959528D01*
X144340924Y-78981015D01*
X144486824Y-78981015D01*
X144704985Y-78959528D01*
X144984908Y-78874614D01*
X145077388Y-78825182D01*
X145075731Y-78842010D01*
X145104403Y-79133121D01*
X145189317Y-79413044D01*
X145327210Y-79671024D01*
X145512782Y-79897144D01*
X145738902Y-80082716D01*
X145996882Y-80220609D01*
X146276805Y-80305523D01*
X146494966Y-80327010D01*
X146640866Y-80327010D01*
X146859027Y-80305523D01*
X147138950Y-80220609D01*
X147244275Y-80164312D01*
X147241343Y-80302089D01*
X147292049Y-80588751D01*
X147397706Y-80860012D01*
X147554253Y-81105448D01*
X147655432Y-81221323D01*
X147914680Y-81240260D01*
X148546956Y-80228407D01*
X148529995Y-80217809D01*
X148664595Y-80002405D01*
X148681556Y-80013003D01*
X149313831Y-79001150D01*
X149183164Y-78776441D01*
X149034662Y-78736298D01*
X148745440Y-78703187D01*
X148455315Y-78727136D01*
X148175437Y-78807226D01*
X148057555Y-78867858D01*
X148060101Y-78842010D01*
X148031429Y-78550899D01*
X147946515Y-78270976D01*
X147808622Y-78012996D01*
X147623050Y-77786876D01*
X147396930Y-77601304D01*
X147138950Y-77463411D01*
X146859027Y-77378497D01*
X146640866Y-77357010D01*
X146494966Y-77357010D01*
X146276805Y-77378497D01*
X145996882Y-77463411D01*
X145904402Y-77512843D01*
X145906059Y-77496015D01*
X145877387Y-77204904D01*
X145792473Y-76924981D01*
X145654580Y-76667001D01*
X145469008Y-76440881D01*
X145242888Y-76255309D01*
X145054844Y-76154797D01*
X145056702Y-76152533D01*
X145105248Y-76061710D01*
X145122742Y-76028981D01*
X145163409Y-75894920D01*
X145173700Y-75790436D01*
X145173700Y-75790427D01*
X145177140Y-75755501D01*
X145173700Y-75720575D01*
X145173700Y-75402972D01*
X145732500Y-75402972D01*
X145856982Y-75390712D01*
X145976680Y-75354402D01*
X146086994Y-75295437D01*
X146183685Y-75216085D01*
X146263037Y-75119394D01*
X146322002Y-75009080D01*
X146358312Y-74889382D01*
X146370572Y-74764900D01*
X146370572Y-69777700D01*
X146565013Y-69777700D01*
X147956957Y-76737421D01*
G36*
X119694428Y-74764900D02*
G01*
X119706688Y-74889382D01*
X119742998Y-75009080D01*
X119801963Y-75119394D01*
X119881315Y-75216085D01*
X119978006Y-75295437D01*
X120088320Y-75354402D01*
X120208018Y-75390712D01*
X120332500Y-75402972D01*
X121081043Y-75402972D01*
X121097174Y-75422627D01*
X121124310Y-75444897D01*
X121588417Y-75909005D01*
X121461092Y-75909005D01*
X121242931Y-75930492D01*
X120963008Y-76015406D01*
X120705028Y-76153299D01*
X120478908Y-76338871D01*
X120293336Y-76564991D01*
X120155443Y-76822971D01*
X120070529Y-77102894D01*
X120041857Y-77394005D01*
X120043514Y-77410833D01*
X119951034Y-77361401D01*
X119671111Y-77276487D01*
X119452950Y-77255000D01*
X119307050Y-77255000D01*
X119088889Y-77276487D01*
X118808966Y-77361401D01*
X118550986Y-77499294D01*
X118324866Y-77684866D01*
X118139294Y-77910986D01*
X118001401Y-78168966D01*
X117916487Y-78448889D01*
X117887815Y-78740000D01*
X117890361Y-78765848D01*
X117772479Y-78705216D01*
X117492601Y-78625126D01*
X117202476Y-78601177D01*
X116913254Y-78634288D01*
X116764752Y-78674431D01*
X116634085Y-78899140D01*
X117266360Y-79910993D01*
X117283321Y-79900395D01*
X117417921Y-80115799D01*
X117400960Y-80126397D01*
X117411558Y-80143358D01*
X117196154Y-80277958D01*
X117185556Y-80260997D01*
X117168595Y-80271595D01*
X117033995Y-80056191D01*
X117050956Y-80045593D01*
X116418680Y-79033740D01*
X116159432Y-79052677D01*
X116058253Y-79168552D01*
X115901706Y-79413988D01*
X115796049Y-79685249D01*
X115776338Y-79796681D01*
X115712857Y-79741254D01*
X115604394Y-79678948D01*
X115485861Y-79639000D01*
X115361812Y-79622944D01*
X115237014Y-79631397D01*
X115116263Y-79664034D01*
X115004200Y-79719602D01*
X113562518Y-80620464D01*
X113463448Y-80696827D01*
X113381180Y-80791049D01*
X113318874Y-80899512D01*
X113278926Y-81018045D01*
X113262870Y-81142094D01*
X113271323Y-81266892D01*
X113303960Y-81387643D01*
X113359528Y-81499706D01*
X114260390Y-82941388D01*
X114336753Y-83040458D01*
X114430975Y-83122726D01*
X114539438Y-83185032D01*
X114657971Y-83224980D01*
X114782020Y-83241036D01*
X114906818Y-83232583D01*
X115027569Y-83199946D01*
X115139632Y-83144378D01*
X116581314Y-82243516D01*
X116680384Y-82167153D01*
X116701307Y-82143190D01*
X118813285Y-82143190D01*
X118848211Y-82146630D01*
X118883137Y-82143190D01*
X118883147Y-82143190D01*
X118987631Y-82132899D01*
X119070430Y-82107782D01*
X118323413Y-82854800D01*
X118131325Y-82854800D01*
X118096399Y-82851360D01*
X118061473Y-82854800D01*
X118061464Y-82854800D01*
X117956980Y-82865091D01*
X117822919Y-82905758D01*
X117709430Y-82966419D01*
X117699367Y-82971798D01*
X117618208Y-83038403D01*
X117618204Y-83038407D01*
X117591073Y-83060673D01*
X117568807Y-83087804D01*
X117123324Y-83533288D01*
X117028494Y-83455463D01*
X116918180Y-83396498D01*
X116798482Y-83360188D01*
X116674000Y-83347928D01*
X114974000Y-83347928D01*
X114849518Y-83360188D01*
X114729820Y-83396498D01*
X114619506Y-83455463D01*
X114522815Y-83534815D01*
X114443463Y-83631506D01*
X114384498Y-83741820D01*
X114348188Y-83861518D01*
X114335928Y-83986000D01*
X114335928Y-85686000D01*
X114348188Y-85810482D01*
X114384498Y-85930180D01*
X114443463Y-86040494D01*
X114522815Y-86137185D01*
X114619506Y-86216537D01*
X114729820Y-86275502D01*
X114849518Y-86311812D01*
X114974000Y-86324072D01*
X116674000Y-86324072D01*
X116798482Y-86311812D01*
X116918180Y-86275502D01*
X117028494Y-86216537D01*
X117125185Y-86137185D01*
X117204537Y-86040494D01*
X117263502Y-85930180D01*
X117287966Y-85849534D01*
X117363731Y-85933588D01*
X117597080Y-86107641D01*
X117859901Y-86232825D01*
X118007110Y-86277476D01*
X118237000Y-86156155D01*
X118237000Y-84963000D01*
X118491000Y-84963000D01*
X118491000Y-86156155D01*
X118720890Y-86277476D01*
X118868099Y-86232825D01*
X119130920Y-86107641D01*
X119364269Y-85933588D01*
X119559178Y-85717355D01*
X119708157Y-85467252D01*
X119805481Y-85192891D01*
X119684814Y-84963000D01*
X118491000Y-84963000D01*
X118237000Y-84963000D01*
X118217000Y-84963000D01*
X118217000Y-84709000D01*
X118237000Y-84709000D01*
X118237000Y-84689000D01*
X118491000Y-84689000D01*
X118491000Y-84709000D01*
X119684814Y-84709000D01*
X119805481Y-84479109D01*
X119708157Y-84204748D01*
X119559178Y-83954645D01*
X119405563Y-83784224D01*
X120827399Y-82362390D01*
X120854524Y-82340129D01*
X120876786Y-82313003D01*
X120876796Y-82312993D01*
X120943400Y-82231835D01*
X121009440Y-82108284D01*
X121050107Y-81974222D01*
X121051548Y-81959587D01*
X121060398Y-81869738D01*
X121060398Y-81869731D01*
X121061262Y-81860957D01*
X121192412Y-81900741D01*
X121296896Y-81911032D01*
X121296903Y-81911032D01*
X121331832Y-81914472D01*
X121366760Y-81911032D01*
X122111254Y-81911032D01*
X122128723Y-81953205D01*
X122225576Y-82098155D01*
X122348845Y-82221424D01*
X122493795Y-82318277D01*
X122654855Y-82384990D01*
X122753216Y-82404555D01*
X122757087Y-82417317D01*
X122758346Y-82421467D01*
X122824385Y-82545018D01*
X122870016Y-82600619D01*
X122913261Y-82653313D01*
X122940397Y-82675583D01*
X123318412Y-83053598D01*
X123340687Y-83080740D01*
X123448981Y-83169615D01*
X123572533Y-83235655D01*
X123706594Y-83276322D01*
X123811078Y-83286613D01*
X123811087Y-83286613D01*
X123846013Y-83290053D01*
X123880939Y-83286613D01*
X125106692Y-83286613D01*
X126677080Y-84857002D01*
X126699350Y-84884138D01*
X126807644Y-84973013D01*
X126931196Y-85039053D01*
X127065257Y-85079720D01*
X127169741Y-85090011D01*
X127169748Y-85090011D01*
X127204677Y-85093451D01*
X127239605Y-85090011D01*
X129323047Y-85090011D01*
X129263723Y-85178795D01*
X129197010Y-85339855D01*
X129163000Y-85510835D01*
X129163000Y-85685165D01*
X129184818Y-85794851D01*
X129043630Y-85766767D01*
X128869300Y-85766767D01*
X128698320Y-85800777D01*
X128537260Y-85867490D01*
X128392310Y-85964343D01*
X128269041Y-86087612D01*
X128172188Y-86232562D01*
X128105475Y-86393622D01*
X128071465Y-86564602D01*
X128071465Y-86738932D01*
X128105475Y-86909912D01*
X128130364Y-86970000D01*
X127063581Y-86970000D01*
X126966617Y-86979550D01*
X126905251Y-86998166D01*
X126815890Y-87008189D01*
X126758452Y-87020397D01*
X126700880Y-87031797D01*
X126692247Y-87034469D01*
X126692243Y-87034470D01*
X126692240Y-87034471D01*
X126692241Y-87034471D01*
X126506211Y-87093484D01*
X126452220Y-87116624D01*
X126397981Y-87138980D01*
X126390029Y-87143280D01*
X126390023Y-87143282D01*
X126390018Y-87143285D01*
X126346909Y-87166985D01*
X126264205Y-87111723D01*
X126103145Y-87045010D01*
X125932165Y-87011000D01*
X125757835Y-87011000D01*
X125586855Y-87045010D01*
X125470000Y-87093413D01*
X125353145Y-87045010D01*
X125182165Y-87011000D01*
X125007835Y-87011000D01*
X124836855Y-87045010D01*
X124720000Y-87093413D01*
X124603145Y-87045010D01*
X124432165Y-87011000D01*
X124257835Y-87011000D01*
X124086855Y-87045010D01*
X123925795Y-87111723D01*
X123843490Y-87166718D01*
X123781146Y-87133569D01*
X123726872Y-87111198D01*
X123672915Y-87088072D01*
X123664282Y-87085400D01*
X123664275Y-87085397D01*
X123664268Y-87085396D01*
X123477440Y-87028989D01*
X123419840Y-87017584D01*
X123362432Y-87005381D01*
X123353439Y-87004436D01*
X123159205Y-86985391D01*
X123159191Y-86985391D01*
X123127809Y-86982300D01*
X110842803Y-86982300D01*
X111694221Y-81022380D01*
X117918425Y-77192101D01*
X117957016Y-77171525D01*
X117997249Y-77138578D01*
X118038681Y-77107092D01*
X118046547Y-77098207D01*
X118055727Y-77090689D01*
X118088770Y-77050512D01*
X118123251Y-77011562D01*
X118129232Y-77001313D01*
X118136769Y-76992149D01*
X118161335Y-76946304D01*
X118187559Y-76901369D01*
X118191427Y-76890148D01*
X118197030Y-76879691D01*
X118212177Y-76829944D01*
X118229134Y-76780747D01*
X118235049Y-76737387D01*
X119626987Y-69777700D01*
X119694428Y-69777700D01*
X119694428Y-74764900D01*
X119694428Y-74764900D01*
G37*
X119694428Y-74764900D02*
X119706688Y-74889382D01*
X119742998Y-75009080D01*
X119801963Y-75119394D01*
X119881315Y-75216085D01*
X119978006Y-75295437D01*
X120088320Y-75354402D01*
X120208018Y-75390712D01*
X120332500Y-75402972D01*
X121081043Y-75402972D01*
X121097174Y-75422627D01*
X121124310Y-75444897D01*
X121588417Y-75909005D01*
X121461092Y-75909005D01*
X121242931Y-75930492D01*
X120963008Y-76015406D01*
X120705028Y-76153299D01*
X120478908Y-76338871D01*
X120293336Y-76564991D01*
X120155443Y-76822971D01*
X120070529Y-77102894D01*
X120041857Y-77394005D01*
X120043514Y-77410833D01*
X119951034Y-77361401D01*
X119671111Y-77276487D01*
X119452950Y-77255000D01*
X119307050Y-77255000D01*
X119088889Y-77276487D01*
X118808966Y-77361401D01*
X118550986Y-77499294D01*
X118324866Y-77684866D01*
X118139294Y-77910986D01*
X118001401Y-78168966D01*
X117916487Y-78448889D01*
X117887815Y-78740000D01*
X117890361Y-78765848D01*
X117772479Y-78705216D01*
X117492601Y-78625126D01*
X117202476Y-78601177D01*
X116913254Y-78634288D01*
X116764752Y-78674431D01*
X116634085Y-78899140D01*
X117266360Y-79910993D01*
X117283321Y-79900395D01*
X117417921Y-80115799D01*
X117400960Y-80126397D01*
X117411558Y-80143358D01*
X117196154Y-80277958D01*
X117185556Y-80260997D01*
X117168595Y-80271595D01*
X117033995Y-80056191D01*
X117050956Y-80045593D01*
X116418680Y-79033740D01*
X116159432Y-79052677D01*
X116058253Y-79168552D01*
X115901706Y-79413988D01*
X115796049Y-79685249D01*
X115776338Y-79796681D01*
X115712857Y-79741254D01*
X115604394Y-79678948D01*
X115485861Y-79639000D01*
X115361812Y-79622944D01*
X115237014Y-79631397D01*
X115116263Y-79664034D01*
X115004200Y-79719602D01*
X113562518Y-80620464D01*
X113463448Y-80696827D01*
X113381180Y-80791049D01*
X113318874Y-80899512D01*
X113278926Y-81018045D01*
X113262870Y-81142094D01*
X113271323Y-81266892D01*
X113303960Y-81387643D01*
X113359528Y-81499706D01*
X114260390Y-82941388D01*
X114336753Y-83040458D01*
X114430975Y-83122726D01*
X114539438Y-83185032D01*
X114657971Y-83224980D01*
X114782020Y-83241036D01*
X114906818Y-83232583D01*
X115027569Y-83199946D01*
X115139632Y-83144378D01*
X116581314Y-82243516D01*
X116680384Y-82167153D01*
X116701307Y-82143190D01*
X118813285Y-82143190D01*
X118848211Y-82146630D01*
X118883137Y-82143190D01*
X118883147Y-82143190D01*
X118987631Y-82132899D01*
X119070430Y-82107782D01*
X118323413Y-82854800D01*
X118131325Y-82854800D01*
X118096399Y-82851360D01*
X118061473Y-82854800D01*
X118061464Y-82854800D01*
X117956980Y-82865091D01*
X117822919Y-82905758D01*
X117709430Y-82966419D01*
X117699367Y-82971798D01*
X117618208Y-83038403D01*
X117618204Y-83038407D01*
X117591073Y-83060673D01*
X117568807Y-83087804D01*
X117123324Y-83533288D01*
X117028494Y-83455463D01*
X116918180Y-83396498D01*
X116798482Y-83360188D01*
X116674000Y-83347928D01*
X114974000Y-83347928D01*
X114849518Y-83360188D01*
X114729820Y-83396498D01*
X114619506Y-83455463D01*
X114522815Y-83534815D01*
X114443463Y-83631506D01*
X114384498Y-83741820D01*
X114348188Y-83861518D01*
X114335928Y-83986000D01*
X114335928Y-85686000D01*
X114348188Y-85810482D01*
X114384498Y-85930180D01*
X114443463Y-86040494D01*
X114522815Y-86137185D01*
X114619506Y-86216537D01*
X114729820Y-86275502D01*
X114849518Y-86311812D01*
X114974000Y-86324072D01*
X116674000Y-86324072D01*
X116798482Y-86311812D01*
X116918180Y-86275502D01*
X117028494Y-86216537D01*
X117125185Y-86137185D01*
X117204537Y-86040494D01*
X117263502Y-85930180D01*
X117287966Y-85849534D01*
X117363731Y-85933588D01*
X117597080Y-86107641D01*
X117859901Y-86232825D01*
X118007110Y-86277476D01*
X118237000Y-86156155D01*
X118237000Y-84963000D01*
X118491000Y-84963000D01*
X118491000Y-86156155D01*
X118720890Y-86277476D01*
X118868099Y-86232825D01*
X119130920Y-86107641D01*
X119364269Y-85933588D01*
X119559178Y-85717355D01*
X119708157Y-85467252D01*
X119805481Y-85192891D01*
X119684814Y-84963000D01*
X118491000Y-84963000D01*
X118237000Y-84963000D01*
X118217000Y-84963000D01*
X118217000Y-84709000D01*
X118237000Y-84709000D01*
X118237000Y-84689000D01*
X118491000Y-84689000D01*
X118491000Y-84709000D01*
X119684814Y-84709000D01*
X119805481Y-84479109D01*
X119708157Y-84204748D01*
X119559178Y-83954645D01*
X119405563Y-83784224D01*
X120827399Y-82362390D01*
X120854524Y-82340129D01*
X120876786Y-82313003D01*
X120876796Y-82312993D01*
X120943400Y-82231835D01*
X121009440Y-82108284D01*
X121050107Y-81974222D01*
X121051548Y-81959587D01*
X121060398Y-81869738D01*
X121060398Y-81869731D01*
X121061262Y-81860957D01*
X121192412Y-81900741D01*
X121296896Y-81911032D01*
X121296903Y-81911032D01*
X121331832Y-81914472D01*
X121366760Y-81911032D01*
X122111254Y-81911032D01*
X122128723Y-81953205D01*
X122225576Y-82098155D01*
X122348845Y-82221424D01*
X122493795Y-82318277D01*
X122654855Y-82384990D01*
X122753216Y-82404555D01*
X122757087Y-82417317D01*
X122758346Y-82421467D01*
X122824385Y-82545018D01*
X122870016Y-82600619D01*
X122913261Y-82653313D01*
X122940397Y-82675583D01*
X123318412Y-83053598D01*
X123340687Y-83080740D01*
X123448981Y-83169615D01*
X123572533Y-83235655D01*
X123706594Y-83276322D01*
X123811078Y-83286613D01*
X123811087Y-83286613D01*
X123846013Y-83290053D01*
X123880939Y-83286613D01*
X125106692Y-83286613D01*
X126677080Y-84857002D01*
X126699350Y-84884138D01*
X126807644Y-84973013D01*
X126931196Y-85039053D01*
X127065257Y-85079720D01*
X127169741Y-85090011D01*
X127169748Y-85090011D01*
X127204677Y-85093451D01*
X127239605Y-85090011D01*
X129323047Y-85090011D01*
X129263723Y-85178795D01*
X129197010Y-85339855D01*
X129163000Y-85510835D01*
X129163000Y-85685165D01*
X129184818Y-85794851D01*
X129043630Y-85766767D01*
X128869300Y-85766767D01*
X128698320Y-85800777D01*
X128537260Y-85867490D01*
X128392310Y-85964343D01*
X128269041Y-86087612D01*
X128172188Y-86232562D01*
X128105475Y-86393622D01*
X128071465Y-86564602D01*
X128071465Y-86738932D01*
X128105475Y-86909912D01*
X128130364Y-86970000D01*
X127063581Y-86970000D01*
X126966617Y-86979550D01*
X126905251Y-86998166D01*
X126815890Y-87008189D01*
X126758452Y-87020397D01*
X126700880Y-87031797D01*
X126692247Y-87034469D01*
X126692243Y-87034470D01*
X126692240Y-87034471D01*
X126692241Y-87034471D01*
X126506211Y-87093484D01*
X126452220Y-87116624D01*
X126397981Y-87138980D01*
X126390029Y-87143280D01*
X126390023Y-87143282D01*
X126390018Y-87143285D01*
X126346909Y-87166985D01*
X126264205Y-87111723D01*
X126103145Y-87045010D01*
X125932165Y-87011000D01*
X125757835Y-87011000D01*
X125586855Y-87045010D01*
X125470000Y-87093413D01*
X125353145Y-87045010D01*
X125182165Y-87011000D01*
X125007835Y-87011000D01*
X124836855Y-87045010D01*
X124720000Y-87093413D01*
X124603145Y-87045010D01*
X124432165Y-87011000D01*
X124257835Y-87011000D01*
X124086855Y-87045010D01*
X123925795Y-87111723D01*
X123843490Y-87166718D01*
X123781146Y-87133569D01*
X123726872Y-87111198D01*
X123672915Y-87088072D01*
X123664282Y-87085400D01*
X123664275Y-87085397D01*
X123664268Y-87085396D01*
X123477440Y-87028989D01*
X123419840Y-87017584D01*
X123362432Y-87005381D01*
X123353439Y-87004436D01*
X123159205Y-86985391D01*
X123159191Y-86985391D01*
X123127809Y-86982300D01*
X110842803Y-86982300D01*
X111694221Y-81022380D01*
X117918425Y-77192101D01*
X117957016Y-77171525D01*
X117997249Y-77138578D01*
X118038681Y-77107092D01*
X118046547Y-77098207D01*
X118055727Y-77090689D01*
X118088770Y-77050512D01*
X118123251Y-77011562D01*
X118129232Y-77001313D01*
X118136769Y-76992149D01*
X118161335Y-76946304D01*
X118187559Y-76901369D01*
X118191427Y-76890148D01*
X118197030Y-76879691D01*
X118212177Y-76829944D01*
X118229134Y-76780747D01*
X118235049Y-76737387D01*
X119626987Y-69777700D01*
X119694428Y-69777700D01*
X119694428Y-74764900D01*
G36*
X132389630Y-83362800D02*
G01*
X132018988Y-83362800D01*
X132082543Y-83299245D01*
X132096084Y-83299245D01*
X132267064Y-83265235D01*
X132312001Y-83246621D01*
X132389630Y-83362800D01*
X132389630Y-83362800D01*
G37*
X132389630Y-83362800D02*
X132018988Y-83362800D01*
X132082543Y-83299245D01*
X132096084Y-83299245D01*
X132267064Y-83265235D01*
X132312001Y-83246621D01*
X132389630Y-83362800D01*
G36*
X142554428Y-74764900D02*
G01*
X142566688Y-74889382D01*
X142602998Y-75009080D01*
X142661963Y-75119394D01*
X142741315Y-75216085D01*
X142838006Y-75295437D01*
X142948320Y-75354402D01*
X143068018Y-75390712D01*
X143192500Y-75402972D01*
X143751300Y-75402972D01*
X143751300Y-75460911D01*
X137682958Y-81529255D01*
X137393381Y-81529255D01*
X137358455Y-81525815D01*
X137323529Y-81529255D01*
X136232741Y-81529255D01*
X136166277Y-81368795D01*
X136097111Y-81265282D01*
X137544279Y-80665845D01*
X139104333Y-79623450D01*
X140431050Y-78296733D01*
X141473445Y-76736679D01*
X142191459Y-75003240D01*
X142554428Y-73178475D01*
X142554428Y-74764900D01*
X142554428Y-74764900D01*
G37*
X142554428Y-74764900D02*
X142566688Y-74889382D01*
X142602998Y-75009080D01*
X142661963Y-75119394D01*
X142741315Y-75216085D01*
X142838006Y-75295437D01*
X142948320Y-75354402D01*
X143068018Y-75390712D01*
X143192500Y-75402972D01*
X143751300Y-75402972D01*
X143751300Y-75460911D01*
X137682958Y-81529255D01*
X137393381Y-81529255D01*
X137358455Y-81525815D01*
X137323529Y-81529255D01*
X136232741Y-81529255D01*
X136166277Y-81368795D01*
X136097111Y-81265282D01*
X137544279Y-80665845D01*
X139104333Y-79623450D01*
X140431050Y-78296733D01*
X141473445Y-76736679D01*
X142191459Y-75003240D01*
X142554428Y-73178475D01*
X142554428Y-74764900D01*
G36*
X139939795Y-90180277D02*
G01*
X140100855Y-90246990D01*
X140271835Y-90281000D01*
X140446165Y-90281000D01*
X140617145Y-90246990D01*
X140734000Y-90198587D01*
X140850855Y-90246990D01*
X141021835Y-90281000D01*
X141196165Y-90281000D01*
X141367145Y-90246990D01*
X141484000Y-90198587D01*
X141600855Y-90246990D01*
X141771835Y-90281000D01*
X141946165Y-90281000D01*
X142117145Y-90246990D01*
X142278205Y-90180277D01*
X142381861Y-90111016D01*
X142410854Y-90126432D01*
X142465174Y-90148821D01*
X142519086Y-90171928D01*
X142527718Y-90174600D01*
X142527725Y-90174603D01*
X142527732Y-90174604D01*
X142714561Y-90231011D01*
X142772145Y-90242413D01*
X142829567Y-90254619D01*
X142838561Y-90255564D01*
X143032794Y-90274609D01*
X143032809Y-90274609D01*
X143064191Y-90277700D01*
X155349196Y-90277700D01*
X154498084Y-96235483D01*
X154418943Y-96286134D01*
X148273581Y-100067895D01*
X148234983Y-100088475D01*
X148194736Y-100121434D01*
X148153319Y-100152909D01*
X148145456Y-100161791D01*
X148136272Y-100169312D01*
X148103216Y-100209505D01*
X148068749Y-100248439D01*
X148062770Y-100258684D01*
X148055230Y-100267852D01*
X148030650Y-100313723D01*
X148004441Y-100358632D01*
X148000576Y-100369845D01*
X147994969Y-100380309D01*
X147979807Y-100430104D01*
X147962867Y-100479254D01*
X147956957Y-100522579D01*
X146565013Y-107482300D01*
X146294372Y-107482300D01*
X146294372Y-102565200D01*
X146282112Y-102440718D01*
X146245802Y-102321020D01*
X146186837Y-102210706D01*
X146107485Y-102114015D01*
X146010794Y-102034663D01*
X145900480Y-101975698D01*
X145780782Y-101939388D01*
X145656300Y-101927128D01*
X144907757Y-101927128D01*
X144891626Y-101907473D01*
X144864501Y-101885212D01*
X144178706Y-101199418D01*
X144376763Y-101259498D01*
X144594924Y-101280985D01*
X144740824Y-101280985D01*
X144958985Y-101259498D01*
X145238908Y-101174584D01*
X145496888Y-101036691D01*
X145723008Y-100851119D01*
X145908580Y-100624999D01*
X146046473Y-100367019D01*
X146131387Y-100087096D01*
X146160059Y-99795985D01*
X146158402Y-99779157D01*
X146250882Y-99828589D01*
X146530805Y-99913503D01*
X146748966Y-99934990D01*
X146894866Y-99934990D01*
X147113027Y-99913503D01*
X147392950Y-99828589D01*
X147650930Y-99690696D01*
X147877050Y-99505124D01*
X148062622Y-99279004D01*
X148200515Y-99021024D01*
X148285429Y-98741101D01*
X148314101Y-98449990D01*
X148311555Y-98424142D01*
X148429437Y-98484774D01*
X148709315Y-98564864D01*
X148999440Y-98588813D01*
X149288662Y-98555702D01*
X149437164Y-98515559D01*
X149567831Y-98290850D01*
X148935556Y-97278997D01*
X148918595Y-97289595D01*
X148783995Y-97074191D01*
X148800956Y-97063593D01*
X148168680Y-96051740D01*
X147909432Y-96070677D01*
X147808253Y-96186552D01*
X147651706Y-96431988D01*
X147546049Y-96703249D01*
X147495343Y-96989911D01*
X147498275Y-97127688D01*
X147392950Y-97071391D01*
X147113027Y-96986477D01*
X146894866Y-96964990D01*
X146748966Y-96964990D01*
X146530805Y-96986477D01*
X146250882Y-97071391D01*
X145992902Y-97209284D01*
X145766782Y-97394856D01*
X145581210Y-97620976D01*
X145443317Y-97878956D01*
X145358403Y-98158879D01*
X145329731Y-98449990D01*
X145331388Y-98466818D01*
X145238908Y-98417386D01*
X144958985Y-98332472D01*
X144740824Y-98310985D01*
X144594924Y-98310985D01*
X144376763Y-98332472D01*
X144096840Y-98417386D01*
X143838860Y-98555279D01*
X143776700Y-98606292D01*
X143776700Y-97634425D01*
X143777288Y-97628458D01*
X143930835Y-97659000D01*
X144105165Y-97659000D01*
X144276145Y-97624990D01*
X144437205Y-97558277D01*
X144582155Y-97461424D01*
X144705424Y-97338155D01*
X144802277Y-97193205D01*
X144868990Y-97032145D01*
X144903000Y-96861165D01*
X144903000Y-96686835D01*
X144868990Y-96515855D01*
X144802277Y-96354795D01*
X144729200Y-96245428D01*
X144729200Y-95917140D01*
X148384085Y-95917140D01*
X149016360Y-96928993D01*
X149033321Y-96918395D01*
X149167921Y-97133799D01*
X149150960Y-97144397D01*
X149783236Y-98156250D01*
X150042484Y-98137313D01*
X150143663Y-98021438D01*
X150300210Y-97776002D01*
X150405867Y-97504741D01*
X150425578Y-97393309D01*
X150489059Y-97448736D01*
X150597522Y-97511042D01*
X150716055Y-97550990D01*
X150840104Y-97567046D01*
X150964902Y-97558593D01*
X151085653Y-97525956D01*
X151197716Y-97470388D01*
X152639398Y-96569526D01*
X152738468Y-96493163D01*
X152820736Y-96398941D01*
X152883042Y-96290478D01*
X152922990Y-96171945D01*
X152939046Y-96047896D01*
X152930593Y-95923098D01*
X152897956Y-95802347D01*
X152842388Y-95690284D01*
X151941526Y-94248602D01*
X151865163Y-94149532D01*
X151770941Y-94067264D01*
X151662478Y-94004958D01*
X151543945Y-93965010D01*
X151419896Y-93948954D01*
X151295098Y-93957407D01*
X151174347Y-93990044D01*
X151062284Y-94045612D01*
X149620602Y-94946474D01*
X149521532Y-95022837D01*
X149439264Y-95117059D01*
X149376958Y-95225522D01*
X149337010Y-95344055D01*
X149320954Y-95468104D01*
X149329407Y-95592902D01*
X149351396Y-95674259D01*
X149242601Y-95643126D01*
X148952476Y-95619177D01*
X148663254Y-95652288D01*
X148514752Y-95692431D01*
X148384085Y-95917140D01*
X144729200Y-95917140D01*
X144729200Y-93944072D01*
X145630000Y-93944072D01*
X145754482Y-93931812D01*
X145874180Y-93895502D01*
X145984494Y-93836537D01*
X146081185Y-93757185D01*
X146160537Y-93660494D01*
X146219502Y-93550180D01*
X146243966Y-93469534D01*
X146319731Y-93553588D01*
X146553080Y-93727641D01*
X146815901Y-93852825D01*
X146963110Y-93897476D01*
X147193000Y-93776155D01*
X147193000Y-92583000D01*
X147447000Y-92583000D01*
X147447000Y-93776155D01*
X147676890Y-93897476D01*
X147824099Y-93852825D01*
X148086920Y-93727641D01*
X148320269Y-93553588D01*
X148515178Y-93337355D01*
X148664157Y-93087252D01*
X148761481Y-92812891D01*
X148640814Y-92583000D01*
X147447000Y-92583000D01*
X147193000Y-92583000D01*
X147173000Y-92583000D01*
X147173000Y-92329000D01*
X147193000Y-92329000D01*
X147193000Y-91135845D01*
X147447000Y-91135845D01*
X147447000Y-92329000D01*
X148640814Y-92329000D01*
X148761481Y-92099109D01*
X148664157Y-91824748D01*
X148515178Y-91574645D01*
X148320269Y-91358412D01*
X148086920Y-91184359D01*
X147824099Y-91059175D01*
X147676890Y-91014524D01*
X147447000Y-91135845D01*
X147193000Y-91135845D01*
X146963110Y-91014524D01*
X146815901Y-91059175D01*
X146553080Y-91184359D01*
X146319731Y-91358412D01*
X146243966Y-91442466D01*
X146219502Y-91361820D01*
X146160537Y-91251506D01*
X146081185Y-91154815D01*
X145984494Y-91075463D01*
X145874180Y-91016498D01*
X145754482Y-90980188D01*
X145630000Y-90967928D01*
X143930000Y-90967928D01*
X143805518Y-90980188D01*
X143685820Y-91016498D01*
X143575506Y-91075463D01*
X143478815Y-91154815D01*
X143399463Y-91251506D01*
X143340498Y-91361820D01*
X143304188Y-91481518D01*
X143291928Y-91606000D01*
X143291928Y-93306000D01*
X143304188Y-93430482D01*
X143306801Y-93439096D01*
X143306800Y-96245428D01*
X143233723Y-96354795D01*
X143167010Y-96515855D01*
X143137251Y-96665463D01*
X142989651Y-96517864D01*
X142963990Y-96388855D01*
X142897277Y-96227795D01*
X142800424Y-96082845D01*
X142677155Y-95959576D01*
X142532205Y-95862723D01*
X142371145Y-95796010D01*
X142242136Y-95770349D01*
X141497602Y-95025815D01*
X141475327Y-94998673D01*
X141367033Y-94909798D01*
X141243481Y-94843758D01*
X141109420Y-94803091D01*
X141004936Y-94792800D01*
X141004926Y-94792800D01*
X140970000Y-94789360D01*
X140935074Y-94792800D01*
X139680926Y-94792800D01*
X139680982Y-94792696D01*
X139708162Y-94741858D01*
X139708171Y-94741829D01*
X139708190Y-94741793D01*
X139728715Y-94674132D01*
X139745916Y-94617452D01*
X139745919Y-94617418D01*
X139745930Y-94617383D01*
X139752760Y-94548035D01*
X139755476Y-94520489D01*
X139755476Y-94520460D01*
X139758673Y-94488000D01*
X139755483Y-94455611D01*
X139755945Y-90136713D01*
X139794020Y-90121020D01*
X139801971Y-90116720D01*
X139801977Y-90116718D01*
X139801982Y-90116715D01*
X139825400Y-90103840D01*
X139939795Y-90180277D01*
X139939795Y-90180277D01*
G37*
X139939795Y-90180277D02*
X140100855Y-90246990D01*
X140271835Y-90281000D01*
X140446165Y-90281000D01*
X140617145Y-90246990D01*
X140734000Y-90198587D01*
X140850855Y-90246990D01*
X141021835Y-90281000D01*
X141196165Y-90281000D01*
X141367145Y-90246990D01*
X141484000Y-90198587D01*
X141600855Y-90246990D01*
X141771835Y-90281000D01*
X141946165Y-90281000D01*
X142117145Y-90246990D01*
X142278205Y-90180277D01*
X142381861Y-90111016D01*
X142410854Y-90126432D01*
X142465174Y-90148821D01*
X142519086Y-90171928D01*
X142527718Y-90174600D01*
X142527725Y-90174603D01*
X142527732Y-90174604D01*
X142714561Y-90231011D01*
X142772145Y-90242413D01*
X142829567Y-90254619D01*
X142838561Y-90255564D01*
X143032794Y-90274609D01*
X143032809Y-90274609D01*
X143064191Y-90277700D01*
X155349196Y-90277700D01*
X154498084Y-96235483D01*
X154418943Y-96286134D01*
X148273581Y-100067895D01*
X148234983Y-100088475D01*
X148194736Y-100121434D01*
X148153319Y-100152909D01*
X148145456Y-100161791D01*
X148136272Y-100169312D01*
X148103216Y-100209505D01*
X148068749Y-100248439D01*
X148062770Y-100258684D01*
X148055230Y-100267852D01*
X148030650Y-100313723D01*
X148004441Y-100358632D01*
X148000576Y-100369845D01*
X147994969Y-100380309D01*
X147979807Y-100430104D01*
X147962867Y-100479254D01*
X147956957Y-100522579D01*
X146565013Y-107482300D01*
X146294372Y-107482300D01*
X146294372Y-102565200D01*
X146282112Y-102440718D01*
X146245802Y-102321020D01*
X146186837Y-102210706D01*
X146107485Y-102114015D01*
X146010794Y-102034663D01*
X145900480Y-101975698D01*
X145780782Y-101939388D01*
X145656300Y-101927128D01*
X144907757Y-101927128D01*
X144891626Y-101907473D01*
X144864501Y-101885212D01*
X144178706Y-101199418D01*
X144376763Y-101259498D01*
X144594924Y-101280985D01*
X144740824Y-101280985D01*
X144958985Y-101259498D01*
X145238908Y-101174584D01*
X145496888Y-101036691D01*
X145723008Y-100851119D01*
X145908580Y-100624999D01*
X146046473Y-100367019D01*
X146131387Y-100087096D01*
X146160059Y-99795985D01*
X146158402Y-99779157D01*
X146250882Y-99828589D01*
X146530805Y-99913503D01*
X146748966Y-99934990D01*
X146894866Y-99934990D01*
X147113027Y-99913503D01*
X147392950Y-99828589D01*
X147650930Y-99690696D01*
X147877050Y-99505124D01*
X148062622Y-99279004D01*
X148200515Y-99021024D01*
X148285429Y-98741101D01*
X148314101Y-98449990D01*
X148311555Y-98424142D01*
X148429437Y-98484774D01*
X148709315Y-98564864D01*
X148999440Y-98588813D01*
X149288662Y-98555702D01*
X149437164Y-98515559D01*
X149567831Y-98290850D01*
X148935556Y-97278997D01*
X148918595Y-97289595D01*
X148783995Y-97074191D01*
X148800956Y-97063593D01*
X148168680Y-96051740D01*
X147909432Y-96070677D01*
X147808253Y-96186552D01*
X147651706Y-96431988D01*
X147546049Y-96703249D01*
X147495343Y-96989911D01*
X147498275Y-97127688D01*
X147392950Y-97071391D01*
X147113027Y-96986477D01*
X146894866Y-96964990D01*
X146748966Y-96964990D01*
X146530805Y-96986477D01*
X146250882Y-97071391D01*
X145992902Y-97209284D01*
X145766782Y-97394856D01*
X145581210Y-97620976D01*
X145443317Y-97878956D01*
X145358403Y-98158879D01*
X145329731Y-98449990D01*
X145331388Y-98466818D01*
X145238908Y-98417386D01*
X144958985Y-98332472D01*
X144740824Y-98310985D01*
X144594924Y-98310985D01*
X144376763Y-98332472D01*
X144096840Y-98417386D01*
X143838860Y-98555279D01*
X143776700Y-98606292D01*
X143776700Y-97634425D01*
X143777288Y-97628458D01*
X143930835Y-97659000D01*
X144105165Y-97659000D01*
X144276145Y-97624990D01*
X144437205Y-97558277D01*
X144582155Y-97461424D01*
X144705424Y-97338155D01*
X144802277Y-97193205D01*
X144868990Y-97032145D01*
X144903000Y-96861165D01*
X144903000Y-96686835D01*
X144868990Y-96515855D01*
X144802277Y-96354795D01*
X144729200Y-96245428D01*
X144729200Y-95917140D01*
X148384085Y-95917140D01*
X149016360Y-96928993D01*
X149033321Y-96918395D01*
X149167921Y-97133799D01*
X149150960Y-97144397D01*
X149783236Y-98156250D01*
X150042484Y-98137313D01*
X150143663Y-98021438D01*
X150300210Y-97776002D01*
X150405867Y-97504741D01*
X150425578Y-97393309D01*
X150489059Y-97448736D01*
X150597522Y-97511042D01*
X150716055Y-97550990D01*
X150840104Y-97567046D01*
X150964902Y-97558593D01*
X151085653Y-97525956D01*
X151197716Y-97470388D01*
X152639398Y-96569526D01*
X152738468Y-96493163D01*
X152820736Y-96398941D01*
X152883042Y-96290478D01*
X152922990Y-96171945D01*
X152939046Y-96047896D01*
X152930593Y-95923098D01*
X152897956Y-95802347D01*
X152842388Y-95690284D01*
X151941526Y-94248602D01*
X151865163Y-94149532D01*
X151770941Y-94067264D01*
X151662478Y-94004958D01*
X151543945Y-93965010D01*
X151419896Y-93948954D01*
X151295098Y-93957407D01*
X151174347Y-93990044D01*
X151062284Y-94045612D01*
X149620602Y-94946474D01*
X149521532Y-95022837D01*
X149439264Y-95117059D01*
X149376958Y-95225522D01*
X149337010Y-95344055D01*
X149320954Y-95468104D01*
X149329407Y-95592902D01*
X149351396Y-95674259D01*
X149242601Y-95643126D01*
X148952476Y-95619177D01*
X148663254Y-95652288D01*
X148514752Y-95692431D01*
X148384085Y-95917140D01*
X144729200Y-95917140D01*
X144729200Y-93944072D01*
X145630000Y-93944072D01*
X145754482Y-93931812D01*
X145874180Y-93895502D01*
X145984494Y-93836537D01*
X146081185Y-93757185D01*
X146160537Y-93660494D01*
X146219502Y-93550180D01*
X146243966Y-93469534D01*
X146319731Y-93553588D01*
X146553080Y-93727641D01*
X146815901Y-93852825D01*
X146963110Y-93897476D01*
X147193000Y-93776155D01*
X147193000Y-92583000D01*
X147447000Y-92583000D01*
X147447000Y-93776155D01*
X147676890Y-93897476D01*
X147824099Y-93852825D01*
X148086920Y-93727641D01*
X148320269Y-93553588D01*
X148515178Y-93337355D01*
X148664157Y-93087252D01*
X148761481Y-92812891D01*
X148640814Y-92583000D01*
X147447000Y-92583000D01*
X147193000Y-92583000D01*
X147173000Y-92583000D01*
X147173000Y-92329000D01*
X147193000Y-92329000D01*
X147193000Y-91135845D01*
X147447000Y-91135845D01*
X147447000Y-92329000D01*
X148640814Y-92329000D01*
X148761481Y-92099109D01*
X148664157Y-91824748D01*
X148515178Y-91574645D01*
X148320269Y-91358412D01*
X148086920Y-91184359D01*
X147824099Y-91059175D01*
X147676890Y-91014524D01*
X147447000Y-91135845D01*
X147193000Y-91135845D01*
X146963110Y-91014524D01*
X146815901Y-91059175D01*
X146553080Y-91184359D01*
X146319731Y-91358412D01*
X146243966Y-91442466D01*
X146219502Y-91361820D01*
X146160537Y-91251506D01*
X146081185Y-91154815D01*
X145984494Y-91075463D01*
X145874180Y-91016498D01*
X145754482Y-90980188D01*
X145630000Y-90967928D01*
X143930000Y-90967928D01*
X143805518Y-90980188D01*
X143685820Y-91016498D01*
X143575506Y-91075463D01*
X143478815Y-91154815D01*
X143399463Y-91251506D01*
X143340498Y-91361820D01*
X143304188Y-91481518D01*
X143291928Y-91606000D01*
X143291928Y-93306000D01*
X143304188Y-93430482D01*
X143306801Y-93439096D01*
X143306800Y-96245428D01*
X143233723Y-96354795D01*
X143167010Y-96515855D01*
X143137251Y-96665463D01*
X142989651Y-96517864D01*
X142963990Y-96388855D01*
X142897277Y-96227795D01*
X142800424Y-96082845D01*
X142677155Y-95959576D01*
X142532205Y-95862723D01*
X142371145Y-95796010D01*
X142242136Y-95770349D01*
X141497602Y-95025815D01*
X141475327Y-94998673D01*
X141367033Y-94909798D01*
X141243481Y-94843758D01*
X141109420Y-94803091D01*
X141004936Y-94792800D01*
X141004926Y-94792800D01*
X140970000Y-94789360D01*
X140935074Y-94792800D01*
X139680926Y-94792800D01*
X139680982Y-94792696D01*
X139708162Y-94741858D01*
X139708171Y-94741829D01*
X139708190Y-94741793D01*
X139728715Y-94674132D01*
X139745916Y-94617452D01*
X139745919Y-94617418D01*
X139745930Y-94617383D01*
X139752760Y-94548035D01*
X139755476Y-94520489D01*
X139755476Y-94520460D01*
X139758673Y-94488000D01*
X139755483Y-94455611D01*
X139755945Y-90136713D01*
X139794020Y-90121020D01*
X139801971Y-90116720D01*
X139801977Y-90116718D01*
X139801982Y-90116715D01*
X139825400Y-90103840D01*
X139939795Y-90180277D01*
G36*
X126410854Y-90126432D02*
G01*
X126436055Y-90136819D01*
X126436517Y-94455611D01*
X126433327Y-94488000D01*
X126436524Y-94520460D01*
X126436524Y-94520489D01*
X126439240Y-94548035D01*
X126446070Y-94617383D01*
X126446081Y-94617418D01*
X126446084Y-94617452D01*
X126463285Y-94674132D01*
X126483810Y-94741793D01*
X126483829Y-94741829D01*
X126483838Y-94741858D01*
X126509235Y-94789360D01*
X126545095Y-94856450D01*
X126545121Y-94856481D01*
X126545135Y-94856508D01*
X126580823Y-94899985D01*
X126627572Y-94956948D01*
X126627603Y-94956973D01*
X126627623Y-94956998D01*
X126672148Y-94993531D01*
X126728070Y-95039425D01*
X126728106Y-95039444D01*
X126728130Y-95039464D01*
X126780380Y-95067385D01*
X126842727Y-95100710D01*
X126842763Y-95100721D01*
X126842793Y-95100737D01*
X126899865Y-95118043D01*
X126967137Y-95138450D01*
X126967177Y-95138454D01*
X126967207Y-95138463D01*
X127023826Y-95144033D01*
X127064101Y-95148000D01*
X127064145Y-95148000D01*
X127096590Y-95151192D01*
X127128966Y-95148000D01*
X127785311Y-95148000D01*
X124914274Y-98019037D01*
X124791008Y-97895771D01*
X124646058Y-97798918D01*
X124484998Y-97732205D01*
X124314018Y-97698195D01*
X124139688Y-97698195D01*
X123968708Y-97732205D01*
X123952810Y-97738790D01*
X120927763Y-97738790D01*
X120864790Y-97620976D01*
X120679218Y-97394856D01*
X120453098Y-97209284D01*
X120195118Y-97071391D01*
X119915195Y-96986477D01*
X119697034Y-96964990D01*
X119551134Y-96964990D01*
X119332973Y-96986477D01*
X119053050Y-97071391D01*
X118947725Y-97127688D01*
X118950657Y-96989911D01*
X118899951Y-96703249D01*
X118794294Y-96431988D01*
X118637747Y-96186552D01*
X118536568Y-96070677D01*
X118277320Y-96051740D01*
X117645044Y-97063593D01*
X117662005Y-97074191D01*
X117527405Y-97289595D01*
X117510444Y-97278997D01*
X116878169Y-98290850D01*
X117008836Y-98515559D01*
X117157338Y-98555702D01*
X117446560Y-98588813D01*
X117736685Y-98564864D01*
X118016563Y-98484774D01*
X118134445Y-98424142D01*
X118131899Y-98449990D01*
X118160571Y-98741101D01*
X118245485Y-99021024D01*
X118383378Y-99279004D01*
X118568950Y-99505124D01*
X118795070Y-99690696D01*
X119053050Y-99828589D01*
X119332973Y-99913503D01*
X119551134Y-99934990D01*
X119697034Y-99934990D01*
X119915195Y-99913503D01*
X120195118Y-99828589D01*
X120287598Y-99779157D01*
X120285941Y-99795985D01*
X120314613Y-100087096D01*
X120399527Y-100367019D01*
X120537420Y-100624999D01*
X120722992Y-100851119D01*
X120949112Y-101036691D01*
X121207092Y-101174584D01*
X121487015Y-101259498D01*
X121657066Y-101276247D01*
X121048110Y-101885203D01*
X121020974Y-101907473D01*
X121004843Y-101927128D01*
X120256300Y-101927128D01*
X120131818Y-101939388D01*
X120012120Y-101975698D01*
X119901806Y-102034663D01*
X119805115Y-102114015D01*
X119725763Y-102210706D01*
X119666798Y-102321020D01*
X119630488Y-102440718D01*
X119618228Y-102565200D01*
X119618228Y-107438506D01*
X118235049Y-100522613D01*
X118229134Y-100479253D01*
X118212177Y-100430056D01*
X118197030Y-100380309D01*
X118191427Y-100369852D01*
X118187559Y-100358631D01*
X118161335Y-100313696D01*
X118136769Y-100267851D01*
X118129232Y-100258687D01*
X118123251Y-100248438D01*
X118088770Y-100209488D01*
X118055727Y-100169311D01*
X118046547Y-100161793D01*
X118038681Y-100152908D01*
X117997249Y-100121422D01*
X117957016Y-100088475D01*
X117918425Y-100067899D01*
X111694221Y-96237620D01*
X111667118Y-96047896D01*
X113506954Y-96047896D01*
X113523010Y-96171945D01*
X113562958Y-96290478D01*
X113625264Y-96398941D01*
X113707532Y-96493163D01*
X113806602Y-96569526D01*
X115248284Y-97470388D01*
X115360347Y-97525956D01*
X115481098Y-97558593D01*
X115605896Y-97567046D01*
X115729945Y-97550990D01*
X115848478Y-97511042D01*
X115956941Y-97448736D01*
X116020422Y-97393309D01*
X116040133Y-97504741D01*
X116145790Y-97776002D01*
X116302337Y-98021438D01*
X116403516Y-98137313D01*
X116662764Y-98156250D01*
X117295040Y-97144397D01*
X117278079Y-97133799D01*
X117412679Y-96918395D01*
X117429640Y-96928993D01*
X118061915Y-95917140D01*
X117931248Y-95692431D01*
X117782746Y-95652288D01*
X117493524Y-95619177D01*
X117203399Y-95643126D01*
X117094604Y-95674259D01*
X117116593Y-95592902D01*
X117125046Y-95468104D01*
X117108990Y-95344055D01*
X117069042Y-95225522D01*
X117006736Y-95117059D01*
X116924468Y-95022837D01*
X116825398Y-94946474D01*
X115383716Y-94045612D01*
X115271653Y-93990044D01*
X115150902Y-93957407D01*
X115026104Y-93948954D01*
X114902055Y-93965010D01*
X114783522Y-94004958D01*
X114675059Y-94067264D01*
X114580837Y-94149532D01*
X114504474Y-94248602D01*
X113603612Y-95690284D01*
X113548044Y-95802347D01*
X113515407Y-95923098D01*
X113506954Y-96047896D01*
X111667118Y-96047896D01*
X111032561Y-91606000D01*
X117383928Y-91606000D01*
X117383928Y-93306000D01*
X117396188Y-93430482D01*
X117432498Y-93550180D01*
X117491463Y-93660494D01*
X117570815Y-93757185D01*
X117667506Y-93836537D01*
X117777820Y-93895502D01*
X117897518Y-93931812D01*
X118022000Y-93944072D01*
X119722000Y-93944072D01*
X119846482Y-93931812D01*
X119966180Y-93895502D01*
X120076494Y-93836537D01*
X120173185Y-93757185D01*
X120252537Y-93660494D01*
X120311502Y-93550180D01*
X120335966Y-93469534D01*
X120411731Y-93553588D01*
X120645080Y-93727641D01*
X120907901Y-93852825D01*
X121055110Y-93897476D01*
X121285000Y-93776155D01*
X121285000Y-92583000D01*
X121539000Y-92583000D01*
X121539000Y-93776155D01*
X121768890Y-93897476D01*
X121916099Y-93852825D01*
X122178920Y-93727641D01*
X122412269Y-93553588D01*
X122607178Y-93337355D01*
X122756157Y-93087252D01*
X122853481Y-92812891D01*
X122732814Y-92583000D01*
X121539000Y-92583000D01*
X121285000Y-92583000D01*
X121265000Y-92583000D01*
X121265000Y-92329000D01*
X121285000Y-92329000D01*
X121285000Y-91135845D01*
X121539000Y-91135845D01*
X121539000Y-92329000D01*
X122732814Y-92329000D01*
X122853481Y-92099109D01*
X122756157Y-91824748D01*
X122607178Y-91574645D01*
X122412269Y-91358412D01*
X122178920Y-91184359D01*
X121916099Y-91059175D01*
X121768890Y-91014524D01*
X121539000Y-91135845D01*
X121285000Y-91135845D01*
X121055110Y-91014524D01*
X120907901Y-91059175D01*
X120645080Y-91184359D01*
X120411731Y-91358412D01*
X120335966Y-91442466D01*
X120311502Y-91361820D01*
X120252537Y-91251506D01*
X120173185Y-91154815D01*
X120076494Y-91075463D01*
X119966180Y-91016498D01*
X119846482Y-90980188D01*
X119722000Y-90967928D01*
X118022000Y-90967928D01*
X117897518Y-90980188D01*
X117777820Y-91016498D01*
X117667506Y-91075463D01*
X117570815Y-91154815D01*
X117491463Y-91251506D01*
X117432498Y-91361820D01*
X117396188Y-91481518D01*
X117383928Y-91606000D01*
X111032561Y-91606000D01*
X110842803Y-90277700D01*
X123127809Y-90277700D01*
X123160176Y-90274512D01*
X123173167Y-90274512D01*
X123182160Y-90273566D01*
X123376110Y-90251812D01*
X123433578Y-90239597D01*
X123491121Y-90228203D01*
X123499753Y-90225531D01*
X123499757Y-90225530D01*
X123499760Y-90225529D01*
X123685790Y-90166516D01*
X123739780Y-90143376D01*
X123794020Y-90121020D01*
X123801971Y-90116720D01*
X123801977Y-90116718D01*
X123801982Y-90116715D01*
X123817719Y-90108063D01*
X123925795Y-90180277D01*
X124086855Y-90246990D01*
X124257835Y-90281000D01*
X124432165Y-90281000D01*
X124603145Y-90246990D01*
X124720000Y-90198587D01*
X124836855Y-90246990D01*
X125007835Y-90281000D01*
X125182165Y-90281000D01*
X125353145Y-90246990D01*
X125470000Y-90198587D01*
X125586855Y-90246990D01*
X125757835Y-90281000D01*
X125932165Y-90281000D01*
X126103145Y-90246990D01*
X126264205Y-90180277D01*
X126374065Y-90106871D01*
X126410854Y-90126432D01*
X126410854Y-90126432D01*
G37*
X126410854Y-90126432D02*
X126436055Y-90136819D01*
X126436517Y-94455611D01*
X126433327Y-94488000D01*
X126436524Y-94520460D01*
X126436524Y-94520489D01*
X126439240Y-94548035D01*
X126446070Y-94617383D01*
X126446081Y-94617418D01*
X126446084Y-94617452D01*
X126463285Y-94674132D01*
X126483810Y-94741793D01*
X126483829Y-94741829D01*
X126483838Y-94741858D01*
X126509235Y-94789360D01*
X126545095Y-94856450D01*
X126545121Y-94856481D01*
X126545135Y-94856508D01*
X126580823Y-94899985D01*
X126627572Y-94956948D01*
X126627603Y-94956973D01*
X126627623Y-94956998D01*
X126672148Y-94993531D01*
X126728070Y-95039425D01*
X126728106Y-95039444D01*
X126728130Y-95039464D01*
X126780380Y-95067385D01*
X126842727Y-95100710D01*
X126842763Y-95100721D01*
X126842793Y-95100737D01*
X126899865Y-95118043D01*
X126967137Y-95138450D01*
X126967177Y-95138454D01*
X126967207Y-95138463D01*
X127023826Y-95144033D01*
X127064101Y-95148000D01*
X127064145Y-95148000D01*
X127096590Y-95151192D01*
X127128966Y-95148000D01*
X127785311Y-95148000D01*
X124914274Y-98019037D01*
X124791008Y-97895771D01*
X124646058Y-97798918D01*
X124484998Y-97732205D01*
X124314018Y-97698195D01*
X124139688Y-97698195D01*
X123968708Y-97732205D01*
X123952810Y-97738790D01*
X120927763Y-97738790D01*
X120864790Y-97620976D01*
X120679218Y-97394856D01*
X120453098Y-97209284D01*
X120195118Y-97071391D01*
X119915195Y-96986477D01*
X119697034Y-96964990D01*
X119551134Y-96964990D01*
X119332973Y-96986477D01*
X119053050Y-97071391D01*
X118947725Y-97127688D01*
X118950657Y-96989911D01*
X118899951Y-96703249D01*
X118794294Y-96431988D01*
X118637747Y-96186552D01*
X118536568Y-96070677D01*
X118277320Y-96051740D01*
X117645044Y-97063593D01*
X117662005Y-97074191D01*
X117527405Y-97289595D01*
X117510444Y-97278997D01*
X116878169Y-98290850D01*
X117008836Y-98515559D01*
X117157338Y-98555702D01*
X117446560Y-98588813D01*
X117736685Y-98564864D01*
X118016563Y-98484774D01*
X118134445Y-98424142D01*
X118131899Y-98449990D01*
X118160571Y-98741101D01*
X118245485Y-99021024D01*
X118383378Y-99279004D01*
X118568950Y-99505124D01*
X118795070Y-99690696D01*
X119053050Y-99828589D01*
X119332973Y-99913503D01*
X119551134Y-99934990D01*
X119697034Y-99934990D01*
X119915195Y-99913503D01*
X120195118Y-99828589D01*
X120287598Y-99779157D01*
X120285941Y-99795985D01*
X120314613Y-100087096D01*
X120399527Y-100367019D01*
X120537420Y-100624999D01*
X120722992Y-100851119D01*
X120949112Y-101036691D01*
X121207092Y-101174584D01*
X121487015Y-101259498D01*
X121657066Y-101276247D01*
X121048110Y-101885203D01*
X121020974Y-101907473D01*
X121004843Y-101927128D01*
X120256300Y-101927128D01*
X120131818Y-101939388D01*
X120012120Y-101975698D01*
X119901806Y-102034663D01*
X119805115Y-102114015D01*
X119725763Y-102210706D01*
X119666798Y-102321020D01*
X119630488Y-102440718D01*
X119618228Y-102565200D01*
X119618228Y-107438506D01*
X118235049Y-100522613D01*
X118229134Y-100479253D01*
X118212177Y-100430056D01*
X118197030Y-100380309D01*
X118191427Y-100369852D01*
X118187559Y-100358631D01*
X118161335Y-100313696D01*
X118136769Y-100267851D01*
X118129232Y-100258687D01*
X118123251Y-100248438D01*
X118088770Y-100209488D01*
X118055727Y-100169311D01*
X118046547Y-100161793D01*
X118038681Y-100152908D01*
X117997249Y-100121422D01*
X117957016Y-100088475D01*
X117918425Y-100067899D01*
X111694221Y-96237620D01*
X111667118Y-96047896D01*
X113506954Y-96047896D01*
X113523010Y-96171945D01*
X113562958Y-96290478D01*
X113625264Y-96398941D01*
X113707532Y-96493163D01*
X113806602Y-96569526D01*
X115248284Y-97470388D01*
X115360347Y-97525956D01*
X115481098Y-97558593D01*
X115605896Y-97567046D01*
X115729945Y-97550990D01*
X115848478Y-97511042D01*
X115956941Y-97448736D01*
X116020422Y-97393309D01*
X116040133Y-97504741D01*
X116145790Y-97776002D01*
X116302337Y-98021438D01*
X116403516Y-98137313D01*
X116662764Y-98156250D01*
X117295040Y-97144397D01*
X117278079Y-97133799D01*
X117412679Y-96918395D01*
X117429640Y-96928993D01*
X118061915Y-95917140D01*
X117931248Y-95692431D01*
X117782746Y-95652288D01*
X117493524Y-95619177D01*
X117203399Y-95643126D01*
X117094604Y-95674259D01*
X117116593Y-95592902D01*
X117125046Y-95468104D01*
X117108990Y-95344055D01*
X117069042Y-95225522D01*
X117006736Y-95117059D01*
X116924468Y-95022837D01*
X116825398Y-94946474D01*
X115383716Y-94045612D01*
X115271653Y-93990044D01*
X115150902Y-93957407D01*
X115026104Y-93948954D01*
X114902055Y-93965010D01*
X114783522Y-94004958D01*
X114675059Y-94067264D01*
X114580837Y-94149532D01*
X114504474Y-94248602D01*
X113603612Y-95690284D01*
X113548044Y-95802347D01*
X113515407Y-95923098D01*
X113506954Y-96047896D01*
X111667118Y-96047896D01*
X111032561Y-91606000D01*
X117383928Y-91606000D01*
X117383928Y-93306000D01*
X117396188Y-93430482D01*
X117432498Y-93550180D01*
X117491463Y-93660494D01*
X117570815Y-93757185D01*
X117667506Y-93836537D01*
X117777820Y-93895502D01*
X117897518Y-93931812D01*
X118022000Y-93944072D01*
X119722000Y-93944072D01*
X119846482Y-93931812D01*
X119966180Y-93895502D01*
X120076494Y-93836537D01*
X120173185Y-93757185D01*
X120252537Y-93660494D01*
X120311502Y-93550180D01*
X120335966Y-93469534D01*
X120411731Y-93553588D01*
X120645080Y-93727641D01*
X120907901Y-93852825D01*
X121055110Y-93897476D01*
X121285000Y-93776155D01*
X121285000Y-92583000D01*
X121539000Y-92583000D01*
X121539000Y-93776155D01*
X121768890Y-93897476D01*
X121916099Y-93852825D01*
X122178920Y-93727641D01*
X122412269Y-93553588D01*
X122607178Y-93337355D01*
X122756157Y-93087252D01*
X122853481Y-92812891D01*
X122732814Y-92583000D01*
X121539000Y-92583000D01*
X121285000Y-92583000D01*
X121265000Y-92583000D01*
X121265000Y-92329000D01*
X121285000Y-92329000D01*
X121285000Y-91135845D01*
X121539000Y-91135845D01*
X121539000Y-92329000D01*
X122732814Y-92329000D01*
X122853481Y-92099109D01*
X122756157Y-91824748D01*
X122607178Y-91574645D01*
X122412269Y-91358412D01*
X122178920Y-91184359D01*
X121916099Y-91059175D01*
X121768890Y-91014524D01*
X121539000Y-91135845D01*
X121285000Y-91135845D01*
X121055110Y-91014524D01*
X120907901Y-91059175D01*
X120645080Y-91184359D01*
X120411731Y-91358412D01*
X120335966Y-91442466D01*
X120311502Y-91361820D01*
X120252537Y-91251506D01*
X120173185Y-91154815D01*
X120076494Y-91075463D01*
X119966180Y-91016498D01*
X119846482Y-90980188D01*
X119722000Y-90967928D01*
X118022000Y-90967928D01*
X117897518Y-90980188D01*
X117777820Y-91016498D01*
X117667506Y-91075463D01*
X117570815Y-91154815D01*
X117491463Y-91251506D01*
X117432498Y-91361820D01*
X117396188Y-91481518D01*
X117383928Y-91606000D01*
X111032561Y-91606000D01*
X110842803Y-90277700D01*
X123127809Y-90277700D01*
X123160176Y-90274512D01*
X123173167Y-90274512D01*
X123182160Y-90273566D01*
X123376110Y-90251812D01*
X123433578Y-90239597D01*
X123491121Y-90228203D01*
X123499753Y-90225531D01*
X123499757Y-90225530D01*
X123499760Y-90225529D01*
X123685790Y-90166516D01*
X123739780Y-90143376D01*
X123794020Y-90121020D01*
X123801971Y-90116720D01*
X123801977Y-90116718D01*
X123801982Y-90116715D01*
X123817719Y-90108063D01*
X123925795Y-90180277D01*
X124086855Y-90246990D01*
X124257835Y-90281000D01*
X124432165Y-90281000D01*
X124603145Y-90246990D01*
X124720000Y-90198587D01*
X124836855Y-90246990D01*
X125007835Y-90281000D01*
X125182165Y-90281000D01*
X125353145Y-90246990D01*
X125470000Y-90198587D01*
X125586855Y-90246990D01*
X125757835Y-90281000D01*
X125932165Y-90281000D01*
X126103145Y-90246990D01*
X126264205Y-90180277D01*
X126374065Y-90106871D01*
X126410854Y-90126432D01*
G36*
X141236349Y-96776136D02*
G01*
X141262010Y-96905145D01*
X141328723Y-97066205D01*
X141425576Y-97211155D01*
X141548845Y-97334424D01*
X141693795Y-97431277D01*
X141854855Y-97497990D01*
X141983864Y-97523651D01*
X142354300Y-97894089D01*
X142354301Y-101057064D01*
X142350860Y-101092000D01*
X142354301Y-101126936D01*
X142364592Y-101231420D01*
X142405259Y-101365481D01*
X142471299Y-101489033D01*
X142560174Y-101597327D01*
X142587310Y-101619597D01*
X142926818Y-101959106D01*
X142872120Y-101975698D01*
X142761806Y-102034663D01*
X142665115Y-102114015D01*
X142585763Y-102210706D01*
X142526798Y-102321020D01*
X142490488Y-102440718D01*
X142478228Y-102565200D01*
X142478228Y-104718839D01*
X142388851Y-103482647D01*
X141891063Y-101673624D01*
X141049916Y-99996475D01*
X140773438Y-99582697D01*
X139701024Y-98540081D01*
X133135905Y-105105200D01*
X133150048Y-105119343D01*
X132970443Y-105298948D01*
X132956300Y-105284805D01*
X132942158Y-105298948D01*
X132762553Y-105119343D01*
X132776695Y-105105200D01*
X132762553Y-105091058D01*
X132942158Y-104911453D01*
X132956300Y-104925595D01*
X139521419Y-98360476D01*
X138478803Y-97288062D01*
X136847642Y-96360879D01*
X136408813Y-96215200D01*
X140675413Y-96215200D01*
X141236349Y-96776136D01*
X141236349Y-96776136D01*
G37*
X141236349Y-96776136D02*
X141262010Y-96905145D01*
X141328723Y-97066205D01*
X141425576Y-97211155D01*
X141548845Y-97334424D01*
X141693795Y-97431277D01*
X141854855Y-97497990D01*
X141983864Y-97523651D01*
X142354300Y-97894089D01*
X142354301Y-101057064D01*
X142350860Y-101092000D01*
X142354301Y-101126936D01*
X142364592Y-101231420D01*
X142405259Y-101365481D01*
X142471299Y-101489033D01*
X142560174Y-101597327D01*
X142587310Y-101619597D01*
X142926818Y-101959106D01*
X142872120Y-101975698D01*
X142761806Y-102034663D01*
X142665115Y-102114015D01*
X142585763Y-102210706D01*
X142526798Y-102321020D01*
X142490488Y-102440718D01*
X142478228Y-102565200D01*
X142478228Y-104718839D01*
X142388851Y-103482647D01*
X141891063Y-101673624D01*
X141049916Y-99996475D01*
X140773438Y-99582697D01*
X139701024Y-98540081D01*
X133135905Y-105105200D01*
X133150048Y-105119343D01*
X132970443Y-105298948D01*
X132956300Y-105284805D01*
X132942158Y-105298948D01*
X132762553Y-105119343D01*
X132776695Y-105105200D01*
X132762553Y-105091058D01*
X132942158Y-104911453D01*
X132956300Y-104925595D01*
X139521419Y-98360476D01*
X138478803Y-97288062D01*
X136847642Y-96360879D01*
X136408813Y-96215200D01*
X140675413Y-96215200D01*
X141236349Y-96776136D01*
M02*
