G04 #@! TF.GenerationSoftware,KiCad,Pcbnew,(5.1.0)-1*
G04 #@! TF.CreationDate,2019-03-21T22:27:28+11:00*
G04 #@! TF.ProjectId,top-hemi,746f702d-6865-46d6-992e-6b696361645f,rev?*
G04 #@! TF.SameCoordinates,Original*
G04 #@! TF.FileFunction,Paste,Top*
G04 #@! TF.FilePolarity,Positive*
%FSLAX46Y46*%
G04 Gerber Fmt 4.6, Leading zero omitted, Abs format (unit mm)*
G04 Created by KiCad (PCBNEW (5.1.0)-1) date 2019-03-21 22:27:28*
%MOMM*%
%LPD*%
G04 APERTURE LIST*
%ADD10C,0.100000*%
%ADD11C,0.590000*%
%ADD12C,0.875000*%
%ADD13R,0.450000X0.700000*%
%ADD14R,0.500000X2.000000*%
%ADD15R,2.000000X1.700000*%
%ADD16R,0.300000X1.300000*%
%ADD17R,1.800000X2.200000*%
%ADD18R,0.650000X1.060000*%
%ADD19C,0.640000*%
%ADD20C,0.250000*%
%ADD21R,1.900000X0.400000*%
%ADD22C,0.830000*%
G04 APERTURE END LIST*
D10*
G36*
X133282958Y-84772710D02*
G01*
X133297276Y-84774834D01*
X133311317Y-84778351D01*
X133324946Y-84783228D01*
X133338031Y-84789417D01*
X133350447Y-84796858D01*
X133362073Y-84805481D01*
X133372798Y-84815202D01*
X133382519Y-84825927D01*
X133391142Y-84837553D01*
X133398583Y-84849969D01*
X133404772Y-84863054D01*
X133409649Y-84876683D01*
X133413166Y-84890724D01*
X133415290Y-84905042D01*
X133416000Y-84919500D01*
X133416000Y-85214500D01*
X133415290Y-85228958D01*
X133413166Y-85243276D01*
X133409649Y-85257317D01*
X133404772Y-85270946D01*
X133398583Y-85284031D01*
X133391142Y-85296447D01*
X133382519Y-85308073D01*
X133372798Y-85318798D01*
X133362073Y-85328519D01*
X133350447Y-85337142D01*
X133338031Y-85344583D01*
X133324946Y-85350772D01*
X133311317Y-85355649D01*
X133297276Y-85359166D01*
X133282958Y-85361290D01*
X133268500Y-85362000D01*
X132923500Y-85362000D01*
X132909042Y-85361290D01*
X132894724Y-85359166D01*
X132880683Y-85355649D01*
X132867054Y-85350772D01*
X132853969Y-85344583D01*
X132841553Y-85337142D01*
X132829927Y-85328519D01*
X132819202Y-85318798D01*
X132809481Y-85308073D01*
X132800858Y-85296447D01*
X132793417Y-85284031D01*
X132787228Y-85270946D01*
X132782351Y-85257317D01*
X132778834Y-85243276D01*
X132776710Y-85228958D01*
X132776000Y-85214500D01*
X132776000Y-84919500D01*
X132776710Y-84905042D01*
X132778834Y-84890724D01*
X132782351Y-84876683D01*
X132787228Y-84863054D01*
X132793417Y-84849969D01*
X132800858Y-84837553D01*
X132809481Y-84825927D01*
X132819202Y-84815202D01*
X132829927Y-84805481D01*
X132841553Y-84796858D01*
X132853969Y-84789417D01*
X132867054Y-84783228D01*
X132880683Y-84778351D01*
X132894724Y-84774834D01*
X132909042Y-84772710D01*
X132923500Y-84772000D01*
X133268500Y-84772000D01*
X133282958Y-84772710D01*
X133282958Y-84772710D01*
G37*
D11*
X133096000Y-85067000D03*
D10*
G36*
X133282958Y-83802710D02*
G01*
X133297276Y-83804834D01*
X133311317Y-83808351D01*
X133324946Y-83813228D01*
X133338031Y-83819417D01*
X133350447Y-83826858D01*
X133362073Y-83835481D01*
X133372798Y-83845202D01*
X133382519Y-83855927D01*
X133391142Y-83867553D01*
X133398583Y-83879969D01*
X133404772Y-83893054D01*
X133409649Y-83906683D01*
X133413166Y-83920724D01*
X133415290Y-83935042D01*
X133416000Y-83949500D01*
X133416000Y-84244500D01*
X133415290Y-84258958D01*
X133413166Y-84273276D01*
X133409649Y-84287317D01*
X133404772Y-84300946D01*
X133398583Y-84314031D01*
X133391142Y-84326447D01*
X133382519Y-84338073D01*
X133372798Y-84348798D01*
X133362073Y-84358519D01*
X133350447Y-84367142D01*
X133338031Y-84374583D01*
X133324946Y-84380772D01*
X133311317Y-84385649D01*
X133297276Y-84389166D01*
X133282958Y-84391290D01*
X133268500Y-84392000D01*
X132923500Y-84392000D01*
X132909042Y-84391290D01*
X132894724Y-84389166D01*
X132880683Y-84385649D01*
X132867054Y-84380772D01*
X132853969Y-84374583D01*
X132841553Y-84367142D01*
X132829927Y-84358519D01*
X132819202Y-84348798D01*
X132809481Y-84338073D01*
X132800858Y-84326447D01*
X132793417Y-84314031D01*
X132787228Y-84300946D01*
X132782351Y-84287317D01*
X132778834Y-84273276D01*
X132776710Y-84258958D01*
X132776000Y-84244500D01*
X132776000Y-83949500D01*
X132776710Y-83935042D01*
X132778834Y-83920724D01*
X132782351Y-83906683D01*
X132787228Y-83893054D01*
X132793417Y-83879969D01*
X132800858Y-83867553D01*
X132809481Y-83855927D01*
X132819202Y-83845202D01*
X132829927Y-83835481D01*
X132841553Y-83826858D01*
X132853969Y-83819417D01*
X132867054Y-83813228D01*
X132880683Y-83808351D01*
X132894724Y-83804834D01*
X132909042Y-83802710D01*
X132923500Y-83802000D01*
X133268500Y-83802000D01*
X133282958Y-83802710D01*
X133282958Y-83802710D01*
G37*
D11*
X133096000Y-84097000D03*
D10*
G36*
X120836958Y-79761710D02*
G01*
X120851276Y-79763834D01*
X120865317Y-79767351D01*
X120878946Y-79772228D01*
X120892031Y-79778417D01*
X120904447Y-79785858D01*
X120916073Y-79794481D01*
X120926798Y-79804202D01*
X120936519Y-79814927D01*
X120945142Y-79826553D01*
X120952583Y-79838969D01*
X120958772Y-79852054D01*
X120963649Y-79865683D01*
X120967166Y-79879724D01*
X120969290Y-79894042D01*
X120970000Y-79908500D01*
X120970000Y-80203500D01*
X120969290Y-80217958D01*
X120967166Y-80232276D01*
X120963649Y-80246317D01*
X120958772Y-80259946D01*
X120952583Y-80273031D01*
X120945142Y-80285447D01*
X120936519Y-80297073D01*
X120926798Y-80307798D01*
X120916073Y-80317519D01*
X120904447Y-80326142D01*
X120892031Y-80333583D01*
X120878946Y-80339772D01*
X120865317Y-80344649D01*
X120851276Y-80348166D01*
X120836958Y-80350290D01*
X120822500Y-80351000D01*
X120477500Y-80351000D01*
X120463042Y-80350290D01*
X120448724Y-80348166D01*
X120434683Y-80344649D01*
X120421054Y-80339772D01*
X120407969Y-80333583D01*
X120395553Y-80326142D01*
X120383927Y-80317519D01*
X120373202Y-80307798D01*
X120363481Y-80297073D01*
X120354858Y-80285447D01*
X120347417Y-80273031D01*
X120341228Y-80259946D01*
X120336351Y-80246317D01*
X120332834Y-80232276D01*
X120330710Y-80217958D01*
X120330000Y-80203500D01*
X120330000Y-79908500D01*
X120330710Y-79894042D01*
X120332834Y-79879724D01*
X120336351Y-79865683D01*
X120341228Y-79852054D01*
X120347417Y-79838969D01*
X120354858Y-79826553D01*
X120363481Y-79814927D01*
X120373202Y-79804202D01*
X120383927Y-79794481D01*
X120395553Y-79785858D01*
X120407969Y-79778417D01*
X120421054Y-79772228D01*
X120434683Y-79767351D01*
X120448724Y-79763834D01*
X120463042Y-79761710D01*
X120477500Y-79761000D01*
X120822500Y-79761000D01*
X120836958Y-79761710D01*
X120836958Y-79761710D01*
G37*
D11*
X120650000Y-80056000D03*
D10*
G36*
X120836958Y-80731710D02*
G01*
X120851276Y-80733834D01*
X120865317Y-80737351D01*
X120878946Y-80742228D01*
X120892031Y-80748417D01*
X120904447Y-80755858D01*
X120916073Y-80764481D01*
X120926798Y-80774202D01*
X120936519Y-80784927D01*
X120945142Y-80796553D01*
X120952583Y-80808969D01*
X120958772Y-80822054D01*
X120963649Y-80835683D01*
X120967166Y-80849724D01*
X120969290Y-80864042D01*
X120970000Y-80878500D01*
X120970000Y-81173500D01*
X120969290Y-81187958D01*
X120967166Y-81202276D01*
X120963649Y-81216317D01*
X120958772Y-81229946D01*
X120952583Y-81243031D01*
X120945142Y-81255447D01*
X120936519Y-81267073D01*
X120926798Y-81277798D01*
X120916073Y-81287519D01*
X120904447Y-81296142D01*
X120892031Y-81303583D01*
X120878946Y-81309772D01*
X120865317Y-81314649D01*
X120851276Y-81318166D01*
X120836958Y-81320290D01*
X120822500Y-81321000D01*
X120477500Y-81321000D01*
X120463042Y-81320290D01*
X120448724Y-81318166D01*
X120434683Y-81314649D01*
X120421054Y-81309772D01*
X120407969Y-81303583D01*
X120395553Y-81296142D01*
X120383927Y-81287519D01*
X120373202Y-81277798D01*
X120363481Y-81267073D01*
X120354858Y-81255447D01*
X120347417Y-81243031D01*
X120341228Y-81229946D01*
X120336351Y-81216317D01*
X120332834Y-81202276D01*
X120330710Y-81187958D01*
X120330000Y-81173500D01*
X120330000Y-80878500D01*
X120330710Y-80864042D01*
X120332834Y-80849724D01*
X120336351Y-80835683D01*
X120341228Y-80822054D01*
X120347417Y-80808969D01*
X120354858Y-80796553D01*
X120363481Y-80784927D01*
X120373202Y-80774202D01*
X120383927Y-80764481D01*
X120395553Y-80755858D01*
X120407969Y-80748417D01*
X120421054Y-80742228D01*
X120434683Y-80737351D01*
X120448724Y-80733834D01*
X120463042Y-80731710D01*
X120477500Y-80731000D01*
X120822500Y-80731000D01*
X120836958Y-80731710D01*
X120836958Y-80731710D01*
G37*
D11*
X120650000Y-81026000D03*
D10*
G36*
X140676691Y-70646053D02*
G01*
X140697926Y-70649203D01*
X140718750Y-70654419D01*
X140738962Y-70661651D01*
X140758368Y-70670830D01*
X140776781Y-70681866D01*
X140794024Y-70694654D01*
X140809930Y-70709070D01*
X140824346Y-70724976D01*
X140837134Y-70742219D01*
X140848170Y-70760632D01*
X140857349Y-70780038D01*
X140864581Y-70800250D01*
X140869797Y-70821074D01*
X140872947Y-70842309D01*
X140874000Y-70863750D01*
X140874000Y-71376250D01*
X140872947Y-71397691D01*
X140869797Y-71418926D01*
X140864581Y-71439750D01*
X140857349Y-71459962D01*
X140848170Y-71479368D01*
X140837134Y-71497781D01*
X140824346Y-71515024D01*
X140809930Y-71530930D01*
X140794024Y-71545346D01*
X140776781Y-71558134D01*
X140758368Y-71569170D01*
X140738962Y-71578349D01*
X140718750Y-71585581D01*
X140697926Y-71590797D01*
X140676691Y-71593947D01*
X140655250Y-71595000D01*
X140217750Y-71595000D01*
X140196309Y-71593947D01*
X140175074Y-71590797D01*
X140154250Y-71585581D01*
X140134038Y-71578349D01*
X140114632Y-71569170D01*
X140096219Y-71558134D01*
X140078976Y-71545346D01*
X140063070Y-71530930D01*
X140048654Y-71515024D01*
X140035866Y-71497781D01*
X140024830Y-71479368D01*
X140015651Y-71459962D01*
X140008419Y-71439750D01*
X140003203Y-71418926D01*
X140000053Y-71397691D01*
X139999000Y-71376250D01*
X139999000Y-70863750D01*
X140000053Y-70842309D01*
X140003203Y-70821074D01*
X140008419Y-70800250D01*
X140015651Y-70780038D01*
X140024830Y-70760632D01*
X140035866Y-70742219D01*
X140048654Y-70724976D01*
X140063070Y-70709070D01*
X140078976Y-70694654D01*
X140096219Y-70681866D01*
X140114632Y-70670830D01*
X140134038Y-70661651D01*
X140154250Y-70654419D01*
X140175074Y-70649203D01*
X140196309Y-70646053D01*
X140217750Y-70645000D01*
X140655250Y-70645000D01*
X140676691Y-70646053D01*
X140676691Y-70646053D01*
G37*
D12*
X140436500Y-71120000D03*
D10*
G36*
X142251691Y-70646053D02*
G01*
X142272926Y-70649203D01*
X142293750Y-70654419D01*
X142313962Y-70661651D01*
X142333368Y-70670830D01*
X142351781Y-70681866D01*
X142369024Y-70694654D01*
X142384930Y-70709070D01*
X142399346Y-70724976D01*
X142412134Y-70742219D01*
X142423170Y-70760632D01*
X142432349Y-70780038D01*
X142439581Y-70800250D01*
X142444797Y-70821074D01*
X142447947Y-70842309D01*
X142449000Y-70863750D01*
X142449000Y-71376250D01*
X142447947Y-71397691D01*
X142444797Y-71418926D01*
X142439581Y-71439750D01*
X142432349Y-71459962D01*
X142423170Y-71479368D01*
X142412134Y-71497781D01*
X142399346Y-71515024D01*
X142384930Y-71530930D01*
X142369024Y-71545346D01*
X142351781Y-71558134D01*
X142333368Y-71569170D01*
X142313962Y-71578349D01*
X142293750Y-71585581D01*
X142272926Y-71590797D01*
X142251691Y-71593947D01*
X142230250Y-71595000D01*
X141792750Y-71595000D01*
X141771309Y-71593947D01*
X141750074Y-71590797D01*
X141729250Y-71585581D01*
X141709038Y-71578349D01*
X141689632Y-71569170D01*
X141671219Y-71558134D01*
X141653976Y-71545346D01*
X141638070Y-71530930D01*
X141623654Y-71515024D01*
X141610866Y-71497781D01*
X141599830Y-71479368D01*
X141590651Y-71459962D01*
X141583419Y-71439750D01*
X141578203Y-71418926D01*
X141575053Y-71397691D01*
X141574000Y-71376250D01*
X141574000Y-70863750D01*
X141575053Y-70842309D01*
X141578203Y-70821074D01*
X141583419Y-70800250D01*
X141590651Y-70780038D01*
X141599830Y-70760632D01*
X141610866Y-70742219D01*
X141623654Y-70724976D01*
X141638070Y-70709070D01*
X141653976Y-70694654D01*
X141671219Y-70681866D01*
X141689632Y-70670830D01*
X141709038Y-70661651D01*
X141729250Y-70654419D01*
X141750074Y-70649203D01*
X141771309Y-70646053D01*
X141792750Y-70645000D01*
X142230250Y-70645000D01*
X142251691Y-70646053D01*
X142251691Y-70646053D01*
G37*
D12*
X142011500Y-71120000D03*
D10*
G36*
X125995691Y-70646053D02*
G01*
X126016926Y-70649203D01*
X126037750Y-70654419D01*
X126057962Y-70661651D01*
X126077368Y-70670830D01*
X126095781Y-70681866D01*
X126113024Y-70694654D01*
X126128930Y-70709070D01*
X126143346Y-70724976D01*
X126156134Y-70742219D01*
X126167170Y-70760632D01*
X126176349Y-70780038D01*
X126183581Y-70800250D01*
X126188797Y-70821074D01*
X126191947Y-70842309D01*
X126193000Y-70863750D01*
X126193000Y-71376250D01*
X126191947Y-71397691D01*
X126188797Y-71418926D01*
X126183581Y-71439750D01*
X126176349Y-71459962D01*
X126167170Y-71479368D01*
X126156134Y-71497781D01*
X126143346Y-71515024D01*
X126128930Y-71530930D01*
X126113024Y-71545346D01*
X126095781Y-71558134D01*
X126077368Y-71569170D01*
X126057962Y-71578349D01*
X126037750Y-71585581D01*
X126016926Y-71590797D01*
X125995691Y-71593947D01*
X125974250Y-71595000D01*
X125536750Y-71595000D01*
X125515309Y-71593947D01*
X125494074Y-71590797D01*
X125473250Y-71585581D01*
X125453038Y-71578349D01*
X125433632Y-71569170D01*
X125415219Y-71558134D01*
X125397976Y-71545346D01*
X125382070Y-71530930D01*
X125367654Y-71515024D01*
X125354866Y-71497781D01*
X125343830Y-71479368D01*
X125334651Y-71459962D01*
X125327419Y-71439750D01*
X125322203Y-71418926D01*
X125319053Y-71397691D01*
X125318000Y-71376250D01*
X125318000Y-70863750D01*
X125319053Y-70842309D01*
X125322203Y-70821074D01*
X125327419Y-70800250D01*
X125334651Y-70780038D01*
X125343830Y-70760632D01*
X125354866Y-70742219D01*
X125367654Y-70724976D01*
X125382070Y-70709070D01*
X125397976Y-70694654D01*
X125415219Y-70681866D01*
X125433632Y-70670830D01*
X125453038Y-70661651D01*
X125473250Y-70654419D01*
X125494074Y-70649203D01*
X125515309Y-70646053D01*
X125536750Y-70645000D01*
X125974250Y-70645000D01*
X125995691Y-70646053D01*
X125995691Y-70646053D01*
G37*
D12*
X125755500Y-71120000D03*
D10*
G36*
X124420691Y-70646053D02*
G01*
X124441926Y-70649203D01*
X124462750Y-70654419D01*
X124482962Y-70661651D01*
X124502368Y-70670830D01*
X124520781Y-70681866D01*
X124538024Y-70694654D01*
X124553930Y-70709070D01*
X124568346Y-70724976D01*
X124581134Y-70742219D01*
X124592170Y-70760632D01*
X124601349Y-70780038D01*
X124608581Y-70800250D01*
X124613797Y-70821074D01*
X124616947Y-70842309D01*
X124618000Y-70863750D01*
X124618000Y-71376250D01*
X124616947Y-71397691D01*
X124613797Y-71418926D01*
X124608581Y-71439750D01*
X124601349Y-71459962D01*
X124592170Y-71479368D01*
X124581134Y-71497781D01*
X124568346Y-71515024D01*
X124553930Y-71530930D01*
X124538024Y-71545346D01*
X124520781Y-71558134D01*
X124502368Y-71569170D01*
X124482962Y-71578349D01*
X124462750Y-71585581D01*
X124441926Y-71590797D01*
X124420691Y-71593947D01*
X124399250Y-71595000D01*
X123961750Y-71595000D01*
X123940309Y-71593947D01*
X123919074Y-71590797D01*
X123898250Y-71585581D01*
X123878038Y-71578349D01*
X123858632Y-71569170D01*
X123840219Y-71558134D01*
X123822976Y-71545346D01*
X123807070Y-71530930D01*
X123792654Y-71515024D01*
X123779866Y-71497781D01*
X123768830Y-71479368D01*
X123759651Y-71459962D01*
X123752419Y-71439750D01*
X123747203Y-71418926D01*
X123744053Y-71397691D01*
X123743000Y-71376250D01*
X123743000Y-70863750D01*
X123744053Y-70842309D01*
X123747203Y-70821074D01*
X123752419Y-70800250D01*
X123759651Y-70780038D01*
X123768830Y-70760632D01*
X123779866Y-70742219D01*
X123792654Y-70724976D01*
X123807070Y-70709070D01*
X123822976Y-70694654D01*
X123840219Y-70681866D01*
X123858632Y-70670830D01*
X123878038Y-70661651D01*
X123898250Y-70654419D01*
X123919074Y-70649203D01*
X123940309Y-70646053D01*
X123961750Y-70645000D01*
X124399250Y-70645000D01*
X124420691Y-70646053D01*
X124420691Y-70646053D01*
G37*
D12*
X124180500Y-71120000D03*
D10*
G36*
X125995691Y-76742053D02*
G01*
X126016926Y-76745203D01*
X126037750Y-76750419D01*
X126057962Y-76757651D01*
X126077368Y-76766830D01*
X126095781Y-76777866D01*
X126113024Y-76790654D01*
X126128930Y-76805070D01*
X126143346Y-76820976D01*
X126156134Y-76838219D01*
X126167170Y-76856632D01*
X126176349Y-76876038D01*
X126183581Y-76896250D01*
X126188797Y-76917074D01*
X126191947Y-76938309D01*
X126193000Y-76959750D01*
X126193000Y-77472250D01*
X126191947Y-77493691D01*
X126188797Y-77514926D01*
X126183581Y-77535750D01*
X126176349Y-77555962D01*
X126167170Y-77575368D01*
X126156134Y-77593781D01*
X126143346Y-77611024D01*
X126128930Y-77626930D01*
X126113024Y-77641346D01*
X126095781Y-77654134D01*
X126077368Y-77665170D01*
X126057962Y-77674349D01*
X126037750Y-77681581D01*
X126016926Y-77686797D01*
X125995691Y-77689947D01*
X125974250Y-77691000D01*
X125536750Y-77691000D01*
X125515309Y-77689947D01*
X125494074Y-77686797D01*
X125473250Y-77681581D01*
X125453038Y-77674349D01*
X125433632Y-77665170D01*
X125415219Y-77654134D01*
X125397976Y-77641346D01*
X125382070Y-77626930D01*
X125367654Y-77611024D01*
X125354866Y-77593781D01*
X125343830Y-77575368D01*
X125334651Y-77555962D01*
X125327419Y-77535750D01*
X125322203Y-77514926D01*
X125319053Y-77493691D01*
X125318000Y-77472250D01*
X125318000Y-76959750D01*
X125319053Y-76938309D01*
X125322203Y-76917074D01*
X125327419Y-76896250D01*
X125334651Y-76876038D01*
X125343830Y-76856632D01*
X125354866Y-76838219D01*
X125367654Y-76820976D01*
X125382070Y-76805070D01*
X125397976Y-76790654D01*
X125415219Y-76777866D01*
X125433632Y-76766830D01*
X125453038Y-76757651D01*
X125473250Y-76750419D01*
X125494074Y-76745203D01*
X125515309Y-76742053D01*
X125536750Y-76741000D01*
X125974250Y-76741000D01*
X125995691Y-76742053D01*
X125995691Y-76742053D01*
G37*
D12*
X125755500Y-77216000D03*
D10*
G36*
X124420691Y-76742053D02*
G01*
X124441926Y-76745203D01*
X124462750Y-76750419D01*
X124482962Y-76757651D01*
X124502368Y-76766830D01*
X124520781Y-76777866D01*
X124538024Y-76790654D01*
X124553930Y-76805070D01*
X124568346Y-76820976D01*
X124581134Y-76838219D01*
X124592170Y-76856632D01*
X124601349Y-76876038D01*
X124608581Y-76896250D01*
X124613797Y-76917074D01*
X124616947Y-76938309D01*
X124618000Y-76959750D01*
X124618000Y-77472250D01*
X124616947Y-77493691D01*
X124613797Y-77514926D01*
X124608581Y-77535750D01*
X124601349Y-77555962D01*
X124592170Y-77575368D01*
X124581134Y-77593781D01*
X124568346Y-77611024D01*
X124553930Y-77626930D01*
X124538024Y-77641346D01*
X124520781Y-77654134D01*
X124502368Y-77665170D01*
X124482962Y-77674349D01*
X124462750Y-77681581D01*
X124441926Y-77686797D01*
X124420691Y-77689947D01*
X124399250Y-77691000D01*
X123961750Y-77691000D01*
X123940309Y-77689947D01*
X123919074Y-77686797D01*
X123898250Y-77681581D01*
X123878038Y-77674349D01*
X123858632Y-77665170D01*
X123840219Y-77654134D01*
X123822976Y-77641346D01*
X123807070Y-77626930D01*
X123792654Y-77611024D01*
X123779866Y-77593781D01*
X123768830Y-77575368D01*
X123759651Y-77555962D01*
X123752419Y-77535750D01*
X123747203Y-77514926D01*
X123744053Y-77493691D01*
X123743000Y-77472250D01*
X123743000Y-76959750D01*
X123744053Y-76938309D01*
X123747203Y-76917074D01*
X123752419Y-76896250D01*
X123759651Y-76876038D01*
X123768830Y-76856632D01*
X123779866Y-76838219D01*
X123792654Y-76820976D01*
X123807070Y-76805070D01*
X123822976Y-76790654D01*
X123840219Y-76777866D01*
X123858632Y-76766830D01*
X123878038Y-76757651D01*
X123898250Y-76750419D01*
X123919074Y-76745203D01*
X123940309Y-76742053D01*
X123961750Y-76741000D01*
X124399250Y-76741000D01*
X124420691Y-76742053D01*
X124420691Y-76742053D01*
G37*
D12*
X124180500Y-77216000D03*
D10*
G36*
X142251691Y-76742053D02*
G01*
X142272926Y-76745203D01*
X142293750Y-76750419D01*
X142313962Y-76757651D01*
X142333368Y-76766830D01*
X142351781Y-76777866D01*
X142369024Y-76790654D01*
X142384930Y-76805070D01*
X142399346Y-76820976D01*
X142412134Y-76838219D01*
X142423170Y-76856632D01*
X142432349Y-76876038D01*
X142439581Y-76896250D01*
X142444797Y-76917074D01*
X142447947Y-76938309D01*
X142449000Y-76959750D01*
X142449000Y-77472250D01*
X142447947Y-77493691D01*
X142444797Y-77514926D01*
X142439581Y-77535750D01*
X142432349Y-77555962D01*
X142423170Y-77575368D01*
X142412134Y-77593781D01*
X142399346Y-77611024D01*
X142384930Y-77626930D01*
X142369024Y-77641346D01*
X142351781Y-77654134D01*
X142333368Y-77665170D01*
X142313962Y-77674349D01*
X142293750Y-77681581D01*
X142272926Y-77686797D01*
X142251691Y-77689947D01*
X142230250Y-77691000D01*
X141792750Y-77691000D01*
X141771309Y-77689947D01*
X141750074Y-77686797D01*
X141729250Y-77681581D01*
X141709038Y-77674349D01*
X141689632Y-77665170D01*
X141671219Y-77654134D01*
X141653976Y-77641346D01*
X141638070Y-77626930D01*
X141623654Y-77611024D01*
X141610866Y-77593781D01*
X141599830Y-77575368D01*
X141590651Y-77555962D01*
X141583419Y-77535750D01*
X141578203Y-77514926D01*
X141575053Y-77493691D01*
X141574000Y-77472250D01*
X141574000Y-76959750D01*
X141575053Y-76938309D01*
X141578203Y-76917074D01*
X141583419Y-76896250D01*
X141590651Y-76876038D01*
X141599830Y-76856632D01*
X141610866Y-76838219D01*
X141623654Y-76820976D01*
X141638070Y-76805070D01*
X141653976Y-76790654D01*
X141671219Y-76777866D01*
X141689632Y-76766830D01*
X141709038Y-76757651D01*
X141729250Y-76750419D01*
X141750074Y-76745203D01*
X141771309Y-76742053D01*
X141792750Y-76741000D01*
X142230250Y-76741000D01*
X142251691Y-76742053D01*
X142251691Y-76742053D01*
G37*
D12*
X142011500Y-77216000D03*
D10*
G36*
X140676691Y-76742053D02*
G01*
X140697926Y-76745203D01*
X140718750Y-76750419D01*
X140738962Y-76757651D01*
X140758368Y-76766830D01*
X140776781Y-76777866D01*
X140794024Y-76790654D01*
X140809930Y-76805070D01*
X140824346Y-76820976D01*
X140837134Y-76838219D01*
X140848170Y-76856632D01*
X140857349Y-76876038D01*
X140864581Y-76896250D01*
X140869797Y-76917074D01*
X140872947Y-76938309D01*
X140874000Y-76959750D01*
X140874000Y-77472250D01*
X140872947Y-77493691D01*
X140869797Y-77514926D01*
X140864581Y-77535750D01*
X140857349Y-77555962D01*
X140848170Y-77575368D01*
X140837134Y-77593781D01*
X140824346Y-77611024D01*
X140809930Y-77626930D01*
X140794024Y-77641346D01*
X140776781Y-77654134D01*
X140758368Y-77665170D01*
X140738962Y-77674349D01*
X140718750Y-77681581D01*
X140697926Y-77686797D01*
X140676691Y-77689947D01*
X140655250Y-77691000D01*
X140217750Y-77691000D01*
X140196309Y-77689947D01*
X140175074Y-77686797D01*
X140154250Y-77681581D01*
X140134038Y-77674349D01*
X140114632Y-77665170D01*
X140096219Y-77654134D01*
X140078976Y-77641346D01*
X140063070Y-77626930D01*
X140048654Y-77611024D01*
X140035866Y-77593781D01*
X140024830Y-77575368D01*
X140015651Y-77555962D01*
X140008419Y-77535750D01*
X140003203Y-77514926D01*
X140000053Y-77493691D01*
X139999000Y-77472250D01*
X139999000Y-76959750D01*
X140000053Y-76938309D01*
X140003203Y-76917074D01*
X140008419Y-76896250D01*
X140015651Y-76876038D01*
X140024830Y-76856632D01*
X140035866Y-76838219D01*
X140048654Y-76820976D01*
X140063070Y-76805070D01*
X140078976Y-76790654D01*
X140096219Y-76777866D01*
X140114632Y-76766830D01*
X140134038Y-76757651D01*
X140154250Y-76750419D01*
X140175074Y-76745203D01*
X140196309Y-76742053D01*
X140217750Y-76741000D01*
X140655250Y-76741000D01*
X140676691Y-76742053D01*
X140676691Y-76742053D01*
G37*
D12*
X140436500Y-77216000D03*
D10*
G36*
X122104958Y-81214710D02*
G01*
X122119276Y-81216834D01*
X122133317Y-81220351D01*
X122146946Y-81225228D01*
X122160031Y-81231417D01*
X122172447Y-81238858D01*
X122184073Y-81247481D01*
X122194798Y-81257202D01*
X122204519Y-81267927D01*
X122213142Y-81279553D01*
X122220583Y-81291969D01*
X122226772Y-81305054D01*
X122231649Y-81318683D01*
X122235166Y-81332724D01*
X122237290Y-81347042D01*
X122238000Y-81361500D01*
X122238000Y-81706500D01*
X122237290Y-81720958D01*
X122235166Y-81735276D01*
X122231649Y-81749317D01*
X122226772Y-81762946D01*
X122220583Y-81776031D01*
X122213142Y-81788447D01*
X122204519Y-81800073D01*
X122194798Y-81810798D01*
X122184073Y-81820519D01*
X122172447Y-81829142D01*
X122160031Y-81836583D01*
X122146946Y-81842772D01*
X122133317Y-81847649D01*
X122119276Y-81851166D01*
X122104958Y-81853290D01*
X122090500Y-81854000D01*
X121795500Y-81854000D01*
X121781042Y-81853290D01*
X121766724Y-81851166D01*
X121752683Y-81847649D01*
X121739054Y-81842772D01*
X121725969Y-81836583D01*
X121713553Y-81829142D01*
X121701927Y-81820519D01*
X121691202Y-81810798D01*
X121681481Y-81800073D01*
X121672858Y-81788447D01*
X121665417Y-81776031D01*
X121659228Y-81762946D01*
X121654351Y-81749317D01*
X121650834Y-81735276D01*
X121648710Y-81720958D01*
X121648000Y-81706500D01*
X121648000Y-81361500D01*
X121648710Y-81347042D01*
X121650834Y-81332724D01*
X121654351Y-81318683D01*
X121659228Y-81305054D01*
X121665417Y-81291969D01*
X121672858Y-81279553D01*
X121681481Y-81267927D01*
X121691202Y-81257202D01*
X121701927Y-81247481D01*
X121713553Y-81238858D01*
X121725969Y-81231417D01*
X121739054Y-81225228D01*
X121752683Y-81220351D01*
X121766724Y-81216834D01*
X121781042Y-81214710D01*
X121795500Y-81214000D01*
X122090500Y-81214000D01*
X122104958Y-81214710D01*
X122104958Y-81214710D01*
G37*
D11*
X121943000Y-81534000D03*
D10*
G36*
X123074958Y-81214710D02*
G01*
X123089276Y-81216834D01*
X123103317Y-81220351D01*
X123116946Y-81225228D01*
X123130031Y-81231417D01*
X123142447Y-81238858D01*
X123154073Y-81247481D01*
X123164798Y-81257202D01*
X123174519Y-81267927D01*
X123183142Y-81279553D01*
X123190583Y-81291969D01*
X123196772Y-81305054D01*
X123201649Y-81318683D01*
X123205166Y-81332724D01*
X123207290Y-81347042D01*
X123208000Y-81361500D01*
X123208000Y-81706500D01*
X123207290Y-81720958D01*
X123205166Y-81735276D01*
X123201649Y-81749317D01*
X123196772Y-81762946D01*
X123190583Y-81776031D01*
X123183142Y-81788447D01*
X123174519Y-81800073D01*
X123164798Y-81810798D01*
X123154073Y-81820519D01*
X123142447Y-81829142D01*
X123130031Y-81836583D01*
X123116946Y-81842772D01*
X123103317Y-81847649D01*
X123089276Y-81851166D01*
X123074958Y-81853290D01*
X123060500Y-81854000D01*
X122765500Y-81854000D01*
X122751042Y-81853290D01*
X122736724Y-81851166D01*
X122722683Y-81847649D01*
X122709054Y-81842772D01*
X122695969Y-81836583D01*
X122683553Y-81829142D01*
X122671927Y-81820519D01*
X122661202Y-81810798D01*
X122651481Y-81800073D01*
X122642858Y-81788447D01*
X122635417Y-81776031D01*
X122629228Y-81762946D01*
X122624351Y-81749317D01*
X122620834Y-81735276D01*
X122618710Y-81720958D01*
X122618000Y-81706500D01*
X122618000Y-81361500D01*
X122618710Y-81347042D01*
X122620834Y-81332724D01*
X122624351Y-81318683D01*
X122629228Y-81305054D01*
X122635417Y-81291969D01*
X122642858Y-81279553D01*
X122651481Y-81267927D01*
X122661202Y-81257202D01*
X122671927Y-81247481D01*
X122683553Y-81238858D01*
X122695969Y-81231417D01*
X122709054Y-81225228D01*
X122722683Y-81220351D01*
X122736724Y-81216834D01*
X122751042Y-81214710D01*
X122765500Y-81214000D01*
X123060500Y-81214000D01*
X123074958Y-81214710D01*
X123074958Y-81214710D01*
G37*
D11*
X122913000Y-81534000D03*
D10*
G36*
X134298958Y-79692710D02*
G01*
X134313276Y-79694834D01*
X134327317Y-79698351D01*
X134340946Y-79703228D01*
X134354031Y-79709417D01*
X134366447Y-79716858D01*
X134378073Y-79725481D01*
X134388798Y-79735202D01*
X134398519Y-79745927D01*
X134407142Y-79757553D01*
X134414583Y-79769969D01*
X134420772Y-79783054D01*
X134425649Y-79796683D01*
X134429166Y-79810724D01*
X134431290Y-79825042D01*
X134432000Y-79839500D01*
X134432000Y-80134500D01*
X134431290Y-80148958D01*
X134429166Y-80163276D01*
X134425649Y-80177317D01*
X134420772Y-80190946D01*
X134414583Y-80204031D01*
X134407142Y-80216447D01*
X134398519Y-80228073D01*
X134388798Y-80238798D01*
X134378073Y-80248519D01*
X134366447Y-80257142D01*
X134354031Y-80264583D01*
X134340946Y-80270772D01*
X134327317Y-80275649D01*
X134313276Y-80279166D01*
X134298958Y-80281290D01*
X134284500Y-80282000D01*
X133939500Y-80282000D01*
X133925042Y-80281290D01*
X133910724Y-80279166D01*
X133896683Y-80275649D01*
X133883054Y-80270772D01*
X133869969Y-80264583D01*
X133857553Y-80257142D01*
X133845927Y-80248519D01*
X133835202Y-80238798D01*
X133825481Y-80228073D01*
X133816858Y-80216447D01*
X133809417Y-80204031D01*
X133803228Y-80190946D01*
X133798351Y-80177317D01*
X133794834Y-80163276D01*
X133792710Y-80148958D01*
X133792000Y-80134500D01*
X133792000Y-79839500D01*
X133792710Y-79825042D01*
X133794834Y-79810724D01*
X133798351Y-79796683D01*
X133803228Y-79783054D01*
X133809417Y-79769969D01*
X133816858Y-79757553D01*
X133825481Y-79745927D01*
X133835202Y-79735202D01*
X133845927Y-79725481D01*
X133857553Y-79716858D01*
X133869969Y-79709417D01*
X133883054Y-79703228D01*
X133896683Y-79698351D01*
X133910724Y-79694834D01*
X133925042Y-79692710D01*
X133939500Y-79692000D01*
X134284500Y-79692000D01*
X134298958Y-79692710D01*
X134298958Y-79692710D01*
G37*
D11*
X134112000Y-79987000D03*
D10*
G36*
X134298958Y-78722710D02*
G01*
X134313276Y-78724834D01*
X134327317Y-78728351D01*
X134340946Y-78733228D01*
X134354031Y-78739417D01*
X134366447Y-78746858D01*
X134378073Y-78755481D01*
X134388798Y-78765202D01*
X134398519Y-78775927D01*
X134407142Y-78787553D01*
X134414583Y-78799969D01*
X134420772Y-78813054D01*
X134425649Y-78826683D01*
X134429166Y-78840724D01*
X134431290Y-78855042D01*
X134432000Y-78869500D01*
X134432000Y-79164500D01*
X134431290Y-79178958D01*
X134429166Y-79193276D01*
X134425649Y-79207317D01*
X134420772Y-79220946D01*
X134414583Y-79234031D01*
X134407142Y-79246447D01*
X134398519Y-79258073D01*
X134388798Y-79268798D01*
X134378073Y-79278519D01*
X134366447Y-79287142D01*
X134354031Y-79294583D01*
X134340946Y-79300772D01*
X134327317Y-79305649D01*
X134313276Y-79309166D01*
X134298958Y-79311290D01*
X134284500Y-79312000D01*
X133939500Y-79312000D01*
X133925042Y-79311290D01*
X133910724Y-79309166D01*
X133896683Y-79305649D01*
X133883054Y-79300772D01*
X133869969Y-79294583D01*
X133857553Y-79287142D01*
X133845927Y-79278519D01*
X133835202Y-79268798D01*
X133825481Y-79258073D01*
X133816858Y-79246447D01*
X133809417Y-79234031D01*
X133803228Y-79220946D01*
X133798351Y-79207317D01*
X133794834Y-79193276D01*
X133792710Y-79178958D01*
X133792000Y-79164500D01*
X133792000Y-78869500D01*
X133792710Y-78855042D01*
X133794834Y-78840724D01*
X133798351Y-78826683D01*
X133803228Y-78813054D01*
X133809417Y-78799969D01*
X133816858Y-78787553D01*
X133825481Y-78775927D01*
X133835202Y-78765202D01*
X133845927Y-78755481D01*
X133857553Y-78746858D01*
X133869969Y-78739417D01*
X133883054Y-78733228D01*
X133896683Y-78728351D01*
X133910724Y-78724834D01*
X133925042Y-78722710D01*
X133939500Y-78722000D01*
X134284500Y-78722000D01*
X134298958Y-78722710D01*
X134298958Y-78722710D01*
G37*
D11*
X134112000Y-79017000D03*
D10*
G36*
X140902958Y-81978710D02*
G01*
X140917276Y-81980834D01*
X140931317Y-81984351D01*
X140944946Y-81989228D01*
X140958031Y-81995417D01*
X140970447Y-82002858D01*
X140982073Y-82011481D01*
X140992798Y-82021202D01*
X141002519Y-82031927D01*
X141011142Y-82043553D01*
X141018583Y-82055969D01*
X141024772Y-82069054D01*
X141029649Y-82082683D01*
X141033166Y-82096724D01*
X141035290Y-82111042D01*
X141036000Y-82125500D01*
X141036000Y-82420500D01*
X141035290Y-82434958D01*
X141033166Y-82449276D01*
X141029649Y-82463317D01*
X141024772Y-82476946D01*
X141018583Y-82490031D01*
X141011142Y-82502447D01*
X141002519Y-82514073D01*
X140992798Y-82524798D01*
X140982073Y-82534519D01*
X140970447Y-82543142D01*
X140958031Y-82550583D01*
X140944946Y-82556772D01*
X140931317Y-82561649D01*
X140917276Y-82565166D01*
X140902958Y-82567290D01*
X140888500Y-82568000D01*
X140543500Y-82568000D01*
X140529042Y-82567290D01*
X140514724Y-82565166D01*
X140500683Y-82561649D01*
X140487054Y-82556772D01*
X140473969Y-82550583D01*
X140461553Y-82543142D01*
X140449927Y-82534519D01*
X140439202Y-82524798D01*
X140429481Y-82514073D01*
X140420858Y-82502447D01*
X140413417Y-82490031D01*
X140407228Y-82476946D01*
X140402351Y-82463317D01*
X140398834Y-82449276D01*
X140396710Y-82434958D01*
X140396000Y-82420500D01*
X140396000Y-82125500D01*
X140396710Y-82111042D01*
X140398834Y-82096724D01*
X140402351Y-82082683D01*
X140407228Y-82069054D01*
X140413417Y-82055969D01*
X140420858Y-82043553D01*
X140429481Y-82031927D01*
X140439202Y-82021202D01*
X140449927Y-82011481D01*
X140461553Y-82002858D01*
X140473969Y-81995417D01*
X140487054Y-81989228D01*
X140500683Y-81984351D01*
X140514724Y-81980834D01*
X140529042Y-81978710D01*
X140543500Y-81978000D01*
X140888500Y-81978000D01*
X140902958Y-81978710D01*
X140902958Y-81978710D01*
G37*
D11*
X140716000Y-82273000D03*
D10*
G36*
X140902958Y-81008710D02*
G01*
X140917276Y-81010834D01*
X140931317Y-81014351D01*
X140944946Y-81019228D01*
X140958031Y-81025417D01*
X140970447Y-81032858D01*
X140982073Y-81041481D01*
X140992798Y-81051202D01*
X141002519Y-81061927D01*
X141011142Y-81073553D01*
X141018583Y-81085969D01*
X141024772Y-81099054D01*
X141029649Y-81112683D01*
X141033166Y-81126724D01*
X141035290Y-81141042D01*
X141036000Y-81155500D01*
X141036000Y-81450500D01*
X141035290Y-81464958D01*
X141033166Y-81479276D01*
X141029649Y-81493317D01*
X141024772Y-81506946D01*
X141018583Y-81520031D01*
X141011142Y-81532447D01*
X141002519Y-81544073D01*
X140992798Y-81554798D01*
X140982073Y-81564519D01*
X140970447Y-81573142D01*
X140958031Y-81580583D01*
X140944946Y-81586772D01*
X140931317Y-81591649D01*
X140917276Y-81595166D01*
X140902958Y-81597290D01*
X140888500Y-81598000D01*
X140543500Y-81598000D01*
X140529042Y-81597290D01*
X140514724Y-81595166D01*
X140500683Y-81591649D01*
X140487054Y-81586772D01*
X140473969Y-81580583D01*
X140461553Y-81573142D01*
X140449927Y-81564519D01*
X140439202Y-81554798D01*
X140429481Y-81544073D01*
X140420858Y-81532447D01*
X140413417Y-81520031D01*
X140407228Y-81506946D01*
X140402351Y-81493317D01*
X140398834Y-81479276D01*
X140396710Y-81464958D01*
X140396000Y-81450500D01*
X140396000Y-81155500D01*
X140396710Y-81141042D01*
X140398834Y-81126724D01*
X140402351Y-81112683D01*
X140407228Y-81099054D01*
X140413417Y-81085969D01*
X140420858Y-81073553D01*
X140429481Y-81061927D01*
X140439202Y-81051202D01*
X140449927Y-81041481D01*
X140461553Y-81032858D01*
X140473969Y-81025417D01*
X140487054Y-81019228D01*
X140500683Y-81014351D01*
X140514724Y-81010834D01*
X140529042Y-81008710D01*
X140543500Y-81008000D01*
X140888500Y-81008000D01*
X140902958Y-81008710D01*
X140902958Y-81008710D01*
G37*
D11*
X140716000Y-81303000D03*
D10*
G36*
X134298958Y-83802710D02*
G01*
X134313276Y-83804834D01*
X134327317Y-83808351D01*
X134340946Y-83813228D01*
X134354031Y-83819417D01*
X134366447Y-83826858D01*
X134378073Y-83835481D01*
X134388798Y-83845202D01*
X134398519Y-83855927D01*
X134407142Y-83867553D01*
X134414583Y-83879969D01*
X134420772Y-83893054D01*
X134425649Y-83906683D01*
X134429166Y-83920724D01*
X134431290Y-83935042D01*
X134432000Y-83949500D01*
X134432000Y-84244500D01*
X134431290Y-84258958D01*
X134429166Y-84273276D01*
X134425649Y-84287317D01*
X134420772Y-84300946D01*
X134414583Y-84314031D01*
X134407142Y-84326447D01*
X134398519Y-84338073D01*
X134388798Y-84348798D01*
X134378073Y-84358519D01*
X134366447Y-84367142D01*
X134354031Y-84374583D01*
X134340946Y-84380772D01*
X134327317Y-84385649D01*
X134313276Y-84389166D01*
X134298958Y-84391290D01*
X134284500Y-84392000D01*
X133939500Y-84392000D01*
X133925042Y-84391290D01*
X133910724Y-84389166D01*
X133896683Y-84385649D01*
X133883054Y-84380772D01*
X133869969Y-84374583D01*
X133857553Y-84367142D01*
X133845927Y-84358519D01*
X133835202Y-84348798D01*
X133825481Y-84338073D01*
X133816858Y-84326447D01*
X133809417Y-84314031D01*
X133803228Y-84300946D01*
X133798351Y-84287317D01*
X133794834Y-84273276D01*
X133792710Y-84258958D01*
X133792000Y-84244500D01*
X133792000Y-83949500D01*
X133792710Y-83935042D01*
X133794834Y-83920724D01*
X133798351Y-83906683D01*
X133803228Y-83893054D01*
X133809417Y-83879969D01*
X133816858Y-83867553D01*
X133825481Y-83855927D01*
X133835202Y-83845202D01*
X133845927Y-83835481D01*
X133857553Y-83826858D01*
X133869969Y-83819417D01*
X133883054Y-83813228D01*
X133896683Y-83808351D01*
X133910724Y-83804834D01*
X133925042Y-83802710D01*
X133939500Y-83802000D01*
X134284500Y-83802000D01*
X134298958Y-83802710D01*
X134298958Y-83802710D01*
G37*
D11*
X134112000Y-84097000D03*
D10*
G36*
X134298958Y-84772710D02*
G01*
X134313276Y-84774834D01*
X134327317Y-84778351D01*
X134340946Y-84783228D01*
X134354031Y-84789417D01*
X134366447Y-84796858D01*
X134378073Y-84805481D01*
X134388798Y-84815202D01*
X134398519Y-84825927D01*
X134407142Y-84837553D01*
X134414583Y-84849969D01*
X134420772Y-84863054D01*
X134425649Y-84876683D01*
X134429166Y-84890724D01*
X134431290Y-84905042D01*
X134432000Y-84919500D01*
X134432000Y-85214500D01*
X134431290Y-85228958D01*
X134429166Y-85243276D01*
X134425649Y-85257317D01*
X134420772Y-85270946D01*
X134414583Y-85284031D01*
X134407142Y-85296447D01*
X134398519Y-85308073D01*
X134388798Y-85318798D01*
X134378073Y-85328519D01*
X134366447Y-85337142D01*
X134354031Y-85344583D01*
X134340946Y-85350772D01*
X134327317Y-85355649D01*
X134313276Y-85359166D01*
X134298958Y-85361290D01*
X134284500Y-85362000D01*
X133939500Y-85362000D01*
X133925042Y-85361290D01*
X133910724Y-85359166D01*
X133896683Y-85355649D01*
X133883054Y-85350772D01*
X133869969Y-85344583D01*
X133857553Y-85337142D01*
X133845927Y-85328519D01*
X133835202Y-85318798D01*
X133825481Y-85308073D01*
X133816858Y-85296447D01*
X133809417Y-85284031D01*
X133803228Y-85270946D01*
X133798351Y-85257317D01*
X133794834Y-85243276D01*
X133792710Y-85228958D01*
X133792000Y-85214500D01*
X133792000Y-84919500D01*
X133792710Y-84905042D01*
X133794834Y-84890724D01*
X133798351Y-84876683D01*
X133803228Y-84863054D01*
X133809417Y-84849969D01*
X133816858Y-84837553D01*
X133825481Y-84825927D01*
X133835202Y-84815202D01*
X133845927Y-84805481D01*
X133857553Y-84796858D01*
X133869969Y-84789417D01*
X133883054Y-84783228D01*
X133896683Y-84778351D01*
X133910724Y-84774834D01*
X133925042Y-84772710D01*
X133939500Y-84772000D01*
X134284500Y-84772000D01*
X134298958Y-84772710D01*
X134298958Y-84772710D01*
G37*
D11*
X134112000Y-85067000D03*
D10*
G36*
X145474958Y-81008710D02*
G01*
X145489276Y-81010834D01*
X145503317Y-81014351D01*
X145516946Y-81019228D01*
X145530031Y-81025417D01*
X145542447Y-81032858D01*
X145554073Y-81041481D01*
X145564798Y-81051202D01*
X145574519Y-81061927D01*
X145583142Y-81073553D01*
X145590583Y-81085969D01*
X145596772Y-81099054D01*
X145601649Y-81112683D01*
X145605166Y-81126724D01*
X145607290Y-81141042D01*
X145608000Y-81155500D01*
X145608000Y-81450500D01*
X145607290Y-81464958D01*
X145605166Y-81479276D01*
X145601649Y-81493317D01*
X145596772Y-81506946D01*
X145590583Y-81520031D01*
X145583142Y-81532447D01*
X145574519Y-81544073D01*
X145564798Y-81554798D01*
X145554073Y-81564519D01*
X145542447Y-81573142D01*
X145530031Y-81580583D01*
X145516946Y-81586772D01*
X145503317Y-81591649D01*
X145489276Y-81595166D01*
X145474958Y-81597290D01*
X145460500Y-81598000D01*
X145115500Y-81598000D01*
X145101042Y-81597290D01*
X145086724Y-81595166D01*
X145072683Y-81591649D01*
X145059054Y-81586772D01*
X145045969Y-81580583D01*
X145033553Y-81573142D01*
X145021927Y-81564519D01*
X145011202Y-81554798D01*
X145001481Y-81544073D01*
X144992858Y-81532447D01*
X144985417Y-81520031D01*
X144979228Y-81506946D01*
X144974351Y-81493317D01*
X144970834Y-81479276D01*
X144968710Y-81464958D01*
X144968000Y-81450500D01*
X144968000Y-81155500D01*
X144968710Y-81141042D01*
X144970834Y-81126724D01*
X144974351Y-81112683D01*
X144979228Y-81099054D01*
X144985417Y-81085969D01*
X144992858Y-81073553D01*
X145001481Y-81061927D01*
X145011202Y-81051202D01*
X145021927Y-81041481D01*
X145033553Y-81032858D01*
X145045969Y-81025417D01*
X145059054Y-81019228D01*
X145072683Y-81014351D01*
X145086724Y-81010834D01*
X145101042Y-81008710D01*
X145115500Y-81008000D01*
X145460500Y-81008000D01*
X145474958Y-81008710D01*
X145474958Y-81008710D01*
G37*
D11*
X145288000Y-81303000D03*
D10*
G36*
X145474958Y-81978710D02*
G01*
X145489276Y-81980834D01*
X145503317Y-81984351D01*
X145516946Y-81989228D01*
X145530031Y-81995417D01*
X145542447Y-82002858D01*
X145554073Y-82011481D01*
X145564798Y-82021202D01*
X145574519Y-82031927D01*
X145583142Y-82043553D01*
X145590583Y-82055969D01*
X145596772Y-82069054D01*
X145601649Y-82082683D01*
X145605166Y-82096724D01*
X145607290Y-82111042D01*
X145608000Y-82125500D01*
X145608000Y-82420500D01*
X145607290Y-82434958D01*
X145605166Y-82449276D01*
X145601649Y-82463317D01*
X145596772Y-82476946D01*
X145590583Y-82490031D01*
X145583142Y-82502447D01*
X145574519Y-82514073D01*
X145564798Y-82524798D01*
X145554073Y-82534519D01*
X145542447Y-82543142D01*
X145530031Y-82550583D01*
X145516946Y-82556772D01*
X145503317Y-82561649D01*
X145489276Y-82565166D01*
X145474958Y-82567290D01*
X145460500Y-82568000D01*
X145115500Y-82568000D01*
X145101042Y-82567290D01*
X145086724Y-82565166D01*
X145072683Y-82561649D01*
X145059054Y-82556772D01*
X145045969Y-82550583D01*
X145033553Y-82543142D01*
X145021927Y-82534519D01*
X145011202Y-82524798D01*
X145001481Y-82514073D01*
X144992858Y-82502447D01*
X144985417Y-82490031D01*
X144979228Y-82476946D01*
X144974351Y-82463317D01*
X144970834Y-82449276D01*
X144968710Y-82434958D01*
X144968000Y-82420500D01*
X144968000Y-82125500D01*
X144968710Y-82111042D01*
X144970834Y-82096724D01*
X144974351Y-82082683D01*
X144979228Y-82069054D01*
X144985417Y-82055969D01*
X144992858Y-82043553D01*
X145001481Y-82031927D01*
X145011202Y-82021202D01*
X145021927Y-82011481D01*
X145033553Y-82002858D01*
X145045969Y-81995417D01*
X145059054Y-81989228D01*
X145072683Y-81984351D01*
X145086724Y-81980834D01*
X145101042Y-81978710D01*
X145115500Y-81978000D01*
X145460500Y-81978000D01*
X145474958Y-81978710D01*
X145474958Y-81978710D01*
G37*
D11*
X145288000Y-82273000D03*
D10*
G36*
X121596958Y-98232710D02*
G01*
X121611276Y-98234834D01*
X121625317Y-98238351D01*
X121638946Y-98243228D01*
X121652031Y-98249417D01*
X121664447Y-98256858D01*
X121676073Y-98265481D01*
X121686798Y-98275202D01*
X121696519Y-98285927D01*
X121705142Y-98297553D01*
X121712583Y-98309969D01*
X121718772Y-98323054D01*
X121723649Y-98336683D01*
X121727166Y-98350724D01*
X121729290Y-98365042D01*
X121730000Y-98379500D01*
X121730000Y-98724500D01*
X121729290Y-98738958D01*
X121727166Y-98753276D01*
X121723649Y-98767317D01*
X121718772Y-98780946D01*
X121712583Y-98794031D01*
X121705142Y-98806447D01*
X121696519Y-98818073D01*
X121686798Y-98828798D01*
X121676073Y-98838519D01*
X121664447Y-98847142D01*
X121652031Y-98854583D01*
X121638946Y-98860772D01*
X121625317Y-98865649D01*
X121611276Y-98869166D01*
X121596958Y-98871290D01*
X121582500Y-98872000D01*
X121287500Y-98872000D01*
X121273042Y-98871290D01*
X121258724Y-98869166D01*
X121244683Y-98865649D01*
X121231054Y-98860772D01*
X121217969Y-98854583D01*
X121205553Y-98847142D01*
X121193927Y-98838519D01*
X121183202Y-98828798D01*
X121173481Y-98818073D01*
X121164858Y-98806447D01*
X121157417Y-98794031D01*
X121151228Y-98780946D01*
X121146351Y-98767317D01*
X121142834Y-98753276D01*
X121140710Y-98738958D01*
X121140000Y-98724500D01*
X121140000Y-98379500D01*
X121140710Y-98365042D01*
X121142834Y-98350724D01*
X121146351Y-98336683D01*
X121151228Y-98323054D01*
X121157417Y-98309969D01*
X121164858Y-98297553D01*
X121173481Y-98285927D01*
X121183202Y-98275202D01*
X121193927Y-98265481D01*
X121205553Y-98256858D01*
X121217969Y-98249417D01*
X121231054Y-98243228D01*
X121244683Y-98238351D01*
X121258724Y-98234834D01*
X121273042Y-98232710D01*
X121287500Y-98232000D01*
X121582500Y-98232000D01*
X121596958Y-98232710D01*
X121596958Y-98232710D01*
G37*
D11*
X121435000Y-98552000D03*
D10*
G36*
X122566958Y-98232710D02*
G01*
X122581276Y-98234834D01*
X122595317Y-98238351D01*
X122608946Y-98243228D01*
X122622031Y-98249417D01*
X122634447Y-98256858D01*
X122646073Y-98265481D01*
X122656798Y-98275202D01*
X122666519Y-98285927D01*
X122675142Y-98297553D01*
X122682583Y-98309969D01*
X122688772Y-98323054D01*
X122693649Y-98336683D01*
X122697166Y-98350724D01*
X122699290Y-98365042D01*
X122700000Y-98379500D01*
X122700000Y-98724500D01*
X122699290Y-98738958D01*
X122697166Y-98753276D01*
X122693649Y-98767317D01*
X122688772Y-98780946D01*
X122682583Y-98794031D01*
X122675142Y-98806447D01*
X122666519Y-98818073D01*
X122656798Y-98828798D01*
X122646073Y-98838519D01*
X122634447Y-98847142D01*
X122622031Y-98854583D01*
X122608946Y-98860772D01*
X122595317Y-98865649D01*
X122581276Y-98869166D01*
X122566958Y-98871290D01*
X122552500Y-98872000D01*
X122257500Y-98872000D01*
X122243042Y-98871290D01*
X122228724Y-98869166D01*
X122214683Y-98865649D01*
X122201054Y-98860772D01*
X122187969Y-98854583D01*
X122175553Y-98847142D01*
X122163927Y-98838519D01*
X122153202Y-98828798D01*
X122143481Y-98818073D01*
X122134858Y-98806447D01*
X122127417Y-98794031D01*
X122121228Y-98780946D01*
X122116351Y-98767317D01*
X122112834Y-98753276D01*
X122110710Y-98738958D01*
X122110000Y-98724500D01*
X122110000Y-98379500D01*
X122110710Y-98365042D01*
X122112834Y-98350724D01*
X122116351Y-98336683D01*
X122121228Y-98323054D01*
X122127417Y-98309969D01*
X122134858Y-98297553D01*
X122143481Y-98285927D01*
X122153202Y-98275202D01*
X122163927Y-98265481D01*
X122175553Y-98256858D01*
X122187969Y-98249417D01*
X122201054Y-98243228D01*
X122214683Y-98238351D01*
X122228724Y-98234834D01*
X122243042Y-98232710D01*
X122257500Y-98232000D01*
X122552500Y-98232000D01*
X122566958Y-98232710D01*
X122566958Y-98232710D01*
G37*
D11*
X122405000Y-98552000D03*
D10*
G36*
X145934958Y-97724710D02*
G01*
X145949276Y-97726834D01*
X145963317Y-97730351D01*
X145976946Y-97735228D01*
X145990031Y-97741417D01*
X146002447Y-97748858D01*
X146014073Y-97757481D01*
X146024798Y-97767202D01*
X146034519Y-97777927D01*
X146043142Y-97789553D01*
X146050583Y-97801969D01*
X146056772Y-97815054D01*
X146061649Y-97828683D01*
X146065166Y-97842724D01*
X146067290Y-97857042D01*
X146068000Y-97871500D01*
X146068000Y-98216500D01*
X146067290Y-98230958D01*
X146065166Y-98245276D01*
X146061649Y-98259317D01*
X146056772Y-98272946D01*
X146050583Y-98286031D01*
X146043142Y-98298447D01*
X146034519Y-98310073D01*
X146024798Y-98320798D01*
X146014073Y-98330519D01*
X146002447Y-98339142D01*
X145990031Y-98346583D01*
X145976946Y-98352772D01*
X145963317Y-98357649D01*
X145949276Y-98361166D01*
X145934958Y-98363290D01*
X145920500Y-98364000D01*
X145625500Y-98364000D01*
X145611042Y-98363290D01*
X145596724Y-98361166D01*
X145582683Y-98357649D01*
X145569054Y-98352772D01*
X145555969Y-98346583D01*
X145543553Y-98339142D01*
X145531927Y-98330519D01*
X145521202Y-98320798D01*
X145511481Y-98310073D01*
X145502858Y-98298447D01*
X145495417Y-98286031D01*
X145489228Y-98272946D01*
X145484351Y-98259317D01*
X145480834Y-98245276D01*
X145478710Y-98230958D01*
X145478000Y-98216500D01*
X145478000Y-97871500D01*
X145478710Y-97857042D01*
X145480834Y-97842724D01*
X145484351Y-97828683D01*
X145489228Y-97815054D01*
X145495417Y-97801969D01*
X145502858Y-97789553D01*
X145511481Y-97777927D01*
X145521202Y-97767202D01*
X145531927Y-97757481D01*
X145543553Y-97748858D01*
X145555969Y-97741417D01*
X145569054Y-97735228D01*
X145582683Y-97730351D01*
X145596724Y-97726834D01*
X145611042Y-97724710D01*
X145625500Y-97724000D01*
X145920500Y-97724000D01*
X145934958Y-97724710D01*
X145934958Y-97724710D01*
G37*
D11*
X145773000Y-98044000D03*
D10*
G36*
X144964958Y-97724710D02*
G01*
X144979276Y-97726834D01*
X144993317Y-97730351D01*
X145006946Y-97735228D01*
X145020031Y-97741417D01*
X145032447Y-97748858D01*
X145044073Y-97757481D01*
X145054798Y-97767202D01*
X145064519Y-97777927D01*
X145073142Y-97789553D01*
X145080583Y-97801969D01*
X145086772Y-97815054D01*
X145091649Y-97828683D01*
X145095166Y-97842724D01*
X145097290Y-97857042D01*
X145098000Y-97871500D01*
X145098000Y-98216500D01*
X145097290Y-98230958D01*
X145095166Y-98245276D01*
X145091649Y-98259317D01*
X145086772Y-98272946D01*
X145080583Y-98286031D01*
X145073142Y-98298447D01*
X145064519Y-98310073D01*
X145054798Y-98320798D01*
X145044073Y-98330519D01*
X145032447Y-98339142D01*
X145020031Y-98346583D01*
X145006946Y-98352772D01*
X144993317Y-98357649D01*
X144979276Y-98361166D01*
X144964958Y-98363290D01*
X144950500Y-98364000D01*
X144655500Y-98364000D01*
X144641042Y-98363290D01*
X144626724Y-98361166D01*
X144612683Y-98357649D01*
X144599054Y-98352772D01*
X144585969Y-98346583D01*
X144573553Y-98339142D01*
X144561927Y-98330519D01*
X144551202Y-98320798D01*
X144541481Y-98310073D01*
X144532858Y-98298447D01*
X144525417Y-98286031D01*
X144519228Y-98272946D01*
X144514351Y-98259317D01*
X144510834Y-98245276D01*
X144508710Y-98230958D01*
X144508000Y-98216500D01*
X144508000Y-97871500D01*
X144508710Y-97857042D01*
X144510834Y-97842724D01*
X144514351Y-97828683D01*
X144519228Y-97815054D01*
X144525417Y-97801969D01*
X144532858Y-97789553D01*
X144541481Y-97777927D01*
X144551202Y-97767202D01*
X144561927Y-97757481D01*
X144573553Y-97748858D01*
X144585969Y-97741417D01*
X144599054Y-97735228D01*
X144612683Y-97730351D01*
X144626724Y-97726834D01*
X144641042Y-97724710D01*
X144655500Y-97724000D01*
X144950500Y-97724000D01*
X144964958Y-97724710D01*
X144964958Y-97724710D01*
G37*
D11*
X144803000Y-98044000D03*
D13*
X142479000Y-82280000D03*
X143779000Y-82280000D03*
X143129000Y-80280000D03*
D14*
X134569000Y-76360000D03*
X133769000Y-76360000D03*
X132969000Y-76360000D03*
X132169000Y-76360000D03*
X131369000Y-76360000D03*
D15*
X137419000Y-76260000D03*
X137419000Y-70810000D03*
X128519000Y-76260000D03*
X128519000Y-70810000D03*
D16*
X152126000Y-81208000D03*
X151626000Y-81208000D03*
X151126000Y-81208000D03*
X150626000Y-81208000D03*
X150126000Y-81208000D03*
X149626000Y-81208000D03*
D17*
X147726000Y-84458000D03*
X154026000Y-84458000D03*
X147726000Y-92580000D03*
X154026000Y-92580000D03*
D16*
X152126000Y-95830000D03*
X151626000Y-95830000D03*
X151126000Y-95830000D03*
X150626000Y-95830000D03*
X150126000Y-95830000D03*
X149626000Y-95830000D03*
D10*
G36*
X133282958Y-79484710D02*
G01*
X133297276Y-79486834D01*
X133311317Y-79490351D01*
X133324946Y-79495228D01*
X133338031Y-79501417D01*
X133350447Y-79508858D01*
X133362073Y-79517481D01*
X133372798Y-79527202D01*
X133382519Y-79537927D01*
X133391142Y-79549553D01*
X133398583Y-79561969D01*
X133404772Y-79575054D01*
X133409649Y-79588683D01*
X133413166Y-79602724D01*
X133415290Y-79617042D01*
X133416000Y-79631500D01*
X133416000Y-79926500D01*
X133415290Y-79940958D01*
X133413166Y-79955276D01*
X133409649Y-79969317D01*
X133404772Y-79982946D01*
X133398583Y-79996031D01*
X133391142Y-80008447D01*
X133382519Y-80020073D01*
X133372798Y-80030798D01*
X133362073Y-80040519D01*
X133350447Y-80049142D01*
X133338031Y-80056583D01*
X133324946Y-80062772D01*
X133311317Y-80067649D01*
X133297276Y-80071166D01*
X133282958Y-80073290D01*
X133268500Y-80074000D01*
X132923500Y-80074000D01*
X132909042Y-80073290D01*
X132894724Y-80071166D01*
X132880683Y-80067649D01*
X132867054Y-80062772D01*
X132853969Y-80056583D01*
X132841553Y-80049142D01*
X132829927Y-80040519D01*
X132819202Y-80030798D01*
X132809481Y-80020073D01*
X132800858Y-80008447D01*
X132793417Y-79996031D01*
X132787228Y-79982946D01*
X132782351Y-79969317D01*
X132778834Y-79955276D01*
X132776710Y-79940958D01*
X132776000Y-79926500D01*
X132776000Y-79631500D01*
X132776710Y-79617042D01*
X132778834Y-79602724D01*
X132782351Y-79588683D01*
X132787228Y-79575054D01*
X132793417Y-79561969D01*
X132800858Y-79549553D01*
X132809481Y-79537927D01*
X132819202Y-79527202D01*
X132829927Y-79517481D01*
X132841553Y-79508858D01*
X132853969Y-79501417D01*
X132867054Y-79495228D01*
X132880683Y-79490351D01*
X132894724Y-79486834D01*
X132909042Y-79484710D01*
X132923500Y-79484000D01*
X133268500Y-79484000D01*
X133282958Y-79484710D01*
X133282958Y-79484710D01*
G37*
D11*
X133096000Y-79779000D03*
D10*
G36*
X133282958Y-80454710D02*
G01*
X133297276Y-80456834D01*
X133311317Y-80460351D01*
X133324946Y-80465228D01*
X133338031Y-80471417D01*
X133350447Y-80478858D01*
X133362073Y-80487481D01*
X133372798Y-80497202D01*
X133382519Y-80507927D01*
X133391142Y-80519553D01*
X133398583Y-80531969D01*
X133404772Y-80545054D01*
X133409649Y-80558683D01*
X133413166Y-80572724D01*
X133415290Y-80587042D01*
X133416000Y-80601500D01*
X133416000Y-80896500D01*
X133415290Y-80910958D01*
X133413166Y-80925276D01*
X133409649Y-80939317D01*
X133404772Y-80952946D01*
X133398583Y-80966031D01*
X133391142Y-80978447D01*
X133382519Y-80990073D01*
X133372798Y-81000798D01*
X133362073Y-81010519D01*
X133350447Y-81019142D01*
X133338031Y-81026583D01*
X133324946Y-81032772D01*
X133311317Y-81037649D01*
X133297276Y-81041166D01*
X133282958Y-81043290D01*
X133268500Y-81044000D01*
X132923500Y-81044000D01*
X132909042Y-81043290D01*
X132894724Y-81041166D01*
X132880683Y-81037649D01*
X132867054Y-81032772D01*
X132853969Y-81026583D01*
X132841553Y-81019142D01*
X132829927Y-81010519D01*
X132819202Y-81000798D01*
X132809481Y-80990073D01*
X132800858Y-80978447D01*
X132793417Y-80966031D01*
X132787228Y-80952946D01*
X132782351Y-80939317D01*
X132778834Y-80925276D01*
X132776710Y-80910958D01*
X132776000Y-80896500D01*
X132776000Y-80601500D01*
X132776710Y-80587042D01*
X132778834Y-80572724D01*
X132782351Y-80558683D01*
X132787228Y-80545054D01*
X132793417Y-80531969D01*
X132800858Y-80519553D01*
X132809481Y-80507927D01*
X132819202Y-80497202D01*
X132829927Y-80487481D01*
X132841553Y-80478858D01*
X132853969Y-80471417D01*
X132867054Y-80465228D01*
X132880683Y-80460351D01*
X132894724Y-80456834D01*
X132909042Y-80454710D01*
X132923500Y-80454000D01*
X133268500Y-80454000D01*
X133282958Y-80454710D01*
X133282958Y-80454710D01*
G37*
D11*
X133096000Y-80749000D03*
D10*
G36*
X122104958Y-80198710D02*
G01*
X122119276Y-80200834D01*
X122133317Y-80204351D01*
X122146946Y-80209228D01*
X122160031Y-80215417D01*
X122172447Y-80222858D01*
X122184073Y-80231481D01*
X122194798Y-80241202D01*
X122204519Y-80251927D01*
X122213142Y-80263553D01*
X122220583Y-80275969D01*
X122226772Y-80289054D01*
X122231649Y-80302683D01*
X122235166Y-80316724D01*
X122237290Y-80331042D01*
X122238000Y-80345500D01*
X122238000Y-80690500D01*
X122237290Y-80704958D01*
X122235166Y-80719276D01*
X122231649Y-80733317D01*
X122226772Y-80746946D01*
X122220583Y-80760031D01*
X122213142Y-80772447D01*
X122204519Y-80784073D01*
X122194798Y-80794798D01*
X122184073Y-80804519D01*
X122172447Y-80813142D01*
X122160031Y-80820583D01*
X122146946Y-80826772D01*
X122133317Y-80831649D01*
X122119276Y-80835166D01*
X122104958Y-80837290D01*
X122090500Y-80838000D01*
X121795500Y-80838000D01*
X121781042Y-80837290D01*
X121766724Y-80835166D01*
X121752683Y-80831649D01*
X121739054Y-80826772D01*
X121725969Y-80820583D01*
X121713553Y-80813142D01*
X121701927Y-80804519D01*
X121691202Y-80794798D01*
X121681481Y-80784073D01*
X121672858Y-80772447D01*
X121665417Y-80760031D01*
X121659228Y-80746946D01*
X121654351Y-80733317D01*
X121650834Y-80719276D01*
X121648710Y-80704958D01*
X121648000Y-80690500D01*
X121648000Y-80345500D01*
X121648710Y-80331042D01*
X121650834Y-80316724D01*
X121654351Y-80302683D01*
X121659228Y-80289054D01*
X121665417Y-80275969D01*
X121672858Y-80263553D01*
X121681481Y-80251927D01*
X121691202Y-80241202D01*
X121701927Y-80231481D01*
X121713553Y-80222858D01*
X121725969Y-80215417D01*
X121739054Y-80209228D01*
X121752683Y-80204351D01*
X121766724Y-80200834D01*
X121781042Y-80198710D01*
X121795500Y-80198000D01*
X122090500Y-80198000D01*
X122104958Y-80198710D01*
X122104958Y-80198710D01*
G37*
D11*
X121943000Y-80518000D03*
D10*
G36*
X123074958Y-80198710D02*
G01*
X123089276Y-80200834D01*
X123103317Y-80204351D01*
X123116946Y-80209228D01*
X123130031Y-80215417D01*
X123142447Y-80222858D01*
X123154073Y-80231481D01*
X123164798Y-80241202D01*
X123174519Y-80251927D01*
X123183142Y-80263553D01*
X123190583Y-80275969D01*
X123196772Y-80289054D01*
X123201649Y-80302683D01*
X123205166Y-80316724D01*
X123207290Y-80331042D01*
X123208000Y-80345500D01*
X123208000Y-80690500D01*
X123207290Y-80704958D01*
X123205166Y-80719276D01*
X123201649Y-80733317D01*
X123196772Y-80746946D01*
X123190583Y-80760031D01*
X123183142Y-80772447D01*
X123174519Y-80784073D01*
X123164798Y-80794798D01*
X123154073Y-80804519D01*
X123142447Y-80813142D01*
X123130031Y-80820583D01*
X123116946Y-80826772D01*
X123103317Y-80831649D01*
X123089276Y-80835166D01*
X123074958Y-80837290D01*
X123060500Y-80838000D01*
X122765500Y-80838000D01*
X122751042Y-80837290D01*
X122736724Y-80835166D01*
X122722683Y-80831649D01*
X122709054Y-80826772D01*
X122695969Y-80820583D01*
X122683553Y-80813142D01*
X122671927Y-80804519D01*
X122661202Y-80794798D01*
X122651481Y-80784073D01*
X122642858Y-80772447D01*
X122635417Y-80760031D01*
X122629228Y-80746946D01*
X122624351Y-80733317D01*
X122620834Y-80719276D01*
X122618710Y-80704958D01*
X122618000Y-80690500D01*
X122618000Y-80345500D01*
X122618710Y-80331042D01*
X122620834Y-80316724D01*
X122624351Y-80302683D01*
X122629228Y-80289054D01*
X122635417Y-80275969D01*
X122642858Y-80263553D01*
X122651481Y-80251927D01*
X122661202Y-80241202D01*
X122671927Y-80231481D01*
X122683553Y-80222858D01*
X122695969Y-80215417D01*
X122709054Y-80209228D01*
X122722683Y-80204351D01*
X122736724Y-80200834D01*
X122751042Y-80198710D01*
X122765500Y-80198000D01*
X123060500Y-80198000D01*
X123074958Y-80198710D01*
X123074958Y-80198710D01*
G37*
D11*
X122913000Y-80518000D03*
D18*
X142174000Y-75268000D03*
X140274000Y-75268000D03*
X140274000Y-73068000D03*
X141224000Y-73068000D03*
X142174000Y-73068000D03*
X125918000Y-73068000D03*
X124968000Y-73068000D03*
X124018000Y-73068000D03*
X124018000Y-75268000D03*
X125918000Y-75268000D03*
D10*
G36*
X137735683Y-79544770D02*
G01*
X137751214Y-79547074D01*
X137766446Y-79550890D01*
X137781229Y-79556179D01*
X137795423Y-79562893D01*
X137808891Y-79570965D01*
X137821503Y-79580318D01*
X137833137Y-79590863D01*
X137843682Y-79602497D01*
X137853035Y-79615109D01*
X137861107Y-79628577D01*
X137867821Y-79642771D01*
X137873110Y-79657554D01*
X137876926Y-79672786D01*
X137879230Y-79688317D01*
X137880000Y-79704000D01*
X137880000Y-80024000D01*
X137879230Y-80039683D01*
X137876926Y-80055214D01*
X137873110Y-80070446D01*
X137867821Y-80085229D01*
X137861107Y-80099423D01*
X137853035Y-80112891D01*
X137843682Y-80125503D01*
X137833137Y-80137137D01*
X137821503Y-80147682D01*
X137808891Y-80157035D01*
X137795423Y-80165107D01*
X137781229Y-80171821D01*
X137766446Y-80177110D01*
X137751214Y-80180926D01*
X137735683Y-80183230D01*
X137720000Y-80184000D01*
X137400000Y-80184000D01*
X137384317Y-80183230D01*
X137368786Y-80180926D01*
X137353554Y-80177110D01*
X137338771Y-80171821D01*
X137324577Y-80165107D01*
X137311109Y-80157035D01*
X137298497Y-80147682D01*
X137286863Y-80137137D01*
X137276318Y-80125503D01*
X137266965Y-80112891D01*
X137258893Y-80099423D01*
X137252179Y-80085229D01*
X137246890Y-80070446D01*
X137243074Y-80055214D01*
X137240770Y-80039683D01*
X137240000Y-80024000D01*
X137240000Y-79704000D01*
X137240770Y-79688317D01*
X137243074Y-79672786D01*
X137246890Y-79657554D01*
X137252179Y-79642771D01*
X137258893Y-79628577D01*
X137266965Y-79615109D01*
X137276318Y-79602497D01*
X137286863Y-79590863D01*
X137298497Y-79580318D01*
X137311109Y-79570965D01*
X137324577Y-79562893D01*
X137338771Y-79556179D01*
X137353554Y-79550890D01*
X137368786Y-79547074D01*
X137384317Y-79544770D01*
X137400000Y-79544000D01*
X137720000Y-79544000D01*
X137735683Y-79544770D01*
X137735683Y-79544770D01*
G37*
D19*
X137560000Y-79864000D03*
D10*
G36*
X136935683Y-79544770D02*
G01*
X136951214Y-79547074D01*
X136966446Y-79550890D01*
X136981229Y-79556179D01*
X136995423Y-79562893D01*
X137008891Y-79570965D01*
X137021503Y-79580318D01*
X137033137Y-79590863D01*
X137043682Y-79602497D01*
X137053035Y-79615109D01*
X137061107Y-79628577D01*
X137067821Y-79642771D01*
X137073110Y-79657554D01*
X137076926Y-79672786D01*
X137079230Y-79688317D01*
X137080000Y-79704000D01*
X137080000Y-80024000D01*
X137079230Y-80039683D01*
X137076926Y-80055214D01*
X137073110Y-80070446D01*
X137067821Y-80085229D01*
X137061107Y-80099423D01*
X137053035Y-80112891D01*
X137043682Y-80125503D01*
X137033137Y-80137137D01*
X137021503Y-80147682D01*
X137008891Y-80157035D01*
X136995423Y-80165107D01*
X136981229Y-80171821D01*
X136966446Y-80177110D01*
X136951214Y-80180926D01*
X136935683Y-80183230D01*
X136920000Y-80184000D01*
X136600000Y-80184000D01*
X136584317Y-80183230D01*
X136568786Y-80180926D01*
X136553554Y-80177110D01*
X136538771Y-80171821D01*
X136524577Y-80165107D01*
X136511109Y-80157035D01*
X136498497Y-80147682D01*
X136486863Y-80137137D01*
X136476318Y-80125503D01*
X136466965Y-80112891D01*
X136458893Y-80099423D01*
X136452179Y-80085229D01*
X136446890Y-80070446D01*
X136443074Y-80055214D01*
X136440770Y-80039683D01*
X136440000Y-80024000D01*
X136440000Y-79704000D01*
X136440770Y-79688317D01*
X136443074Y-79672786D01*
X136446890Y-79657554D01*
X136452179Y-79642771D01*
X136458893Y-79628577D01*
X136466965Y-79615109D01*
X136476318Y-79602497D01*
X136486863Y-79590863D01*
X136498497Y-79580318D01*
X136511109Y-79570965D01*
X136524577Y-79562893D01*
X136538771Y-79556179D01*
X136553554Y-79550890D01*
X136568786Y-79547074D01*
X136584317Y-79544770D01*
X136600000Y-79544000D01*
X136920000Y-79544000D01*
X136935683Y-79544770D01*
X136935683Y-79544770D01*
G37*
D19*
X136760000Y-79864000D03*
D10*
G36*
X137735683Y-80344770D02*
G01*
X137751214Y-80347074D01*
X137766446Y-80350890D01*
X137781229Y-80356179D01*
X137795423Y-80362893D01*
X137808891Y-80370965D01*
X137821503Y-80380318D01*
X137833137Y-80390863D01*
X137843682Y-80402497D01*
X137853035Y-80415109D01*
X137861107Y-80428577D01*
X137867821Y-80442771D01*
X137873110Y-80457554D01*
X137876926Y-80472786D01*
X137879230Y-80488317D01*
X137880000Y-80504000D01*
X137880000Y-80824000D01*
X137879230Y-80839683D01*
X137876926Y-80855214D01*
X137873110Y-80870446D01*
X137867821Y-80885229D01*
X137861107Y-80899423D01*
X137853035Y-80912891D01*
X137843682Y-80925503D01*
X137833137Y-80937137D01*
X137821503Y-80947682D01*
X137808891Y-80957035D01*
X137795423Y-80965107D01*
X137781229Y-80971821D01*
X137766446Y-80977110D01*
X137751214Y-80980926D01*
X137735683Y-80983230D01*
X137720000Y-80984000D01*
X137400000Y-80984000D01*
X137384317Y-80983230D01*
X137368786Y-80980926D01*
X137353554Y-80977110D01*
X137338771Y-80971821D01*
X137324577Y-80965107D01*
X137311109Y-80957035D01*
X137298497Y-80947682D01*
X137286863Y-80937137D01*
X137276318Y-80925503D01*
X137266965Y-80912891D01*
X137258893Y-80899423D01*
X137252179Y-80885229D01*
X137246890Y-80870446D01*
X137243074Y-80855214D01*
X137240770Y-80839683D01*
X137240000Y-80824000D01*
X137240000Y-80504000D01*
X137240770Y-80488317D01*
X137243074Y-80472786D01*
X137246890Y-80457554D01*
X137252179Y-80442771D01*
X137258893Y-80428577D01*
X137266965Y-80415109D01*
X137276318Y-80402497D01*
X137286863Y-80390863D01*
X137298497Y-80380318D01*
X137311109Y-80370965D01*
X137324577Y-80362893D01*
X137338771Y-80356179D01*
X137353554Y-80350890D01*
X137368786Y-80347074D01*
X137384317Y-80344770D01*
X137400000Y-80344000D01*
X137720000Y-80344000D01*
X137735683Y-80344770D01*
X137735683Y-80344770D01*
G37*
D19*
X137560000Y-80664000D03*
D10*
G36*
X136935683Y-80344770D02*
G01*
X136951214Y-80347074D01*
X136966446Y-80350890D01*
X136981229Y-80356179D01*
X136995423Y-80362893D01*
X137008891Y-80370965D01*
X137021503Y-80380318D01*
X137033137Y-80390863D01*
X137043682Y-80402497D01*
X137053035Y-80415109D01*
X137061107Y-80428577D01*
X137067821Y-80442771D01*
X137073110Y-80457554D01*
X137076926Y-80472786D01*
X137079230Y-80488317D01*
X137080000Y-80504000D01*
X137080000Y-80824000D01*
X137079230Y-80839683D01*
X137076926Y-80855214D01*
X137073110Y-80870446D01*
X137067821Y-80885229D01*
X137061107Y-80899423D01*
X137053035Y-80912891D01*
X137043682Y-80925503D01*
X137033137Y-80937137D01*
X137021503Y-80947682D01*
X137008891Y-80957035D01*
X136995423Y-80965107D01*
X136981229Y-80971821D01*
X136966446Y-80977110D01*
X136951214Y-80980926D01*
X136935683Y-80983230D01*
X136920000Y-80984000D01*
X136600000Y-80984000D01*
X136584317Y-80983230D01*
X136568786Y-80980926D01*
X136553554Y-80977110D01*
X136538771Y-80971821D01*
X136524577Y-80965107D01*
X136511109Y-80957035D01*
X136498497Y-80947682D01*
X136486863Y-80937137D01*
X136476318Y-80925503D01*
X136466965Y-80912891D01*
X136458893Y-80899423D01*
X136452179Y-80885229D01*
X136446890Y-80870446D01*
X136443074Y-80855214D01*
X136440770Y-80839683D01*
X136440000Y-80824000D01*
X136440000Y-80504000D01*
X136440770Y-80488317D01*
X136443074Y-80472786D01*
X136446890Y-80457554D01*
X136452179Y-80442771D01*
X136458893Y-80428577D01*
X136466965Y-80415109D01*
X136476318Y-80402497D01*
X136486863Y-80390863D01*
X136498497Y-80380318D01*
X136511109Y-80370965D01*
X136524577Y-80362893D01*
X136538771Y-80356179D01*
X136553554Y-80350890D01*
X136568786Y-80347074D01*
X136584317Y-80344770D01*
X136600000Y-80344000D01*
X136920000Y-80344000D01*
X136935683Y-80344770D01*
X136935683Y-80344770D01*
G37*
D19*
X136760000Y-80664000D03*
D10*
G36*
X137978626Y-78414301D02*
G01*
X137984693Y-78415201D01*
X137990643Y-78416691D01*
X137996418Y-78418758D01*
X138001962Y-78421380D01*
X138007223Y-78424533D01*
X138012150Y-78428187D01*
X138016694Y-78432306D01*
X138020813Y-78436850D01*
X138024467Y-78441777D01*
X138027620Y-78447038D01*
X138030242Y-78452582D01*
X138032309Y-78458357D01*
X138033799Y-78464307D01*
X138034699Y-78470374D01*
X138035000Y-78476500D01*
X138035000Y-79176500D01*
X138034699Y-79182626D01*
X138033799Y-79188693D01*
X138032309Y-79194643D01*
X138030242Y-79200418D01*
X138027620Y-79205962D01*
X138024467Y-79211223D01*
X138020813Y-79216150D01*
X138016694Y-79220694D01*
X138012150Y-79224813D01*
X138007223Y-79228467D01*
X138001962Y-79231620D01*
X137996418Y-79234242D01*
X137990643Y-79236309D01*
X137984693Y-79237799D01*
X137978626Y-79238699D01*
X137972500Y-79239000D01*
X137847500Y-79239000D01*
X137841374Y-79238699D01*
X137835307Y-79237799D01*
X137829357Y-79236309D01*
X137823582Y-79234242D01*
X137818038Y-79231620D01*
X137812777Y-79228467D01*
X137807850Y-79224813D01*
X137803306Y-79220694D01*
X137799187Y-79216150D01*
X137795533Y-79211223D01*
X137792380Y-79205962D01*
X137789758Y-79200418D01*
X137787691Y-79194643D01*
X137786201Y-79188693D01*
X137785301Y-79182626D01*
X137785000Y-79176500D01*
X137785000Y-78476500D01*
X137785301Y-78470374D01*
X137786201Y-78464307D01*
X137787691Y-78458357D01*
X137789758Y-78452582D01*
X137792380Y-78447038D01*
X137795533Y-78441777D01*
X137799187Y-78436850D01*
X137803306Y-78432306D01*
X137807850Y-78428187D01*
X137812777Y-78424533D01*
X137818038Y-78421380D01*
X137823582Y-78418758D01*
X137829357Y-78416691D01*
X137835307Y-78415201D01*
X137841374Y-78414301D01*
X137847500Y-78414000D01*
X137972500Y-78414000D01*
X137978626Y-78414301D01*
X137978626Y-78414301D01*
G37*
D20*
X137910000Y-78826500D03*
D10*
G36*
X137478626Y-78414301D02*
G01*
X137484693Y-78415201D01*
X137490643Y-78416691D01*
X137496418Y-78418758D01*
X137501962Y-78421380D01*
X137507223Y-78424533D01*
X137512150Y-78428187D01*
X137516694Y-78432306D01*
X137520813Y-78436850D01*
X137524467Y-78441777D01*
X137527620Y-78447038D01*
X137530242Y-78452582D01*
X137532309Y-78458357D01*
X137533799Y-78464307D01*
X137534699Y-78470374D01*
X137535000Y-78476500D01*
X137535000Y-79176500D01*
X137534699Y-79182626D01*
X137533799Y-79188693D01*
X137532309Y-79194643D01*
X137530242Y-79200418D01*
X137527620Y-79205962D01*
X137524467Y-79211223D01*
X137520813Y-79216150D01*
X137516694Y-79220694D01*
X137512150Y-79224813D01*
X137507223Y-79228467D01*
X137501962Y-79231620D01*
X137496418Y-79234242D01*
X137490643Y-79236309D01*
X137484693Y-79237799D01*
X137478626Y-79238699D01*
X137472500Y-79239000D01*
X137347500Y-79239000D01*
X137341374Y-79238699D01*
X137335307Y-79237799D01*
X137329357Y-79236309D01*
X137323582Y-79234242D01*
X137318038Y-79231620D01*
X137312777Y-79228467D01*
X137307850Y-79224813D01*
X137303306Y-79220694D01*
X137299187Y-79216150D01*
X137295533Y-79211223D01*
X137292380Y-79205962D01*
X137289758Y-79200418D01*
X137287691Y-79194643D01*
X137286201Y-79188693D01*
X137285301Y-79182626D01*
X137285000Y-79176500D01*
X137285000Y-78476500D01*
X137285301Y-78470374D01*
X137286201Y-78464307D01*
X137287691Y-78458357D01*
X137289758Y-78452582D01*
X137292380Y-78447038D01*
X137295533Y-78441777D01*
X137299187Y-78436850D01*
X137303306Y-78432306D01*
X137307850Y-78428187D01*
X137312777Y-78424533D01*
X137318038Y-78421380D01*
X137323582Y-78418758D01*
X137329357Y-78416691D01*
X137335307Y-78415201D01*
X137341374Y-78414301D01*
X137347500Y-78414000D01*
X137472500Y-78414000D01*
X137478626Y-78414301D01*
X137478626Y-78414301D01*
G37*
D20*
X137410000Y-78826500D03*
D10*
G36*
X136978626Y-78414301D02*
G01*
X136984693Y-78415201D01*
X136990643Y-78416691D01*
X136996418Y-78418758D01*
X137001962Y-78421380D01*
X137007223Y-78424533D01*
X137012150Y-78428187D01*
X137016694Y-78432306D01*
X137020813Y-78436850D01*
X137024467Y-78441777D01*
X137027620Y-78447038D01*
X137030242Y-78452582D01*
X137032309Y-78458357D01*
X137033799Y-78464307D01*
X137034699Y-78470374D01*
X137035000Y-78476500D01*
X137035000Y-79176500D01*
X137034699Y-79182626D01*
X137033799Y-79188693D01*
X137032309Y-79194643D01*
X137030242Y-79200418D01*
X137027620Y-79205962D01*
X137024467Y-79211223D01*
X137020813Y-79216150D01*
X137016694Y-79220694D01*
X137012150Y-79224813D01*
X137007223Y-79228467D01*
X137001962Y-79231620D01*
X136996418Y-79234242D01*
X136990643Y-79236309D01*
X136984693Y-79237799D01*
X136978626Y-79238699D01*
X136972500Y-79239000D01*
X136847500Y-79239000D01*
X136841374Y-79238699D01*
X136835307Y-79237799D01*
X136829357Y-79236309D01*
X136823582Y-79234242D01*
X136818038Y-79231620D01*
X136812777Y-79228467D01*
X136807850Y-79224813D01*
X136803306Y-79220694D01*
X136799187Y-79216150D01*
X136795533Y-79211223D01*
X136792380Y-79205962D01*
X136789758Y-79200418D01*
X136787691Y-79194643D01*
X136786201Y-79188693D01*
X136785301Y-79182626D01*
X136785000Y-79176500D01*
X136785000Y-78476500D01*
X136785301Y-78470374D01*
X136786201Y-78464307D01*
X136787691Y-78458357D01*
X136789758Y-78452582D01*
X136792380Y-78447038D01*
X136795533Y-78441777D01*
X136799187Y-78436850D01*
X136803306Y-78432306D01*
X136807850Y-78428187D01*
X136812777Y-78424533D01*
X136818038Y-78421380D01*
X136823582Y-78418758D01*
X136829357Y-78416691D01*
X136835307Y-78415201D01*
X136841374Y-78414301D01*
X136847500Y-78414000D01*
X136972500Y-78414000D01*
X136978626Y-78414301D01*
X136978626Y-78414301D01*
G37*
D20*
X136910000Y-78826500D03*
D10*
G36*
X136478626Y-78414301D02*
G01*
X136484693Y-78415201D01*
X136490643Y-78416691D01*
X136496418Y-78418758D01*
X136501962Y-78421380D01*
X136507223Y-78424533D01*
X136512150Y-78428187D01*
X136516694Y-78432306D01*
X136520813Y-78436850D01*
X136524467Y-78441777D01*
X136527620Y-78447038D01*
X136530242Y-78452582D01*
X136532309Y-78458357D01*
X136533799Y-78464307D01*
X136534699Y-78470374D01*
X136535000Y-78476500D01*
X136535000Y-79176500D01*
X136534699Y-79182626D01*
X136533799Y-79188693D01*
X136532309Y-79194643D01*
X136530242Y-79200418D01*
X136527620Y-79205962D01*
X136524467Y-79211223D01*
X136520813Y-79216150D01*
X136516694Y-79220694D01*
X136512150Y-79224813D01*
X136507223Y-79228467D01*
X136501962Y-79231620D01*
X136496418Y-79234242D01*
X136490643Y-79236309D01*
X136484693Y-79237799D01*
X136478626Y-79238699D01*
X136472500Y-79239000D01*
X136347500Y-79239000D01*
X136341374Y-79238699D01*
X136335307Y-79237799D01*
X136329357Y-79236309D01*
X136323582Y-79234242D01*
X136318038Y-79231620D01*
X136312777Y-79228467D01*
X136307850Y-79224813D01*
X136303306Y-79220694D01*
X136299187Y-79216150D01*
X136295533Y-79211223D01*
X136292380Y-79205962D01*
X136289758Y-79200418D01*
X136287691Y-79194643D01*
X136286201Y-79188693D01*
X136285301Y-79182626D01*
X136285000Y-79176500D01*
X136285000Y-78476500D01*
X136285301Y-78470374D01*
X136286201Y-78464307D01*
X136287691Y-78458357D01*
X136289758Y-78452582D01*
X136292380Y-78447038D01*
X136295533Y-78441777D01*
X136299187Y-78436850D01*
X136303306Y-78432306D01*
X136307850Y-78428187D01*
X136312777Y-78424533D01*
X136318038Y-78421380D01*
X136323582Y-78418758D01*
X136329357Y-78416691D01*
X136335307Y-78415201D01*
X136341374Y-78414301D01*
X136347500Y-78414000D01*
X136472500Y-78414000D01*
X136478626Y-78414301D01*
X136478626Y-78414301D01*
G37*
D20*
X136410000Y-78826500D03*
D10*
G36*
X136078626Y-79389301D02*
G01*
X136084693Y-79390201D01*
X136090643Y-79391691D01*
X136096418Y-79393758D01*
X136101962Y-79396380D01*
X136107223Y-79399533D01*
X136112150Y-79403187D01*
X136116694Y-79407306D01*
X136120813Y-79411850D01*
X136124467Y-79416777D01*
X136127620Y-79422038D01*
X136130242Y-79427582D01*
X136132309Y-79433357D01*
X136133799Y-79439307D01*
X136134699Y-79445374D01*
X136135000Y-79451500D01*
X136135000Y-79576500D01*
X136134699Y-79582626D01*
X136133799Y-79588693D01*
X136132309Y-79594643D01*
X136130242Y-79600418D01*
X136127620Y-79605962D01*
X136124467Y-79611223D01*
X136120813Y-79616150D01*
X136116694Y-79620694D01*
X136112150Y-79624813D01*
X136107223Y-79628467D01*
X136101962Y-79631620D01*
X136096418Y-79634242D01*
X136090643Y-79636309D01*
X136084693Y-79637799D01*
X136078626Y-79638699D01*
X136072500Y-79639000D01*
X135372500Y-79639000D01*
X135366374Y-79638699D01*
X135360307Y-79637799D01*
X135354357Y-79636309D01*
X135348582Y-79634242D01*
X135343038Y-79631620D01*
X135337777Y-79628467D01*
X135332850Y-79624813D01*
X135328306Y-79620694D01*
X135324187Y-79616150D01*
X135320533Y-79611223D01*
X135317380Y-79605962D01*
X135314758Y-79600418D01*
X135312691Y-79594643D01*
X135311201Y-79588693D01*
X135310301Y-79582626D01*
X135310000Y-79576500D01*
X135310000Y-79451500D01*
X135310301Y-79445374D01*
X135311201Y-79439307D01*
X135312691Y-79433357D01*
X135314758Y-79427582D01*
X135317380Y-79422038D01*
X135320533Y-79416777D01*
X135324187Y-79411850D01*
X135328306Y-79407306D01*
X135332850Y-79403187D01*
X135337777Y-79399533D01*
X135343038Y-79396380D01*
X135348582Y-79393758D01*
X135354357Y-79391691D01*
X135360307Y-79390201D01*
X135366374Y-79389301D01*
X135372500Y-79389000D01*
X136072500Y-79389000D01*
X136078626Y-79389301D01*
X136078626Y-79389301D01*
G37*
D20*
X135722500Y-79514000D03*
D10*
G36*
X136078626Y-79889301D02*
G01*
X136084693Y-79890201D01*
X136090643Y-79891691D01*
X136096418Y-79893758D01*
X136101962Y-79896380D01*
X136107223Y-79899533D01*
X136112150Y-79903187D01*
X136116694Y-79907306D01*
X136120813Y-79911850D01*
X136124467Y-79916777D01*
X136127620Y-79922038D01*
X136130242Y-79927582D01*
X136132309Y-79933357D01*
X136133799Y-79939307D01*
X136134699Y-79945374D01*
X136135000Y-79951500D01*
X136135000Y-80076500D01*
X136134699Y-80082626D01*
X136133799Y-80088693D01*
X136132309Y-80094643D01*
X136130242Y-80100418D01*
X136127620Y-80105962D01*
X136124467Y-80111223D01*
X136120813Y-80116150D01*
X136116694Y-80120694D01*
X136112150Y-80124813D01*
X136107223Y-80128467D01*
X136101962Y-80131620D01*
X136096418Y-80134242D01*
X136090643Y-80136309D01*
X136084693Y-80137799D01*
X136078626Y-80138699D01*
X136072500Y-80139000D01*
X135372500Y-80139000D01*
X135366374Y-80138699D01*
X135360307Y-80137799D01*
X135354357Y-80136309D01*
X135348582Y-80134242D01*
X135343038Y-80131620D01*
X135337777Y-80128467D01*
X135332850Y-80124813D01*
X135328306Y-80120694D01*
X135324187Y-80116150D01*
X135320533Y-80111223D01*
X135317380Y-80105962D01*
X135314758Y-80100418D01*
X135312691Y-80094643D01*
X135311201Y-80088693D01*
X135310301Y-80082626D01*
X135310000Y-80076500D01*
X135310000Y-79951500D01*
X135310301Y-79945374D01*
X135311201Y-79939307D01*
X135312691Y-79933357D01*
X135314758Y-79927582D01*
X135317380Y-79922038D01*
X135320533Y-79916777D01*
X135324187Y-79911850D01*
X135328306Y-79907306D01*
X135332850Y-79903187D01*
X135337777Y-79899533D01*
X135343038Y-79896380D01*
X135348582Y-79893758D01*
X135354357Y-79891691D01*
X135360307Y-79890201D01*
X135366374Y-79889301D01*
X135372500Y-79889000D01*
X136072500Y-79889000D01*
X136078626Y-79889301D01*
X136078626Y-79889301D01*
G37*
D20*
X135722500Y-80014000D03*
D10*
G36*
X136078626Y-80389301D02*
G01*
X136084693Y-80390201D01*
X136090643Y-80391691D01*
X136096418Y-80393758D01*
X136101962Y-80396380D01*
X136107223Y-80399533D01*
X136112150Y-80403187D01*
X136116694Y-80407306D01*
X136120813Y-80411850D01*
X136124467Y-80416777D01*
X136127620Y-80422038D01*
X136130242Y-80427582D01*
X136132309Y-80433357D01*
X136133799Y-80439307D01*
X136134699Y-80445374D01*
X136135000Y-80451500D01*
X136135000Y-80576500D01*
X136134699Y-80582626D01*
X136133799Y-80588693D01*
X136132309Y-80594643D01*
X136130242Y-80600418D01*
X136127620Y-80605962D01*
X136124467Y-80611223D01*
X136120813Y-80616150D01*
X136116694Y-80620694D01*
X136112150Y-80624813D01*
X136107223Y-80628467D01*
X136101962Y-80631620D01*
X136096418Y-80634242D01*
X136090643Y-80636309D01*
X136084693Y-80637799D01*
X136078626Y-80638699D01*
X136072500Y-80639000D01*
X135372500Y-80639000D01*
X135366374Y-80638699D01*
X135360307Y-80637799D01*
X135354357Y-80636309D01*
X135348582Y-80634242D01*
X135343038Y-80631620D01*
X135337777Y-80628467D01*
X135332850Y-80624813D01*
X135328306Y-80620694D01*
X135324187Y-80616150D01*
X135320533Y-80611223D01*
X135317380Y-80605962D01*
X135314758Y-80600418D01*
X135312691Y-80594643D01*
X135311201Y-80588693D01*
X135310301Y-80582626D01*
X135310000Y-80576500D01*
X135310000Y-80451500D01*
X135310301Y-80445374D01*
X135311201Y-80439307D01*
X135312691Y-80433357D01*
X135314758Y-80427582D01*
X135317380Y-80422038D01*
X135320533Y-80416777D01*
X135324187Y-80411850D01*
X135328306Y-80407306D01*
X135332850Y-80403187D01*
X135337777Y-80399533D01*
X135343038Y-80396380D01*
X135348582Y-80393758D01*
X135354357Y-80391691D01*
X135360307Y-80390201D01*
X135366374Y-80389301D01*
X135372500Y-80389000D01*
X136072500Y-80389000D01*
X136078626Y-80389301D01*
X136078626Y-80389301D01*
G37*
D20*
X135722500Y-80514000D03*
D10*
G36*
X136078626Y-80889301D02*
G01*
X136084693Y-80890201D01*
X136090643Y-80891691D01*
X136096418Y-80893758D01*
X136101962Y-80896380D01*
X136107223Y-80899533D01*
X136112150Y-80903187D01*
X136116694Y-80907306D01*
X136120813Y-80911850D01*
X136124467Y-80916777D01*
X136127620Y-80922038D01*
X136130242Y-80927582D01*
X136132309Y-80933357D01*
X136133799Y-80939307D01*
X136134699Y-80945374D01*
X136135000Y-80951500D01*
X136135000Y-81076500D01*
X136134699Y-81082626D01*
X136133799Y-81088693D01*
X136132309Y-81094643D01*
X136130242Y-81100418D01*
X136127620Y-81105962D01*
X136124467Y-81111223D01*
X136120813Y-81116150D01*
X136116694Y-81120694D01*
X136112150Y-81124813D01*
X136107223Y-81128467D01*
X136101962Y-81131620D01*
X136096418Y-81134242D01*
X136090643Y-81136309D01*
X136084693Y-81137799D01*
X136078626Y-81138699D01*
X136072500Y-81139000D01*
X135372500Y-81139000D01*
X135366374Y-81138699D01*
X135360307Y-81137799D01*
X135354357Y-81136309D01*
X135348582Y-81134242D01*
X135343038Y-81131620D01*
X135337777Y-81128467D01*
X135332850Y-81124813D01*
X135328306Y-81120694D01*
X135324187Y-81116150D01*
X135320533Y-81111223D01*
X135317380Y-81105962D01*
X135314758Y-81100418D01*
X135312691Y-81094643D01*
X135311201Y-81088693D01*
X135310301Y-81082626D01*
X135310000Y-81076500D01*
X135310000Y-80951500D01*
X135310301Y-80945374D01*
X135311201Y-80939307D01*
X135312691Y-80933357D01*
X135314758Y-80927582D01*
X135317380Y-80922038D01*
X135320533Y-80916777D01*
X135324187Y-80911850D01*
X135328306Y-80907306D01*
X135332850Y-80903187D01*
X135337777Y-80899533D01*
X135343038Y-80896380D01*
X135348582Y-80893758D01*
X135354357Y-80891691D01*
X135360307Y-80890201D01*
X135366374Y-80889301D01*
X135372500Y-80889000D01*
X136072500Y-80889000D01*
X136078626Y-80889301D01*
X136078626Y-80889301D01*
G37*
D20*
X135722500Y-81014000D03*
D10*
G36*
X136478626Y-81289301D02*
G01*
X136484693Y-81290201D01*
X136490643Y-81291691D01*
X136496418Y-81293758D01*
X136501962Y-81296380D01*
X136507223Y-81299533D01*
X136512150Y-81303187D01*
X136516694Y-81307306D01*
X136520813Y-81311850D01*
X136524467Y-81316777D01*
X136527620Y-81322038D01*
X136530242Y-81327582D01*
X136532309Y-81333357D01*
X136533799Y-81339307D01*
X136534699Y-81345374D01*
X136535000Y-81351500D01*
X136535000Y-82051500D01*
X136534699Y-82057626D01*
X136533799Y-82063693D01*
X136532309Y-82069643D01*
X136530242Y-82075418D01*
X136527620Y-82080962D01*
X136524467Y-82086223D01*
X136520813Y-82091150D01*
X136516694Y-82095694D01*
X136512150Y-82099813D01*
X136507223Y-82103467D01*
X136501962Y-82106620D01*
X136496418Y-82109242D01*
X136490643Y-82111309D01*
X136484693Y-82112799D01*
X136478626Y-82113699D01*
X136472500Y-82114000D01*
X136347500Y-82114000D01*
X136341374Y-82113699D01*
X136335307Y-82112799D01*
X136329357Y-82111309D01*
X136323582Y-82109242D01*
X136318038Y-82106620D01*
X136312777Y-82103467D01*
X136307850Y-82099813D01*
X136303306Y-82095694D01*
X136299187Y-82091150D01*
X136295533Y-82086223D01*
X136292380Y-82080962D01*
X136289758Y-82075418D01*
X136287691Y-82069643D01*
X136286201Y-82063693D01*
X136285301Y-82057626D01*
X136285000Y-82051500D01*
X136285000Y-81351500D01*
X136285301Y-81345374D01*
X136286201Y-81339307D01*
X136287691Y-81333357D01*
X136289758Y-81327582D01*
X136292380Y-81322038D01*
X136295533Y-81316777D01*
X136299187Y-81311850D01*
X136303306Y-81307306D01*
X136307850Y-81303187D01*
X136312777Y-81299533D01*
X136318038Y-81296380D01*
X136323582Y-81293758D01*
X136329357Y-81291691D01*
X136335307Y-81290201D01*
X136341374Y-81289301D01*
X136347500Y-81289000D01*
X136472500Y-81289000D01*
X136478626Y-81289301D01*
X136478626Y-81289301D01*
G37*
D20*
X136410000Y-81701500D03*
D10*
G36*
X136978626Y-81289301D02*
G01*
X136984693Y-81290201D01*
X136990643Y-81291691D01*
X136996418Y-81293758D01*
X137001962Y-81296380D01*
X137007223Y-81299533D01*
X137012150Y-81303187D01*
X137016694Y-81307306D01*
X137020813Y-81311850D01*
X137024467Y-81316777D01*
X137027620Y-81322038D01*
X137030242Y-81327582D01*
X137032309Y-81333357D01*
X137033799Y-81339307D01*
X137034699Y-81345374D01*
X137035000Y-81351500D01*
X137035000Y-82051500D01*
X137034699Y-82057626D01*
X137033799Y-82063693D01*
X137032309Y-82069643D01*
X137030242Y-82075418D01*
X137027620Y-82080962D01*
X137024467Y-82086223D01*
X137020813Y-82091150D01*
X137016694Y-82095694D01*
X137012150Y-82099813D01*
X137007223Y-82103467D01*
X137001962Y-82106620D01*
X136996418Y-82109242D01*
X136990643Y-82111309D01*
X136984693Y-82112799D01*
X136978626Y-82113699D01*
X136972500Y-82114000D01*
X136847500Y-82114000D01*
X136841374Y-82113699D01*
X136835307Y-82112799D01*
X136829357Y-82111309D01*
X136823582Y-82109242D01*
X136818038Y-82106620D01*
X136812777Y-82103467D01*
X136807850Y-82099813D01*
X136803306Y-82095694D01*
X136799187Y-82091150D01*
X136795533Y-82086223D01*
X136792380Y-82080962D01*
X136789758Y-82075418D01*
X136787691Y-82069643D01*
X136786201Y-82063693D01*
X136785301Y-82057626D01*
X136785000Y-82051500D01*
X136785000Y-81351500D01*
X136785301Y-81345374D01*
X136786201Y-81339307D01*
X136787691Y-81333357D01*
X136789758Y-81327582D01*
X136792380Y-81322038D01*
X136795533Y-81316777D01*
X136799187Y-81311850D01*
X136803306Y-81307306D01*
X136807850Y-81303187D01*
X136812777Y-81299533D01*
X136818038Y-81296380D01*
X136823582Y-81293758D01*
X136829357Y-81291691D01*
X136835307Y-81290201D01*
X136841374Y-81289301D01*
X136847500Y-81289000D01*
X136972500Y-81289000D01*
X136978626Y-81289301D01*
X136978626Y-81289301D01*
G37*
D20*
X136910000Y-81701500D03*
D10*
G36*
X137478626Y-81289301D02*
G01*
X137484693Y-81290201D01*
X137490643Y-81291691D01*
X137496418Y-81293758D01*
X137501962Y-81296380D01*
X137507223Y-81299533D01*
X137512150Y-81303187D01*
X137516694Y-81307306D01*
X137520813Y-81311850D01*
X137524467Y-81316777D01*
X137527620Y-81322038D01*
X137530242Y-81327582D01*
X137532309Y-81333357D01*
X137533799Y-81339307D01*
X137534699Y-81345374D01*
X137535000Y-81351500D01*
X137535000Y-82051500D01*
X137534699Y-82057626D01*
X137533799Y-82063693D01*
X137532309Y-82069643D01*
X137530242Y-82075418D01*
X137527620Y-82080962D01*
X137524467Y-82086223D01*
X137520813Y-82091150D01*
X137516694Y-82095694D01*
X137512150Y-82099813D01*
X137507223Y-82103467D01*
X137501962Y-82106620D01*
X137496418Y-82109242D01*
X137490643Y-82111309D01*
X137484693Y-82112799D01*
X137478626Y-82113699D01*
X137472500Y-82114000D01*
X137347500Y-82114000D01*
X137341374Y-82113699D01*
X137335307Y-82112799D01*
X137329357Y-82111309D01*
X137323582Y-82109242D01*
X137318038Y-82106620D01*
X137312777Y-82103467D01*
X137307850Y-82099813D01*
X137303306Y-82095694D01*
X137299187Y-82091150D01*
X137295533Y-82086223D01*
X137292380Y-82080962D01*
X137289758Y-82075418D01*
X137287691Y-82069643D01*
X137286201Y-82063693D01*
X137285301Y-82057626D01*
X137285000Y-82051500D01*
X137285000Y-81351500D01*
X137285301Y-81345374D01*
X137286201Y-81339307D01*
X137287691Y-81333357D01*
X137289758Y-81327582D01*
X137292380Y-81322038D01*
X137295533Y-81316777D01*
X137299187Y-81311850D01*
X137303306Y-81307306D01*
X137307850Y-81303187D01*
X137312777Y-81299533D01*
X137318038Y-81296380D01*
X137323582Y-81293758D01*
X137329357Y-81291691D01*
X137335307Y-81290201D01*
X137341374Y-81289301D01*
X137347500Y-81289000D01*
X137472500Y-81289000D01*
X137478626Y-81289301D01*
X137478626Y-81289301D01*
G37*
D20*
X137410000Y-81701500D03*
D10*
G36*
X137978626Y-81289301D02*
G01*
X137984693Y-81290201D01*
X137990643Y-81291691D01*
X137996418Y-81293758D01*
X138001962Y-81296380D01*
X138007223Y-81299533D01*
X138012150Y-81303187D01*
X138016694Y-81307306D01*
X138020813Y-81311850D01*
X138024467Y-81316777D01*
X138027620Y-81322038D01*
X138030242Y-81327582D01*
X138032309Y-81333357D01*
X138033799Y-81339307D01*
X138034699Y-81345374D01*
X138035000Y-81351500D01*
X138035000Y-82051500D01*
X138034699Y-82057626D01*
X138033799Y-82063693D01*
X138032309Y-82069643D01*
X138030242Y-82075418D01*
X138027620Y-82080962D01*
X138024467Y-82086223D01*
X138020813Y-82091150D01*
X138016694Y-82095694D01*
X138012150Y-82099813D01*
X138007223Y-82103467D01*
X138001962Y-82106620D01*
X137996418Y-82109242D01*
X137990643Y-82111309D01*
X137984693Y-82112799D01*
X137978626Y-82113699D01*
X137972500Y-82114000D01*
X137847500Y-82114000D01*
X137841374Y-82113699D01*
X137835307Y-82112799D01*
X137829357Y-82111309D01*
X137823582Y-82109242D01*
X137818038Y-82106620D01*
X137812777Y-82103467D01*
X137807850Y-82099813D01*
X137803306Y-82095694D01*
X137799187Y-82091150D01*
X137795533Y-82086223D01*
X137792380Y-82080962D01*
X137789758Y-82075418D01*
X137787691Y-82069643D01*
X137786201Y-82063693D01*
X137785301Y-82057626D01*
X137785000Y-82051500D01*
X137785000Y-81351500D01*
X137785301Y-81345374D01*
X137786201Y-81339307D01*
X137787691Y-81333357D01*
X137789758Y-81327582D01*
X137792380Y-81322038D01*
X137795533Y-81316777D01*
X137799187Y-81311850D01*
X137803306Y-81307306D01*
X137807850Y-81303187D01*
X137812777Y-81299533D01*
X137818038Y-81296380D01*
X137823582Y-81293758D01*
X137829357Y-81291691D01*
X137835307Y-81290201D01*
X137841374Y-81289301D01*
X137847500Y-81289000D01*
X137972500Y-81289000D01*
X137978626Y-81289301D01*
X137978626Y-81289301D01*
G37*
D20*
X137910000Y-81701500D03*
D10*
G36*
X138953626Y-80889301D02*
G01*
X138959693Y-80890201D01*
X138965643Y-80891691D01*
X138971418Y-80893758D01*
X138976962Y-80896380D01*
X138982223Y-80899533D01*
X138987150Y-80903187D01*
X138991694Y-80907306D01*
X138995813Y-80911850D01*
X138999467Y-80916777D01*
X139002620Y-80922038D01*
X139005242Y-80927582D01*
X139007309Y-80933357D01*
X139008799Y-80939307D01*
X139009699Y-80945374D01*
X139010000Y-80951500D01*
X139010000Y-81076500D01*
X139009699Y-81082626D01*
X139008799Y-81088693D01*
X139007309Y-81094643D01*
X139005242Y-81100418D01*
X139002620Y-81105962D01*
X138999467Y-81111223D01*
X138995813Y-81116150D01*
X138991694Y-81120694D01*
X138987150Y-81124813D01*
X138982223Y-81128467D01*
X138976962Y-81131620D01*
X138971418Y-81134242D01*
X138965643Y-81136309D01*
X138959693Y-81137799D01*
X138953626Y-81138699D01*
X138947500Y-81139000D01*
X138247500Y-81139000D01*
X138241374Y-81138699D01*
X138235307Y-81137799D01*
X138229357Y-81136309D01*
X138223582Y-81134242D01*
X138218038Y-81131620D01*
X138212777Y-81128467D01*
X138207850Y-81124813D01*
X138203306Y-81120694D01*
X138199187Y-81116150D01*
X138195533Y-81111223D01*
X138192380Y-81105962D01*
X138189758Y-81100418D01*
X138187691Y-81094643D01*
X138186201Y-81088693D01*
X138185301Y-81082626D01*
X138185000Y-81076500D01*
X138185000Y-80951500D01*
X138185301Y-80945374D01*
X138186201Y-80939307D01*
X138187691Y-80933357D01*
X138189758Y-80927582D01*
X138192380Y-80922038D01*
X138195533Y-80916777D01*
X138199187Y-80911850D01*
X138203306Y-80907306D01*
X138207850Y-80903187D01*
X138212777Y-80899533D01*
X138218038Y-80896380D01*
X138223582Y-80893758D01*
X138229357Y-80891691D01*
X138235307Y-80890201D01*
X138241374Y-80889301D01*
X138247500Y-80889000D01*
X138947500Y-80889000D01*
X138953626Y-80889301D01*
X138953626Y-80889301D01*
G37*
D20*
X138597500Y-81014000D03*
D10*
G36*
X138953626Y-80389301D02*
G01*
X138959693Y-80390201D01*
X138965643Y-80391691D01*
X138971418Y-80393758D01*
X138976962Y-80396380D01*
X138982223Y-80399533D01*
X138987150Y-80403187D01*
X138991694Y-80407306D01*
X138995813Y-80411850D01*
X138999467Y-80416777D01*
X139002620Y-80422038D01*
X139005242Y-80427582D01*
X139007309Y-80433357D01*
X139008799Y-80439307D01*
X139009699Y-80445374D01*
X139010000Y-80451500D01*
X139010000Y-80576500D01*
X139009699Y-80582626D01*
X139008799Y-80588693D01*
X139007309Y-80594643D01*
X139005242Y-80600418D01*
X139002620Y-80605962D01*
X138999467Y-80611223D01*
X138995813Y-80616150D01*
X138991694Y-80620694D01*
X138987150Y-80624813D01*
X138982223Y-80628467D01*
X138976962Y-80631620D01*
X138971418Y-80634242D01*
X138965643Y-80636309D01*
X138959693Y-80637799D01*
X138953626Y-80638699D01*
X138947500Y-80639000D01*
X138247500Y-80639000D01*
X138241374Y-80638699D01*
X138235307Y-80637799D01*
X138229357Y-80636309D01*
X138223582Y-80634242D01*
X138218038Y-80631620D01*
X138212777Y-80628467D01*
X138207850Y-80624813D01*
X138203306Y-80620694D01*
X138199187Y-80616150D01*
X138195533Y-80611223D01*
X138192380Y-80605962D01*
X138189758Y-80600418D01*
X138187691Y-80594643D01*
X138186201Y-80588693D01*
X138185301Y-80582626D01*
X138185000Y-80576500D01*
X138185000Y-80451500D01*
X138185301Y-80445374D01*
X138186201Y-80439307D01*
X138187691Y-80433357D01*
X138189758Y-80427582D01*
X138192380Y-80422038D01*
X138195533Y-80416777D01*
X138199187Y-80411850D01*
X138203306Y-80407306D01*
X138207850Y-80403187D01*
X138212777Y-80399533D01*
X138218038Y-80396380D01*
X138223582Y-80393758D01*
X138229357Y-80391691D01*
X138235307Y-80390201D01*
X138241374Y-80389301D01*
X138247500Y-80389000D01*
X138947500Y-80389000D01*
X138953626Y-80389301D01*
X138953626Y-80389301D01*
G37*
D20*
X138597500Y-80514000D03*
D10*
G36*
X138953626Y-79889301D02*
G01*
X138959693Y-79890201D01*
X138965643Y-79891691D01*
X138971418Y-79893758D01*
X138976962Y-79896380D01*
X138982223Y-79899533D01*
X138987150Y-79903187D01*
X138991694Y-79907306D01*
X138995813Y-79911850D01*
X138999467Y-79916777D01*
X139002620Y-79922038D01*
X139005242Y-79927582D01*
X139007309Y-79933357D01*
X139008799Y-79939307D01*
X139009699Y-79945374D01*
X139010000Y-79951500D01*
X139010000Y-80076500D01*
X139009699Y-80082626D01*
X139008799Y-80088693D01*
X139007309Y-80094643D01*
X139005242Y-80100418D01*
X139002620Y-80105962D01*
X138999467Y-80111223D01*
X138995813Y-80116150D01*
X138991694Y-80120694D01*
X138987150Y-80124813D01*
X138982223Y-80128467D01*
X138976962Y-80131620D01*
X138971418Y-80134242D01*
X138965643Y-80136309D01*
X138959693Y-80137799D01*
X138953626Y-80138699D01*
X138947500Y-80139000D01*
X138247500Y-80139000D01*
X138241374Y-80138699D01*
X138235307Y-80137799D01*
X138229357Y-80136309D01*
X138223582Y-80134242D01*
X138218038Y-80131620D01*
X138212777Y-80128467D01*
X138207850Y-80124813D01*
X138203306Y-80120694D01*
X138199187Y-80116150D01*
X138195533Y-80111223D01*
X138192380Y-80105962D01*
X138189758Y-80100418D01*
X138187691Y-80094643D01*
X138186201Y-80088693D01*
X138185301Y-80082626D01*
X138185000Y-80076500D01*
X138185000Y-79951500D01*
X138185301Y-79945374D01*
X138186201Y-79939307D01*
X138187691Y-79933357D01*
X138189758Y-79927582D01*
X138192380Y-79922038D01*
X138195533Y-79916777D01*
X138199187Y-79911850D01*
X138203306Y-79907306D01*
X138207850Y-79903187D01*
X138212777Y-79899533D01*
X138218038Y-79896380D01*
X138223582Y-79893758D01*
X138229357Y-79891691D01*
X138235307Y-79890201D01*
X138241374Y-79889301D01*
X138247500Y-79889000D01*
X138947500Y-79889000D01*
X138953626Y-79889301D01*
X138953626Y-79889301D01*
G37*
D20*
X138597500Y-80014000D03*
D10*
G36*
X138953626Y-79389301D02*
G01*
X138959693Y-79390201D01*
X138965643Y-79391691D01*
X138971418Y-79393758D01*
X138976962Y-79396380D01*
X138982223Y-79399533D01*
X138987150Y-79403187D01*
X138991694Y-79407306D01*
X138995813Y-79411850D01*
X138999467Y-79416777D01*
X139002620Y-79422038D01*
X139005242Y-79427582D01*
X139007309Y-79433357D01*
X139008799Y-79439307D01*
X139009699Y-79445374D01*
X139010000Y-79451500D01*
X139010000Y-79576500D01*
X139009699Y-79582626D01*
X139008799Y-79588693D01*
X139007309Y-79594643D01*
X139005242Y-79600418D01*
X139002620Y-79605962D01*
X138999467Y-79611223D01*
X138995813Y-79616150D01*
X138991694Y-79620694D01*
X138987150Y-79624813D01*
X138982223Y-79628467D01*
X138976962Y-79631620D01*
X138971418Y-79634242D01*
X138965643Y-79636309D01*
X138959693Y-79637799D01*
X138953626Y-79638699D01*
X138947500Y-79639000D01*
X138247500Y-79639000D01*
X138241374Y-79638699D01*
X138235307Y-79637799D01*
X138229357Y-79636309D01*
X138223582Y-79634242D01*
X138218038Y-79631620D01*
X138212777Y-79628467D01*
X138207850Y-79624813D01*
X138203306Y-79620694D01*
X138199187Y-79616150D01*
X138195533Y-79611223D01*
X138192380Y-79605962D01*
X138189758Y-79600418D01*
X138187691Y-79594643D01*
X138186201Y-79588693D01*
X138185301Y-79582626D01*
X138185000Y-79576500D01*
X138185000Y-79451500D01*
X138185301Y-79445374D01*
X138186201Y-79439307D01*
X138187691Y-79433357D01*
X138189758Y-79427582D01*
X138192380Y-79422038D01*
X138195533Y-79416777D01*
X138199187Y-79411850D01*
X138203306Y-79407306D01*
X138207850Y-79403187D01*
X138212777Y-79399533D01*
X138218038Y-79396380D01*
X138223582Y-79393758D01*
X138229357Y-79391691D01*
X138235307Y-79390201D01*
X138241374Y-79389301D01*
X138247500Y-79389000D01*
X138947500Y-79389000D01*
X138953626Y-79389301D01*
X138953626Y-79389301D01*
G37*
D20*
X138597500Y-79514000D03*
D21*
X122174000Y-85528000D03*
X122174000Y-84328000D03*
X122174000Y-83128000D03*
D10*
G36*
X127213839Y-80597999D02*
G01*
X127233981Y-80600987D01*
X127253734Y-80605935D01*
X127272907Y-80612795D01*
X127291315Y-80621501D01*
X127308781Y-80631970D01*
X127325137Y-80644100D01*
X127340225Y-80657775D01*
X127353900Y-80672863D01*
X127366030Y-80689219D01*
X127376499Y-80706685D01*
X127385205Y-80725093D01*
X127392065Y-80744266D01*
X127397013Y-80764019D01*
X127400001Y-80784161D01*
X127401000Y-80804500D01*
X127401000Y-81219500D01*
X127400001Y-81239839D01*
X127397013Y-81259981D01*
X127392065Y-81279734D01*
X127385205Y-81298907D01*
X127376499Y-81317315D01*
X127366030Y-81334781D01*
X127353900Y-81351137D01*
X127340225Y-81366225D01*
X127325137Y-81379900D01*
X127308781Y-81392030D01*
X127291315Y-81402499D01*
X127272907Y-81411205D01*
X127253734Y-81418065D01*
X127233981Y-81423013D01*
X127213839Y-81426001D01*
X127193500Y-81427000D01*
X126778500Y-81427000D01*
X126758161Y-81426001D01*
X126738019Y-81423013D01*
X126718266Y-81418065D01*
X126699093Y-81411205D01*
X126680685Y-81402499D01*
X126663219Y-81392030D01*
X126646863Y-81379900D01*
X126631775Y-81366225D01*
X126618100Y-81351137D01*
X126605970Y-81334781D01*
X126595501Y-81317315D01*
X126586795Y-81298907D01*
X126579935Y-81279734D01*
X126574987Y-81259981D01*
X126571999Y-81239839D01*
X126571000Y-81219500D01*
X126571000Y-80804500D01*
X126571999Y-80784161D01*
X126574987Y-80764019D01*
X126579935Y-80744266D01*
X126586795Y-80725093D01*
X126595501Y-80706685D01*
X126605970Y-80689219D01*
X126618100Y-80672863D01*
X126631775Y-80657775D01*
X126646863Y-80644100D01*
X126663219Y-80631970D01*
X126680685Y-80621501D01*
X126699093Y-80612795D01*
X126718266Y-80605935D01*
X126738019Y-80600987D01*
X126758161Y-80597999D01*
X126778500Y-80597000D01*
X127193500Y-80597000D01*
X127213839Y-80597999D01*
X127213839Y-80597999D01*
G37*
D22*
X126986000Y-81012000D03*
D10*
G36*
X127213839Y-81627999D02*
G01*
X127233981Y-81630987D01*
X127253734Y-81635935D01*
X127272907Y-81642795D01*
X127291315Y-81651501D01*
X127308781Y-81661970D01*
X127325137Y-81674100D01*
X127340225Y-81687775D01*
X127353900Y-81702863D01*
X127366030Y-81719219D01*
X127376499Y-81736685D01*
X127385205Y-81755093D01*
X127392065Y-81774266D01*
X127397013Y-81794019D01*
X127400001Y-81814161D01*
X127401000Y-81834500D01*
X127401000Y-82249500D01*
X127400001Y-82269839D01*
X127397013Y-82289981D01*
X127392065Y-82309734D01*
X127385205Y-82328907D01*
X127376499Y-82347315D01*
X127366030Y-82364781D01*
X127353900Y-82381137D01*
X127340225Y-82396225D01*
X127325137Y-82409900D01*
X127308781Y-82422030D01*
X127291315Y-82432499D01*
X127272907Y-82441205D01*
X127253734Y-82448065D01*
X127233981Y-82453013D01*
X127213839Y-82456001D01*
X127193500Y-82457000D01*
X126778500Y-82457000D01*
X126758161Y-82456001D01*
X126738019Y-82453013D01*
X126718266Y-82448065D01*
X126699093Y-82441205D01*
X126680685Y-82432499D01*
X126663219Y-82422030D01*
X126646863Y-82409900D01*
X126631775Y-82396225D01*
X126618100Y-82381137D01*
X126605970Y-82364781D01*
X126595501Y-82347315D01*
X126586795Y-82328907D01*
X126579935Y-82309734D01*
X126574987Y-82289981D01*
X126571999Y-82269839D01*
X126571000Y-82249500D01*
X126571000Y-81834500D01*
X126571999Y-81814161D01*
X126574987Y-81794019D01*
X126579935Y-81774266D01*
X126586795Y-81755093D01*
X126595501Y-81736685D01*
X126605970Y-81719219D01*
X126618100Y-81702863D01*
X126631775Y-81687775D01*
X126646863Y-81674100D01*
X126663219Y-81661970D01*
X126680685Y-81651501D01*
X126699093Y-81642795D01*
X126718266Y-81635935D01*
X126738019Y-81630987D01*
X126758161Y-81627999D01*
X126778500Y-81627000D01*
X127193500Y-81627000D01*
X127213839Y-81627999D01*
X127213839Y-81627999D01*
G37*
D22*
X126986000Y-82042000D03*
D10*
G36*
X127213839Y-82657999D02*
G01*
X127233981Y-82660987D01*
X127253734Y-82665935D01*
X127272907Y-82672795D01*
X127291315Y-82681501D01*
X127308781Y-82691970D01*
X127325137Y-82704100D01*
X127340225Y-82717775D01*
X127353900Y-82732863D01*
X127366030Y-82749219D01*
X127376499Y-82766685D01*
X127385205Y-82785093D01*
X127392065Y-82804266D01*
X127397013Y-82824019D01*
X127400001Y-82844161D01*
X127401000Y-82864500D01*
X127401000Y-83279500D01*
X127400001Y-83299839D01*
X127397013Y-83319981D01*
X127392065Y-83339734D01*
X127385205Y-83358907D01*
X127376499Y-83377315D01*
X127366030Y-83394781D01*
X127353900Y-83411137D01*
X127340225Y-83426225D01*
X127325137Y-83439900D01*
X127308781Y-83452030D01*
X127291315Y-83462499D01*
X127272907Y-83471205D01*
X127253734Y-83478065D01*
X127233981Y-83483013D01*
X127213839Y-83486001D01*
X127193500Y-83487000D01*
X126778500Y-83487000D01*
X126758161Y-83486001D01*
X126738019Y-83483013D01*
X126718266Y-83478065D01*
X126699093Y-83471205D01*
X126680685Y-83462499D01*
X126663219Y-83452030D01*
X126646863Y-83439900D01*
X126631775Y-83426225D01*
X126618100Y-83411137D01*
X126605970Y-83394781D01*
X126595501Y-83377315D01*
X126586795Y-83358907D01*
X126579935Y-83339734D01*
X126574987Y-83319981D01*
X126571999Y-83299839D01*
X126571000Y-83279500D01*
X126571000Y-82864500D01*
X126571999Y-82844161D01*
X126574987Y-82824019D01*
X126579935Y-82804266D01*
X126586795Y-82785093D01*
X126595501Y-82766685D01*
X126605970Y-82749219D01*
X126618100Y-82732863D01*
X126631775Y-82717775D01*
X126646863Y-82704100D01*
X126663219Y-82691970D01*
X126680685Y-82681501D01*
X126699093Y-82672795D01*
X126718266Y-82665935D01*
X126738019Y-82660987D01*
X126758161Y-82657999D01*
X126778500Y-82657000D01*
X127193500Y-82657000D01*
X127213839Y-82657999D01*
X127213839Y-82657999D01*
G37*
D22*
X126986000Y-83072000D03*
D10*
G36*
X128243839Y-80597999D02*
G01*
X128263981Y-80600987D01*
X128283734Y-80605935D01*
X128302907Y-80612795D01*
X128321315Y-80621501D01*
X128338781Y-80631970D01*
X128355137Y-80644100D01*
X128370225Y-80657775D01*
X128383900Y-80672863D01*
X128396030Y-80689219D01*
X128406499Y-80706685D01*
X128415205Y-80725093D01*
X128422065Y-80744266D01*
X128427013Y-80764019D01*
X128430001Y-80784161D01*
X128431000Y-80804500D01*
X128431000Y-81219500D01*
X128430001Y-81239839D01*
X128427013Y-81259981D01*
X128422065Y-81279734D01*
X128415205Y-81298907D01*
X128406499Y-81317315D01*
X128396030Y-81334781D01*
X128383900Y-81351137D01*
X128370225Y-81366225D01*
X128355137Y-81379900D01*
X128338781Y-81392030D01*
X128321315Y-81402499D01*
X128302907Y-81411205D01*
X128283734Y-81418065D01*
X128263981Y-81423013D01*
X128243839Y-81426001D01*
X128223500Y-81427000D01*
X127808500Y-81427000D01*
X127788161Y-81426001D01*
X127768019Y-81423013D01*
X127748266Y-81418065D01*
X127729093Y-81411205D01*
X127710685Y-81402499D01*
X127693219Y-81392030D01*
X127676863Y-81379900D01*
X127661775Y-81366225D01*
X127648100Y-81351137D01*
X127635970Y-81334781D01*
X127625501Y-81317315D01*
X127616795Y-81298907D01*
X127609935Y-81279734D01*
X127604987Y-81259981D01*
X127601999Y-81239839D01*
X127601000Y-81219500D01*
X127601000Y-80804500D01*
X127601999Y-80784161D01*
X127604987Y-80764019D01*
X127609935Y-80744266D01*
X127616795Y-80725093D01*
X127625501Y-80706685D01*
X127635970Y-80689219D01*
X127648100Y-80672863D01*
X127661775Y-80657775D01*
X127676863Y-80644100D01*
X127693219Y-80631970D01*
X127710685Y-80621501D01*
X127729093Y-80612795D01*
X127748266Y-80605935D01*
X127768019Y-80600987D01*
X127788161Y-80597999D01*
X127808500Y-80597000D01*
X128223500Y-80597000D01*
X128243839Y-80597999D01*
X128243839Y-80597999D01*
G37*
D22*
X128016000Y-81012000D03*
D10*
G36*
X128243839Y-81627999D02*
G01*
X128263981Y-81630987D01*
X128283734Y-81635935D01*
X128302907Y-81642795D01*
X128321315Y-81651501D01*
X128338781Y-81661970D01*
X128355137Y-81674100D01*
X128370225Y-81687775D01*
X128383900Y-81702863D01*
X128396030Y-81719219D01*
X128406499Y-81736685D01*
X128415205Y-81755093D01*
X128422065Y-81774266D01*
X128427013Y-81794019D01*
X128430001Y-81814161D01*
X128431000Y-81834500D01*
X128431000Y-82249500D01*
X128430001Y-82269839D01*
X128427013Y-82289981D01*
X128422065Y-82309734D01*
X128415205Y-82328907D01*
X128406499Y-82347315D01*
X128396030Y-82364781D01*
X128383900Y-82381137D01*
X128370225Y-82396225D01*
X128355137Y-82409900D01*
X128338781Y-82422030D01*
X128321315Y-82432499D01*
X128302907Y-82441205D01*
X128283734Y-82448065D01*
X128263981Y-82453013D01*
X128243839Y-82456001D01*
X128223500Y-82457000D01*
X127808500Y-82457000D01*
X127788161Y-82456001D01*
X127768019Y-82453013D01*
X127748266Y-82448065D01*
X127729093Y-82441205D01*
X127710685Y-82432499D01*
X127693219Y-82422030D01*
X127676863Y-82409900D01*
X127661775Y-82396225D01*
X127648100Y-82381137D01*
X127635970Y-82364781D01*
X127625501Y-82347315D01*
X127616795Y-82328907D01*
X127609935Y-82309734D01*
X127604987Y-82289981D01*
X127601999Y-82269839D01*
X127601000Y-82249500D01*
X127601000Y-81834500D01*
X127601999Y-81814161D01*
X127604987Y-81794019D01*
X127609935Y-81774266D01*
X127616795Y-81755093D01*
X127625501Y-81736685D01*
X127635970Y-81719219D01*
X127648100Y-81702863D01*
X127661775Y-81687775D01*
X127676863Y-81674100D01*
X127693219Y-81661970D01*
X127710685Y-81651501D01*
X127729093Y-81642795D01*
X127748266Y-81635935D01*
X127768019Y-81630987D01*
X127788161Y-81627999D01*
X127808500Y-81627000D01*
X128223500Y-81627000D01*
X128243839Y-81627999D01*
X128243839Y-81627999D01*
G37*
D22*
X128016000Y-82042000D03*
D10*
G36*
X128243839Y-82657999D02*
G01*
X128263981Y-82660987D01*
X128283734Y-82665935D01*
X128302907Y-82672795D01*
X128321315Y-82681501D01*
X128338781Y-82691970D01*
X128355137Y-82704100D01*
X128370225Y-82717775D01*
X128383900Y-82732863D01*
X128396030Y-82749219D01*
X128406499Y-82766685D01*
X128415205Y-82785093D01*
X128422065Y-82804266D01*
X128427013Y-82824019D01*
X128430001Y-82844161D01*
X128431000Y-82864500D01*
X128431000Y-83279500D01*
X128430001Y-83299839D01*
X128427013Y-83319981D01*
X128422065Y-83339734D01*
X128415205Y-83358907D01*
X128406499Y-83377315D01*
X128396030Y-83394781D01*
X128383900Y-83411137D01*
X128370225Y-83426225D01*
X128355137Y-83439900D01*
X128338781Y-83452030D01*
X128321315Y-83462499D01*
X128302907Y-83471205D01*
X128283734Y-83478065D01*
X128263981Y-83483013D01*
X128243839Y-83486001D01*
X128223500Y-83487000D01*
X127808500Y-83487000D01*
X127788161Y-83486001D01*
X127768019Y-83483013D01*
X127748266Y-83478065D01*
X127729093Y-83471205D01*
X127710685Y-83462499D01*
X127693219Y-83452030D01*
X127676863Y-83439900D01*
X127661775Y-83426225D01*
X127648100Y-83411137D01*
X127635970Y-83394781D01*
X127625501Y-83377315D01*
X127616795Y-83358907D01*
X127609935Y-83339734D01*
X127604987Y-83319981D01*
X127601999Y-83299839D01*
X127601000Y-83279500D01*
X127601000Y-82864500D01*
X127601999Y-82844161D01*
X127604987Y-82824019D01*
X127609935Y-82804266D01*
X127616795Y-82785093D01*
X127625501Y-82766685D01*
X127635970Y-82749219D01*
X127648100Y-82732863D01*
X127661775Y-82717775D01*
X127676863Y-82704100D01*
X127693219Y-82691970D01*
X127710685Y-82681501D01*
X127729093Y-82672795D01*
X127748266Y-82665935D01*
X127768019Y-82660987D01*
X127788161Y-82657999D01*
X127808500Y-82657000D01*
X128223500Y-82657000D01*
X128243839Y-82657999D01*
X128243839Y-82657999D01*
G37*
D22*
X128016000Y-83072000D03*
D10*
G36*
X129273839Y-80597999D02*
G01*
X129293981Y-80600987D01*
X129313734Y-80605935D01*
X129332907Y-80612795D01*
X129351315Y-80621501D01*
X129368781Y-80631970D01*
X129385137Y-80644100D01*
X129400225Y-80657775D01*
X129413900Y-80672863D01*
X129426030Y-80689219D01*
X129436499Y-80706685D01*
X129445205Y-80725093D01*
X129452065Y-80744266D01*
X129457013Y-80764019D01*
X129460001Y-80784161D01*
X129461000Y-80804500D01*
X129461000Y-81219500D01*
X129460001Y-81239839D01*
X129457013Y-81259981D01*
X129452065Y-81279734D01*
X129445205Y-81298907D01*
X129436499Y-81317315D01*
X129426030Y-81334781D01*
X129413900Y-81351137D01*
X129400225Y-81366225D01*
X129385137Y-81379900D01*
X129368781Y-81392030D01*
X129351315Y-81402499D01*
X129332907Y-81411205D01*
X129313734Y-81418065D01*
X129293981Y-81423013D01*
X129273839Y-81426001D01*
X129253500Y-81427000D01*
X128838500Y-81427000D01*
X128818161Y-81426001D01*
X128798019Y-81423013D01*
X128778266Y-81418065D01*
X128759093Y-81411205D01*
X128740685Y-81402499D01*
X128723219Y-81392030D01*
X128706863Y-81379900D01*
X128691775Y-81366225D01*
X128678100Y-81351137D01*
X128665970Y-81334781D01*
X128655501Y-81317315D01*
X128646795Y-81298907D01*
X128639935Y-81279734D01*
X128634987Y-81259981D01*
X128631999Y-81239839D01*
X128631000Y-81219500D01*
X128631000Y-80804500D01*
X128631999Y-80784161D01*
X128634987Y-80764019D01*
X128639935Y-80744266D01*
X128646795Y-80725093D01*
X128655501Y-80706685D01*
X128665970Y-80689219D01*
X128678100Y-80672863D01*
X128691775Y-80657775D01*
X128706863Y-80644100D01*
X128723219Y-80631970D01*
X128740685Y-80621501D01*
X128759093Y-80612795D01*
X128778266Y-80605935D01*
X128798019Y-80600987D01*
X128818161Y-80597999D01*
X128838500Y-80597000D01*
X129253500Y-80597000D01*
X129273839Y-80597999D01*
X129273839Y-80597999D01*
G37*
D22*
X129046000Y-81012000D03*
D10*
G36*
X129273839Y-81627999D02*
G01*
X129293981Y-81630987D01*
X129313734Y-81635935D01*
X129332907Y-81642795D01*
X129351315Y-81651501D01*
X129368781Y-81661970D01*
X129385137Y-81674100D01*
X129400225Y-81687775D01*
X129413900Y-81702863D01*
X129426030Y-81719219D01*
X129436499Y-81736685D01*
X129445205Y-81755093D01*
X129452065Y-81774266D01*
X129457013Y-81794019D01*
X129460001Y-81814161D01*
X129461000Y-81834500D01*
X129461000Y-82249500D01*
X129460001Y-82269839D01*
X129457013Y-82289981D01*
X129452065Y-82309734D01*
X129445205Y-82328907D01*
X129436499Y-82347315D01*
X129426030Y-82364781D01*
X129413900Y-82381137D01*
X129400225Y-82396225D01*
X129385137Y-82409900D01*
X129368781Y-82422030D01*
X129351315Y-82432499D01*
X129332907Y-82441205D01*
X129313734Y-82448065D01*
X129293981Y-82453013D01*
X129273839Y-82456001D01*
X129253500Y-82457000D01*
X128838500Y-82457000D01*
X128818161Y-82456001D01*
X128798019Y-82453013D01*
X128778266Y-82448065D01*
X128759093Y-82441205D01*
X128740685Y-82432499D01*
X128723219Y-82422030D01*
X128706863Y-82409900D01*
X128691775Y-82396225D01*
X128678100Y-82381137D01*
X128665970Y-82364781D01*
X128655501Y-82347315D01*
X128646795Y-82328907D01*
X128639935Y-82309734D01*
X128634987Y-82289981D01*
X128631999Y-82269839D01*
X128631000Y-82249500D01*
X128631000Y-81834500D01*
X128631999Y-81814161D01*
X128634987Y-81794019D01*
X128639935Y-81774266D01*
X128646795Y-81755093D01*
X128655501Y-81736685D01*
X128665970Y-81719219D01*
X128678100Y-81702863D01*
X128691775Y-81687775D01*
X128706863Y-81674100D01*
X128723219Y-81661970D01*
X128740685Y-81651501D01*
X128759093Y-81642795D01*
X128778266Y-81635935D01*
X128798019Y-81630987D01*
X128818161Y-81627999D01*
X128838500Y-81627000D01*
X129253500Y-81627000D01*
X129273839Y-81627999D01*
X129273839Y-81627999D01*
G37*
D22*
X129046000Y-82042000D03*
D10*
G36*
X129273839Y-82657999D02*
G01*
X129293981Y-82660987D01*
X129313734Y-82665935D01*
X129332907Y-82672795D01*
X129351315Y-82681501D01*
X129368781Y-82691970D01*
X129385137Y-82704100D01*
X129400225Y-82717775D01*
X129413900Y-82732863D01*
X129426030Y-82749219D01*
X129436499Y-82766685D01*
X129445205Y-82785093D01*
X129452065Y-82804266D01*
X129457013Y-82824019D01*
X129460001Y-82844161D01*
X129461000Y-82864500D01*
X129461000Y-83279500D01*
X129460001Y-83299839D01*
X129457013Y-83319981D01*
X129452065Y-83339734D01*
X129445205Y-83358907D01*
X129436499Y-83377315D01*
X129426030Y-83394781D01*
X129413900Y-83411137D01*
X129400225Y-83426225D01*
X129385137Y-83439900D01*
X129368781Y-83452030D01*
X129351315Y-83462499D01*
X129332907Y-83471205D01*
X129313734Y-83478065D01*
X129293981Y-83483013D01*
X129273839Y-83486001D01*
X129253500Y-83487000D01*
X128838500Y-83487000D01*
X128818161Y-83486001D01*
X128798019Y-83483013D01*
X128778266Y-83478065D01*
X128759093Y-83471205D01*
X128740685Y-83462499D01*
X128723219Y-83452030D01*
X128706863Y-83439900D01*
X128691775Y-83426225D01*
X128678100Y-83411137D01*
X128665970Y-83394781D01*
X128655501Y-83377315D01*
X128646795Y-83358907D01*
X128639935Y-83339734D01*
X128634987Y-83319981D01*
X128631999Y-83299839D01*
X128631000Y-83279500D01*
X128631000Y-82864500D01*
X128631999Y-82844161D01*
X128634987Y-82824019D01*
X128639935Y-82804266D01*
X128646795Y-82785093D01*
X128655501Y-82766685D01*
X128665970Y-82749219D01*
X128678100Y-82732863D01*
X128691775Y-82717775D01*
X128706863Y-82704100D01*
X128723219Y-82691970D01*
X128740685Y-82681501D01*
X128759093Y-82672795D01*
X128778266Y-82665935D01*
X128798019Y-82660987D01*
X128818161Y-82657999D01*
X128838500Y-82657000D01*
X129253500Y-82657000D01*
X129273839Y-82657999D01*
X129273839Y-82657999D01*
G37*
D22*
X129046000Y-83072000D03*
D10*
G36*
X125959626Y-80167301D02*
G01*
X125965693Y-80168201D01*
X125971643Y-80169691D01*
X125977418Y-80171758D01*
X125982962Y-80174380D01*
X125988223Y-80177533D01*
X125993150Y-80181187D01*
X125997694Y-80185306D01*
X126001813Y-80189850D01*
X126005467Y-80194777D01*
X126008620Y-80200038D01*
X126011242Y-80205582D01*
X126013309Y-80211357D01*
X126014799Y-80217307D01*
X126015699Y-80223374D01*
X126016000Y-80229500D01*
X126016000Y-80354500D01*
X126015699Y-80360626D01*
X126014799Y-80366693D01*
X126013309Y-80372643D01*
X126011242Y-80378418D01*
X126008620Y-80383962D01*
X126005467Y-80389223D01*
X126001813Y-80394150D01*
X125997694Y-80398694D01*
X125993150Y-80402813D01*
X125988223Y-80406467D01*
X125982962Y-80409620D01*
X125977418Y-80412242D01*
X125971643Y-80414309D01*
X125965693Y-80415799D01*
X125959626Y-80416699D01*
X125953500Y-80417000D01*
X125203500Y-80417000D01*
X125197374Y-80416699D01*
X125191307Y-80415799D01*
X125185357Y-80414309D01*
X125179582Y-80412242D01*
X125174038Y-80409620D01*
X125168777Y-80406467D01*
X125163850Y-80402813D01*
X125159306Y-80398694D01*
X125155187Y-80394150D01*
X125151533Y-80389223D01*
X125148380Y-80383962D01*
X125145758Y-80378418D01*
X125143691Y-80372643D01*
X125142201Y-80366693D01*
X125141301Y-80360626D01*
X125141000Y-80354500D01*
X125141000Y-80229500D01*
X125141301Y-80223374D01*
X125142201Y-80217307D01*
X125143691Y-80211357D01*
X125145758Y-80205582D01*
X125148380Y-80200038D01*
X125151533Y-80194777D01*
X125155187Y-80189850D01*
X125159306Y-80185306D01*
X125163850Y-80181187D01*
X125168777Y-80177533D01*
X125174038Y-80174380D01*
X125179582Y-80171758D01*
X125185357Y-80169691D01*
X125191307Y-80168201D01*
X125197374Y-80167301D01*
X125203500Y-80167000D01*
X125953500Y-80167000D01*
X125959626Y-80167301D01*
X125959626Y-80167301D01*
G37*
D20*
X125578500Y-80292000D03*
D10*
G36*
X125959626Y-80667301D02*
G01*
X125965693Y-80668201D01*
X125971643Y-80669691D01*
X125977418Y-80671758D01*
X125982962Y-80674380D01*
X125988223Y-80677533D01*
X125993150Y-80681187D01*
X125997694Y-80685306D01*
X126001813Y-80689850D01*
X126005467Y-80694777D01*
X126008620Y-80700038D01*
X126011242Y-80705582D01*
X126013309Y-80711357D01*
X126014799Y-80717307D01*
X126015699Y-80723374D01*
X126016000Y-80729500D01*
X126016000Y-80854500D01*
X126015699Y-80860626D01*
X126014799Y-80866693D01*
X126013309Y-80872643D01*
X126011242Y-80878418D01*
X126008620Y-80883962D01*
X126005467Y-80889223D01*
X126001813Y-80894150D01*
X125997694Y-80898694D01*
X125993150Y-80902813D01*
X125988223Y-80906467D01*
X125982962Y-80909620D01*
X125977418Y-80912242D01*
X125971643Y-80914309D01*
X125965693Y-80915799D01*
X125959626Y-80916699D01*
X125953500Y-80917000D01*
X125203500Y-80917000D01*
X125197374Y-80916699D01*
X125191307Y-80915799D01*
X125185357Y-80914309D01*
X125179582Y-80912242D01*
X125174038Y-80909620D01*
X125168777Y-80906467D01*
X125163850Y-80902813D01*
X125159306Y-80898694D01*
X125155187Y-80894150D01*
X125151533Y-80889223D01*
X125148380Y-80883962D01*
X125145758Y-80878418D01*
X125143691Y-80872643D01*
X125142201Y-80866693D01*
X125141301Y-80860626D01*
X125141000Y-80854500D01*
X125141000Y-80729500D01*
X125141301Y-80723374D01*
X125142201Y-80717307D01*
X125143691Y-80711357D01*
X125145758Y-80705582D01*
X125148380Y-80700038D01*
X125151533Y-80694777D01*
X125155187Y-80689850D01*
X125159306Y-80685306D01*
X125163850Y-80681187D01*
X125168777Y-80677533D01*
X125174038Y-80674380D01*
X125179582Y-80671758D01*
X125185357Y-80669691D01*
X125191307Y-80668201D01*
X125197374Y-80667301D01*
X125203500Y-80667000D01*
X125953500Y-80667000D01*
X125959626Y-80667301D01*
X125959626Y-80667301D01*
G37*
D20*
X125578500Y-80792000D03*
D10*
G36*
X125959626Y-81167301D02*
G01*
X125965693Y-81168201D01*
X125971643Y-81169691D01*
X125977418Y-81171758D01*
X125982962Y-81174380D01*
X125988223Y-81177533D01*
X125993150Y-81181187D01*
X125997694Y-81185306D01*
X126001813Y-81189850D01*
X126005467Y-81194777D01*
X126008620Y-81200038D01*
X126011242Y-81205582D01*
X126013309Y-81211357D01*
X126014799Y-81217307D01*
X126015699Y-81223374D01*
X126016000Y-81229500D01*
X126016000Y-81354500D01*
X126015699Y-81360626D01*
X126014799Y-81366693D01*
X126013309Y-81372643D01*
X126011242Y-81378418D01*
X126008620Y-81383962D01*
X126005467Y-81389223D01*
X126001813Y-81394150D01*
X125997694Y-81398694D01*
X125993150Y-81402813D01*
X125988223Y-81406467D01*
X125982962Y-81409620D01*
X125977418Y-81412242D01*
X125971643Y-81414309D01*
X125965693Y-81415799D01*
X125959626Y-81416699D01*
X125953500Y-81417000D01*
X125203500Y-81417000D01*
X125197374Y-81416699D01*
X125191307Y-81415799D01*
X125185357Y-81414309D01*
X125179582Y-81412242D01*
X125174038Y-81409620D01*
X125168777Y-81406467D01*
X125163850Y-81402813D01*
X125159306Y-81398694D01*
X125155187Y-81394150D01*
X125151533Y-81389223D01*
X125148380Y-81383962D01*
X125145758Y-81378418D01*
X125143691Y-81372643D01*
X125142201Y-81366693D01*
X125141301Y-81360626D01*
X125141000Y-81354500D01*
X125141000Y-81229500D01*
X125141301Y-81223374D01*
X125142201Y-81217307D01*
X125143691Y-81211357D01*
X125145758Y-81205582D01*
X125148380Y-81200038D01*
X125151533Y-81194777D01*
X125155187Y-81189850D01*
X125159306Y-81185306D01*
X125163850Y-81181187D01*
X125168777Y-81177533D01*
X125174038Y-81174380D01*
X125179582Y-81171758D01*
X125185357Y-81169691D01*
X125191307Y-81168201D01*
X125197374Y-81167301D01*
X125203500Y-81167000D01*
X125953500Y-81167000D01*
X125959626Y-81167301D01*
X125959626Y-81167301D01*
G37*
D20*
X125578500Y-81292000D03*
D10*
G36*
X125959626Y-81667301D02*
G01*
X125965693Y-81668201D01*
X125971643Y-81669691D01*
X125977418Y-81671758D01*
X125982962Y-81674380D01*
X125988223Y-81677533D01*
X125993150Y-81681187D01*
X125997694Y-81685306D01*
X126001813Y-81689850D01*
X126005467Y-81694777D01*
X126008620Y-81700038D01*
X126011242Y-81705582D01*
X126013309Y-81711357D01*
X126014799Y-81717307D01*
X126015699Y-81723374D01*
X126016000Y-81729500D01*
X126016000Y-81854500D01*
X126015699Y-81860626D01*
X126014799Y-81866693D01*
X126013309Y-81872643D01*
X126011242Y-81878418D01*
X126008620Y-81883962D01*
X126005467Y-81889223D01*
X126001813Y-81894150D01*
X125997694Y-81898694D01*
X125993150Y-81902813D01*
X125988223Y-81906467D01*
X125982962Y-81909620D01*
X125977418Y-81912242D01*
X125971643Y-81914309D01*
X125965693Y-81915799D01*
X125959626Y-81916699D01*
X125953500Y-81917000D01*
X125203500Y-81917000D01*
X125197374Y-81916699D01*
X125191307Y-81915799D01*
X125185357Y-81914309D01*
X125179582Y-81912242D01*
X125174038Y-81909620D01*
X125168777Y-81906467D01*
X125163850Y-81902813D01*
X125159306Y-81898694D01*
X125155187Y-81894150D01*
X125151533Y-81889223D01*
X125148380Y-81883962D01*
X125145758Y-81878418D01*
X125143691Y-81872643D01*
X125142201Y-81866693D01*
X125141301Y-81860626D01*
X125141000Y-81854500D01*
X125141000Y-81729500D01*
X125141301Y-81723374D01*
X125142201Y-81717307D01*
X125143691Y-81711357D01*
X125145758Y-81705582D01*
X125148380Y-81700038D01*
X125151533Y-81694777D01*
X125155187Y-81689850D01*
X125159306Y-81685306D01*
X125163850Y-81681187D01*
X125168777Y-81677533D01*
X125174038Y-81674380D01*
X125179582Y-81671758D01*
X125185357Y-81669691D01*
X125191307Y-81668201D01*
X125197374Y-81667301D01*
X125203500Y-81667000D01*
X125953500Y-81667000D01*
X125959626Y-81667301D01*
X125959626Y-81667301D01*
G37*
D20*
X125578500Y-81792000D03*
D10*
G36*
X125959626Y-82167301D02*
G01*
X125965693Y-82168201D01*
X125971643Y-82169691D01*
X125977418Y-82171758D01*
X125982962Y-82174380D01*
X125988223Y-82177533D01*
X125993150Y-82181187D01*
X125997694Y-82185306D01*
X126001813Y-82189850D01*
X126005467Y-82194777D01*
X126008620Y-82200038D01*
X126011242Y-82205582D01*
X126013309Y-82211357D01*
X126014799Y-82217307D01*
X126015699Y-82223374D01*
X126016000Y-82229500D01*
X126016000Y-82354500D01*
X126015699Y-82360626D01*
X126014799Y-82366693D01*
X126013309Y-82372643D01*
X126011242Y-82378418D01*
X126008620Y-82383962D01*
X126005467Y-82389223D01*
X126001813Y-82394150D01*
X125997694Y-82398694D01*
X125993150Y-82402813D01*
X125988223Y-82406467D01*
X125982962Y-82409620D01*
X125977418Y-82412242D01*
X125971643Y-82414309D01*
X125965693Y-82415799D01*
X125959626Y-82416699D01*
X125953500Y-82417000D01*
X125203500Y-82417000D01*
X125197374Y-82416699D01*
X125191307Y-82415799D01*
X125185357Y-82414309D01*
X125179582Y-82412242D01*
X125174038Y-82409620D01*
X125168777Y-82406467D01*
X125163850Y-82402813D01*
X125159306Y-82398694D01*
X125155187Y-82394150D01*
X125151533Y-82389223D01*
X125148380Y-82383962D01*
X125145758Y-82378418D01*
X125143691Y-82372643D01*
X125142201Y-82366693D01*
X125141301Y-82360626D01*
X125141000Y-82354500D01*
X125141000Y-82229500D01*
X125141301Y-82223374D01*
X125142201Y-82217307D01*
X125143691Y-82211357D01*
X125145758Y-82205582D01*
X125148380Y-82200038D01*
X125151533Y-82194777D01*
X125155187Y-82189850D01*
X125159306Y-82185306D01*
X125163850Y-82181187D01*
X125168777Y-82177533D01*
X125174038Y-82174380D01*
X125179582Y-82171758D01*
X125185357Y-82169691D01*
X125191307Y-82168201D01*
X125197374Y-82167301D01*
X125203500Y-82167000D01*
X125953500Y-82167000D01*
X125959626Y-82167301D01*
X125959626Y-82167301D01*
G37*
D20*
X125578500Y-82292000D03*
D10*
G36*
X125959626Y-82667301D02*
G01*
X125965693Y-82668201D01*
X125971643Y-82669691D01*
X125977418Y-82671758D01*
X125982962Y-82674380D01*
X125988223Y-82677533D01*
X125993150Y-82681187D01*
X125997694Y-82685306D01*
X126001813Y-82689850D01*
X126005467Y-82694777D01*
X126008620Y-82700038D01*
X126011242Y-82705582D01*
X126013309Y-82711357D01*
X126014799Y-82717307D01*
X126015699Y-82723374D01*
X126016000Y-82729500D01*
X126016000Y-82854500D01*
X126015699Y-82860626D01*
X126014799Y-82866693D01*
X126013309Y-82872643D01*
X126011242Y-82878418D01*
X126008620Y-82883962D01*
X126005467Y-82889223D01*
X126001813Y-82894150D01*
X125997694Y-82898694D01*
X125993150Y-82902813D01*
X125988223Y-82906467D01*
X125982962Y-82909620D01*
X125977418Y-82912242D01*
X125971643Y-82914309D01*
X125965693Y-82915799D01*
X125959626Y-82916699D01*
X125953500Y-82917000D01*
X125203500Y-82917000D01*
X125197374Y-82916699D01*
X125191307Y-82915799D01*
X125185357Y-82914309D01*
X125179582Y-82912242D01*
X125174038Y-82909620D01*
X125168777Y-82906467D01*
X125163850Y-82902813D01*
X125159306Y-82898694D01*
X125155187Y-82894150D01*
X125151533Y-82889223D01*
X125148380Y-82883962D01*
X125145758Y-82878418D01*
X125143691Y-82872643D01*
X125142201Y-82866693D01*
X125141301Y-82860626D01*
X125141000Y-82854500D01*
X125141000Y-82729500D01*
X125141301Y-82723374D01*
X125142201Y-82717307D01*
X125143691Y-82711357D01*
X125145758Y-82705582D01*
X125148380Y-82700038D01*
X125151533Y-82694777D01*
X125155187Y-82689850D01*
X125159306Y-82685306D01*
X125163850Y-82681187D01*
X125168777Y-82677533D01*
X125174038Y-82674380D01*
X125179582Y-82671758D01*
X125185357Y-82669691D01*
X125191307Y-82668201D01*
X125197374Y-82667301D01*
X125203500Y-82667000D01*
X125953500Y-82667000D01*
X125959626Y-82667301D01*
X125959626Y-82667301D01*
G37*
D20*
X125578500Y-82792000D03*
D10*
G36*
X125959626Y-83167301D02*
G01*
X125965693Y-83168201D01*
X125971643Y-83169691D01*
X125977418Y-83171758D01*
X125982962Y-83174380D01*
X125988223Y-83177533D01*
X125993150Y-83181187D01*
X125997694Y-83185306D01*
X126001813Y-83189850D01*
X126005467Y-83194777D01*
X126008620Y-83200038D01*
X126011242Y-83205582D01*
X126013309Y-83211357D01*
X126014799Y-83217307D01*
X126015699Y-83223374D01*
X126016000Y-83229500D01*
X126016000Y-83354500D01*
X126015699Y-83360626D01*
X126014799Y-83366693D01*
X126013309Y-83372643D01*
X126011242Y-83378418D01*
X126008620Y-83383962D01*
X126005467Y-83389223D01*
X126001813Y-83394150D01*
X125997694Y-83398694D01*
X125993150Y-83402813D01*
X125988223Y-83406467D01*
X125982962Y-83409620D01*
X125977418Y-83412242D01*
X125971643Y-83414309D01*
X125965693Y-83415799D01*
X125959626Y-83416699D01*
X125953500Y-83417000D01*
X125203500Y-83417000D01*
X125197374Y-83416699D01*
X125191307Y-83415799D01*
X125185357Y-83414309D01*
X125179582Y-83412242D01*
X125174038Y-83409620D01*
X125168777Y-83406467D01*
X125163850Y-83402813D01*
X125159306Y-83398694D01*
X125155187Y-83394150D01*
X125151533Y-83389223D01*
X125148380Y-83383962D01*
X125145758Y-83378418D01*
X125143691Y-83372643D01*
X125142201Y-83366693D01*
X125141301Y-83360626D01*
X125141000Y-83354500D01*
X125141000Y-83229500D01*
X125141301Y-83223374D01*
X125142201Y-83217307D01*
X125143691Y-83211357D01*
X125145758Y-83205582D01*
X125148380Y-83200038D01*
X125151533Y-83194777D01*
X125155187Y-83189850D01*
X125159306Y-83185306D01*
X125163850Y-83181187D01*
X125168777Y-83177533D01*
X125174038Y-83174380D01*
X125179582Y-83171758D01*
X125185357Y-83169691D01*
X125191307Y-83168201D01*
X125197374Y-83167301D01*
X125203500Y-83167000D01*
X125953500Y-83167000D01*
X125959626Y-83167301D01*
X125959626Y-83167301D01*
G37*
D20*
X125578500Y-83292000D03*
D10*
G36*
X125959626Y-83667301D02*
G01*
X125965693Y-83668201D01*
X125971643Y-83669691D01*
X125977418Y-83671758D01*
X125982962Y-83674380D01*
X125988223Y-83677533D01*
X125993150Y-83681187D01*
X125997694Y-83685306D01*
X126001813Y-83689850D01*
X126005467Y-83694777D01*
X126008620Y-83700038D01*
X126011242Y-83705582D01*
X126013309Y-83711357D01*
X126014799Y-83717307D01*
X126015699Y-83723374D01*
X126016000Y-83729500D01*
X126016000Y-83854500D01*
X126015699Y-83860626D01*
X126014799Y-83866693D01*
X126013309Y-83872643D01*
X126011242Y-83878418D01*
X126008620Y-83883962D01*
X126005467Y-83889223D01*
X126001813Y-83894150D01*
X125997694Y-83898694D01*
X125993150Y-83902813D01*
X125988223Y-83906467D01*
X125982962Y-83909620D01*
X125977418Y-83912242D01*
X125971643Y-83914309D01*
X125965693Y-83915799D01*
X125959626Y-83916699D01*
X125953500Y-83917000D01*
X125203500Y-83917000D01*
X125197374Y-83916699D01*
X125191307Y-83915799D01*
X125185357Y-83914309D01*
X125179582Y-83912242D01*
X125174038Y-83909620D01*
X125168777Y-83906467D01*
X125163850Y-83902813D01*
X125159306Y-83898694D01*
X125155187Y-83894150D01*
X125151533Y-83889223D01*
X125148380Y-83883962D01*
X125145758Y-83878418D01*
X125143691Y-83872643D01*
X125142201Y-83866693D01*
X125141301Y-83860626D01*
X125141000Y-83854500D01*
X125141000Y-83729500D01*
X125141301Y-83723374D01*
X125142201Y-83717307D01*
X125143691Y-83711357D01*
X125145758Y-83705582D01*
X125148380Y-83700038D01*
X125151533Y-83694777D01*
X125155187Y-83689850D01*
X125159306Y-83685306D01*
X125163850Y-83681187D01*
X125168777Y-83677533D01*
X125174038Y-83674380D01*
X125179582Y-83671758D01*
X125185357Y-83669691D01*
X125191307Y-83668201D01*
X125197374Y-83667301D01*
X125203500Y-83667000D01*
X125953500Y-83667000D01*
X125959626Y-83667301D01*
X125959626Y-83667301D01*
G37*
D20*
X125578500Y-83792000D03*
D10*
G36*
X126334626Y-84042301D02*
G01*
X126340693Y-84043201D01*
X126346643Y-84044691D01*
X126352418Y-84046758D01*
X126357962Y-84049380D01*
X126363223Y-84052533D01*
X126368150Y-84056187D01*
X126372694Y-84060306D01*
X126376813Y-84064850D01*
X126380467Y-84069777D01*
X126383620Y-84075038D01*
X126386242Y-84080582D01*
X126388309Y-84086357D01*
X126389799Y-84092307D01*
X126390699Y-84098374D01*
X126391000Y-84104500D01*
X126391000Y-84854500D01*
X126390699Y-84860626D01*
X126389799Y-84866693D01*
X126388309Y-84872643D01*
X126386242Y-84878418D01*
X126383620Y-84883962D01*
X126380467Y-84889223D01*
X126376813Y-84894150D01*
X126372694Y-84898694D01*
X126368150Y-84902813D01*
X126363223Y-84906467D01*
X126357962Y-84909620D01*
X126352418Y-84912242D01*
X126346643Y-84914309D01*
X126340693Y-84915799D01*
X126334626Y-84916699D01*
X126328500Y-84917000D01*
X126203500Y-84917000D01*
X126197374Y-84916699D01*
X126191307Y-84915799D01*
X126185357Y-84914309D01*
X126179582Y-84912242D01*
X126174038Y-84909620D01*
X126168777Y-84906467D01*
X126163850Y-84902813D01*
X126159306Y-84898694D01*
X126155187Y-84894150D01*
X126151533Y-84889223D01*
X126148380Y-84883962D01*
X126145758Y-84878418D01*
X126143691Y-84872643D01*
X126142201Y-84866693D01*
X126141301Y-84860626D01*
X126141000Y-84854500D01*
X126141000Y-84104500D01*
X126141301Y-84098374D01*
X126142201Y-84092307D01*
X126143691Y-84086357D01*
X126145758Y-84080582D01*
X126148380Y-84075038D01*
X126151533Y-84069777D01*
X126155187Y-84064850D01*
X126159306Y-84060306D01*
X126163850Y-84056187D01*
X126168777Y-84052533D01*
X126174038Y-84049380D01*
X126179582Y-84046758D01*
X126185357Y-84044691D01*
X126191307Y-84043201D01*
X126197374Y-84042301D01*
X126203500Y-84042000D01*
X126328500Y-84042000D01*
X126334626Y-84042301D01*
X126334626Y-84042301D01*
G37*
D20*
X126266000Y-84479500D03*
D10*
G36*
X126834626Y-84042301D02*
G01*
X126840693Y-84043201D01*
X126846643Y-84044691D01*
X126852418Y-84046758D01*
X126857962Y-84049380D01*
X126863223Y-84052533D01*
X126868150Y-84056187D01*
X126872694Y-84060306D01*
X126876813Y-84064850D01*
X126880467Y-84069777D01*
X126883620Y-84075038D01*
X126886242Y-84080582D01*
X126888309Y-84086357D01*
X126889799Y-84092307D01*
X126890699Y-84098374D01*
X126891000Y-84104500D01*
X126891000Y-84854500D01*
X126890699Y-84860626D01*
X126889799Y-84866693D01*
X126888309Y-84872643D01*
X126886242Y-84878418D01*
X126883620Y-84883962D01*
X126880467Y-84889223D01*
X126876813Y-84894150D01*
X126872694Y-84898694D01*
X126868150Y-84902813D01*
X126863223Y-84906467D01*
X126857962Y-84909620D01*
X126852418Y-84912242D01*
X126846643Y-84914309D01*
X126840693Y-84915799D01*
X126834626Y-84916699D01*
X126828500Y-84917000D01*
X126703500Y-84917000D01*
X126697374Y-84916699D01*
X126691307Y-84915799D01*
X126685357Y-84914309D01*
X126679582Y-84912242D01*
X126674038Y-84909620D01*
X126668777Y-84906467D01*
X126663850Y-84902813D01*
X126659306Y-84898694D01*
X126655187Y-84894150D01*
X126651533Y-84889223D01*
X126648380Y-84883962D01*
X126645758Y-84878418D01*
X126643691Y-84872643D01*
X126642201Y-84866693D01*
X126641301Y-84860626D01*
X126641000Y-84854500D01*
X126641000Y-84104500D01*
X126641301Y-84098374D01*
X126642201Y-84092307D01*
X126643691Y-84086357D01*
X126645758Y-84080582D01*
X126648380Y-84075038D01*
X126651533Y-84069777D01*
X126655187Y-84064850D01*
X126659306Y-84060306D01*
X126663850Y-84056187D01*
X126668777Y-84052533D01*
X126674038Y-84049380D01*
X126679582Y-84046758D01*
X126685357Y-84044691D01*
X126691307Y-84043201D01*
X126697374Y-84042301D01*
X126703500Y-84042000D01*
X126828500Y-84042000D01*
X126834626Y-84042301D01*
X126834626Y-84042301D01*
G37*
D20*
X126766000Y-84479500D03*
D10*
G36*
X127334626Y-84042301D02*
G01*
X127340693Y-84043201D01*
X127346643Y-84044691D01*
X127352418Y-84046758D01*
X127357962Y-84049380D01*
X127363223Y-84052533D01*
X127368150Y-84056187D01*
X127372694Y-84060306D01*
X127376813Y-84064850D01*
X127380467Y-84069777D01*
X127383620Y-84075038D01*
X127386242Y-84080582D01*
X127388309Y-84086357D01*
X127389799Y-84092307D01*
X127390699Y-84098374D01*
X127391000Y-84104500D01*
X127391000Y-84854500D01*
X127390699Y-84860626D01*
X127389799Y-84866693D01*
X127388309Y-84872643D01*
X127386242Y-84878418D01*
X127383620Y-84883962D01*
X127380467Y-84889223D01*
X127376813Y-84894150D01*
X127372694Y-84898694D01*
X127368150Y-84902813D01*
X127363223Y-84906467D01*
X127357962Y-84909620D01*
X127352418Y-84912242D01*
X127346643Y-84914309D01*
X127340693Y-84915799D01*
X127334626Y-84916699D01*
X127328500Y-84917000D01*
X127203500Y-84917000D01*
X127197374Y-84916699D01*
X127191307Y-84915799D01*
X127185357Y-84914309D01*
X127179582Y-84912242D01*
X127174038Y-84909620D01*
X127168777Y-84906467D01*
X127163850Y-84902813D01*
X127159306Y-84898694D01*
X127155187Y-84894150D01*
X127151533Y-84889223D01*
X127148380Y-84883962D01*
X127145758Y-84878418D01*
X127143691Y-84872643D01*
X127142201Y-84866693D01*
X127141301Y-84860626D01*
X127141000Y-84854500D01*
X127141000Y-84104500D01*
X127141301Y-84098374D01*
X127142201Y-84092307D01*
X127143691Y-84086357D01*
X127145758Y-84080582D01*
X127148380Y-84075038D01*
X127151533Y-84069777D01*
X127155187Y-84064850D01*
X127159306Y-84060306D01*
X127163850Y-84056187D01*
X127168777Y-84052533D01*
X127174038Y-84049380D01*
X127179582Y-84046758D01*
X127185357Y-84044691D01*
X127191307Y-84043201D01*
X127197374Y-84042301D01*
X127203500Y-84042000D01*
X127328500Y-84042000D01*
X127334626Y-84042301D01*
X127334626Y-84042301D01*
G37*
D20*
X127266000Y-84479500D03*
D10*
G36*
X127834626Y-84042301D02*
G01*
X127840693Y-84043201D01*
X127846643Y-84044691D01*
X127852418Y-84046758D01*
X127857962Y-84049380D01*
X127863223Y-84052533D01*
X127868150Y-84056187D01*
X127872694Y-84060306D01*
X127876813Y-84064850D01*
X127880467Y-84069777D01*
X127883620Y-84075038D01*
X127886242Y-84080582D01*
X127888309Y-84086357D01*
X127889799Y-84092307D01*
X127890699Y-84098374D01*
X127891000Y-84104500D01*
X127891000Y-84854500D01*
X127890699Y-84860626D01*
X127889799Y-84866693D01*
X127888309Y-84872643D01*
X127886242Y-84878418D01*
X127883620Y-84883962D01*
X127880467Y-84889223D01*
X127876813Y-84894150D01*
X127872694Y-84898694D01*
X127868150Y-84902813D01*
X127863223Y-84906467D01*
X127857962Y-84909620D01*
X127852418Y-84912242D01*
X127846643Y-84914309D01*
X127840693Y-84915799D01*
X127834626Y-84916699D01*
X127828500Y-84917000D01*
X127703500Y-84917000D01*
X127697374Y-84916699D01*
X127691307Y-84915799D01*
X127685357Y-84914309D01*
X127679582Y-84912242D01*
X127674038Y-84909620D01*
X127668777Y-84906467D01*
X127663850Y-84902813D01*
X127659306Y-84898694D01*
X127655187Y-84894150D01*
X127651533Y-84889223D01*
X127648380Y-84883962D01*
X127645758Y-84878418D01*
X127643691Y-84872643D01*
X127642201Y-84866693D01*
X127641301Y-84860626D01*
X127641000Y-84854500D01*
X127641000Y-84104500D01*
X127641301Y-84098374D01*
X127642201Y-84092307D01*
X127643691Y-84086357D01*
X127645758Y-84080582D01*
X127648380Y-84075038D01*
X127651533Y-84069777D01*
X127655187Y-84064850D01*
X127659306Y-84060306D01*
X127663850Y-84056187D01*
X127668777Y-84052533D01*
X127674038Y-84049380D01*
X127679582Y-84046758D01*
X127685357Y-84044691D01*
X127691307Y-84043201D01*
X127697374Y-84042301D01*
X127703500Y-84042000D01*
X127828500Y-84042000D01*
X127834626Y-84042301D01*
X127834626Y-84042301D01*
G37*
D20*
X127766000Y-84479500D03*
D10*
G36*
X128334626Y-84042301D02*
G01*
X128340693Y-84043201D01*
X128346643Y-84044691D01*
X128352418Y-84046758D01*
X128357962Y-84049380D01*
X128363223Y-84052533D01*
X128368150Y-84056187D01*
X128372694Y-84060306D01*
X128376813Y-84064850D01*
X128380467Y-84069777D01*
X128383620Y-84075038D01*
X128386242Y-84080582D01*
X128388309Y-84086357D01*
X128389799Y-84092307D01*
X128390699Y-84098374D01*
X128391000Y-84104500D01*
X128391000Y-84854500D01*
X128390699Y-84860626D01*
X128389799Y-84866693D01*
X128388309Y-84872643D01*
X128386242Y-84878418D01*
X128383620Y-84883962D01*
X128380467Y-84889223D01*
X128376813Y-84894150D01*
X128372694Y-84898694D01*
X128368150Y-84902813D01*
X128363223Y-84906467D01*
X128357962Y-84909620D01*
X128352418Y-84912242D01*
X128346643Y-84914309D01*
X128340693Y-84915799D01*
X128334626Y-84916699D01*
X128328500Y-84917000D01*
X128203500Y-84917000D01*
X128197374Y-84916699D01*
X128191307Y-84915799D01*
X128185357Y-84914309D01*
X128179582Y-84912242D01*
X128174038Y-84909620D01*
X128168777Y-84906467D01*
X128163850Y-84902813D01*
X128159306Y-84898694D01*
X128155187Y-84894150D01*
X128151533Y-84889223D01*
X128148380Y-84883962D01*
X128145758Y-84878418D01*
X128143691Y-84872643D01*
X128142201Y-84866693D01*
X128141301Y-84860626D01*
X128141000Y-84854500D01*
X128141000Y-84104500D01*
X128141301Y-84098374D01*
X128142201Y-84092307D01*
X128143691Y-84086357D01*
X128145758Y-84080582D01*
X128148380Y-84075038D01*
X128151533Y-84069777D01*
X128155187Y-84064850D01*
X128159306Y-84060306D01*
X128163850Y-84056187D01*
X128168777Y-84052533D01*
X128174038Y-84049380D01*
X128179582Y-84046758D01*
X128185357Y-84044691D01*
X128191307Y-84043201D01*
X128197374Y-84042301D01*
X128203500Y-84042000D01*
X128328500Y-84042000D01*
X128334626Y-84042301D01*
X128334626Y-84042301D01*
G37*
D20*
X128266000Y-84479500D03*
D10*
G36*
X128834626Y-84042301D02*
G01*
X128840693Y-84043201D01*
X128846643Y-84044691D01*
X128852418Y-84046758D01*
X128857962Y-84049380D01*
X128863223Y-84052533D01*
X128868150Y-84056187D01*
X128872694Y-84060306D01*
X128876813Y-84064850D01*
X128880467Y-84069777D01*
X128883620Y-84075038D01*
X128886242Y-84080582D01*
X128888309Y-84086357D01*
X128889799Y-84092307D01*
X128890699Y-84098374D01*
X128891000Y-84104500D01*
X128891000Y-84854500D01*
X128890699Y-84860626D01*
X128889799Y-84866693D01*
X128888309Y-84872643D01*
X128886242Y-84878418D01*
X128883620Y-84883962D01*
X128880467Y-84889223D01*
X128876813Y-84894150D01*
X128872694Y-84898694D01*
X128868150Y-84902813D01*
X128863223Y-84906467D01*
X128857962Y-84909620D01*
X128852418Y-84912242D01*
X128846643Y-84914309D01*
X128840693Y-84915799D01*
X128834626Y-84916699D01*
X128828500Y-84917000D01*
X128703500Y-84917000D01*
X128697374Y-84916699D01*
X128691307Y-84915799D01*
X128685357Y-84914309D01*
X128679582Y-84912242D01*
X128674038Y-84909620D01*
X128668777Y-84906467D01*
X128663850Y-84902813D01*
X128659306Y-84898694D01*
X128655187Y-84894150D01*
X128651533Y-84889223D01*
X128648380Y-84883962D01*
X128645758Y-84878418D01*
X128643691Y-84872643D01*
X128642201Y-84866693D01*
X128641301Y-84860626D01*
X128641000Y-84854500D01*
X128641000Y-84104500D01*
X128641301Y-84098374D01*
X128642201Y-84092307D01*
X128643691Y-84086357D01*
X128645758Y-84080582D01*
X128648380Y-84075038D01*
X128651533Y-84069777D01*
X128655187Y-84064850D01*
X128659306Y-84060306D01*
X128663850Y-84056187D01*
X128668777Y-84052533D01*
X128674038Y-84049380D01*
X128679582Y-84046758D01*
X128685357Y-84044691D01*
X128691307Y-84043201D01*
X128697374Y-84042301D01*
X128703500Y-84042000D01*
X128828500Y-84042000D01*
X128834626Y-84042301D01*
X128834626Y-84042301D01*
G37*
D20*
X128766000Y-84479500D03*
D10*
G36*
X129334626Y-84042301D02*
G01*
X129340693Y-84043201D01*
X129346643Y-84044691D01*
X129352418Y-84046758D01*
X129357962Y-84049380D01*
X129363223Y-84052533D01*
X129368150Y-84056187D01*
X129372694Y-84060306D01*
X129376813Y-84064850D01*
X129380467Y-84069777D01*
X129383620Y-84075038D01*
X129386242Y-84080582D01*
X129388309Y-84086357D01*
X129389799Y-84092307D01*
X129390699Y-84098374D01*
X129391000Y-84104500D01*
X129391000Y-84854500D01*
X129390699Y-84860626D01*
X129389799Y-84866693D01*
X129388309Y-84872643D01*
X129386242Y-84878418D01*
X129383620Y-84883962D01*
X129380467Y-84889223D01*
X129376813Y-84894150D01*
X129372694Y-84898694D01*
X129368150Y-84902813D01*
X129363223Y-84906467D01*
X129357962Y-84909620D01*
X129352418Y-84912242D01*
X129346643Y-84914309D01*
X129340693Y-84915799D01*
X129334626Y-84916699D01*
X129328500Y-84917000D01*
X129203500Y-84917000D01*
X129197374Y-84916699D01*
X129191307Y-84915799D01*
X129185357Y-84914309D01*
X129179582Y-84912242D01*
X129174038Y-84909620D01*
X129168777Y-84906467D01*
X129163850Y-84902813D01*
X129159306Y-84898694D01*
X129155187Y-84894150D01*
X129151533Y-84889223D01*
X129148380Y-84883962D01*
X129145758Y-84878418D01*
X129143691Y-84872643D01*
X129142201Y-84866693D01*
X129141301Y-84860626D01*
X129141000Y-84854500D01*
X129141000Y-84104500D01*
X129141301Y-84098374D01*
X129142201Y-84092307D01*
X129143691Y-84086357D01*
X129145758Y-84080582D01*
X129148380Y-84075038D01*
X129151533Y-84069777D01*
X129155187Y-84064850D01*
X129159306Y-84060306D01*
X129163850Y-84056187D01*
X129168777Y-84052533D01*
X129174038Y-84049380D01*
X129179582Y-84046758D01*
X129185357Y-84044691D01*
X129191307Y-84043201D01*
X129197374Y-84042301D01*
X129203500Y-84042000D01*
X129328500Y-84042000D01*
X129334626Y-84042301D01*
X129334626Y-84042301D01*
G37*
D20*
X129266000Y-84479500D03*
D10*
G36*
X129834626Y-84042301D02*
G01*
X129840693Y-84043201D01*
X129846643Y-84044691D01*
X129852418Y-84046758D01*
X129857962Y-84049380D01*
X129863223Y-84052533D01*
X129868150Y-84056187D01*
X129872694Y-84060306D01*
X129876813Y-84064850D01*
X129880467Y-84069777D01*
X129883620Y-84075038D01*
X129886242Y-84080582D01*
X129888309Y-84086357D01*
X129889799Y-84092307D01*
X129890699Y-84098374D01*
X129891000Y-84104500D01*
X129891000Y-84854500D01*
X129890699Y-84860626D01*
X129889799Y-84866693D01*
X129888309Y-84872643D01*
X129886242Y-84878418D01*
X129883620Y-84883962D01*
X129880467Y-84889223D01*
X129876813Y-84894150D01*
X129872694Y-84898694D01*
X129868150Y-84902813D01*
X129863223Y-84906467D01*
X129857962Y-84909620D01*
X129852418Y-84912242D01*
X129846643Y-84914309D01*
X129840693Y-84915799D01*
X129834626Y-84916699D01*
X129828500Y-84917000D01*
X129703500Y-84917000D01*
X129697374Y-84916699D01*
X129691307Y-84915799D01*
X129685357Y-84914309D01*
X129679582Y-84912242D01*
X129674038Y-84909620D01*
X129668777Y-84906467D01*
X129663850Y-84902813D01*
X129659306Y-84898694D01*
X129655187Y-84894150D01*
X129651533Y-84889223D01*
X129648380Y-84883962D01*
X129645758Y-84878418D01*
X129643691Y-84872643D01*
X129642201Y-84866693D01*
X129641301Y-84860626D01*
X129641000Y-84854500D01*
X129641000Y-84104500D01*
X129641301Y-84098374D01*
X129642201Y-84092307D01*
X129643691Y-84086357D01*
X129645758Y-84080582D01*
X129648380Y-84075038D01*
X129651533Y-84069777D01*
X129655187Y-84064850D01*
X129659306Y-84060306D01*
X129663850Y-84056187D01*
X129668777Y-84052533D01*
X129674038Y-84049380D01*
X129679582Y-84046758D01*
X129685357Y-84044691D01*
X129691307Y-84043201D01*
X129697374Y-84042301D01*
X129703500Y-84042000D01*
X129828500Y-84042000D01*
X129834626Y-84042301D01*
X129834626Y-84042301D01*
G37*
D20*
X129766000Y-84479500D03*
D10*
G36*
X130834626Y-83667301D02*
G01*
X130840693Y-83668201D01*
X130846643Y-83669691D01*
X130852418Y-83671758D01*
X130857962Y-83674380D01*
X130863223Y-83677533D01*
X130868150Y-83681187D01*
X130872694Y-83685306D01*
X130876813Y-83689850D01*
X130880467Y-83694777D01*
X130883620Y-83700038D01*
X130886242Y-83705582D01*
X130888309Y-83711357D01*
X130889799Y-83717307D01*
X130890699Y-83723374D01*
X130891000Y-83729500D01*
X130891000Y-83854500D01*
X130890699Y-83860626D01*
X130889799Y-83866693D01*
X130888309Y-83872643D01*
X130886242Y-83878418D01*
X130883620Y-83883962D01*
X130880467Y-83889223D01*
X130876813Y-83894150D01*
X130872694Y-83898694D01*
X130868150Y-83902813D01*
X130863223Y-83906467D01*
X130857962Y-83909620D01*
X130852418Y-83912242D01*
X130846643Y-83914309D01*
X130840693Y-83915799D01*
X130834626Y-83916699D01*
X130828500Y-83917000D01*
X130078500Y-83917000D01*
X130072374Y-83916699D01*
X130066307Y-83915799D01*
X130060357Y-83914309D01*
X130054582Y-83912242D01*
X130049038Y-83909620D01*
X130043777Y-83906467D01*
X130038850Y-83902813D01*
X130034306Y-83898694D01*
X130030187Y-83894150D01*
X130026533Y-83889223D01*
X130023380Y-83883962D01*
X130020758Y-83878418D01*
X130018691Y-83872643D01*
X130017201Y-83866693D01*
X130016301Y-83860626D01*
X130016000Y-83854500D01*
X130016000Y-83729500D01*
X130016301Y-83723374D01*
X130017201Y-83717307D01*
X130018691Y-83711357D01*
X130020758Y-83705582D01*
X130023380Y-83700038D01*
X130026533Y-83694777D01*
X130030187Y-83689850D01*
X130034306Y-83685306D01*
X130038850Y-83681187D01*
X130043777Y-83677533D01*
X130049038Y-83674380D01*
X130054582Y-83671758D01*
X130060357Y-83669691D01*
X130066307Y-83668201D01*
X130072374Y-83667301D01*
X130078500Y-83667000D01*
X130828500Y-83667000D01*
X130834626Y-83667301D01*
X130834626Y-83667301D01*
G37*
D20*
X130453500Y-83792000D03*
D10*
G36*
X130834626Y-83167301D02*
G01*
X130840693Y-83168201D01*
X130846643Y-83169691D01*
X130852418Y-83171758D01*
X130857962Y-83174380D01*
X130863223Y-83177533D01*
X130868150Y-83181187D01*
X130872694Y-83185306D01*
X130876813Y-83189850D01*
X130880467Y-83194777D01*
X130883620Y-83200038D01*
X130886242Y-83205582D01*
X130888309Y-83211357D01*
X130889799Y-83217307D01*
X130890699Y-83223374D01*
X130891000Y-83229500D01*
X130891000Y-83354500D01*
X130890699Y-83360626D01*
X130889799Y-83366693D01*
X130888309Y-83372643D01*
X130886242Y-83378418D01*
X130883620Y-83383962D01*
X130880467Y-83389223D01*
X130876813Y-83394150D01*
X130872694Y-83398694D01*
X130868150Y-83402813D01*
X130863223Y-83406467D01*
X130857962Y-83409620D01*
X130852418Y-83412242D01*
X130846643Y-83414309D01*
X130840693Y-83415799D01*
X130834626Y-83416699D01*
X130828500Y-83417000D01*
X130078500Y-83417000D01*
X130072374Y-83416699D01*
X130066307Y-83415799D01*
X130060357Y-83414309D01*
X130054582Y-83412242D01*
X130049038Y-83409620D01*
X130043777Y-83406467D01*
X130038850Y-83402813D01*
X130034306Y-83398694D01*
X130030187Y-83394150D01*
X130026533Y-83389223D01*
X130023380Y-83383962D01*
X130020758Y-83378418D01*
X130018691Y-83372643D01*
X130017201Y-83366693D01*
X130016301Y-83360626D01*
X130016000Y-83354500D01*
X130016000Y-83229500D01*
X130016301Y-83223374D01*
X130017201Y-83217307D01*
X130018691Y-83211357D01*
X130020758Y-83205582D01*
X130023380Y-83200038D01*
X130026533Y-83194777D01*
X130030187Y-83189850D01*
X130034306Y-83185306D01*
X130038850Y-83181187D01*
X130043777Y-83177533D01*
X130049038Y-83174380D01*
X130054582Y-83171758D01*
X130060357Y-83169691D01*
X130066307Y-83168201D01*
X130072374Y-83167301D01*
X130078500Y-83167000D01*
X130828500Y-83167000D01*
X130834626Y-83167301D01*
X130834626Y-83167301D01*
G37*
D20*
X130453500Y-83292000D03*
D10*
G36*
X130834626Y-82667301D02*
G01*
X130840693Y-82668201D01*
X130846643Y-82669691D01*
X130852418Y-82671758D01*
X130857962Y-82674380D01*
X130863223Y-82677533D01*
X130868150Y-82681187D01*
X130872694Y-82685306D01*
X130876813Y-82689850D01*
X130880467Y-82694777D01*
X130883620Y-82700038D01*
X130886242Y-82705582D01*
X130888309Y-82711357D01*
X130889799Y-82717307D01*
X130890699Y-82723374D01*
X130891000Y-82729500D01*
X130891000Y-82854500D01*
X130890699Y-82860626D01*
X130889799Y-82866693D01*
X130888309Y-82872643D01*
X130886242Y-82878418D01*
X130883620Y-82883962D01*
X130880467Y-82889223D01*
X130876813Y-82894150D01*
X130872694Y-82898694D01*
X130868150Y-82902813D01*
X130863223Y-82906467D01*
X130857962Y-82909620D01*
X130852418Y-82912242D01*
X130846643Y-82914309D01*
X130840693Y-82915799D01*
X130834626Y-82916699D01*
X130828500Y-82917000D01*
X130078500Y-82917000D01*
X130072374Y-82916699D01*
X130066307Y-82915799D01*
X130060357Y-82914309D01*
X130054582Y-82912242D01*
X130049038Y-82909620D01*
X130043777Y-82906467D01*
X130038850Y-82902813D01*
X130034306Y-82898694D01*
X130030187Y-82894150D01*
X130026533Y-82889223D01*
X130023380Y-82883962D01*
X130020758Y-82878418D01*
X130018691Y-82872643D01*
X130017201Y-82866693D01*
X130016301Y-82860626D01*
X130016000Y-82854500D01*
X130016000Y-82729500D01*
X130016301Y-82723374D01*
X130017201Y-82717307D01*
X130018691Y-82711357D01*
X130020758Y-82705582D01*
X130023380Y-82700038D01*
X130026533Y-82694777D01*
X130030187Y-82689850D01*
X130034306Y-82685306D01*
X130038850Y-82681187D01*
X130043777Y-82677533D01*
X130049038Y-82674380D01*
X130054582Y-82671758D01*
X130060357Y-82669691D01*
X130066307Y-82668201D01*
X130072374Y-82667301D01*
X130078500Y-82667000D01*
X130828500Y-82667000D01*
X130834626Y-82667301D01*
X130834626Y-82667301D01*
G37*
D20*
X130453500Y-82792000D03*
D10*
G36*
X130834626Y-82167301D02*
G01*
X130840693Y-82168201D01*
X130846643Y-82169691D01*
X130852418Y-82171758D01*
X130857962Y-82174380D01*
X130863223Y-82177533D01*
X130868150Y-82181187D01*
X130872694Y-82185306D01*
X130876813Y-82189850D01*
X130880467Y-82194777D01*
X130883620Y-82200038D01*
X130886242Y-82205582D01*
X130888309Y-82211357D01*
X130889799Y-82217307D01*
X130890699Y-82223374D01*
X130891000Y-82229500D01*
X130891000Y-82354500D01*
X130890699Y-82360626D01*
X130889799Y-82366693D01*
X130888309Y-82372643D01*
X130886242Y-82378418D01*
X130883620Y-82383962D01*
X130880467Y-82389223D01*
X130876813Y-82394150D01*
X130872694Y-82398694D01*
X130868150Y-82402813D01*
X130863223Y-82406467D01*
X130857962Y-82409620D01*
X130852418Y-82412242D01*
X130846643Y-82414309D01*
X130840693Y-82415799D01*
X130834626Y-82416699D01*
X130828500Y-82417000D01*
X130078500Y-82417000D01*
X130072374Y-82416699D01*
X130066307Y-82415799D01*
X130060357Y-82414309D01*
X130054582Y-82412242D01*
X130049038Y-82409620D01*
X130043777Y-82406467D01*
X130038850Y-82402813D01*
X130034306Y-82398694D01*
X130030187Y-82394150D01*
X130026533Y-82389223D01*
X130023380Y-82383962D01*
X130020758Y-82378418D01*
X130018691Y-82372643D01*
X130017201Y-82366693D01*
X130016301Y-82360626D01*
X130016000Y-82354500D01*
X130016000Y-82229500D01*
X130016301Y-82223374D01*
X130017201Y-82217307D01*
X130018691Y-82211357D01*
X130020758Y-82205582D01*
X130023380Y-82200038D01*
X130026533Y-82194777D01*
X130030187Y-82189850D01*
X130034306Y-82185306D01*
X130038850Y-82181187D01*
X130043777Y-82177533D01*
X130049038Y-82174380D01*
X130054582Y-82171758D01*
X130060357Y-82169691D01*
X130066307Y-82168201D01*
X130072374Y-82167301D01*
X130078500Y-82167000D01*
X130828500Y-82167000D01*
X130834626Y-82167301D01*
X130834626Y-82167301D01*
G37*
D20*
X130453500Y-82292000D03*
D10*
G36*
X130834626Y-81667301D02*
G01*
X130840693Y-81668201D01*
X130846643Y-81669691D01*
X130852418Y-81671758D01*
X130857962Y-81674380D01*
X130863223Y-81677533D01*
X130868150Y-81681187D01*
X130872694Y-81685306D01*
X130876813Y-81689850D01*
X130880467Y-81694777D01*
X130883620Y-81700038D01*
X130886242Y-81705582D01*
X130888309Y-81711357D01*
X130889799Y-81717307D01*
X130890699Y-81723374D01*
X130891000Y-81729500D01*
X130891000Y-81854500D01*
X130890699Y-81860626D01*
X130889799Y-81866693D01*
X130888309Y-81872643D01*
X130886242Y-81878418D01*
X130883620Y-81883962D01*
X130880467Y-81889223D01*
X130876813Y-81894150D01*
X130872694Y-81898694D01*
X130868150Y-81902813D01*
X130863223Y-81906467D01*
X130857962Y-81909620D01*
X130852418Y-81912242D01*
X130846643Y-81914309D01*
X130840693Y-81915799D01*
X130834626Y-81916699D01*
X130828500Y-81917000D01*
X130078500Y-81917000D01*
X130072374Y-81916699D01*
X130066307Y-81915799D01*
X130060357Y-81914309D01*
X130054582Y-81912242D01*
X130049038Y-81909620D01*
X130043777Y-81906467D01*
X130038850Y-81902813D01*
X130034306Y-81898694D01*
X130030187Y-81894150D01*
X130026533Y-81889223D01*
X130023380Y-81883962D01*
X130020758Y-81878418D01*
X130018691Y-81872643D01*
X130017201Y-81866693D01*
X130016301Y-81860626D01*
X130016000Y-81854500D01*
X130016000Y-81729500D01*
X130016301Y-81723374D01*
X130017201Y-81717307D01*
X130018691Y-81711357D01*
X130020758Y-81705582D01*
X130023380Y-81700038D01*
X130026533Y-81694777D01*
X130030187Y-81689850D01*
X130034306Y-81685306D01*
X130038850Y-81681187D01*
X130043777Y-81677533D01*
X130049038Y-81674380D01*
X130054582Y-81671758D01*
X130060357Y-81669691D01*
X130066307Y-81668201D01*
X130072374Y-81667301D01*
X130078500Y-81667000D01*
X130828500Y-81667000D01*
X130834626Y-81667301D01*
X130834626Y-81667301D01*
G37*
D20*
X130453500Y-81792000D03*
D10*
G36*
X130834626Y-81167301D02*
G01*
X130840693Y-81168201D01*
X130846643Y-81169691D01*
X130852418Y-81171758D01*
X130857962Y-81174380D01*
X130863223Y-81177533D01*
X130868150Y-81181187D01*
X130872694Y-81185306D01*
X130876813Y-81189850D01*
X130880467Y-81194777D01*
X130883620Y-81200038D01*
X130886242Y-81205582D01*
X130888309Y-81211357D01*
X130889799Y-81217307D01*
X130890699Y-81223374D01*
X130891000Y-81229500D01*
X130891000Y-81354500D01*
X130890699Y-81360626D01*
X130889799Y-81366693D01*
X130888309Y-81372643D01*
X130886242Y-81378418D01*
X130883620Y-81383962D01*
X130880467Y-81389223D01*
X130876813Y-81394150D01*
X130872694Y-81398694D01*
X130868150Y-81402813D01*
X130863223Y-81406467D01*
X130857962Y-81409620D01*
X130852418Y-81412242D01*
X130846643Y-81414309D01*
X130840693Y-81415799D01*
X130834626Y-81416699D01*
X130828500Y-81417000D01*
X130078500Y-81417000D01*
X130072374Y-81416699D01*
X130066307Y-81415799D01*
X130060357Y-81414309D01*
X130054582Y-81412242D01*
X130049038Y-81409620D01*
X130043777Y-81406467D01*
X130038850Y-81402813D01*
X130034306Y-81398694D01*
X130030187Y-81394150D01*
X130026533Y-81389223D01*
X130023380Y-81383962D01*
X130020758Y-81378418D01*
X130018691Y-81372643D01*
X130017201Y-81366693D01*
X130016301Y-81360626D01*
X130016000Y-81354500D01*
X130016000Y-81229500D01*
X130016301Y-81223374D01*
X130017201Y-81217307D01*
X130018691Y-81211357D01*
X130020758Y-81205582D01*
X130023380Y-81200038D01*
X130026533Y-81194777D01*
X130030187Y-81189850D01*
X130034306Y-81185306D01*
X130038850Y-81181187D01*
X130043777Y-81177533D01*
X130049038Y-81174380D01*
X130054582Y-81171758D01*
X130060357Y-81169691D01*
X130066307Y-81168201D01*
X130072374Y-81167301D01*
X130078500Y-81167000D01*
X130828500Y-81167000D01*
X130834626Y-81167301D01*
X130834626Y-81167301D01*
G37*
D20*
X130453500Y-81292000D03*
D10*
G36*
X130834626Y-80667301D02*
G01*
X130840693Y-80668201D01*
X130846643Y-80669691D01*
X130852418Y-80671758D01*
X130857962Y-80674380D01*
X130863223Y-80677533D01*
X130868150Y-80681187D01*
X130872694Y-80685306D01*
X130876813Y-80689850D01*
X130880467Y-80694777D01*
X130883620Y-80700038D01*
X130886242Y-80705582D01*
X130888309Y-80711357D01*
X130889799Y-80717307D01*
X130890699Y-80723374D01*
X130891000Y-80729500D01*
X130891000Y-80854500D01*
X130890699Y-80860626D01*
X130889799Y-80866693D01*
X130888309Y-80872643D01*
X130886242Y-80878418D01*
X130883620Y-80883962D01*
X130880467Y-80889223D01*
X130876813Y-80894150D01*
X130872694Y-80898694D01*
X130868150Y-80902813D01*
X130863223Y-80906467D01*
X130857962Y-80909620D01*
X130852418Y-80912242D01*
X130846643Y-80914309D01*
X130840693Y-80915799D01*
X130834626Y-80916699D01*
X130828500Y-80917000D01*
X130078500Y-80917000D01*
X130072374Y-80916699D01*
X130066307Y-80915799D01*
X130060357Y-80914309D01*
X130054582Y-80912242D01*
X130049038Y-80909620D01*
X130043777Y-80906467D01*
X130038850Y-80902813D01*
X130034306Y-80898694D01*
X130030187Y-80894150D01*
X130026533Y-80889223D01*
X130023380Y-80883962D01*
X130020758Y-80878418D01*
X130018691Y-80872643D01*
X130017201Y-80866693D01*
X130016301Y-80860626D01*
X130016000Y-80854500D01*
X130016000Y-80729500D01*
X130016301Y-80723374D01*
X130017201Y-80717307D01*
X130018691Y-80711357D01*
X130020758Y-80705582D01*
X130023380Y-80700038D01*
X130026533Y-80694777D01*
X130030187Y-80689850D01*
X130034306Y-80685306D01*
X130038850Y-80681187D01*
X130043777Y-80677533D01*
X130049038Y-80674380D01*
X130054582Y-80671758D01*
X130060357Y-80669691D01*
X130066307Y-80668201D01*
X130072374Y-80667301D01*
X130078500Y-80667000D01*
X130828500Y-80667000D01*
X130834626Y-80667301D01*
X130834626Y-80667301D01*
G37*
D20*
X130453500Y-80792000D03*
D10*
G36*
X130834626Y-80167301D02*
G01*
X130840693Y-80168201D01*
X130846643Y-80169691D01*
X130852418Y-80171758D01*
X130857962Y-80174380D01*
X130863223Y-80177533D01*
X130868150Y-80181187D01*
X130872694Y-80185306D01*
X130876813Y-80189850D01*
X130880467Y-80194777D01*
X130883620Y-80200038D01*
X130886242Y-80205582D01*
X130888309Y-80211357D01*
X130889799Y-80217307D01*
X130890699Y-80223374D01*
X130891000Y-80229500D01*
X130891000Y-80354500D01*
X130890699Y-80360626D01*
X130889799Y-80366693D01*
X130888309Y-80372643D01*
X130886242Y-80378418D01*
X130883620Y-80383962D01*
X130880467Y-80389223D01*
X130876813Y-80394150D01*
X130872694Y-80398694D01*
X130868150Y-80402813D01*
X130863223Y-80406467D01*
X130857962Y-80409620D01*
X130852418Y-80412242D01*
X130846643Y-80414309D01*
X130840693Y-80415799D01*
X130834626Y-80416699D01*
X130828500Y-80417000D01*
X130078500Y-80417000D01*
X130072374Y-80416699D01*
X130066307Y-80415799D01*
X130060357Y-80414309D01*
X130054582Y-80412242D01*
X130049038Y-80409620D01*
X130043777Y-80406467D01*
X130038850Y-80402813D01*
X130034306Y-80398694D01*
X130030187Y-80394150D01*
X130026533Y-80389223D01*
X130023380Y-80383962D01*
X130020758Y-80378418D01*
X130018691Y-80372643D01*
X130017201Y-80366693D01*
X130016301Y-80360626D01*
X130016000Y-80354500D01*
X130016000Y-80229500D01*
X130016301Y-80223374D01*
X130017201Y-80217307D01*
X130018691Y-80211357D01*
X130020758Y-80205582D01*
X130023380Y-80200038D01*
X130026533Y-80194777D01*
X130030187Y-80189850D01*
X130034306Y-80185306D01*
X130038850Y-80181187D01*
X130043777Y-80177533D01*
X130049038Y-80174380D01*
X130054582Y-80171758D01*
X130060357Y-80169691D01*
X130066307Y-80168201D01*
X130072374Y-80167301D01*
X130078500Y-80167000D01*
X130828500Y-80167000D01*
X130834626Y-80167301D01*
X130834626Y-80167301D01*
G37*
D20*
X130453500Y-80292000D03*
D10*
G36*
X129834626Y-79167301D02*
G01*
X129840693Y-79168201D01*
X129846643Y-79169691D01*
X129852418Y-79171758D01*
X129857962Y-79174380D01*
X129863223Y-79177533D01*
X129868150Y-79181187D01*
X129872694Y-79185306D01*
X129876813Y-79189850D01*
X129880467Y-79194777D01*
X129883620Y-79200038D01*
X129886242Y-79205582D01*
X129888309Y-79211357D01*
X129889799Y-79217307D01*
X129890699Y-79223374D01*
X129891000Y-79229500D01*
X129891000Y-79979500D01*
X129890699Y-79985626D01*
X129889799Y-79991693D01*
X129888309Y-79997643D01*
X129886242Y-80003418D01*
X129883620Y-80008962D01*
X129880467Y-80014223D01*
X129876813Y-80019150D01*
X129872694Y-80023694D01*
X129868150Y-80027813D01*
X129863223Y-80031467D01*
X129857962Y-80034620D01*
X129852418Y-80037242D01*
X129846643Y-80039309D01*
X129840693Y-80040799D01*
X129834626Y-80041699D01*
X129828500Y-80042000D01*
X129703500Y-80042000D01*
X129697374Y-80041699D01*
X129691307Y-80040799D01*
X129685357Y-80039309D01*
X129679582Y-80037242D01*
X129674038Y-80034620D01*
X129668777Y-80031467D01*
X129663850Y-80027813D01*
X129659306Y-80023694D01*
X129655187Y-80019150D01*
X129651533Y-80014223D01*
X129648380Y-80008962D01*
X129645758Y-80003418D01*
X129643691Y-79997643D01*
X129642201Y-79991693D01*
X129641301Y-79985626D01*
X129641000Y-79979500D01*
X129641000Y-79229500D01*
X129641301Y-79223374D01*
X129642201Y-79217307D01*
X129643691Y-79211357D01*
X129645758Y-79205582D01*
X129648380Y-79200038D01*
X129651533Y-79194777D01*
X129655187Y-79189850D01*
X129659306Y-79185306D01*
X129663850Y-79181187D01*
X129668777Y-79177533D01*
X129674038Y-79174380D01*
X129679582Y-79171758D01*
X129685357Y-79169691D01*
X129691307Y-79168201D01*
X129697374Y-79167301D01*
X129703500Y-79167000D01*
X129828500Y-79167000D01*
X129834626Y-79167301D01*
X129834626Y-79167301D01*
G37*
D20*
X129766000Y-79604500D03*
D10*
G36*
X129334626Y-79167301D02*
G01*
X129340693Y-79168201D01*
X129346643Y-79169691D01*
X129352418Y-79171758D01*
X129357962Y-79174380D01*
X129363223Y-79177533D01*
X129368150Y-79181187D01*
X129372694Y-79185306D01*
X129376813Y-79189850D01*
X129380467Y-79194777D01*
X129383620Y-79200038D01*
X129386242Y-79205582D01*
X129388309Y-79211357D01*
X129389799Y-79217307D01*
X129390699Y-79223374D01*
X129391000Y-79229500D01*
X129391000Y-79979500D01*
X129390699Y-79985626D01*
X129389799Y-79991693D01*
X129388309Y-79997643D01*
X129386242Y-80003418D01*
X129383620Y-80008962D01*
X129380467Y-80014223D01*
X129376813Y-80019150D01*
X129372694Y-80023694D01*
X129368150Y-80027813D01*
X129363223Y-80031467D01*
X129357962Y-80034620D01*
X129352418Y-80037242D01*
X129346643Y-80039309D01*
X129340693Y-80040799D01*
X129334626Y-80041699D01*
X129328500Y-80042000D01*
X129203500Y-80042000D01*
X129197374Y-80041699D01*
X129191307Y-80040799D01*
X129185357Y-80039309D01*
X129179582Y-80037242D01*
X129174038Y-80034620D01*
X129168777Y-80031467D01*
X129163850Y-80027813D01*
X129159306Y-80023694D01*
X129155187Y-80019150D01*
X129151533Y-80014223D01*
X129148380Y-80008962D01*
X129145758Y-80003418D01*
X129143691Y-79997643D01*
X129142201Y-79991693D01*
X129141301Y-79985626D01*
X129141000Y-79979500D01*
X129141000Y-79229500D01*
X129141301Y-79223374D01*
X129142201Y-79217307D01*
X129143691Y-79211357D01*
X129145758Y-79205582D01*
X129148380Y-79200038D01*
X129151533Y-79194777D01*
X129155187Y-79189850D01*
X129159306Y-79185306D01*
X129163850Y-79181187D01*
X129168777Y-79177533D01*
X129174038Y-79174380D01*
X129179582Y-79171758D01*
X129185357Y-79169691D01*
X129191307Y-79168201D01*
X129197374Y-79167301D01*
X129203500Y-79167000D01*
X129328500Y-79167000D01*
X129334626Y-79167301D01*
X129334626Y-79167301D01*
G37*
D20*
X129266000Y-79604500D03*
D10*
G36*
X128834626Y-79167301D02*
G01*
X128840693Y-79168201D01*
X128846643Y-79169691D01*
X128852418Y-79171758D01*
X128857962Y-79174380D01*
X128863223Y-79177533D01*
X128868150Y-79181187D01*
X128872694Y-79185306D01*
X128876813Y-79189850D01*
X128880467Y-79194777D01*
X128883620Y-79200038D01*
X128886242Y-79205582D01*
X128888309Y-79211357D01*
X128889799Y-79217307D01*
X128890699Y-79223374D01*
X128891000Y-79229500D01*
X128891000Y-79979500D01*
X128890699Y-79985626D01*
X128889799Y-79991693D01*
X128888309Y-79997643D01*
X128886242Y-80003418D01*
X128883620Y-80008962D01*
X128880467Y-80014223D01*
X128876813Y-80019150D01*
X128872694Y-80023694D01*
X128868150Y-80027813D01*
X128863223Y-80031467D01*
X128857962Y-80034620D01*
X128852418Y-80037242D01*
X128846643Y-80039309D01*
X128840693Y-80040799D01*
X128834626Y-80041699D01*
X128828500Y-80042000D01*
X128703500Y-80042000D01*
X128697374Y-80041699D01*
X128691307Y-80040799D01*
X128685357Y-80039309D01*
X128679582Y-80037242D01*
X128674038Y-80034620D01*
X128668777Y-80031467D01*
X128663850Y-80027813D01*
X128659306Y-80023694D01*
X128655187Y-80019150D01*
X128651533Y-80014223D01*
X128648380Y-80008962D01*
X128645758Y-80003418D01*
X128643691Y-79997643D01*
X128642201Y-79991693D01*
X128641301Y-79985626D01*
X128641000Y-79979500D01*
X128641000Y-79229500D01*
X128641301Y-79223374D01*
X128642201Y-79217307D01*
X128643691Y-79211357D01*
X128645758Y-79205582D01*
X128648380Y-79200038D01*
X128651533Y-79194777D01*
X128655187Y-79189850D01*
X128659306Y-79185306D01*
X128663850Y-79181187D01*
X128668777Y-79177533D01*
X128674038Y-79174380D01*
X128679582Y-79171758D01*
X128685357Y-79169691D01*
X128691307Y-79168201D01*
X128697374Y-79167301D01*
X128703500Y-79167000D01*
X128828500Y-79167000D01*
X128834626Y-79167301D01*
X128834626Y-79167301D01*
G37*
D20*
X128766000Y-79604500D03*
D10*
G36*
X128334626Y-79167301D02*
G01*
X128340693Y-79168201D01*
X128346643Y-79169691D01*
X128352418Y-79171758D01*
X128357962Y-79174380D01*
X128363223Y-79177533D01*
X128368150Y-79181187D01*
X128372694Y-79185306D01*
X128376813Y-79189850D01*
X128380467Y-79194777D01*
X128383620Y-79200038D01*
X128386242Y-79205582D01*
X128388309Y-79211357D01*
X128389799Y-79217307D01*
X128390699Y-79223374D01*
X128391000Y-79229500D01*
X128391000Y-79979500D01*
X128390699Y-79985626D01*
X128389799Y-79991693D01*
X128388309Y-79997643D01*
X128386242Y-80003418D01*
X128383620Y-80008962D01*
X128380467Y-80014223D01*
X128376813Y-80019150D01*
X128372694Y-80023694D01*
X128368150Y-80027813D01*
X128363223Y-80031467D01*
X128357962Y-80034620D01*
X128352418Y-80037242D01*
X128346643Y-80039309D01*
X128340693Y-80040799D01*
X128334626Y-80041699D01*
X128328500Y-80042000D01*
X128203500Y-80042000D01*
X128197374Y-80041699D01*
X128191307Y-80040799D01*
X128185357Y-80039309D01*
X128179582Y-80037242D01*
X128174038Y-80034620D01*
X128168777Y-80031467D01*
X128163850Y-80027813D01*
X128159306Y-80023694D01*
X128155187Y-80019150D01*
X128151533Y-80014223D01*
X128148380Y-80008962D01*
X128145758Y-80003418D01*
X128143691Y-79997643D01*
X128142201Y-79991693D01*
X128141301Y-79985626D01*
X128141000Y-79979500D01*
X128141000Y-79229500D01*
X128141301Y-79223374D01*
X128142201Y-79217307D01*
X128143691Y-79211357D01*
X128145758Y-79205582D01*
X128148380Y-79200038D01*
X128151533Y-79194777D01*
X128155187Y-79189850D01*
X128159306Y-79185306D01*
X128163850Y-79181187D01*
X128168777Y-79177533D01*
X128174038Y-79174380D01*
X128179582Y-79171758D01*
X128185357Y-79169691D01*
X128191307Y-79168201D01*
X128197374Y-79167301D01*
X128203500Y-79167000D01*
X128328500Y-79167000D01*
X128334626Y-79167301D01*
X128334626Y-79167301D01*
G37*
D20*
X128266000Y-79604500D03*
D10*
G36*
X127834626Y-79167301D02*
G01*
X127840693Y-79168201D01*
X127846643Y-79169691D01*
X127852418Y-79171758D01*
X127857962Y-79174380D01*
X127863223Y-79177533D01*
X127868150Y-79181187D01*
X127872694Y-79185306D01*
X127876813Y-79189850D01*
X127880467Y-79194777D01*
X127883620Y-79200038D01*
X127886242Y-79205582D01*
X127888309Y-79211357D01*
X127889799Y-79217307D01*
X127890699Y-79223374D01*
X127891000Y-79229500D01*
X127891000Y-79979500D01*
X127890699Y-79985626D01*
X127889799Y-79991693D01*
X127888309Y-79997643D01*
X127886242Y-80003418D01*
X127883620Y-80008962D01*
X127880467Y-80014223D01*
X127876813Y-80019150D01*
X127872694Y-80023694D01*
X127868150Y-80027813D01*
X127863223Y-80031467D01*
X127857962Y-80034620D01*
X127852418Y-80037242D01*
X127846643Y-80039309D01*
X127840693Y-80040799D01*
X127834626Y-80041699D01*
X127828500Y-80042000D01*
X127703500Y-80042000D01*
X127697374Y-80041699D01*
X127691307Y-80040799D01*
X127685357Y-80039309D01*
X127679582Y-80037242D01*
X127674038Y-80034620D01*
X127668777Y-80031467D01*
X127663850Y-80027813D01*
X127659306Y-80023694D01*
X127655187Y-80019150D01*
X127651533Y-80014223D01*
X127648380Y-80008962D01*
X127645758Y-80003418D01*
X127643691Y-79997643D01*
X127642201Y-79991693D01*
X127641301Y-79985626D01*
X127641000Y-79979500D01*
X127641000Y-79229500D01*
X127641301Y-79223374D01*
X127642201Y-79217307D01*
X127643691Y-79211357D01*
X127645758Y-79205582D01*
X127648380Y-79200038D01*
X127651533Y-79194777D01*
X127655187Y-79189850D01*
X127659306Y-79185306D01*
X127663850Y-79181187D01*
X127668777Y-79177533D01*
X127674038Y-79174380D01*
X127679582Y-79171758D01*
X127685357Y-79169691D01*
X127691307Y-79168201D01*
X127697374Y-79167301D01*
X127703500Y-79167000D01*
X127828500Y-79167000D01*
X127834626Y-79167301D01*
X127834626Y-79167301D01*
G37*
D20*
X127766000Y-79604500D03*
D10*
G36*
X127334626Y-79167301D02*
G01*
X127340693Y-79168201D01*
X127346643Y-79169691D01*
X127352418Y-79171758D01*
X127357962Y-79174380D01*
X127363223Y-79177533D01*
X127368150Y-79181187D01*
X127372694Y-79185306D01*
X127376813Y-79189850D01*
X127380467Y-79194777D01*
X127383620Y-79200038D01*
X127386242Y-79205582D01*
X127388309Y-79211357D01*
X127389799Y-79217307D01*
X127390699Y-79223374D01*
X127391000Y-79229500D01*
X127391000Y-79979500D01*
X127390699Y-79985626D01*
X127389799Y-79991693D01*
X127388309Y-79997643D01*
X127386242Y-80003418D01*
X127383620Y-80008962D01*
X127380467Y-80014223D01*
X127376813Y-80019150D01*
X127372694Y-80023694D01*
X127368150Y-80027813D01*
X127363223Y-80031467D01*
X127357962Y-80034620D01*
X127352418Y-80037242D01*
X127346643Y-80039309D01*
X127340693Y-80040799D01*
X127334626Y-80041699D01*
X127328500Y-80042000D01*
X127203500Y-80042000D01*
X127197374Y-80041699D01*
X127191307Y-80040799D01*
X127185357Y-80039309D01*
X127179582Y-80037242D01*
X127174038Y-80034620D01*
X127168777Y-80031467D01*
X127163850Y-80027813D01*
X127159306Y-80023694D01*
X127155187Y-80019150D01*
X127151533Y-80014223D01*
X127148380Y-80008962D01*
X127145758Y-80003418D01*
X127143691Y-79997643D01*
X127142201Y-79991693D01*
X127141301Y-79985626D01*
X127141000Y-79979500D01*
X127141000Y-79229500D01*
X127141301Y-79223374D01*
X127142201Y-79217307D01*
X127143691Y-79211357D01*
X127145758Y-79205582D01*
X127148380Y-79200038D01*
X127151533Y-79194777D01*
X127155187Y-79189850D01*
X127159306Y-79185306D01*
X127163850Y-79181187D01*
X127168777Y-79177533D01*
X127174038Y-79174380D01*
X127179582Y-79171758D01*
X127185357Y-79169691D01*
X127191307Y-79168201D01*
X127197374Y-79167301D01*
X127203500Y-79167000D01*
X127328500Y-79167000D01*
X127334626Y-79167301D01*
X127334626Y-79167301D01*
G37*
D20*
X127266000Y-79604500D03*
D10*
G36*
X126834626Y-79167301D02*
G01*
X126840693Y-79168201D01*
X126846643Y-79169691D01*
X126852418Y-79171758D01*
X126857962Y-79174380D01*
X126863223Y-79177533D01*
X126868150Y-79181187D01*
X126872694Y-79185306D01*
X126876813Y-79189850D01*
X126880467Y-79194777D01*
X126883620Y-79200038D01*
X126886242Y-79205582D01*
X126888309Y-79211357D01*
X126889799Y-79217307D01*
X126890699Y-79223374D01*
X126891000Y-79229500D01*
X126891000Y-79979500D01*
X126890699Y-79985626D01*
X126889799Y-79991693D01*
X126888309Y-79997643D01*
X126886242Y-80003418D01*
X126883620Y-80008962D01*
X126880467Y-80014223D01*
X126876813Y-80019150D01*
X126872694Y-80023694D01*
X126868150Y-80027813D01*
X126863223Y-80031467D01*
X126857962Y-80034620D01*
X126852418Y-80037242D01*
X126846643Y-80039309D01*
X126840693Y-80040799D01*
X126834626Y-80041699D01*
X126828500Y-80042000D01*
X126703500Y-80042000D01*
X126697374Y-80041699D01*
X126691307Y-80040799D01*
X126685357Y-80039309D01*
X126679582Y-80037242D01*
X126674038Y-80034620D01*
X126668777Y-80031467D01*
X126663850Y-80027813D01*
X126659306Y-80023694D01*
X126655187Y-80019150D01*
X126651533Y-80014223D01*
X126648380Y-80008962D01*
X126645758Y-80003418D01*
X126643691Y-79997643D01*
X126642201Y-79991693D01*
X126641301Y-79985626D01*
X126641000Y-79979500D01*
X126641000Y-79229500D01*
X126641301Y-79223374D01*
X126642201Y-79217307D01*
X126643691Y-79211357D01*
X126645758Y-79205582D01*
X126648380Y-79200038D01*
X126651533Y-79194777D01*
X126655187Y-79189850D01*
X126659306Y-79185306D01*
X126663850Y-79181187D01*
X126668777Y-79177533D01*
X126674038Y-79174380D01*
X126679582Y-79171758D01*
X126685357Y-79169691D01*
X126691307Y-79168201D01*
X126697374Y-79167301D01*
X126703500Y-79167000D01*
X126828500Y-79167000D01*
X126834626Y-79167301D01*
X126834626Y-79167301D01*
G37*
D20*
X126766000Y-79604500D03*
D10*
G36*
X126334626Y-79167301D02*
G01*
X126340693Y-79168201D01*
X126346643Y-79169691D01*
X126352418Y-79171758D01*
X126357962Y-79174380D01*
X126363223Y-79177533D01*
X126368150Y-79181187D01*
X126372694Y-79185306D01*
X126376813Y-79189850D01*
X126380467Y-79194777D01*
X126383620Y-79200038D01*
X126386242Y-79205582D01*
X126388309Y-79211357D01*
X126389799Y-79217307D01*
X126390699Y-79223374D01*
X126391000Y-79229500D01*
X126391000Y-79979500D01*
X126390699Y-79985626D01*
X126389799Y-79991693D01*
X126388309Y-79997643D01*
X126386242Y-80003418D01*
X126383620Y-80008962D01*
X126380467Y-80014223D01*
X126376813Y-80019150D01*
X126372694Y-80023694D01*
X126368150Y-80027813D01*
X126363223Y-80031467D01*
X126357962Y-80034620D01*
X126352418Y-80037242D01*
X126346643Y-80039309D01*
X126340693Y-80040799D01*
X126334626Y-80041699D01*
X126328500Y-80042000D01*
X126203500Y-80042000D01*
X126197374Y-80041699D01*
X126191307Y-80040799D01*
X126185357Y-80039309D01*
X126179582Y-80037242D01*
X126174038Y-80034620D01*
X126168777Y-80031467D01*
X126163850Y-80027813D01*
X126159306Y-80023694D01*
X126155187Y-80019150D01*
X126151533Y-80014223D01*
X126148380Y-80008962D01*
X126145758Y-80003418D01*
X126143691Y-79997643D01*
X126142201Y-79991693D01*
X126141301Y-79985626D01*
X126141000Y-79979500D01*
X126141000Y-79229500D01*
X126141301Y-79223374D01*
X126142201Y-79217307D01*
X126143691Y-79211357D01*
X126145758Y-79205582D01*
X126148380Y-79200038D01*
X126151533Y-79194777D01*
X126155187Y-79189850D01*
X126159306Y-79185306D01*
X126163850Y-79181187D01*
X126168777Y-79177533D01*
X126174038Y-79174380D01*
X126179582Y-79171758D01*
X126185357Y-79169691D01*
X126191307Y-79168201D01*
X126197374Y-79167301D01*
X126203500Y-79167000D01*
X126328500Y-79167000D01*
X126334626Y-79167301D01*
X126334626Y-79167301D01*
G37*
D20*
X126266000Y-79604500D03*
M02*
