<?xml version="1.0" standalone="no"?>
 <!DOCTYPE svg PUBLIC "-//W3C//DTD SVG 1.1//EN" 
 "http://www.w3.org/Graphics/SVG/1.1/DTD/svg11.dtd"> 
<svg xmlns="http://www.w3.org/2000/svg" version="1.1" 
    width="29.7002cm" height="21.0007cm" viewBox="0 0 116930 82680 ">
<title>SVG Picture created as neopixel-NeoPixel 3.svg date 2019/03/16 17:22:22 </title>
  <desc>Picture generated by Eeschema-SVG </desc>
<g style="fill:#000000; fill-opacity:1;stroke:#000000; stroke-opacity:1;
stroke-linecap:round; stroke-linejoin:round; "
 transform="translate(0 0) scale(1 1)">
</g>
<g style="fill:#000000; fill-opacity:0.0; 
stroke:#000000; stroke-width:-10; stroke-opacity:1; 
stroke-linecap:round; stroke-linejoin:round;">
</g>
<g style="fill:#840000; fill-opacity:0.0; 
stroke:#840000; stroke-width:-10; stroke-opacity:1; 
stroke-linecap:round; stroke-linejoin:round;">
</g>
<g style="fill:#840000; fill-opacity:0.0; 
stroke:#840000; stroke-width:100; stroke-opacity:1; 
stroke-linecap:round; stroke-linejoin:round;">
</g>
<g style="fill:#840000; fill-opacity:0.0; 
stroke:#840000; stroke-width:60; stroke-opacity:1; 
stroke-linecap:round; stroke-linejoin:round;">
<rect x="69690" y="65360" width="42520" height="12600" rx="0" />
</g>
<g style="fill:#840000; fill-opacity:0.0; 
stroke:#840000; stroke-width:100; stroke-opacity:1; 
stroke-linecap:round; stroke-linejoin:round;">
</g>
<g style="fill:#840000; fill-opacity:0.0; 
stroke:#840000; stroke-width:60; stroke-opacity:1; 
stroke-linecap:round; stroke-linejoin:round;">
<rect x="3940" y="3940" width="109050" height="74800" rx="0" />
</g>
<g style="fill:#840000; fill-opacity:0.0; 
stroke:#840000; stroke-width:100; stroke-opacity:1; 
stroke-linecap:round; stroke-linejoin:round;">
</g>
<g style="fill:#840000; fill-opacity:0.0; 
stroke:#840000; stroke-width:60; stroke-opacity:1; 
stroke-linecap:round; stroke-linejoin:round;">
<rect x="4720" y="4720" width="107490" height="73240" rx="0" />
</g>
<g style="fill:#840000; fill-opacity:0.0; 
stroke:#840000; stroke-width:100; stroke-opacity:1; 
stroke-linecap:round; stroke-linejoin:round;">
</g>
<g style="fill:#840000; fill-opacity:0.0; 
stroke:#840000; stroke-width:60; stroke-opacity:1; 
stroke-linecap:round; stroke-linejoin:round;">
<path d="M23620 4720
L23620 3940
" />
</g>
<g style="fill:#840000; fill-opacity:0.0; 
stroke:#840000; stroke-width:100; stroke-opacity:1; 
stroke-linecap:round; stroke-linejoin:round;">
</g>
<g style="fill:#840000; fill-opacity:0.0; 
stroke:#840000; stroke-width:60; stroke-opacity:1; 
stroke-linecap:round; stroke-linejoin:round;">
<path d="M43310 4720
L43310 3940
" />
</g>
<g style="fill:#840000; fill-opacity:0.0; 
stroke:#840000; stroke-width:100; stroke-opacity:1; 
stroke-linecap:round; stroke-linejoin:round;">
</g>
<g style="fill:#840000; fill-opacity:0.0; 
stroke:#840000; stroke-width:60; stroke-opacity:1; 
stroke-linecap:round; stroke-linejoin:round;">
<path d="M62990 4720
L62990 3940
" />
</g>
<g style="fill:#840000; fill-opacity:0.0; 
stroke:#840000; stroke-width:100; stroke-opacity:1; 
stroke-linecap:round; stroke-linejoin:round;">
</g>
<g style="fill:#840000; fill-opacity:0.0; 
stroke:#840000; stroke-width:60; stroke-opacity:1; 
stroke-linecap:round; stroke-linejoin:round;">
<path d="M82680 4720
L82680 3940
" />
</g>
<g style="fill:#840000; fill-opacity:0.0; 
stroke:#840000; stroke-width:100; stroke-opacity:1; 
stroke-linecap:round; stroke-linejoin:round;">
</g>
<g style="fill:#840000; fill-opacity:0.0; 
stroke:#840000; stroke-width:60; stroke-opacity:1; 
stroke-linecap:round; stroke-linejoin:round;">
<path d="M102360 4720
L102360 3940
" />
</g>
<g style="fill:#840000; fill-opacity:0.0; 
stroke:#840000; stroke-width:100; stroke-opacity:1; 
stroke-linecap:round; stroke-linejoin:round;">
</g>
<g style="fill:#840000; fill-opacity:0.0; 
stroke:#840000; stroke-width:60; stroke-opacity:1; 
stroke-linecap:round; stroke-linejoin:round;">
<path d="M14190 4560
L13900 4560
" />
<path d="M14050 4560
L14050 4050
L14000 4120
L13950 4170
L13900 4190
" />
</g>
<g style="fill:#840000; fill-opacity:0.0; 
stroke:#840000; stroke-width:100; stroke-opacity:1; 
stroke-linecap:round; stroke-linejoin:round;">
</g>
<g style="fill:#840000; fill-opacity:0.0; 
stroke:#840000; stroke-width:60; stroke-opacity:1; 
stroke-linecap:round; stroke-linejoin:round;">
<path d="M33580 4090
L33610 4070
L33660 4050
L33780 4050
L33830 4070
L33850 4090
L33870 4140
L33870 4190
L33850 4260
L33560 4560
L33870 4560
" />
</g>
<g style="fill:#840000; fill-opacity:0.0; 
stroke:#840000; stroke-width:100; stroke-opacity:1; 
stroke-linecap:round; stroke-linejoin:round;">
</g>
<g style="fill:#840000; fill-opacity:0.0; 
stroke:#840000; stroke-width:60; stroke-opacity:1; 
stroke-linecap:round; stroke-linejoin:round;">
<path d="M53250 4050
L53560 4050
L53390 4240
L53470 4240
L53520 4260
L53540 4290
L53560 4340
L53560 4460
L53540 4510
L53520 4530
L53470 4560
L53320 4560
L53270 4530
L53250 4510
" />
</g>
<g style="fill:#840000; fill-opacity:0.0; 
stroke:#840000; stroke-width:100; stroke-opacity:1; 
stroke-linecap:round; stroke-linejoin:round;">
</g>
<g style="fill:#840000; fill-opacity:0.0; 
stroke:#840000; stroke-width:60; stroke-opacity:1; 
stroke-linecap:round; stroke-linejoin:round;">
<path d="M73200 4220
L73200 4560
" />
<path d="M73070 4020
L72950 4390
L73270 4390
" />
</g>
<g style="fill:#840000; fill-opacity:0.0; 
stroke:#840000; stroke-width:100; stroke-opacity:1; 
stroke-linecap:round; stroke-linejoin:round;">
</g>
<g style="fill:#840000; fill-opacity:0.0; 
stroke:#840000; stroke-width:60; stroke-opacity:1; 
stroke-linecap:round; stroke-linejoin:round;">
<path d="M92910 4050
L92670 4050
L92640 4290
L92670 4260
L92720 4240
L92840 4240
L92890 4260
L92910 4290
L92930 4340
L92930 4460
L92910 4510
L92890 4530
L92840 4560
L92720 4560
L92670 4530
L92640 4510
" />
</g>
<g style="fill:#840000; fill-opacity:0.0; 
stroke:#840000; stroke-width:100; stroke-opacity:1; 
stroke-linecap:round; stroke-linejoin:round;">
</g>
<g style="fill:#840000; fill-opacity:0.0; 
stroke:#840000; stroke-width:60; stroke-opacity:1; 
stroke-linecap:round; stroke-linejoin:round;">
<path d="M112570 4050
L112470 4050
L112420 4070
L112400 4090
L112350 4170
L112320 4260
L112320 4460
L112350 4510
L112370 4530
L112420 4560
L112520 4560
L112570 4530
L112590 4510
L112610 4460
L112610 4340
L112590 4290
L112570 4260
L112520 4240
L112420 4240
L112370 4260
L112350 4290
L112320 4340
" />
</g>
<g style="fill:#840000; fill-opacity:0.0; 
stroke:#840000; stroke-width:100; stroke-opacity:1; 
stroke-linecap:round; stroke-linejoin:round;">
</g>
<g style="fill:#840000; fill-opacity:0.0; 
stroke:#840000; stroke-width:60; stroke-opacity:1; 
stroke-linecap:round; stroke-linejoin:round;">
<path d="M23620 77960
L23620 78740
" />
</g>
<g style="fill:#840000; fill-opacity:0.0; 
stroke:#840000; stroke-width:100; stroke-opacity:1; 
stroke-linecap:round; stroke-linejoin:round;">
</g>
<g style="fill:#840000; fill-opacity:0.0; 
stroke:#840000; stroke-width:60; stroke-opacity:1; 
stroke-linecap:round; stroke-linejoin:round;">
<path d="M43310 77960
L43310 78740
" />
</g>
<g style="fill:#840000; fill-opacity:0.0; 
stroke:#840000; stroke-width:100; stroke-opacity:1; 
stroke-linecap:round; stroke-linejoin:round;">
</g>
<g style="fill:#840000; fill-opacity:0.0; 
stroke:#840000; stroke-width:60; stroke-opacity:1; 
stroke-linecap:round; stroke-linejoin:round;">
<path d="M62990 77960
L62990 78740
" />
</g>
<g style="fill:#840000; fill-opacity:0.0; 
stroke:#840000; stroke-width:100; stroke-opacity:1; 
stroke-linecap:round; stroke-linejoin:round;">
</g>
<g style="fill:#840000; fill-opacity:0.0; 
stroke:#840000; stroke-width:60; stroke-opacity:1; 
stroke-linecap:round; stroke-linejoin:round;">
<path d="M82680 77960
L82680 78740
" />
</g>
<g style="fill:#840000; fill-opacity:0.0; 
stroke:#840000; stroke-width:100; stroke-opacity:1; 
stroke-linecap:round; stroke-linejoin:round;">
</g>
<g style="fill:#840000; fill-opacity:0.0; 
stroke:#840000; stroke-width:60; stroke-opacity:1; 
stroke-linecap:round; stroke-linejoin:round;">
<path d="M102360 77960
L102360 78740
" />
</g>
<g style="fill:#840000; fill-opacity:0.0; 
stroke:#840000; stroke-width:100; stroke-opacity:1; 
stroke-linecap:round; stroke-linejoin:round;">
</g>
<g style="fill:#840000; fill-opacity:0.0; 
stroke:#840000; stroke-width:60; stroke-opacity:1; 
stroke-linecap:round; stroke-linejoin:round;">
<path d="M14190 78580
L13900 78580
" />
<path d="M14050 78580
L14050 78070
L14000 78140
L13950 78190
L13900 78210
" />
</g>
<g style="fill:#840000; fill-opacity:0.0; 
stroke:#840000; stroke-width:100; stroke-opacity:1; 
stroke-linecap:round; stroke-linejoin:round;">
</g>
<g style="fill:#840000; fill-opacity:0.0; 
stroke:#840000; stroke-width:60; stroke-opacity:1; 
stroke-linecap:round; stroke-linejoin:round;">
<path d="M33580 78110
L33610 78090
L33660 78070
L33780 78070
L33830 78090
L33850 78110
L33870 78160
L33870 78210
L33850 78280
L33560 78580
L33870 78580
" />
</g>
<g style="fill:#840000; fill-opacity:0.0; 
stroke:#840000; stroke-width:100; stroke-opacity:1; 
stroke-linecap:round; stroke-linejoin:round;">
</g>
<g style="fill:#840000; fill-opacity:0.0; 
stroke:#840000; stroke-width:60; stroke-opacity:1; 
stroke-linecap:round; stroke-linejoin:round;">
<path d="M53250 78070
L53560 78070
L53390 78260
L53470 78260
L53520 78280
L53540 78310
L53560 78360
L53560 78480
L53540 78530
L53520 78550
L53470 78580
L53320 78580
L53270 78550
L53250 78530
" />
</g>
<g style="fill:#840000; fill-opacity:0.0; 
stroke:#840000; stroke-width:100; stroke-opacity:1; 
stroke-linecap:round; stroke-linejoin:round;">
</g>
<g style="fill:#840000; fill-opacity:0.0; 
stroke:#840000; stroke-width:60; stroke-opacity:1; 
stroke-linecap:round; stroke-linejoin:round;">
<path d="M73200 78240
L73200 78580
" />
<path d="M73070 78040
L72950 78410
L73270 78410
" />
</g>
<g style="fill:#840000; fill-opacity:0.0; 
stroke:#840000; stroke-width:100; stroke-opacity:1; 
stroke-linecap:round; stroke-linejoin:round;">
</g>
<g style="fill:#840000; fill-opacity:0.0; 
stroke:#840000; stroke-width:60; stroke-opacity:1; 
stroke-linecap:round; stroke-linejoin:round;">
<path d="M92910 78070
L92670 78070
L92640 78310
L92670 78280
L92720 78260
L92840 78260
L92890 78280
L92910 78310
L92930 78360
L92930 78480
L92910 78530
L92890 78550
L92840 78580
L92720 78580
L92670 78550
L92640 78530
" />
</g>
<g style="fill:#840000; fill-opacity:0.0; 
stroke:#840000; stroke-width:100; stroke-opacity:1; 
stroke-linecap:round; stroke-linejoin:round;">
</g>
<g style="fill:#840000; fill-opacity:0.0; 
stroke:#840000; stroke-width:60; stroke-opacity:1; 
stroke-linecap:round; stroke-linejoin:round;">
<path d="M112570 78070
L112470 78070
L112420 78090
L112400 78110
L112350 78190
L112320 78280
L112320 78480
L112350 78530
L112370 78550
L112420 78580
L112520 78580
L112570 78550
L112590 78530
L112610 78480
L112610 78360
L112590 78310
L112570 78280
L112520 78260
L112420 78260
L112370 78280
L112350 78310
L112320 78360
" />
</g>
<g style="fill:#840000; fill-opacity:0.0; 
stroke:#840000; stroke-width:100; stroke-opacity:1; 
stroke-linecap:round; stroke-linejoin:round;">
</g>
<g style="fill:#840000; fill-opacity:0.0; 
stroke:#840000; stroke-width:60; stroke-opacity:1; 
stroke-linecap:round; stroke-linejoin:round;">
<path d="M3940 23620
L4720 23620
" />
</g>
<g style="fill:#840000; fill-opacity:0.0; 
stroke:#840000; stroke-width:100; stroke-opacity:1; 
stroke-linecap:round; stroke-linejoin:round;">
</g>
<g style="fill:#840000; fill-opacity:0.0; 
stroke:#840000; stroke-width:60; stroke-opacity:1; 
stroke-linecap:round; stroke-linejoin:round;">
<path d="M3940 43310
L4720 43310
" />
</g>
<g style="fill:#840000; fill-opacity:0.0; 
stroke:#840000; stroke-width:100; stroke-opacity:1; 
stroke-linecap:round; stroke-linejoin:round;">
</g>
<g style="fill:#840000; fill-opacity:0.0; 
stroke:#840000; stroke-width:60; stroke-opacity:1; 
stroke-linecap:round; stroke-linejoin:round;">
<path d="M3940 62990
L4720 62990
" />
</g>
<g style="fill:#840000; fill-opacity:0.0; 
stroke:#840000; stroke-width:100; stroke-opacity:1; 
stroke-linecap:round; stroke-linejoin:round;">
</g>
<g style="fill:#840000; fill-opacity:0.0; 
stroke:#840000; stroke-width:60; stroke-opacity:1; 
stroke-linecap:round; stroke-linejoin:round;">
<path d="M4200 13860
L4450 13860
" />
<path d="M4160 14010
L4330 13500
L4500 14010
" />
</g>
<g style="fill:#840000; fill-opacity:0.0; 
stroke:#840000; stroke-width:100; stroke-opacity:1; 
stroke-linecap:round; stroke-linejoin:round;">
</g>
<g style="fill:#840000; fill-opacity:0.0; 
stroke:#840000; stroke-width:60; stroke-opacity:1; 
stroke-linecap:round; stroke-linejoin:round;">
<path d="M4360 33420
L4430 33440
L4460 33470
L4480 33520
L4480 33590
L4460 33640
L4430 33660
L4390 33690
L4190 33690
L4190 33180
L4360 33180
L4410 33200
L4430 33220
L4460 33270
L4460 33320
L4430 33370
L4410 33390
L4360 33420
L4190 33420
" />
</g>
<g style="fill:#840000; fill-opacity:0.0; 
stroke:#840000; stroke-width:100; stroke-opacity:1; 
stroke-linecap:round; stroke-linejoin:round;">
</g>
<g style="fill:#840000; fill-opacity:0.0; 
stroke:#840000; stroke-width:60; stroke-opacity:1; 
stroke-linecap:round; stroke-linejoin:round;">
<path d="M4480 53330
L4460 53350
L4390 53380
L4340 53380
L4260 53350
L4220 53300
L4190 53250
L4170 53160
L4170 53080
L4190 52990
L4220 52940
L4260 52890
L4340 52870
L4390 52870
L4460 52890
L4480 52910
" />
</g>
<g style="fill:#840000; fill-opacity:0.0; 
stroke:#840000; stroke-width:100; stroke-opacity:1; 
stroke-linecap:round; stroke-linejoin:round;">
</g>
<g style="fill:#840000; fill-opacity:0.0; 
stroke:#840000; stroke-width:60; stroke-opacity:1; 
stroke-linecap:round; stroke-linejoin:round;">
<path d="M4190 73060
L4190 72550
L4310 72550
L4390 72570
L4430 72620
L4460 72670
L4480 72760
L4480 72840
L4460 72930
L4430 72980
L4390 73030
L4310 73060
L4190 73060
" />
</g>
<g style="fill:#840000; fill-opacity:0.0; 
stroke:#840000; stroke-width:100; stroke-opacity:1; 
stroke-linecap:round; stroke-linejoin:round;">
</g>
<g style="fill:#840000; fill-opacity:0.0; 
stroke:#840000; stroke-width:60; stroke-opacity:1; 
stroke-linecap:round; stroke-linejoin:round;">
<path d="M112990 23620
L112210 23620
" />
</g>
<g style="fill:#840000; fill-opacity:0.0; 
stroke:#840000; stroke-width:100; stroke-opacity:1; 
stroke-linecap:round; stroke-linejoin:round;">
</g>
<g style="fill:#840000; fill-opacity:0.0; 
stroke:#840000; stroke-width:60; stroke-opacity:1; 
stroke-linecap:round; stroke-linejoin:round;">
<path d="M112990 43310
L112210 43310
" />
</g>
<g style="fill:#840000; fill-opacity:0.0; 
stroke:#840000; stroke-width:100; stroke-opacity:1; 
stroke-linecap:round; stroke-linejoin:round;">
</g>
<g style="fill:#840000; fill-opacity:0.0; 
stroke:#840000; stroke-width:60; stroke-opacity:1; 
stroke-linecap:round; stroke-linejoin:round;">
<path d="M112990 62990
L112210 62990
" />
</g>
<g style="fill:#840000; fill-opacity:0.0; 
stroke:#840000; stroke-width:100; stroke-opacity:1; 
stroke-linecap:round; stroke-linejoin:round;">
</g>
<g style="fill:#840000; fill-opacity:0.0; 
stroke:#840000; stroke-width:60; stroke-opacity:1; 
stroke-linecap:round; stroke-linejoin:round;">
<path d="M112470 13860
L112720 13860
" />
<path d="M112430 14010
L112600 13500
L112770 14010
" />
</g>
<g style="fill:#840000; fill-opacity:0.0; 
stroke:#840000; stroke-width:100; stroke-opacity:1; 
stroke-linecap:round; stroke-linejoin:round;">
</g>
<g style="fill:#840000; fill-opacity:0.0; 
stroke:#840000; stroke-width:60; stroke-opacity:1; 
stroke-linecap:round; stroke-linejoin:round;">
<path d="M112630 33420
L112700 33440
L112730 33470
L112750 33520
L112750 33590
L112730 33640
L112700 33660
L112660 33690
L112460 33690
L112460 33180
L112630 33180
L112680 33200
L112700 33220
L112730 33270
L112730 33320
L112700 33370
L112680 33390
L112630 33420
L112460 33420
" />
</g>
<g style="fill:#840000; fill-opacity:0.0; 
stroke:#840000; stroke-width:100; stroke-opacity:1; 
stroke-linecap:round; stroke-linejoin:round;">
</g>
<g style="fill:#840000; fill-opacity:0.0; 
stroke:#840000; stroke-width:60; stroke-opacity:1; 
stroke-linecap:round; stroke-linejoin:round;">
<path d="M112750 53330
L112730 53350
L112660 53380
L112610 53380
L112530 53350
L112490 53300
L112460 53250
L112440 53160
L112440 53080
L112460 52990
L112490 52940
L112530 52890
L112610 52870
L112660 52870
L112730 52890
L112750 52910
" />
</g>
<g style="fill:#840000; fill-opacity:0.0; 
stroke:#840000; stroke-width:100; stroke-opacity:1; 
stroke-linecap:round; stroke-linejoin:round;">
</g>
<g style="fill:#840000; fill-opacity:0.0; 
stroke:#840000; stroke-width:60; stroke-opacity:1; 
stroke-linecap:round; stroke-linejoin:round;">
<path d="M112460 73060
L112460 72550
L112580 72550
L112660 72570
L112700 72620
L112730 72670
L112750 72760
L112750 72840
L112730 72930
L112700 72980
L112660 73030
L112580 73060
L112460 73060
" />
</g>
<g style="fill:#840000; fill-opacity:0.0; 
stroke:#840000; stroke-width:100; stroke-opacity:1; 
stroke-linecap:round; stroke-linejoin:round;">
</g>
<g style="fill:#840000; fill-opacity:0.0; 
stroke:#840000; stroke-width:60; stroke-opacity:1; 
stroke-linecap:round; stroke-linejoin:round;">
<path d="M78910 76290
L78910 75700
L79050 75700
L79130 75730
L79190 75790
L79210 75840
L79240 75950
L79240 76040
L79210 76150
L79190 76210
L79130 76260
L79050 76290
L78910 76290
" />
<path d="M79750 76290
L79750 75980
L79720 75930
L79660 75900
L79550 75900
L79500 75930
" />
<path d="M79750 76260
L79690 76290
L79550 76290
L79500 76260
L79470 76210
L79470 76150
L79500 76100
L79550 76070
L79690 76070
L79750 76040
" />
<path d="M79950 75900
L80170 75900
" />
<path d="M80030 75700
L80030 76210
L80060 76260
L80110 76290
L80170 76290
" />
<path d="M80590 76260
L80540 76290
L80420 76290
L80370 76260
L80340 76210
L80340 75980
L80370 75930
L80420 75900
L80540 75900
L80590 75930
L80620 75980
L80620 76040
L80340 76100
" />
<path d="M80870 76240
L80900 76260
L80870 76290
L80840 76260
L80870 76240
L80870 76290
" />
<path d="M80870 75930
L80900 75950
L80870 75980
L80840 75950
L80870 75930
L80870 75980
" />
</g>
<g style="fill:#840000; fill-opacity:0.0; 
stroke:#840000; stroke-width:100; stroke-opacity:1; 
stroke-linecap:round; stroke-linejoin:round;">
</g>
<g style="fill:#840000; fill-opacity:0.0; 
stroke:#840000; stroke-width:60; stroke-opacity:1; 
stroke-linecap:round; stroke-linejoin:round;">
<path d="M69690 76580
L112210 76580
" />
</g>
<g style="fill:#840000; fill-opacity:0.0; 
stroke:#840000; stroke-width:100; stroke-opacity:1; 
stroke-linecap:round; stroke-linejoin:round;">
</g>
<g style="fill:#840000; fill-opacity:0.0; 
stroke:#840000; stroke-width:60; stroke-opacity:1; 
stroke-linecap:round; stroke-linejoin:round;">
<path d="M70250 77390
L70250 76800
" />
<path d="M70580 77390
L70330 77050
" />
<path d="M70580 76800
L70250 77140
" />
<path d="M70840 77390
L70840 77000
" />
<path d="M70840 76800
L70810 76830
L70840 76860
L70860 76830
L70840 76800
L70840 76860
" />
<path d="M71450 77340
L71430 77360
L71340 77390
L71290 77390
L71200 77360
L71140 77310
L71120 77250
L71090 77140
L71090 77050
L71120 76940
L71140 76890
L71200 76830
L71290 76800
L71340 76800
L71430 76830
L71450 76860
" />
<path d="M71960 77390
L71960 77080
L71930 77030
L71880 77000
L71760 77000
L71710 77030
" />
<path d="M71960 77360
L71900 77390
L71760 77390
L71710 77360
L71680 77310
L71680 77250
L71710 77200
L71760 77170
L71900 77170
L71960 77140
" />
<path d="M72490 77390
L72490 76800
" />
<path d="M72490 77360
L72440 77390
L72320 77390
L72270 77360
L72240 77340
L72210 77280
L72210 77110
L72240 77050
L72270 77030
L72320 77000
L72440 77000
L72490 77030
" />
<path d="M73220 77080
L73420 77080
" />
<path d="M73500 77390
L73220 77390
L73220 76800
L73500 76800
" />
<path d="M73760 77340
L73790 77360
L73760 77390
L73730 77360
L73760 77340
L73760 77390
" />
<path d="M74040 77390
L74040 76800
L74180 76800
L74260 76830
L74320 76890
L74350 76940
L74380 77050
L74380 77140
L74350 77250
L74320 77310
L74260 77360
L74180 77390
L74040 77390
" />
<path d="M74630 77340
L74660 77360
L74630 77390
L74600 77360
L74630 77340
L74630 77390
" />
<path d="M74880 77220
L75160 77220
" />
<path d="M74830 77390
L75020 76800
L75220 77390
" />
<path d="M75420 77340
L75440 77360
L75420 77390
L75390 77360
L75420 77340
L75420 77390
" />
<path d="M76600 77390
L76600 76800
" />
<path d="M76650 77170
L76820 77390
" />
<path d="M76820 77000
L76600 77220
" />
<path d="M77070 77390
L77070 77000
" />
<path d="M77070 76800
L77040 76830
L77070 76860
L77100 76830
L77070 76800
L77070 76860
" />
<path d="M77610 77360
L77550 77390
L77440 77390
L77380 77360
L77350 77340
L77330 77280
L77330 77110
L77350 77050
L77380 77030
L77440 77000
L77550 77000
L77610 77030
" />
<path d="M78110 77390
L78110 77080
L78080 77030
L78030 77000
L77920 77000
L77860 77030
" />
<path d="M78110 77360
L78060 77390
L77920 77390
L77860 77360
L77830 77310
L77830 77250
L77860 77200
L77920 77170
L78060 77170
L78110 77140
" />
<path d="M78650 77390
L78650 76800
" />
<path d="M78650 77360
L78590 77390
L78480 77390
L78420 77360
L78390 77340
L78370 77280
L78370 77110
L78390 77050
L78420 77030
L78480 77000
L78590 77000
L78650 77030
" />
<path d="M79550 77620
L79520 77590
L79460 77500
L79430 77450
L79400 77360
L79380 77220
L79380 77110
L79400 76970
L79430 76890
L79460 76830
L79520 76750
L79550 76720
" />
<path d="M80050 76800
L79770 76800
L79740 77080
L79770 77050
L79830 77030
L79970 77030
L80020 77050
L80050 77080
L80080 77140
L80080 77280
L80050 77340
L80020 77360
L79970 77390
L79830 77390
L79770 77360
L79740 77340
" />
<path d="M80330 77340
L80360 77360
L80330 77390
L80300 77360
L80330 77340
L80330 77390
" />
<path d="M80920 77390
L80580 77390
" />
<path d="M80750 77390
L80750 76800
L80700 76890
L80640 76940
L80580 76970
" />
<path d="M81170 77340
L81200 77360
L81170 77390
L81150 77360
L81170 77340
L81170 77390
" />
<path d="M81570 76800
L81620 76800
L81680 76830
L81710 76860
L81740 76910
L81760 77030
L81760 77170
L81740 77280
L81710 77340
L81680 77360
L81620 77390
L81570 77390
L81510 77360
L81480 77340
L81460 77280
L81430 77170
L81430 77030
L81460 76910
L81480 76860
L81510 76830
L81570 76800
" />
<path d="M81960 77620
L81990 77590
L82050 77500
L82070 77450
L82100 77360
L82130 77220
L82130 77110
L82100 76970
L82070 76890
L82050 76830
L81990 76750
L81960 76720
" />
<path d="M82410 77170
L82860 77170
" />
<path d="M83450 77390
L83110 77390
" />
<path d="M83280 77390
L83280 76800
L83230 76890
L83170 76940
L83110 76970
" />
</g>
<g style="fill:#840000; fill-opacity:0.0; 
stroke:#840000; stroke-width:100; stroke-opacity:1; 
stroke-linecap:round; stroke-linejoin:round;">
</g>
<g style="fill:#840000; fill-opacity:0.0; 
stroke:#840000; stroke-width:60; stroke-opacity:1; 
stroke-linecap:round; stroke-linejoin:round;">
<path d="M69690 75400
L112210 75400
" />
</g>
<g style="fill:#840000; fill-opacity:0.0; 
stroke:#840000; stroke-width:100; stroke-opacity:1; 
stroke-linecap:round; stroke-linejoin:round;">
</g>
<g style="fill:#840000; fill-opacity:0.0; 
stroke:#840000; stroke-width:120; stroke-opacity:1; 
stroke-linecap:round; stroke-linejoin:round;">
<path d="M104090 76290
L103890 76010
" />
<path d="M103750 76290
L103750 75700
L103980 75700
L104030 75730
L104060 75760
L104090 75810
L104090 75900
L104060 75950
L104030 75980
L103980 76010
L103750 76010
" />
<path d="M104570 76260
L104510 76290
L104400 76290
L104340 76260
L104320 76210
L104320 75980
L104340 75930
L104400 75900
L104510 75900
L104570 75930
L104600 75980
L104600 76040
L104320 76100
" />
<path d="M104790 75900
L104930 76290
L105070 75900
" />
<path d="M105300 76240
L105330 76260
L105300 76290
L105270 76260
L105300 76240
L105300 76290
" />
<path d="M105300 75930
L105330 75950
L105300 75980
L105270 75950
L105300 75930
L105300 75980
" />
</g>
<g style="fill:#840000; fill-opacity:0.0; 
stroke:#840000; stroke-width:100; stroke-opacity:1; 
stroke-linecap:round; stroke-linejoin:round;">
</g>
<g style="fill:#840000; fill-opacity:0.0; 
stroke:#840000; stroke-width:60; stroke-opacity:1; 
stroke-linecap:round; stroke-linejoin:round;">
<path d="M70220 76260
L70300 76290
L70440 76290
L70500 76260
L70530 76240
L70550 76180
L70550 76120
L70530 76070
L70500 76040
L70440 76010
L70330 75980
L70270 75950
L70250 75930
L70220 75870
L70220 75810
L70250 75760
L70270 75730
L70330 75700
L70470 75700
L70550 75730
" />
<path d="M70810 76290
L70810 75900
" />
<path d="M70810 75700
L70780 75730
L70810 75760
L70840 75730
L70810 75700
L70810 75760
" />
<path d="M71030 75900
L71340 75900
L71030 76290
L71340 76290
" />
<path d="M71790 76260
L71730 76290
L71620 76290
L71570 76260
L71540 76210
L71540 75980
L71570 75930
L71620 75900
L71730 75900
L71790 75930
L71820 75980
L71820 76040
L71540 76100
" />
<path d="M72070 76240
L72100 76260
L72070 76290
L72040 76260
L72070 76240
L72070 76290
" />
<path d="M72070 75930
L72100 75950
L72070 75980
L72040 75950
L72070 75930
L72070 75980
" />
<path d="M72770 76120
L73060 76120
" />
<path d="M72720 76290
L72910 75700
L73110 76290
" />
<path d="M73560 75900
L73560 76290
" />
<path d="M73420 75670
L73280 76100
L73650 76100
" />
</g>
<g style="fill:#840000; fill-opacity:0.0; 
stroke:#840000; stroke-width:100; stroke-opacity:1; 
stroke-linecap:round; stroke-linejoin:round;">
</g>
<g style="fill:#840000; fill-opacity:0.0; 
stroke:#840000; stroke-width:60; stroke-opacity:1; 
stroke-linecap:round; stroke-linejoin:round;">
<path d="M103710 77390
L103710 76800
" />
<path d="M104240 77390
L104240 76800
" />
<path d="M104240 77360
L104180 77390
L104070 77390
L104010 77360
L103990 77340
L103960 77280
L103960 77110
L103990 77050
L104010 77030
L104070 77000
L104180 77000
L104240 77030
" />
<path d="M104520 77340
L104550 77360
L104520 77390
L104490 77360
L104520 77340
L104520 77390
" />
<path d="M104520 77030
L104550 77050
L104520 77080
L104490 77050
L104520 77030
L104520 77080
" />
<path d="M105500 77000
L105500 77390
" />
<path d="M105360 76770
L105220 77200
L105590 77200
" />
<path d="M106230 76770
L105730 77530
" />
<path d="M106710 76800
L106430 76800
L106400 77080
L106430 77050
L106490 77030
L106630 77030
L106680 77050
L106710 77080
L106740 77140
L106740 77280
L106710 77340
L106680 77360
L106630 77390
L106490 77390
L106430 77360
L106400 77340
" />
</g>
<g style="fill:#840000; fill-opacity:0.0; 
stroke:#840000; stroke-width:100; stroke-opacity:1; 
stroke-linecap:round; stroke-linejoin:round;">
</g>
<g style="fill:#840000; fill-opacity:0.0; 
stroke:#840000; stroke-width:60; stroke-opacity:1; 
stroke-linecap:round; stroke-linejoin:round;">
<path d="M69690 73820
L112210 73820
" />
</g>
<g style="fill:#840000; fill-opacity:0.0; 
stroke:#840000; stroke-width:100; stroke-opacity:1; 
stroke-linecap:round; stroke-linejoin:round;">
</g>
<g style="fill:#840000; fill-opacity:0.0; 
stroke:#840000; stroke-width:160; stroke-opacity:1; 
stroke-linecap:round; stroke-linejoin:round;">
<path d="M70360 74090
L70810 74090
" />
<path d="M70480 74880
L70580 74090
" />
<path d="M70970 74880
L71040 74360
" />
<path d="M71070 74090
L71030 74130
L71060 74170
L71110 74130
L71070 74090
L71060 74170
" />
<path d="M71300 74360
L71600 74360
" />
<path d="M71450 74090
L71360 74770
L71390 74840
L71460 74880
L71540 74880
" />
<path d="M71910 74880
L71840 74840
L71820 74770
L71900 74090
" />
<path d="M72520 74840
L72440 74880
L72290 74880
L72220 74840
L72190 74770
L72230 74470
L72280 74390
L72360 74360
L72510 74360
L72580 74390
L72610 74470
L72600 74540
L72210 74620
" />
<path d="M72900 74810
L72930 74840
L72890 74880
L72860 74840
L72900 74810
L72890 74880
" />
<path d="M72950 74390
L72990 74430
L72940 74470
L72910 74430
L72950 74390
L72940 74470
" />
<path d="M73870 74880
L73970 74090
L74320 74880
L74420 74090
" />
<path d="M75000 74840
L74920 74880
L74770 74880
L74700 74840
L74670 74770
L74710 74470
L74760 74390
L74840 74360
L74990 74360
L75060 74390
L75090 74470
L75080 74540
L74690 74620
" />
<path d="M75490 74880
L75420 74840
L75380 74810
L75360 74730
L75380 74510
L75430 74430
L75470 74390
L75550 74360
L75670 74360
L75740 74390
L75770 74430
L75800 74510
L75770 74730
L75720 74810
L75680 74840
L75600 74880
L75490 74880
" />
<path d="M76090 74880
L76190 74090
L76490 74090
L76560 74130
L76590 74170
L76620 74240
L76610 74360
L76560 74430
L76520 74470
L76440 74510
L76140 74510
" />
<path d="M76880 74880
L76950 74360
" />
<path d="M76980 74090
L76940 74130
L76970 74170
L77010 74130
L76980 74090
L76970 74170
" />
<path d="M77180 74880
L77660 74360
" />
<path d="M77250 74360
L77590 74880
" />
<path d="M78200 74840
L78120 74880
L77970 74880
L77900 74840
L77870 74770
L77910 74470
L77960 74390
L78040 74360
L78190 74360
L78260 74390
L78290 74470
L78280 74540
L77890 74620
" />
<path d="M78690 74880
L78620 74840
L78590 74770
L78670 74090
" />
<path d="M79570 74090
L80030 74090
" />
<path d="M79700 74880
L79800 74090
" />
<path d="M80180 74360
L80300 74880
" />
<path d="M80560 74360
L80300 74880
L80200 75070
L80160 75110
L80080 75150
" />
<path d="M80860 74360
L80760 75150
" />
<path d="M80850 74390
L80930 74360
L81080 74360
L81150 74390
L81190 74430
L81220 74510
L81190 74730
L81140 74810
L81100 74840
L81020 74880
L80870 74880
L80800 74840
" />
<path d="M81810 74840
L81730 74880
L81580 74880
L81510 74840
L81480 74770
L81520 74470
L81570 74390
L81650 74360
L81800 74360
L81870 74390
L81900 74470
L81890 74540
L81500 74620
" />
<path d="M83250 74810
L83200 74840
L83090 74880
L83010 74880
L82900 74840
L82840 74770
L82810 74690
L82790 74540
L82800 74430
L82860 74280
L82910 74210
L82990 74130
L83110 74090
L83190 74090
L83290 74130
L83330 74170
" />
<path d="M83580 74880
L83640 74360
" />
<path d="M83670 74090
L83630 74130
L83670 74170
L83710 74130
L83670 74090
L83670 74170
" />
<path d="M83950 74880
L84020 74360
" />
<path d="M84000 74510
L84050 74430
L84090 74390
L84170 74360
L84240 74360
" />
<path d="M84780 74840
L84700 74880
L84550 74880
L84480 74840
L84450 74810
L84420 74730
L84450 74510
L84500 74430
L84540 74390
L84620 74360
L84770 74360
L84840 74390
" />
<path d="M85520 74360
L85460 74880
" />
<path d="M85180 74360
L85130 74770
L85160 74840
L85230 74880
L85340 74880
L85420 74840
L85470 74810
" />
<path d="M85830 74880
L85900 74360
" />
<path d="M85930 74090
L85890 74130
L85920 74170
L85960 74130
L85930 74090
L85920 74170
" />
<path d="M86160 74360
L86460 74360
" />
<path d="M86310 74090
L86220 74770
L86250 74840
L86320 74880
L86400 74880
" />
</g>
<g style="fill:#840000; fill-opacity:0.0; 
stroke:#840000; stroke-width:100; stroke-opacity:1; 
stroke-linecap:round; stroke-linejoin:round;">
</g>
<g style="fill:#840000; fill-opacity:0.0; 
stroke:#840000; stroke-width:60; stroke-opacity:1; 
stroke-linecap:round; stroke-linejoin:round;">
<path d="M70440 73060
L70250 73060
" />
<path d="M70250 73370
L70250 72780
L70530 72780
" />
<path d="M70750 73370
L70750 72980
" />
<path d="M70750 72780
L70720 72810
L70750 72840
L70780 72810
L70750 72780
L70750 72840
" />
<path d="M71120 73370
L71060 73340
L71030 73290
L71030 72780
" />
<path d="M71570 73340
L71510 73370
L71400 73370
L71340 73340
L71310 73290
L71310 73060
L71340 73010
L71400 72980
L71510 72980
L71570 73010
L71590 73060
L71590 73120
L71310 73180
" />
<path d="M71850 73320
L71880 73340
L71850 73370
L71820 73340
L71850 73320
L71850 73370
" />
<path d="M71850 73010
L71880 73030
L71850 73060
L71820 73030
L71850 73010
L71850 73060
" />
<path d="M72580 72980
L72580 73370
" />
<path d="M72580 73030
L72610 73010
L72660 72980
L72750 72980
L72800 73010
L72830 73060
L72830 73370
" />
<path d="M73340 73340
L73280 73370
L73170 73370
L73110 73340
L73080 73290
L73080 73060
L73110 73010
L73170 72980
L73280 72980
L73340 73010
L73360 73060
L73360 73120
L73080 73180
" />
<path d="M73700 73370
L73650 73340
L73620 73320
L73590 73260
L73590 73090
L73620 73030
L73650 73010
L73700 72980
L73790 72980
L73840 73010
L73870 73030
L73900 73090
L73900 73260
L73870 73320
L73840 73340
L73790 73370
L73700 73370
" />
<path d="M74150 72980
L74150 73570
" />
<path d="M74150 73010
L74210 72980
L74320 72980
L74380 73010
L74400 73030
L74430 73090
L74430 73260
L74400 73320
L74380 73340
L74320 73370
L74210 73370
L74150 73340
" />
<path d="M74680 73370
L74680 72980
" />
<path d="M74680 72780
L74660 72810
L74680 72840
L74710 72810
L74680 72780
L74680 72840
" />
<path d="M74910 73370
L75220 72980
" />
<path d="M74910 72980
L75220 73370
" />
<path d="M75670 73340
L75610 73370
L75500 73370
L75440 73340
L75420 73290
L75420 73060
L75440 73010
L75500 72980
L75610 72980
L75670 73010
L75700 73060
L75700 73120
L75420 73180
" />
<path d="M76030 73370
L75980 73340
L75950 73290
L75950 72780
" />
<path d="M76260 73320
L76290 73340
L76260 73370
L76230 73340
L76260 73320
L76260 73370
" />
<path d="M76510 73340
L76570 73370
L76680 73370
L76740 73340
L76760 73290
L76760 73260
L76740 73200
L76680 73180
L76600 73180
L76540 73150
L76510 73090
L76510 73060
L76540 73010
L76600 72980
L76680 72980
L76740 73010
" />
<path d="M77270 73340
L77210 73370
L77100 73370
L77040 73340
L77020 73320
L76990 73260
L76990 73090
L77020 73030
L77040 73010
L77100 72980
L77210 72980
L77270 73010
" />
<path d="M77520 73370
L77520 72780
" />
<path d="M77780 73370
L77780 73060
L77750 73010
L77690 72980
L77610 72980
L77550 73010
L77520 73030
" />
</g>
<g style="fill:#840000; fill-opacity:0.0; 
stroke:#840000; stroke-width:100; stroke-opacity:1; 
stroke-linecap:round; stroke-linejoin:round;">
</g>
<g style="fill:#840000; fill-opacity:0.0; 
stroke:#840000; stroke-width:60; stroke-opacity:1; 
stroke-linecap:round; stroke-linejoin:round;">
<path d="M69690 71460
L112210 71460
" />
</g>
<g style="fill:#840000; fill-opacity:0.0; 
stroke:#840000; stroke-width:100; stroke-opacity:1; 
stroke-linecap:round; stroke-linejoin:round;">
</g>
<g style="fill:#840000; fill-opacity:0.0; 
stroke:#840000; stroke-width:60; stroke-opacity:1; 
stroke-linecap:round; stroke-linejoin:round;">
<path d="M70220 72280
L70300 72310
L70440 72310
L70500 72280
L70530 72260
L70550 72200
L70550 72140
L70530 72090
L70500 72060
L70440 72030
L70330 72000
L70270 71970
L70250 71950
L70220 71890
L70220 71830
L70250 71780
L70270 71750
L70330 71720
L70470 71720
L70550 71750
" />
<path d="M70810 72310
L70810 71720
" />
<path d="M71060 72310
L71060 72000
L71030 71950
L70980 71920
L70890 71920
L70840 71950
L70810 71970
" />
<path d="M71570 72280
L71510 72310
L71400 72310
L71340 72280
L71310 72230
L71310 72000
L71340 71950
L71400 71920
L71510 71920
L71570 71950
L71590 72000
L71590 72060
L71310 72120
" />
<path d="M72070 72280
L72020 72310
L71900 72310
L71850 72280
L71820 72230
L71820 72000
L71850 71950
L71900 71920
L72020 71920
L72070 71950
L72100 72000
L72100 72060
L71820 72120
" />
<path d="M72270 71920
L72490 71920
" />
<path d="M72350 71720
L72350 72230
L72380 72280
L72440 72310
L72490 72310
" />
<path d="M72690 72260
L72720 72280
L72690 72310
L72660 72280
L72690 72260
L72690 72310
" />
<path d="M72690 71950
L72720 71970
L72690 72000
L72660 71970
L72690 71950
L72690 72000
" />
<path d="M73840 71690
L73340 72450
" />
<path d="M74040 72310
L74040 71720
L74380 72310
L74380 71720
" />
<path d="M74880 72280
L74830 72310
L74710 72310
L74660 72280
L74630 72230
L74630 72000
L74660 71950
L74710 71920
L74830 71920
L74880 71950
L74910 72000
L74910 72060
L74630 72120
" />
<path d="M75250 72310
L75190 72280
L75160 72260
L75130 72200
L75130 72030
L75160 71970
L75190 71950
L75250 71920
L75330 71920
L75390 71950
L75420 71970
L75440 72030
L75440 72200
L75420 72260
L75390 72280
L75330 72310
L75250 72310
" />
<path d="M75700 72310
L75700 71720
L75920 71720
L75980 71750
L76010 71780
L76030 71830
L76030 71920
L76010 71970
L75980 72000
L75920 72030
L75700 72030
" />
<path d="M76290 72310
L76290 71920
" />
<path d="M76290 71720
L76260 71750
L76290 71780
L76310 71750
L76290 71720
L76290 71780
" />
<path d="M76510 72310
L76820 71920
" />
<path d="M76510 71920
L76820 72310
" />
<path d="M77270 72280
L77210 72310
L77100 72310
L77040 72280
L77020 72230
L77020 72000
L77040 71950
L77100 71920
L77210 71920
L77270 71950
L77300 72000
L77300 72060
L77020 72120
" />
<path d="M77630 72310
L77580 72280
L77550 72230
L77550 71720
" />
<path d="M78250 71720
L78620 71720
L78420 71950
L78510 71950
L78560 71970
L78590 72000
L78620 72060
L78620 72200
L78590 72260
L78560 72280
L78510 72310
L78340 72310
L78280 72280
L78250 72260
" />
<path d="M79290 71690
L78790 72450
" />
</g>
<g style="fill:#840000; fill-opacity:0.0; 
stroke:#840000; stroke-width:100; stroke-opacity:1; 
stroke-linecap:round; stroke-linejoin:round;">
</g>
<g style="fill:#840000; fill-opacity:0.0; 
stroke:#840000; stroke-width:60; stroke-opacity:1; 
stroke-linecap:round; stroke-linejoin:round;">
<path d="M70250 66400
L70250 65810
" />
<path d="M70500 66400
L70500 66090
L70470 66040
L70410 66010
L70330 66010
L70270 66040
L70250 66060
" />
<path d="M70700 66010
L70920 66010
" />
<path d="M70780 65810
L70780 66320
L70810 66370
L70860 66400
L70920 66400
" />
<path d="M71030 66010
L71260 66010
" />
<path d="M71120 65810
L71120 66320
L71140 66370
L71200 66400
L71260 66400
" />
<path d="M71450 66010
L71450 66600
" />
<path d="M71450 66040
L71510 66010
L71620 66010
L71680 66040
L71710 66060
L71730 66120
L71730 66290
L71710 66350
L71680 66370
L71620 66400
L71510 66400
L71450 66370
" />
<path d="M71960 66370
L72020 66400
L72130 66400
L72180 66370
L72210 66320
L72210 66290
L72180 66230
L72130 66210
L72040 66210
L71990 66180
L71960 66120
L71960 66090
L71990 66040
L72040 66010
L72130 66010
L72180 66040
" />
<path d="M72470 66350
L72490 66370
L72470 66400
L72440 66370
L72470 66350
L72470 66400
" />
<path d="M72470 66040
L72490 66060
L72470 66090
L72440 66060
L72470 66040
L72470 66090
" />
<path d="M73170 65780
L72660 66540
" />
<path d="M73790 65780
L73280 66540
" />
<path d="M74240 66370
L74180 66400
L74070 66400
L74010 66370
L73980 66350
L73950 66290
L73950 66120
L73980 66060
L74010 66040
L74070 66010
L74180 66010
L74240 66040
" />
<path d="M74740 66400
L74740 65810
" />
<path d="M74740 66370
L74680 66400
L74570 66400
L74520 66370
L74490 66350
L74460 66290
L74460 66120
L74490 66060
L74520 66040
L74570 66010
L74680 66010
L74740 66040
" />
<path d="M75020 66010
L75020 66400
" />
<path d="M75020 66060
L75050 66040
L75110 66010
L75190 66010
L75250 66040
L75270 66090
L75270 66400
" />
<path d="M75560 66180
L76010 66180
" />
<path d="M76260 66370
L76310 66400
L76430 66400
L76480 66370
L76510 66320
L76510 66290
L76480 66230
L76430 66210
L76340 66210
L76290 66180
L76260 66120
L76260 66090
L76290 66040
L76340 66010
L76430 66010
L76480 66040
" />
<path d="M76760 66400
L76760 65810
" />
<path d="M77020 66400
L77020 66090
L76990 66040
L76930 66010
L76850 66010
L76790 66040
L76760 66060
" />
<path d="M77380 66400
L77330 66370
L77300 66350
L77270 66290
L77270 66120
L77300 66060
L77330 66040
L77380 66010
L77470 66010
L77520 66040
L77550 66060
L77580 66120
L77580 66290
L77550 66350
L77520 66370
L77470 66400
L77380 66400
" />
<path d="M77830 66010
L77830 66600
" />
<path d="M77830 66040
L77890 66010
L78000 66010
L78060 66040
L78080 66060
L78110 66120
L78110 66290
L78080 66350
L78060 66370
L78000 66400
L77890 66400
L77830 66370
" />
<path d="M78370 66350
L78390 66370
L78370 66400
L78340 66370
L78370 66350
L78370 66400
" />
<path d="M78900 66400
L78900 66090
L78870 66040
L78810 66010
L78700 66010
L78650 66040
" />
<path d="M78900 66370
L78840 66400
L78700 66400
L78650 66370
L78620 66320
L78620 66260
L78650 66210
L78700 66180
L78840 66180
L78900 66150
" />
<path d="M79430 66400
L79430 65810
" />
<path d="M79430 66370
L79380 66400
L79260 66400
L79210 66370
L79180 66350
L79150 66290
L79150 66120
L79180 66060
L79210 66040
L79260 66010
L79380 66010
L79430 66040
" />
<path d="M79970 66400
L79970 66090
L79940 66040
L79880 66010
L79770 66010
L79710 66040
" />
<path d="M79970 66370
L79910 66400
L79770 66400
L79710 66370
L79690 66320
L79690 66260
L79710 66210
L79770 66180
L79910 66180
L79970 66150
" />
<path d="M80160 66010
L80390 66010
" />
<path d="M80250 66400
L80250 65900
L80280 65840
L80330 65810
L80390 65810
" />
<path d="M80580 66400
L80580 66010
" />
<path d="M80580 66120
L80610 66060
L80640 66040
L80700 66010
L80750 66010
" />
<path d="M81200 66010
L81200 66400
" />
<path d="M80950 66010
L80950 66320
L80980 66370
L81030 66400
L81120 66400
L81170 66370
L81200 66350
" />
<path d="M81480 66400
L81480 66010
" />
<path d="M81480 65810
L81460 65840
L81480 65870
L81510 65840
L81480 65810
L81480 65870
" />
<path d="M81680 66010
L81910 66010
" />
<path d="M81760 65810
L81760 66320
L81790 66370
L81850 66400
L81910 66400
" />
<path d="M82100 66350
L82130 66370
L82100 66400
L82070 66370
L82100 66350
L82100 66400
" />
<path d="M82640 66370
L82580 66400
L82470 66400
L82410 66370
L82380 66350
L82350 66290
L82350 66120
L82380 66060
L82410 66040
L82470 66010
L82580 66010
L82640 66040
" />
<path d="M82970 66400
L82920 66370
L82890 66350
L82860 66290
L82860 66120
L82890 66060
L82920 66040
L82970 66010
L83060 66010
L83110 66040
L83140 66060
L83170 66120
L83170 66290
L83140 66350
L83110 66370
L83060 66400
L82970 66400
" />
<path d="M83420 66400
L83420 66010
" />
<path d="M83420 66060
L83450 66040
L83510 66010
L83590 66010
L83650 66040
L83680 66090
L83680 66400
" />
<path d="M83680 66090
L83700 66040
L83760 66010
L83840 66010
L83900 66040
L83930 66090
L83930 66400
" />
<path d="M84630 65780
L84120 66540
" />
<path d="M85080 66400
L85080 65810
" />
<path d="M85080 66370
L85020 66400
L84910 66400
L84860 66370
L84830 66350
L84800 66290
L84800 66120
L84830 66060
L84860 66040
L84910 66010
L85020 66010
L85080 66040
" />
<path d="M85610 66400
L85610 66090
L85590 66040
L85530 66010
L85420 66010
L85360 66040
" />
<path d="M85610 66370
L85560 66400
L85420 66400
L85360 66370
L85330 66320
L85330 66260
L85360 66210
L85420 66180
L85560 66180
L85610 66150
" />
<path d="M85810 66010
L86040 66010
" />
<path d="M85890 65810
L85890 66320
L85920 66370
L85980 66400
L86040 66400
" />
<path d="M86480 66400
L86480 66090
L86460 66040
L86400 66010
L86290 66010
L86230 66040
" />
<path d="M86480 66370
L86430 66400
L86290 66400
L86230 66370
L86200 66320
L86200 66260
L86230 66210
L86290 66180
L86430 66180
L86480 66150
" />
<path d="M86740 66370
L86790 66400
L86910 66400
L86960 66370
L86990 66320
L86990 66290
L86960 66230
L86910 66210
L86820 66210
L86770 66180
L86740 66120
L86740 66090
L86770 66040
L86820 66010
L86910 66010
L86960 66040
" />
<path d="M87240 66400
L87240 65810
" />
<path d="M87500 66400
L87500 66090
L87470 66040
L87410 66010
L87330 66010
L87270 66040
L87240 66060
" />
<path d="M88000 66370
L87950 66400
L87830 66400
L87780 66370
L87750 66320
L87750 66090
L87780 66040
L87830 66010
L87950 66010
L88000 66040
L88030 66090
L88030 66150
L87750 66210
" />
<path d="M88510 66370
L88450 66400
L88340 66400
L88280 66370
L88250 66320
L88250 66090
L88280 66040
L88340 66010
L88450 66010
L88510 66040
L88540 66090
L88540 66150
L88250 66210
" />
<path d="M88700 66010
L88930 66010
" />
<path d="M88790 65810
L88790 66320
L88820 66370
L88870 66400
L88930 66400
" />
<path d="M89100 66370
L89150 66400
L89270 66400
L89320 66370
L89350 66320
L89350 66290
L89320 66230
L89270 66210
L89180 66210
L89130 66180
L89100 66120
L89100 66090
L89130 66040
L89180 66010
L89270 66010
L89320 66040
" />
<path d="M90020 65780
L89520 66540
" />
<path d="M90170 65810
L90310 66400
L90420 65980
L90530 66400
L90670 65810
" />
<path d="M90870 66370
L90950 66400
L91090 66400
L91150 66370
L91180 66350
L91200 66290
L91200 66230
L91180 66180
L91150 66150
L91090 66120
L90980 66090
L90920 66060
L90900 66040
L90870 65980
L90870 65920
L90900 65870
L90920 65840
L90980 65810
L91120 65810
L91200 65840
" />
<path d="M91430 65870
L91460 65840
L91510 65810
L91650 65810
L91710 65840
L91740 65870
L91770 65920
L91770 65980
L91740 66060
L91400 66400
L91770 66400
" />
<path d="M92100 66060
L92050 66040
L92020 66010
L91990 65950
L91990 65920
L92020 65870
L92050 65840
L92100 65810
L92220 65810
L92270 65840
L92300 65870
L92330 65920
L92330 65950
L92300 66010
L92270 66040
L92220 66060
L92100 66060
L92050 66090
L92020 66120
L91990 66180
L91990 66290
L92020 66350
L92050 66370
L92100 66400
L92220 66400
L92270 66370
L92300 66350
L92330 66290
L92330 66180
L92300 66120
L92270 66090
L92220 66060
" />
<path d="M92890 66400
L92550 66400
" />
<path d="M92720 66400
L92720 65810
L92670 65900
L92610 65950
L92550 65980
" />
<path d="M93450 66400
L93120 66400
" />
<path d="M93280 66400
L93280 65810
L93230 65900
L93170 65950
L93120 65980
" />
<path d="M93710 66350
L93730 66370
L93710 66400
L93680 66370
L93710 66350
L93710 66400
" />
<path d="M93990 66010
L93990 66600
" />
<path d="M93990 66040
L94040 66010
L94150 66010
L94210 66040
L94240 66060
L94270 66120
L94270 66290
L94240 66350
L94210 66370
L94150 66400
L94040 66400
L93990 66370
" />
<path d="M94770 66400
L94770 65810
" />
<path d="M94770 66370
L94720 66400
L94600 66400
L94550 66370
L94520 66350
L94490 66290
L94490 66120
L94520 66060
L94550 66040
L94600 66010
L94720 66010
L94770 66040
" />
<path d="M94970 66010
L95190 66010
" />
<path d="M95050 66400
L95050 65900
L95080 65840
L95140 65810
L95190 65810
" />
</g>
<g style="fill:#840000; fill-opacity:0.0; 
stroke:#840000; stroke-width:100; stroke-opacity:1; 
stroke-linecap:round; stroke-linejoin:round;">
</g>
<g style="fill:#840000; fill-opacity:0.0; 
stroke:#840000; stroke-width:60; stroke-opacity:1; 
stroke-linecap:round; stroke-linejoin:round;">
<path d="M77560 75400
L77560 76580
" />
</g>
<g style="fill:#840000; fill-opacity:0.0; 
stroke:#840000; stroke-width:100; stroke-opacity:1; 
stroke-linecap:round; stroke-linejoin:round;">
</g>
<g style="fill:#840000; fill-opacity:0.0; 
stroke:#840000; stroke-width:60; stroke-opacity:1; 
stroke-linecap:round; stroke-linejoin:round;">
<path d="M102760 75400
L102760 77960
" />
</g>
<g style="fill:#848400; fill-opacity:0.0; 
stroke:#848400; stroke-width:60; stroke-opacity:1; 
stroke-linecap:round; stroke-linejoin:round;">
<path d="M46220 49220
L46220 48720
L46340 48720
L46410 48750
L46460 48790
L46480 48840
L46510 48940
L46510 49010
L46480 49100
L46460 49150
L46410 49200
L46340 49220
L46220 49220
" />
<path d="M46720 49220
L46720 48720
" />
<path d="M46960 49220
L46960 48720
L47250 49220
L47250 48720
" />
</g>
<g style="fill:#848400; fill-opacity:0.0; 
stroke:#848400; stroke-width:100; stroke-opacity:1; 
stroke-linecap:round; stroke-linejoin:round;">
<path style="fill:#848400; fill-opacity:0.0; 
stroke:#848400; stroke-width:100; stroke-opacity:1; 
stroke-linecap:round; stroke-linejoin:round;fill:none"
d="M 48000,49000
47750,48750
47500,48750
47500,49250
47750,49250
48000,49000
Z" /> 
</g>
<g style="fill:#848400; fill-opacity:0.0; 
stroke:#848400; stroke-width:60; stroke-opacity:1; 
stroke-linecap:round; stroke-linejoin:round;">
<path d="M73740 49220
L73740 48720
L73860 48720
L73930 48750
L73980 48790
L74010 48840
L74030 48940
L74030 49010
L74010 49100
L73980 49150
L73930 49200
L73860 49220
L73740 49220
" />
<path d="M74340 48720
L74430 48720
L74480 48750
L74530 48790
L74550 48890
L74550 49050
L74530 49150
L74480 49200
L74430 49220
L74340 49220
L74290 49200
L74240 49150
L74220 49050
L74220 48890
L74240 48790
L74290 48750
L74340 48720
" />
</g>
<g style="fill:#848400; fill-opacity:0.0; 
stroke:#848400; stroke-width:100; stroke-opacity:1; 
stroke-linecap:round; stroke-linejoin:round;">
<path style="fill:#848400; fill-opacity:0.0; 
stroke:#848400; stroke-width:100; stroke-opacity:1; 
stroke-linecap:round; stroke-linejoin:round;fill:none"
d="M 73500,49000
73250,48750
73000,48750
73000,49250
73250,49250
73500,49000
Z" /> 
</g>
<g style="fill:#848400; fill-opacity:0.0; 
stroke:#848400; stroke-width:0; stroke-opacity:1; 
stroke-linecap:round; stroke-linejoin:round;">
<g >
</g>
<g style="fill:#840000; fill-opacity:0.0; 
stroke:#840000; stroke-width:0; stroke-opacity:1; 
stroke-linecap:round; stroke-linejoin:round;">
</g>
<g style="fill:#FFFFC2; fill-opacity:0.0; 
stroke:#FFFFC2; stroke-width:0; stroke-opacity:1; 
stroke-linecap:round; stroke-linejoin:round;">
</g>
<g style="fill:#FFFFC2; fill-opacity:0.6; 
stroke:#FFFFC2; stroke-width:0; stroke-opacity:1; 
stroke-linecap:round; stroke-linejoin:round;">
<rect x="61000" y="38000" width="4000" height="6000" rx="0" />
</g>
<g style="fill:#840000; fill-opacity:0.6; 
stroke:#840000; stroke-width:0; stroke-opacity:1; 
stroke-linecap:round; stroke-linejoin:round;">
</g>
<g style="fill:#840000; fill-opacity:0.0; 
stroke:#840000; stroke-width:100; stroke-opacity:1; 
stroke-linecap:round; stroke-linejoin:round;">
<rect x="61000" y="38000" width="4000" height="6000" rx="0" />
</g>
<g style="fill:#840000; fill-opacity:0.0; 
stroke:#840000; stroke-width:60; stroke-opacity:1; 
stroke-linecap:round; stroke-linejoin:round;">
<path d="M62000 38000
L62000 37000
" />
</g>
<g style="fill:#008484; fill-opacity:0.0; 
stroke:#008484; stroke-width:60; stroke-opacity:1; 
stroke-linecap:round; stroke-linejoin:round;">
<path d="M61720 39940
L61720 39840
L61750 39800
L61790 39750
L61890 39730
L62050 39730
L62150 39750
L62200 39800
L62220 39840
L62220 39940
L62200 39990
L62150 40030
L62050 40060
L61890 40060
L61790 40030
L61750 39990
L61720 39940
" />
<path d="M61720 39510
L62130 39510
L62170 39490
L62200 39460
L62220 39420
L62220 39320
L62200 39270
L62170 39250
L62130 39230
L61720 39230
" />
<path d="M61720 39060
L61720 38770
" />
<path d="M62220 38920
L61720 38920
" />
<path d="M62220 38320
L61980 38490
" />
<path d="M62220 38610
L61720 38610
L61720 38420
L61750 38370
L61770 38340
L61820 38320
L61890 38320
L61940 38340
L61960 38370
L61980 38420
L61980 38610
" />
</g>
<g style="fill:#840000; fill-opacity:0.0; 
stroke:#840000; stroke-width:60; stroke-opacity:1; 
stroke-linecap:round; stroke-linejoin:round;">
<path d="M61870 37350
L61870 37640
" />
<path d="M61870 37500
L61370 37500
L61440 37540
L61490 37590
L61510 37640
" />
<path d="M63000 38000
L63000 37000
" />
</g>
<g style="fill:#008484; fill-opacity:0.0; 
stroke:#008484; stroke-width:60; stroke-opacity:1; 
stroke-linecap:round; stroke-linejoin:round;">
<path d="M62720 39940
L62720 39840
L62750 39800
L62790 39750
L62890 39730
L63050 39730
L63150 39750
L63200 39800
L63220 39840
L63220 39940
L63200 39990
L63150 40030
L63050 40060
L62890 40060
L62790 40030
L62750 39990
L62720 39940
" />
<path d="M62720 39510
L63130 39510
L63170 39490
L63200 39460
L63220 39420
L63220 39320
L63200 39270
L63170 39250
L63130 39230
L62720 39230
" />
<path d="M62720 39060
L62720 38770
" />
<path d="M63220 38920
L62720 38920
" />
<path d="M62750 38340
L62720 38390
L62720 38460
L62750 38530
L62790 38580
L62840 38610
L62940 38630
L63010 38630
L63100 38610
L63150 38580
L63200 38530
L63220 38460
L63220 38420
L63200 38340
L63170 38320
L63010 38320
L63010 38420
" />
</g>
<g style="fill:#840000; fill-opacity:0.0; 
stroke:#840000; stroke-width:60; stroke-opacity:1; 
stroke-linecap:round; stroke-linejoin:round;">
<path d="M62420 37640
L62400 37610
L62370 37570
L62370 37450
L62400 37400
L62420 37380
L62470 37350
L62510 37350
L62590 37380
L62870 37660
L62870 37350
" />
<path d="M64000 38000
L64000 37000
" />
</g>
<g style="fill:#008484; fill-opacity:0.0; 
stroke:#008484; stroke-width:60; stroke-opacity:1; 
stroke-linecap:round; stroke-linejoin:round;">
<path d="M63720 39940
L63720 39840
L63750 39800
L63790 39750
L63890 39730
L64050 39730
L64150 39750
L64200 39800
L64220 39840
L64220 39940
L64200 39990
L64150 40030
L64050 40060
L63890 40060
L63790 40030
L63750 39990
L63720 39940
" />
<path d="M63720 39510
L64130 39510
L64170 39490
L64200 39460
L64220 39420
L64220 39320
L64200 39270
L64170 39250
L64130 39230
L63720 39230
" />
<path d="M63720 39060
L63720 38770
" />
<path d="M64220 38920
L63720 38920
" />
<path d="M63960 38440
L63980 38370
L64010 38340
L64050 38320
L64130 38320
L64170 38340
L64200 38370
L64220 38420
L64220 38610
L63720 38610
L63720 38440
L63750 38390
L63770 38370
L63820 38340
L63860 38340
L63910 38370
L63940 38390
L63960 38440
L63960 38610
" />
</g>
<g style="fill:#840000; fill-opacity:0.0; 
stroke:#840000; stroke-width:60; stroke-opacity:1; 
stroke-linecap:round; stroke-linejoin:round;">
<path d="M63370 37660
L63370 37350
L63560 37520
L63560 37450
L63590 37400
L63610 37380
L63660 37350
L63780 37350
L63820 37380
L63850 37400
L63870 37450
L63870 37590
L63850 37640
L63820 37660
" />
<path d="M65000 41000
L66000 41000
" />
</g>
<g style="fill:#008484; fill-opacity:0.0; 
stroke:#008484; stroke-width:60; stroke-opacity:1; 
stroke-linecap:round; stroke-linejoin:round;">
<path d="M63620 40750
L63570 40720
L63500 40720
L63430 40750
L63380 40790
L63360 40840
L63340 40940
L63340 41010
L63360 41100
L63380 41150
L63430 41200
L63500 41220
L63550 41220
L63620 41200
L63650 41170
L63650 41010
L63550 41010
" />
<path d="M63860 41220
L63860 40720
L64150 41220
L64150 40720
" />
<path d="M64380 41220
L64380 40720
L64500 40720
L64570 40750
L64620 40790
L64650 40840
L64670 40940
L64670 41010
L64650 41100
L64620 41150
L64570 41200
L64500 41220
L64380 41220
" />
</g>
<g style="fill:#840000; fill-opacity:0.0; 
stroke:#840000; stroke-width:60; stroke-opacity:1; 
stroke-linecap:round; stroke-linejoin:round;">
<path d="M65590 40540
L65590 40870
" />
<path d="M65470 40350
L65350 40700
L65660 40700
" />
<path d="M63000 44000
L63000 45000
" />
</g>
<g style="fill:#008484; fill-opacity:0.0; 
stroke:#008484; stroke-width:60; stroke-opacity:1; 
stroke-linecap:round; stroke-linejoin:round;">
<path d="M63220 43650
L62720 43650
L62720 43530
L62750 43460
L62790 43410
L62840 43380
L62940 43360
L63010 43360
L63100 43380
L63150 43410
L63200 43460
L63220 43530
L63220 43650
" />
<path d="M62720 43050
L62720 42960
L62750 42910
L62790 42860
L62890 42840
L63050 42840
L63150 42860
L63200 42910
L63220 42960
L63220 43050
L63200 43100
L63150 43150
L63050 43170
L62890 43170
L62790 43150
L62750 43100
L62720 43050
" />
</g>
<g style="fill:#840000; fill-opacity:0.0; 
stroke:#840000; stroke-width:60; stroke-opacity:1; 
stroke-linecap:round; stroke-linejoin:round;">
<path d="M62370 44380
L62370 44610
L62610 44640
L62590 44610
L62560 44570
L62560 44450
L62590 44400
L62610 44380
L62660 44350
L62780 44350
L62820 44380
L62850 44400
L62870 44450
L62870 44570
L62850 44610
L62820 44640
" />
<path d="M62000 44000
L62000 45000
" />
</g>
<g style="fill:#008484; fill-opacity:0.0; 
stroke:#008484; stroke-width:60; stroke-opacity:1; 
stroke-linecap:round; stroke-linejoin:round;">
<path d="M62220 43650
L61720 43650
L61720 43530
L61750 43460
L61790 43410
L61840 43380
L61940 43360
L62010 43360
L62100 43380
L62150 43410
L62200 43460
L62220 43530
L62220 43650
" />
<path d="M62220 43150
L61720 43150
" />
<path d="M62220 42910
L61720 42910
L62220 42620
L61720 42620
" />
</g>
<g style="fill:#840000; fill-opacity:0.0; 
stroke:#840000; stroke-width:60; stroke-opacity:1; 
stroke-linecap:round; stroke-linejoin:round;">
<path d="M61370 44400
L61370 44500
L61400 44540
L61420 44570
L61490 44610
L61590 44640
L61780 44640
L61820 44610
L61850 44590
L61870 44540
L61870 44450
L61850 44400
L61820 44380
L61780 44350
L61660 44350
L61610 44380
L61590 44400
L61560 44450
L61560 44540
L61590 44590
L61610 44610
L61660 44640
" />
<path d="M64000 44000
L64000 45000
" />
</g>
<g style="fill:#008484; fill-opacity:0.0; 
stroke:#008484; stroke-width:60; stroke-opacity:1; 
stroke-linecap:round; stroke-linejoin:round;">
<path d="M64200 43670
L64220 43600
L64220 43480
L64200 43430
L64170 43410
L64130 43380
L64080 43380
L64030 43410
L64010 43430
L63980 43480
L63960 43570
L63940 43620
L63910 43650
L63860 43670
L63820 43670
L63770 43650
L63750 43620
L63720 43570
L63720 43460
L63750 43380
" />
<path d="M63960 43170
L63960 43000
" />
<path d="M64220 42930
L64220 43170
L63720 43170
L63720 42930
" />
<path d="M63720 42790
L63720 42500
" />
<path d="M64220 42650
L63720 42650
" />
</g>
<g style="fill:#840000; fill-opacity:0.0; 
stroke:#840000; stroke-width:60; stroke-opacity:1; 
stroke-linecap:round; stroke-linejoin:round;">
<path d="M63370 44660
L63370 44330
L63870 44540
" />
<path d="M61000 41000
L60000 41000
" />
</g>
<g style="fill:#008484; fill-opacity:0.0; 
stroke:#008484; stroke-width:60; stroke-opacity:1; 
stroke-linecap:round; stroke-linejoin:round;">
<path d="M61270 40720
L61440 41220
L61610 40720
" />
<path d="M61770 41220
L61770 40720
L61890 40720
L61960 40750
L62010 40790
L62030 40840
L62060 40940
L62060 41010
L62030 41100
L62010 41150
L61960 41200
L61890 41220
L61770 41220
" />
<path d="M62270 41220
L62270 40720
L62390 40720
L62460 40750
L62510 40790
L62530 40840
L62560 40940
L62560 41010
L62530 41100
L62510 41150
L62460 41200
L62390 41220
L62270 41220
" />
</g>
<g style="fill:#840000; fill-opacity:0.0; 
stroke:#840000; stroke-width:60; stroke-opacity:1; 
stroke-linecap:round; stroke-linejoin:round;">
<path d="M60450 40590
L60400 40560
L60380 40540
L60350 40490
L60350 40470
L60380 40420
L60400 40400
L60450 40370
L60540 40370
L60590 40400
L60610 40420
L60640 40470
L60640 40490
L60610 40540
L60590 40560
L60540 40590
L60450 40590
L60400 40610
L60380 40630
L60350 40680
L60350 40780
L60380 40820
L60400 40850
L60450 40870
L60540 40870
L60590 40850
L60610 40820
L60640 40780
L60640 40680
L60610 40630
L60590 40610
L60540 40590
" />
</g>
<g style="fill:#008484; fill-opacity:0.0; 
stroke:#008484; stroke-width:60; stroke-opacity:1; 
stroke-linecap:round; stroke-linejoin:round;">
<path d="M60110 37690
L60110 38100
L60140 38140
L60160 38170
L60210 38190
L60300 38190
L60350 38170
L60380 38140
L60400 38100
L60400 37690
" />
<path d="M60590 37690
L60920 37690
L60710 38190
" />
<path d="M64580 44190
L64700 44690
L64790 44330
L64890 44690
L65010 44190
" />
<path d="M65180 44670
L65250 44690
L65370 44690
L65410 44670
L65440 44640
L65460 44600
L65460 44550
L65440 44500
L65410 44480
L65370 44450
L65270 44430
L65220 44410
L65200 44380
L65180 44330
L65180 44290
L65200 44240
L65220 44220
L65270 44190
L65390 44190
L65460 44220
" />
<path d="M65650 44240
L65680 44220
L65720 44190
L65840 44190
L65890 44220
L65910 44240
L65940 44290
L65940 44330
L65910 44410
L65630 44690
L65940 44690
" />
<path d="M66220 44410
L66180 44380
L66150 44360
L66130 44310
L66130 44290
L66150 44240
L66180 44220
L66220 44190
L66320 44190
L66370 44220
L66390 44240
L66410 44290
L66410 44310
L66390 44360
L66370 44380
L66320 44410
L66220 44410
L66180 44430
L66150 44450
L66130 44500
L66130 44600
L66150 44640
L66180 44670
L66220 44690
L66320 44690
L66370 44670
L66390 44640
L66410 44600
L66410 44500
L66390 44450
L66370 44430
L66320 44410
" />
<path d="M66890 44690
L66600 44690
" />
<path d="M66750 44690
L66750 44190
L66700 44260
L66650 44310
L66600 44330
" />
<path d="M67370 44690
L67080 44690
" />
<path d="M67220 44690
L67220 44190
L67180 44260
L67130 44310
L67080 44330
" />
</g>
</g>
<g style="fill:#008484; fill-opacity:0.0; 
stroke:#008484; stroke-width:0; stroke-opacity:1; 
stroke-linecap:round; stroke-linejoin:round;">
<g >
</g>
<g style="fill:#840000; fill-opacity:0.0; 
stroke:#840000; stroke-width:0; stroke-opacity:1; 
stroke-linecap:round; stroke-linejoin:round;">
</g>
<g style="fill:#840000; fill-opacity:0.0; 
stroke:#840000; stroke-width:130; stroke-opacity:1; 
stroke-linecap:round; stroke-linejoin:round;">
<path style="fill:#840000; fill-opacity:0.0; 
stroke:#840000; stroke-width:130; stroke-opacity:1; 
stroke-linecap:round; stroke-linejoin:round;fill:none"
d="M 51800,40400
51800,41600
Z" /> 
</g>
<g style="fill:#840000; fill-opacity:0.0; 
stroke:#840000; stroke-width:120; stroke-opacity:1; 
stroke-linecap:round; stroke-linejoin:round;">
<path style="fill:#840000; fill-opacity:0.0; 
stroke:#840000; stroke-width:120; stroke-opacity:1; 
stroke-linecap:round; stroke-linejoin:round;fill:none"
d="M 52200,40400
52200,41600
Z" /> 
</g>
<g style="fill:#840000; fill-opacity:0.0; 
stroke:#840000; stroke-width:60; stroke-opacity:1; 
stroke-linecap:round; stroke-linejoin:round;">
<path d="M52200 41000
L53000 41000
" />
<path d="M51800 41000
L51000 41000
" />
</g>
<g style="fill:#008484; fill-opacity:0.0; 
stroke:#008484; stroke-width:60; stroke-opacity:1; 
stroke-linecap:round; stroke-linejoin:round;">
<path d="M53140 40570
L53170 40590
L53190 40660
L53190 40710
L53170 40780
L53120 40830
L53070 40850
L52980 40880
L52910 40880
L52810 40850
L52760 40830
L52720 40780
L52690 40710
L52690 40660
L52720 40590
L52740 40570
" />
<path d="M53190 40090
L53190 40380
" />
<path d="M53190 40230
L52690 40230
L52760 40280
L52810 40330
L52830 40380
" />
<path d="M53190 39610
L53190 39900
" />
<path d="M53190 39760
L52690 39760
L52760 39800
L52810 39850
L52830 39900
" />
<path d="M50690 40380
L50690 40330
L50720 40280
L50740 40260
L50790 40230
L50880 40210
L51000 40210
L51100 40230
L51140 40260
L51170 40280
L51190 40330
L51190 40380
L51170 40420
L51140 40450
L51100 40470
L51000 40500
L50880 40500
L50790 40470
L50740 40450
L50720 40420
L50690 40380
" />
<path d="M51140 40000
L51170 39970
L51190 40000
L51170 40020
L51140 40000
L51190 40000
" />
<path d="M51190 39500
L51190 39780
" />
<path d="M51190 39640
L50690 39640
L50760 39690
L50810 39730
L50830 39780
" />
<path d="M50860 39070
L51190 39070
" />
<path d="M50860 39280
L51120 39280
L51170 39260
L51190 39210
L51190 39140
L51170 39090
L51140 39070
" />
<path d="M50930 38660
L50930 38830
" />
<path d="M51190 38830
L50690 38830
L50690 38590
" />
</g>
</g>
<g style="fill:#008400; fill-opacity:0.0; 
stroke:#008400; stroke-width:60; stroke-opacity:1; 
stroke-linecap:round; stroke-linejoin:round;">
<path d="M63000 28000
L63000 25500
" />
<path d="M64000 34500
L65000 34500
" />
<path d="M62000 34500
L61000 34500
" />
<path d="M54500 22000
L54500 25500
" />
</g>
<g style="fill:#008400; fill-opacity:0.0; 
stroke:#008400; stroke-width:0; stroke-opacity:1; 
stroke-linecap:round; stroke-linejoin:round;">
</g>
<g style="fill:#008400; fill-opacity:1.0; 
stroke:#008400; stroke-width:100; stroke-opacity:1; 
stroke-linecap:round; stroke-linejoin:round;">
<circle cx="54500" cy="25500" r="200" /> 
</g>
<g style="fill:#008400; fill-opacity:1.0; 
stroke:#008400; stroke-width:60; stroke-opacity:1; 
stroke-linecap:round; stroke-linejoin:round;">
</g>
<g style="fill:#008400; fill-opacity:0.0; 
stroke:#008400; stroke-width:60; stroke-opacity:1; 
stroke-linecap:round; stroke-linejoin:round;">
<path d="M62000 45000
L62000 49000
" />
<path d="M53000 41000
L54500 41000
" />
</g>
<g style="fill:#008400; fill-opacity:0.0; 
stroke:#008400; stroke-width:0; stroke-opacity:1; 
stroke-linecap:round; stroke-linejoin:round;">
<g >
</g>
<g style="fill:#840000; fill-opacity:0.0; 
stroke:#840000; stroke-width:0; stroke-opacity:1; 
stroke-linecap:round; stroke-linejoin:round;">
</g>
<g style="fill:#840000; fill-opacity:0.0; 
stroke:#840000; stroke-width:60; stroke-opacity:1; 
stroke-linecap:round; stroke-linejoin:round;">
<path style="fill:#840000; fill-opacity:0.0; 
stroke:#840000; stroke-width:60; stroke-opacity:1; 
stroke-linecap:round; stroke-linejoin:round;fill:none"
d="M 70000,42500
70000,43000
70500,43000
70000,43500
69500,43000
70000,43000
Z" /> 
</g>
<g style="fill:#008484; fill-opacity:0.0; 
stroke:#008484; stroke-width:60; stroke-opacity:1; 
stroke-linecap:round; stroke-linejoin:round;">
<path d="M69660 44000
L69620 43970
L69550 43970
L69470 44000
L69430 44040
L69400 44090
L69380 44190
L69380 44260
L69400 44350
L69430 44400
L69470 44450
L69550 44470
L69590 44470
L69660 44450
L69690 44420
L69690 44260
L69590 44260
" />
<path d="M69900 44470
L69900 43970
L70190 44470
L70190 43970
" />
<path d="M70430 44470
L70430 43970
L70550 43970
L70620 44000
L70660 44040
L70690 44090
L70710 44190
L70710 44260
L70690 44350
L70660 44400
L70620 44450
L70550 44470
L70430 44470
" />
</g>
</g>
<g style="fill:#008400; fill-opacity:0.0; 
stroke:#008400; stroke-width:60; stroke-opacity:1; 
stroke-linecap:round; stroke-linejoin:round;">
<path d="M66000 41000
L70000 41000
" />
<path d="M70000 41000
L70000 42500
" />
</g>
<g style="fill:#008400; fill-opacity:0.0; 
stroke:#008400; stroke-width:0; stroke-opacity:1; 
stroke-linecap:round; stroke-linejoin:round;">
<g >
</g>
<g style="fill:#840000; fill-opacity:0.0; 
stroke:#840000; stroke-width:0; stroke-opacity:1; 
stroke-linecap:round; stroke-linejoin:round;">
</g>
<g style="fill:#840000; fill-opacity:0.0; 
stroke:#840000; stroke-width:60; stroke-opacity:1; 
stroke-linecap:round; stroke-linejoin:round;">
<path style="fill:#840000; fill-opacity:0.0; 
stroke:#840000; stroke-width:60; stroke-opacity:1; 
stroke-linecap:round; stroke-linejoin:round;fill:none"
d="M 48500,42500
48500,43000
49000,43000
48500,43500
48000,43000
48500,43000
Z" /> 
</g>
<g style="fill:#008484; fill-opacity:0.0; 
stroke:#008484; stroke-width:60; stroke-opacity:1; 
stroke-linecap:round; stroke-linejoin:round;">
<path d="M48160 44000
L48120 43970
L48050 43970
L47970 44000
L47930 44040
L47900 44090
L47880 44190
L47880 44260
L47900 44350
L47930 44400
L47970 44450
L48050 44470
L48090 44470
L48160 44450
L48190 44420
L48190 44260
L48090 44260
" />
<path d="M48400 44470
L48400 43970
L48690 44470
L48690 43970
" />
<path d="M48930 44470
L48930 43970
L49050 43970
L49120 44000
L49160 44040
L49190 44090
L49210 44190
L49210 44260
L49190 44350
L49160 44400
L49120 44450
L49050 44470
L48930 44470
" />
</g>
</g>
<g style="fill:#008400; fill-opacity:0.0; 
stroke:#008400; stroke-width:60; stroke-opacity:1; 
stroke-linecap:round; stroke-linejoin:round;">
<path d="M51000 41000
L48500 41000
" />
<path d="M48500 41000
L48500 42500
" />
<path d="M60000 41000
L57500 41000
" />
</g>
<g style="fill:#008400; fill-opacity:0.0; 
stroke:#008400; stroke-width:0; stroke-opacity:1; 
stroke-linecap:round; stroke-linejoin:round;">
</g>
<g style="fill:#008400; fill-opacity:1.0; 
stroke:#008400; stroke-width:100; stroke-opacity:1; 
stroke-linecap:round; stroke-linejoin:round;">
<circle cx="54500" cy="41000" r="200" /> 
</g>
<g style="fill:#008400; fill-opacity:1.0; 
stroke:#008400; stroke-width:60; stroke-opacity:1; 
stroke-linecap:round; stroke-linejoin:round;">
</g>
<g style="fill:#008400; fill-opacity:0.0; 
stroke:#008400; stroke-width:60; stroke-opacity:1; 
stroke-linecap:round; stroke-linejoin:round;">
<path d="M48000 49000
L62000 49000
" />
<path d="M63000 49000
L73000 49000
" />
<path d="M65000 32000
L65000 34500
" />
<path d="M61000 32000
L61000 34500
" />
<path d="M62000 34500
L62000 37000
" />
<path d="M63000 32000
L63000 37000
" />
<path d="M64000 34500
L64000 37000
" />
</g>
<g style="fill:#008400; fill-opacity:0.0; 
stroke:#008400; stroke-width:0; stroke-opacity:1; 
stroke-linecap:round; stroke-linejoin:round;">
<g >
</g>
<g style="fill:#840000; fill-opacity:0.0; 
stroke:#840000; stroke-width:0; stroke-opacity:1; 
stroke-linecap:round; stroke-linejoin:round;">
</g>
<g style="fill:#FFFFC2; fill-opacity:0.0; 
stroke:#FFFFC2; stroke-width:0; stroke-opacity:1; 
stroke-linecap:round; stroke-linejoin:round;">
</g>
<g style="fill:#FFFFC2; fill-opacity:0.6; 
stroke:#FFFFC2; stroke-width:0; stroke-opacity:1; 
stroke-linecap:round; stroke-linejoin:round;">
<rect x="59700" y="28900" width="6300" height="2200" rx="0" />
</g>
<g style="fill:#840000; fill-opacity:0.6; 
stroke:#840000; stroke-width:0; stroke-opacity:1; 
stroke-linecap:round; stroke-linejoin:round;">
</g>
<g style="fill:#840000; fill-opacity:0.0; 
stroke:#840000; stroke-width:100; stroke-opacity:1; 
stroke-linecap:round; stroke-linejoin:round;">
<rect x="59700" y="28900" width="6300" height="2200" rx="0" />
</g>
<g style="fill:#840000; fill-opacity:1.0; 
stroke:#840000; stroke-width:60; stroke-opacity:1; 
stroke-linecap:round; stroke-linejoin:round;">
<circle cx="63000" cy="29200" r="100" /> 
</g>
<g style="fill:#840000; fill-opacity:0.0; 
stroke:#840000; stroke-width:60; stroke-opacity:1; 
stroke-linecap:round; stroke-linejoin:round;">
<path d="M65480 30710
L65500 30640
L65530 30610
L65570 30590
L65650 30590
L65690 30610
L65720 30640
L65740 30690
L65740 30880
L65240 30880
L65240 30710
L65270 30660
L65290 30640
L65340 30610
L65380 30610
L65430 30640
L65460 30660
L65480 30710
L65480 30880
" />
<path d="M63270 30610
L63240 30660
L63240 30730
L63270 30800
L63310 30850
L63360 30880
L63460 30900
L63530 30900
L63620 30880
L63670 30850
L63720 30800
L63740 30730
L63740 30690
L63720 30610
L63690 30590
L63530 30590
L63530 30690
" />
<path d="M61740 30590
L61500 30760
" />
<path d="M61740 30880
L61240 30880
L61240 30690
L61270 30640
L61290 30610
L61340 30590
L61410 30590
L61460 30610
L61480 30640
L61500 30690
L61500 30880
" />
<line x1="60500" y1="29500" x2="60500" y2="29500" />
<path style="fill:#840000; fill-opacity:0.0; 
stroke:#840000; stroke-width:60; stroke-opacity:1; 
stroke-linecap:round; stroke-linejoin:round;fill:none"
d="M 65000,31000
65000,29500
Z" /> 
</g>
<g style="fill:#840000; fill-opacity:0.0; 
stroke:#840000; stroke-width:80; stroke-opacity:1; 
stroke-linecap:round; stroke-linejoin:round;">
<path style="fill:#840000; fill-opacity:0.0; 
stroke:#840000; stroke-width:80; stroke-opacity:1; 
stroke-linecap:round; stroke-linejoin:round;fill:none"
d="M 64500,30500
65500,30500
Z" /> 
<path style="fill:#840000; fill-opacity:0.0; 
stroke:#840000; stroke-width:80; stroke-opacity:1; 
stroke-linecap:round; stroke-linejoin:round;fill:none"
d="M 62500,30500
63500,30500
Z" /> 
<path style="fill:#840000; fill-opacity:0.0; 
stroke:#840000; stroke-width:80; stroke-opacity:1; 
stroke-linecap:round; stroke-linejoin:round;fill:none"
d="M 60500,30500
61500,30500
Z" /> 
</g>
<g style="fill:#840000; fill-opacity:0.0; 
stroke:#840000; stroke-width:60; stroke-opacity:1; 
stroke-linecap:round; stroke-linejoin:round;">
<path style="fill:#840000; fill-opacity:0.0; 
stroke:#840000; stroke-width:60; stroke-opacity:1; 
stroke-linecap:round; stroke-linejoin:round;fill:none"
d="M 61000,29500
61000,31000
Z" /> 
<path style="fill:#840000; fill-opacity:0.0; 
stroke:#840000; stroke-width:60; stroke-opacity:1; 
stroke-linecap:round; stroke-linejoin:round;fill:none"
d="M 63000,29000
63000,31000
Z" /> 
<path style="fill:#840000; fill-opacity:0.0; 
stroke:#840000; stroke-width:60; stroke-opacity:1; 
stroke-linecap:round; stroke-linejoin:round;fill:none"
d="M 65000,29500
65000,29200
61000,29200
61000,29500
Z" /> 
</g>
<g style="fill:#840000; fill-opacity:0.0; 
stroke:#840000; stroke-width:80; stroke-opacity:1; 
stroke-linecap:round; stroke-linejoin:round;">
<path style="fill:#840000; fill-opacity:0.0; 
stroke:#840000; stroke-width:80; stroke-opacity:1; 
stroke-linecap:round; stroke-linejoin:round;fill:none"
d="M 64500,29500
65500,29500
65000,30500
64500,29500
Z" /> 
<path style="fill:#840000; fill-opacity:0.0; 
stroke:#840000; stroke-width:80; stroke-opacity:1; 
stroke-linecap:round; stroke-linejoin:round;fill:none"
d="M 62500,29500
63500,29500
63000,30500
62500,29500
Z" /> 
<path style="fill:#840000; fill-opacity:0.0; 
stroke:#840000; stroke-width:80; stroke-opacity:1; 
stroke-linecap:round; stroke-linejoin:round;fill:none"
d="M 60500,29500
61500,29500
61000,30500
60500,29500
Z" /> 
</g>
<g style="fill:#840000; fill-opacity:0.0; 
stroke:#840000; stroke-width:60; stroke-opacity:1; 
stroke-linecap:round; stroke-linejoin:round;">
<path style="fill:#840000; fill-opacity:0.0; 
stroke:#840000; stroke-width:60; stroke-opacity:1; 
stroke-linecap:round; stroke-linejoin:round;fill:none"
d="M 64500,30400
63900,29800
63900,30100
63900,29800
64200,29800
Z" /> 
<path style="fill:#840000; fill-opacity:0.0; 
stroke:#840000; stroke-width:60; stroke-opacity:1; 
stroke-linecap:round; stroke-linejoin:round;fill:none"
d="M 62500,30400
61900,29800
61900,30100
61900,29800
62200,29800
Z" /> 
<path style="fill:#840000; fill-opacity:0.0; 
stroke:#840000; stroke-width:60; stroke-opacity:1; 
stroke-linecap:round; stroke-linejoin:round;fill:none"
d="M 60500,30400
59900,29800
59900,30100
59900,29800
60200,29800
Z" /> 
<path style="fill:#840000; fill-opacity:0.0; 
stroke:#840000; stroke-width:60; stroke-opacity:1; 
stroke-linecap:round; stroke-linejoin:round;fill:none"
d="M 64500,30000
63900,29400
63900,29700
63900,29400
64200,29400
Z" /> 
<path style="fill:#840000; fill-opacity:0.0; 
stroke:#840000; stroke-width:60; stroke-opacity:1; 
stroke-linecap:round; stroke-linejoin:round;fill:none"
d="M 62500,30000
61900,29400
61900,29700
61900,29400
62200,29400
Z" /> 
<path style="fill:#840000; fill-opacity:0.0; 
stroke:#840000; stroke-width:60; stroke-opacity:1; 
stroke-linecap:round; stroke-linejoin:round;fill:none"
d="M 60500,30000
59900,29400
59900,29700
59900,29400
60200,29400
Z" /> 
<path d="M63000 29000
L63000 28000
" />
<path d="M63570 28350
L63570 28640
" />
<path d="M63570 28500
L63070 28500
L63140 28540
L63190 28590
L63210 28640
" />
<path d="M61000 31000
L61000 32000
" />
<path d="M61120 31640
L61100 31610
L61070 31570
L61070 31450
L61100 31400
L61120 31380
L61170 31350
L61210 31350
L61290 31380
L61570 31660
L61570 31350
" />
<path d="M63000 31000
L63000 32000
" />
<path d="M63070 31660
L63070 31350
L63260 31520
L63260 31450
L63290 31400
L63310 31380
L63360 31350
L63480 31350
L63520 31380
L63550 31400
L63570 31450
L63570 31590
L63550 31640
L63520 31660
" />
<path d="M65000 31000
L65000 32000
" />
<path d="M65240 31400
L65570 31400
" />
<path d="M65050 31520
L65400 31640
L65400 31330
" />
</g>
<g style="fill:#008484; fill-opacity:0.0; 
stroke:#008484; stroke-width:60; stroke-opacity:1; 
stroke-linecap:round; stroke-linejoin:round;">
<path d="M66450 29730
L66450 29230
L66570 29230
L66640 29260
L66680 29300
L66710 29350
L66730 29450
L66730 29520
L66710 29610
L66680 29660
L66640 29710
L66570 29730
L66450 29730
" />
<path d="M66900 29230
L67210 29230
L67040 29420
L67110 29420
L67160 29450
L67180 29470
L67210 29520
L67210 29640
L67180 29680
L67160 29710
L67110 29730
L66970 29730
L66920 29710
L66900 29680
" />
<path d="M66680 30640
L66440 30640
L66440 30140
" />
<path d="M66850 30380
L67010 30380
" />
<path d="M67080 30640
L66850 30640
L66850 30140
L67080 30140
" />
<path d="M67300 30640
L67300 30140
L67420 30140
L67490 30170
L67540 30210
L67560 30260
L67580 30360
L67580 30430
L67560 30520
L67540 30570
L67490 30620
L67420 30640
L67300 30640
" />
<path d="M67680 30690
L68060 30690
" />
<path d="M68160 30500
L68390 30500
" />
<path d="M68110 30640
L68270 30140
L68440 30640
" />
<path d="M68890 30640
L68730 30400
" />
<path d="M68610 30640
L68610 30140
L68800 30140
L68850 30170
L68870 30190
L68890 30240
L68890 30310
L68870 30360
L68850 30380
L68800 30400
L68610 30400
" />
<path d="M69370 30170
L69320 30140
L69250 30140
L69180 30170
L69130 30210
L69110 30260
L69080 30360
L69080 30430
L69110 30520
L69130 30570
L69180 30620
L69250 30640
L69300 30640
L69370 30620
L69390 30590
L69390 30430
L69300 30430
" />
<path d="M69770 30380
L69850 30400
L69870 30430
L69890 30470
L69890 30550
L69870 30590
L69850 30620
L69800 30640
L69610 30640
L69610 30140
L69770 30140
L69820 30170
L69850 30190
L69870 30240
L69870 30280
L69850 30330
L69820 30360
L69770 30380
L69610 30380
" />
</g>
</g>
<g style="fill:#008400; fill-opacity:0.0; 
stroke:#008400; stroke-width:60; stroke-opacity:1; 
stroke-linecap:round; stroke-linejoin:round;">
<path d="M54500 25500
L63000 25500
" />
</g>
<g style="fill:#000084; fill-opacity:0.0; 
stroke:#000084; stroke-width:60; stroke-opacity:1; 
stroke-linecap:round; stroke-linejoin:round;">
<path d="M63760 44760
L64240 45240
" />
<path d="M64240 44760
L63760 45240
" />
</g>
<g style="fill:#000084; fill-opacity:0.0; 
stroke:#000084; stroke-width:0; stroke-opacity:1; 
stroke-linecap:round; stroke-linejoin:round;">
<g >
</g>
<g style="fill:#840000; fill-opacity:0.0; 
stroke:#840000; stroke-width:0; stroke-opacity:1; 
stroke-linecap:round; stroke-linejoin:round;">
</g>
<g style="fill:#840000; fill-opacity:0.0; 
stroke:#840000; stroke-width:60; stroke-opacity:1; 
stroke-linecap:round; stroke-linejoin:round;">
<path style="fill:#840000; fill-opacity:0.0; 
stroke:#840000; stroke-width:60; stroke-opacity:1; 
stroke-linecap:round; stroke-linejoin:round;fill:none"
d="M 54200,21500
54500,21000
Z" /> 
<path style="fill:#840000; fill-opacity:0.0; 
stroke:#840000; stroke-width:60; stroke-opacity:1; 
stroke-linecap:round; stroke-linejoin:round;fill:none"
d="M 54500,22000
54500,21000
Z" /> 
<path style="fill:#840000; fill-opacity:0.0; 
stroke:#840000; stroke-width:60; stroke-opacity:1; 
stroke-linecap:round; stroke-linejoin:round;fill:none"
d="M 54500,21000
54800,21500
Z" /> 
</g>
<g style="fill:#008484; fill-opacity:0.0; 
stroke:#008484; stroke-width:60; stroke-opacity:1; 
stroke-linecap:round; stroke-linejoin:round;">
<path d="M54000 20320
L54380 20320
" />
<path d="M54190 20510
L54190 20130
" />
<path d="M54860 20010
L54620 20010
L54600 20250
L54620 20230
L54670 20200
L54790 20200
L54840 20230
L54860 20250
L54880 20300
L54880 20420
L54860 20460
L54840 20490
L54790 20510
L54670 20510
L54620 20490
L54600 20460
" />
<path d="M55030 20010
L55190 20510
L55360 20010
" />
</g>
</g>
<g style="fill:#008400; fill-opacity:0.0; 
stroke:#008400; stroke-width:60; stroke-opacity:1; 
stroke-linecap:round; stroke-linejoin:round;">
<path d="M63000 49000
L63000 45000
" />
<path d="M54500 34500
L54500 41000
" />
<path d="M54500 25500
L54500 31500
" />
</g>
<g style="fill:#008400; fill-opacity:0.0; 
stroke:#008400; stroke-width:0; stroke-opacity:1; 
stroke-linecap:round; stroke-linejoin:round;">
<g >
</g>
<g style="fill:#840000; fill-opacity:0.0; 
stroke:#840000; stroke-width:0; stroke-opacity:1; 
stroke-linecap:round; stroke-linejoin:round;">
</g>
<g style="fill:#840000; fill-opacity:0.0; 
stroke:#840000; stroke-width:60; stroke-opacity:1; 
stroke-linecap:round; stroke-linejoin:round;">
<path style="fill:#840000; fill-opacity:0.0; 
stroke:#840000; stroke-width:60; stroke-opacity:1; 
stroke-linecap:round; stroke-linejoin:round;fill:none"
d="M 54500,33900
54500,34000
Z" /> 
<path style="fill:#840000; fill-opacity:0.0; 
stroke:#840000; stroke-width:60; stroke-opacity:1; 
stroke-linecap:round; stroke-linejoin:round;fill:none"
d="M 54500,32100
54500,32000
Z" /> 
<path style="fill:#840000; fill-opacity:0.0; 
stroke:#840000; stroke-width:60; stroke-opacity:1; 
stroke-linecap:round; stroke-linejoin:round;fill:none"
d="M 54500,33300
54900,33450
54500,33600
54100,33750
54500,33900
Z" /> 
<path style="fill:#840000; fill-opacity:0.0; 
stroke:#840000; stroke-width:60; stroke-opacity:1; 
stroke-linecap:round; stroke-linejoin:round;fill:none"
d="M 54500,32700
54900,32850
54500,33000
54100,33150
54500,33300
Z" /> 
<path style="fill:#840000; fill-opacity:0.0; 
stroke:#840000; stroke-width:60; stroke-opacity:1; 
stroke-linecap:round; stroke-linejoin:round;fill:none"
d="M 54500,32100
54900,32250
54500,32400
54100,32550
54500,32700
Z" /> 
<path d="M54500 32000
L54500 31500
" />
<path d="M54500 34000
L54500 34500
" />
</g>
<g style="fill:#008484; fill-opacity:0.0; 
stroke:#008484; stroke-width:60; stroke-opacity:1; 
stroke-linecap:round; stroke-linejoin:round;">
<path d="M53420 32240
L53260 32000
" />
<path d="M53140 32240
L53140 31740
L53330 31740
L53380 31770
L53400 31790
L53420 31840
L53420 31910
L53400 31960
L53380 31980
L53330 32000
L53140 32000
" />
<path d="M53900 32240
L53610 32240
" />
<path d="M53760 32240
L53760 31740
L53710 31810
L53660 31860
L53610 31880
" />
<path d="M54090 31790
L54110 31770
L54160 31740
L54280 31740
L54330 31770
L54350 31790
L54380 31840
L54380 31880
L54350 31960
L54070 32240
L54380 32240
" />
<path d="M53400 34740
L53120 34740
" />
<path d="M53260 34740
L53260 34240
L53210 34310
L53160 34360
L53120 34380
" />
<path d="M53710 34240
L53760 34240
L53810 34270
L53830 34290
L53850 34340
L53880 34430
L53880 34550
L53850 34650
L53830 34690
L53810 34720
L53760 34740
L53710 34740
L53660 34720
L53640 34690
L53620 34650
L53590 34550
L53590 34430
L53620 34340
L53640 34290
L53660 34270
L53710 34240
" />
<path d="M54190 34240
L54240 34240
L54280 34270
L54310 34290
L54330 34340
L54350 34430
L54350 34550
L54330 34650
L54310 34690
L54280 34720
L54240 34740
L54190 34740
L54140 34720
L54120 34690
L54090 34650
L54070 34550
L54070 34430
L54090 34340
L54120 34290
L54140 34270
L54190 34240
" />
</g>
</g>
<g style="fill:#008484; fill-opacity:0.0; 
stroke:#008484; stroke-width:0; stroke-opacity:1; 
stroke-linecap:round; stroke-linejoin:round;">
<g >
</g>
<g style="fill:#840000; fill-opacity:0.0; 
stroke:#840000; stroke-width:0; stroke-opacity:1; 
stroke-linecap:round; stroke-linejoin:round;">
</g>
<g style="fill:#840000; fill-opacity:0.0; 
stroke:#840000; stroke-width:60; stroke-opacity:1; 
stroke-linecap:round; stroke-linejoin:round;">
<path style="fill:#840000; fill-opacity:0.0; 
stroke:#840000; stroke-width:60; stroke-opacity:1; 
stroke-linecap:round; stroke-linejoin:round;fill:none"
d="M 57500,40000
57500,39500
57100,39250
57500,39000
57900,39250
57500,39500
Z" /> 
<path d="M57500 40000
L57500 40000
" />
</g>
<g style="fill:#008484; fill-opacity:0.0; 
stroke:#008484; stroke-width:60; stroke-opacity:1; 
stroke-linecap:round; stroke-linejoin:round;">
<path d="M55760 38500
L55760 38000
L55950 38000
L56000 38030
L56020 38050
L56040 38100
L56040 38170
L56020 38220
L56000 38240
L55950 38260
L55760 38260
" />
<path d="M56210 38000
L56330 38500
L56420 38140
L56520 38500
L56640 38000
" />
<path d="M57110 38500
L56950 38260
" />
<path d="M56830 38500
L56830 38000
L57020 38000
L57070 38030
L57090 38050
L57110 38100
L57110 38170
L57090 38220
L57070 38240
L57020 38260
L56830 38260
" />
<path d="M57210 38550
L57590 38550
" />
<path d="M57880 38240
L57710 38240
" />
<path d="M57710 38500
L57710 38000
L57950 38000
" />
<path d="M58380 38500
L58140 38500
L58140 38000
" />
<path d="M58520 38360
L58760 38360
" />
<path d="M58470 38500
L58640 38000
L58800 38500
" />
<path d="M59230 38030
L59190 38000
L59110 38000
L59040 38030
L59000 38070
L58970 38120
L58950 38220
L58950 38290
L58970 38380
L59000 38430
L59040 38480
L59110 38500
L59160 38500
L59230 38480
L59260 38450
L59260 38290
L59160 38290
" />
</g>
</g>
<g style="fill:#008400; fill-opacity:0.0; 
stroke:#008400; stroke-width:60; stroke-opacity:1; 
stroke-linecap:round; stroke-linejoin:round;">
<path d="M57500 40000
L57500 41000
" />
<path d="M57500 41000
L54500 41000
" />
</g>
<g style="fill:#008400; fill-opacity:0.0; 
stroke:#008400; stroke-width:0; stroke-opacity:1; 
stroke-linecap:round; stroke-linejoin:round;">
</g>
<g style="fill:#008400; fill-opacity:1.0; 
stroke:#008400; stroke-width:100; stroke-opacity:1; 
stroke-linecap:round; stroke-linejoin:round;">
<circle cx="57500" cy="41000" r="200" /> 
</g> 
</svg>
