<?xml version="1.0" standalone="no"?>
 <!DOCTYPE svg PUBLIC "-//W3C//DTD SVG 1.1//EN" 
 "http://www.w3.org/Graphics/SVG/1.1/DTD/svg11.dtd"> 
<svg xmlns="http://www.w3.org/2000/svg" version="1.1" 
    width="29.7002cm" height="21.0007cm" viewBox="0 0 116930 82680 ">
<title>SVG Picture created as node.svg date 2019/03/28 21:15:46 </title>
  <desc>Picture generated by Eeschema-SVG </desc>
<g style="fill:#000000; fill-opacity:1;stroke:#000000; stroke-opacity:1;
stroke-linecap:round; stroke-linejoin:round; "
 transform="translate(0 0) scale(1 1)">
</g>
<g style="fill:#000000; fill-opacity:0.0; 
stroke:#000000; stroke-width:-10; stroke-opacity:1; 
stroke-linecap:round; stroke-linejoin:round;">
</g>
<g style="fill:#840000; fill-opacity:0.0; 
stroke:#840000; stroke-width:-10; stroke-opacity:1; 
stroke-linecap:round; stroke-linejoin:round;">
</g>
<g style="fill:#840000; fill-opacity:0.0; 
stroke:#840000; stroke-width:100; stroke-opacity:1; 
stroke-linecap:round; stroke-linejoin:round;">
</g>
<g style="fill:#840000; fill-opacity:0.0; 
stroke:#840000; stroke-width:60; stroke-opacity:1; 
stroke-linecap:round; stroke-linejoin:round;">
<rect x="69690" y="65360" width="42520" height="12600" rx="0" />
</g>
<g style="fill:#840000; fill-opacity:0.0; 
stroke:#840000; stroke-width:100; stroke-opacity:1; 
stroke-linecap:round; stroke-linejoin:round;">
</g>
<g style="fill:#840000; fill-opacity:0.0; 
stroke:#840000; stroke-width:60; stroke-opacity:1; 
stroke-linecap:round; stroke-linejoin:round;">
<rect x="3940" y="3940" width="109050" height="74800" rx="0" />
</g>
<g style="fill:#840000; fill-opacity:0.0; 
stroke:#840000; stroke-width:100; stroke-opacity:1; 
stroke-linecap:round; stroke-linejoin:round;">
</g>
<g style="fill:#840000; fill-opacity:0.0; 
stroke:#840000; stroke-width:60; stroke-opacity:1; 
stroke-linecap:round; stroke-linejoin:round;">
<rect x="4720" y="4720" width="107490" height="73240" rx="0" />
</g>
<g style="fill:#840000; fill-opacity:0.0; 
stroke:#840000; stroke-width:100; stroke-opacity:1; 
stroke-linecap:round; stroke-linejoin:round;">
</g>
<g style="fill:#840000; fill-opacity:0.0; 
stroke:#840000; stroke-width:60; stroke-opacity:1; 
stroke-linecap:round; stroke-linejoin:round;">
<path d="M23620 4720
L23620 3940
" />
</g>
<g style="fill:#840000; fill-opacity:0.0; 
stroke:#840000; stroke-width:100; stroke-opacity:1; 
stroke-linecap:round; stroke-linejoin:round;">
</g>
<g style="fill:#840000; fill-opacity:0.0; 
stroke:#840000; stroke-width:60; stroke-opacity:1; 
stroke-linecap:round; stroke-linejoin:round;">
<path d="M43310 4720
L43310 3940
" />
</g>
<g style="fill:#840000; fill-opacity:0.0; 
stroke:#840000; stroke-width:100; stroke-opacity:1; 
stroke-linecap:round; stroke-linejoin:round;">
</g>
<g style="fill:#840000; fill-opacity:0.0; 
stroke:#840000; stroke-width:60; stroke-opacity:1; 
stroke-linecap:round; stroke-linejoin:round;">
<path d="M62990 4720
L62990 3940
" />
</g>
<g style="fill:#840000; fill-opacity:0.0; 
stroke:#840000; stroke-width:100; stroke-opacity:1; 
stroke-linecap:round; stroke-linejoin:round;">
</g>
<g style="fill:#840000; fill-opacity:0.0; 
stroke:#840000; stroke-width:60; stroke-opacity:1; 
stroke-linecap:round; stroke-linejoin:round;">
<path d="M82680 4720
L82680 3940
" />
</g>
<g style="fill:#840000; fill-opacity:0.0; 
stroke:#840000; stroke-width:100; stroke-opacity:1; 
stroke-linecap:round; stroke-linejoin:round;">
</g>
<g style="fill:#840000; fill-opacity:0.0; 
stroke:#840000; stroke-width:60; stroke-opacity:1; 
stroke-linecap:round; stroke-linejoin:round;">
<path d="M102360 4720
L102360 3940
" />
</g>
<g style="fill:#840000; fill-opacity:0.0; 
stroke:#840000; stroke-width:100; stroke-opacity:1; 
stroke-linecap:round; stroke-linejoin:round;">
</g>
<g style="fill:#840000; fill-opacity:0.0; 
stroke:#840000; stroke-width:60; stroke-opacity:1; 
stroke-linecap:round; stroke-linejoin:round;">
<path d="M14190 4560
L13900 4560
" />
<path d="M14050 4560
L14050 4050
L14000 4120
L13950 4170
L13900 4190
" />
</g>
<g style="fill:#840000; fill-opacity:0.0; 
stroke:#840000; stroke-width:100; stroke-opacity:1; 
stroke-linecap:round; stroke-linejoin:round;">
</g>
<g style="fill:#840000; fill-opacity:0.0; 
stroke:#840000; stroke-width:60; stroke-opacity:1; 
stroke-linecap:round; stroke-linejoin:round;">
<path d="M33580 4090
L33610 4070
L33660 4050
L33780 4050
L33830 4070
L33850 4090
L33870 4140
L33870 4190
L33850 4260
L33560 4560
L33870 4560
" />
</g>
<g style="fill:#840000; fill-opacity:0.0; 
stroke:#840000; stroke-width:100; stroke-opacity:1; 
stroke-linecap:round; stroke-linejoin:round;">
</g>
<g style="fill:#840000; fill-opacity:0.0; 
stroke:#840000; stroke-width:60; stroke-opacity:1; 
stroke-linecap:round; stroke-linejoin:round;">
<path d="M53250 4050
L53560 4050
L53390 4240
L53470 4240
L53520 4260
L53540 4290
L53560 4340
L53560 4460
L53540 4510
L53520 4530
L53470 4560
L53320 4560
L53270 4530
L53250 4510
" />
</g>
<g style="fill:#840000; fill-opacity:0.0; 
stroke:#840000; stroke-width:100; stroke-opacity:1; 
stroke-linecap:round; stroke-linejoin:round;">
</g>
<g style="fill:#840000; fill-opacity:0.0; 
stroke:#840000; stroke-width:60; stroke-opacity:1; 
stroke-linecap:round; stroke-linejoin:round;">
<path d="M73200 4220
L73200 4560
" />
<path d="M73070 4020
L72950 4390
L73270 4390
" />
</g>
<g style="fill:#840000; fill-opacity:0.0; 
stroke:#840000; stroke-width:100; stroke-opacity:1; 
stroke-linecap:round; stroke-linejoin:round;">
</g>
<g style="fill:#840000; fill-opacity:0.0; 
stroke:#840000; stroke-width:60; stroke-opacity:1; 
stroke-linecap:round; stroke-linejoin:round;">
<path d="M92910 4050
L92670 4050
L92640 4290
L92670 4260
L92720 4240
L92840 4240
L92890 4260
L92910 4290
L92930 4340
L92930 4460
L92910 4510
L92890 4530
L92840 4560
L92720 4560
L92670 4530
L92640 4510
" />
</g>
<g style="fill:#840000; fill-opacity:0.0; 
stroke:#840000; stroke-width:100; stroke-opacity:1; 
stroke-linecap:round; stroke-linejoin:round;">
</g>
<g style="fill:#840000; fill-opacity:0.0; 
stroke:#840000; stroke-width:60; stroke-opacity:1; 
stroke-linecap:round; stroke-linejoin:round;">
<path d="M112570 4050
L112470 4050
L112420 4070
L112400 4090
L112350 4170
L112320 4260
L112320 4460
L112350 4510
L112370 4530
L112420 4560
L112520 4560
L112570 4530
L112590 4510
L112610 4460
L112610 4340
L112590 4290
L112570 4260
L112520 4240
L112420 4240
L112370 4260
L112350 4290
L112320 4340
" />
</g>
<g style="fill:#840000; fill-opacity:0.0; 
stroke:#840000; stroke-width:100; stroke-opacity:1; 
stroke-linecap:round; stroke-linejoin:round;">
</g>
<g style="fill:#840000; fill-opacity:0.0; 
stroke:#840000; stroke-width:60; stroke-opacity:1; 
stroke-linecap:round; stroke-linejoin:round;">
<path d="M23620 77960
L23620 78740
" />
</g>
<g style="fill:#840000; fill-opacity:0.0; 
stroke:#840000; stroke-width:100; stroke-opacity:1; 
stroke-linecap:round; stroke-linejoin:round;">
</g>
<g style="fill:#840000; fill-opacity:0.0; 
stroke:#840000; stroke-width:60; stroke-opacity:1; 
stroke-linecap:round; stroke-linejoin:round;">
<path d="M43310 77960
L43310 78740
" />
</g>
<g style="fill:#840000; fill-opacity:0.0; 
stroke:#840000; stroke-width:100; stroke-opacity:1; 
stroke-linecap:round; stroke-linejoin:round;">
</g>
<g style="fill:#840000; fill-opacity:0.0; 
stroke:#840000; stroke-width:60; stroke-opacity:1; 
stroke-linecap:round; stroke-linejoin:round;">
<path d="M62990 77960
L62990 78740
" />
</g>
<g style="fill:#840000; fill-opacity:0.0; 
stroke:#840000; stroke-width:100; stroke-opacity:1; 
stroke-linecap:round; stroke-linejoin:round;">
</g>
<g style="fill:#840000; fill-opacity:0.0; 
stroke:#840000; stroke-width:60; stroke-opacity:1; 
stroke-linecap:round; stroke-linejoin:round;">
<path d="M82680 77960
L82680 78740
" />
</g>
<g style="fill:#840000; fill-opacity:0.0; 
stroke:#840000; stroke-width:100; stroke-opacity:1; 
stroke-linecap:round; stroke-linejoin:round;">
</g>
<g style="fill:#840000; fill-opacity:0.0; 
stroke:#840000; stroke-width:60; stroke-opacity:1; 
stroke-linecap:round; stroke-linejoin:round;">
<path d="M102360 77960
L102360 78740
" />
</g>
<g style="fill:#840000; fill-opacity:0.0; 
stroke:#840000; stroke-width:100; stroke-opacity:1; 
stroke-linecap:round; stroke-linejoin:round;">
</g>
<g style="fill:#840000; fill-opacity:0.0; 
stroke:#840000; stroke-width:60; stroke-opacity:1; 
stroke-linecap:round; stroke-linejoin:round;">
<path d="M14190 78580
L13900 78580
" />
<path d="M14050 78580
L14050 78070
L14000 78140
L13950 78190
L13900 78210
" />
</g>
<g style="fill:#840000; fill-opacity:0.0; 
stroke:#840000; stroke-width:100; stroke-opacity:1; 
stroke-linecap:round; stroke-linejoin:round;">
</g>
<g style="fill:#840000; fill-opacity:0.0; 
stroke:#840000; stroke-width:60; stroke-opacity:1; 
stroke-linecap:round; stroke-linejoin:round;">
<path d="M33580 78110
L33610 78090
L33660 78070
L33780 78070
L33830 78090
L33850 78110
L33870 78160
L33870 78210
L33850 78280
L33560 78580
L33870 78580
" />
</g>
<g style="fill:#840000; fill-opacity:0.0; 
stroke:#840000; stroke-width:100; stroke-opacity:1; 
stroke-linecap:round; stroke-linejoin:round;">
</g>
<g style="fill:#840000; fill-opacity:0.0; 
stroke:#840000; stroke-width:60; stroke-opacity:1; 
stroke-linecap:round; stroke-linejoin:round;">
<path d="M53250 78070
L53560 78070
L53390 78260
L53470 78260
L53520 78280
L53540 78310
L53560 78360
L53560 78480
L53540 78530
L53520 78550
L53470 78580
L53320 78580
L53270 78550
L53250 78530
" />
</g>
<g style="fill:#840000; fill-opacity:0.0; 
stroke:#840000; stroke-width:100; stroke-opacity:1; 
stroke-linecap:round; stroke-linejoin:round;">
</g>
<g style="fill:#840000; fill-opacity:0.0; 
stroke:#840000; stroke-width:60; stroke-opacity:1; 
stroke-linecap:round; stroke-linejoin:round;">
<path d="M73200 78240
L73200 78580
" />
<path d="M73070 78040
L72950 78410
L73270 78410
" />
</g>
<g style="fill:#840000; fill-opacity:0.0; 
stroke:#840000; stroke-width:100; stroke-opacity:1; 
stroke-linecap:round; stroke-linejoin:round;">
</g>
<g style="fill:#840000; fill-opacity:0.0; 
stroke:#840000; stroke-width:60; stroke-opacity:1; 
stroke-linecap:round; stroke-linejoin:round;">
<path d="M92910 78070
L92670 78070
L92640 78310
L92670 78280
L92720 78260
L92840 78260
L92890 78280
L92910 78310
L92930 78360
L92930 78480
L92910 78530
L92890 78550
L92840 78580
L92720 78580
L92670 78550
L92640 78530
" />
</g>
<g style="fill:#840000; fill-opacity:0.0; 
stroke:#840000; stroke-width:100; stroke-opacity:1; 
stroke-linecap:round; stroke-linejoin:round;">
</g>
<g style="fill:#840000; fill-opacity:0.0; 
stroke:#840000; stroke-width:60; stroke-opacity:1; 
stroke-linecap:round; stroke-linejoin:round;">
<path d="M112570 78070
L112470 78070
L112420 78090
L112400 78110
L112350 78190
L112320 78280
L112320 78480
L112350 78530
L112370 78550
L112420 78580
L112520 78580
L112570 78550
L112590 78530
L112610 78480
L112610 78360
L112590 78310
L112570 78280
L112520 78260
L112420 78260
L112370 78280
L112350 78310
L112320 78360
" />
</g>
<g style="fill:#840000; fill-opacity:0.0; 
stroke:#840000; stroke-width:100; stroke-opacity:1; 
stroke-linecap:round; stroke-linejoin:round;">
</g>
<g style="fill:#840000; fill-opacity:0.0; 
stroke:#840000; stroke-width:60; stroke-opacity:1; 
stroke-linecap:round; stroke-linejoin:round;">
<path d="M3940 23620
L4720 23620
" />
</g>
<g style="fill:#840000; fill-opacity:0.0; 
stroke:#840000; stroke-width:100; stroke-opacity:1; 
stroke-linecap:round; stroke-linejoin:round;">
</g>
<g style="fill:#840000; fill-opacity:0.0; 
stroke:#840000; stroke-width:60; stroke-opacity:1; 
stroke-linecap:round; stroke-linejoin:round;">
<path d="M3940 43310
L4720 43310
" />
</g>
<g style="fill:#840000; fill-opacity:0.0; 
stroke:#840000; stroke-width:100; stroke-opacity:1; 
stroke-linecap:round; stroke-linejoin:round;">
</g>
<g style="fill:#840000; fill-opacity:0.0; 
stroke:#840000; stroke-width:60; stroke-opacity:1; 
stroke-linecap:round; stroke-linejoin:round;">
<path d="M3940 62990
L4720 62990
" />
</g>
<g style="fill:#840000; fill-opacity:0.0; 
stroke:#840000; stroke-width:100; stroke-opacity:1; 
stroke-linecap:round; stroke-linejoin:round;">
</g>
<g style="fill:#840000; fill-opacity:0.0; 
stroke:#840000; stroke-width:60; stroke-opacity:1; 
stroke-linecap:round; stroke-linejoin:round;">
<path d="M4200 13860
L4450 13860
" />
<path d="M4160 14010
L4330 13500
L4500 14010
" />
</g>
<g style="fill:#840000; fill-opacity:0.0; 
stroke:#840000; stroke-width:100; stroke-opacity:1; 
stroke-linecap:round; stroke-linejoin:round;">
</g>
<g style="fill:#840000; fill-opacity:0.0; 
stroke:#840000; stroke-width:60; stroke-opacity:1; 
stroke-linecap:round; stroke-linejoin:round;">
<path d="M4360 33420
L4430 33440
L4460 33470
L4480 33520
L4480 33590
L4460 33640
L4430 33660
L4390 33690
L4190 33690
L4190 33180
L4360 33180
L4410 33200
L4430 33220
L4460 33270
L4460 33320
L4430 33370
L4410 33390
L4360 33420
L4190 33420
" />
</g>
<g style="fill:#840000; fill-opacity:0.0; 
stroke:#840000; stroke-width:100; stroke-opacity:1; 
stroke-linecap:round; stroke-linejoin:round;">
</g>
<g style="fill:#840000; fill-opacity:0.0; 
stroke:#840000; stroke-width:60; stroke-opacity:1; 
stroke-linecap:round; stroke-linejoin:round;">
<path d="M4480 53330
L4460 53350
L4390 53380
L4340 53380
L4260 53350
L4220 53300
L4190 53250
L4170 53160
L4170 53080
L4190 52990
L4220 52940
L4260 52890
L4340 52870
L4390 52870
L4460 52890
L4480 52910
" />
</g>
<g style="fill:#840000; fill-opacity:0.0; 
stroke:#840000; stroke-width:100; stroke-opacity:1; 
stroke-linecap:round; stroke-linejoin:round;">
</g>
<g style="fill:#840000; fill-opacity:0.0; 
stroke:#840000; stroke-width:60; stroke-opacity:1; 
stroke-linecap:round; stroke-linejoin:round;">
<path d="M4190 73060
L4190 72550
L4310 72550
L4390 72570
L4430 72620
L4460 72670
L4480 72760
L4480 72840
L4460 72930
L4430 72980
L4390 73030
L4310 73060
L4190 73060
" />
</g>
<g style="fill:#840000; fill-opacity:0.0; 
stroke:#840000; stroke-width:100; stroke-opacity:1; 
stroke-linecap:round; stroke-linejoin:round;">
</g>
<g style="fill:#840000; fill-opacity:0.0; 
stroke:#840000; stroke-width:60; stroke-opacity:1; 
stroke-linecap:round; stroke-linejoin:round;">
<path d="M112990 23620
L112210 23620
" />
</g>
<g style="fill:#840000; fill-opacity:0.0; 
stroke:#840000; stroke-width:100; stroke-opacity:1; 
stroke-linecap:round; stroke-linejoin:round;">
</g>
<g style="fill:#840000; fill-opacity:0.0; 
stroke:#840000; stroke-width:60; stroke-opacity:1; 
stroke-linecap:round; stroke-linejoin:round;">
<path d="M112990 43310
L112210 43310
" />
</g>
<g style="fill:#840000; fill-opacity:0.0; 
stroke:#840000; stroke-width:100; stroke-opacity:1; 
stroke-linecap:round; stroke-linejoin:round;">
</g>
<g style="fill:#840000; fill-opacity:0.0; 
stroke:#840000; stroke-width:60; stroke-opacity:1; 
stroke-linecap:round; stroke-linejoin:round;">
<path d="M112990 62990
L112210 62990
" />
</g>
<g style="fill:#840000; fill-opacity:0.0; 
stroke:#840000; stroke-width:100; stroke-opacity:1; 
stroke-linecap:round; stroke-linejoin:round;">
</g>
<g style="fill:#840000; fill-opacity:0.0; 
stroke:#840000; stroke-width:60; stroke-opacity:1; 
stroke-linecap:round; stroke-linejoin:round;">
<path d="M112470 13860
L112720 13860
" />
<path d="M112430 14010
L112600 13500
L112770 14010
" />
</g>
<g style="fill:#840000; fill-opacity:0.0; 
stroke:#840000; stroke-width:100; stroke-opacity:1; 
stroke-linecap:round; stroke-linejoin:round;">
</g>
<g style="fill:#840000; fill-opacity:0.0; 
stroke:#840000; stroke-width:60; stroke-opacity:1; 
stroke-linecap:round; stroke-linejoin:round;">
<path d="M112630 33420
L112700 33440
L112730 33470
L112750 33520
L112750 33590
L112730 33640
L112700 33660
L112660 33690
L112460 33690
L112460 33180
L112630 33180
L112680 33200
L112700 33220
L112730 33270
L112730 33320
L112700 33370
L112680 33390
L112630 33420
L112460 33420
" />
</g>
<g style="fill:#840000; fill-opacity:0.0; 
stroke:#840000; stroke-width:100; stroke-opacity:1; 
stroke-linecap:round; stroke-linejoin:round;">
</g>
<g style="fill:#840000; fill-opacity:0.0; 
stroke:#840000; stroke-width:60; stroke-opacity:1; 
stroke-linecap:round; stroke-linejoin:round;">
<path d="M112750 53330
L112730 53350
L112660 53380
L112610 53380
L112530 53350
L112490 53300
L112460 53250
L112440 53160
L112440 53080
L112460 52990
L112490 52940
L112530 52890
L112610 52870
L112660 52870
L112730 52890
L112750 52910
" />
</g>
<g style="fill:#840000; fill-opacity:0.0; 
stroke:#840000; stroke-width:100; stroke-opacity:1; 
stroke-linecap:round; stroke-linejoin:round;">
</g>
<g style="fill:#840000; fill-opacity:0.0; 
stroke:#840000; stroke-width:60; stroke-opacity:1; 
stroke-linecap:round; stroke-linejoin:round;">
<path d="M112460 73060
L112460 72550
L112580 72550
L112660 72570
L112700 72620
L112730 72670
L112750 72760
L112750 72840
L112730 72930
L112700 72980
L112660 73030
L112580 73060
L112460 73060
" />
</g>
<g style="fill:#840000; fill-opacity:0.0; 
stroke:#840000; stroke-width:100; stroke-opacity:1; 
stroke-linecap:round; stroke-linejoin:round;">
</g>
<g style="fill:#840000; fill-opacity:0.0; 
stroke:#840000; stroke-width:60; stroke-opacity:1; 
stroke-linecap:round; stroke-linejoin:round;">
<path d="M78910 76290
L78910 75700
L79050 75700
L79130 75730
L79190 75790
L79210 75840
L79240 75950
L79240 76040
L79210 76150
L79190 76210
L79130 76260
L79050 76290
L78910 76290
" />
<path d="M79750 76290
L79750 75980
L79720 75930
L79660 75900
L79550 75900
L79500 75930
" />
<path d="M79750 76260
L79690 76290
L79550 76290
L79500 76260
L79470 76210
L79470 76150
L79500 76100
L79550 76070
L79690 76070
L79750 76040
" />
<path d="M79950 75900
L80170 75900
" />
<path d="M80030 75700
L80030 76210
L80060 76260
L80110 76290
L80170 76290
" />
<path d="M80590 76260
L80540 76290
L80420 76290
L80370 76260
L80340 76210
L80340 75980
L80370 75930
L80420 75900
L80540 75900
L80590 75930
L80620 75980
L80620 76040
L80340 76100
" />
<path d="M80870 76240
L80900 76260
L80870 76290
L80840 76260
L80870 76240
L80870 76290
" />
<path d="M80870 75930
L80900 75950
L80870 75980
L80840 75950
L80870 75930
L80870 75980
" />
</g>
<g style="fill:#840000; fill-opacity:0.0; 
stroke:#840000; stroke-width:100; stroke-opacity:1; 
stroke-linecap:round; stroke-linejoin:round;">
</g>
<g style="fill:#840000; fill-opacity:0.0; 
stroke:#840000; stroke-width:60; stroke-opacity:1; 
stroke-linecap:round; stroke-linejoin:round;">
<path d="M69690 76580
L112210 76580
" />
</g>
<g style="fill:#840000; fill-opacity:0.0; 
stroke:#840000; stroke-width:100; stroke-opacity:1; 
stroke-linecap:round; stroke-linejoin:round;">
</g>
<g style="fill:#840000; fill-opacity:0.0; 
stroke:#840000; stroke-width:60; stroke-opacity:1; 
stroke-linecap:round; stroke-linejoin:round;">
<path d="M70250 77390
L70250 76800
" />
<path d="M70580 77390
L70330 77050
" />
<path d="M70580 76800
L70250 77140
" />
<path d="M70840 77390
L70840 77000
" />
<path d="M70840 76800
L70810 76830
L70840 76860
L70860 76830
L70840 76800
L70840 76860
" />
<path d="M71450 77340
L71430 77360
L71340 77390
L71290 77390
L71200 77360
L71140 77310
L71120 77250
L71090 77140
L71090 77050
L71120 76940
L71140 76890
L71200 76830
L71290 76800
L71340 76800
L71430 76830
L71450 76860
" />
<path d="M71960 77390
L71960 77080
L71930 77030
L71880 77000
L71760 77000
L71710 77030
" />
<path d="M71960 77360
L71900 77390
L71760 77390
L71710 77360
L71680 77310
L71680 77250
L71710 77200
L71760 77170
L71900 77170
L71960 77140
" />
<path d="M72490 77390
L72490 76800
" />
<path d="M72490 77360
L72440 77390
L72320 77390
L72270 77360
L72240 77340
L72210 77280
L72210 77110
L72240 77050
L72270 77030
L72320 77000
L72440 77000
L72490 77030
" />
<path d="M73220 77080
L73420 77080
" />
<path d="M73500 77390
L73220 77390
L73220 76800
L73500 76800
" />
<path d="M73760 77340
L73790 77360
L73760 77390
L73730 77360
L73760 77340
L73760 77390
" />
<path d="M74040 77390
L74040 76800
L74180 76800
L74260 76830
L74320 76890
L74350 76940
L74380 77050
L74380 77140
L74350 77250
L74320 77310
L74260 77360
L74180 77390
L74040 77390
" />
<path d="M74630 77340
L74660 77360
L74630 77390
L74600 77360
L74630 77340
L74630 77390
" />
<path d="M74880 77220
L75160 77220
" />
<path d="M74830 77390
L75020 76800
L75220 77390
" />
<path d="M75420 77340
L75440 77360
L75420 77390
L75390 77360
L75420 77340
L75420 77390
" />
<path d="M76600 77390
L76600 76800
" />
<path d="M76650 77170
L76820 77390
" />
<path d="M76820 77000
L76600 77220
" />
<path d="M77070 77390
L77070 77000
" />
<path d="M77070 76800
L77040 76830
L77070 76860
L77100 76830
L77070 76800
L77070 76860
" />
<path d="M77610 77360
L77550 77390
L77440 77390
L77380 77360
L77350 77340
L77330 77280
L77330 77110
L77350 77050
L77380 77030
L77440 77000
L77550 77000
L77610 77030
" />
<path d="M78110 77390
L78110 77080
L78080 77030
L78030 77000
L77920 77000
L77860 77030
" />
<path d="M78110 77360
L78060 77390
L77920 77390
L77860 77360
L77830 77310
L77830 77250
L77860 77200
L77920 77170
L78060 77170
L78110 77140
" />
<path d="M78650 77390
L78650 76800
" />
<path d="M78650 77360
L78590 77390
L78480 77390
L78420 77360
L78390 77340
L78370 77280
L78370 77110
L78390 77050
L78420 77030
L78480 77000
L78590 77000
L78650 77030
" />
<path d="M79550 77620
L79520 77590
L79460 77500
L79430 77450
L79400 77360
L79380 77220
L79380 77110
L79400 76970
L79430 76890
L79460 76830
L79520 76750
L79550 76720
" />
<path d="M80050 76800
L79770 76800
L79740 77080
L79770 77050
L79830 77030
L79970 77030
L80020 77050
L80050 77080
L80080 77140
L80080 77280
L80050 77340
L80020 77360
L79970 77390
L79830 77390
L79770 77360
L79740 77340
" />
<path d="M80330 77340
L80360 77360
L80330 77390
L80300 77360
L80330 77340
L80330 77390
" />
<path d="M80920 77390
L80580 77390
" />
<path d="M80750 77390
L80750 76800
L80700 76890
L80640 76940
L80580 76970
" />
<path d="M81170 77340
L81200 77360
L81170 77390
L81150 77360
L81170 77340
L81170 77390
" />
<path d="M81570 76800
L81620 76800
L81680 76830
L81710 76860
L81740 76910
L81760 77030
L81760 77170
L81740 77280
L81710 77340
L81680 77360
L81620 77390
L81570 77390
L81510 77360
L81480 77340
L81460 77280
L81430 77170
L81430 77030
L81460 76910
L81480 76860
L81510 76830
L81570 76800
" />
<path d="M81960 77620
L81990 77590
L82050 77500
L82070 77450
L82100 77360
L82130 77220
L82130 77110
L82100 76970
L82070 76890
L82050 76830
L81990 76750
L81960 76720
" />
<path d="M82410 77170
L82860 77170
" />
<path d="M83450 77390
L83110 77390
" />
<path d="M83280 77390
L83280 76800
L83230 76890
L83170 76940
L83110 76970
" />
</g>
<g style="fill:#840000; fill-opacity:0.0; 
stroke:#840000; stroke-width:100; stroke-opacity:1; 
stroke-linecap:round; stroke-linejoin:round;">
</g>
<g style="fill:#840000; fill-opacity:0.0; 
stroke:#840000; stroke-width:60; stroke-opacity:1; 
stroke-linecap:round; stroke-linejoin:round;">
<path d="M69690 75400
L112210 75400
" />
</g>
<g style="fill:#840000; fill-opacity:0.0; 
stroke:#840000; stroke-width:100; stroke-opacity:1; 
stroke-linecap:round; stroke-linejoin:round;">
</g>
<g style="fill:#840000; fill-opacity:0.0; 
stroke:#840000; stroke-width:120; stroke-opacity:1; 
stroke-linecap:round; stroke-linejoin:round;">
<path d="M104090 76290
L103890 76010
" />
<path d="M103750 76290
L103750 75700
L103980 75700
L104030 75730
L104060 75760
L104090 75810
L104090 75900
L104060 75950
L104030 75980
L103980 76010
L103750 76010
" />
<path d="M104570 76260
L104510 76290
L104400 76290
L104340 76260
L104320 76210
L104320 75980
L104340 75930
L104400 75900
L104510 75900
L104570 75930
L104600 75980
L104600 76040
L104320 76100
" />
<path d="M104790 75900
L104930 76290
L105070 75900
" />
<path d="M105300 76240
L105330 76260
L105300 76290
L105270 76260
L105300 76240
L105300 76290
" />
<path d="M105300 75930
L105330 75950
L105300 75980
L105270 75950
L105300 75930
L105300 75980
" />
</g>
<g style="fill:#840000; fill-opacity:0.0; 
stroke:#840000; stroke-width:100; stroke-opacity:1; 
stroke-linecap:round; stroke-linejoin:round;">
</g>
<g style="fill:#840000; fill-opacity:0.0; 
stroke:#840000; stroke-width:60; stroke-opacity:1; 
stroke-linecap:round; stroke-linejoin:round;">
<path d="M70220 76260
L70300 76290
L70440 76290
L70500 76260
L70530 76240
L70550 76180
L70550 76120
L70530 76070
L70500 76040
L70440 76010
L70330 75980
L70270 75950
L70250 75930
L70220 75870
L70220 75810
L70250 75760
L70270 75730
L70330 75700
L70470 75700
L70550 75730
" />
<path d="M70810 76290
L70810 75900
" />
<path d="M70810 75700
L70780 75730
L70810 75760
L70840 75730
L70810 75700
L70810 75760
" />
<path d="M71030 75900
L71340 75900
L71030 76290
L71340 76290
" />
<path d="M71790 76260
L71730 76290
L71620 76290
L71570 76260
L71540 76210
L71540 75980
L71570 75930
L71620 75900
L71730 75900
L71790 75930
L71820 75980
L71820 76040
L71540 76100
" />
<path d="M72070 76240
L72100 76260
L72070 76290
L72040 76260
L72070 76240
L72070 76290
" />
<path d="M72070 75930
L72100 75950
L72070 75980
L72040 75950
L72070 75930
L72070 75980
" />
<path d="M72770 76120
L73060 76120
" />
<path d="M72720 76290
L72910 75700
L73110 76290
" />
<path d="M73560 75900
L73560 76290
" />
<path d="M73420 75670
L73280 76100
L73650 76100
" />
</g>
<g style="fill:#840000; fill-opacity:0.0; 
stroke:#840000; stroke-width:100; stroke-opacity:1; 
stroke-linecap:round; stroke-linejoin:round;">
</g>
<g style="fill:#840000; fill-opacity:0.0; 
stroke:#840000; stroke-width:60; stroke-opacity:1; 
stroke-linecap:round; stroke-linejoin:round;">
<path d="M103710 77390
L103710 76800
" />
<path d="M104240 77390
L104240 76800
" />
<path d="M104240 77360
L104180 77390
L104070 77390
L104010 77360
L103990 77340
L103960 77280
L103960 77110
L103990 77050
L104010 77030
L104070 77000
L104180 77000
L104240 77030
" />
<path d="M104520 77340
L104550 77360
L104520 77390
L104490 77360
L104520 77340
L104520 77390
" />
<path d="M104520 77030
L104550 77050
L104520 77080
L104490 77050
L104520 77030
L104520 77080
" />
<path d="M105560 77390
L105220 77390
" />
<path d="M105390 77390
L105390 76800
L105340 76890
L105280 76940
L105220 76970
" />
<path d="M106230 76770
L105730 77530
" />
<path d="M106370 76800
L106740 76800
L106540 77030
L106630 77030
L106680 77050
L106710 77080
L106740 77140
L106740 77280
L106710 77340
L106680 77360
L106630 77390
L106460 77390
L106400 77360
L106370 77340
" />
</g>
<g style="fill:#840000; fill-opacity:0.0; 
stroke:#840000; stroke-width:100; stroke-opacity:1; 
stroke-linecap:round; stroke-linejoin:round;">
</g>
<g style="fill:#840000; fill-opacity:0.0; 
stroke:#840000; stroke-width:60; stroke-opacity:1; 
stroke-linecap:round; stroke-linejoin:round;">
<path d="M69690 73820
L112210 73820
" />
</g>
<g style="fill:#840000; fill-opacity:0.0; 
stroke:#840000; stroke-width:100; stroke-opacity:1; 
stroke-linecap:round; stroke-linejoin:round;">
</g>
<g style="fill:#840000; fill-opacity:0.0; 
stroke:#840000; stroke-width:160; stroke-opacity:1; 
stroke-linecap:round; stroke-linejoin:round;">
<path d="M70360 74090
L70810 74090
" />
<path d="M70480 74880
L70580 74090
" />
<path d="M70970 74880
L71040 74360
" />
<path d="M71070 74090
L71030 74130
L71060 74170
L71110 74130
L71070 74090
L71060 74170
" />
<path d="M71300 74360
L71600 74360
" />
<path d="M71450 74090
L71360 74770
L71390 74840
L71460 74880
L71540 74880
" />
<path d="M71910 74880
L71840 74840
L71820 74770
L71900 74090
" />
<path d="M72520 74840
L72440 74880
L72290 74880
L72220 74840
L72190 74770
L72230 74470
L72280 74390
L72360 74360
L72510 74360
L72580 74390
L72610 74470
L72600 74540
L72210 74620
" />
<path d="M72900 74810
L72930 74840
L72890 74880
L72860 74840
L72900 74810
L72890 74880
" />
<path d="M72950 74390
L72990 74430
L72940 74470
L72910 74430
L72950 74390
L72940 74470
" />
<path d="M73840 74840
L73950 74880
L74130 74880
L74210 74840
L74260 74810
L74300 74730
L74310 74660
L74280 74580
L74250 74540
L74180 74510
L74030 74470
L73960 74430
L73930 74390
L73900 74320
L73910 74240
L73960 74170
L74000 74130
L74080 74090
L74270 74090
L74380 74130
" />
<path d="M74610 74660
L74990 74660
" />
<path d="M74510 74880
L74870 74090
L75040 74880
" />
<path d="M75300 74880
L75400 74090
L75750 74880
L75850 74090
" />
<path d="M76730 74880
L76830 74090
L77180 74880
L77280 74090
" />
<path d="M77670 74880
L77600 74840
L77570 74810
L77540 74730
L77570 74510
L77610 74430
L77660 74390
L77740 74360
L77850 74360
L77920 74390
L77950 74430
L77980 74510
L77950 74730
L77910 74810
L77860 74840
L77780 74880
L77670 74880
" />
<path d="M78610 74880
L78710 74090
" />
<path d="M78620 74840
L78540 74880
L78380 74880
L78310 74840
L78280 74810
L78250 74730
L78280 74510
L78330 74430
L78370 74390
L78450 74360
L78600 74360
L78670 74390
" />
<path d="M79290 74840
L79210 74880
L79060 74880
L78990 74840
L78960 74770
L79000 74470
L79050 74390
L79130 74360
L79280 74360
L79350 74390
L79380 74470
L79370 74540
L78980 74620
" />
</g>
<g style="fill:#840000; fill-opacity:0.0; 
stroke:#840000; stroke-width:100; stroke-opacity:1; 
stroke-linecap:round; stroke-linejoin:round;">
</g>
<g style="fill:#840000; fill-opacity:0.0; 
stroke:#840000; stroke-width:60; stroke-opacity:1; 
stroke-linecap:round; stroke-linejoin:round;">
<path d="M70440 73060
L70250 73060
" />
<path d="M70250 73370
L70250 72780
L70530 72780
" />
<path d="M70750 73370
L70750 72980
" />
<path d="M70750 72780
L70720 72810
L70750 72840
L70780 72810
L70750 72780
L70750 72840
" />
<path d="M71120 73370
L71060 73340
L71030 73290
L71030 72780
" />
<path d="M71570 73340
L71510 73370
L71400 73370
L71340 73340
L71310 73290
L71310 73060
L71340 73010
L71400 72980
L71510 72980
L71570 73010
L71590 73060
L71590 73120
L71310 73180
" />
<path d="M71850 73320
L71880 73340
L71850 73370
L71820 73340
L71850 73320
L71850 73370
" />
<path d="M71850 73010
L71880 73030
L71850 73060
L71820 73030
L71850 73010
L71850 73060
" />
<path d="M72580 72980
L72580 73370
" />
<path d="M72580 73030
L72610 73010
L72660 72980
L72750 72980
L72800 73010
L72830 73060
L72830 73370
" />
<path d="M73200 73370
L73140 73340
L73110 73320
L73080 73260
L73080 73090
L73110 73030
L73140 73010
L73200 72980
L73280 72980
L73340 73010
L73360 73030
L73390 73090
L73390 73260
L73360 73320
L73340 73340
L73280 73370
L73200 73370
" />
<path d="M73900 73370
L73900 72780
" />
<path d="M73900 73340
L73840 73370
L73730 73370
L73670 73340
L73650 73320
L73620 73260
L73620 73090
L73650 73030
L73670 73010
L73730 72980
L73840 72980
L73900 73010
" />
<path d="M74400 73340
L74350 73370
L74240 73370
L74180 73340
L74150 73290
L74150 73060
L74180 73010
L74240 72980
L74350 72980
L74400 73010
L74430 73060
L74430 73120
L74150 73180
" />
<path d="M74680 73320
L74710 73340
L74680 73370
L74660 73340
L74680 73320
L74680 73370
" />
<path d="M74940 73340
L74990 73370
L75110 73370
L75160 73340
L75190 73290
L75190 73260
L75160 73200
L75110 73180
L75020 73180
L74970 73150
L74940 73090
L74940 73060
L74970 73010
L75020 72980
L75110 72980
L75160 73010
" />
<path d="M75700 73340
L75640 73370
L75530 73370
L75470 73340
L75440 73320
L75420 73260
L75420 73090
L75440 73030
L75470 73010
L75530 72980
L75640 72980
L75700 73010
" />
<path d="M75950 73370
L75950 72780
" />
<path d="M76200 73370
L76200 73060
L76170 73010
L76120 72980
L76030 72980
L75980 73010
L75950 73030
" />
</g>
<g style="fill:#840000; fill-opacity:0.0; 
stroke:#840000; stroke-width:100; stroke-opacity:1; 
stroke-linecap:round; stroke-linejoin:round;">
</g>
<g style="fill:#840000; fill-opacity:0.0; 
stroke:#840000; stroke-width:60; stroke-opacity:1; 
stroke-linecap:round; stroke-linejoin:round;">
<path d="M69690 71460
L112210 71460
" />
</g>
<g style="fill:#840000; fill-opacity:0.0; 
stroke:#840000; stroke-width:100; stroke-opacity:1; 
stroke-linecap:round; stroke-linejoin:round;">
</g>
<g style="fill:#840000; fill-opacity:0.0; 
stroke:#840000; stroke-width:60; stroke-opacity:1; 
stroke-linecap:round; stroke-linejoin:round;">
<path d="M70220 72280
L70300 72310
L70440 72310
L70500 72280
L70530 72260
L70550 72200
L70550 72140
L70530 72090
L70500 72060
L70440 72030
L70330 72000
L70270 71970
L70250 71950
L70220 71890
L70220 71830
L70250 71780
L70270 71750
L70330 71720
L70470 71720
L70550 71750
" />
<path d="M70810 72310
L70810 71720
" />
<path d="M71060 72310
L71060 72000
L71030 71950
L70980 71920
L70890 71920
L70840 71950
L70810 71970
" />
<path d="M71570 72280
L71510 72310
L71400 72310
L71340 72280
L71310 72230
L71310 72000
L71340 71950
L71400 71920
L71510 71920
L71570 71950
L71590 72000
L71590 72060
L71310 72120
" />
<path d="M72070 72280
L72020 72310
L71900 72310
L71850 72280
L71820 72230
L71820 72000
L71850 71950
L71900 71920
L72020 71920
L72070 71950
L72100 72000
L72100 72060
L71820 72120
" />
<path d="M72270 71920
L72490 71920
" />
<path d="M72350 71720
L72350 72230
L72380 72280
L72440 72310
L72490 72310
" />
<path d="M72690 72260
L72720 72280
L72690 72310
L72660 72280
L72690 72260
L72690 72310
" />
<path d="M72690 71950
L72720 71970
L72690 72000
L72660 71970
L72690 71950
L72690 72000
" />
<path d="M73840 71690
L73340 72450
" />
</g>
<g style="fill:#840000; fill-opacity:0.0; 
stroke:#840000; stroke-width:100; stroke-opacity:1; 
stroke-linecap:round; stroke-linejoin:round;">
</g>
<g style="fill:#840000; fill-opacity:0.0; 
stroke:#840000; stroke-width:60; stroke-opacity:1; 
stroke-linecap:round; stroke-linejoin:round;">
<path d="M70250 66400
L70250 65810
L70470 65810
L70530 65840
L70550 65870
L70580 65920
L70580 66010
L70550 66060
L70530 66090
L70470 66120
L70250 66120
" />
<path d="M71090 66400
L71090 66090
L71060 66040
L71000 66010
L70890 66010
L70840 66040
" />
<path d="M71090 66370
L71030 66400
L70890 66400
L70840 66370
L70810 66320
L70810 66260
L70840 66210
L70890 66180
L71030 66180
L71090 66150
" />
<path d="M71370 66400
L71370 66010
" />
<path d="M71370 66120
L71400 66060
L71430 66040
L71480 66010
L71540 66010
" />
<path d="M71960 66370
L71900 66400
L71790 66400
L71730 66370
L71710 66320
L71710 66090
L71730 66040
L71790 66010
L71900 66010
L71960 66040
L71990 66090
L71990 66150
L71710 66210
" />
<path d="M72240 66010
L72240 66400
" />
<path d="M72240 66060
L72270 66040
L72320 66010
L72410 66010
L72470 66040
L72490 66090
L72490 66400
" />
<path d="M72690 66010
L72910 66010
" />
<path d="M72770 65810
L72770 66320
L72800 66370
L72860 66400
L72910 66400
" />
<path d="M73560 66010
L73560 66600
" />
<path d="M73560 66040
L73620 66010
L73730 66010
L73790 66040
L73810 66060
L73840 66120
L73840 66290
L73810 66350
L73790 66370
L73730 66400
L73620 66400
L73560 66370
" />
<path d="M74090 66400
L74090 66010
" />
<path d="M74090 66120
L74120 66060
L74150 66040
L74210 66010
L74260 66010
" />
<path d="M74540 66400
L74490 66370
L74460 66350
L74430 66290
L74430 66120
L74460 66060
L74490 66040
L74540 66010
L74630 66010
L74680 66040
L74710 66060
L74740 66120
L74740 66290
L74710 66350
L74680 66370
L74630 66400
L74540 66400
" />
<path d="M74990 66010
L74990 66510
L74970 66570
L74910 66600
L74880 66600
" />
<path d="M74990 65810
L74970 65840
L74990 65870
L75020 65840
L74990 65810
L74990 65870
" />
<path d="M75500 66370
L75440 66400
L75330 66400
L75270 66370
L75250 66320
L75250 66090
L75270 66040
L75330 66010
L75440 66010
L75500 66040
L75530 66090
L75530 66150
L75250 66210
" />
<path d="M76030 66370
L75980 66400
L75860 66400
L75810 66370
L75780 66350
L75750 66290
L75750 66120
L75780 66060
L75810 66040
L75860 66010
L75980 66010
L76030 66040
" />
<path d="M76200 66010
L76430 66010
" />
<path d="M76290 65810
L76290 66320
L76310 66370
L76370 66400
L76430 66400
" />
<path d="M76620 66350
L76650 66370
L76620 66400
L76600 66370
L76620 66350
L76620 66400
" />
<path d="M76620 66040
L76650 66060
L76620 66090
L76600 66060
L76620 66040
L76620 66090
" />
<path d="M77350 66400
L77350 65810
" />
<path d="M77610 66400
L77610 66090
L77580 66040
L77520 66010
L77440 66010
L77380 66040
L77350 66060
" />
<path d="M77800 66010
L78030 66010
" />
<path d="M77890 65810
L77890 66320
L77920 66370
L77970 66400
L78030 66400
" />
<path d="M78140 66010
L78370 66010
" />
<path d="M78220 65810
L78220 66320
L78250 66370
L78310 66400
L78370 66400
" />
<path d="M78560 66010
L78560 66600
" />
<path d="M78560 66040
L78620 66010
L78730 66010
L78790 66040
L78810 66060
L78840 66120
L78840 66290
L78810 66350
L78790 66370
L78730 66400
L78620 66400
L78560 66370
" />
<path d="M79070 66370
L79120 66400
L79240 66400
L79290 66370
L79320 66320
L79320 66290
L79290 66230
L79240 66210
L79150 66210
L79100 66180
L79070 66120
L79070 66090
L79100 66040
L79150 66010
L79240 66010
L79290 66040
" />
<path d="M79570 66350
L79600 66370
L79570 66400
L79550 66370
L79570 66350
L79570 66400
" />
<path d="M79570 66040
L79600 66060
L79570 66090
L79550 66060
L79570 66040
L79570 66090
" />
<path d="M80280 65780
L79770 66540
" />
<path d="M80890 65780
L80390 66540
" />
<path d="M81340 66010
L81340 66490
L81320 66540
L81290 66570
L81230 66600
L81150 66600
L81090 66570
" />
<path d="M81340 66370
L81290 66400
L81170 66400
L81120 66370
L81090 66350
L81060 66290
L81060 66120
L81090 66060
L81120 66040
L81170 66010
L81290 66010
L81340 66040
" />
<path d="M81620 66400
L81620 66010
" />
<path d="M81620 65810
L81600 65840
L81620 65870
L81650 65840
L81620 65810
L81620 65870
" />
<path d="M81820 66010
L82050 66010
" />
<path d="M81910 65810
L81910 66320
L81930 66370
L81990 66400
L82050 66400
" />
<path d="M82240 66400
L82240 65810
" />
<path d="M82500 66400
L82500 66090
L82470 66040
L82410 66010
L82330 66010
L82270 66040
L82240 66060
" />
<path d="M83030 66010
L83030 66400
" />
<path d="M82780 66010
L82780 66320
L82800 66370
L82860 66400
L82940 66400
L83000 66370
L83030 66350
" />
<path d="M83310 66400
L83310 65810
" />
<path d="M83310 66040
L83370 66010
L83480 66010
L83530 66040
L83560 66060
L83590 66120
L83590 66290
L83560 66350
L83530 66370
L83480 66400
L83370 66400
L83310 66370
" />
<path d="M83840 66350
L83870 66370
L83840 66400
L83820 66370
L83840 66350
L83840 66400
" />
<path d="M84380 66370
L84320 66400
L84210 66400
L84150 66370
L84120 66350
L84100 66290
L84100 66120
L84120 66060
L84150 66040
L84210 66010
L84320 66010
L84380 66040
" />
<path d="M84710 66400
L84660 66370
L84630 66350
L84600 66290
L84600 66120
L84630 66060
L84660 66040
L84710 66010
L84800 66010
L84860 66040
L84880 66060
L84910 66120
L84910 66290
L84880 66350
L84860 66370
L84800 66400
L84710 66400
" />
<path d="M85160 66400
L85160 66010
" />
<path d="M85160 66060
L85190 66040
L85250 66010
L85330 66010
L85390 66040
L85420 66090
L85420 66400
" />
<path d="M85420 66090
L85450 66040
L85500 66010
L85590 66010
L85640 66040
L85670 66090
L85670 66400
" />
<path d="M86370 65780
L85870 66540
" />
<path d="M86480 66010
L86710 66010
" />
<path d="M86570 66400
L86570 65900
L86600 65840
L86650 65810
L86710 65810
" />
<path d="M87130 66370
L87070 66400
L86960 66400
L86910 66370
L86880 66320
L86880 66090
L86910 66040
L86960 66010
L87070 66010
L87130 66040
L87160 66090
L87160 66150
L86880 66210
" />
<path d="M87410 66400
L87410 65810
" />
<path d="M87470 66180
L87640 66400
" />
<path d="M87640 66010
L87410 66230
" />
<path d="M87970 66400
L87920 66370
L87890 66320
L87890 65810
" />
<path d="M88420 66370
L88370 66400
L88250 66400
L88200 66370
L88170 66320
L88170 66090
L88200 66040
L88250 66010
L88370 66010
L88420 66040
L88450 66090
L88450 66150
L88170 66210
" />
<path d="M88930 66370
L88870 66400
L88760 66400
L88700 66370
L88680 66320
L88680 66090
L88700 66040
L88760 66010
L88870 66010
L88930 66040
L88960 66090
L88960 66150
L88680 66210
" />
<path d="M89630 65780
L89130 66540
" />
<path d="M89800 66370
L89860 66400
L89970 66400
L90020 66370
L90050 66320
L90050 66290
L90020 66230
L89970 66210
L89880 66210
L89830 66180
L89800 66120
L89800 66090
L89830 66040
L89880 66010
L89970 66010
L90020 66040
" />
<path d="M90560 66400
L90560 66090
L90530 66040
L90470 66010
L90360 66010
L90310 66040
" />
<path d="M90560 66370
L90500 66400
L90360 66400
L90310 66370
L90280 66320
L90280 66260
L90310 66210
L90360 66180
L90500 66180
L90560 66150
" />
<path d="M90840 66010
L90840 66400
" />
<path d="M90840 66060
L90870 66040
L90920 66010
L91010 66010
L91060 66040
L91090 66090
L91090 66400
" />
</g>
<g style="fill:#840000; fill-opacity:0.0; 
stroke:#840000; stroke-width:100; stroke-opacity:1; 
stroke-linecap:round; stroke-linejoin:round;">
</g>
<g style="fill:#840000; fill-opacity:0.0; 
stroke:#840000; stroke-width:60; stroke-opacity:1; 
stroke-linecap:round; stroke-linejoin:round;">
<path d="M77560 75400
L77560 76580
" />
</g>
<g style="fill:#840000; fill-opacity:0.0; 
stroke:#840000; stroke-width:100; stroke-opacity:1; 
stroke-linecap:round; stroke-linejoin:round;">
</g>
<g style="fill:#840000; fill-opacity:0.0; 
stroke:#840000; stroke-width:60; stroke-opacity:1; 
stroke-linecap:round; stroke-linejoin:round;">
<path d="M102760 75400
L102760 77960
" />
</g>
<g style="fill:#840084; fill-opacity:0.0; 
stroke:#840084; stroke-width:60; stroke-opacity:1; 
stroke-linecap:round; stroke-linejoin:round;">
<path d="M44500 30500
L55500 30500
L55500 39000
L44500 39000
L44500 30500
" />
</g>
<g style="fill:#008484; fill-opacity:0.0; 
stroke:#008484; stroke-width:60; stroke-opacity:1; 
stroke-linecap:round; stroke-linejoin:round;">
</g>
<g style="fill:#000000; fill-opacity:0.0; 
stroke:#000000; stroke-width:60; stroke-opacity:1; 
stroke-linecap:round; stroke-linejoin:round;">
<path d="M44570 29930
L44860 29930
" />
<path d="M44720 30430
L44720 29930
" />
<path d="M45100 30430
L45050 30410
L45030 30380
L45000 30340
L45000 30190
L45030 30150
L45050 30120
L45100 30100
L45170 30100
L45220 30120
L45240 30150
L45260 30190
L45260 30340
L45240 30380
L45220 30410
L45170 30430
L45100 30430
" />
<path d="M45480 30100
L45480 30600
" />
<path d="M45480 30120
L45530 30100
L45620 30100
L45670 30120
L45690 30150
L45720 30190
L45720 30340
L45690 30380
L45670 30410
L45620 30430
L45530 30430
L45480 30410
" />
<path d="M46310 30430
L46310 29930
" />
<path d="M46310 30170
L46600 30170
" />
<path d="M46600 30430
L46600 29930
" />
<path d="M47030 30410
L46980 30430
L46880 30430
L46830 30410
L46810 30360
L46810 30170
L46830 30120
L46880 30100
L46980 30100
L47030 30120
L47050 30170
L47050 30220
L46810 30260
" />
<path d="M47260 30430
L47260 30100
" />
<path d="M47260 30150
L47290 30120
L47330 30100
L47410 30100
L47450 30120
L47480 30170
L47480 30430
" />
<path d="M47480 30170
L47500 30120
L47550 30100
L47620 30100
L47670 30120
L47690 30170
L47690 30430
" />
<path d="M47930 30430
L47930 30100
" />
<path d="M47930 29930
L47910 29960
L47930 29980
L47950 29960
L47930 29930
L47930 29980
" />
<path d="M48140 30410
L48190 30430
L48290 30430
L48330 30410
L48360 30360
L48360 30340
L48330 30290
L48290 30260
L48220 30260
L48170 30240
L48140 30190
L48140 30170
L48170 30120
L48220 30100
L48290 30100
L48330 30120
" />
<path d="M48570 30100
L48570 30600
" />
<path d="M48570 30120
L48620 30100
L48720 30100
L48760 30120
L48790 30150
L48810 30190
L48810 30340
L48790 30380
L48760 30410
L48720 30430
L48620 30430
L48570 30410
" />
<path d="M49030 30430
L49030 29930
" />
<path d="M49240 30430
L49240 30170
L49220 30120
L49170 30100
L49100 30100
L49050 30120
L49030 30150
" />
<path d="M49670 30410
L49620 30430
L49530 30430
L49480 30410
L49450 30360
L49450 30170
L49480 30120
L49530 30100
L49620 30100
L49670 30120
L49690 30170
L49690 30220
L49450 30260
" />
<path d="M49910 30430
L49910 30100
" />
<path d="M49910 30190
L49930 30150
L49950 30120
L50000 30100
L50050 30100
" />
<path d="M50410 30410
L50360 30430
L50260 30430
L50220 30410
L50190 30360
L50190 30170
L50220 30120
L50260 30100
L50360 30100
L50410 30120
L50430 30170
L50430 30220
L50190 30260
" />
</g>
<g style="fill:#848400; fill-opacity:0.0; 
stroke:#848400; stroke-width:60; stroke-opacity:1; 
stroke-linecap:round; stroke-linejoin:round;">
</g>
<g style="fill:#000000; fill-opacity:0.0; 
stroke:#000000; stroke-width:60; stroke-opacity:1; 
stroke-linecap:round; stroke-linejoin:round;">
<path d="M44570 39180
L44760 39180
" />
<path d="M44640 39010
L44640 39440
L44670 39490
L44720 39510
L44760 39510
" />
<path d="M45000 39510
L44950 39490
L44930 39460
L44910 39420
L44910 39270
L44930 39230
L44950 39200
L45000 39180
L45070 39180
L45120 39200
L45140 39230
L45170 39270
L45170 39420
L45140 39460
L45120 39490
L45070 39510
L45000 39510
" />
<path d="M45380 39180
L45380 39680
" />
<path d="M45380 39200
L45430 39180
L45530 39180
L45570 39200
L45600 39230
L45620 39270
L45620 39420
L45600 39460
L45570 39490
L45530 39510
L45430 39510
L45380 39490
" />
<path d="M45830 39460
L45860 39490
L45830 39510
L45810 39490
L45830 39460
L45830 39510
" />
<path d="M46050 39490
L46100 39510
L46190 39510
L46240 39490
L46260 39440
L46260 39420
L46240 39370
L46190 39340
L46120 39340
L46070 39320
L46050 39270
L46050 39250
L46070 39200
L46120 39180
L46190 39180
L46240 39200
" />
<path d="M46690 39490
L46640 39510
L46550 39510
L46500 39490
L46480 39460
L46450 39420
L46450 39270
L46480 39230
L46500 39200
L46550 39180
L46640 39180
L46690 39200
" />
<path d="M46910 39510
L46910 39010
" />
<path d="M47120 39510
L47120 39250
L47100 39200
L47050 39180
L46980 39180
L46930 39200
L46910 39230
" />
</g>
<g style="fill:#840084; fill-opacity:0.0; 
stroke:#840084; stroke-width:60; stroke-opacity:1; 
stroke-linecap:round; stroke-linejoin:round;">
</g>
<g style="fill:#848400; fill-opacity:0.0; 
stroke:#848400; stroke-width:60; stroke-opacity:1; 
stroke-linecap:round; stroke-linejoin:round;">
<path d="M53720 36750
L53670 36720
L53600 36720
L53530 36750
L53480 36790
L53460 36840
L53440 36940
L53440 37010
L53460 37100
L53480 37150
L53530 37200
L53600 37220
L53650 37220
L53720 37200
L53750 37170
L53750 37010
L53650 37010
" />
<path d="M53960 37220
L53960 36720
L54250 37220
L54250 36720
" />
<path d="M54480 37220
L54480 36720
L54600 36720
L54670 36750
L54720 36790
L54750 36840
L54770 36940
L54770 37010
L54750 37100
L54720 37150
L54670 37200
L54600 37220
L54480 37220
" />
</g>
<g style="fill:#848400; fill-opacity:0.0; 
stroke:#848400; stroke-width:100; stroke-opacity:1; 
stroke-linecap:round; stroke-linejoin:round;">
<path style="fill:#848400; fill-opacity:0.0; 
stroke:#848400; stroke-width:100; stroke-opacity:1; 
stroke-linecap:round; stroke-linejoin:round;fill:none"
d="M 55500,36750
55000,36750
55000,37250
55500,37250
55500,36750
Z" /> 
</g>
<g style="fill:#848400; fill-opacity:0.0; 
stroke:#848400; stroke-width:60; stroke-opacity:1; 
stroke-linecap:round; stroke-linejoin:round;">
<path d="M51440 35960
L51510 35980
L51530 36010
L51560 36050
L51560 36130
L51530 36170
L51510 36200
L51460 36220
L51270 36220
L51270 35720
L51440 35720
L51480 35750
L51510 35770
L51530 35820
L51530 35860
L51510 35910
L51480 35940
L51440 35960
L51270 35960
" />
<path d="M51750 36080
L51980 36080
" />
<path d="M51700 36220
L51870 35720
L52030 36220
" />
<path d="M52130 35720
L52410 35720
" />
<path d="M52270 36220
L52270 35720
" />
<path d="M52510 35720
L52790 35720
" />
<path d="M52650 36220
L52650 35720
" />
<path d="M52960 36030
L53340 36030
" />
<path d="M53750 35960
L53820 35980
L53840 36010
L53870 36050
L53870 36130
L53840 36170
L53820 36200
L53770 36220
L53580 36220
L53580 35720
L53750 35720
L53790 35750
L53820 35770
L53840 35820
L53840 35860
L53820 35910
L53790 35940
L53750 35960
L53580 35960
" />
<path d="M54170 35720
L54270 35720
L54320 35750
L54370 35790
L54390 35890
L54390 36050
L54370 36150
L54320 36200
L54270 36220
L54170 36220
L54130 36200
L54080 36150
L54060 36050
L54060 35890
L54080 35790
L54130 35750
L54170 35720
" />
<path d="M54530 35720
L54820 35720
" />
<path d="M54670 36220
L54670 35720
" />
</g>
<g style="fill:#848400; fill-opacity:0.0; 
stroke:#848400; stroke-width:100; stroke-opacity:1; 
stroke-linecap:round; stroke-linejoin:round;">
<path style="fill:#848400; fill-opacity:0.0; 
stroke:#848400; stroke-width:100; stroke-opacity:1; 
stroke-linecap:round; stroke-linejoin:round;fill:none"
d="M 55500,35750
55000,35750
55000,36250
55500,36250
55500,35750
Z" /> 
</g>
<g style="fill:#848400; fill-opacity:0.0; 
stroke:#848400; stroke-width:60; stroke-opacity:1; 
stroke-linecap:round; stroke-linejoin:round;">
<path d="M52530 32960
L52600 32980
L52630 33010
L52650 33050
L52650 33130
L52630 33170
L52600 33200
L52560 33220
L52370 33220
L52370 32720
L52530 32720
L52580 32750
L52600 32770
L52630 32820
L52630 32860
L52600 32910
L52580 32940
L52530 32960
L52370 32960
" />
<path d="M52870 33220
L52870 32720
L53150 33220
L53150 32720
" />
<path d="M53670 33170
L53650 33200
L53580 33220
L53530 33220
L53460 33200
L53410 33150
L53390 33100
L53370 33010
L53370 32940
L53390 32840
L53410 32790
L53460 32750
L53530 32720
L53580 32720
L53650 32750
L53670 32770
" />
<path d="M53890 33030
L54270 33030
" />
<path d="M54460 32720
L54770 32720
L54600 32910
L54670 32910
L54720 32940
L54750 32960
L54770 33010
L54770 33130
L54750 33170
L54720 33200
L54670 33220
L54530 33220
L54480 33200
L54460 33170
" />
</g>
<g style="fill:#848400; fill-opacity:0.0; 
stroke:#848400; stroke-width:100; stroke-opacity:1; 
stroke-linecap:round; stroke-linejoin:round;">
<path style="fill:#848400; fill-opacity:0.0; 
stroke:#848400; stroke-width:100; stroke-opacity:1; 
stroke-linecap:round; stroke-linejoin:round;fill:none"
d="M 55000,33000
55250,33250
55500,33250
55500,32750
55250,32750
55000,33000
Z" /> 
</g>
<g style="fill:#848400; fill-opacity:0.0; 
stroke:#848400; stroke-width:60; stroke-opacity:1; 
stroke-linecap:round; stroke-linejoin:round;">
<path d="M52530 33960
L52600 33980
L52630 34010
L52650 34050
L52650 34130
L52630 34170
L52600 34200
L52560 34220
L52370 34220
L52370 33720
L52530 33720
L52580 33750
L52600 33770
L52630 33820
L52630 33860
L52600 33910
L52580 33940
L52530 33960
L52370 33960
" />
<path d="M52870 34220
L52870 33720
L53150 34220
L53150 33720
" />
<path d="M53670 34170
L53650 34200
L53580 34220
L53530 34220
L53460 34200
L53410 34150
L53390 34100
L53370 34010
L53370 33940
L53390 33840
L53410 33790
L53460 33750
L53530 33720
L53580 33720
L53650 33750
L53670 33770
" />
<path d="M53890 34030
L54270 34030
" />
<path d="M54720 33890
L54720 34220
" />
<path d="M54600 33700
L54480 34050
L54790 34050
" />
</g>
<g style="fill:#848400; fill-opacity:0.0; 
stroke:#848400; stroke-width:100; stroke-opacity:1; 
stroke-linecap:round; stroke-linejoin:round;">
<path style="fill:#848400; fill-opacity:0.0; 
stroke:#848400; stroke-width:100; stroke-opacity:1; 
stroke-linecap:round; stroke-linejoin:round;fill:none"
d="M 55000,34000
55250,34250
55500,34250
55500,33750
55250,33750
55000,34000
Z" /> 
</g>
<g style="fill:#848400; fill-opacity:0.0; 
stroke:#848400; stroke-width:60; stroke-opacity:1; 
stroke-linecap:round; stroke-linejoin:round;">
<path d="M53060 32220
L53060 31720
L53170 31720
L53250 31750
L53290 31790
L53320 31840
L53340 31940
L53340 32010
L53320 32100
L53290 32150
L53250 32200
L53170 32220
L53060 32220
" />
<path d="M53650 31720
L53750 31720
L53790 31750
L53840 31790
L53870 31890
L53870 32050
L53840 32150
L53790 32200
L53750 32220
L53650 32220
L53600 32200
L53560 32150
L53530 32050
L53530 31890
L53560 31790
L53600 31750
L53650 31720
" />
<path d="M54080 31720
L54080 32130
L54100 32170
L54130 32200
L54170 32220
L54270 32220
L54320 32200
L54340 32170
L54370 32130
L54370 31720
" />
<path d="M54530 31720
L54820 31720
" />
<path d="M54670 32220
L54670 31720
" />
</g>
<g style="fill:#848400; fill-opacity:0.0; 
stroke:#848400; stroke-width:100; stroke-opacity:1; 
stroke-linecap:round; stroke-linejoin:round;">
<path style="fill:#848400; fill-opacity:0.0; 
stroke:#848400; stroke-width:100; stroke-opacity:1; 
stroke-linecap:round; stroke-linejoin:round;fill:none"
d="M 55500,32000
55250,31750
55000,31750
55000,32250
55250,32250
55500,32000
Z" /> 
</g>
<g style="fill:#848400; fill-opacity:0.0; 
stroke:#848400; stroke-width:60; stroke-opacity:1; 
stroke-linecap:round; stroke-linejoin:round;">
<path d="M53460 35030
L53840 35030
" />
<path d="M53650 35220
L53650 34840
" />
<path d="M54320 34720
L54080 34720
L54060 34960
L54080 34940
L54130 34910
L54250 34910
L54290 34940
L54320 34960
L54340 35010
L54340 35130
L54320 35170
L54290 35200
L54250 35220
L54130 35220
L54080 35200
L54060 35170
" />
<path d="M54480 34720
L54650 35220
L54820 34720
" />
</g>
<g style="fill:#848400; fill-opacity:0.0; 
stroke:#848400; stroke-width:100; stroke-opacity:1; 
stroke-linecap:round; stroke-linejoin:round;">
<path style="fill:#848400; fill-opacity:0.0; 
stroke:#848400; stroke-width:100; stroke-opacity:1; 
stroke-linecap:round; stroke-linejoin:round;fill:none"
d="M 55500,35000
55250,34750
55000,34750
55000,35250
55250,35250
55500,35000
Z" /> 
</g>
<g style="fill:#848400; fill-opacity:0.0; 
stroke:#848400; stroke-width:60; stroke-opacity:1; 
stroke-linecap:round; stroke-linejoin:round;">
</g>
<g style="fill:#840084; fill-opacity:0.0; 
stroke:#840084; stroke-width:60; stroke-opacity:1; 
stroke-linecap:round; stroke-linejoin:round;">
<path d="M56500 30500
L67000 30500
L67000 39000
L56500 39000
L56500 30500
" />
</g>
<g style="fill:#008484; fill-opacity:0.0; 
stroke:#008484; stroke-width:60; stroke-opacity:1; 
stroke-linecap:round; stroke-linejoin:round;">
</g>
<g style="fill:#000000; fill-opacity:0.0; 
stroke:#000000; stroke-width:60; stroke-opacity:1; 
stroke-linecap:round; stroke-linejoin:round;">
<path d="M56810 30170
L56880 30190
L56910 30220
L56930 30260
L56930 30340
L56910 30380
L56880 30410
L56830 30430
L56640 30430
L56640 29930
L56810 29930
L56860 29960
L56880 29980
L56910 30030
L56910 30070
L56880 30120
L56860 30150
L56810 30170
L56640 30170
" />
<path d="M57220 30430
L57170 30410
L57140 30380
L57120 30340
L57120 30190
L57140 30150
L57170 30120
L57220 30100
L57290 30100
L57330 30120
L57360 30150
L57380 30190
L57380 30340
L57360 30380
L57330 30410
L57290 30430
L57220 30430
" />
<path d="M57530 30100
L57720 30100
" />
<path d="M57600 29930
L57600 30360
L57620 30410
L57670 30430
L57720 30430
" />
<path d="M57810 30100
L58000 30100
" />
<path d="M57880 29930
L57880 30360
L57910 30410
L57950 30430
L58000 30430
" />
<path d="M58240 30430
L58190 30410
L58170 30380
L58140 30340
L58140 30190
L58170 30150
L58190 30120
L58240 30100
L58310 30100
L58360 30120
L58380 30150
L58410 30190
L58410 30340
L58380 30380
L58360 30410
L58310 30430
L58240 30430
" />
<path d="M58620 30430
L58620 30100
" />
<path d="M58620 30150
L58640 30120
L58690 30100
L58760 30100
L58810 30120
L58830 30170
L58830 30430
" />
<path d="M58830 30170
L58860 30120
L58910 30100
L58980 30100
L59030 30120
L59050 30170
L59050 30430
" />
<path d="M59670 30430
L59670 29930
" />
<path d="M59880 30430
L59880 30170
L59860 30120
L59810 30100
L59740 30100
L59690 30120
L59670 30150
" />
<path d="M60310 30410
L60260 30430
L60170 30430
L60120 30410
L60100 30360
L60100 30170
L60120 30120
L60170 30100
L60260 30100
L60310 30120
L60330 30170
L60330 30220
L60100 30260
" />
<path d="M60550 30430
L60550 30100
" />
<path d="M60550 30150
L60570 30120
L60620 30100
L60690 30100
L60740 30120
L60760 30170
L60760 30430
" />
<path d="M60760 30170
L60790 30120
L60830 30100
L60910 30100
L60950 30120
L60980 30170
L60980 30430
" />
<path d="M61220 30430
L61220 30100
" />
<path d="M61220 29930
L61190 29960
L61220 29980
L61240 29960
L61220 29930
L61220 29980
" />
<path d="M61430 30410
L61480 30430
L61570 30430
L61620 30410
L61640 30360
L61640 30340
L61620 30290
L61570 30260
L61500 30260
L61450 30240
L61430 30190
L61430 30170
L61450 30120
L61500 30100
L61570 30100
L61620 30120
" />
<path d="M61860 30100
L61860 30600
" />
<path d="M61860 30120
L61910 30100
L62000 30100
L62050 30120
L62070 30150
L62100 30190
L62100 30340
L62070 30380
L62050 30410
L62000 30430
L61910 30430
L61860 30410
" />
<path d="M62310 30430
L62310 29930
" />
<path d="M62530 30430
L62530 30170
L62500 30120
L62450 30100
L62380 30100
L62330 30120
L62310 30150
" />
<path d="M62950 30410
L62910 30430
L62810 30430
L62760 30410
L62740 30360
L62740 30170
L62760 30120
L62810 30100
L62910 30100
L62950 30120
L62980 30170
L62980 30220
L62740 30260
" />
<path d="M63190 30430
L63190 30100
" />
<path d="M63190 30190
L63220 30150
L63240 30120
L63290 30100
L63330 30100
" />
<path d="M63690 30410
L63640 30430
L63550 30430
L63500 30410
L63480 30360
L63480 30170
L63500 30120
L63550 30100
L63640 30100
L63690 30120
L63720 30170
L63720 30220
L63480 30260
" />
</g>
<g style="fill:#848400; fill-opacity:0.0; 
stroke:#848400; stroke-width:60; stroke-opacity:1; 
stroke-linecap:round; stroke-linejoin:round;">
</g>
<g style="fill:#000000; fill-opacity:0.0; 
stroke:#000000; stroke-width:60; stroke-opacity:1; 
stroke-linecap:round; stroke-linejoin:round;">
<path d="M56640 39510
L56640 39010
" />
<path d="M56640 39200
L56690 39180
L56790 39180
L56830 39200
L56860 39230
L56880 39270
L56880 39420
L56860 39460
L56830 39490
L56790 39510
L56690 39510
L56640 39490
" />
<path d="M57170 39510
L57120 39490
L57100 39460
L57070 39420
L57070 39270
L57100 39230
L57120 39200
L57170 39180
L57240 39180
L57290 39200
L57310 39230
L57330 39270
L57330 39420
L57310 39460
L57290 39490
L57240 39510
L57170 39510
" />
<path d="M57480 39180
L57670 39180
" />
<path d="M57550 39010
L57550 39440
L57570 39490
L57620 39510
L57670 39510
" />
<path d="M57760 39180
L57950 39180
" />
<path d="M57830 39010
L57830 39440
L57860 39490
L57910 39510
L57950 39510
" />
<path d="M58190 39510
L58140 39490
L58120 39460
L58100 39420
L58100 39270
L58120 39230
L58140 39200
L58190 39180
L58260 39180
L58310 39200
L58330 39230
L58360 39270
L58360 39420
L58330 39460
L58310 39490
L58260 39510
L58190 39510
" />
<path d="M58570 39510
L58570 39180
" />
<path d="M58570 39230
L58600 39200
L58640 39180
L58720 39180
L58760 39200
L58790 39250
L58790 39510
" />
<path d="M58790 39250
L58810 39200
L58860 39180
L58930 39180
L58980 39200
L59000 39250
L59000 39510
" />
<path d="M59240 39460
L59260 39490
L59240 39510
L59220 39490
L59240 39460
L59240 39510
" />
<path d="M59450 39490
L59500 39510
L59600 39510
L59640 39490
L59670 39440
L59670 39420
L59640 39370
L59600 39340
L59530 39340
L59480 39320
L59450 39270
L59450 39250
L59480 39200
L59530 39180
L59600 39180
L59640 39200
" />
<path d="M60100 39490
L60050 39510
L59950 39510
L59910 39490
L59880 39460
L59860 39420
L59860 39270
L59880 39230
L59910 39200
L59950 39180
L60050 39180
L60100 39200
" />
<path d="M60310 39510
L60310 39010
" />
<path d="M60530 39510
L60530 39250
L60500 39200
L60450 39180
L60380 39180
L60330 39200
L60310 39230
" />
</g>
<g style="fill:#840084; fill-opacity:0.0; 
stroke:#840084; stroke-width:60; stroke-opacity:1; 
stroke-linecap:round; stroke-linejoin:round;">
</g>
<g style="fill:#848400; fill-opacity:0.0; 
stroke:#848400; stroke-width:60; stroke-opacity:1; 
stroke-linecap:round; stroke-linejoin:round;">
<path d="M57240 35030
L57630 35030
" />
<path d="M57430 35220
L57430 34840
" />
<path d="M58100 34720
L57860 34720
L57840 34960
L57860 34940
L57910 34910
L58030 34910
L58080 34940
L58100 34960
L58130 35010
L58130 35130
L58100 35170
L58080 35200
L58030 35220
L57910 35220
L57860 35200
L57840 35170
" />
<path d="M58270 34720
L58430 35220
L58600 34720
" />
<path d="M58930 34960
L59010 34980
L59030 35010
L59050 35050
L59050 35130
L59030 35170
L59010 35200
L58960 35220
L58770 35220
L58770 34720
L58930 34720
L58980 34750
L59010 34770
L59030 34820
L59030 34860
L59010 34910
L58980 34940
L58930 34960
L58770 34960
" />
</g>
<g style="fill:#848400; fill-opacity:0.0; 
stroke:#848400; stroke-width:100; stroke-opacity:1; 
stroke-linecap:round; stroke-linejoin:round;">
<path style="fill:#848400; fill-opacity:0.0; 
stroke:#848400; stroke-width:100; stroke-opacity:1; 
stroke-linecap:round; stroke-linejoin:round;fill:none"
d="M 57000,35000
56750,34750
56500,34750
56500,35250
56750,35250
57000,35000
Z" /> 
</g>
<g style="fill:#848400; fill-opacity:0.0; 
stroke:#848400; stroke-width:60; stroke-opacity:1; 
stroke-linecap:round; stroke-linejoin:round;">
<path d="M57410 35960
L57480 35980
L57510 36010
L57530 36050
L57530 36130
L57510 36170
L57480 36200
L57430 36220
L57240 36220
L57240 35720
L57410 35720
L57460 35750
L57480 35770
L57510 35820
L57510 35860
L57480 35910
L57460 35940
L57410 35960
L57240 35960
" />
<path d="M57720 36080
L57960 36080
" />
<path d="M57670 36220
L57840 35720
L58010 36220
" />
<path d="M58100 35720
L58390 35720
" />
<path d="M58240 36220
L58240 35720
" />
<path d="M58480 35720
L58770 35720
" />
<path d="M58630 36220
L58630 35720
" />
<path d="M58930 36030
L59320 36030
" />
<path d="M59720 35960
L59790 35980
L59820 36010
L59840 36050
L59840 36130
L59820 36170
L59790 36200
L59740 36220
L59550 36220
L59550 35720
L59720 35720
L59770 35750
L59790 35770
L59820 35820
L59820 35860
L59790 35910
L59770 35940
L59720 35960
L59550 35960
" />
<path d="M60150 35720
L60240 35720
L60290 35750
L60340 35790
L60360 35890
L60360 36050
L60340 36150
L60290 36200
L60240 36220
L60150 36220
L60100 36200
L60050 36150
L60030 36050
L60030 35890
L60050 35790
L60100 35750
L60150 35720
" />
<path d="M60510 35720
L60790 35720
" />
<path d="M60650 36220
L60650 35720
" />
</g>
<g style="fill:#848400; fill-opacity:0.0; 
stroke:#848400; stroke-width:100; stroke-opacity:1; 
stroke-linecap:round; stroke-linejoin:round;">
<path style="fill:#848400; fill-opacity:0.0; 
stroke:#848400; stroke-width:100; stroke-opacity:1; 
stroke-linecap:round; stroke-linejoin:round;fill:none"
d="M 56500,35750
57000,35750
57000,36250
56500,36250
56500,35750
Z" /> 
</g>
<g style="fill:#848400; fill-opacity:0.0; 
stroke:#848400; stroke-width:60; stroke-opacity:1; 
stroke-linecap:round; stroke-linejoin:round;">
<path d="M57510 36750
L57460 36720
L57390 36720
L57320 36750
L57270 36790
L57240 36840
L57220 36940
L57220 37010
L57240 37100
L57270 37150
L57320 37200
L57390 37220
L57430 37220
L57510 37200
L57530 37170
L57530 37010
L57430 37010
" />
<path d="M57740 37220
L57740 36720
L58030 37220
L58030 36720
" />
<path d="M58270 37220
L58270 36720
L58390 36720
L58460 36750
L58510 36790
L58530 36840
L58550 36940
L58550 37010
L58530 37100
L58510 37150
L58460 37200
L58390 37220
L58270 37220
" />
<path d="M58930 36960
L59010 36980
L59030 37010
L59050 37050
L59050 37130
L59030 37170
L59010 37200
L58960 37220
L58770 37220
L58770 36720
L58930 36720
L58980 36750
L59010 36770
L59030 36820
L59030 36860
L59010 36910
L58980 36940
L58930 36960
L58770 36960
" />
</g>
<g style="fill:#848400; fill-opacity:0.0; 
stroke:#848400; stroke-width:100; stroke-opacity:1; 
stroke-linecap:round; stroke-linejoin:round;">
<path style="fill:#848400; fill-opacity:0.0; 
stroke:#848400; stroke-width:100; stroke-opacity:1; 
stroke-linecap:round; stroke-linejoin:round;fill:none"
d="M 56500,36750
57000,36750
57000,37250
56500,37250
56500,36750
Z" /> 
</g>
<g style="fill:#848400; fill-opacity:0.0; 
stroke:#848400; stroke-width:60; stroke-opacity:1; 
stroke-linecap:round; stroke-linejoin:round;">
<path d="M57410 32960
L57480 32980
L57510 33010
L57530 33050
L57530 33130
L57510 33170
L57480 33200
L57430 33220
L57240 33220
L57240 32720
L57410 32720
L57460 32750
L57480 32770
L57510 32820
L57510 32860
L57480 32910
L57460 32940
L57410 32960
L57240 32960
" />
<path d="M57740 33220
L57740 32720
L58030 33220
L58030 32720
" />
<path d="M58550 33170
L58530 33200
L58460 33220
L58410 33220
L58340 33200
L58290 33150
L58270 33100
L58240 33010
L58240 32940
L58270 32840
L58290 32790
L58340 32750
L58410 32720
L58460 32720
L58530 32750
L58550 32770
" />
<path d="M58770 33030
L59150 33030
" />
<path d="M59340 32720
L59650 32720
L59480 32910
L59550 32910
L59600 32940
L59630 32960
L59650 33010
L59650 33130
L59630 33170
L59600 33200
L59550 33220
L59410 33220
L59360 33200
L59340 33170
" />
</g>
<g style="fill:#848400; fill-opacity:0.0; 
stroke:#848400; stroke-width:100; stroke-opacity:1; 
stroke-linecap:round; stroke-linejoin:round;">
<path style="fill:#848400; fill-opacity:0.0; 
stroke:#848400; stroke-width:100; stroke-opacity:1; 
stroke-linecap:round; stroke-linejoin:round;fill:none"
d="M 56500,33000
56750,33250
57000,33250
57000,32750
56750,32750
56500,33000
Z" /> 
</g>
<g style="fill:#848400; fill-opacity:0.0; 
stroke:#848400; stroke-width:60; stroke-opacity:1; 
stroke-linecap:round; stroke-linejoin:round;">
<path d="M57410 33960
L57480 33980
L57510 34010
L57530 34050
L57530 34130
L57510 34170
L57480 34200
L57430 34220
L57240 34220
L57240 33720
L57410 33720
L57460 33750
L57480 33770
L57510 33820
L57510 33860
L57480 33910
L57460 33940
L57410 33960
L57240 33960
" />
<path d="M57740 34220
L57740 33720
L58030 34220
L58030 33720
" />
<path d="M58550 34170
L58530 34200
L58460 34220
L58410 34220
L58340 34200
L58290 34150
L58270 34100
L58240 34010
L58240 33940
L58270 33840
L58290 33790
L58340 33750
L58410 33720
L58460 33720
L58530 33750
L58550 33770
" />
<path d="M58770 34030
L59150 34030
" />
<path d="M59600 33890
L59600 34220
" />
<path d="M59480 33700
L59360 34050
L59670 34050
" />
</g>
<g style="fill:#848400; fill-opacity:0.0; 
stroke:#848400; stroke-width:100; stroke-opacity:1; 
stroke-linecap:round; stroke-linejoin:round;">
<path style="fill:#848400; fill-opacity:0.0; 
stroke:#848400; stroke-width:100; stroke-opacity:1; 
stroke-linecap:round; stroke-linejoin:round;fill:none"
d="M 56500,34000
56750,34250
57000,34250
57000,33750
56750,33750
56500,34000
Z" /> 
</g>
<g style="fill:#848400; fill-opacity:0.0; 
stroke:#848400; stroke-width:60; stroke-opacity:1; 
stroke-linecap:round; stroke-linejoin:round;">
<path d="M57240 32220
L57240 31720
L57360 31720
L57430 31750
L57480 31790
L57510 31840
L57530 31940
L57530 32010
L57510 32100
L57480 32150
L57430 32200
L57360 32220
L57240 32220
" />
<path d="M57840 31720
L57930 31720
L57980 31750
L58030 31790
L58050 31890
L58050 32050
L58030 32150
L57980 32200
L57930 32220
L57840 32220
L57790 32200
L57740 32150
L57720 32050
L57720 31890
L57740 31790
L57790 31750
L57840 31720
" />
<path d="M58270 31720
L58270 32130
L58290 32170
L58320 32200
L58360 32220
L58460 32220
L58510 32200
L58530 32170
L58550 32130
L58550 31720
" />
<path d="M58720 31720
L59010 31720
" />
<path d="M58860 32220
L58860 31720
" />
</g>
<g style="fill:#848400; fill-opacity:0.0; 
stroke:#848400; stroke-width:100; stroke-opacity:1; 
stroke-linecap:round; stroke-linejoin:round;">
<path style="fill:#848400; fill-opacity:0.0; 
stroke:#848400; stroke-width:100; stroke-opacity:1; 
stroke-linecap:round; stroke-linejoin:round;fill:none"
d="M 57000,32000
56750,31750
56500,31750
56500,32250
56750,32250
57000,32000
Z" /> 
</g> 
</svg>
