<?xml version="1.0" standalone="no"?>
<!DOCTYPE svg PUBLIC "-//W3C//DTD SVG 20001102//EN" "http://www.w3.org/TR/2000/CR-SVG-20001102/DTD/svg-20001102.dtd">
<svg xmlns="http://www.w3.org/2000/svg" width="1152" x="5" y="5" height="272" id="C:/Users/Felix/Desktop/2019-03-09+01_test/spectrum" >
 <g style="stroke:rgb(0,0,0);stroke-width:0.9;fill:none;" >
  <g style="stroke:rgb(0,0,0);stroke-width:0.9;fill:none;" >
   <rect width="1147" x="5" y="5" height="19" style="stroke:rgb(0,0,0);stroke-width:0;fill:none;" />
  </g>
  <g style="stroke:rgb(0,0,0);stroke-width:0.9;fill:none;" >
   <text x="578" y="24" style="fill:rgb(0,0,0);stroke-width:0;font-size:14;font-style:normal;font-weight:700;font-family:MS Shell Dlg;" text-anchor="middle" >IR Spectrum</text>
  </g>
  <g style="stroke:rgb(0,0,0);stroke-width:0.9;fill:none;" >
   <g style="stroke:rgb(0,0,0);stroke-width:0.9;fill:none;" >
    <rect width="206" x="78" y="-2" height="44" transform="matrix(6.12323e-17,-1,1,6.12323e-17,7,311)" style="stroke:rgb(0,0,0);stroke-width:0;fill:none;" />
   </g>
   <g style="stroke:rgb(0,0,0);stroke-width:0.9;fill:none;" >
    <text x="181" y="14" transform="matrix(6.12323e-17,-1,1,6.12323e-17,7,311)" style="fill:rgb(0,0,0);stroke-width:0;font-size:12;font-style:normal;font-weight:700;font-family:MS Shell Dlg;" text-anchor="middle" >Epsilon</text>
   </g>
  </g>
  <g style="stroke:rgb(0,0,0);stroke-width:0.9;fill:none;" >
   <line style="stroke:rgb(0,0,0);stroke-width:0.9;fill:none;" y1="228" y2="228" x1="47" x2="41" />
   <g style="stroke:rgb(0,0,0);stroke-width:0.9;fill:none;" >
    <text x="-11" y="-77" transform="translate(43,309)" style="fill:rgb(0,0,0);stroke-width:0;font-size:10;font-style:normal;font-weight:400;font-family:MS Shell Dlg;" >0</text>
   </g>
   <line style="stroke:rgb(0,0,0);stroke-width:0.9;fill:none;" y1="206" y2="206" x1="47" x2="41" />
   <g style="stroke:rgb(0,0,0);stroke-width:0.9;fill:none;" >
    <text x="-9" y="-70" transform="translate(36,280)" style="fill:rgb(0,0,0);stroke-width:0;font-size:10;font-style:normal;font-weight:400;font-family:MS Shell Dlg;" >20</text>
   </g>
   <line style="stroke:rgb(0,0,0);stroke-width:0.9;fill:none;" y1="185" y2="185" x1="47" x2="41" />
   <g style="stroke:rgb(0,0,0);stroke-width:0.9;fill:none;" >
    <text x="-9" y="-63" transform="translate(36,251)" style="fill:rgb(0,0,0);stroke-width:0;font-size:10;font-style:normal;font-weight:400;font-family:MS Shell Dlg;" >40</text>
   </g>
   <line style="stroke:rgb(0,0,0);stroke-width:0.9;fill:none;" y1="163" y2="163" x1="47" x2="41" />
   <g style="stroke:rgb(0,0,0);stroke-width:0.9;fill:none;" >
    <text x="-9" y="-55" transform="translate(36,222)" style="fill:rgb(0,0,0);stroke-width:0;font-size:10;font-style:normal;font-weight:400;font-family:MS Shell Dlg;" >60</text>
   </g>
   <line style="stroke:rgb(0,0,0);stroke-width:0.9;fill:none;" y1="141" y2="141" x1="47" x2="41" />
   <g style="stroke:rgb(0,0,0);stroke-width:0.9;fill:none;" >
    <text x="-9" y="-48" transform="translate(36,193)" style="fill:rgb(0,0,0);stroke-width:0;font-size:10;font-style:normal;font-weight:400;font-family:MS Shell Dlg;" >80</text>
   </g>
   <line style="stroke:rgb(0,0,0);stroke-width:0.9;fill:none;" y1="119" y2="119" x1="47" x2="41" />
   <g style="stroke:rgb(0,0,0);stroke-width:0.9;fill:none;" >
    <text x="-7" y="-41" transform="translate(29,164)" style="fill:rgb(0,0,0);stroke-width:0;font-size:10;font-style:normal;font-weight:400;font-family:MS Shell Dlg;" >100</text>
   </g>
   <line style="stroke:rgb(0,0,0);stroke-width:0.9;fill:none;" y1="98" y2="98" x1="47" x2="41" />
   <g style="stroke:rgb(0,0,0);stroke-width:0.9;fill:none;" >
    <text x="-7" y="-34" transform="translate(29,135)" style="fill:rgb(0,0,0);stroke-width:0;font-size:10;font-style:normal;font-weight:400;font-family:MS Shell Dlg;" >120</text>
   </g>
   <line style="stroke:rgb(0,0,0);stroke-width:0.9;fill:none;" y1="76" y2="76" x1="47" x2="41" />
   <g style="stroke:rgb(0,0,0);stroke-width:0.9;fill:none;" >
    <text x="-7" y="-26" transform="translate(29,106)" style="fill:rgb(0,0,0);stroke-width:0;font-size:10;font-style:normal;font-weight:400;font-family:MS Shell Dlg;" >140</text>
   </g>
   <line style="stroke:rgb(0,0,0);stroke-width:0.9;fill:none;" y1="54" y2="54" x1="47" x2="41" />
   <g style="stroke:rgb(0,0,0);stroke-width:0.9;fill:none;" >
    <text x="-7" y="-19" transform="translate(29,77)" style="fill:rgb(0,0,0);stroke-width:0;font-size:10;font-style:normal;font-weight:400;font-family:MS Shell Dlg;" >160</text>
   </g>
   <line style="stroke:rgb(0,0,0);stroke-width:0.9;fill:none;" y1="32" y2="32" x1="47" x2="41" />
   <g style="stroke:rgb(0,0,0);stroke-width:0.9;fill:none;" >
    <text x="-7" y="-12" transform="translate(29,48)" style="fill:rgb(0,0,0);stroke-width:0;font-size:10;font-style:normal;font-weight:400;font-family:MS Shell Dlg;" >180</text>
   </g>
   <line style="stroke:rgb(0,0,0);stroke-width:0.9;fill:none;" y1="218" y2="218" x1="47" x2="42" />
   <line style="stroke:rgb(0,0,0);stroke-width:0.9;fill:none;" y1="196" y2="196" x1="47" x2="42" />
   <line style="stroke:rgb(0,0,0);stroke-width:0.9;fill:none;" y1="174" y2="174" x1="47" x2="42" />
   <line style="stroke:rgb(0,0,0);stroke-width:0.9;fill:none;" y1="152" y2="152" x1="47" x2="42" />
   <line style="stroke:rgb(0,0,0);stroke-width:0.9;fill:none;" y1="131" y2="131" x1="47" x2="42" />
   <line style="stroke:rgb(0,0,0);stroke-width:0.9;fill:none;" y1="109" y2="109" x1="47" x2="42" />
   <line style="stroke:rgb(0,0,0);stroke-width:0.9;fill:none;" y1="87" y2="87" x1="47" x2="42" />
   <line style="stroke:rgb(0,0,0);stroke-width:0.9;fill:none;" y1="65" y2="65" x1="47" x2="42" />
   <line style="stroke:rgb(0,0,0);stroke-width:0.9;fill:none;" y1="44" y2="44" x1="47" x2="42" />
   <line style="stroke:rgb(0,0,0);stroke-width:0.9;fill:none;" y1="32" y2="228" x1="47" x2="47" />
  </g>
  <g style="stroke:rgb(0,0,0);stroke-width:0.9;fill:none;" >
   <g style="stroke:rgb(0,0,0);stroke-width:0.9;fill:none;" >
    <rect width="206" x="-9" y="384" height="51" transform="matrix(6.12323e-17,1,-1,6.12323e-17,1535,37)" style="stroke:rgb(0,0,0);stroke-width:0;fill:none;" />
   </g>
   <g style="stroke:rgb(0,0,0);stroke-width:0.9;fill:none;" >
    <g style="stroke:rgb(0,0,0);stroke-width:0.9;fill:none;" />
    <g style="stroke:rgb(0,0,0);stroke-width:0.9;fill:none;" >
     <text x="31" y="16" transform="matrix(6.12323e-17,1,-1,6.12323e-17,1149,28)" style="fill:rgb(0,0,0);stroke-width:0;font-size:12;font-style:normal;font-weight:700;font-family:MS Shell Dlg;" >D (10</text>
     <text x="75" y="9" transform="matrix(6.12323e-17,1,-1,6.12323e-17,1149,28)" style="fill:rgb(0,0,0);stroke-width:0;font-size:8;font-style:normal;font-weight:700;font-family:MS Shell Dlg;" >-40</text>
     <text x="93" y="16" transform="matrix(6.12323e-17,1,-1,6.12323e-17,1149,28)" style="fill:rgb(0,0,0);stroke-width:0;font-size:12;font-style:normal;font-weight:700;font-family:MS Shell Dlg;" > esu</text>
     <text x="127" y="9" transform="matrix(6.12323e-17,1,-1,6.12323e-17,1149,28)" style="fill:rgb(0,0,0);stroke-width:0;font-size:8;font-style:normal;font-weight:700;font-family:MS Shell Dlg;" >2</text>
     <text x="134" y="16" transform="matrix(6.12323e-17,1,-1,6.12323e-17,1149,28)" style="fill:rgb(0,0,0);stroke-width:0;font-size:12;font-style:normal;font-weight:700;font-family:MS Shell Dlg;" > cm</text>
     <text x="162" y="9" transform="matrix(6.12323e-17,1,-1,6.12323e-17,1149,28)" style="fill:rgb(0,0,0);stroke-width:0;font-size:8;font-style:normal;font-weight:700;font-family:MS Shell Dlg;" >2</text>
     <text x="169" y="16" transform="matrix(6.12323e-17,1,-1,6.12323e-17,1149,28)" style="fill:rgb(0,0,0);stroke-width:0;font-size:12;font-style:normal;font-weight:700;font-family:MS Shell Dlg;" >)</text>
    </g>
   </g>
  </g>
  <g style="stroke:rgb(0,0,0);stroke-width:0.9;fill:none;" >
   <line style="stroke:rgb(0,0,0);stroke-width:0.9;fill:none;" y1="228" y2="228" x1="1103" x2="1109" />
   <g style="stroke:rgb(0,0,0);stroke-width:0.9;fill:none;" >
    <text x="-371" y="-77" transform="translate(1483,309)" style="fill:rgb(0,0,0);stroke-width:0;font-size:10;font-style:normal;font-weight:400;font-family:MS Shell Dlg;" >0</text>
   </g>
   <line style="stroke:rgb(0,0,0);stroke-width:0.9;fill:none;" y1="200" y2="200" x1="1103" x2="1109" />
   <g style="stroke:rgb(0,0,0);stroke-width:0.9;fill:none;" >
    <text x="-371" y="-68" transform="translate(1483,272)" style="fill:rgb(0,0,0);stroke-width:0;font-size:10;font-style:normal;font-weight:400;font-family:MS Shell Dlg;" >500</text>
   </g>
   <line style="stroke:rgb(0,0,0);stroke-width:0.9;fill:none;" y1="172" y2="172" x1="1103" x2="1109" />
   <g style="stroke:rgb(0,0,0);stroke-width:0.9;fill:none;" >
    <text x="-370" y="-58" transform="translate(1482,234)" style="fill:rgb(0,0,0);stroke-width:0;font-size:10;font-style:normal;font-weight:400;font-family:MS Shell Dlg;" >1000</text>
   </g>
   <line style="stroke:rgb(0,0,0);stroke-width:0.9;fill:none;" y1="144" y2="144" x1="1103" x2="1109" />
   <g style="stroke:rgb(0,0,0);stroke-width:0.9;fill:none;" >
    <text x="-370" y="-49" transform="translate(1482,197)" style="fill:rgb(0,0,0);stroke-width:0;font-size:10;font-style:normal;font-weight:400;font-family:MS Shell Dlg;" >1500</text>
   </g>
   <line style="stroke:rgb(0,0,0);stroke-width:0.9;fill:none;" y1="116" y2="116" x1="1103" x2="1109" />
   <g style="stroke:rgb(0,0,0);stroke-width:0.9;fill:none;" >
    <text x="-370" y="-40" transform="translate(1482,160)" style="fill:rgb(0,0,0);stroke-width:0;font-size:10;font-style:normal;font-weight:400;font-family:MS Shell Dlg;" >2000</text>
   </g>
   <line style="stroke:rgb(0,0,0);stroke-width:0.9;fill:none;" y1="89" y2="89" x1="1103" x2="1109" />
   <g style="stroke:rgb(0,0,0);stroke-width:0.9;fill:none;" >
    <text x="-370" y="-31" transform="translate(1482,123)" style="fill:rgb(0,0,0);stroke-width:0;font-size:10;font-style:normal;font-weight:400;font-family:MS Shell Dlg;" >2500</text>
   </g>
   <line style="stroke:rgb(0,0,0);stroke-width:0.9;fill:none;" y1="60" y2="60" x1="1103" x2="1109" />
   <g style="stroke:rgb(0,0,0);stroke-width:0.9;fill:none;" >
    <text x="-370" y="-21" transform="translate(1482,85)" style="fill:rgb(0,0,0);stroke-width:0;font-size:10;font-style:normal;font-weight:400;font-family:MS Shell Dlg;" >3000</text>
   </g>
   <line style="stroke:rgb(0,0,0);stroke-width:0.9;fill:none;" y1="32" y2="32" x1="1103" x2="1109" />
   <g style="stroke:rgb(0,0,0);stroke-width:0.9;fill:none;" >
    <text x="-370" y="-12" transform="translate(1482,48)" style="fill:rgb(0,0,0);stroke-width:0;font-size:10;font-style:normal;font-weight:400;font-family:MS Shell Dlg;" >3500</text>
   </g>
   <line style="stroke:rgb(0,0,0);stroke-width:0.9;fill:none;" y1="32" y2="228" x1="1103" x2="1103" />
  </g>
  <g style="stroke:rgb(0,0,0);stroke-width:0.9;fill:none;" >
   <g style="stroke:rgb(0,0,0);stroke-width:0.9;fill:none;" >
    <rect width="1058" x="-16" y="-77" height="39" transform="translate(66,310)" style="stroke:rgb(0,0,0);stroke-width:0;fill:none;" />
   </g>
   <g style="stroke:rgb(0,0,0);stroke-width:0.9;fill:none;" >
    <g style="stroke:rgb(0,0,0);stroke-width:0.9;fill:none;" />
    <g style="stroke:rgb(0,0,0);stroke-width:0.9;fill:none;" >
     <text x="461" y="16" transform="translate(50,250)" style="fill:rgb(0,0,0);stroke-width:0;font-size:12;font-style:normal;font-weight:700;font-family:MS Shell Dlg;" >Frequency (cm</text>
     <text x="579" y="9" transform="translate(50,250)" style="fill:rgb(0,0,0);stroke-width:0;font-size:8;font-style:normal;font-weight:700;font-family:MS Shell Dlg;" >-1</text>
     <text x="590" y="16" transform="translate(50,250)" style="fill:rgb(0,0,0);stroke-width:0;font-size:12;font-style:normal;font-weight:700;font-family:MS Shell Dlg;" >)</text>
    </g>
   </g>
  </g>
  <g style="stroke:rgb(0,0,0);stroke-width:0.9;fill:none;" >
   <line style="stroke:rgb(0,0,0);stroke-width:0.9;fill:none;" y1="234" y2="240" x1="52" x2="52" />
   <g style="stroke:rgb(0,0,0);stroke-width:0.9;fill:none;" >
    <text x="-16" y="-84" transform="translate(66,335)" style="fill:rgb(0,0,0);stroke-width:0;font-size:10;font-style:normal;font-weight:400;font-family:MS Shell Dlg;" >0</text>
   </g>
   <line style="stroke:rgb(0,0,0);stroke-width:0.9;fill:none;" y1="234" y2="240" x1="168" x2="168" />
   <g style="stroke:rgb(0,0,0);stroke-width:0.9;fill:none;" >
    <text x="-53" y="-84" transform="translate(214,335)" style="fill:rgb(0,0,0);stroke-width:0;font-size:10;font-style:normal;font-weight:400;font-family:MS Shell Dlg;" >100</text>
   </g>
   <line style="stroke:rgb(0,0,0);stroke-width:0.9;fill:none;" y1="234" y2="240" x1="284" x2="284" />
   <g style="stroke:rgb(0,0,0);stroke-width:0.9;fill:none;" >
    <text x="-92" y="-84" transform="translate(369,335)" style="fill:rgb(0,0,0);stroke-width:0;font-size:10;font-style:normal;font-weight:400;font-family:MS Shell Dlg;" >200</text>
   </g>
   <line style="stroke:rgb(0,0,0);stroke-width:0.9;fill:none;" y1="234" y2="240" x1="401" x2="401" />
   <g style="stroke:rgb(0,0,0);stroke-width:0.9;fill:none;" >
    <text x="-131" y="-84" transform="translate(524,335)" style="fill:rgb(0,0,0);stroke-width:0;font-size:10;font-style:normal;font-weight:400;font-family:MS Shell Dlg;" >300</text>
   </g>
   <line style="stroke:rgb(0,0,0);stroke-width:0.9;fill:none;" y1="234" y2="240" x1="517" x2="517" />
   <g style="stroke:rgb(0,0,0);stroke-width:0.9;fill:none;" >
    <text x="-170" y="-84" transform="translate(679,335)" style="fill:rgb(0,0,0);stroke-width:0;font-size:10;font-style:normal;font-weight:400;font-family:MS Shell Dlg;" >400</text>
   </g>
   <line style="stroke:rgb(0,0,0);stroke-width:0.9;fill:none;" y1="234" y2="240" x1="632" x2="632" />
   <g style="stroke:rgb(0,0,0);stroke-width:0.9;fill:none;" >
    <text x="-208" y="-84" transform="translate(833,335)" style="fill:rgb(0,0,0);stroke-width:0;font-size:10;font-style:normal;font-weight:400;font-family:MS Shell Dlg;" >500</text>
   </g>
   <line style="stroke:rgb(0,0,0);stroke-width:0.9;fill:none;" y1="234" y2="240" x1="749" x2="749" />
   <g style="stroke:rgb(0,0,0);stroke-width:0.9;fill:none;" >
    <text x="-247" y="-84" transform="translate(988,335)" style="fill:rgb(0,0,0);stroke-width:0;font-size:10;font-style:normal;font-weight:400;font-family:MS Shell Dlg;" >600</text>
   </g>
   <line style="stroke:rgb(0,0,0);stroke-width:0.9;fill:none;" y1="234" y2="240" x1="865" x2="865" />
   <g style="stroke:rgb(0,0,0);stroke-width:0.9;fill:none;" >
    <text x="-286" y="-84" transform="translate(1143,335)" style="fill:rgb(0,0,0);stroke-width:0;font-size:10;font-style:normal;font-weight:400;font-family:MS Shell Dlg;" >700</text>
   </g>
   <line style="stroke:rgb(0,0,0);stroke-width:0.9;fill:none;" y1="234" y2="240" x1="981" x2="981" />
   <g style="stroke:rgb(0,0,0);stroke-width:0.9;fill:none;" >
    <text x="-324" y="-84" transform="translate(1298,335)" style="fill:rgb(0,0,0);stroke-width:0;font-size:10;font-style:normal;font-weight:400;font-family:MS Shell Dlg;" >800</text>
   </g>
   <line style="stroke:rgb(0,0,0);stroke-width:0.9;fill:none;" y1="234" y2="240" x1="1097" x2="1097" />
   <g style="stroke:rgb(0,0,0);stroke-width:0.9;fill:none;" >
    <text x="-363" y="-84" transform="translate(1453,335)" style="fill:rgb(0,0,0);stroke-width:0;font-size:10;font-style:normal;font-weight:400;font-family:MS Shell Dlg;" >900</text>
   </g>
   <line style="stroke:rgb(0,0,0);stroke-width:0.9;fill:none;" y1="234" y2="237" x1="63" x2="63" />
   <line style="stroke:rgb(0,0,0);stroke-width:0.9;fill:none;" y1="234" y2="237" x1="75" x2="75" />
   <line style="stroke:rgb(0,0,0);stroke-width:0.9;fill:none;" y1="234" y2="237" x1="86" x2="86" />
   <line style="stroke:rgb(0,0,0);stroke-width:0.9;fill:none;" y1="234" y2="237" x1="98" x2="98" />
   <line style="stroke:rgb(0,0,0);stroke-width:0.9;fill:none;" y1="234" y2="239" x1="110" x2="110" />
   <line style="stroke:rgb(0,0,0);stroke-width:0.9;fill:none;" y1="234" y2="237" x1="122" x2="122" />
   <line style="stroke:rgb(0,0,0);stroke-width:0.9;fill:none;" y1="234" y2="237" x1="133" x2="133" />
   <line style="stroke:rgb(0,0,0);stroke-width:0.9;fill:none;" y1="234" y2="237" x1="145" x2="145" />
   <line style="stroke:rgb(0,0,0);stroke-width:0.9;fill:none;" y1="234" y2="237" x1="156" x2="156" />
   <line style="stroke:rgb(0,0,0);stroke-width:0.9;fill:none;" y1="234" y2="237" x1="179" x2="179" />
   <line style="stroke:rgb(0,0,0);stroke-width:0.9;fill:none;" y1="234" y2="237" x1="191" x2="191" />
   <line style="stroke:rgb(0,0,0);stroke-width:0.9;fill:none;" y1="234" y2="237" x1="203" x2="203" />
   <line style="stroke:rgb(0,0,0);stroke-width:0.9;fill:none;" y1="234" y2="237" x1="215" x2="215" />
   <line style="stroke:rgb(0,0,0);stroke-width:0.9;fill:none;" y1="234" y2="239" x1="226" x2="226" />
   <line style="stroke:rgb(0,0,0);stroke-width:0.9;fill:none;" y1="234" y2="237" x1="238" x2="238" />
   <line style="stroke:rgb(0,0,0);stroke-width:0.9;fill:none;" y1="234" y2="237" x1="249" x2="249" />
   <line style="stroke:rgb(0,0,0);stroke-width:0.9;fill:none;" y1="234" y2="237" x1="261" x2="261" />
   <line style="stroke:rgb(0,0,0);stroke-width:0.9;fill:none;" y1="234" y2="237" x1="272" x2="272" />
   <line style="stroke:rgb(0,0,0);stroke-width:0.9;fill:none;" y1="234" y2="237" x1="296" x2="296" />
   <line style="stroke:rgb(0,0,0);stroke-width:0.9;fill:none;" y1="234" y2="237" x1="308" x2="308" />
   <line style="stroke:rgb(0,0,0);stroke-width:0.9;fill:none;" y1="234" y2="237" x1="319" x2="319" />
   <line style="stroke:rgb(0,0,0);stroke-width:0.9;fill:none;" y1="234" y2="237" x1="331" x2="331" />
   <line style="stroke:rgb(0,0,0);stroke-width:0.9;fill:none;" y1="234" y2="239" x1="342" x2="342" />
   <line style="stroke:rgb(0,0,0);stroke-width:0.9;fill:none;" y1="234" y2="237" x1="354" x2="354" />
   <line style="stroke:rgb(0,0,0);stroke-width:0.9;fill:none;" y1="234" y2="237" x1="365" x2="365" />
   <line style="stroke:rgb(0,0,0);stroke-width:0.9;fill:none;" y1="234" y2="237" x1="377" x2="377" />
   <line style="stroke:rgb(0,0,0);stroke-width:0.9;fill:none;" y1="234" y2="237" x1="389" x2="389" />
   <line style="stroke:rgb(0,0,0);stroke-width:0.9;fill:none;" y1="234" y2="237" x1="412" x2="412" />
   <line style="stroke:rgb(0,0,0);stroke-width:0.9;fill:none;" y1="234" y2="237" x1="424" x2="424" />
   <line style="stroke:rgb(0,0,0);stroke-width:0.9;fill:none;" y1="234" y2="237" x1="435" x2="435" />
   <line style="stroke:rgb(0,0,0);stroke-width:0.9;fill:none;" y1="234" y2="237" x1="447" x2="447" />
   <line style="stroke:rgb(0,0,0);stroke-width:0.9;fill:none;" y1="234" y2="239" x1="458" x2="458" />
   <line style="stroke:rgb(0,0,0);stroke-width:0.9;fill:none;" y1="234" y2="237" x1="470" x2="470" />
   <line style="stroke:rgb(0,0,0);stroke-width:0.9;fill:none;" y1="234" y2="237" x1="482" x2="482" />
   <line style="stroke:rgb(0,0,0);stroke-width:0.9;fill:none;" y1="234" y2="237" x1="494" x2="494" />
   <line style="stroke:rgb(0,0,0);stroke-width:0.9;fill:none;" y1="234" y2="237" x1="505" x2="505" />
   <line style="stroke:rgb(0,0,0);stroke-width:0.9;fill:none;" y1="234" y2="237" x1="528" x2="528" />
   <line style="stroke:rgb(0,0,0);stroke-width:0.9;fill:none;" y1="234" y2="237" x1="540" x2="540" />
   <line style="stroke:rgb(0,0,0);stroke-width:0.9;fill:none;" y1="234" y2="237" x1="551" x2="551" />
   <line style="stroke:rgb(0,0,0);stroke-width:0.9;fill:none;" y1="234" y2="237" x1="563" x2="563" />
   <line style="stroke:rgb(0,0,0);stroke-width:0.9;fill:none;" y1="234" y2="239" x1="575" x2="575" />
   <line style="stroke:rgb(0,0,0);stroke-width:0.9;fill:none;" y1="234" y2="237" x1="586" x2="586" />
   <line style="stroke:rgb(0,0,0);stroke-width:0.9;fill:none;" y1="234" y2="237" x1="598" x2="598" />
   <line style="stroke:rgb(0,0,0);stroke-width:0.9;fill:none;" y1="234" y2="237" x1="609" x2="609" />
   <line style="stroke:rgb(0,0,0);stroke-width:0.9;fill:none;" y1="234" y2="237" x1="621" x2="621" />
   <line style="stroke:rgb(0,0,0);stroke-width:0.9;fill:none;" y1="234" y2="237" x1="644" x2="644" />
   <line style="stroke:rgb(0,0,0);stroke-width:0.9;fill:none;" y1="234" y2="237" x1="656" x2="656" />
   <line style="stroke:rgb(0,0,0);stroke-width:0.9;fill:none;" y1="234" y2="237" x1="668" x2="668" />
   <line style="stroke:rgb(0,0,0);stroke-width:0.9;fill:none;" y1="234" y2="237" x1="679" x2="679" />
   <line style="stroke:rgb(0,0,0);stroke-width:0.9;fill:none;" y1="234" y2="239" x1="691" x2="691" />
   <line style="stroke:rgb(0,0,0);stroke-width:0.9;fill:none;" y1="234" y2="237" x1="702" x2="702" />
   <line style="stroke:rgb(0,0,0);stroke-width:0.9;fill:none;" y1="234" y2="237" x1="714" x2="714" />
   <line style="stroke:rgb(0,0,0);stroke-width:0.9;fill:none;" y1="234" y2="237" x1="725" x2="725" />
   <line style="stroke:rgb(0,0,0);stroke-width:0.9;fill:none;" y1="234" y2="237" x1="737" x2="737" />
   <line style="stroke:rgb(0,0,0);stroke-width:0.9;fill:none;" y1="234" y2="237" x1="761" x2="761" />
   <line style="stroke:rgb(0,0,0);stroke-width:0.9;fill:none;" y1="234" y2="237" x1="772" x2="772" />
   <line style="stroke:rgb(0,0,0);stroke-width:0.9;fill:none;" y1="234" y2="237" x1="784" x2="784" />
   <line style="stroke:rgb(0,0,0);stroke-width:0.9;fill:none;" y1="234" y2="237" x1="795" x2="795" />
   <line style="stroke:rgb(0,0,0);stroke-width:0.9;fill:none;" y1="234" y2="239" x1="807" x2="807" />
   <line style="stroke:rgb(0,0,0);stroke-width:0.9;fill:none;" y1="234" y2="237" x1="818" x2="818" />
   <line style="stroke:rgb(0,0,0);stroke-width:0.9;fill:none;" y1="234" y2="237" x1="830" x2="830" />
   <line style="stroke:rgb(0,0,0);stroke-width:0.9;fill:none;" y1="234" y2="237" x1="842" x2="842" />
   <line style="stroke:rgb(0,0,0);stroke-width:0.9;fill:none;" y1="234" y2="237" x1="854" x2="854" />
   <line style="stroke:rgb(0,0,0);stroke-width:0.9;fill:none;" y1="234" y2="237" x1="877" x2="877" />
   <line style="stroke:rgb(0,0,0);stroke-width:0.9;fill:none;" y1="234" y2="237" x1="888" x2="888" />
   <line style="stroke:rgb(0,0,0);stroke-width:0.9;fill:none;" y1="234" y2="237" x1="900" x2="900" />
   <line style="stroke:rgb(0,0,0);stroke-width:0.9;fill:none;" y1="234" y2="237" x1="911" x2="911" />
   <line style="stroke:rgb(0,0,0);stroke-width:0.9;fill:none;" y1="234" y2="239" x1="923" x2="923" />
   <line style="stroke:rgb(0,0,0);stroke-width:0.9;fill:none;" y1="234" y2="237" x1="935" x2="935" />
   <line style="stroke:rgb(0,0,0);stroke-width:0.9;fill:none;" y1="234" y2="237" x1="947" x2="947" />
   <line style="stroke:rgb(0,0,0);stroke-width:0.9;fill:none;" y1="234" y2="237" x1="958" x2="958" />
   <line style="stroke:rgb(0,0,0);stroke-width:0.9;fill:none;" y1="234" y2="237" x1="970" x2="970" />
   <line style="stroke:rgb(0,0,0);stroke-width:0.9;fill:none;" y1="234" y2="237" x1="993" x2="993" />
   <line style="stroke:rgb(0,0,0);stroke-width:0.9;fill:none;" y1="234" y2="237" x1="1004" x2="1004" />
   <line style="stroke:rgb(0,0,0);stroke-width:0.9;fill:none;" y1="234" y2="237" x1="1016" x2="1016" />
   <line style="stroke:rgb(0,0,0);stroke-width:0.9;fill:none;" y1="234" y2="237" x1="1028" x2="1028" />
   <line style="stroke:rgb(0,0,0);stroke-width:0.9;fill:none;" y1="234" y2="239" x1="1040" x2="1040" />
   <line style="stroke:rgb(0,0,0);stroke-width:0.9;fill:none;" y1="234" y2="237" x1="1051" x2="1051" />
   <line style="stroke:rgb(0,0,0);stroke-width:0.9;fill:none;" y1="234" y2="237" x1="1063" x2="1063" />
   <line style="stroke:rgb(0,0,0);stroke-width:0.9;fill:none;" y1="234" y2="237" x1="1074" x2="1074" />
   <line style="stroke:rgb(0,0,0);stroke-width:0.9;fill:none;" y1="234" y2="237" x1="1086" x2="1086" />
   <line style="stroke:rgb(0,0,0);stroke-width:0.9;fill:none;" y1="234" y2="234" x1="52" x2="1097" />
  </g>
  <rect width="1051" x="49" y="28" height="204" style="stroke:rgb(0,0,0);stroke-width:0;fill:rgb(255,255,245);" />
  <line style="stroke:rgb(192,192,192);stroke-width:0.9;stroke-dasharray:3;fill:none;" y1="28" y2="232" x1="52" x2="52" />
  <line style="stroke:rgb(192,192,192);stroke-width:0.9;stroke-dasharray:3;fill:none;" y1="28" y2="232" x1="168" x2="168" />
  <line style="stroke:rgb(192,192,192);stroke-width:0.9;stroke-dasharray:3;fill:none;" y1="28" y2="232" x1="284" x2="284" />
  <line style="stroke:rgb(192,192,192);stroke-width:0.9;stroke-dasharray:3;fill:none;" y1="28" y2="232" x1="400" x2="400" />
  <line style="stroke:rgb(192,192,192);stroke-width:0.9;stroke-dasharray:3;fill:none;" y1="28" y2="232" x1="516" x2="516" />
  <line style="stroke:rgb(192,192,192);stroke-width:0.9;stroke-dasharray:3;fill:none;" y1="28" y2="232" x1="633" x2="633" />
  <line style="stroke:rgb(192,192,192);stroke-width:0.9;stroke-dasharray:3;fill:none;" y1="28" y2="232" x1="749" x2="749" />
  <line style="stroke:rgb(192,192,192);stroke-width:0.9;stroke-dasharray:3;fill:none;" y1="28" y2="232" x1="865" x2="865" />
  <line style="stroke:rgb(192,192,192);stroke-width:0.9;stroke-dasharray:3;fill:none;" y1="28" y2="232" x1="981" x2="981" />
  <line style="stroke:rgb(192,192,192);stroke-width:0.9;stroke-dasharray:3;fill:none;" y1="28" y2="232" x1="1097" x2="1097" />
  <line style="stroke:rgb(192,192,192);stroke-width:0.9;stroke-dasharray:3;fill:none;" y1="229" y2="229" x1="49" x2="1100" />
  <line style="stroke:rgb(192,192,192);stroke-width:0.9;stroke-dasharray:3;fill:none;" y1="207" y2="207" x1="49" x2="1100" />
  <line style="stroke:rgb(192,192,192);stroke-width:0.9;stroke-dasharray:3;fill:none;" y1="185" y2="185" x1="49" x2="1100" />
  <line style="stroke:rgb(192,192,192);stroke-width:0.9;stroke-dasharray:3;fill:none;" y1="164" y2="164" x1="49" x2="1100" />
  <line style="stroke:rgb(192,192,192);stroke-width:0.9;stroke-dasharray:3;fill:none;" y1="142" y2="142" x1="49" x2="1100" />
  <line style="stroke:rgb(192,192,192);stroke-width:0.9;stroke-dasharray:3;fill:none;" y1="120" y2="120" x1="49" x2="1100" />
  <line style="stroke:rgb(192,192,192);stroke-width:0.9;stroke-dasharray:3;fill:none;" y1="98" y2="98" x1="49" x2="1100" />
  <line style="stroke:rgb(192,192,192);stroke-width:0.9;stroke-dasharray:3;fill:none;" y1="77" y2="77" x1="49" x2="1100" />
  <line style="stroke:rgb(192,192,192);stroke-width:0.9;stroke-dasharray:3;fill:none;" y1="55" y2="55" x1="49" x2="1100" />
  <line style="stroke:rgb(192,192,192);stroke-width:0.9;stroke-dasharray:3;fill:none;" y1="33" y2="33" x1="49" x2="1100" />
  <g style="stroke:rgb(192,192,192);stroke-width:0.9;stroke-dasharray:3;fill:none;" >
   <line style="stroke:rgb(0,0,255);stroke-width:0.9;fill:none;" y1="229" y2="35" x1="117" x2="117" />
   <line style="stroke:rgb(0,0,255);stroke-width:0.9;fill:none;" y1="229" y2="206" x1="454" x2="454" />
   <line style="stroke:rgb(0,0,255);stroke-width:0.9;fill:none;" y1="229" y2="229" x1="656" x2="656" />
   <line style="stroke:rgb(0,0,255);stroke-width:0.9;fill:none;" y1="229" y2="213" x1="684" x2="684" />
   <line style="stroke:rgb(0,0,255);stroke-width:0.9;fill:none;" y1="229" y2="227" x1="765" x2="765" />
   <line style="stroke:rgb(0,0,255);stroke-width:0.9;fill:none;" y1="229" y2="228" x1="848" x2="848" />
   <line style="stroke:rgb(0,0,255);stroke-width:0.9;fill:none;" y1="229" y2="227" x1="892" x2="892" />
   <line style="stroke:rgb(0,0,255);stroke-width:0.9;fill:none;" y1="229" y2="227" x1="983" x2="983" />
  </g>
  <g style="stroke:rgb(192,192,192);stroke-width:0.9;stroke-dasharray:3;fill:none;" >
   <polyline points="89 224 97 220 101 215 105 206 107 197 109 184 110 175 112 147 113 127 115 78 116 56 117 46 118 51 119 70 121 120 122 141 123 158 124 171 126 189 128 201 132 213 140 222 172 228 364 229 428 225 436 221 440 216 444 205 446 195 447 188 449 166 450 152 452 115 453 100 454 94 455 99 458 151 459 166 460 178 462 195 464 205 468 216 472 221 488 227 552 229 648 226 664 220 668 217 672 209 674 201 676 190 678 170 679 156 680 139 682 100 683 87 684 85 685 96 688 152 689 167 690 179 692 195 694 205 698 215 706 223 722 227 754 225 758 222 764 210 766 210 770 220 774 225 790 228 838 227 848 218 856 226 880 226 884 223 888 216 891 207 893 208 897 219 901 224 917 228 949 228 973 225 979 216 983 204 985 206 989 218 993 224 1011 228" style="stroke:rgb(0,0,0);stroke-width:0.9;fill:none;" />
  </g>
 </g>
</svg>
